<svg width="11" height="8" viewBox="0 0 11 8" fill="none" xmlns="http://www.w3.org/2000/svg">
<g clip-path="url(#clip0_13213_4158)">
<path d="M8.94522 3.40179L9.35517 3.79821C9.52875 3.96607 9.52875 4.2375 9.35517 4.40357L5.76724 7.875C5.59366 8.04286 5.31298 8.04286 5.14125 7.875L1.55147 4.40357C1.37789 4.23571 1.37789 3.96429 1.55147 3.79821L1.96142 3.40179C2.13684 3.23214 2.42307 3.23571 2.5948 3.40893L4.71468 5.56071L4.71468 0.428571C4.71468 0.191071 4.91227 -1.99896e-07 5.15787 -1.8916e-07L5.74878 -1.63331e-07C5.99437 -1.52596e-07 6.19196 0.191071 6.19196 0.428571L6.19196 5.56071L8.31184 3.40893C8.48358 3.23393 8.7698 3.23036 8.94522 3.40179Z" fill="#949096"/>
</g>
<defs>
<clipPath id="clip0_13213_4158">
<rect width="8" height="9.45455" fill="white" transform="translate(10.1807) rotate(90)"/>
</clipPath>
</defs>
</svg>
