<svg width="8" height="10" viewBox="0 0 8 10" fill="none" xmlns="http://www.w3.org/2000/svg">
<g clip-path="url(#clip0_13214_4123)">
<path d="M3.40081 1.50815L3.79724 1.0982C3.96509 0.924623 4.23652 0.924623 4.40259 1.0982L7.87402 4.68613C8.04188 4.85971 8.04188 5.14039 7.87402 5.31212L4.40259 8.9019C4.23474 9.07547 3.96331 9.07547 3.79724 8.9019L3.40081 8.49195C3.23117 8.31653 3.23474 8.0303 3.40795 7.85857L5.55974 5.73869H0.427595C0.190095 5.73869 -0.000976562 5.5411 -0.000976562 5.2955L-0.000976562 4.70459C-0.000976562 4.459 0.190095 4.26141 0.427595 4.26141H5.55974L3.40795 2.14153C3.23295 1.96979 3.22938 1.68357 3.40081 1.50815Z" fill="url(#paint0_linear_13214_4123)"/>
</g>
<defs>
<linearGradient id="paint0_linear_13214_4123" x1="-0.000974379" y1="1.00983" x2="8.53494" y2="8.46097" gradientUnits="userSpaceOnUse">
<stop stop-color="#F99073"/>
<stop offset="1" stop-color="#D2957E"/>
</linearGradient>
<clipPath id="clip0_13214_4123">
<rect width="8" height="9.45455" fill="white" transform="matrix(-1 0 0 -1 8 9.72729)"/>
</clipPath>
</defs>
</svg>
