<svg width="16" height="16" viewBox="0 0 16 16" xmlns="http://www.w3.org/2000/svg">
<path d="M11.8344 8.39688C11.8281 7.25 12.3469 6.38437 13.3969 5.74687C12.8094 4.90625 11.9219 4.44375 10.75 4.35313C9.64062 4.26562 8.42812 5 7.98438 5C7.51562 5 6.44063 4.38438 5.59687 4.38438C3.85312 4.4125 2 5.775 2 8.54688C2 9.36563 2.15 10.2115 2.45 11.0844C2.85 12.2313 4.29375 15.0437 5.8 14.9969C6.5875 14.9781 7.14375 14.4375 8.16875 14.4375C9.1625 14.4375 9.67812 14.9969 10.5562 14.9969C12.075 14.975 13.3812 12.4187 13.7625 11.2688C11.725 10.3094 11.8344 8.45625 11.8344 8.39688ZM10.0656 3.26562C10.9187 2.25312 10.8406 1.33125 10.8156 1C10.0625 1.04375 9.19062 1.5125 8.69375 2.09063C8.14687 2.70938 7.825 3.475 7.89375 4.3375C8.70938 4.4 9.45312 3.98125 10.0656 3.26562Z" />
</svg>
