<svg width="24" height="24" viewBox="0 0 24 24" fill="none" xmlns="http://www.w3.org/2000/svg">
<path d="M3.83909 5.84417L6.16551 3.5199C6.32962 3.35507 6.52468 3.22429 6.73948 3.13507C6.95428 3.04585 7.1846 2.99994 7.41719 3C7.89122 3 8.33684 3.18568 8.67106 3.5199L11.1744 6.0233C11.3392 6.18741 11.47 6.38247 11.5592 6.59728C11.6485 6.81208 11.6944 7.0424 11.6943 7.275C11.6943 7.74903 11.5086 8.19466 11.1744 8.52888L9.34386 10.3595C9.77236 11.3039 10.3681 12.1632 11.1023 12.8956C11.8347 13.6317 12.6939 14.2296 13.6385 14.6607L15.469 12.8301C15.6331 12.6653 15.8282 12.5345 16.043 12.4453C16.2578 12.356 16.4881 12.3101 16.7207 12.3102C17.1947 12.3102 17.6403 12.4959 17.9746 12.8301L20.4801 15.3313C20.6451 15.4957 20.776 15.6911 20.8653 15.9063C20.9545 16.1215 21.0003 16.3522 21 16.5852C21 17.0592 20.8143 17.5049 20.4801 17.8391L18.1581 20.1612C17.625 20.6964 16.8889 21 16.1331 21C15.9736 21 15.8207 20.9869 15.67 20.9607C12.7254 20.4757 9.80478 18.9095 7.44777 16.5546C5.09296 14.2019 3.5289 11.2835 3.03741 8.3301C2.88886 7.42791 3.18813 6.49951 3.83909 5.84417Z" fill="#E69379"/>
</svg>
