<svg width="24" height="24" viewBox="0 0 24 24" fill="none" xmlns="http://www.w3.org/2000/svg">
<path d="M20.8441 14.091C20.7337 13.3239 20.1414 12.7259 19.379 12.5477C16.4154 11.8531 15.6725 10.1465 15.5472 8.2536C15.0216 8.15585 14.0867 8.05005 12.4997 8.05005C10.9127 8.05005 9.97775 8.15585 9.4522 8.2536C9.32685 10.1465 8.58395 11.8531 5.6204 12.5477C4.85795 12.7271 4.2657 13.3239 4.1553 14.091L3.58375 18.0493C3.3825 19.4431 4.406 20.7 5.8297 20.7H19.1697C20.5922 20.7 21.6169 19.4431 21.4156 18.0493L20.8441 14.091ZM12.4997 17.8158C10.8954 17.8158 9.5948 16.5278 9.5948 14.9408C9.5948 13.3538 10.8954 12.0658 12.4997 12.0658C14.1039 12.0658 15.4046 13.3538 15.4046 14.9408C15.4046 16.5278 14.1028 17.8158 12.4997 17.8158ZM23.9422 6.90005C23.9146 5.17505 19.5239 2.3012 12.4997 2.30005C5.47435 2.3012 1.08365 5.17505 1.0572 6.90005C1.03075 8.62505 1.08135 10.8698 3.97245 10.4961C7.3546 10.0579 7.14645 8.8769 7.14645 7.1887C7.14645 6.0111 9.89725 5.72705 12.4997 5.72705C15.1021 5.72705 17.8518 6.0111 17.8529 7.1887C17.8529 8.8769 17.6448 10.0579 21.0269 10.4961C23.9169 10.8698 23.9686 8.62505 23.9422 6.90005Z" fill="#E69379"/>
</svg>
