<svg width="11" height="8" fill="none" xmlns="http://www.w3.org/2000/svg"><g clip-path="url(#clip0_13213_4158)"><path d="M8.945 3.402l.41.396a.417.417 0 010 .606L5.767 7.875a.452.452 0 01-.626 0l-3.59-3.471a.417.417 0 010-.606l.41-.396a.454.454 0 01.634.007l2.12 2.152V.429c0-.238.197-.429.443-.429h.59c.246 0 .444.191.444.429V5.56l2.12-2.152a.451.451 0 01.633-.007z" fill="#949096"/></g><defs><clipPath id="clip0_13213_4158"><path fill="#fff" transform="rotate(90 5.09 5.09)" d="M0 0h8v9.455H0z"/></clipPath></defs></svg>