<svg width="8" height="10" fill="none" xmlns="http://www.w3.org/2000/svg"><g clip-path="url(#clip0_13214_4123)"><path d="M3.4 1.508l.397-.41a.417.417 0 01.606 0l3.471 3.588a.452.452 0 010 .626l-3.471 3.59a.417.417 0 01-.606 0l-.396-.41a.454.454 0 01.007-.633l2.152-2.12H.428a.435.435 0 01-.429-.444v-.59c0-.246.191-.444.429-.444H5.56l-2.152-2.12a.451.451 0 01-.007-.633z" fill="url(#paint0_linear_13214_4123)"/></g><defs><linearGradient id="paint0_linear_13214_4123" x1="-.001" y1="1.01" x2="8.535" y2="8.461" gradientUnits="userSpaceOnUse"><stop stop-color="#F99073"/><stop offset="1" stop-color="#D2957E"/></linearGradient><clipPath id="clip0_13214_4123"><path fill="#fff" transform="rotate(180 4 4.864)" d="M0 0h8v9.455H0z"/></clipPath></defs></svg>