<svg width="16" height="16" xmlns="http://www.w3.org/2000/svg"><path d="M11.834 8.397c-.006-1.147.513-2.013 1.563-2.65-.588-.84-1.475-1.303-2.647-1.394C9.64 4.266 8.428 5 7.984 5c-.468 0-1.543-.616-2.387-.616C3.853 4.412 2 5.775 2 8.547c0 .819.15 1.664.45 2.537.4 1.147 1.844 3.96 3.35 3.913.788-.019 1.344-.56 2.369-.56.993 0 1.51.56 2.387.56 1.519-.022 2.825-2.578 3.207-3.728-2.038-.96-1.929-2.813-1.929-2.872zm-1.768-5.131c.853-1.013.775-1.935.75-2.266-.754.044-1.625.512-2.122 1.09-.547.62-.869 1.385-.8 2.248.815.062 1.56-.357 2.172-1.072z"/></svg>