<svg width="24" height="24" fill="none" xmlns="http://www.w3.org/2000/svg"><path d="M20.844 14.091c-.11-.767-.703-1.365-1.465-1.543-2.964-.695-3.707-2.402-3.832-4.294-.525-.098-1.46-.204-3.047-.204-1.587 0-2.522.106-3.048.204-.125 1.893-.868 3.6-3.832 4.294-.762.18-1.354.776-1.465 1.543l-.571 3.958c-.202 1.394.822 2.651 2.246 2.651h13.34c1.422 0 2.447-1.257 2.246-2.65l-.572-3.959zM12.5 17.816c-1.605 0-2.905-1.288-2.905-2.875s1.3-2.875 2.905-2.875c1.604 0 2.905 1.288 2.905 2.875s-1.302 2.875-2.905 2.875zM23.942 6.9c-.027-1.725-4.418-4.599-11.442-4.6-7.026.001-11.416 2.875-11.443 4.6-.026 1.725.024 3.97 2.915 3.596 3.383-.438 3.174-1.62 3.174-3.307 0-1.178 2.751-1.462 5.354-1.462 2.602 0 5.352.284 5.353 1.462 0 1.688-.208 2.869 3.174 3.307 2.89.374 2.942-1.871 2.915-3.596z" fill="#E69379"/></svg>