<svg width="214" height="40" fill="none" xmlns="http://www.w3.org/2000/svg"><g clip-path="url(#clip0_12663_6365)"><path fill-rule="evenodd" clip-rule="evenodd" d="M40.242 20.004c0 11.048-9.008 20.004-20.12 20.004C9.008 40.008 0 31.052 0 20.004 0 8.957 9.009.001 20.121.001c11.113 0 20.121 8.956 20.121 20.003zM23.268 14c1.155.137 2.522.676 3.945 2.05 2.639 2.548 2.77 6.551 1.8 9.195-.914 2.419-2.88 4.297-5.855 5.582-.941.403-1.8.662-2.639.8h-.013c-.007 0-.012 0-.018.002a.05.05 0 01-.017.004h-.048c-.005 0-.01.002-.014.003a.387.387 0 01-.082.01h-.385c-.017 0-.032-.003-.048-.006a.218.218 0 00-.048-.007h-.048c-.007 0-.012-.002-.017-.004a.05.05 0 00-.017-.003h-.014c-.839-.137-1.698-.396-2.64-.8-2.975-1.284-4.94-3.162-5.854-5.58-.99-2.645-.859-6.648 1.78-9.196 2.123-2.05 4.116-2.241 5.463-2.016-.082-1.1.378-2.589 1.175-3.723 1.162-1.66 3.14-2.72 4.412-2.883.625-.075 1.127.04 1.491.348.213.185.474.52.515 1.087.097 1.4-1.236 3.43-2.15 4.454l-.029.03c-.102.111-.329.357-.645.653zm.983-4.775c-.667.109-2.185.82-3.1 2.117-.68.97-.893 2.084-.852 2.576.475-.178 1.437-.854 2.282-1.797.962-1.08 1.546-2.316 1.67-2.896zm-1.842 19.948c.942-.396 3.78-1.625 4.88-4.556.79-2.111.707-5.288-1.361-7.262-1.306-1.264-2.646-1.77-3.98-1.517-.13.027-.253.055-.377.095.22.39.123.889-.248 1.162a.871.871 0 01-.536.177.913.913 0 01-.728-.368l-.165-.205a3.363 3.363 0 00-.302-.322c-.004 0-.005-.001-.007-.003s-.004-.003-.007-.003a.097.097 0 00-.014-.006.062.062 0 01-.027-.015 3.413 3.413 0 00-1.278-.519c-1.334-.253-2.674.253-3.98 1.517-2.054 1.98-2.137 5.158-1.34 7.269 1.107 2.924 3.945 4.153 4.88 4.556.79.342 1.498.56 2.178.677h.234c.68-.116 1.395-.342 2.178-.677z" fill="#F1C5A8"/><path d="M61.154 15.065c-.976-.567-2.082-.854-3.326-.854-1.223 0-2.33.287-3.299.854a6.228 6.228 0 00-2.309 2.33c-.563.983-.859 2.09-.872 3.327v10.684a1.165 1.165 0 001.203 1.196c.363 0 .652-.116.872-.341.22-.226.33-.513.33-.855V25.08a6.076 6.076 0 001.993 1.558 5.704 5.704 0 002.556.574c1.148 0 2.178-.287 3.086-.854.914-.567 1.628-1.346 2.157-2.323.53-.977.79-2.084.79-3.313 0-1.237-.288-2.344-.858-3.328a6.419 6.419 0 00-2.323-2.33zm.316 7.897a4.18 4.18 0 01-1.498 1.572c-.632.382-1.347.574-2.144.574a4.087 4.087 0 01-2.137-.574 4.078 4.078 0 01-1.498-1.572c-.365-.662-.543-1.407-.543-2.24 0-.84.178-1.599.543-2.262a4.079 4.079 0 011.498-1.571 4.07 4.07 0 012.137-.574c.804 0 1.519.191 2.144.574a4.235 4.235 0 011.498 1.571c.371.663.557 1.421.557 2.262 0 .833-.186 1.578-.557 2.24zm15.308-7.945c-.88-.54-1.93-.806-3.16-.806-1.244 0-2.344.28-3.3.833a5.901 5.901 0 00-2.253 2.296c-.543.977-.811 2.104-.811 3.388 0 1.264.288 2.385.859 3.362a6.053 6.053 0 002.385 2.295c1.01.553 2.171.834 3.477.834a7.11 7.11 0 002.274-.397c.797-.266 1.457-.608 1.993-1.031.268-.205.392-.444.378-.724-.014-.28-.158-.54-.426-.772a1.054 1.054 0 00-.722-.246 1.314 1.314 0 00-.762.266c-.316.232-.729.444-1.237.622a4.536 4.536 0 01-1.498.266c-.894 0-1.69-.198-2.378-.587a4.276 4.276 0 01-1.629-1.592 4.341 4.341 0 01-.515-1.476h8.954c.316 0 .57-.095.777-.293a.982.982 0 00.309-.738c0-1.237-.234-2.323-.694-3.273a5.339 5.339 0 00-2.02-2.227zm-5.456 1.79c.64-.39 1.402-.587 2.295-.587.784 0 1.457.177 2.007.54.55.361.976.846 1.271 1.461.213.437.35.922.42 1.442h-7.841a4.67 4.67 0 01.398-1.25c.33-.677.811-1.21 1.45-1.606zm19.91-1.742c-.976-.567-2.075-.854-3.299-.854-1.223 0-2.33.287-3.312.854a6.35 6.35 0 00-2.336 2.33c-.57.983-.86 2.09-.86 3.327 0 1.236.262 2.343.791 3.313a6.126 6.126 0 002.158 2.323c.914.567 1.945.854 3.092.854 1.148 0 2.179-.287 3.086-.854a6.167 6.167 0 001.463-1.298v.888a1.175 1.175 0 001.203 1.196c.344 0 .632-.117.86-.342a1.16 1.16 0 00.343-.854v-5.226c0-1.237-.289-2.344-.86-3.328a6.385 6.385 0 00-2.329-2.33zm.33 7.897a4.146 4.146 0 01-1.484 1.572c-.626.382-1.347.574-2.145.574a4.045 4.045 0 01-2.13-.574 4.164 4.164 0 01-1.512-1.572c-.37-.662-.556-1.407-.556-2.24 0-.84.185-1.599.556-2.262a4.164 4.164 0 011.512-1.571 4.062 4.062 0 012.13-.574c.805 0 1.52.191 2.145.574.632.383 1.12.909 1.484 1.571.364.663.543 1.421.543 2.262 0 .833-.179 1.578-.543 2.24zm14.715-8.225c-.769-.348-1.621-.526-2.549-.526-1.244 0-2.344.28-3.299.833a5.957 5.957 0 00-2.26 2.31c-.55.983-.825 2.11-.825 3.374 0 1.237.282 2.344.838 3.314a6.21 6.21 0 002.309 2.323c.983.567 2.103.854 3.36.854 1.698 0 3.113-.526 4.247-1.572.22-.218.316-.464.282-.737-.034-.274-.179-.52-.447-.738a.95.95 0 00-.707-.226c-.268.02-.53.137-.777.342a3.57 3.57 0 01-1.141.622c-.419.13-.9.198-1.45.198-.831 0-1.566-.192-2.192-.574a3.967 3.967 0 01-1.47-1.558c-.35-.656-.53-1.407-.53-2.248 0-.888.172-1.667.516-2.322a3.839 3.839 0 011.436-1.537c.612-.37 1.32-.554 2.124-.554 1.147 0 2.102.403 2.872 1.216.22.219.46.355.728.41a.892.892 0 00.729-.15c.282-.205.453-.437.515-.704.062-.266-.013-.526-.233-.772-.612-.704-1.306-1.23-2.076-1.578zm15.212.137c-.859-.458-1.828-.69-2.913-.69-1.038 0-1.973.225-2.804.683a5.426 5.426 0 00-1.203.888v-5.746c0-.362-.11-.648-.33-.867-.22-.219-.508-.328-.872-.328-.344 0-.633.11-.859.328-.227.219-.344.505-.344.867v15.939a1.172 1.172 0 001.203 1.196c.364 0 .652-.116.872-.342.22-.225.33-.512.33-.854v-6.607c0-.58.158-1.092.474-1.536.317-.445.736-.8 1.272-1.066.536-.267 1.134-.396 1.793-.396.722 0 1.361.136 1.924.41.557.273 1.004.69 1.334 1.25.329.56.494 1.29.494 2.179v5.766a1.174 1.174 0 001.203 1.196 1.174 1.174 0 001.203-1.196v-5.766c0-1.298-.248-2.391-.743-3.28a5.038 5.038 0 00-2.034-2.028zm15.649.143c-.88-.54-1.931-.806-3.161-.806-1.244 0-2.344.28-3.299.833a5.903 5.903 0 00-2.254 2.296c-.543.977-.811 2.104-.811 3.388 0 1.264.289 2.385.859 3.362a6.059 6.059 0 002.385 2.295c1.01.553 2.171.834 3.477.834a7.13 7.13 0 002.275-.397c.797-.266 1.457-.608 1.993-1.031.268-.205.391-.444.378-.724-.014-.28-.159-.54-.427-.772a1.052 1.052 0 00-.721-.246 1.325 1.325 0 00-.763.266c-.316.232-.728.444-1.237.622a4.533 4.533 0 01-1.498.266c-.893 0-1.69-.198-2.378-.587a4.27 4.27 0 01-1.628-1.592 4.357 4.357 0 01-.516-1.476h8.954c.317 0 .571-.095.777-.293a.982.982 0 00.309-.738c0-1.237-.233-2.323-.694-3.273a5.34 5.34 0 00-2.02-2.227zm-5.457 1.79c.64-.39 1.402-.587 2.296-.587.783 0 1.457.177 2.006.54.55.361.976.846 1.272 1.461.213.437.35.922.419 1.442h-7.841a4.67 4.67 0 01.398-1.25c.33-.677.811-1.21 1.45-1.606zm20.542 4.913c-.296-.48-.791-.896-1.471-1.251-.68-.355-1.615-.656-2.797-.888-.852-.171-1.491-.349-1.931-.526-.44-.178-.735-.383-.886-.608a1.331 1.331 0 01-.227-.765c0-.451.24-.8.721-1.032.481-.232 1.066-.348 1.76-.348.597 0 1.12.068 1.58.211.461.144.88.396 1.271.772.234.219.53.362.873.424.344.061.646.007.894-.164.254-.191.384-.417.398-.69.014-.273-.089-.533-.309-.786-.474-.58-1.106-1.031-1.911-1.36-.804-.327-1.718-.491-2.755-.491-.804 0-1.574.13-2.309.39-.742.259-1.347.648-1.814 1.167-.475.527-.708 1.182-.708 1.982 0 .908.357 1.673 1.072 2.295.715.629 1.862 1.093 3.456 1.407 1.224.22 2.069.5 2.536.848.461.341.687.751.674 1.216-.014.471-.261.854-.742 1.147-.482.294-1.176.444-2.09.444-.721 0-1.381-.13-1.965-.389-.591-.26-1.017-.533-1.285-.833a1.292 1.292 0 00-.79-.41c-.31-.041-.619.068-.928.314a1.133 1.133 0 00-.46.786.989.989 0 00.295.854c.515.512 1.244.942 2.178 1.277a8.993 8.993 0 003.052.506c1.113 0 2.047-.171 2.797-.513.749-.341 1.312-.806 1.697-1.38a3.43 3.43 0 00.577-1.947c0-.628-.151-1.182-.453-1.66z" fill="#F1C5A8"/><path d="M167.142 22.737l1.944-2.035c.234-.267.351-.527.344-.773-.007-.245-.137-.491-.392-.724-.254-.232-.481-.32-.687-.26-.206.062-.426.22-.66.472l-1.896 1.988-4.24-4.208c.701-.56 1.271-1.073 1.704-1.544.44-.478.763-.963.976-1.462.213-.499.316-1.052.316-1.667 0-.779-.186-1.483-.564-2.111a4.051 4.051 0 00-1.546-1.476c-.653-.362-1.402-.54-2.254-.54-.818 0-1.553.171-2.219.513-.66.341-1.176.82-1.553 1.42-.378.602-.564 1.278-.564 2.03 0 .67.144 1.312.426 1.913.282.601.694 1.175 1.223 1.721l1.217 1.21-.131.102c-1.182.936-2.13 1.838-2.852 2.699-.721.86-1.086 1.824-1.086 2.883 0 .956.207 1.77.626 2.445.419.684 1.003 1.203 1.759 1.572s1.629.553 2.618.553c1.258 0 2.364-.294 3.326-.881a11.906 11.906 0 002.667-2.262l.123-.13 2.591 2.57c.502.498 1.003.498 1.512 0 .254-.253.364-.486.33-.704-.035-.219-.172-.451-.426-.704l-2.632-2.61zm-8.102-8.034c-.406-.403-.701-.806-.887-1.195a2.826 2.826 0 01-.268-1.196c0-.546.213-1.025.639-1.428.426-.403.983-.608 1.677-.608.756 0 1.333.219 1.732.656.398.437.604.95.604 1.544a3.822 3.822 0 01-.378 1.544c-.233.499-.769 1.08-1.601 1.735l-.247.198-1.271-1.25zm5.209 8.321c-.722.752-1.437 1.34-2.131 1.77-.701.43-1.518.642-2.46.642-.88 0-1.567-.226-2.055-.67-.488-.444-.728-1.106-.728-1.98 0-.513.124-1.005.364-1.463a5.866 5.866 0 011.003-1.346c.427-.437.901-.867 1.437-1.29l.302-.24 4.439 4.4-.171.177zm24.633-8.253c-.694-.39-1.484-.587-2.377-.587-1.024 0-1.931.218-2.722.655a4.558 4.558 0 00-1.408 1.182 3.884 3.884 0 00-1.334-1.25c-.694-.39-1.484-.587-2.384-.587-.928 0-1.752.218-2.474.655-.309.185-.577.41-.825.656-.007-.348-.117-.628-.33-.84-.219-.219-.508-.328-.872-.328-.344 0-.633.11-.859.328-.227.219-.344.506-.344.868v10.432a1.173 1.173 0 001.203 1.196c.364 0 .653-.117.872-.342.22-.226.33-.513.33-.854v-6.607c0-.874.268-1.591.804-2.158.536-.56 1.21-.848 2.028-.848.783 0 1.422.24 1.91.718s.728 1.209.728 2.193v6.702a1.174 1.174 0 001.203 1.196c.364 0 .653-.117.873-.342.22-.226.33-.513.33-.854v-6.607c0-.874.261-1.591.79-2.158.529-.56 1.196-.848 2.013-.848.784 0 1.423.24 1.911.718s.728 1.209.728 2.193v6.702a1.174 1.174 0 001.203 1.196c.364 0 .653-.117.872-.342.22-.226.33-.513.33-.854v-6.702c0-1.08-.192-1.995-.577-2.753-.392-.766-.928-1.34-1.622-1.729zm15.049.246c-.88-.54-1.931-.806-3.161-.806-1.244 0-2.344.28-3.299.833a5.903 5.903 0 00-2.254 2.296c-.543.977-.811 2.104-.811 3.388 0 1.264.289 2.385.859 3.362a6.059 6.059 0 002.385 2.295c1.01.553 2.171.834 3.477.834a7.13 7.13 0 002.275-.397c.797-.266 1.456-.608 1.993-1.031.268-.205.391-.444.377-.724-.013-.28-.158-.54-.426-.772a1.052 1.052 0 00-.721-.246 1.325 1.325 0 00-.763.266c-.316.232-.728.444-1.237.622a4.533 4.533 0 01-1.498.266c-.893 0-1.69-.198-2.378-.587a4.27 4.27 0 01-1.628-1.592 4.357 4.357 0 01-.516-1.476h8.954c.317 0 .571-.095.777-.293a.982.982 0 00.309-.738c0-1.237-.233-2.323-.694-3.273a5.34 5.34 0 00-2.02-2.227zm-5.457 1.79c.64-.39 1.402-.587 2.296-.587.783 0 1.457.177 2.006.54.55.361.976.846 1.272 1.461.213.437.35.922.419 1.442h-7.841a4.67 4.67 0 01.398-1.25c.33-.677.811-1.21 1.45-1.606z" fill="#ADCED8"/><path d="M207.812 7.393h-3.127a.276.276 0 00-.199.075.257.257 0 00-.076.198c0 .082.028.15.076.198a.26.26 0 00.199.076h1.264v3.675c0 .082.028.157.09.212.062.055.13.089.213.089a.277.277 0 00.213-.09.311.311 0 00.089-.21V7.94h1.258a.276.276 0 00.199-.076.257.257 0 00.076-.198.273.273 0 00-.076-.198.276.276 0 00-.199-.075zm5.435.089a.308.308 0 00-.213-.082c-.117 0-.206.055-.268.164l-1.69 3.457-1.732-3.457a.291.291 0 00-.268-.164.296.296 0 00-.213.082.278.278 0 00-.09.218v3.936a.27.27 0 00.09.211c.055.055.13.09.213.09a.277.277 0 00.213-.09.282.282 0 00.089-.211V8.8l1.395 2.78c.055.124.151.179.282.179a.29.29 0 00.261-.15l1.416-2.863v2.89a.27.27 0 00.089.211.316.316 0 00.213.09.286.286 0 00.213-.09.282.282 0 00.089-.211V7.7a.303.303 0 00-.089-.22z" fill="#95CEE0"/></g><defs><clipPath id="clip0_12663_6365"><path fill="#fff" transform="translate(0 .001)" d="M0 0h213.333v40H0z"/></clipPath></defs></svg>