<svg width="80" height="80" fill="none" xmlns="http://www.w3.org/2000/svg"><g clip-path="url(#clip0)"><path d="M61.875 74.375c0 2.75-2.248 5-5 5h-33.75c-2.75 0-5-2.25-5-5V8.125c0-2.75 2.25-5 5-5h33.75c2.752 0 5 2.25 5 5v66.25z" fill="#656D78"/><path d="M61.875 74.375c0 2.75-2.248 5-5 5h-33.75c-2.75 0-5-2.25-5-5V8.125c0-2.75 2.25-5 5-5h33.75c2.752 0 5 2.25 5 5v66.25z" fill="#DEEEEE"/><path d="M61.875 71.875c0 2.75-2.248 5-5 5h-33.75c-2.75 0-5-2.25-5-5V5.625c0-2.75 2.25-5 5-5h33.75c2.752 0 5 2.25 5 5v66.25z" fill="#DEEEEE"/><path d="M20.625 71.875V5.625c0-2.75 2.25-5 5-5h-2.5c-2.75 0-5 2.25-5 5v66.25c0 2.75 2.25 5 5 5h2.5c-2.75 0-5-2.25-5-5z" fill="#F0F4F4"/><path d="M61.75 6H18v60h43.75V6zM43.125 71.25a3.124 3.124 0 11-6.25 0 3.126 3.126 0 016.25 0z" fill="#F0F4F4"/><path d="M20.625 5.625h-2.5v60h2.5v-60z" fill="#F0F4F4"/><path d="M42.22 47.894h.578a5.071 5.071 0 001.525-.46v.015l.359-.209.008-.004.193-.11 4.08-2.356v-.004a5.079 5.079 0 001.876-1.856h.004a5.085 5.085 0 00.678-2.561c0-.926-.237-1.797-.678-2.562h-.004a5.07 5.07 0 00-1.88-1.86L43.31 32.67v-.004l-5.652-3.263h-.008a5.057 5.057 0 00-2.547-.701c-.867 0-1.734.232-2.546.701h-.004a5.047 5.047 0 00-1.876 1.856A5.085 5.085 0 0030 33.82v13.055c0 .922.236 1.792.682 2.569a5.078 5.078 0 001.876 1.856 5.085 5.085 0 002.554.701c.868 0 1.735-.233 2.547-.701l1.706-.986m2.854-2.419h-.011m.011 0h-.055.044m0 0h-.064a5.085 5.085 0 01-2.554-.701l-.004-.004-.004-.004-.004-.004-.004-.004-.003-.004-.004-.004-.004-.004h-.004l-.004-.004-.004-.004-.004-.004-.004-.004-.004-.004-.004-.003-.004-.004h-.004l-.004-.004-.004-.004-.004-.004-.016.047-.003-.004-.004-.004-.004-.004h-.004l-.004-.004-.004-.004-.004-.004h-.012l-.004-.004-.004-.003-.004-.004-.004-.004-.004-.004-.003-.004-.005-.004-.015-.008-.004-.004-.016-.008-.004-.004-.004-.004-.008-.004-.004-.004-.004-.003-.003-.005-.005-.003-.003-.004-.004-.004-.004-.004-.004-.004h-.004l-.004-.004-.004-.004-.004-.004-.004-.004-.004-.004-.004-.004-.004-.004-.004-.004-.004-.004a5.022 5.022 0 01-1.576-1.67 5.086 5.086 0 01-.678-2.562V35.66" stroke="url(#paint0_linear)" stroke-width="1.2"/><path d="M43.017 39.438a1.884 1.884 0 11-1.884 1.884 1.881 1.881 0 011.884-1.884z" fill="url(#paint1_linear)"/><path d="M34.953 19.6a3.128 3.128 0 11.002 6.256 3.128 3.128 0 01-.002-6.256z" stroke="url(#paint2_linear)" stroke-width="1.2"/><path d="M56.912 3.75a.63.63 0 01-.63-.625.62.62 0 01.617-.625h.013a.626.626 0 010 1.25z" fill="url(#paint3_linear)"/><path d="M54.413 3.75a.63.63 0 01-.632-.625.62.62 0 01.618-.625h.014a.626.626 0 010 1.25z" fill="url(#paint4_linear)"/><path d="M56.875 77.5h-33.75a5.631 5.631 0 01-5.625-5.625V5.625A5.631 5.631 0 0123.125 0h33.75A5.631 5.631 0 0162.5 5.625v66.25a5.631 5.631 0 01-5.625 5.625zM23.125 1.25a4.38 4.38 0 00-4.375 4.375v66.25a4.38 4.38 0 004.375 4.375h33.75a4.38 4.38 0 004.375-4.375V5.625a4.38 4.38 0 00-4.375-4.375h-33.75z" fill="url(#paint5_linear)"/><path d="M56.875 80h-33.75a5.631 5.631 0 01-5.625-5.625.625.625 0 111.25 0 4.38 4.38 0 004.375 4.375h33.75a4.38 4.38 0 004.375-4.375.624.624 0 111.25 0A5.632 5.632 0 0156.875 80z" fill="url(#paint6_linear)"/><path d="M61.875 75a.624.624 0 01-.625-.625v-2.5a.624.624 0 111.25 0v2.5c0 .345-.28.625-.625.625z" fill="url(#paint7_linear)"/><path d="M18.125 75a.625.625 0 01-.625-.625v-2.5a.625.625 0 111.25 0v2.5c0 .345-.28.625-.625.625z" fill="url(#paint8_linear)"/><path d="M60.625 6.25h-41.25a.625.625 0 110-1.25h41.25a.625.625 0 110 1.25z" fill="url(#paint9_linear)"/><path d="M60.625 66.25h-41.25a.625.625 0 110-1.25h41.25a.625.625 0 110 1.25z" fill="url(#paint10_linear)"/><path d="M40 75a3.754 3.754 0 01-3.75-3.75A3.754 3.754 0 0140 67.5a3.754 3.754 0 013.75 3.75A3.754 3.754 0 0140 75zm0-6.25a2.503 2.503 0 00-2.5 2.5c0 1.378 1.122 2.5 2.5 2.5s2.5-1.122 2.5-2.5-1.122-2.5-2.5-2.5z" fill="url(#paint11_linear)"/><path d="M44.375 3.75h-8.75a.625.625 0 110-1.25h8.75a.625.625 0 110 1.25z" fill="url(#paint12_linear)"/><path d="M62.5 15a.625.625 0 01-.625-.625v-2.5a.625.625 0 111.25 0v2.5c0 .345-.28.625-.625.625z" fill="url(#paint13_linear)"/><path d="M17.5 16.25a.625.625 0 01-.625-.625v-2.5a.625.625 0 111.25 0v2.5c0 .345-.28.625-.625.625z" fill="url(#paint14_linear)"/><path d="M62.5 26.25a.625.625 0 01-.625-.625v-7.5a.625.625 0 111.25 0v7.5c0 .345-.28.625-.625.625z" fill="url(#paint15_linear)"/></g><defs><linearGradient id="paint0_linear" x1="26.302" y1="34.02" x2="77.444" y2="19.993" gradientUnits="userSpaceOnUse"><stop stop-color="#46A29F"/><stop offset="1" stop-color="#4660A2"/></linearGradient><linearGradient id="paint1_linear" x1="40.485" y1="40.298" x2="49.333" y2="37.67" gradientUnits="userSpaceOnUse"><stop stop-color="#46A29F"/><stop offset="1" stop-color="#4660A2"/></linearGradient><linearGradient id="paint2_linear" x1="29.943" y1="20.702" x2="47.453" y2="15.501" gradientUnits="userSpaceOnUse"><stop stop-color="#46A29F"/><stop offset="1" stop-color="#4660A2"/></linearGradient><linearGradient id="paint3_linear" x1="56.065" y1="2.785" x2="59.012" y2="1.906" gradientUnits="userSpaceOnUse"><stop stop-color="#46A29F"/><stop offset="1" stop-color="#4660A2"/></linearGradient><linearGradient id="paint4_linear" x1="53.565" y1="2.785" x2="56.513" y2="1.906" gradientUnits="userSpaceOnUse"><stop stop-color="#46A29F"/><stop offset="1" stop-color="#4660A2"/></linearGradient><linearGradient id="paint5_linear" x1="9.767" y1="17.692" x2="121.426" y2="-1.559" gradientUnits="userSpaceOnUse"><stop stop-color="#46A29F"/><stop offset="1" stop-color="#4660A2"/></linearGradient><linearGradient id="paint6_linear" x1="9.767" y1="75.177" x2="30.409" y2="31.049" gradientUnits="userSpaceOnUse"><stop stop-color="#46A29F"/><stop offset="1" stop-color="#4660A2"/></linearGradient><linearGradient id="paint7_linear" x1="61.035" y1="72.106" x2="64.198" y2="71.793" gradientUnits="userSpaceOnUse"><stop stop-color="#46A29F"/><stop offset="1" stop-color="#4660A2"/></linearGradient><linearGradient id="paint8_linear" x1="17.285" y1="72.106" x2="20.448" y2="71.793" gradientUnits="userSpaceOnUse"><stop stop-color="#46A29F"/><stop offset="1" stop-color="#4660A2"/></linearGradient><linearGradient id="paint9_linear" x1="11.447" y1="5.285" x2="12.502" y2="-5.366" gradientUnits="userSpaceOnUse"><stop stop-color="#46A29F"/><stop offset="1" stop-color="#4660A2"/></linearGradient><linearGradient id="paint10_linear" x1="11.447" y1="65.285" x2="12.502" y2="54.633" gradientUnits="userSpaceOnUse"><stop stop-color="#46A29F"/><stop offset="1" stop-color="#4660A2"/></linearGradient><linearGradient id="paint11_linear" x1="34.961" y1="69.212" x2="52.572" y2="63.983" gradientUnits="userSpaceOnUse"><stop stop-color="#46A29F"/><stop offset="1" stop-color="#4660A2"/></linearGradient><linearGradient id="paint12_linear" x1="33.282" y1="2.785" x2="37.129" y2="-6.353" gradientUnits="userSpaceOnUse"><stop stop-color="#46A29F"/><stop offset="1" stop-color="#4660A2"/></linearGradient><linearGradient id="paint13_linear" x1="61.66" y1="12.106" x2="64.823" y2="11.793" gradientUnits="userSpaceOnUse"><stop stop-color="#46A29F"/><stop offset="1" stop-color="#4660A2"/></linearGradient><linearGradient id="paint14_linear" x1="16.66" y1="13.356" x2="19.823" y2="13.043" gradientUnits="userSpaceOnUse"><stop stop-color="#46A29F"/><stop offset="1" stop-color="#4660A2"/></linearGradient><linearGradient id="paint15_linear" x1="61.66" y1="19.497" x2="64.848" y2="19.362" gradientUnits="userSpaceOnUse"><stop stop-color="#46A29F"/><stop offset="1" stop-color="#4660A2"/></linearGradient><clipPath id="clip0"><path fill="#fff" d="M0 0h80v80H0z"/></clipPath></defs></svg>