<svg width="10" height="8" viewBox="0 0 10 8" fill="none" xmlns="http://www.w3.org/2000/svg">
<path d="M3.25139 6.4325L1.22722 4.40833C1.11815 4.29926 0.970219 4.23799 0.81597 4.23799C0.661722 4.23799 0.513791 4.29926 0.40472 4.40833C0.29565 4.5174 0.234375 4.66533 0.234375 4.81958C0.234375 4.89596 0.249419 4.97159 0.278646 5.04215C0.307874 5.11271 0.350714 5.17683 0.40472 5.23083L2.84305 7.66917C3.07055 7.89667 3.43805 7.89667 3.66555 7.66917L9.83722 1.4975C9.94629 1.38843 10.0076 1.2405 10.0076 1.08625C10.0076 0.932001 9.94629 0.78407 9.83722 0.674999C9.72815 0.565929 9.58022 0.504654 9.42597 0.504654C9.27172 0.504654 9.12379 0.565929 9.01472 0.674999L3.25139 6.4325Z" fill="url(#paint0_linear_15702_1508)"/>
<defs>
<linearGradient id="paint0_linear_15702_1508" x1="-1.44505" y1="2.1791" x2="20.1469" y2="-6.36273" gradientUnits="userSpaceOnUse">
<stop stop-color="#46A29F"/>
<stop offset="1" stop-color="#4660A2"/>
</linearGradient>
</defs>
</svg>
