<svg width="80" height="80" viewBox="0 0 80 80" fill="none" xmlns="http://www.w3.org/2000/svg">
<g clip-path="url(#clip0_14181_2275)">
<path d="M79.6667 34.6716C79.6667 42.2416 65.798 46.64 63.5967 54.6595C61.3953 62.6789 57.1842 66.5161 46.8662 66.5161C38.4583 66.5161 42.0234 60.7456 24.9845 58.3947C7.94572 56.0438 12.5294 46.375 17.8184 37.51C23.8339 26.4848 26.6241 21.0004 30.9637 13.7269C35.3033 6.4533 37.011 2.82705 46.8662 2.82705C55.1262 2.82705 66.0183 -1.76305 68.4398 10.6838C70.8613 23.1306 79.6667 25.1036 79.6667 34.6716Z" fill="url(#paint0_linear_14181_2275)"/>
<path d="M71.6865 20.4904C67.5444 27.6648 66.4039 34.761 58.9904 30.4808C51.5768 26.2006 50.6079 14.9997 54.75 7.82532C58.8921 0.650928 66.5768 0.219793 73.9904 4.5C81.4039 8.78021 75.8287 13.316 71.6865 20.4904Z" fill="#F7FBFB"/>
<path fill-rule="evenodd" clip-rule="evenodd" d="M9.5 40L17.5 40C19.1274 40.3426 22.9511 40.6312 26.2635 40.8811C29.3965 41.1176 32.0722 41.3195 32 41.5C31.4687 42.8282 32.9133 42.5099 34.6842 42.1196C36.2465 41.7753 38.0626 41.3751 39 42C41.1175 41.8075 41.7898 45.0057 42.3651 47.7425C42.786 49.7447 43.155 51.5 44 51.5C44.4483 51.5 45.2136 51.2123 46.1917 50.7601C47.3469 50.5695 48.7331 49.9016 50.0387 48.8411C54.6315 46.525 60.418 43.8483 63 46C66 48.5 50.5 62.5 49 63.5C48.8125 63.625 48.5 63.8594 48.0859 64.1699C45.1875 66.3438 37.3125 72.25 32.5 70.5C28.1 68.9 15 65.1667 9 63.5L9.5 40Z" fill="white"/>
<path d="M58.0988 44.27L37.36 56.2763L27.0001 53L30.2025 50.66L38.75 50.5C41.5001 50 43.5001 48.7575 43.5001 46C43.5001 43.2425 41.5075 41.1025 38.75 41.1025H30.2025L26.645 39.9175C26.5163 39.875 26.3838 39.8525 26.25 39.8525H10V38.8888C10 38.1975 9.44125 37.3525 8.75 37.3525H4.18723e-06L-0.100098 38.8888H8.5V41.5V64V66H4.18723e-06V67.3525H8.75C9.44125 67.3525 10 67.08 10 66.3888V65.375L35.225 69.7613C35.575 69.8225 35.9288 69.8513 36.2838 69.8513C37.58 69.8513 38.8675 69.4475 39.9388 68.6825L63.0425 51.86C64.0312 51.14 64.8201 50.2113 65.0001 49C65.1826 47.79 64.7351 46.4775 64.0001 45.5C62.5001 44 60.0875 43.1175 58.0988 44.27ZM63.0001 48.5C62.9188 49.0437 61.9439 50.1762 61.5001 50.5L38.713 67.3C37.903 67.88 36.4864 68.1712 35.5001 68L10 63.7192V41.5H26L30.0001 42.5C30.1288 42.5425 30.5001 42.5 31.0001 42.5H39.0001C40.3788 42.5 42.0001 44.7238 42.0001 46.1025C42.0001 47.4813 40.1288 49.1559 38.75 49.1559H30.0001C29.7151 49.1559 29.2226 49.3225 29.0001 49.5L26.5001 51.5H20.0001V53H22.5001L37.0001 58C37.3388 58.1138 37.6888 58.18 38.0001 58L59.5001 45.5C60.3926 44.9862 61.8813 45.6737 62.5001 46.5C62.8301 46.9388 63.0826 47.9575 63.0001 48.5Z" fill="url(#paint1_linear_14181_2275)"/>
<path d="M44.6424 32.2902C42.5799 32.0502 40.6575 31.8377 38.5 32.1752C36.5687 32.479 34.645 33.3014 34 35.6752H35.5C35.6175 34.8877 37.45 33.839 38.5 33.6752C40.3212 33.3877 42.5175 33.4452 44.5 33.6752C46.5212 33.9102 48.385 34.4827 50.5 34.1752C52.0737 33.9452 52.9387 33.669 53.5 32.6752L52 32.1752C51.8425 32.4539 50.7463 32.5665 50 32.6752C48.205 32.934 46.5874 32.5165 44.6424 32.2902Z" fill="url(#paint2_linear_14181_2275)"/>
<path d="M31.7875 27.0632C33.785 27.1232 35.4388 27.9088 37.5 28.5C38.4338 28.7675 39.5587 29.0969 40.5 29.3181C44.6612 30.2994 48.0413 29.69 50.5 28L49.5 27C47.645 28.2763 44.3868 28.2975 41 27.5C40.0975 27.2875 38.9688 27.0744 38.0751 26.8181C35.9576 26.2119 34.0975 25.241 31.7875 25.171C27.5862 25.0673 23.4075 26.8095 20.9275 29.9995L22.5751 30.8181C24.5738 28.2456 28.36 26.9457 31.7875 27.0632Z" fill="url(#paint3_linear_14181_2275)"/>
<path d="M48.8905 16.6277C48.203 15.9319 47.6584 15.103 47.2886 14.1897C46.9188 13.2763 46.7312 12.2968 46.7368 11.3085C46.7368 9.31001 47.5145 7.39334 48.8989 5.98017C50.2832 4.567 52.1607 3.77308 54.1184 3.77308C56.8626 3.77308 59.2595 5.2979 60.5274 7.56741H62.4726C63.1173 6.41338 64.05 5.45431 65.1758 4.78782C66.3016 4.12133 67.5802 3.77121 68.8816 3.77308C70.8393 3.77308 72.7168 4.567 74.1011 5.98017C75.4855 7.39334 76.2632 9.31001 76.2632 11.3085C76.2632 13.383 75.3947 15.2979 74.1095 16.6277L61.5 29.4823L48.8905 16.6277ZM75.3253 17.8865C76.9753 16.1844 78 13.8795 78 11.3085C78 8.83977 77.0393 6.47212 75.3293 4.72643C73.6192 2.98075 71.2999 2.00004 68.8816 2.00004C65.8421 2.00004 63.15 3.50713 61.5 5.84755C60.658 4.65319 59.5491 3.68108 58.2653 3.01193C56.9815 2.34277 55.5599 1.99588 54.1184 2.00004C51.7001 2.00004 49.3808 2.98075 47.6707 4.72643C45.9607 6.47212 45 8.83977 45 11.3085C45 13.8795 46.0247 16.1844 47.6747 17.8865L61.5 32L75.3253 17.8865Z" fill="url(#paint4_linear_14181_2275)"/>
</g>
<defs>
<linearGradient id="paint0_linear_14181_2275" x1="13" y1="2" x2="92.4232" y2="29.0218" gradientUnits="userSpaceOnUse">
<stop stop-color="#FDF4FA"/>
<stop offset="1" stop-color="white"/>
</linearGradient>
<linearGradient id="paint1_linear_14181_2275" x1="-11.2939" y1="44.7713" x2="111.613" y2="-28.3755" gradientUnits="userSpaceOnUse">
<stop stop-color="#46A29F"/>
<stop offset="1" stop-color="#4660A2"/>
</linearGradient>
<linearGradient id="paint2_linear_14181_2275" x1="30.6491" y1="32.839" x2="44.9589" y2="10.2957" gradientUnits="userSpaceOnUse">
<stop stop-color="#46A29F"/>
<stop offset="1" stop-color="#4660A2"/>
</linearGradient>
<linearGradient id="paint3_linear_14181_2275" x1="15.8458" y1="26.4567" x2="37.979" y2="-7.93076" gradientUnits="userSpaceOnUse">
<stop stop-color="#46A29F"/>
<stop offset="1" stop-color="#4660A2"/>
</linearGradient>
<linearGradient id="paint4_linear_14181_2275" x1="39.3293" y1="8.84833" x2="115.519" y2="-16.0357" gradientUnits="userSpaceOnUse">
<stop stop-color="#46A29F"/>
<stop offset="1" stop-color="#4660A2"/>
</linearGradient>
<clipPath id="clip0_14181_2275">
<rect width="80" height="80" fill="white"/>
</clipPath>
</defs>
</svg>
