<svg width="80" height="80" viewBox="0 0 80 80" fill="none" xmlns="http://www.w3.org/2000/svg">
<path d="M73.3332 48.1555C73.3332 55.7255 59.4645 60.1239 57.2632 68.1433C55.0618 76.1628 50.8507 80 40.5327 80C32.1248 80 35.6899 74.2295 18.6511 71.8786C1.61223 69.5277 6.19587 59.8589 11.4849 50.9939C17.5004 39.9687 20.2906 34.4843 24.6302 27.2108C28.9698 19.9372 30.6775 16.3109 40.5327 16.3109C48.7927 16.3109 59.6848 11.7208 62.1063 24.1677C64.5278 36.6145 73.3332 38.5875 73.3332 48.1555Z" fill="url(#paint0_linear_14181_2289)"/>
<g clip-path="url(#clip0_14181_2289)">
<g clip-path="url(#clip1_14181_2289)">
<mask id="path-2-inside-1_14181_2289" fill="white">
<path d="M8.74827 30.2419C8.99827 30.2419 9.24203 30.2419 9.48577 30.2056L9.99827 32.8911C10.0613 33.212 10.2534 33.4954 10.5323 33.6792C10.8113 33.8629 11.1543 33.9319 11.4858 33.871C11.8173 33.81 12.1102 33.6241 12.3001 33.3541C12.49 33.0842 12.5613 32.7523 12.4983 32.4315L11.9233 29.6371C13.9887 28.8583 15.6716 27.3499 16.6322 25.4166C17.5928 23.4833 17.7594 21.2693 17.0983 19.2218L33.8795 11.4435C34.2668 11.9735 34.725 12.4514 35.242 12.8649L21.492 31.9718C21.3231 32.2351 21.2651 32.5512 21.33 32.8547C21.3949 33.1582 21.5777 33.426 21.8406 33.603C22.1036 33.7799 22.4267 33.8523 22.7433 33.8054C23.0599 33.7585 23.3458 33.5958 23.542 33.3508L37.4295 14.0685C37.8568 14.2224 38.2984 14.3358 38.7483 14.4073V24.7984C38.7483 25.1192 38.88 25.4269 39.1144 25.6538C39.3488 25.8806 39.6668 26.0081 39.9983 26.0081C40.3298 26.0081 40.6477 25.8806 40.8822 25.6538C41.1166 25.4269 41.2483 25.1192 41.2483 24.7984V14.4073C41.6981 14.3358 42.1398 14.2224 42.567 14.0685L56.4733 33.3508C56.5627 33.4903 56.6806 33.6107 56.8196 33.7047C56.9587 33.7986 57.1161 33.8643 57.2822 33.8975C57.4483 33.9308 57.6196 33.9309 57.7858 33.898C57.952 33.8652 58.1095 33.7999 58.2488 33.7062C58.3881 33.6125 58.5062 33.4923 58.596 33.3531C58.6857 33.2138 58.7453 33.0583 58.7709 32.896C58.7966 32.7338 58.7879 32.5681 58.7453 32.4092C58.7027 32.2504 58.6272 32.1015 58.5233 31.9718L44.7733 12.8649C45.2903 12.4514 45.7485 11.9735 46.1358 11.4435L62.917 19.2399C62.2603 21.2828 62.4269 23.4905 63.3835 25.4193C64.34 27.3481 66.0155 28.855 68.0733 29.6371L67.4983 32.4315C67.456 32.5912 67.4479 32.7576 67.4745 32.9205C67.5011 33.0833 67.5619 33.2392 67.653 33.3785C67.7441 33.5178 67.8637 33.6377 68.0044 33.7306C68.1451 33.8236 68.304 33.8877 68.4713 33.9191C68.6385 33.9505 68.8107 33.9485 68.9771 33.9131C69.1435 33.8778 69.3007 33.8099 69.439 33.7136C69.5774 33.6173 69.6939 33.4947 69.7815 33.3533C69.869 33.2118 69.9258 33.0546 69.9483 32.8911L70.4858 30.2056C70.7295 30.2056 70.9733 30.2419 71.2233 30.2419C72.7344 30.2425 74.2199 29.8644 75.5352 29.1444C76.8505 28.4243 77.9506 27.3869 78.7285 26.1332C79.5064 24.8795 79.9355 23.4521 79.9741 21.9902C80.0126 20.5283 79.6593 19.0817 78.9485 17.7912C78.2377 16.5007 77.1936 15.4103 75.918 14.6263C74.6424 13.8422 73.1788 13.3913 71.6696 13.3173C70.1604 13.2433 68.6571 13.5488 67.3062 14.2041C65.9552 14.8594 64.8027 15.8421 63.9608 17.0565L47.1983 9.26008C47.3971 8.61014 47.4981 7.93588 47.4983 7.25806C47.4983 5.33311 46.7081 3.48699 45.3016 2.12584C43.8951 0.764687 41.9874 0 39.9983 0C38.0092 0 36.1015 0.764687 34.695 2.12584C33.2884 3.48699 32.4983 5.33311 32.4983 7.25806C32.4984 7.93588 32.5995 8.61014 32.7983 9.26008L16.0108 17.0565C15.1689 15.8421 14.0163 14.8594 12.6654 14.2041C11.3144 13.5488 9.81117 13.2433 8.30197 13.3173C6.79278 13.3913 5.3291 13.8422 4.0535 14.6263C2.77791 15.4103 1.73386 16.5007 1.02306 17.7912C0.312259 19.0817 -0.0410733 20.5283 -0.00252275 21.9902C0.0360278 23.4521 0.465147 24.8795 1.24304 26.1332C2.02093 27.3869 3.12109 28.4243 4.43635 29.1444C5.75161 29.8644 7.23715 30.2425 8.74827 30.2419ZM71.2483 15.7258C72.4844 15.7258 73.6928 16.0805 74.7206 16.7451C75.7484 17.4097 76.5495 18.3544 77.0225 19.4596C77.4956 20.5648 77.6193 21.7809 77.3782 22.9542C77.137 24.1274 76.5418 25.2052 75.6677 26.0511C74.7936 26.8969 73.68 27.473 72.4676 27.7064C71.2552 27.9397 69.9985 27.82 68.8565 27.3622C67.7145 26.9044 66.7383 26.1292 66.0516 25.1345C65.3648 24.1398 64.9983 22.9705 64.9983 21.7742C64.9983 20.1701 65.6568 18.6316 66.8289 17.4973C68.001 16.363 69.5907 15.7258 71.2483 15.7258ZM39.9983 2.41935C40.9872 2.41935 41.9539 2.70314 42.7761 3.23482C43.5984 3.76651 44.2392 4.52221 44.6177 5.40637C44.9961 6.29053 45.0951 7.26343 44.9022 8.20205C44.7093 9.14067 44.2331 10.0028 43.5338 10.6795C42.8345 11.3563 41.9436 11.8171 40.9737 12.0038C40.0038 12.1905 38.9985 12.0947 38.0849 11.7284C37.1712 11.3622 36.3903 10.742 35.8409 9.94631C35.2915 9.15059 34.9983 8.21507 34.9983 7.25806C34.9983 5.97476 35.5251 4.74401 36.4627 3.83658C37.4004 2.92915 38.6722 2.41935 39.9983 2.41935ZM8.74827 15.7258C9.98441 15.7258 11.1928 16.0805 12.2206 16.7451C13.2484 17.4097 14.0495 18.3544 14.5225 19.4596C14.9956 20.5648 15.1193 21.7809 14.8782 22.9542C14.637 24.1274 14.0418 25.2052 13.1677 26.0511C12.2936 26.8969 11.18 27.473 9.96759 27.7064C8.75521 27.9397 7.49854 27.82 6.3565 27.3622C5.21447 26.9044 4.23835 26.1292 3.55159 25.1345C2.86483 24.1398 2.49828 22.9705 2.49827 21.7742C2.49827 20.1701 3.15676 18.6316 4.32886 17.4973C5.50096 16.363 7.09067 15.7258 8.74827 15.7258Z"/>
</mask>
<path d="M8.74827 30.2419C8.99827 30.2419 9.24203 30.2419 9.48577 30.2056L9.99827 32.8911C10.0613 33.212 10.2534 33.4954 10.5323 33.6792C10.8113 33.8629 11.1543 33.9319 11.4858 33.871C11.8173 33.81 12.1102 33.6241 12.3001 33.3541C12.49 33.0842 12.5613 32.7523 12.4983 32.4315L11.9233 29.6371C13.9887 28.8583 15.6716 27.3499 16.6322 25.4166C17.5928 23.4833 17.7594 21.2693 17.0983 19.2218L33.8795 11.4435C34.2668 11.9735 34.725 12.4514 35.242 12.8649L21.492 31.9718C21.3231 32.2351 21.2651 32.5512 21.33 32.8547C21.3949 33.1582 21.5777 33.426 21.8406 33.603C22.1036 33.7799 22.4267 33.8523 22.7433 33.8054C23.0599 33.7585 23.3458 33.5958 23.542 33.3508L37.4295 14.0685C37.8568 14.2224 38.2984 14.3358 38.7483 14.4073V24.7984C38.7483 25.1192 38.88 25.4269 39.1144 25.6538C39.3488 25.8806 39.6668 26.0081 39.9983 26.0081C40.3298 26.0081 40.6477 25.8806 40.8822 25.6538C41.1166 25.4269 41.2483 25.1192 41.2483 24.7984V14.4073C41.6981 14.3358 42.1398 14.2224 42.567 14.0685L56.4733 33.3508C56.5627 33.4903 56.6806 33.6107 56.8196 33.7047C56.9587 33.7986 57.1161 33.8643 57.2822 33.8975C57.4483 33.9308 57.6196 33.9309 57.7858 33.898C57.952 33.8652 58.1095 33.7999 58.2488 33.7062C58.3881 33.6125 58.5062 33.4923 58.596 33.3531C58.6857 33.2138 58.7453 33.0583 58.7709 32.896C58.7966 32.7338 58.7879 32.5681 58.7453 32.4092C58.7027 32.2504 58.6272 32.1015 58.5233 31.9718L44.7733 12.8649C45.2903 12.4514 45.7485 11.9735 46.1358 11.4435L62.917 19.2399C62.2603 21.2828 62.4269 23.4905 63.3835 25.4193C64.34 27.3481 66.0155 28.855 68.0733 29.6371L67.4983 32.4315C67.456 32.5912 67.4479 32.7576 67.4745 32.9205C67.5011 33.0833 67.5619 33.2392 67.653 33.3785C67.7441 33.5178 67.8637 33.6377 68.0044 33.7306C68.1451 33.8236 68.304 33.8877 68.4713 33.9191C68.6385 33.9505 68.8107 33.9485 68.9771 33.9131C69.1435 33.8778 69.3007 33.8099 69.439 33.7136C69.5774 33.6173 69.6939 33.4947 69.7815 33.3533C69.869 33.2118 69.9258 33.0546 69.9483 32.8911L70.4858 30.2056C70.7295 30.2056 70.9733 30.2419 71.2233 30.2419C72.7344 30.2425 74.2199 29.8644 75.5352 29.1444C76.8505 28.4243 77.9506 27.3869 78.7285 26.1332C79.5064 24.8795 79.9355 23.4521 79.9741 21.9902C80.0126 20.5283 79.6593 19.0817 78.9485 17.7912C78.2377 16.5007 77.1936 15.4103 75.918 14.6263C74.6424 13.8422 73.1788 13.3913 71.6696 13.3173C70.1604 13.2433 68.6571 13.5488 67.3062 14.2041C65.9552 14.8594 64.8027 15.8421 63.9608 17.0565L47.1983 9.26008C47.3971 8.61014 47.4981 7.93588 47.4983 7.25806C47.4983 5.33311 46.7081 3.48699 45.3016 2.12584C43.8951 0.764687 41.9874 0 39.9983 0C38.0092 0 36.1015 0.764687 34.695 2.12584C33.2884 3.48699 32.4983 5.33311 32.4983 7.25806C32.4984 7.93588 32.5995 8.61014 32.7983 9.26008L16.0108 17.0565C15.1689 15.8421 14.0163 14.8594 12.6654 14.2041C11.3144 13.5488 9.81117 13.2433 8.30197 13.3173C6.79278 13.3913 5.3291 13.8422 4.0535 14.6263C2.77791 15.4103 1.73386 16.5007 1.02306 17.7912C0.312259 19.0817 -0.0410733 20.5283 -0.00252275 21.9902C0.0360278 23.4521 0.465147 24.8795 1.24304 26.1332C2.02093 27.3869 3.12109 28.4243 4.43635 29.1444C5.75161 29.8644 7.23715 30.2425 8.74827 30.2419ZM71.2483 15.7258C72.4844 15.7258 73.6928 16.0805 74.7206 16.7451C75.7484 17.4097 76.5495 18.3544 77.0225 19.4596C77.4956 20.5648 77.6193 21.7809 77.3782 22.9542C77.137 24.1274 76.5418 25.2052 75.6677 26.0511C74.7936 26.8969 73.68 27.473 72.4676 27.7064C71.2552 27.9397 69.9985 27.82 68.8565 27.3622C67.7145 26.9044 66.7383 26.1292 66.0516 25.1345C65.3648 24.1398 64.9983 22.9705 64.9983 21.7742C64.9983 20.1701 65.6568 18.6316 66.8289 17.4973C68.001 16.363 69.5907 15.7258 71.2483 15.7258ZM39.9983 2.41935C40.9872 2.41935 41.9539 2.70314 42.7761 3.23482C43.5984 3.76651 44.2392 4.52221 44.6177 5.40637C44.9961 6.29053 45.0951 7.26343 44.9022 8.20205C44.7093 9.14067 44.2331 10.0028 43.5338 10.6795C42.8345 11.3563 41.9436 11.8171 40.9737 12.0038C40.0038 12.1905 38.9985 12.0947 38.0849 11.7284C37.1712 11.3622 36.3903 10.742 35.8409 9.94631C35.2915 9.15059 34.9983 8.21507 34.9983 7.25806C34.9983 5.97476 35.5251 4.74401 36.4627 3.83658C37.4004 2.92915 38.6722 2.41935 39.9983 2.41935ZM8.74827 15.7258C9.98441 15.7258 11.1928 16.0805 12.2206 16.7451C13.2484 17.4097 14.0495 18.3544 14.5225 19.4596C14.9956 20.5648 15.1193 21.7809 14.8782 22.9542C14.637 24.1274 14.0418 25.2052 13.1677 26.0511C12.2936 26.8969 11.18 27.473 9.96759 27.7064C8.75521 27.9397 7.49854 27.82 6.3565 27.3622C5.21447 26.9044 4.23835 26.1292 3.55159 25.1345C2.86483 24.1398 2.49828 22.9705 2.49827 21.7742C2.49827 20.1701 3.15676 18.6316 4.32886 17.4973C5.50096 16.363 7.09067 15.7258 8.74827 15.7258Z" fill="url(#paint1_linear_14181_2289)" stroke="white" mask="url(#path-2-inside-1_14181_2289)"/>
<path d="M64.07 58.4194C61.8166 58.4121 59.5977 58.9589 57.6216 60.0089C57.3879 60.1326 57.112 60.1617 56.8554 60.089C56.5989 60.0163 56.3852 59.8487 56.2593 59.626C56.1336 59.4036 56.1047 59.143 56.178 58.9007C56.2513 58.6584 56.4219 58.4516 56.6552 58.328C57.4005 57.937 58.178 57.6066 58.9799 57.3401L59.4521 57.1831L59.0443 56.8979C58.0493 56.2021 57.2425 55.2855 56.6914 54.226C56.1404 53.1665 55.8609 51.9948 55.876 50.8097H55.876V50.8065V40.5242H55.8761L55.876 40.5185C55.864 39.994 55.9619 39.4725 56.1639 38.9852C56.366 38.4979 56.6682 38.0546 57.0528 37.6825C57.4374 37.3103 57.8964 37.0169 58.4023 36.8204C58.9082 36.6239 59.4503 36.5286 59.9957 36.5403L59.9957 36.5403H60.001H68.126V36.5404L68.1314 36.5403C68.6768 36.5286 69.2189 36.6239 69.7248 36.8204C70.2307 37.0169 70.6897 37.3103 71.0743 37.6825C71.4589 38.0546 71.7611 38.4979 71.9632 38.9852C72.1652 39.4725 72.2631 39.994 72.2511 40.5185L72.251 40.5185V40.5242L72.251 50.8065L72.2511 50.8095C72.2657 52.0011 71.983 53.1788 71.4264 54.2428C70.8698 55.3068 70.0557 56.2259 69.0524 56.9216L68.6515 57.1995L69.1112 57.3626C72.2129 58.4634 74.8924 60.453 76.793 63.0647C78.6933 65.6759 79.7249 68.7849 79.751 71.9768C79.7508 72.2283 79.6475 72.4711 79.4611 72.6515C79.2741 72.8324 79.0189 72.9355 78.751 72.9355C78.4832 72.9355 78.228 72.8324 78.041 72.6515C77.8543 72.4709 77.751 72.2276 77.751 71.9758C77.751 64.626 71.4871 58.4195 64.07 58.4194ZM64.07 58.4194C64.07 58.4194 64.0699 58.4194 64.0698 58.4194V58.6694L64.0706 58.4194C64.0704 58.4194 64.0702 58.4194 64.07 58.4194ZM58.901 57.1028L58.7578 57.3077C58.7083 57.2731 58.6593 57.238 58.6107 57.2024C58.7072 57.1683 58.8039 57.1351 58.901 57.1028ZM58.901 57.1028L58.8222 56.8656C58.7659 56.8843 58.7098 56.9033 58.6537 56.9226C58.7348 56.9842 58.8173 57.0443 58.901 57.1028ZM69.1948 57.127C69.2779 57.0694 69.3597 57.0103 69.4403 56.9498C69.3864 56.9301 69.3325 56.9106 69.2784 56.8914L69.1948 57.127ZM69.1948 57.127L69.3372 57.3325C69.3853 57.2992 69.4329 57.2654 69.4801 57.2312C69.3854 57.1956 69.2903 57.1609 69.1948 57.127ZM70.001 43.7984H70.251V43.5484V40.5314C70.2665 40.2556 70.222 39.9798 70.1206 39.722C70.0183 39.4618 69.8604 39.2262 69.658 39.0302C69.4556 38.8344 69.2131 38.6826 68.9468 38.5845C68.6828 38.4873 68.4009 38.4448 68.1193 38.4597H60.0078C59.7262 38.4448 59.4443 38.4873 59.1803 38.5845C58.914 38.6826 58.6715 38.8344 58.4691 39.0302C58.2667 39.2262 58.1088 39.4618 58.0065 39.722C57.9051 39.9798 57.8606 40.2556 57.876 40.5314V43.5484V43.7984H58.126H70.001ZM58.126 45.7177H57.876V45.9677V50.8065C57.876 54.0678 60.5718 56.5 64.0698 56.5C67.5685 56.5 70.251 54.0671 70.251 50.8065V45.9677V45.7177H70.001H58.126Z" fill="url(#paint2_linear_14181_2289)" stroke="white" stroke-width="0.5"/>
<path d="M22.8064 58.1003L22.8088 58.1015C23.0464 58.2181 23.224 58.4199 23.3053 58.6603C23.3864 58.9005 23.3659 59.1619 23.2474 59.388C23.1288 59.6144 22.9207 59.7884 22.6667 59.8688C22.4127 59.9492 22.136 59.9286 21.8981 59.812C20.0538 58.9015 18.0142 58.4245 15.9445 58.4193L15.9409 58.4194C12.2724 58.4632 8.77008 59.9135 6.2028 62.4546C3.63558 64.9955 2.21312 68.42 2.25015 71.977C2.24981 72.2284 2.14655 72.4712 1.96017 72.6515C1.77322 72.8324 1.51796 72.9355 1.25015 72.9355C0.982333 72.9355 0.727072 72.8324 0.540118 72.6515C0.353442 72.4709 0.250146 72.2276 0.250148 71.9758L0.250143 71.9747C0.236146 68.7752 1.24777 65.6495 3.1468 63.0283C5.04593 60.4068 7.73938 58.4186 10.857 57.3391L11.3199 57.1787L10.9184 56.8979C9.92338 56.2021 9.11664 55.2855 8.56554 54.226C8.01446 53.1665 7.73495 51.9948 7.75013 50.8097H7.75015V50.8065V40.5242H7.75021L7.75008 40.5185C7.73808 39.994 7.83595 39.4725 8.03802 38.9852C8.2401 38.4979 8.54232 38.0546 8.9269 37.6825C9.3115 37.3103 9.77048 37.0169 10.2764 36.8204C10.7823 36.6239 11.3244 36.5286 11.8698 36.5403L11.8698 36.5403H11.8751H20.0001V36.5404L20.0055 36.5403C20.5509 36.5286 21.093 36.6239 21.5989 36.8204C22.1048 37.0169 22.5638 37.3103 22.9484 37.6825C23.333 38.0546 23.6352 38.4979 23.8373 38.9852C24.0393 39.4725 24.1372 39.994 24.1252 40.5185L24.1251 40.5185V40.5242L24.1251 50.8065L24.1252 50.8096C24.1402 51.9983 23.8589 53.1733 23.3045 54.2351C22.7501 55.2969 21.9388 56.2146 20.9387 56.9096L20.5359 57.1896L20.9991 57.351C21.3045 57.4574 22.5188 57.9553 22.8064 58.1003ZM21.8751 43.7984H22.1251V43.5484V40.5314C22.1406 40.2556 22.0961 39.9798 21.9947 39.722C21.8924 39.4618 21.7345 39.2262 21.5321 39.0302C21.3297 38.8344 21.0872 38.6826 20.8209 38.5845C20.5569 38.4873 20.275 38.4448 19.9933 38.4597H11.8819C11.6003 38.4448 11.3184 38.4873 11.0544 38.5845C10.7881 38.6826 10.5456 38.8344 10.3432 39.0302L10.517 39.2099L10.3432 39.0302C10.1407 39.2262 9.98292 39.4618 9.88059 39.722C9.7792 39.9798 9.7347 40.2556 9.75015 40.5314V43.5484V43.7984H10.0001H21.8751ZM10.0001 45.7177H9.75015V45.9677V50.8065C9.75015 54.0678 12.4459 56.5 15.9439 56.5C19.4426 56.5 22.1251 54.0671 22.1251 50.8065V45.9677V45.7177H21.8751H10.0001Z" fill="url(#paint3_linear_14181_2289)" stroke="white" stroke-width="0.5"/>
<path d="M45.3025 56.81L45.8148 56.5168C47.3872 55.6172 48.6909 54.3391 49.5995 52.8081C50.508 51.2773 50.9908 49.5455 51.0015 47.7813V33.8709C51.0015 32.4962 50.4372 31.1761 49.4301 30.2014C48.4227 29.2265 47.0546 28.6774 45.6265 28.6774H34.3765C32.9483 28.6774 31.5803 29.2265 30.5728 30.2014C29.5657 31.1761 29.0015 32.4962 29.0015 33.8709V47.7798C29.036 49.5402 29.5364 51.2631 30.4557 52.784C31.3753 54.3056 32.6837 55.5743 34.2562 56.4681L34.7818 56.7668L34.1988 56.9265C29.8706 58.1124 26.0682 60.6445 23.3783 64.1297C20.6885 67.6148 19.2606 71.8591 19.3139 76.2066L19.314 76.2096C19.314 76.4615 19.4173 76.7047 19.6039 76.8854C19.7909 77.0663 20.0461 77.1693 20.314 77.1693C20.5818 77.1693 20.837 77.0663 21.024 76.8854C21.2103 76.705 21.3136 76.4624 21.314 76.2111C21.2845 73.8239 21.7478 71.4553 22.6764 69.2441C23.6052 67.0324 24.9807 65.023 26.7219 63.3334C28.463 61.6439 30.5347 60.3082 32.8153 59.4043C35.0957 58.5005 37.5392 58.0464 40.0029 58.0685C40.0032 58.0685 40.0034 58.0685 40.0037 58.0685L40.0015 58.3185C44.8965 58.3297 49.587 60.2198 53.0436 63.574C56.5002 66.9282 58.4406 71.4725 58.439 76.2096L45.3025 56.81ZM45.3025 56.81L45.8695 56.974C50.1518 58.2125 53.9057 60.754 56.5748 64.2196C59.2438 67.685 60.6861 71.8898 60.689 76.2098C60.6889 76.4616 60.5856 76.7047 60.399 76.8854C60.212 77.0663 59.9568 77.1693 59.689 77.1693C59.4211 77.1693 59.1659 77.0663 58.9789 76.8854C58.7923 76.7047 58.689 76.4615 58.689 76.2097L45.3025 56.81ZM48.7515 38.3548H49.0015V38.1048V33.8709C49.0015 32.9999 48.6438 32.1662 48.01 31.5528C47.3765 30.9398 46.519 30.5967 45.6265 30.5967H34.3765C33.484 30.5967 32.6264 30.9398 31.9929 31.5528C31.3591 32.1662 31.0015 32.9999 31.0015 33.8709V38.1048V38.3548H31.2515H48.7515ZM31.2515 40.2741H31.0015V40.5241V47.7822C31.0015 52.338 35.2536 56.1491 40.0765 56.1491C44.905 56.1491 49.0015 52.3327 49.0015 47.7822V40.5241V40.2741H48.7515H31.2515Z" fill="url(#paint4_linear_14181_2289)" stroke="white" stroke-width="0.5"/>
<ellipse cx="8.6665" cy="22.5806" rx="6" ry="5.80645" fill="#DEEEEE"/>
<ellipse cx="40.0001" cy="76.1291" rx="17.3333" ry="16.7742" fill="#DEEEEE"/>
<path d="M77.3333 72.2581C77.3333 69.8693 76.6824 67.5274 75.453 65.4933C74.2236 63.4591 72.464 61.8125 70.3702 60.7369C68.2764 59.6613 65.9306 59.1989 63.594 59.4012C61.2575 59.6035 59.0219 60.4625 57.1363 61.8827L64.6667 72.2581H77.3333Z" fill="#DEEEEE"/>
<path d="M23.1665 60.8577C21.0528 59.624 18.6444 58.9539 16.2096 58.9221C13.7747 58.8902 11.4089 59.498 9.3758 60.6775C7.34265 61.8571 5.72193 63.5622 4.69415 65.6029C3.66636 67.6436 3.27186 69.9399 3.55458 72.2359L17.3335 72.2359L23.1665 60.8577Z" fill="#DEEEEE"/>
<ellipse cx="40.6667" cy="7.09682" rx="4.66667" ry="4.51613" fill="#DEEEEE"/>
<ellipse cx="69.9999" cy="22.5807" rx="4.66667" ry="4.51613" fill="#DEEEEE"/>
</g>
</g>
<defs>
<linearGradient id="paint0_linear_14181_2289" x1="6.6665" y1="15.4839" x2="86.0897" y2="42.5056" gradientUnits="userSpaceOnUse">
<stop stop-color="#ECF6F5"/>
<stop offset="1" stop-color="white"/>
</linearGradient>
<linearGradient id="paint1_linear_14181_2289" x1="-13.7495" y1="7.74803" x2="123.447" y2="-88.2448" gradientUnits="userSpaceOnUse">
<stop stop-color="#46A29F"/>
<stop offset="1" stop-color="#4660A2"/>
</linearGradient>
<linearGradient id="paint2_linear_14181_2289" x1="51.4362" y1="44.7119" x2="111.411" y2="32.9472" gradientUnits="userSpaceOnUse">
<stop stop-color="#46A29F"/>
<stop offset="1" stop-color="#4660A2"/>
</linearGradient>
<linearGradient id="paint3_linear_14181_2289" x1="-4.1888" y1="44.7119" x2="55.7862" y2="32.9471" gradientUnits="userSpaceOnUse">
<stop stop-color="#46A29F"/>
<stop offset="1" stop-color="#4660A2"/>
</linearGradient>
<linearGradient id="paint4_linear_14181_2289" x1="11.8665" y1="39.6111" x2="112.389" y2="14.0994" gradientUnits="userSpaceOnUse">
<stop stop-color="#46A29F"/>
<stop offset="1" stop-color="#4660A2"/>
</linearGradient>
<clipPath id="clip0_14181_2289">
<rect width="80" height="77.4194" fill="white"/>
</clipPath>
<clipPath id="clip1_14181_2289">
<rect width="80" height="77.4194" fill="white"/>
</clipPath>
</defs>
</svg>
