<svg width="80" height="80" viewBox="0 0 80 80" fill="none" xmlns="http://www.w3.org/2000/svg">
<g clip-path="url(#clip0_14181_2155)">
<rect x="47" y="41" width="5" height="15" fill="#E5F0F2"/>
<rect x="53" y="39" width="12" height="19" fill="#DEEEEE"/>
<path opacity="0.4" d="M79 33.9294C79 41.7909 64.646 46.3586 62.3675 54.6868C60.0891 63.015 55.7306 67 45.0516 67C36.3494 67 40.0392 61.0074 22.404 58.5659C4.76882 56.1245 9.51289 46.0834 14.9871 36.8772C21.2131 25.4274 24.101 19.7319 28.5925 12.1783C33.084 4.62475 34.8513 0.858896 45.0516 0.858896C53.6006 0.858896 64.874 -3.90793 67.3802 9.01811C69.8865 21.9441 79 23.9931 79 33.9294Z" fill="url(#paint0_linear_14181_2155)"/>
<path d="M62.3332 44H58.3333C57.596 44 57 44.2627 57 45C57 45.7373 57.596 46 58.3333 46H62.3332C63.0706 46 64 45.7373 64 45C64 44.2627 63.0706 44 62.3332 44Z" fill="url(#paint1_linear_14181_2155)"/>
<path fill-rule="evenodd" clip-rule="evenodd" d="M21.2223 26.4304C20.6168 26.8841 20.285 27.4755 20.285 28.0895C20.285 28.7044 20.6168 29.2958 21.2223 29.7504C21.8278 30.205 22.6864 30.5003 23.6546 30.5003C23.7789 30.5003 23.8981 30.5496 23.986 30.6375C24.0739 30.7254 24.1233 30.8446 24.1233 30.9689C24.1233 31.0932 24.0739 31.2124 23.986 31.3003C23.8981 31.3882 23.7789 31.4376 23.6546 31.4376C22.5036 31.4376 21.4425 31.0879 20.6599 30.5003C19.8763 29.9126 19.3477 29.0662 19.3477 28.0904C19.3477 27.1156 19.8763 26.2674 20.6599 25.6797C21.4435 25.0929 22.5036 24.7433 23.6546 24.7433C25.4524 24.7433 27.073 25.6047 27.6982 26.931C27.7511 27.0435 27.7572 27.1724 27.7151 27.2894C27.673 27.4063 27.5862 27.5018 27.4737 27.5548C27.3612 27.6077 27.2323 27.6138 27.1153 27.5717C26.9983 27.5296 26.9028 27.4428 26.8499 27.3303C26.4215 26.4211 25.1993 25.6806 23.6546 25.6806C22.6864 25.6806 21.8278 25.9759 21.2223 26.4304Z" fill="url(#paint2_linear_14181_2155)"/>
<path fill-rule="evenodd" clip-rule="evenodd" d="M25.7778 35.5064C26.3834 35.0528 26.7142 34.4604 26.7142 33.8474C26.7142 33.2325 26.3834 32.6411 25.7769 32.1865C25.1714 31.7319 24.3128 31.4366 23.3455 31.4366C23.2212 31.4366 23.102 31.3873 23.0141 31.2994C22.9262 31.2115 22.8769 31.0923 22.8769 30.968C22.8769 30.8437 22.9262 30.7245 23.0141 30.6366C23.102 30.5487 23.2212 30.4993 23.3455 30.4993C24.4965 30.4993 25.5576 30.8489 26.3402 31.4366C27.1229 32.0243 27.6515 32.8707 27.6515 33.8465C27.6515 34.8213 27.1229 35.6695 26.3393 36.2563C25.5566 36.844 24.4965 37.1936 23.3455 37.1936C21.5478 37.1936 19.9272 36.3322 19.302 35.0059C19.249 34.8934 19.2429 34.7645 19.285 34.6475C19.3271 34.5306 19.414 34.4351 19.5265 34.3821C19.6389 34.3292 19.7679 34.3231 19.8848 34.3652C20.0018 34.4073 20.0973 34.4941 20.1502 34.6066C20.5786 35.5158 21.7999 36.2563 23.3455 36.2563C24.3128 36.2563 25.1714 35.961 25.7778 35.5064ZM23.0062 22.4C23.1305 22.4 23.2497 22.4494 23.3376 22.5373C23.4255 22.6252 23.4749 22.7444 23.4749 22.8687V24.7433C23.4749 24.8676 23.4255 24.9868 23.3376 25.0747C23.2497 25.1626 23.1305 25.212 23.0062 25.212C22.8819 25.212 22.7627 25.1626 22.6748 25.0747C22.5869 24.9868 22.5376 24.8676 22.5376 24.7433V22.8687C22.5376 22.7444 22.5869 22.6252 22.6748 22.5373C22.7627 22.4494 22.8819 22.4 23.0062 22.4Z" fill="url(#paint3_linear_14181_2155)"/>
<path fill-rule="evenodd" clip-rule="evenodd" d="M23.0058 36.4596C23.1301 36.4596 23.2493 36.509 23.3372 36.5969C23.425 36.6848 23.4744 36.804 23.4744 36.9283V38.8029C23.4744 38.9272 23.425 39.0464 23.3372 39.1343C23.2493 39.2222 23.1301 39.2715 23.0058 39.2715C22.8815 39.2715 22.7623 39.2222 22.6744 39.1343C22.5865 39.0464 22.5371 38.9272 22.5371 38.8029V36.9283C22.5371 36.804 22.5865 36.6848 22.6744 36.5969C22.7623 36.509 22.8815 36.4596 23.0058 36.4596Z" fill="url(#paint4_linear_14181_2155)"/>
<circle cx="23.5" cy="30.5" r="12.8864" stroke="url(#paint5_linear_14181_2155)" stroke-width="1.22728"/>
<path d="M10.5509 43.3784L26.5286 48.4324C26.8615 47.973 27.5272 46.8703 27.5272 46.1351C27.5272 45.4 34.5174 43.0721 38.0125 42L47 44.2973L46.5007 57.1622L37.0139 59L19.039 55.3243C15.5439 53.027 8.45386 48.1568 8.05442 47.0541C7.65498 45.9514 9.55233 44.1441 10.5509 43.3784Z" fill="#F6FBFA"/>
<path d="M65.9927 38H54.9237C53.6136 38 52.5067 38.8443 52.0901 40.0125H47.0527C46.5083 40.0125 46.0705 40.4462 46.0524 40.9866L37.6571 39.0817C37.0513 38.9449 36.4224 38.9922 35.8438 39.2226L27.9647 42.3481C26.9473 42.7516 26.2238 44.0759 25.9169 45.066L10.3962 40.2642C9.45838 39.9915 8.90892 40.0599 8.13208 40.6415C7.37838 41.207 7 42.3522 7 43.283V45.1698C7 46.168 7.28379 46.5082 8.13208 47.0566L19.1568 54.7715C19.2554 54.8349 19.3651 54.8812 19.4798 54.9074L36.1235 58.7081C36.3489 58.7604 36.5804 58.7856 36.8108 58.7856C37.0423 58.7856 37.2727 58.7604 37.4981 58.7081L46.2577 56.6986C46.4398 56.9471 46.7206 57.1192 47.0537 57.1192H52.0911C52.5077 58.2875 53.6146 59.1317 54.9247 59.1317H65.9937C66.5502 59.1317 67 58.6819 67 58.1255V39.0063C66.999 38.4498 66.5492 38 65.9927 38ZM45.8679 55.3585L37.1887 57.2453C37.0347 57.2815 36.5899 57.2815 36.434 57.2453L19.8302 53.4717L8.88679 45.9245C8.61409 45.7474 8.13208 45.4828 8.13208 45.1698V42.5283C8.13208 42.1298 8.36755 41.8792 8.50943 41.7736C8.77509 41.5753 9.69485 41.676 10.0189 41.7736L25.9169 46.6721C26.3858 48.0587 27.7272 49.069 29.304 49.069H36.8108C37.3663 49.069 37.9434 49.1225 37.9434 48.566C37.9434 48.0096 37.7441 47.8113 37.1887 47.8113L28.9267 47.8112C28.0723 47.8112 27 46.7326 27 45.9245C27 45.3268 27.5525 43.8908 28.1321 43.6604L36.434 40.2642C36.6332 40.1847 37.3567 40.2169 37.566 40.2642L46.0524 42.1509L45.8679 55.3585ZM51.9057 55.7358H47.3774V41.3962L51.9049 41.326L51.9057 55.7358ZM65.1132 57.6226H54.5472C53.9917 57.6226 53.4151 56.6687 53.4151 56.1132V41.0189C53.4151 40.4634 53.9917 39.5094 54.5472 39.5094H65.1132V57.6226Z" fill="url(#paint6_linear_14181_2155)"/>
<path d="M53.8184 7.44341C54.0179 7.02553 53.8376 6.52432 53.413 6.33951C45.7415 3.00028 37.1533 2.24679 28.9887 4.21058C20.5505 6.24017 13.0734 11.0498 7.80173 17.8392C2.53002 24.6286 -0.218479 32.9883 0.0135676 41.5274C0.238209 49.794 3.2431 57.7461 8.54536 64.1451C8.83663 64.4967 9.35781 64.5377 9.70779 64.2446C10.0661 63.9445 10.1081 63.4096 9.81054 63.0492C4.76872 56.9421 1.91187 49.3621 1.69776 41.4832C1.476 33.3225 4.10271 25.3331 9.14083 18.8446C14.179 12.356 21.3247 7.7595 29.389 5.81984C37.1867 3.9443 45.3886 4.66222 52.7166 7.84813C53.1335 8.02941 53.6225 7.85371 53.8184 7.44341Z" fill="url(#paint7_linear_14181_2155)"/>
<path d="M50.3076 0.838989L53.8174 7.74153" stroke="url(#paint8_linear_14181_2155)" stroke-width="1.5" stroke-linecap="round"/>
<path d="M45.5601 9.47485L53.2691 8.02845" stroke="url(#paint9_linear_14181_2155)" stroke-width="1.5" stroke-linecap="round"/>
<path d="M24.9958 71.8948C24.8237 72.2812 25.0006 72.7348 25.3926 72.8944C33.1675 76.0602 41.799 76.6029 49.9322 74.4243C58.3138 72.1793 65.6609 67.1798 70.751 60.2577C75.8411 53.3356 78.3672 44.9083 77.9091 36.378C77.4643 28.0966 74.2327 20.2029 68.7344 13.9332C68.4592 13.6194 67.9821 13.594 67.6695 13.87C67.3494 14.1525 67.3239 14.6422 67.6051 14.9639C72.8585 20.9729 75.9458 28.5302 76.3715 36.4579C76.8111 44.6427 74.3873 52.7288 69.5033 59.3706C64.6194 66.0124 57.5698 70.8095 49.5276 72.9636C41.7274 75.0529 33.4496 74.5337 25.9923 71.5C25.6073 71.3433 25.1648 71.5154 24.9958 71.8948Z" fill="url(#paint10_linear_14181_2155)"/>
<path d="M28.71 78.3407L25.0185 71.5304" stroke="url(#paint11_linear_14181_2155)" stroke-width="1.5" stroke-linecap="round"/>
<path d="M33.2266 69.5862L25.5584 71.2295" stroke="url(#paint12_linear_14181_2155)" stroke-width="1.5" stroke-linecap="round"/>
</g>
<defs>
<linearGradient id="paint0_linear_14181_2155" x1="10" y1="0" x2="92.2604" y2="27.8927" gradientUnits="userSpaceOnUse">
<stop stop-color="#FEF8FC"/>
<stop offset="1" stop-color="#EBF0F6"/>
</linearGradient>
<linearGradient id="paint1_linear_14181_2155" x1="55.7971" y1="44.4566" x2="64.3962" y2="35.5204" gradientUnits="userSpaceOnUse">
<stop stop-color="#46A29F"/>
<stop offset="1" stop-color="#4660A2"/>
</linearGradient>
<linearGradient id="paint2_linear_14181_2155" x1="17.905" y1="26.2714" x2="36.7433" y2="19.2569" gradientUnits="userSpaceOnUse">
<stop stop-color="#46A29F"/>
<stop offset="1" stop-color="#4660A2"/>
</linearGradient>
<linearGradient id="paint3_linear_14181_2155" x1="17.8149" y1="25.7771" x2="38.6707" y2="22.2634" gradientUnits="userSpaceOnUse">
<stop stop-color="#46A29F"/>
<stop offset="1" stop-color="#4660A2"/>
</linearGradient>
<linearGradient id="paint4_linear_14181_2155" x1="22.376" y1="37.1015" x2="24.7477" y2="36.8668" gradientUnits="userSpaceOnUse">
<stop stop-color="#46A29F"/>
<stop offset="1" stop-color="#4660A2"/>
</linearGradient>
<linearGradient id="paint5_linear_14181_2155" x1="5.36032" y1="23.1635" x2="68.7581" y2="4.33981" gradientUnits="userSpaceOnUse">
<stop stop-color="#46A29F"/>
<stop offset="1" stop-color="#4660A2"/>
</linearGradient>
<linearGradient id="paint6_linear_14181_2155" x1="-3.3104" y1="42.8239" x2="86.3037" y2="-32.7242" gradientUnits="userSpaceOnUse">
<stop stop-color="#46A29F"/>
<stop offset="1" stop-color="#4660A2"/>
</linearGradient>
<linearGradient id="paint7_linear_14181_2155" x1="-13.0677" y1="20.2099" x2="164.999" y2="-33.5573" gradientUnits="userSpaceOnUse">
<stop stop-color="#46A29F"/>
<stop offset="1" stop-color="#4660A2"/>
</linearGradient>
<linearGradient id="paint8_linear_14181_2155" x1="49.4996" y1="-0.246424" x2="57.416" y2="-0.706369" gradientUnits="userSpaceOnUse">
<stop stop-color="#46A29F"/>
<stop offset="1" stop-color="#4660A2"/>
</linearGradient>
<linearGradient id="paint9_linear_14181_2155" x1="44.2788" y1="9.9475" x2="45.994" y2="2.24677" gradientUnits="userSpaceOnUse">
<stop stop-color="#46A29F"/>
<stop offset="1" stop-color="#4660A2"/>
</linearGradient>
<linearGradient id="paint10_linear_14181_2155" x1="91.5506" y1="57.3532" x2="-84.9898" y2="115.79" gradientUnits="userSpaceOnUse">
<stop stop-color="#46A29F"/>
<stop offset="1" stop-color="#4660A2"/>
</linearGradient>
<linearGradient id="paint11_linear_14181_2155" x1="29.5464" y1="79.405" x2="21.6455" y2="80.0744" gradientUnits="userSpaceOnUse">
<stop stop-color="#46A29F"/>
<stop offset="1" stop-color="#4660A2"/>
</linearGradient>
<linearGradient id="paint12_linear_14181_2155" x1="34.4949" y1="69.0809" x2="32.9781" y2="76.8216" gradientUnits="userSpaceOnUse">
<stop stop-color="#46A29F"/>
<stop offset="1" stop-color="#4660A2"/>
</linearGradient>
<clipPath id="clip0_14181_2155">
<rect width="80" height="80" fill="white"/>
</clipPath>
</defs>
</svg>
