<svg width="80" height="80" viewBox="0 0 80 80" fill="none" xmlns="http://www.w3.org/2000/svg">
<path d="M73.3332 40.4273C73.3332 48.2496 59.4645 52.7946 57.2632 61.0814C55.0618 69.3681 50.8507 73.3333 40.5327 73.3333C32.1248 73.3333 35.6899 67.3705 18.6511 64.9412C1.61223 62.5118 6.19587 52.5208 11.4849 43.3603C17.5004 31.9676 20.2906 26.3004 24.6302 18.7844C28.9698 11.2684 30.6775 7.52125 40.5327 7.52125C48.7927 7.52125 59.6848 2.77814 62.1063 15.6399C64.5278 28.5016 73.3332 30.5403 73.3332 40.4273Z" fill="url(#paint0_linear_14181_2209)"/>
<path d="M73.3332 40.4273C73.3332 48.2496 59.4645 52.7946 57.2632 61.0814C55.0618 69.3681 50.8507 73.3333 40.5327 73.3333C32.1248 73.3333 35.6899 67.3705 18.6511 64.9412C1.61223 62.5118 6.19587 52.5208 11.4849 43.3603C17.5004 31.9676 20.2906 26.3004 24.6302 18.7844C28.9698 11.2684 30.6775 7.52125 40.5327 7.52125C48.7927 7.52125 59.6848 2.77814 62.1063 15.6399C64.5278 28.5016 73.3332 30.5403 73.3332 40.4273Z" fill="url(#paint1_linear_14181_2209)"/>
<g clip-path="url(#clip0_14181_2209)">
<path d="M73.3332 43.0938C73.3332 50.9161 59.4645 55.4611 57.2632 63.7479C55.0618 72.0347 50.8507 75.9998 40.5327 75.9998C32.1248 75.9998 35.6899 70.037 18.6511 67.6077C1.61223 65.1784 6.19587 55.1873 11.4849 46.0268C17.5004 34.6341 20.2906 28.9669 24.6302 21.4509C28.9698 13.9349 30.6775 10.1878 40.5327 10.1878C48.7927 10.1878 59.6848 5.44464 62.1063 18.3064C64.5278 31.1681 73.3332 33.2068 73.3332 43.0938Z" fill="url(#paint2_linear_14181_2209)"/>
<path d="M73.3332 43.0938C73.3332 50.9161 59.4645 55.4611 57.2632 63.7479C55.0618 72.0347 50.8507 75.9998 40.5327 75.9998C32.1248 75.9998 35.6899 70.037 18.6511 67.6077C1.61223 65.1784 6.19587 55.1873 11.4849 46.0268C17.5004 34.6341 20.2906 28.9669 24.6302 21.4509C28.9698 13.9349 30.6775 10.1878 40.5327 10.1878C48.7927 10.1878 59.6848 5.44464 62.1063 18.3064C64.5278 31.1681 73.3332 33.2068 73.3332 43.0938Z" fill="url(#paint3_linear_14181_2209)"/>
<g clip-path="url(#clip1_14181_2209)">
<path d="M43.6257 9.79198C44.6242 10.7918 44.6242 12.4171 43.6257 13.4169L40.0003 17.0417L36.3753 13.4167C35.3749 12.4171 35.3749 10.7916 36.3753 9.79182C37.3751 8.7914 38.9998 8.7914 40.0003 9.79182C40.9999 8.79155 42.6248 8.79155 43.6257 9.79198Z" fill="#DEEEEE"/>
<path d="M64.3754 10.7915V23.2915H43.2623H36.7503H15.6255V10.7915C15.6255 6.64171 18.988 3.2915 23.1255 3.2915H56.8756C61.0259 3.2915 64.3754 6.64187 64.3754 10.7915ZM43.6259 13.4167C44.6244 12.417 44.6244 10.7915 43.6259 9.79174C42.625 8.79132 41.0001 8.79132 40.0005 9.79174C39.0001 8.79132 37.3754 8.79132 36.3756 9.79174C35.3751 10.7915 35.3751 12.4169 36.3756 13.4167L40.0005 17.0416L43.6259 13.4167Z" fill="white"/>
<path d="M61.7374 30.8044C57.0109 29.5916 52.5236 27.8167 48.3989 25.7915L43.261 23.2915H64.3741V31.4165C63.4868 31.2292 62.6115 31.0291 61.7374 30.8044Z" fill="#DEEEEE"/>
<path d="M18.2628 30.8044C17.3882 31.0291 16.5129 31.2291 15.6255 31.4165V23.2915H36.7505L31.6132 25.7915C27.4755 27.8168 22.9882 29.5917 18.2628 30.8044Z" fill="#DEEEEE"/>
<path d="M18.1251 24.5416H15.625V31.4166C16.4662 31.2389 17.2961 31.0467 18.1251 30.8362V24.5416Z" fill="#F0F4F4"/>
<path d="M61.8855 24.5416H64.3855V31.4166C63.5457 31.2389 62.7156 31.0467 61.8855 30.8362V24.5416Z" fill="#DEEEEE"/>
<path d="M29.3751 53.3294V59.9542L28.125 55.7915L23.125 60.7915L23.725 61.7534L23.7 61.7791L21.8751 62.7043C19.8126 63.6283 17.5622 64.329 15.625 64.9418V31.4165C16.5124 31.2292 17.3877 31.029 18.2623 30.8044V33.2917C19.1249 41.2792 23.9625 48.692 29.3751 53.3294Z" fill="#DEEEEE"/>
<path d="M64.3761 64.9421C65.3015 65.2425 66.1633 65.5172 66.8762 65.7917C71.8761 67.6546 74.3761 69.5418 74.3761 74.5418C74.3761 79.5418 74.3761 82.0418 74.3761 82.0418H47.4011L48.0384 80.7918L51.8765 73.2918L50.6263 70.7918L56.2513 61.7794L58.1264 62.7047C60.1892 63.6287 62.4378 64.3294 64.3761 64.9421Z" fill="white"/>
<path d="M64.3749 31.4167V64.9421C62.4366 64.3294 60.1881 63.6287 58.125 62.7047L56.25 61.7794L56.8751 60.7918L51.8751 55.7919L50.625 59.9545V53.3297C56.0498 48.6922 60.8875 41.2795 61.7383 33.2917V30.8044C62.6124 31.0292 63.4877 31.2293 64.3749 31.4167Z" fill="#DEEEEE"/>
<path d="M36.8733 33.3295V32.0417C36.8733 31.3544 36.3106 30.7915 35.6233 30.7915H26.8733C26.1856 30.7915 25.6233 31.3543 25.6233 32.0417V34.5416C25.6233 35.2295 26.1856 35.7916 26.8733 35.7916H35.6233C36.3106 35.7916 36.8733 35.2295 36.8733 34.5416V33.3295ZM43.1234 33.3295V34.5416C43.1234 35.2295 43.6848 35.7916 44.3734 35.7916H53.1232C53.8105 35.7916 54.3734 35.2295 54.3734 34.5416V32.0417C54.3734 31.3544 53.8105 30.7915 53.1232 30.7915H44.3734C43.6848 30.7915 43.1234 31.3543 43.1234 32.0417V33.3295ZM61.7365 30.8044V33.2917C60.8858 41.2793 56.0481 48.6921 50.6233 53.3296C47.01 56.4165 43.1356 58.2916 39.9983 58.2916C36.8605 58.2916 32.986 56.4165 29.3733 53.3295C23.9607 48.6919 19.1231 41.2793 18.2605 33.2915V30.8044C22.9859 29.5916 27.4732 27.8167 31.6109 25.7915L36.7481 23.2915H43.2601L48.398 25.7915C52.5227 27.8168 57.01 29.5917 61.7365 30.8044Z" fill="#F0F4F4"/>
<path d="M20.7606 33.2918V32.0418V30.8046V30.0825C19.9324 30.3333 19.1048 30.5879 18.2605 30.8046V33.2919C19.1231 41.2795 23.9607 48.6924 29.3733 53.3299C32.986 56.417 36.8605 58.292 39.9983 58.292C40.4031 58.292 40.8211 58.2578 41.2483 58.1968C38.3644 57.7854 35.0197 56.0191 31.8734 53.3299C26.4608 48.6922 21.6231 41.2794 20.7606 33.2918Z" fill="white"/>
<path d="M59.2379 33.2917V32.0417V30.8045V30.0824C60.0657 30.3332 60.8932 30.5878 61.7379 30.8045V33.2918C60.875 41.2794 56.0373 48.6922 50.6246 53.3298C47.0114 56.4165 43.1369 58.2916 39.9997 58.2916C39.595 58.2916 39.177 58.2573 38.7498 58.1964C41.633 57.785 44.9776 56.0187 48.1247 53.3295C53.5373 48.6921 58.375 41.2792 59.2379 33.2917Z" fill="#DEEEEE"/>
<path d="M56.873 60.7915L56.2479 61.7793L50.6229 70.7915L51.8731 73.2917L48.0352 80.7917L47.3979 82.0417H44.0105L48.9238 65.6293L49.998 62.0415L50.6229 59.9543L51.8731 55.7916L56.873 60.7915Z" fill="white"/>
<path d="M50.625 59.9543L50.0001 62.0415C50.0001 62.0415 46.875 64.5417 40.0001 64.5417C33.1251 64.5417 30.0251 62.0415 30.0251 62.0415L30.0001 62.0537L29.375 59.9541V53.3293C32.9877 56.4164 36.8622 58.2914 40.0001 58.2914C43.1373 58.2914 47.0118 56.4164 50.625 53.3293V59.9543Z" fill="#F0F4F4"/>
<path d="M50 62.0415L48.9258 65.6292C47.1375 66.3665 43.6999 67.0416 40 67.0416C36.3001 67.0416 32.8625 66.3665 31.0876 65.6292H31.0748L30 62.0537L30.025 62.0415C30.025 62.0415 33.125 64.5416 40 64.5416C46.875 64.5416 50 62.0415 50 62.0415Z" fill="#DEEEEE"/>
<path d="M48.924 65.6293L44.0107 82.0415H35.9981L31.073 65.6293H31.0858C32.8607 66.3665 36.2983 67.0416 39.9982 67.0416C43.6981 67.0416 47.1357 66.3665 48.924 65.6293Z" fill="#DEEEEE"/>
<path d="M31.075 65.6293L35.9999 82.0417H32.6125L31.9753 80.7917L28.1252 73.2917L29.3751 70.7915L23.7252 61.7537L23.1252 60.7915L28.1252 55.7916L29.3751 59.9543L30.0002 62.0537L31.075 65.6293Z" fill="white"/>
<path d="M31.9751 80.7917L32.6123 82.0416H5.625C5.625 82.0416 5.625 79.5417 5.625 74.5416C5.625 69.5417 8.12496 67.6544 13.125 65.7916C13.8501 65.517 14.6997 65.2423 15.625 64.9543V64.9421C17.5622 64.3294 19.8126 63.6287 21.8751 62.7047L23.6999 61.7794L23.7249 61.7538L29.3749 70.7918L28.1248 73.2918L31.9751 80.7917Z" fill="white"/>
<path d="M36.8855 34.5417C36.8855 35.229 36.3228 35.7917 35.6355 35.7917H26.8855C26.1984 35.7917 25.6355 35.229 25.6355 34.5417V32.0418C25.6355 31.3545 26.1984 30.7916 26.8855 30.7916H35.6355C36.3228 30.7916 36.8855 31.3543 36.8855 32.0418V33.3289V34.5417Z" fill="#DEEEEE"/>
<path d="M28.6301 35.7917H31.2187L32.5584 30.7916H29.9704L28.6301 35.7917Z" fill="#F0F4F4"/>
<path d="M31.8906 35.7917H32.5594L33.8991 30.7916H33.2303L31.8906 35.7917Z" fill="#F0F4F4"/>
<path d="M54.3855 34.5417C54.3855 35.229 53.8239 35.7917 53.1353 35.7917H44.3855C43.6993 35.7917 43.1355 35.229 43.1355 34.5417V32.0418C43.1355 31.3545 43.6993 30.7916 44.3855 30.7916H53.1353C53.8239 30.7916 54.3855 31.3543 54.3855 32.0418V33.3289V34.5417Z" fill="#DEEEEE"/>
<path d="M46.1301 35.7917H48.7181L50.0584 30.7916H47.4704L46.1301 35.7917Z" fill="#F0F4F4"/>
<path d="M49.3853 35.7917H50.0544L51.3947 30.7916H50.7256L49.3853 35.7917Z" fill="#F0F4F4"/>
<path d="M30.0251 62.0415C30.0251 62.0415 30.6281 62.5263 31.8879 63.0693V55.2434C31.0449 54.6709 30.2027 54.0361 29.375 53.3295V59.9543L30.0001 62.0539L30.0251 62.0415Z" fill="white"/>
<path d="M48.1301 63.0671C49.3935 62.5251 49.9991 62.0416 49.9991 62.0416L50.624 59.9544V53.3296C49.8025 54.0314 48.9665 54.6611 48.1301 55.2301V63.0671Z" fill="#DEEEEE"/>
<path d="M64.3756 23.291H15.625V24.541H64.3756V23.291Z" fill="#DEEEEE"/>
<path d="M45.8327 24.5416L43.2632 23.2916H36.7512L34.1824 24.5416H45.8327Z" fill="#DEEEEE"/>
<path d="M35.6253 36.4166H26.8753C25.8414 36.4166 25.0002 35.5755 25.0002 34.5415V32.0416C25.0002 31.0075 25.8413 30.1665 26.8753 30.1665H35.6253C36.6592 30.1665 37.5004 31.0075 37.5004 32.0416V34.5415C37.5004 35.5755 36.6592 36.4166 35.6253 36.4166ZM26.8753 31.4166C26.5304 31.4166 26.2504 31.6968 26.2504 32.0417V34.5417C26.2504 34.8866 26.5304 35.1667 26.8753 35.1667H35.6253C35.9702 35.1667 36.2504 34.8867 36.2504 34.5417V32.0417C36.2504 31.6968 35.9704 31.4166 35.6253 31.4166H26.8753Z" fill="url(#paint4_linear_14181_2209)"/>
<path d="M53.1249 36.4166H44.375C43.3412 36.4166 42.5 35.5755 42.5 34.5415V32.0416C42.5 31.0075 43.3412 30.1665 44.375 30.1665H53.1249C54.1589 30.1665 55 31.0075 55 32.0416V34.5415C55 35.5755 54.1589 36.4166 53.1249 36.4166ZM44.375 31.4166C44.0308 31.4166 43.75 31.6968 43.75 32.0417V34.5417C43.75 34.8866 44.0308 35.1667 44.375 35.1667H53.1249C53.4692 35.1667 53.75 34.8867 53.75 34.5417V32.0417C53.75 31.6968 53.4692 31.4166 53.1249 31.4166H44.375Z" fill="url(#paint5_linear_14181_2209)"/>
<path d="M43.1264 33.9543H36.8751C36.5296 33.9543 36.25 33.6748 36.25 33.3294C36.25 32.9839 36.5296 32.7043 36.8751 32.7043H43.1264C43.4719 32.7043 43.7513 32.9839 43.7513 33.3294C43.7513 33.6748 43.4719 33.9543 43.1264 33.9543Z" fill="url(#paint6_linear_14181_2209)"/>
<path d="M31.9685 81.4168C31.7414 81.4168 31.5223 81.2923 31.4119 81.0774L27.5691 73.5774C27.4782 73.3991 27.4769 73.1903 27.566 73.0123L28.6591 70.826L22.5951 61.1238C22.4407 60.876 22.4773 60.5549 22.6829 60.3499L27.683 55.3499C27.9271 55.1058 28.3226 55.1058 28.5667 55.3499C28.8108 55.594 28.8108 55.9897 28.5667 56.2338L23.9182 60.8821L29.9047 70.4597C30.02 70.6454 30.0311 70.8773 29.934 71.0713L28.8256 73.2881L32.5237 80.5061C32.6812 80.8138 32.5596 81.1898 32.2527 81.3485C32.1613 81.3948 32.0643 81.4168 31.9685 81.4168Z" fill="url(#paint7_linear_14181_2209)"/>
<path d="M35.6251 81.4168C35.3559 81.4168 35.1076 81.2422 35.0263 80.9711L27.5264 55.9712C27.4275 55.6404 27.6149 55.2924 27.9457 55.1934C28.2765 55.0933 28.625 55.2813 28.7239 55.6122L36.2239 80.6121C36.3229 80.943 36.1355 81.291 35.8047 81.3899C35.7448 81.4082 35.6844 81.4168 35.6251 81.4168Z" fill="url(#paint8_linear_14181_2209)"/>
<path d="M48.0311 81.4167C47.9347 81.4167 47.8383 81.3947 47.7455 81.3483C47.439 81.1895 47.3184 80.8136 47.4745 80.5059L51.1733 73.2879L50.0649 71.0711C49.9673 70.877 49.9795 70.6449 50.0943 70.4595L56.0806 60.8819L51.4323 56.2335C51.1882 55.9894 51.1882 55.5938 51.4323 55.3497C51.6764 55.1056 52.0719 55.1056 52.316 55.3497L57.316 60.3496C57.5211 60.5546 57.5576 60.8758 57.4039 61.1236L51.3393 70.8257L52.433 73.0121C52.5221 73.1902 52.5208 73.399 52.4305 73.5771L48.5877 81.0772C48.4768 81.2922 48.2583 81.4167 48.0311 81.4167Z" fill="url(#paint9_linear_14181_2209)"/>
<path d="M44.3751 81.4168C44.3165 81.4168 44.2554 81.4082 44.1957 81.3899C43.8648 81.291 43.6769 80.9432 43.7769 80.6122L51.2769 55.6123C51.3745 55.2815 51.7226 55.0935 52.0545 55.1935C52.3853 55.2924 52.5733 55.6403 52.4733 55.9712L44.9732 80.9712C44.8926 81.2421 44.6435 81.4168 44.3751 81.4168Z" fill="url(#paint10_linear_14181_2209)"/>
<path d="M39.9995 65.1667C32.9859 65.1667 29.7437 62.6373 29.6088 62.53C29.3404 62.3151 29.2969 61.9232 29.5105 61.6536C29.7248 61.3837 30.1186 61.3411 30.3883 61.5523C30.4181 61.5755 33.4663 63.9168 39.9995 63.9168C46.5327 63.9168 49.5807 61.5756 49.6113 61.5523C49.8812 61.3387 50.2728 61.3851 50.4877 61.6536C50.7025 61.9233 50.6586 62.3151 50.39 62.53C50.2558 62.6375 47.0137 65.1667 39.9995 65.1667Z" fill="url(#paint11_linear_14181_2209)"/>
<path d="M40.0011 67.6666C36.1205 67.6666 32.609 66.9366 30.8507 66.2139C30.5314 66.082 30.3796 65.7159 30.5108 65.3972C30.6426 65.0786 31.0076 64.9272 31.3268 65.0566C32.9711 65.7329 36.2915 66.4164 40.0012 66.4164C43.722 66.4164 47.0447 65.7342 48.6878 65.0589C49.0101 64.9295 49.3738 65.0785 49.5045 65.3983C49.6351 65.7182 49.4837 66.0831 49.1638 66.2137C47.4071 66.9368 43.8926 67.6666 40.0011 67.6666Z" fill="url(#paint12_linear_14181_2209)"/>
<path d="M40.0001 58.9179C31.4374 58.9179 19.0565 46.524 17.6392 33.3587C17.602 33.0151 17.8505 32.7068 18.1933 32.6702C18.5498 32.6397 18.8457 32.8819 18.8818 33.2245C19.5185 39.1364 22.5444 45.3814 27.1857 50.3595C31.3891 54.8662 36.2995 57.6678 40.0001 57.6678C40.3456 57.6678 40.6252 57.9473 40.6252 58.2928C40.6252 58.6383 40.3456 58.9179 40.0001 58.9179Z" fill="url(#paint13_linear_14181_2209)"/>
<path d="M74.3751 82.6666H5.62507C5.27956 82.6666 5 82.3872 5 82.0417V74.5417C5 69.1779 7.7789 67.1223 12.9059 65.2058C13.7103 64.9054 14.6784 64.5979 15.7318 64.2635C17.5904 63.6727 19.6966 63.0037 21.6212 62.1419C21.9362 62.0003 22.306 62.1419 22.4471 62.4569C22.588 62.7719 22.4471 63.1417 22.1314 63.282C20.1423 64.1732 18.0005 64.8543 16.1109 65.4549C15.0789 65.7819 14.1308 66.0823 13.3436 66.3776C8.53757 68.1746 6.24998 69.8543 6.24998 74.5417V81.4168H73.75V74.5417C73.75 69.8543 71.4624 68.1746 66.6553 66.3776C65.8693 66.0821 64.9219 65.7819 63.8905 65.4549C62.0008 64.8542 59.8585 64.1732 57.87 63.282C57.5539 63.1404 57.4135 62.7718 57.5539 62.4569C57.6955 62.1419 58.0642 62.0003 58.3804 62.1419C60.3054 63.0037 62.4111 63.6727 64.2701 64.2635C65.3224 64.5981 66.2905 64.9054 67.0935 65.2058C72.2217 67.1224 75.0002 69.1779 75.0002 74.5417V82.0417C75.0002 82.3872 74.7206 82.6666 74.3751 82.6666Z" fill="url(#paint14_linear_14181_2209)"/>
<path d="M15.6249 62.6667C15.2796 62.6667 15 62.3871 15 62.0416V25.7917C15 25.4463 15.2796 25.1666 15.6249 25.1666C15.9704 25.1666 16.25 25.4462 16.25 25.7917V62.0418C16.25 62.3871 15.9704 62.6667 15.6249 62.6667Z" fill="url(#paint15_linear_14181_2209)"/>
<path d="M15.6244 32.0418C15.3339 32.0418 15.0741 31.8385 15.013 31.5431C14.9434 31.205 15.1606 30.8741 15.4986 30.8046C20.6233 29.7474 25.9485 27.8719 31.3275 25.2309C31.6388 25.0802 32.0117 25.2071 32.1637 25.5165C32.3156 25.8259 32.1881 26.2008 31.8781 26.3529C26.405 29.0408 20.9789 30.9506 15.7513 32.0291C15.7087 32.0374 15.6665 32.0418 15.6244 32.0418Z" fill="url(#paint16_linear_14181_2209)"/>
<path d="M40.0001 58.9179C39.6546 58.9179 39.375 58.6383 39.375 58.2928C39.375 57.9473 39.6546 57.6678 40.0001 57.6678C43.7013 57.6678 48.611 54.8662 52.8151 50.3595C57.4562 45.3814 60.4811 39.1364 61.1183 33.2245C61.1549 32.8815 61.4454 32.633 61.8067 32.6702C62.1497 32.7068 62.3975 33.0151 62.3609 33.3587C60.9436 46.5241 48.5621 58.9179 40.0001 58.9179Z" fill="url(#paint17_linear_14181_2209)"/>
<path d="M64.3749 62.6667C64.0296 62.6667 63.75 62.3871 63.75 62.0416V25.7917C63.75 25.4463 64.0296 25.1666 64.3749 25.1666C64.7204 25.1666 65 25.4462 65 25.7917V62.0418C65 62.3871 64.7204 62.6667 64.3749 62.6667Z" fill="url(#paint18_linear_14181_2209)"/>
<path d="M64.373 32.0418C64.3315 32.0418 64.2901 32.0376 64.2461 32.029C59.0179 30.9498 53.5918 29.0407 48.1208 26.3527C47.8107 26.2007 47.6824 25.8259 47.8351 25.5164C47.9865 25.2063 48.36 25.0776 48.6702 25.2307C54.0486 27.8718 59.3733 29.7473 64.5002 30.8045C64.8371 30.874 65.0545 31.2048 64.9861 31.543C64.925 31.8385 64.6637 32.0418 64.373 32.0418Z" fill="url(#paint19_linear_14181_2209)"/>
<path d="M15.6249 23.9166C15.2796 23.9166 15 23.637 15 23.2915V10.7916C15 10.4461 15.2796 10.1665 15.6249 10.1665C15.9704 10.1665 16.25 10.4461 16.25 10.7916V23.2915C16.25 23.6372 15.9704 23.9166 15.6249 23.9166Z" fill="url(#paint20_linear_14181_2209)"/>
<path d="M56.8758 3.91661H22.8646C22.5191 3.91661 22.2395 3.63704 22.2395 3.29154C22.2395 2.94619 22.5191 2.66663 22.8646 2.66663H56.8758C57.2213 2.66663 57.5009 2.94619 57.5009 3.29154C57.5009 3.63704 57.2213 3.91661 56.8758 3.91661Z" fill="url(#paint21_linear_14181_2209)"/>
<path d="M64.3749 23.9166C64.0296 23.9166 63.75 23.637 63.75 23.2915V10.7916C63.75 10.4461 64.0296 10.1665 64.3749 10.1665C64.7204 10.1665 65 10.4461 65 10.7916V23.2915C65 23.6372 64.7204 23.9166 64.3749 23.9166Z" fill="url(#paint22_linear_14181_2209)"/>
<path d="M64.3748 23.9166H15.6249C15.2796 23.9166 15 23.6371 15 23.2916C15 22.9461 15.2796 22.6665 15.6249 22.6665H64.3749C64.7204 22.6665 65 22.9461 65 23.2916C65 23.6371 64.7203 23.9166 64.3748 23.9166Z" fill="url(#paint23_linear_14181_2209)"/>
<path d="M15.6249 11.4166C15.2796 11.4166 15 11.1371 15 10.7916C15 6.31156 18.6449 2.66663 23.125 2.66663C23.4705 2.66663 23.75 2.94619 23.75 3.29154C23.75 3.63704 23.4705 3.91661 23.125 3.91661C19.3341 3.91661 16.25 7.00069 16.25 10.7916C16.25 11.1371 15.9704 11.4166 15.6249 11.4166Z" fill="url(#paint24_linear_14181_2209)"/>
<path d="M64.375 11.4166C64.0296 11.4166 63.75 11.1371 63.75 10.7916C63.75 7.00069 60.6653 3.91661 56.8751 3.91661C56.5296 3.91661 56.25 3.63704 56.25 3.29154C56.25 2.94619 56.5296 2.66663 56.8751 2.66663C61.3551 2.66663 65 6.31156 65 10.7916C65 11.1371 64.7205 11.4166 64.375 11.4166Z" fill="url(#paint25_linear_14181_2209)"/>
<path d="M39.9987 17.6667C39.8332 17.6667 39.6739 17.6008 39.5567 17.4836L35.932 13.8594C34.6893 12.6155 34.6893 10.5928 35.932 9.35019C36.9988 8.28335 38.7842 8.13677 39.9987 8.9803C41.2114 8.13802 42.9985 8.28273 44.0653 9.35019C44.6659 9.9526 44.9979 10.7528 44.9979 11.6048C44.9979 12.4569 44.6659 13.257 44.0641 13.8596L40.4406 17.4837C40.3234 17.6008 40.1646 17.6667 39.9987 17.6667ZM38.1864 9.66616C37.6683 9.66616 37.1818 9.86759 36.8157 10.2337C36.0601 10.9894 36.0607 12.2193 36.8163 12.9754L39.9987 16.1578L43.1804 12.9754C43.5465 12.6093 43.748 12.1228 43.748 11.6047C43.748 11.0866 43.5465 10.6 43.1804 10.2339C42.4491 9.50145 41.1728 9.50145 40.4406 10.2339C40.2068 10.4677 39.7918 10.4689 39.5567 10.2339C39.1906 9.86759 38.7041 9.66616 38.1864 9.66616Z" fill="url(#paint26_linear_14181_2209)"/>
</g>
</g>
<defs>
<linearGradient id="paint0_linear_14181_2209" x1="6.6665" y1="6.66663" x2="86.6162" y2="32.9901" gradientUnits="userSpaceOnUse">
<stop stop-color="#ECF6F5"/>
<stop offset="1" stop-color="#FBF6F9"/>
</linearGradient>
<linearGradient id="paint1_linear_14181_2209" x1="6.6665" y1="6.66663" x2="86.6162" y2="32.9901" gradientUnits="userSpaceOnUse">
<stop stop-color="#F6F6FB"/>
<stop offset="1" stop-color="#FEF3F9"/>
</linearGradient>
<linearGradient id="paint2_linear_14181_2209" x1="6.6665" y1="9.33313" x2="86.6162" y2="35.6566" gradientUnits="userSpaceOnUse">
<stop stop-color="#ECF6F5"/>
<stop offset="1" stop-color="#FBF6F9"/>
</linearGradient>
<linearGradient id="paint3_linear_14181_2209" x1="6.6665" y1="9.33313" x2="86.6162" y2="35.6566" gradientUnits="userSpaceOnUse">
<stop stop-color="#F6F6FB"/>
<stop offset="1" stop-color="#FEF3F9"/>
</linearGradient>
<linearGradient id="paint4_linear_14181_2209" x1="22.8522" y1="31.5933" x2="46.4644" y2="17.5717" gradientUnits="userSpaceOnUse">
<stop stop-color="#46A29F"/>
<stop offset="1" stop-color="#4660A2"/>
</linearGradient>
<linearGradient id="paint5_linear_14181_2209" x1="40.352" y1="31.5933" x2="63.9641" y2="17.5719" gradientUnits="userSpaceOnUse">
<stop stop-color="#46A29F"/>
<stop offset="1" stop-color="#4660A2"/>
</linearGradient>
<linearGradient id="paint6_linear_14181_2209" x1="34.961" y1="32.9897" x2="39.5518" y2="24.8096" gradientUnits="userSpaceOnUse">
<stop stop-color="#46A29F"/>
<stop offset="1" stop-color="#4660A2"/>
</linearGradient>
<linearGradient id="paint7_linear_14181_2209" x1="20.7657" y1="61.1592" x2="46.2213" y2="58.2532" gradientUnits="userSpaceOnUse">
<stop stop-color="#46A29F"/>
<stop offset="1" stop-color="#4660A2"/>
</linearGradient>
<linearGradient id="paint8_linear_14181_2209" x1="25.9963" y1="61.1589" x2="48.1372" y2="58.9675" gradientUnits="userSpaceOnUse">
<stop stop-color="#46A29F"/>
<stop offset="1" stop-color="#4660A2"/>
</linearGradient>
<linearGradient id="paint9_linear_14181_2209" x1="45.672" y1="61.1589" x2="71.1267" y2="58.2532" gradientUnits="userSpaceOnUse">
<stop stop-color="#46A29F"/>
<stop offset="1" stop-color="#4660A2"/>
</linearGradient>
<linearGradient id="paint10_linear_14181_2209" x1="42.2464" y1="61.159" x2="64.3866" y2="58.9677" gradientUnits="userSpaceOnUse">
<stop stop-color="#46A29F"/>
<stop offset="1" stop-color="#4660A2"/>
</linearGradient>
<linearGradient id="paint11_linear_14181_2209" x1="25.7236" y1="62.2737" x2="39.8897" y2="38.4318" gradientUnits="userSpaceOnUse">
<stop stop-color="#46A29F"/>
<stop offset="1" stop-color="#4660A2"/>
</linearGradient>
<linearGradient id="paint12_linear_14181_2209" x1="27.1836" y1="65.6167" x2="35.967" y2="46.8758" gradientUnits="userSpaceOnUse">
<stop stop-color="#46A29F"/>
<stop offset="1" stop-color="#4660A2"/>
</linearGradient>
<linearGradient id="paint13_linear_14181_2209" x1="13.685" y1="38.66" x2="68.7047" y2="24.353" gradientUnits="userSpaceOnUse">
<stop stop-color="#46A29F"/>
<stop offset="1" stop-color="#4660A2"/>
</linearGradient>
<linearGradient id="paint14_linear_14181_2209" x1="-7.02883" y1="66.7848" x2="81.5152" y2="-22.6383" gradientUnits="userSpaceOnUse">
<stop stop-color="#46A29F"/>
<stop offset="1" stop-color="#4660A2"/>
</linearGradient>
<linearGradient id="paint15_linear_14181_2209" x1="14.7852" y1="33.7271" x2="17.9787" y2="33.6954" gradientUnits="userSpaceOnUse">
<stop stop-color="#46A29F"/>
<stop offset="1" stop-color="#4660A2"/>
</linearGradient>
<linearGradient id="paint16_linear_14181_2209" x1="12.0396" y1="26.7367" x2="40.3709" y2="5.65532" gradientUnits="userSpaceOnUse">
<stop stop-color="#46A29F"/>
<stop offset="1" stop-color="#4660A2"/>
</linearGradient>
<linearGradient id="paint17_linear_14181_2209" x1="35.4245" y1="38.6591" x2="90.4443" y2="24.3528" gradientUnits="userSpaceOnUse">
<stop stop-color="#46A29F"/>
<stop offset="1" stop-color="#4660A2"/>
</linearGradient>
<linearGradient id="paint18_linear_14181_2209" x1="63.5352" y1="33.7271" x2="66.7287" y2="33.6954" gradientUnits="userSpaceOnUse">
<stop stop-color="#46A29F"/>
<stop offset="1" stop-color="#4660A2"/>
</linearGradient>
<linearGradient id="paint19_linear_14181_2209" x1="44.8103" y1="26.7357" x2="73.1457" y2="5.65524" gradientUnits="userSpaceOnUse">
<stop stop-color="#46A29F"/>
<stop offset="1" stop-color="#4660A2"/>
</linearGradient>
<linearGradient id="paint20_linear_14181_2209" x1="14.7852" y1="13.3053" x2="17.9767" y2="13.2192" gradientUnits="userSpaceOnUse">
<stop stop-color="#46A29F"/>
<stop offset="1" stop-color="#4660A2"/>
</linearGradient>
<linearGradient id="paint21_linear_14181_2209" x1="16.1802" y1="2.95197" x2="17.4464" y2="-7.65345" gradientUnits="userSpaceOnUse">
<stop stop-color="#46A29F"/>
<stop offset="1" stop-color="#4660A2"/>
</linearGradient>
<linearGradient id="paint22_linear_14181_2209" x1="63.5352" y1="13.3053" x2="66.7267" y2="13.2192" gradientUnits="userSpaceOnUse">
<stop stop-color="#46A29F"/>
<stop offset="1" stop-color="#4660A2"/>
</linearGradient>
<linearGradient id="paint23_linear_14181_2209" x1="6.408" y1="22.9519" x2="7.30753" y2="12.2697" gradientUnits="userSpaceOnUse">
<stop stop-color="#46A29F"/>
<stop offset="1" stop-color="#4660A2"/>
</linearGradient>
<linearGradient id="paint24_linear_14181_2209" x1="13.4964" y1="4.66406" x2="34.042" y2="-1.43623" gradientUnits="userSpaceOnUse">
<stop stop-color="#46A29F"/>
<stop offset="1" stop-color="#4660A2"/>
</linearGradient>
<linearGradient id="paint25_linear_14181_2209" x1="54.7464" y1="4.66406" x2="75.292" y2="-1.43622" gradientUnits="userSpaceOnUse">
<stop stop-color="#46A29F"/>
<stop offset="1" stop-color="#4660A2"/>
</linearGradient>
<linearGradient id="paint26_linear_14181_2209" x1="33.282" y1="10.543" x2="56.4331" y2="3.09793" gradientUnits="userSpaceOnUse">
<stop stop-color="#46A29F"/>
<stop offset="1" stop-color="#4660A2"/>
</linearGradient>
<clipPath id="clip0_14181_2209">
<rect width="80" height="80" fill="white"/>
</clipPath>
<clipPath id="clip1_14181_2209">
<rect width="80" height="80" fill="white" transform="translate(0 2.66663)"/>
</clipPath>
</defs>
</svg>
