<svg width="60" height="60" viewBox="0 0 60 60" fill="none" xmlns="http://www.w3.org/2000/svg">
<path d="M54.9999 30.3204C54.9999 36.1871 44.5985 39.5959 42.9474 45.811C41.2964 52.026 38.1381 54.9999 30.3996 54.9999C24.0937 54.9999 26.7675 50.5278 13.9883 48.7058C1.20923 46.8838 4.64696 39.3905 8.61376 32.5202C13.1254 23.9756 15.218 19.7252 18.4727 14.0882C21.7274 8.4512 23.0082 5.64086 30.3996 5.64086C36.5946 5.64086 44.7637 2.08353 46.5798 11.7298C48.3959 21.3761 54.9999 22.9052 54.9999 30.3204Z" fill="url(#paint0_linear)"/>
<path d="M54.9999 30.3204C54.9999 36.1871 44.5985 39.5959 42.9474 45.811C41.2964 52.026 38.1381 54.9999 30.3996 54.9999C24.0937 54.9999 26.7675 50.5278 13.9883 48.7058C1.20923 46.8838 4.64696 39.3905 8.61376 32.5202C13.1254 23.9756 15.218 19.7252 18.4727 14.0882C21.7274 8.4512 23.0082 5.64086 30.3996 5.64086C36.5946 5.64086 44.7637 2.08353 46.5798 11.7298C48.3959 21.3761 54.9999 22.9052 54.9999 30.3204Z" fill="url(#paint1_linear)"/>
<path d="M25.1491 6.55687C25.0291 6.55687 24.9093 6.51102 24.8177 6.41955L24.1494 5.75218C23.9662 5.56901 23.9662 5.27244 24.1494 5.08939C24.3325 4.90622 24.629 4.90622 24.8122 5.08939L25.4805 5.75676C25.6635 5.93993 25.6635 6.2365 25.4805 6.41955C25.3889 6.51102 25.2691 6.55687 25.1491 6.55687Z" fill="url(#paint2_linear)"/>
<path d="M24.4808 7.2151C24.3608 7.2151 24.241 7.16925 24.1494 7.07778C23.9662 6.89473 23.9662 6.59804 24.1494 6.41499L24.803 5.76134C24.9861 5.57817 25.2829 5.57817 25.4658 5.76134C25.6489 5.94439 25.6489 6.24108 25.4658 6.42413L24.8122 7.07778C24.7206 7.16925 24.6009 7.2151 24.4808 7.2151Z" fill="url(#paint3_linear)"/>
<path d="M25.1491 6.56696H12.1002C11.8412 6.56696 11.6315 6.35728 11.6315 6.09812C11.6315 5.83896 11.8412 5.62929 12.1002 5.62929H25.1489C25.408 5.62929 25.6178 5.83896 25.6178 6.09812C25.6178 6.35728 25.4081 6.56696 25.1491 6.56696Z" fill="url(#paint4_linear)"/>
<path fill-rule="evenodd" clip-rule="evenodd" d="M39.3781 6.44914C39.3781 6.19027 39.5879 5.98042 39.8468 5.98042H51.4207C51.4285 5.98042 51.4363 5.98062 51.4441 5.98101L51.4207 6.44914C51.4441 5.98101 51.4444 5.98103 51.4448 5.98105L51.4457 5.98109L51.4481 5.98122L51.4551 5.98163C51.4608 5.98198 51.4684 5.98247 51.4778 5.98316C51.4967 5.98454 51.5231 5.98668 51.5565 5.98992C51.6232 5.99639 51.718 6.00727 51.8369 6.02519C52.0746 6.06102 52.4093 6.12516 52.8088 6.23906C53.607 6.46666 54.6703 6.89482 55.7339 7.69821C57.8824 9.32112 59.9508 12.4126 59.9508 18.2246C59.9508 24.0366 57.8824 27.128 55.7339 28.7509C54.6703 29.5543 53.607 29.9825 52.8088 30.2101C52.4093 30.324 52.0746 30.3881 51.8369 30.424C51.718 30.4419 51.6232 30.4528 51.5565 30.4592C51.5231 30.4625 51.4967 30.4646 51.4778 30.466C51.4684 30.4667 51.4608 30.4672 51.4551 30.4675L51.4481 30.4679L51.4457 30.4681L51.4448 30.4681C51.4444 30.4681 51.4441 30.4681 51.4207 30L51.4441 30.4681C51.4363 30.4685 51.4285 30.4687 51.4207 30.4687H30.1731C29.9142 30.4687 29.7043 30.2589 29.7043 30C29.7043 29.7411 29.9142 29.5313 30.1731 29.5313H51.406C51.4072 29.5312 51.4084 29.5311 51.4098 29.531C51.4214 29.5302 51.4403 29.5287 51.4659 29.5262C51.5173 29.5212 51.5956 29.5123 51.6972 29.497C51.9004 29.4664 52.1955 29.4102 52.5517 29.3086C53.265 29.1052 54.2171 28.7218 55.1689 28.0029C57.051 26.5812 59.0134 23.7849 59.0134 18.2246C59.0134 12.6642 57.051 9.86794 55.1689 8.44623C54.2171 7.7273 53.265 7.34392 52.5517 7.14056C52.1955 7.03898 51.9004 6.98278 51.6972 6.95214C51.5956 6.93684 51.5173 6.92794 51.4659 6.92296C51.4403 6.92047 51.4214 6.91896 51.4098 6.91812C51.4084 6.91802 51.4072 6.91793 51.406 6.91785H39.8468C39.5879 6.91785 39.3781 6.708 39.3781 6.44914Z" fill="url(#paint5_linear)"/>
<path d="M30.1573 31.1691C30.0374 31.1691 29.9175 31.1232 29.8259 31.0318L29.1585 30.3644C28.9753 30.1812 28.9753 29.8846 29.1585 29.7016C29.3417 29.5184 29.6382 29.5184 29.8213 29.7016L30.4887 30.369C30.6718 30.552 30.6718 30.8487 30.4887 31.0318C30.3972 31.1232 30.2771 31.1691 30.1573 31.1691Z" fill="url(#paint6_linear)"/>
<path d="M29.5036 30.4971C29.3838 30.4971 29.2638 30.4513 29.1722 30.3598C28.9891 30.1766 28.9891 29.8801 29.1722 29.697L29.8259 29.0433C30.009 28.8602 30.3056 28.8602 30.4887 29.0433C30.6718 29.2264 30.6718 29.523 30.4887 29.7062L29.835 30.3598C29.7436 30.4513 29.6236 30.4971 29.5036 30.4971Z" fill="url(#paint7_linear)"/>
<path fill-rule="evenodd" clip-rule="evenodd" d="M20.6805 30.0576C20.6805 29.7987 20.4706 29.5889 20.2118 29.5889H8.63787C8.62784 29.5889 8.61781 29.5892 8.6078 29.5898L8.63787 30.0576C8.6078 29.5898 8.60745 29.5899 8.60707 29.5899L8.60614 29.5899L8.60375 29.5901L8.59675 29.5906C8.59111 29.591 8.58354 29.5916 8.5741 29.5925C8.55522 29.5941 8.52885 29.5966 8.49548 29.6003C8.42877 29.6078 8.33399 29.62 8.21515 29.6396C7.97761 29.6788 7.64309 29.7477 7.24383 29.8672C6.44601 30.1061 5.38373 30.5491 4.32128 31.3668C2.17594 33.018 0.107733 36.1361 0.107733 41.9482C0.107733 47.7602 2.17594 50.8784 4.32128 52.5296C5.38373 53.3473 6.44601 53.7903 7.24383 54.0291C7.64309 54.1487 7.97761 54.2175 8.21515 54.2568C8.33399 54.2764 8.42877 54.2886 8.49548 54.296C8.52885 54.2997 8.55522 54.3022 8.5741 54.3039C8.58354 54.3047 8.59111 54.3053 8.59675 54.3057L8.60375 54.3062L8.60614 54.3064L8.60707 54.3065C8.60745 54.3065 8.6078 54.3065 8.63787 53.8388L8.6078 54.3065C8.61781 54.3072 8.62784 54.3075 8.63787 54.3075H18.1388C18.3977 54.3075 18.6075 54.0976 18.6075 53.8388C18.6075 53.5799 18.3977 53.3701 18.1388 53.3701H8.65615C8.6559 53.37 8.65565 53.37 8.65539 53.37C8.64376 53.369 8.62487 53.3672 8.59919 53.3643C8.54782 53.3586 8.4694 53.3486 8.36781 53.3318C8.16449 53.2983 7.86922 53.2378 7.51271 53.1311C6.79902 52.9174 5.84594 52.5201 4.89303 51.7867C3.00767 50.3356 1.04516 47.5085 1.04516 41.9482C1.04516 36.3879 3.00767 33.5607 4.89303 32.1097C5.84594 31.3763 6.79902 30.979 7.51271 30.7653C7.86922 30.6585 8.16449 30.5981 8.36781 30.5645C8.4694 30.5477 8.54782 30.5377 8.59919 30.532C8.62487 30.5292 8.64376 30.5274 8.65539 30.5264C8.65565 30.5263 8.65592 30.5263 8.65617 30.5263H20.2118C20.4706 30.5263 20.6805 30.3164 20.6805 30.0576Z" fill="url(#paint8_linear)"/>
<path d="M17.5788 55.0078C17.6986 55.0078 17.8186 54.962 17.9102 54.8705L18.5775 54.2031C18.7607 54.02 18.7607 53.7234 18.5775 53.5404C18.3944 53.3572 18.0978 53.3572 17.9147 53.5404L17.2474 54.2077C17.0642 54.3908 17.0642 54.6875 17.2474 54.8705C17.3388 54.962 17.4589 55.0078 17.5788 55.0078Z" fill="url(#paint9_linear)"/>
<path d="M18.2324 54.3359C18.3522 54.3359 18.4722 54.29 18.5638 54.1986C18.747 54.0154 18.747 53.7188 18.5638 53.5358L17.9102 52.882C17.727 52.699 17.4304 52.699 17.2474 52.882C17.0642 53.0652 17.0642 53.3617 17.2474 53.5449L17.901 54.1986C17.9925 54.29 18.1124 54.3359 18.2324 54.3359Z" fill="url(#paint10_linear)"/>
<path d="M6.10364 11.6315C9.15657 11.6315 11.6315 9.15659 11.6315 6.10365C11.6315 3.05072 9.15657 0.575821 6.10364 0.575821C3.0507 0.575821 0.575806 3.05072 0.575806 6.10365C0.575806 9.15659 3.0507 11.6315 6.10364 11.6315Z" fill="#DEEEEE"/>
<path d="M8.97689 1.3878C9.48865 2.22582 9.78888 3.20719 9.78888 4.26103C9.78888 7.31398 7.31399 9.78886 4.26105 9.78886C3.2072 9.78886 2.22584 9.48864 1.38782 8.97687C2.35861 10.5667 4.10455 11.6315 6.10366 11.6315C9.1566 11.6315 11.6315 9.15659 11.6315 6.10364C11.6315 4.10454 10.5667 2.35859 8.97689 1.3878Z" fill="#F0F4F4"/>
<path fill-rule="evenodd" clip-rule="evenodd" d="M6.10365 11.286C8.96578 11.286 11.286 8.96578 11.286 6.10365C11.286 3.24152 8.96578 0.921305 6.10365 0.921305C3.24152 0.921305 0.921305 3.24152 0.921305 6.10365C0.921305 8.96578 3.24152 11.286 6.10365 11.286ZM6.10365 12.2073C9.4746 12.2073 12.2073 9.4746 12.2073 6.10365C12.2073 2.7327 9.4746 0 6.10365 0C2.7327 0 0 2.7327 0 6.10365C0 9.4746 2.7327 12.2073 6.10365 12.2073Z" fill="url(#paint11_linear)"/>
<path d="M20.6142 35.5854C23.6671 35.5854 26.142 33.1105 26.142 30.0576C26.142 27.0046 23.6671 24.5298 20.6142 24.5298C17.5613 24.5298 15.0864 27.0046 15.0864 30.0576C15.0864 33.1105 17.5613 35.5854 20.6142 35.5854Z" fill="#DEEEEE"/>
<path d="M23.4874 25.3417C23.9992 26.1798 24.2994 27.1611 24.2994 28.215C24.2994 31.2679 21.8246 33.7428 18.7716 33.7428C17.7178 33.7428 16.7364 33.4426 15.8984 32.9308C16.8692 34.5206 18.6151 35.5854 20.6142 35.5854C23.6672 35.5854 26.142 33.1105 26.142 30.0576C26.142 28.0585 25.0772 26.3125 23.4874 25.3417Z" fill="#F0F4F4"/>
<path fill-rule="evenodd" clip-rule="evenodd" d="M20.6142 35.2399C23.4763 35.2399 25.7965 32.9197 25.7965 30.0576C25.7965 27.1955 23.4763 24.8752 20.6142 24.8752C17.7521 24.8752 15.4319 27.1955 15.4319 30.0576C15.4319 32.9197 17.7521 35.2399 20.6142 35.2399ZM20.6142 36.1612C23.9852 36.1612 26.7179 33.4285 26.7179 30.0576C26.7179 26.6866 23.9852 23.9539 20.6142 23.9539C17.2433 23.9539 14.5106 26.6866 14.5106 30.0576C14.5106 33.4285 17.2433 36.1612 20.6142 36.1612Z" fill="url(#paint12_linear)"/>
<path d="M33.9731 11.6315C37.0261 11.6315 39.501 9.15659 39.501 6.10365C39.501 3.05072 37.0261 0.575821 33.9731 0.575821C30.9202 0.575821 28.4453 3.05072 28.4453 6.10365C28.4453 9.15659 30.9202 11.6315 33.9731 11.6315Z" fill="#DEEEEE"/>
<path d="M36.8464 1.3878C37.3582 2.22582 37.6584 3.20719 37.6584 4.26103C37.6584 7.31398 35.1835 9.78886 32.1306 9.78886C31.0767 9.78886 30.0953 9.48864 29.2573 8.97687C30.2281 10.5667 31.9741 11.6315 33.9732 11.6315C37.0261 11.6315 39.501 9.15659 39.501 6.10364C39.501 4.10454 38.4362 2.35859 36.8464 1.3878Z" fill="#F0F4F4"/>
<path fill-rule="evenodd" clip-rule="evenodd" d="M33.9732 11.286C36.8353 11.286 39.1555 8.96578 39.1555 6.10365C39.1555 3.24152 36.8353 0.921305 33.9732 0.921305C31.111 0.921305 28.7908 3.24152 28.7908 6.10365C28.7908 8.96578 31.111 11.286 33.9732 11.286ZM33.9732 12.2073C37.3441 12.2073 40.0768 9.4746 40.0768 6.10365C40.0768 2.7327 37.3441 0 33.9732 0C30.6022 0 27.8695 2.7327 27.8695 6.10365C27.8695 9.4746 30.6022 12.2073 33.9732 12.2073Z" fill="url(#paint13_linear)"/>
<path d="M27.0634 59.4242C30.1163 59.4242 32.5912 56.9493 32.5912 53.8964C32.5912 50.8434 30.1163 48.3685 27.0634 48.3685C24.0104 48.3685 21.5355 50.8434 21.5355 53.8964C21.5355 56.9493 24.0104 59.4242 27.0634 59.4242Z" fill="#DEEEEE"/>
<path d="M29.9366 49.1805C30.4484 50.0186 30.7486 50.9999 30.7486 52.0538C30.7486 55.1067 28.2737 57.5816 25.2208 57.5816C24.1669 57.5816 23.1856 57.2814 22.3475 56.7696C23.3183 58.3594 25.0643 59.4242 27.0634 59.4242C30.1163 59.4242 32.5912 56.9493 32.5912 53.8964C32.5912 51.8973 31.5264 50.1513 29.9366 49.1805Z" fill="#F0F4F4"/>
<path fill-rule="evenodd" clip-rule="evenodd" d="M27.0634 59.0787C29.9255 59.0787 32.2457 56.7585 32.2457 53.8963C32.2457 51.0342 29.9255 48.714 27.0634 48.714C24.2012 48.714 21.881 51.0342 21.881 53.8963C21.881 56.7585 24.2012 59.0787 27.0634 59.0787ZM27.0634 60C30.4343 60 33.167 57.2673 33.167 53.8963C33.167 50.5254 30.4343 47.7927 27.0634 47.7927C23.6924 47.7927 20.9597 50.5254 20.9597 53.8963C20.9597 57.2673 23.6924 60 27.0634 60Z" fill="url(#paint14_linear)"/>
<path d="M45.0723 54.3496C44.9523 54.3496 44.8324 54.3037 44.7409 54.2123L44.0726 53.5449C43.8894 53.3617 43.8894 53.0652 44.0726 52.8821C44.2556 52.6989 44.5522 52.6989 44.7354 52.8821L45.4037 53.5495C45.5867 53.7326 45.5867 54.0292 45.4037 54.2123C45.3121 54.3037 45.1922 54.3496 45.0723 54.3496Z" fill="url(#paint15_linear)"/>
<path d="M44.404 55.0078C44.284 55.0078 44.1641 54.962 44.0726 54.8705C43.8894 54.6874 43.8894 54.3907 44.0726 54.2077L44.7262 53.554C44.9093 53.3709 45.2061 53.3709 45.389 53.554C45.572 53.7371 45.572 54.0338 45.389 54.2168L44.7353 54.8705C44.6438 54.962 44.524 55.0078 44.404 55.0078Z" fill="url(#paint16_linear)"/>
<path d="M45.0723 54.3597H33.1751C32.916 54.3597 32.7064 54.15 32.7064 53.8908C32.7064 53.6317 32.916 53.422 33.1751 53.422H45.0721C45.3312 53.422 45.541 53.6317 45.541 53.8908C45.541 54.15 45.3313 54.3597 45.0723 54.3597Z" fill="url(#paint17_linear)"/>
<path d="M53.8964 59.4242C56.9493 59.4242 59.4242 56.9493 59.4242 53.8964C59.4242 50.8434 56.9493 48.3685 53.8964 48.3685C50.8434 48.3685 48.3685 50.8434 48.3685 53.8964C48.3685 56.9493 50.8434 59.4242 53.8964 59.4242Z" fill="#F0F4F4"/>
<path d="M56.7696 49.1805C57.2814 50.0186 57.5816 50.9999 57.5816 52.0538C57.5816 55.1067 55.1067 57.5816 52.0538 57.5816C50.9999 57.5816 50.0186 57.2814 49.1805 56.7696C50.1513 58.3594 51.8973 59.4242 53.8964 59.4242C56.9493 59.4242 59.4242 56.9493 59.4242 53.8964C59.4242 51.8973 58.3594 50.1513 56.7696 49.1805Z" fill="white"/>
<path fill-rule="evenodd" clip-rule="evenodd" d="M53.8964 59.0787C56.7585 59.0787 59.0787 56.7585 59.0787 53.8963C59.0787 51.0342 56.7585 48.714 53.8964 48.714C51.0342 48.714 48.714 51.0342 48.714 53.8963C48.714 56.7585 51.0342 59.0787 53.8964 59.0787ZM53.8964 60C57.2673 60 60 57.2673 60 53.8963C60 50.5254 57.2673 47.7927 53.8964 47.7927C50.5254 47.7927 47.7927 50.5254 47.7927 53.8963C47.7927 57.2673 50.5254 60 53.8964 60Z" fill="url(#paint18_linear)"/>
<defs>
<linearGradient id="paint0_linear" x1="4.99994" y1="4.99989" x2="64.9622" y2="24.7425" gradientUnits="userSpaceOnUse">
<stop stop-color="#ECF6F5"/>
<stop offset="1" stop-color="#FBF6F9"/>
</linearGradient>
<linearGradient id="paint1_linear" x1="4.99994" y1="4.99989" x2="64.9622" y2="24.7425" gradientUnits="userSpaceOnUse">
<stop stop-color="#F6F6FB"/>
<stop offset="1" stop-color="#FEF3F9"/>
</linearGradient>
<linearGradient id="paint2_linear" x1="23.7361" y1="5.31836" x2="27.5062" y2="4.19834" gradientUnits="userSpaceOnUse">
<stop stop-color="#46A29F"/>
<stop offset="1" stop-color="#4660A2"/>
</linearGradient>
<linearGradient id="paint3_linear" x1="23.7386" y1="5.98718" x2="27.4746" y2="4.87793" gradientUnits="userSpaceOnUse">
<stop stop-color="#46A29F"/>
<stop offset="1" stop-color="#4660A2"/>
</linearGradient>
<linearGradient id="paint4_linear" x1="9.22814" y1="5.84334" x2="10.9617" y2="-1.83424" gradientUnits="userSpaceOnUse">
<stop stop-color="#46A29F"/>
<stop offset="1" stop-color="#4660A2"/>
</linearGradient>
<linearGradient id="paint5_linear" x1="24.5068" y1="11.5706" x2="92.6269" y2="-13.4112" gradientUnits="userSpaceOnUse">
<stop stop-color="#46A29F"/>
<stop offset="1" stop-color="#4660A2"/>
</linearGradient>
<linearGradient id="paint6_linear" x1="28.7453" y1="29.9306" x2="32.5138" y2="28.8116" gradientUnits="userSpaceOnUse">
<stop stop-color="#46A29F"/>
<stop offset="1" stop-color="#4660A2"/>
</linearGradient>
<linearGradient id="paint7_linear" x1="28.7614" y1="29.2692" x2="32.4976" y2="28.1598" gradientUnits="userSpaceOnUse">
<stop stop-color="#46A29F"/>
<stop offset="1" stop-color="#4660A2"/>
</linearGradient>
<linearGradient id="paint8_linear" x1="24.2157" y1="35.2316" x2="-25.3239" y2="22.9896" gradientUnits="userSpaceOnUse">
<stop stop-color="#46A29F"/>
<stop offset="1" stop-color="#4660A2"/>
</linearGradient>
<linearGradient id="paint9_linear" x1="18.9907" y1="53.7693" x2="15.2223" y2="52.6504" gradientUnits="userSpaceOnUse">
<stop stop-color="#46A29F"/>
<stop offset="1" stop-color="#4660A2"/>
</linearGradient>
<linearGradient id="paint10_linear" x1="18.9746" y1="53.1079" x2="15.2384" y2="51.9986" gradientUnits="userSpaceOnUse">
<stop stop-color="#46A29F"/>
<stop offset="1" stop-color="#4660A2"/>
</linearGradient>
<linearGradient id="paint11_linear" x1="-2.0977" y1="2.78665" x2="26.5658" y2="-5.72395" gradientUnits="userSpaceOnUse">
<stop stop-color="#46A29F"/>
<stop offset="1" stop-color="#4660A2"/>
</linearGradient>
<linearGradient id="paint12_linear" x1="12.4129" y1="26.7406" x2="41.0764" y2="18.23" gradientUnits="userSpaceOnUse">
<stop stop-color="#46A29F"/>
<stop offset="1" stop-color="#4660A2"/>
</linearGradient>
<linearGradient id="paint13_linear" x1="25.7718" y1="2.78665" x2="54.4353" y2="-5.72395" gradientUnits="userSpaceOnUse">
<stop stop-color="#46A29F"/>
<stop offset="1" stop-color="#4660A2"/>
</linearGradient>
<linearGradient id="paint14_linear" x1="18.862" y1="50.5793" x2="47.5255" y2="42.0687" gradientUnits="userSpaceOnUse">
<stop stop-color="#46A29F"/>
<stop offset="1" stop-color="#4660A2"/>
</linearGradient>
<linearGradient id="paint15_linear" x1="43.6592" y1="53.1111" x2="47.4293" y2="51.9911" gradientUnits="userSpaceOnUse">
<stop stop-color="#46A29F"/>
<stop offset="1" stop-color="#4660A2"/>
</linearGradient>
<linearGradient id="paint16_linear" x1="43.6618" y1="53.7799" x2="47.3978" y2="52.6706" gradientUnits="userSpaceOnUse">
<stop stop-color="#46A29F"/>
<stop offset="1" stop-color="#4660A2"/>
</linearGradient>
<linearGradient id="paint17_linear" x1="30.5009" y1="53.636" x2="32.373" y2="46.0277" gradientUnits="userSpaceOnUse">
<stop stop-color="#46A29F"/>
<stop offset="1" stop-color="#4660A2"/>
</linearGradient>
<linearGradient id="paint18_linear" x1="45.695" y1="50.5793" x2="74.3585" y2="42.0687" gradientUnits="userSpaceOnUse">
<stop stop-color="#46A29F"/>
<stop offset="1" stop-color="#4660A2"/>
</linearGradient>
</defs>
</svg>
