<svg width="60" height="60" viewBox="0 0 60 60" fill="none" xmlns="http://www.w3.org/2000/svg">
<path d="M54.9999 30.3204C54.9999 36.1871 44.5984 39.5959 42.9474 45.811C41.2964 52.026 38.138 54.9999 30.3996 54.9999C24.0937 54.9999 26.7675 50.5278 13.9883 48.7058C1.20921 46.8838 4.64695 39.3905 8.61374 32.5202C13.1254 23.9756 15.218 19.7252 18.4727 14.0882C21.7274 8.4512 23.0081 5.64086 30.3996 5.64086C36.5946 5.64086 44.7637 2.08353 46.5798 11.7298C48.3959 21.3761 54.9999 22.9052 54.9999 30.3204Z" fill="url(#paint0_linear)"/>
<path d="M54.9999 30.3204C54.9999 36.1871 44.5984 39.5959 42.9474 45.811C41.2964 52.026 38.138 54.9999 30.3996 54.9999C24.0937 54.9999 26.7675 50.5278 13.9883 48.7058C1.20921 46.8838 4.64695 39.3905 8.61374 32.5202C13.1254 23.9756 15.218 19.7252 18.4727 14.0882C21.7274 8.4512 23.0081 5.64086 30.3996 5.64086C36.5946 5.64086 44.7637 2.08353 46.5798 11.7298C48.3959 21.3761 54.9999 22.9052 54.9999 30.3204Z" fill="url(#paint1_linear)"/>
<g clip-path="url(#clip0)">
<path d="M13.5947 37.9685H11.7198C10.1633 37.9685 8.90721 39.2247 8.90721 40.7811C8.90721 42.3374 10.1633 43.5935 11.7198 43.5935H13.5947H19.2196H41.1107V41.7185V39.8436V37.9685H13.5947Z" fill="white"/>
<path d="M40.7822 0.468628H13.5947H11.7198C10.1633 0.468628 8.90721 1.72474 8.90721 3.28117V40.7811C8.90721 39.2246 10.1633 37.9685 11.7198 37.9685H13.5947H41.1108H41.7195V1.40614C41.7195 0.890732 41.2976 0.468628 40.7822 0.468628Z" fill="#DEEEEE"/>
<path d="M10.7822 3.28129C10.7822 1.72486 12.0384 0.46875 13.5947 0.46875H11.7198C10.1633 0.46875 8.90721 1.72486 8.90721 3.28129V40.7812C8.90721 39.5553 9.69094 38.5272 10.7822 38.1408V3.28129Z" fill="#F0F4F4"/>
<path d="M19.2198 43.5936V48.2811L16.4073 47.3436L13.5947 48.2811V43.5936V41.7186H19.2198V43.5936Z" fill="#F0F4F4"/>
<path d="M49.6865 18.7499C48.9093 18.7499 48.2804 19.3799 48.2804 20.1562V29.5312H46.4054V16.8749C46.4054 16.0985 45.7765 15.4686 44.9992 15.4686C44.2219 15.4686 43.5928 16.0986 43.5928 16.8749V29.5311H41.7178V14.9999C41.7178 14.2235 41.0889 13.5936 40.3116 13.5936C39.5343 13.5936 38.9055 14.2235 38.9055 14.9999V29.5311H37.0304V16.8749C37.0304 16.0985 36.4016 15.4686 35.6243 15.4686C34.847 15.4686 34.2179 16.0986 34.2179 16.8749V29.5311V33.9201L31.9539 30.9355C31.4603 30.0804 30.3691 29.7875 29.5122 30.2799C28.658 30.7743 28.3641 31.8675 28.8584 32.7226L35.6243 43.5596L35.6233 43.555C36.44 44.7836 37.5769 45.7752 38.9055 46.4382V50.1561H47.3429V45.9098C49.6032 44.3955 51.0927 41.8193 51.0927 38.895V29.531V20.156C51.0927 19.3798 50.4638 18.7499 49.6865 18.7499Z" fill="#F0F4F4"/>
<path d="M35.1552 35.157V29.5311V16.8749C35.1552 16.2633 35.5482 15.7488 36.0928 15.5547C35.9453 15.5033 35.7896 15.4686 35.6241 15.4686C34.8468 15.4686 34.2177 16.0986 34.2177 16.8749V29.5311V33.9201L35.1552 35.157Z" fill="white"/>
<path d="M36.5606 43.5551L36.5616 43.5597L29.7959 32.7227C29.3016 31.8676 29.5955 30.7744 30.4498 30.28C30.5899 30.1995 30.7366 30.1483 30.8855 30.1079C30.4397 29.9834 29.9462 30.031 29.5123 30.28C28.6581 30.7744 28.3642 31.8676 28.8585 32.7227L35.6244 43.5597L35.6235 43.5551C36.4401 44.7837 37.577 45.7753 38.9056 46.4382V49.2187H39.8431V46.4382C38.5144 45.7753 37.3775 44.7837 36.5606 43.5551Z" fill="white"/>
<path d="M48.281 50.1556H37.9685V53.9055H48.281V50.1556Z" fill="white"/>
<path d="M49.218 53.9055H37.0308V59.5305H49.218V53.9055Z" fill="#DEEEEE"/>
<path d="M47.3425 49.2191H38.9051V50.1566H47.3425V49.2191Z" fill="#94C1FF"/>
<path d="M38.9058 53.9055H37.0308V59.5305H38.9058V53.9055Z" fill="#F0F4F4"/>
<path d="M41.7178 29.9999C41.4588 29.9999 41.2491 29.7902 41.2491 29.5311V14.9999C41.2491 14.7408 41.4588 14.5311 41.7178 14.5311C41.9769 14.5311 42.1866 14.7408 42.1866 14.9999V29.5311C42.1866 29.7902 41.9769 29.9999 41.7178 29.9999Z" fill="#46A29F"/>
<path d="M38.9055 29.9999C38.6463 29.9999 38.4366 29.7902 38.4366 29.5311V14.9999C38.4366 14.7408 38.6463 14.5311 38.9055 14.5311C39.1644 14.5311 39.3741 14.7408 39.3741 14.9999V29.5311C39.3741 29.7902 39.1644 29.9999 38.9055 29.9999Z" fill="#46A29F"/>
<path d="M41.7178 15.4686C41.4588 15.4686 41.2491 15.2589 41.2491 14.9999C41.2491 14.4831 40.8288 14.0624 40.3116 14.0624C39.7944 14.0624 39.3741 14.4831 39.3741 14.9999C39.3741 15.2589 39.1644 15.4686 38.9055 15.4686C38.6463 15.4686 38.4366 15.2589 38.4366 14.9999C38.4366 13.9658 39.278 13.1248 40.3116 13.1248C41.3452 13.1248 42.1866 13.9658 42.1866 14.9999C42.1866 15.2591 41.9769 15.4686 41.7178 15.4686Z" fill="#46A29F"/>
<path d="M38.9338 52.4997C38.6746 52.4997 38.4594 52.2902 38.4594 52.031C38.4594 51.7719 38.6645 51.5623 38.9246 51.5623H38.9338C39.1918 51.5623 39.4024 51.7719 39.4024 52.031C39.4024 52.2902 39.1918 52.4997 38.9338 52.4997Z" fill="#46A29F"/>
<path d="M35.7183 43.8757C35.5646 43.8757 35.4135 43.7997 35.3239 43.6595L28.4638 32.9754C28.1507 32.4343 28.0706 31.8264 28.2267 31.2441C28.3829 30.6617 28.756 30.1757 29.2777 29.874C30.3553 29.2511 31.7386 29.6236 32.3602 30.7003L34.5915 33.6365C34.7481 33.8434 34.7078 34.1371 34.5009 34.2937C34.2939 34.4494 34.0008 34.4091 33.8445 34.2039L31.5803 31.2174C31.1849 30.5391 30.3764 30.3248 29.746 30.686C29.4416 30.8623 29.2237 31.1461 29.1323 31.4866C29.0412 31.8272 29.0878 32.1825 29.2641 32.4863L36.1132 43.1541C36.2533 43.372 36.1892 43.6613 35.9713 43.8013C35.8932 43.8519 35.8053 43.8757 35.7183 43.8757Z" fill="#46A29F"/>
<path d="M37.0304 29.9999C36.7713 29.9999 36.5616 29.7902 36.5616 29.5311V16.8749C36.5616 16.6158 36.7713 16.4061 37.0304 16.4061C37.2896 16.4061 37.4991 16.6158 37.4991 16.8749V29.5311C37.4991 29.7902 37.2896 29.9999 37.0304 29.9999Z" fill="#46A29F"/>
<path d="M34.2178 31.8749C33.9588 31.8749 33.7491 31.6652 33.7491 31.4061V16.8749C33.7491 16.6158 33.9588 16.4061 34.2178 16.4061C34.4769 16.4061 34.6866 16.6158 34.6866 16.8749V31.4061C34.6866 31.6652 34.4769 31.8749 34.2178 31.8749Z" fill="#46A29F"/>
<path d="M47.3438 46.4667C47.1946 46.4667 47.0471 46.3953 46.9573 46.2625C46.8108 46.0491 46.8658 45.757 47.0791 45.6106C49.2993 44.0944 50.624 41.5832 50.624 38.8942C50.624 38.6352 50.8337 38.4255 51.0927 38.4255C51.3518 38.4255 51.5615 38.6352 51.5615 38.8942C51.5615 41.8926 50.0831 44.6941 47.6083 46.3841C47.5269 46.4401 47.4353 46.4667 47.3438 46.4667Z" fill="#46A29F"/>
<path d="M38.9081 47.0717C38.833 47.0717 38.758 47.0543 38.6883 47.0176C37.2382 46.2468 36.068 45.075 35.3036 43.6265C35.1828 43.3976 35.2707 43.1138 35.4996 42.9931C35.7302 42.8722 36.0113 42.9601 36.1331 43.1889C36.8087 44.4707 37.8442 45.507 39.1277 46.1882C39.3566 46.3109 39.4436 46.5938 39.3218 46.8226C39.2376 46.981 39.0757 47.0717 38.9081 47.0717Z" fill="#46A29F"/>
<path d="M37.0304 17.3437C36.7712 17.3437 36.5615 17.134 36.5615 16.8749C36.5615 16.3581 36.1414 15.9374 35.6243 15.9374C35.1069 15.9374 34.6867 16.3581 34.6867 16.8749C34.6867 17.134 34.477 17.3437 34.2179 17.3437C33.9589 17.3437 33.7492 17.134 33.7492 16.8749C33.7492 15.8408 34.5906 14.9999 35.6243 14.9999C36.6577 14.9999 37.4991 15.8408 37.4991 16.8749C37.4991 17.134 37.2896 17.3437 37.0304 17.3437Z" fill="#46A29F"/>
<path d="M46.4053 29.9999C46.1462 29.9999 45.9367 29.7902 45.9367 29.5311V16.8749C45.9367 16.6158 46.1462 16.4061 46.4053 16.4061C46.6645 16.4061 46.874 16.6158 46.874 16.8749V29.5311C46.874 29.7902 46.6645 29.9999 46.4053 29.9999Z" fill="#46A29F"/>
<path d="M43.5928 29.9999C43.3339 29.9999 43.1242 29.7902 43.1242 29.5311V16.8749C43.1242 16.6158 43.3339 16.4061 43.5928 16.4061C43.852 16.4061 44.0617 16.6158 44.0617 16.8749V29.5311C44.0617 29.7902 43.852 29.9999 43.5928 29.9999Z" fill="#46A29F"/>
<path d="M46.4053 17.3437C46.1462 17.3437 45.9367 17.134 45.9367 16.8749C45.9367 16.3581 45.5164 15.9374 44.9992 15.9374C44.4818 15.9374 44.0617 16.3581 44.0617 16.8749C44.0617 17.134 43.852 17.3437 43.5928 17.3437C43.3339 17.3437 43.1242 17.134 43.1242 16.8749C43.1242 15.8408 43.9656 14.9999 44.9992 14.9999C46.0326 14.9999 46.874 15.8408 46.874 16.8749C46.874 17.134 46.6645 17.3437 46.4053 17.3437Z" fill="#46A29F"/>
<path d="M51.0927 39.363C50.8338 39.363 50.6241 39.1533 50.6241 38.8942V20.1561C50.6241 19.897 50.8338 19.6873 51.0927 19.6873C51.3519 19.6873 51.5616 19.897 51.5616 20.1561V38.8941C51.5616 39.1533 51.3519 39.363 51.0927 39.363Z" fill="#46A29F"/>
<path d="M48.2804 29.9999C48.0212 29.9999 47.8115 29.7902 47.8115 29.5311V20.1561C47.8115 19.897 48.0212 19.6873 48.2804 19.6873C48.5393 19.6873 48.749 19.897 48.749 20.1561V29.5311C48.749 29.7902 48.5393 29.9999 48.2804 29.9999Z" fill="#46A29F"/>
<path d="M51.0927 20.6248C50.8338 20.6248 50.6241 20.4151 50.6241 20.1561C50.6241 19.6392 50.2037 19.2186 49.6865 19.2186C49.1694 19.2186 48.749 19.6392 48.749 20.1561C48.749 20.4151 48.5393 20.6248 48.2804 20.6248C48.0212 20.6248 47.8115 20.4151 47.8115 20.1561C47.8115 19.122 48.6529 18.281 49.6865 18.281C50.7202 18.281 51.5616 19.122 51.5616 20.1561C51.5616 20.4152 51.3519 20.6248 51.0927 20.6248Z" fill="#46A29F"/>
<path d="M38.9055 49.6873C38.6463 49.6873 38.4366 49.4776 38.4366 49.2185V46.6011C38.4366 46.342 38.6463 46.1323 38.9055 46.1323C39.1644 46.1323 39.3741 46.342 39.3741 46.6011V49.2185C39.3741 49.4776 39.1644 49.6873 38.9055 49.6873Z" fill="#46A29F"/>
<path d="M47.3429 49.6874C47.0837 49.6874 46.874 49.4777 46.874 49.2186V45.9977C46.874 45.7386 47.0837 45.529 47.3429 45.529C47.602 45.529 47.8115 45.7386 47.8115 45.9977V49.2186C47.8115 49.4777 47.602 49.6874 47.3429 49.6874Z" fill="#46A29F"/>
<path d="M49.2179 54.3748H37.0304C36.7713 54.3748 36.5616 54.1651 36.5616 53.906C36.5616 53.6468 36.7713 53.4373 37.0304 53.4373H49.218C49.477 53.4373 49.6867 53.6468 49.6867 53.906C49.6866 54.1651 49.4768 54.3748 49.2179 54.3748Z" fill="#46A29F"/>
<path d="M49.2179 59.9999C48.9587 59.9999 48.749 59.7902 48.749 59.5311V53.9061C48.749 53.647 48.9587 53.4374 49.2179 53.4374C49.4768 53.4374 49.6865 53.647 49.6865 53.9061V59.5311C49.6865 59.7902 49.4768 59.9999 49.2179 59.9999Z" fill="#46A29F"/>
<path d="M37.0304 59.9999C36.7713 59.9999 36.5616 59.7902 36.5616 59.5311V53.9061C36.5616 53.647 36.7713 53.4374 37.0304 53.4374C37.2896 53.4374 37.4991 53.647 37.4991 53.9061V59.5311C37.4991 59.7902 37.2896 59.9999 37.0304 59.9999Z" fill="#46A29F"/>
<path d="M37.968 53.4372C37.7088 53.4372 37.4991 53.2276 37.4991 52.9685V50.156C37.4991 49.8969 37.7088 49.6873 37.968 49.6873C38.2271 49.6873 38.4366 49.8969 38.4366 50.156V52.9685C38.4366 53.2276 38.2271 53.4372 37.968 53.4372Z" fill="#46A29F"/>
<path d="M48.2804 50.6248H37.9678C37.7087 50.6248 37.499 50.4151 37.499 50.156C37.499 49.8969 37.7087 49.6873 37.9678 49.6873H48.2804C48.5393 49.6873 48.749 49.8969 48.749 50.156C48.749 50.4151 48.5393 50.6248 48.2804 50.6248Z" fill="#46A29F"/>
<path d="M48.2804 53.6322C48.0212 53.6322 47.8115 53.4226 47.8115 53.1635V50.156C47.8115 49.8969 48.0212 49.6873 48.2804 49.6873C48.5393 49.6873 48.749 49.8969 48.749 50.156V53.1635C48.749 53.4226 48.5393 53.6322 48.2804 53.6322Z" fill="#46A29F"/>
<path d="M29.9992 38.4373H11.7198C11.4606 38.4373 11.251 38.2277 11.251 37.9685C11.251 37.7094 11.4606 37.4997 11.7198 37.4997H29.9991C30.2581 37.4997 30.468 37.7094 30.468 37.9685C30.468 38.2277 30.2583 38.4373 29.9992 38.4373Z" fill="#46A29F"/>
<path d="M40.7822 0.937393H11.7198C11.4606 0.937393 11.251 0.727806 11.251 0.468635C11.251 0.209582 11.4606 -0.00012207 11.7198 -0.00012207H40.7822C41.0412 -0.00012207 41.2509 0.209582 41.2509 0.468635C41.2509 0.727806 41.0412 0.937393 40.7822 0.937393Z" fill="#46A29F"/>
<path d="M11.7198 44.0624C9.91061 44.0624 8.43846 42.5901 8.43846 40.7812C8.43846 38.972 9.91073 37.4999 11.7198 37.4999C11.9788 37.4999 12.1885 37.7096 12.1885 37.9686C12.1885 38.2278 11.9788 38.4374 11.7198 38.4374C10.4275 38.4374 9.37598 39.4885 9.37598 40.7812C9.37598 42.0739 10.4275 43.1248 11.7198 43.1248C11.9788 43.1248 12.1885 43.3345 12.1885 43.5936C12.1885 43.8528 11.9788 44.0624 11.7198 44.0624Z" fill="#46A29F"/>
<path d="M11.7198 42.1874C10.9442 42.1874 10.3135 41.5566 10.3135 40.7812C10.3135 40.0056 10.9442 39.3749 11.7198 39.3749C11.9788 39.3749 12.1885 39.5846 12.1885 39.8437C12.1885 40.1027 11.9788 40.3124 11.7198 40.3124C11.4611 40.3124 11.251 40.5229 11.251 40.7812C11.251 41.0393 11.4611 41.2499 11.7198 41.2499C11.9788 41.2499 12.1885 41.4595 12.1885 41.7186C12.1885 41.9777 11.9788 42.1874 11.7198 42.1874Z" fill="#46A29F"/>
<path d="M8.90722 3.74994C8.64817 3.74994 8.43846 3.54023 8.43846 3.28118C8.43846 1.47203 9.91073 -0.00012207 11.7198 -0.00012207C11.9788 -0.00012207 12.1885 0.209582 12.1885 0.468635C12.1885 0.727806 11.9788 0.937393 11.7198 0.937393C10.4275 0.937393 9.37598 1.98896 9.37598 3.28118C9.37598 3.54023 9.16639 3.74994 8.90722 3.74994Z" fill="#46A29F"/>
<path d="M8.90722 41.2499C8.64817 41.2499 8.43846 41.0402 8.43846 40.7812V3.2813C8.43846 3.02213 8.64817 2.81255 8.90722 2.81255C9.16627 2.81255 9.37598 3.02213 9.37598 3.2813V40.7812C9.37598 41.0402 9.16639 41.2499 8.90722 41.2499Z" fill="#46A29F"/>
<path d="M41.7195 1.87491C41.4606 1.87491 41.2509 1.6652 41.2509 1.40615C41.2509 1.14757 41.0412 0.937393 40.7823 0.937393C40.5231 0.937393 40.3134 0.727806 40.3134 0.468635C40.3134 0.209582 40.5231 -0.00012207 40.7823 -0.00012207C41.5577 -0.00012207 42.1884 0.630749 42.1884 1.40615C42.1884 1.66532 41.9787 1.87491 41.7195 1.87491Z" fill="#46A29F"/>
<path d="M33.6091 44.0624H21.0948C20.8357 44.0624 20.6261 43.8528 20.6261 43.5936C20.6261 43.3346 20.8357 43.1249 21.0948 43.1249H33.6091C33.8692 43.1249 34.0777 43.3346 34.0777 43.5936C34.0777 43.8528 33.8692 44.0624 33.6091 44.0624Z" fill="#46A29F"/>
<path d="M41.7195 12.5097C41.4605 12.5097 41.2508 12.3 41.2508 12.0409V1.40615C41.2508 1.1471 41.4605 0.937393 41.7195 0.937393C41.9786 0.937393 42.1884 1.1471 42.1884 1.40615V12.0409C42.1884 12.3 41.9786 12.5097 41.7195 12.5097Z" fill="#46A29F"/>
<path d="M13.5947 36.5622C13.3356 36.5622 13.1259 36.3527 13.1259 36.0936V2.34367C13.1259 2.08461 13.3356 1.87491 13.5947 1.87491C13.8538 1.87491 14.0634 2.08461 14.0634 2.34367V36.0936C14.0634 36.3527 13.8538 36.5622 13.5947 36.5622Z" fill="#46A29F"/>
<path d="M32.4059 42.1875H21.0947C20.8355 42.1875 20.6259 41.9778 20.6259 41.7186C20.6259 41.4596 20.8355 41.25 21.0947 41.25H32.4059C32.6642 41.25 32.8748 41.4596 32.8748 41.7186C32.8748 41.9778 32.6643 42.1875 32.4059 42.1875Z" fill="#46A29F"/>
<path d="M31.2022 40.3124H11.7198C11.4606 40.3124 11.251 40.1027 11.251 39.8436C11.251 39.5846 11.4606 39.3749 11.7198 39.3749H31.2022C31.4612 39.3749 31.6709 39.5846 31.6709 39.8436C31.6709 40.1027 31.4612 40.3124 31.2022 40.3124Z" fill="#46A29F"/>
<path d="M13.5947 48.7498C13.3356 48.7498 13.1259 48.5401 13.1259 48.2811V41.7186C13.1259 41.4596 13.3356 41.25 13.5947 41.25C13.8538 41.25 14.0634 41.4596 14.0634 41.7186V48.2811C14.0634 48.5401 13.8538 48.7498 13.5947 48.7498Z" fill="#46A29F"/>
<path d="M19.2198 48.7498C18.9607 48.7498 18.751 48.5401 18.751 48.2811V41.7186C18.751 41.4596 18.9607 41.25 19.2198 41.25C19.4788 41.25 19.6885 41.4596 19.6885 41.7186V48.2811C19.6885 48.5401 19.4788 48.7498 19.2198 48.7498Z" fill="#46A29F"/>
<path d="M13.5947 48.7498C13.3983 48.7498 13.2157 48.6253 13.1502 48.4294C13.0682 48.184 13.201 47.9186 13.4464 47.8361L16.2589 46.8986C16.5057 46.8171 16.7698 46.9499 16.8517 47.1952C16.9336 47.4406 16.8009 47.706 16.5555 47.7885L13.7431 48.726C13.6936 48.7425 13.6437 48.7498 13.5947 48.7498Z" fill="#46A29F"/>
<path d="M19.2197 48.7498C19.1707 48.7498 19.1208 48.7425 19.0715 48.726L16.2589 47.7885C16.0136 47.7061 15.8808 47.4406 15.9628 47.1952C16.0448 46.9498 16.3084 46.817 16.5556 46.8985L19.3681 47.8361C19.6135 47.9185 19.7463 48.184 19.6642 48.4294C19.5987 48.6253 19.4161 48.7498 19.2197 48.7498Z" fill="#46A29F"/>
<path d="M16.4073 45.9374C16.1481 45.9374 15.9386 45.7277 15.9386 45.4687V41.8358C15.9386 41.5768 16.1481 41.3671 16.4073 41.3671C16.6664 41.3671 16.8761 41.5768 16.8761 41.8358V45.4687C16.8759 45.7277 16.6664 45.9374 16.4073 45.9374Z" fill="#46A29F"/>
</g>
<defs>
<linearGradient id="paint0_linear" x1="4.99992" y1="4.99989" x2="64.9622" y2="24.7425" gradientUnits="userSpaceOnUse">
<stop stop-color="#ECF6F5"/>
<stop offset="1" stop-color="#FBF6F9"/>
</linearGradient>
<linearGradient id="paint1_linear" x1="4.99992" y1="4.99989" x2="64.9622" y2="24.7425" gradientUnits="userSpaceOnUse">
<stop stop-color="#F6F6FB"/>
<stop offset="1" stop-color="#FEF3F9"/>
</linearGradient>
<clipPath id="clip0">
<rect width="60" height="60" fill="white" transform="translate(0 -0.00012207)"/>
</clipPath>
</defs>
</svg>
