<svg width="80" height="80" viewBox="0 0 80 80" fill="none" xmlns="http://www.w3.org/2000/svg">
<path opacity="0.4" d="M80 45.3718C80 52.1772 67.5182 56.1314 65.537 63.3408C63.5558 70.5503 59.7657 74 50.4796 74C42.9125 74 46.121 68.8123 30.7861 66.6988C15.4511 64.5853 19.5764 55.8931 24.3366 47.9235C29.7505 38.0118 32.2617 33.0814 36.1674 26.5425C40.073 20.0035 41.6099 16.7435 50.4796 16.7435C57.9136 16.7435 67.7165 12.617 69.8958 23.8067C72.0752 34.9964 80 36.7701 80 45.3718Z" fill="url(#paint0_linear_14181_2135)"/>
<path d="M28.3749 61.3772C28.2828 61.3336 28.1991 61.2745 28.1264 61.2002C27.9623 61.0339 27.8709 60.8107 27.8734 60.5778L27.9179 53.6978C27.9488 48.8552 30.9096 44.4679 35.3471 42.5904L35.3771 37.8562C30.9623 35.9125 28.0609 31.4968 28.0917 26.6542L28.1362 19.7742C28.1394 19.2898 28.5347 18.899 29.0194 18.9015L51.5673 19.0465C51.8003 19.0491 52.0242 19.1427 52.1867 19.3082C52.3504 19.4733 52.4415 19.6972 52.4397 19.9306L52.3956 26.8097C52.3648 31.6524 49.4047 36.04 44.9676 37.9167L44.9361 42.6502C49.3695 44.6057 52.2539 49.0103 52.2214 53.8522L52.1781 60.7317C52.1767 60.9643 52.0824 61.1878 51.9165 61.3511C51.7506 61.5145 51.5274 61.6059 51.2941 61.6041L28.7451 61.4614C28.6158 61.4614 28.4891 61.4314 28.3749 61.3772ZM36.6346 36.4748C36.9409 36.62 37.1387 36.9305 37.1364 37.2735L37.099 43.1956C37.0969 43.5629 36.8661 43.8898 36.521 44.0149C32.4532 45.4962 29.7013 49.3917 29.6736 53.7091L29.6355 59.7106L50.4277 59.8444L50.4655 53.8437C50.4935 49.5255 47.7889 45.5841 43.7436 44.0624C43.3927 43.9272 43.1734 43.6006 43.1764 43.2357L43.215 37.3131C43.2171 36.9458 43.4479 36.6189 43.7921 36.4934C47.8596 35.0129 50.6115 31.1175 50.6384 26.7997L50.6769 20.7993L29.8847 20.6655L29.8458 26.6666C29.8181 30.984 32.5263 34.9077 36.5677 36.4479C36.5914 36.4553 36.6132 36.4646 36.6346 36.4748Z" fill="url(#paint1_linear_14181_2135)"/>
<path d="M40.5848 48.5539L40.6912 35.2998C43.1372 34.9014 45.0157 32.7945 45.0366 30.2319L34.6718 30.1483C34.6513 32.7101 36.4958 34.8477 38.9348 35.2854L38.8284 48.5395C34.3836 48.9442 30.885 52.6626 30.848 57.22L48.4242 57.3613C48.4612 52.8039 45.0226 49.03 40.5848 48.5539Z" fill="#DEEEEE"/>
<path d="M53.4198 10.317C53.6406 9.84669 53.4387 9.2852 52.9627 9.07715C46.5221 6.2624 39.3747 5.45146 32.4544 6.76249C25.2257 8.13195 18.6132 11.7469 13.5583 17.0928C8.50349 22.4387 5.26393 29.243 4.30084 36.537C3.33775 43.831 4.70023 51.2429 8.19432 57.7176C11.6884 64.1923 17.136 69.3996 23.7615 72.5984C30.3871 75.7972 37.8529 76.8242 45.0961 75.5334C52.3393 74.2426 58.9906 70.6997 64.1033 65.4091C68.9978 60.3442 72.2433 53.9248 73.4258 46.9961C73.5132 46.484 73.1547 46.0071 72.6404 45.9335C72.1261 45.8599 71.6509 46.2175 71.5627 46.7295C70.4368 53.2662 67.3698 59.3216 62.7504 64.1017C57.9129 69.1077 51.6194 72.4599 44.766 73.6813C37.9126 74.9026 30.8485 73.9308 24.5795 70.9042C18.3105 67.8775 13.156 62.9504 9.84997 56.8241C6.5439 50.6978 5.25474 43.6848 6.166 36.7833C7.07726 29.8818 10.1425 23.4436 14.9253 18.3854C19.7082 13.3272 25.9648 9.90673 32.8046 8.61096C39.3359 7.37363 46.0809 8.1339 52.1629 10.7808C52.6392 10.9881 53.1991 10.7872 53.4198 10.317Z" fill="url(#paint2_linear_14181_2135)"/>
<circle cx="57.2499" cy="12.0682" r="1.61364" fill="url(#paint3_linear_14181_2135)"/>
<circle cx="61.5531" cy="15.2954" r="1.61364" fill="url(#paint4_linear_14181_2135)"/>
<circle cx="64.7801" cy="18.5227" r="1.61364" fill="url(#paint5_linear_14181_2135)"/>
<circle cx="68.0077" cy="21.75" r="1.61364" fill="url(#paint6_linear_14181_2135)"/>
<circle cx="70.159" cy="26.0531" r="1.61364" fill="url(#paint7_linear_14181_2135)"/>
<circle cx="72.3104" cy="31.4319" r="1.61364" fill="url(#paint8_linear_14181_2135)"/>
<circle cx="73.3866" cy="36.8107" r="1.61364" fill="url(#paint9_linear_14181_2135)"/>
<circle cx="73.3866" cy="42.1894" r="1.61364" fill="url(#paint10_linear_14181_2135)"/>
<path d="M50.2578 4L53.4851 10.4545" stroke="url(#paint11_linear_14181_2135)" stroke-width="1.5" stroke-linecap="round"/>
<path d="M45.8926 12.0754L52.9811 10.7229" stroke="url(#paint12_linear_14181_2135)" stroke-width="1.5" stroke-linecap="round"/>
<defs>
<linearGradient id="paint0_linear_14181_2135" x1="20" y1="16" x2="91.4644" y2="40.341" gradientUnits="userSpaceOnUse">
<stop stop-color="#ECF6F5"/>
<stop offset="1" stop-color="#EBF0F6"/>
</linearGradient>
<linearGradient id="paint1_linear_14181_2135" x1="21.8357" y1="17.0524" x2="117.711" y2="36.9647" gradientUnits="userSpaceOnUse">
<stop stop-color="#46A29F"/>
<stop offset="1" stop-color="#4660A2"/>
</linearGradient>
<linearGradient id="paint2_linear_14181_2135" x1="-8.01578" y1="22.1136" x2="156.171" y2="-26.6357" gradientUnits="userSpaceOnUse">
<stop stop-color="#46A29F"/>
<stop offset="1" stop-color="#4660A2"/>
</linearGradient>
<linearGradient id="paint3_linear_14181_2135" x1="55.0817" y1="11.1913" x2="62.6595" y2="8.94133" gradientUnits="userSpaceOnUse">
<stop stop-color="#46A29F"/>
<stop offset="1" stop-color="#4660A2"/>
</linearGradient>
<linearGradient id="paint4_linear_14181_2135" x1="59.3849" y1="14.4185" x2="66.9627" y2="12.1685" gradientUnits="userSpaceOnUse">
<stop stop-color="#46A29F"/>
<stop offset="1" stop-color="#4660A2"/>
</linearGradient>
<linearGradient id="paint5_linear_14181_2135" x1="62.6119" y1="17.6458" x2="70.1898" y2="15.3958" gradientUnits="userSpaceOnUse">
<stop stop-color="#46A29F"/>
<stop offset="1" stop-color="#4660A2"/>
</linearGradient>
<linearGradient id="paint6_linear_14181_2135" x1="65.8395" y1="20.8731" x2="73.4173" y2="18.6231" gradientUnits="userSpaceOnUse">
<stop stop-color="#46A29F"/>
<stop offset="1" stop-color="#4660A2"/>
</linearGradient>
<linearGradient id="paint7_linear_14181_2135" x1="67.9908" y1="25.1762" x2="75.5687" y2="22.9262" gradientUnits="userSpaceOnUse">
<stop stop-color="#46A29F"/>
<stop offset="1" stop-color="#4660A2"/>
</linearGradient>
<linearGradient id="paint8_linear_14181_2135" x1="70.1422" y1="30.555" x2="77.72" y2="28.305" gradientUnits="userSpaceOnUse">
<stop stop-color="#46A29F"/>
<stop offset="1" stop-color="#4660A2"/>
</linearGradient>
<linearGradient id="paint9_linear_14181_2135" x1="71.2184" y1="35.9337" x2="78.7962" y2="33.6838" gradientUnits="userSpaceOnUse">
<stop stop-color="#46A29F"/>
<stop offset="1" stop-color="#4660A2"/>
</linearGradient>
<linearGradient id="paint10_linear_14181_2135" x1="71.2184" y1="41.3125" x2="78.7962" y2="39.0626" gradientUnits="userSpaceOnUse">
<stop stop-color="#46A29F"/>
<stop offset="1" stop-color="#4660A2"/>
</linearGradient>
<linearGradient id="paint11_linear_14181_2135" x1="49.4991" y1="2.99294" x2="57.2942" y2="2.78255" gradientUnits="userSpaceOnUse">
<stop stop-color="#46A29F"/>
<stop offset="1" stop-color="#4660A2"/>
</linearGradient>
<linearGradient id="paint12_linear_14181_2135" x1="44.7173" y1="12.5321" x2="46.6323" y2="4.97297" gradientUnits="userSpaceOnUse">
<stop stop-color="#46A29F"/>
<stop offset="1" stop-color="#4660A2"/>
</linearGradient>
</defs>
</svg>
