<svg width="60" height="60" viewBox="0 0 60 60" fill="none" xmlns="http://www.w3.org/2000/svg">
<g clip-path="url(#clip0_13858_2268)">
<mask id="path-1-inside-1_13858_2268" fill="white">
<path d="M6.56133 23.4375C6.74883 23.4375 6.93164 23.4375 7.11445 23.4094L7.49883 25.4906C7.54607 25.7393 7.69015 25.959 7.89937 26.1014C8.10859 26.2438 8.36581 26.2972 8.61445 26.25C8.86309 26.2028 9.08278 26.0587 9.22519 25.8495C9.3676 25.6402 9.42107 25.383 9.37383 25.1344L8.94258 22.9688C10.4916 22.3652 11.7539 21.1961 12.4743 19.6979C13.1947 18.1996 13.3196 16.4837 12.8238 14.8969L25.4098 8.86875C25.7002 9.27946 26.0439 9.64987 26.4316 9.97031L16.1191 24.7781C15.9925 24.9822 15.949 25.2271 15.9976 25.4624C16.0463 25.6976 16.1834 25.9052 16.3806 26.0423C16.5778 26.1794 16.8202 26.2356 17.0576 26.1992C17.295 26.1628 17.5095 26.0367 17.6566 25.8469L28.0723 10.9031C28.3927 11.0224 28.7239 11.1103 29.0613 11.1656V19.2188C29.0613 19.4674 29.1601 19.7058 29.3359 19.8817C29.5117 20.0575 29.7502 20.1562 29.9988 20.1562C30.2475 20.1562 30.4859 20.0575 30.6617 19.8817C30.8376 19.7058 30.9363 19.4674 30.9363 19.2188V11.1656C31.2737 11.1103 31.605 11.0224 31.9254 10.9031L42.3551 25.8469C42.4222 25.955 42.5105 26.0483 42.6148 26.1211C42.7191 26.194 42.8372 26.2448 42.9618 26.2706C43.0863 26.2963 43.2149 26.2965 43.3395 26.271C43.4641 26.2455 43.5823 26.1949 43.6867 26.1223C43.7912 26.0497 43.8798 25.9566 43.9471 25.8486C44.0144 25.7407 44.0591 25.6202 44.0783 25.4944C44.0976 25.3687 44.091 25.2403 44.0591 25.1172C44.0272 24.994 43.9705 24.8787 43.8926 24.7781L33.5801 9.97031C33.9679 9.64987 34.3115 9.27946 34.602 8.86875L47.1879 14.9109C46.6953 16.4941 46.8203 18.2051 47.5377 19.6999C48.2551 21.1948 49.5118 22.3626 51.0551 22.9688L50.6238 25.1344C50.5921 25.2582 50.5861 25.3871 50.606 25.5133C50.626 25.6396 50.6715 25.7604 50.7399 25.8683C50.8082 25.9763 50.8979 26.0692 51.0034 26.1412C51.109 26.2133 51.2281 26.263 51.3536 26.2873C51.479 26.3116 51.6081 26.3101 51.7329 26.2827C51.8578 26.2553 51.9757 26.2027 52.0794 26.1281C52.1831 26.0534 52.2705 25.9584 52.3362 25.8488C52.4019 25.7392 52.4445 25.6173 52.4613 25.4906L52.8645 23.4094C53.0473 23.4094 53.2301 23.4375 53.4176 23.4375C54.5509 23.438 55.6651 23.1449 56.6515 22.5869C57.638 22.0289 58.4631 21.2249 59.0465 20.2532C59.6299 19.2816 59.9518 18.1754 59.9807 17.0424C60.0096 15.9094 59.7446 14.7883 59.2115 13.7881C58.6784 12.788 57.8954 11.943 56.9387 11.3354C55.982 10.7277 54.8842 10.3782 53.7523 10.3209C52.6204 10.2636 51.493 10.5003 50.4798 11.0082C49.4666 11.516 48.6021 12.2776 47.9707 13.2188L35.3988 7.17656C35.5479 6.67286 35.6237 6.15031 35.6238 5.625C35.6238 4.13316 35.0312 2.70242 33.9763 1.64752C32.9214 0.592632 31.4907 0 29.9988 0C28.507 0 27.0762 0.592632 26.0214 1.64752C24.9665 2.70242 24.3738 4.13316 24.3738 5.625C24.3739 6.15031 24.4497 6.67286 24.5988 7.17656L12.0082 13.2188C11.3768 12.2776 10.5124 11.516 9.49915 11.0082C8.48595 10.5003 7.3585 10.2636 6.2266 10.3209C5.09471 10.3782 3.99695 10.7277 3.04025 11.3354C2.08355 11.943 1.30052 12.788 0.767418 13.7881C0.234316 14.7883 -0.0306829 15.9094 -0.00176999 17.0424C0.0271429 18.1754 0.348982 19.2816 0.932402 20.2532C1.51582 21.2249 2.34094 22.0289 3.32738 22.5869C4.31383 23.1449 5.42798 23.438 6.56133 23.4375ZM53.4363 12.1875C54.3634 12.1875 55.2697 12.4624 56.0406 12.9775C56.8114 13.4926 57.4122 14.2246 57.767 15.0812C58.1218 15.9377 58.2146 16.8802 58.0338 17.7895C57.8529 18.6988 57.4065 19.534 56.7509 20.1896C56.0953 20.8451 55.2601 21.2916 54.3508 21.4724C53.4415 21.6533 52.499 21.5605 51.6425 21.2057C50.786 20.8509 50.0539 20.2501 49.5388 19.4792C49.0237 18.7084 48.7488 17.8021 48.7488 16.875C48.7488 15.6318 49.2427 14.4395 50.1218 13.5604C51.0008 12.6814 52.1931 12.1875 53.4363 12.1875ZM29.9988 1.875C30.7405 1.875 31.4655 2.09493 32.0822 2.50699C32.6989 2.91904 33.1796 3.50471 33.4634 4.18994C33.7472 4.87516 33.8215 5.62916 33.6768 6.35659C33.5321 7.08402 33.1749 7.7522 32.6505 8.27665C32.126 8.8011 31.4578 9.15825 30.7304 9.30295C30.003 9.44764 29.249 9.37338 28.5638 9.08955C27.8785 8.80572 27.2929 8.32507 26.8808 7.70839C26.4688 7.0917 26.2488 6.36668 26.2488 5.625C26.2488 4.63044 26.6439 3.67661 27.3472 2.97335C28.0504 2.27009 29.0043 1.875 29.9988 1.875ZM6.56133 12.1875C7.48843 12.1875 8.39471 12.4624 9.16556 12.9775C9.93642 13.4926 10.5372 14.2246 10.892 15.0812C11.2468 15.9377 11.3396 16.8802 11.1588 17.7895C10.9779 18.6988 10.5314 19.534 9.87589 20.1896C9.22033 20.8451 8.3851 21.2916 7.47581 21.4724C6.56653 21.6533 5.62403 21.5605 4.7675 21.2057C3.91097 20.8509 3.17888 20.2501 2.66381 19.4792C2.14875 18.7084 1.87383 17.8021 1.87383 16.875C1.87383 15.6318 2.36769 14.4395 3.24677 13.5604C4.12584 12.6814 5.31813 12.1875 6.56133 12.1875Z"/>
</mask>
<path d="M6.56133 23.4375C6.74883 23.4375 6.93164 23.4375 7.11445 23.4094L7.49883 25.4906C7.54607 25.7393 7.69015 25.959 7.89937 26.1014C8.10859 26.2438 8.36581 26.2972 8.61445 26.25C8.86309 26.2028 9.08278 26.0587 9.22519 25.8495C9.3676 25.6402 9.42107 25.383 9.37383 25.1344L8.94258 22.9688C10.4916 22.3652 11.7539 21.1961 12.4743 19.6979C13.1947 18.1996 13.3196 16.4837 12.8238 14.8969L25.4098 8.86875C25.7002 9.27946 26.0439 9.64987 26.4316 9.97031L16.1191 24.7781C15.9925 24.9822 15.949 25.2271 15.9976 25.4624C16.0463 25.6976 16.1834 25.9052 16.3806 26.0423C16.5778 26.1794 16.8202 26.2356 17.0576 26.1992C17.295 26.1628 17.5095 26.0367 17.6566 25.8469L28.0723 10.9031C28.3927 11.0224 28.7239 11.1103 29.0613 11.1656V19.2188C29.0613 19.4674 29.1601 19.7058 29.3359 19.8817C29.5117 20.0575 29.7502 20.1562 29.9988 20.1562C30.2475 20.1562 30.4859 20.0575 30.6617 19.8817C30.8376 19.7058 30.9363 19.4674 30.9363 19.2188V11.1656C31.2737 11.1103 31.605 11.0224 31.9254 10.9031L42.3551 25.8469C42.4222 25.955 42.5105 26.0483 42.6148 26.1211C42.7191 26.194 42.8372 26.2448 42.9618 26.2706C43.0863 26.2963 43.2149 26.2965 43.3395 26.271C43.4641 26.2455 43.5823 26.1949 43.6867 26.1223C43.7912 26.0497 43.8798 25.9566 43.9471 25.8486C44.0144 25.7407 44.0591 25.6202 44.0783 25.4944C44.0976 25.3687 44.091 25.2403 44.0591 25.1172C44.0272 24.994 43.9705 24.8787 43.8926 24.7781L33.5801 9.97031C33.9679 9.64987 34.3115 9.27946 34.602 8.86875L47.1879 14.9109C46.6953 16.4941 46.8203 18.2051 47.5377 19.6999C48.2551 21.1948 49.5118 22.3626 51.0551 22.9688L50.6238 25.1344C50.5921 25.2582 50.5861 25.3871 50.606 25.5133C50.626 25.6396 50.6715 25.7604 50.7399 25.8683C50.8082 25.9763 50.8979 26.0692 51.0034 26.1412C51.109 26.2133 51.2281 26.263 51.3536 26.2873C51.479 26.3116 51.6081 26.3101 51.7329 26.2827C51.8578 26.2553 51.9757 26.2027 52.0794 26.1281C52.1831 26.0534 52.2705 25.9584 52.3362 25.8488C52.4019 25.7392 52.4445 25.6173 52.4613 25.4906L52.8645 23.4094C53.0473 23.4094 53.2301 23.4375 53.4176 23.4375C54.5509 23.438 55.6651 23.1449 56.6515 22.5869C57.638 22.0289 58.4631 21.2249 59.0465 20.2532C59.6299 19.2816 59.9518 18.1754 59.9807 17.0424C60.0096 15.9094 59.7446 14.7883 59.2115 13.7881C58.6784 12.788 57.8954 11.943 56.9387 11.3354C55.982 10.7277 54.8842 10.3782 53.7523 10.3209C52.6204 10.2636 51.493 10.5003 50.4798 11.0082C49.4666 11.516 48.6021 12.2776 47.9707 13.2188L35.3988 7.17656C35.5479 6.67286 35.6237 6.15031 35.6238 5.625C35.6238 4.13316 35.0312 2.70242 33.9763 1.64752C32.9214 0.592632 31.4907 0 29.9988 0C28.507 0 27.0762 0.592632 26.0214 1.64752C24.9665 2.70242 24.3738 4.13316 24.3738 5.625C24.3739 6.15031 24.4497 6.67286 24.5988 7.17656L12.0082 13.2188C11.3768 12.2776 10.5124 11.516 9.49915 11.0082C8.48595 10.5003 7.3585 10.2636 6.2266 10.3209C5.09471 10.3782 3.99695 10.7277 3.04025 11.3354C2.08355 11.943 1.30052 12.788 0.767418 13.7881C0.234316 14.7883 -0.0306829 15.9094 -0.00176999 17.0424C0.0271429 18.1754 0.348982 19.2816 0.932402 20.2532C1.51582 21.2249 2.34094 22.0289 3.32738 22.5869C4.31383 23.1449 5.42798 23.438 6.56133 23.4375ZM53.4363 12.1875C54.3634 12.1875 55.2697 12.4624 56.0406 12.9775C56.8114 13.4926 57.4122 14.2246 57.767 15.0812C58.1218 15.9377 58.2146 16.8802 58.0338 17.7895C57.8529 18.6988 57.4065 19.534 56.7509 20.1896C56.0953 20.8451 55.2601 21.2916 54.3508 21.4724C53.4415 21.6533 52.499 21.5605 51.6425 21.2057C50.786 20.8509 50.0539 20.2501 49.5388 19.4792C49.0237 18.7084 48.7488 17.8021 48.7488 16.875C48.7488 15.6318 49.2427 14.4395 50.1218 13.5604C51.0008 12.6814 52.1931 12.1875 53.4363 12.1875ZM29.9988 1.875C30.7405 1.875 31.4655 2.09493 32.0822 2.50699C32.6989 2.91904 33.1796 3.50471 33.4634 4.18994C33.7472 4.87516 33.8215 5.62916 33.6768 6.35659C33.5321 7.08402 33.1749 7.7522 32.6505 8.27665C32.126 8.8011 31.4578 9.15825 30.7304 9.30295C30.003 9.44764 29.249 9.37338 28.5638 9.08955C27.8785 8.80572 27.2929 8.32507 26.8808 7.70839C26.4688 7.0917 26.2488 6.36668 26.2488 5.625C26.2488 4.63044 26.6439 3.67661 27.3472 2.97335C28.0504 2.27009 29.0043 1.875 29.9988 1.875ZM6.56133 12.1875C7.48843 12.1875 8.39471 12.4624 9.16556 12.9775C9.93642 13.4926 10.5372 14.2246 10.892 15.0812C11.2468 15.9377 11.3396 16.8802 11.1588 17.7895C10.9779 18.6988 10.5314 19.534 9.87589 20.1896C9.22033 20.8451 8.3851 21.2916 7.47581 21.4724C6.56653 21.6533 5.62403 21.5605 4.7675 21.2057C3.91097 20.8509 3.17888 20.2501 2.66381 19.4792C2.14875 18.7084 1.87383 17.8021 1.87383 16.875C1.87383 15.6318 2.36769 14.4395 3.24677 13.5604C4.12584 12.6814 5.31813 12.1875 6.56133 12.1875Z" fill="url(#paint0_linear_13858_2268)" stroke="white" mask="url(#path-1-inside-1_13858_2268)"/>
<path d="M51.3663 44.3454L51.7505 44.0702C52.4948 43.537 53.0994 42.8319 53.5129 42.015C53.9264 41.1981 54.1367 40.2935 54.1258 39.378L54.1258 39.375H54.1258V31.4062V31.4007L54.1258 31.4007C54.1347 31.0009 54.0625 30.6035 53.9136 30.2324C53.7646 29.8613 53.5421 29.5242 53.2593 29.2414C52.9766 28.9587 52.6395 28.7361 52.2684 28.5872C51.8973 28.4383 51.4998 28.3661 51.1001 28.3749L51.0945 28.3751V28.375H45.0008H44.9952L44.9953 28.3749C44.5955 28.3661 44.1981 28.4383 43.8269 28.5872C43.4558 28.7361 43.1187 28.9587 42.836 29.2414C42.5532 29.5242 42.3307 29.8613 42.1818 30.2324C42.0328 30.6035 41.9606 31.0009 41.9695 31.4007L41.9696 31.4062H41.9695V39.375V39.3781H41.9695C41.9582 40.2887 42.1661 41.1887 42.5755 42.0021C42.985 42.8156 43.5841 43.5187 44.3222 44.052L44.7131 44.3345L44.257 44.4911C43.6591 44.6965 43.0793 44.9511 42.5235 45.2523C42.3637 45.3399 42.2452 45.4873 42.1939 45.6622C42.1427 45.8372 42.1631 46.0255 42.2506 46.1855L42.0313 46.3055L42.2506 46.1855C42.3381 46.3455 42.4856 46.4642 42.6607 46.5154C42.8356 46.5667 43.0238 46.5463 43.1838 46.4589C43.1838 46.4589 43.1839 46.4588 43.1839 46.4588L43.3039 46.6781C44.7587 45.8793 46.3926 45.4631 48.0524 45.4687L51.3663 44.3454ZM51.3663 44.3454L51.81 44.5081C54.1235 45.3565 56.1231 46.8904 57.542 48.9051C58.9606 50.9194 59.7312 53.3185 59.7508 55.7822L51.3663 44.3454ZM52.5008 34H52.7508V33.75V31.4132C52.7625 31.193 52.7281 30.9727 52.6496 30.7665C52.5702 30.558 52.4477 30.3687 52.2899 30.2109C52.1321 30.0531 51.9428 29.9305 51.7342 29.8512C51.5281 29.7727 51.3078 29.7383 51.0876 29.75H45.0077C44.7875 29.7383 44.5672 29.7727 44.3611 29.8512C44.1526 29.9305 43.9632 30.0531 43.8054 30.2109C43.6477 30.3687 43.5251 30.558 43.4457 30.7665C43.3672 30.9727 43.3328 31.193 43.3445 31.4132V33.75V34H43.5945H52.5008ZM43.5945 35.375H43.3445V35.625V39.375C43.3445 41.9307 45.3917 43.8437 48.0524 43.8437C50.7137 43.8437 52.7508 41.9301 52.7508 39.375V35.625V35.375H52.5008H43.5945Z" fill="url(#paint1_linear_13858_2268)" stroke="white" stroke-width="0.5"/>
<path d="M7.802 44.3585C5.54663 45.2283 3.59852 46.7503 2.20826 48.7332C0.760922 50.7976 -0.0105651 53.2601 0.000109292 55.7812C0.000109292 56.0299 0.0988814 56.2683 0.274697 56.4442C0.450512 56.62 0.688969 56.7187 0.937609 56.7187C1.18625 56.7187 1.42471 56.62 1.60052 56.4442C1.77634 56.2683 1.87511 56.0299 1.87511 55.7812C1.84759 53.0775 2.89373 50.4733 4.784 48.54C6.67427 46.6066 9.25427 45.5021 11.9579 45.4687C13.4818 45.4726 14.9833 45.8356 16.3407 46.5281L7.802 44.3585ZM7.802 44.3585C7.84584 44.392 7.89015 44.425 7.93494 44.4573L8.08136 44.2547L7.99713 44.0193C7.94632 44.0375 7.89565 44.056 7.84513 44.0748C7.18247 43.5435 6.64073 42.8753 6.25781 42.1146C5.83033 41.2653 5.61333 40.3257 5.62511 39.375V31.4062C5.61551 30.9727 5.69382 30.5417 5.85532 30.1393C6.01682 29.7369 6.25816 29.3713 6.56478 29.0647C6.87141 28.758 7.23697 28.5167 7.63941 28.3552C8.04185 28.1937 8.47283 28.1154 8.90636 28.125H15.0001C15.4336 28.1154 15.8646 28.1937 16.2671 28.3552C16.6695 28.5167 17.0351 28.758 17.3417 29.0647C17.6483 29.3713 17.8897 29.7369 18.0512 30.1393C18.2127 30.5417 18.291 30.9727 18.2814 31.4062L7.802 44.3585ZM16.4538 46.3051C15.0615 45.5949 13.5215 45.2227 11.9586 45.2187L11.9548 45.2188C9.18498 45.253 6.5418 46.3845 4.60524 48.3652C2.66899 50.3456 1.59726 53.013 1.62511 55.7825C1.62477 55.9644 1.55238 56.1387 1.42375 56.2674C1.29481 56.3963 1.11995 56.4687 0.937609 56.4687C0.755273 56.4687 0.580405 56.3963 0.451474 56.2674C0.322542 56.1384 0.250109 55.9636 0.250112 55.7812L0.250107 55.7802C0.239652 53.3107 0.995313 50.8988 2.41296 48.8767C3.83061 46.8547 5.84047 45.3221 8.16559 44.4901L8.61259 44.3301L8.22778 44.052C7.48964 43.5187 6.89058 42.8156 6.48112 42.0021C6.07166 41.1887 5.8638 40.2887 5.87509 39.3781H5.87511V39.375V31.4062H5.87517L5.87505 31.4007C5.86619 31.0009 5.93841 30.6035 6.08733 30.2324C6.23626 29.8613 6.45881 29.5242 6.74156 29.2414C7.02431 28.9587 7.36141 28.7361 7.73252 28.5872C8.10362 28.4383 8.50105 28.3661 8.90082 28.3749L8.90082 28.375H8.90636H15.0001V28.3751L15.0056 28.3749C15.4054 28.3661 15.8028 28.4383 16.174 28.5872C16.5451 28.7361 16.8822 28.9587 17.1649 29.2414C17.4477 29.5242 17.6702 29.8613 17.8191 30.2324C17.9681 30.6035 18.0403 31.0009 18.0314 31.4007L18.0314 31.4007V31.4062L18.0313 39.375L18.0314 39.3781C18.0426 40.2914 17.8334 41.1939 17.4214 42.0091C17.0095 42.8243 16.4071 43.5282 15.6652 44.061L15.2791 44.3383L15.7264 44.4993C15.9535 44.581 16.8613 44.9658 17.0737 45.0764L17.0761 45.0777C17.2389 45.1602 17.3622 45.304 17.419 45.4774C17.4757 45.6509 17.4612 45.8398 17.3787 46.0026C17.2962 46.1653 17.1524 46.2887 16.9789 46.3454C16.8055 46.4022 16.6166 46.3877 16.4538 46.3051ZM16.4064 34H16.6564V33.75V31.4132C16.6681 31.193 16.6336 30.9727 16.5552 30.7665L16.3215 30.8555L16.5552 30.7665C16.4758 30.558 16.3532 30.3687 16.1955 30.2109C16.0377 30.0531 15.8483 29.9305 15.6398 29.8512C15.4337 29.7727 15.2134 29.7383 14.9932 29.75H8.91331C8.69309 29.7383 8.47281 29.7727 8.26665 29.8512C8.05813 29.9305 7.86877 30.0531 7.711 30.2109C7.55324 30.3687 7.43065 30.558 7.35128 30.7665C7.27282 30.9727 7.23837 31.193 7.25011 31.4132V33.75V34H7.50011H16.4064ZM7.50011 35.375H7.25011V35.625V39.375C7.25011 41.9307 9.29727 43.8437 11.9579 43.8437C14.6193 43.8437 16.6564 41.9301 16.6564 39.375V35.625V35.375H16.4064H7.50011Z" fill="url(#paint2_linear_13858_2268)" stroke="white" stroke-width="0.5"/>
<path d="M33.8348 44.0446L34.327 43.7536C35.4967 43.062 36.4673 42.0791 37.1441 40.9007C37.8207 39.7225 38.1806 38.3891 38.1886 37.0305V26.25C38.1886 25.1974 37.7705 24.188 37.0262 23.4437C36.2819 22.6994 35.2724 22.2812 34.2198 22.2812H25.7823C24.7298 22.2812 23.7203 22.6994 22.976 23.4437C22.2317 24.188 21.8136 25.1974 21.8136 26.25V37.0289C21.8394 38.3846 22.2124 39.7111 22.8971 40.8816C23.5821 42.0528 24.5562 43.0286 25.7261 43.7157L26.2311 44.0123L25.6676 44.1718C22.4359 45.0868 19.5955 47.0408 17.5856 49.7318C15.5756 52.4228 14.5081 55.701 14.548 59.0595L14.548 59.0625C14.548 59.2448 14.6204 59.4197 14.7493 59.5486C14.8783 59.6776 15.0531 59.75 15.2355 59.75C15.4178 59.75 15.5927 59.6776 15.7216 59.5486C15.8502 59.4201 15.9226 59.2458 15.923 59.064C15.9009 57.2075 16.2495 55.3652 16.9486 53.6451C17.6478 51.9246 18.6835 50.361 19.9949 49.046C21.3064 47.731 22.8672 46.691 24.5858 45.9871C26.3042 45.2834 28.1457 44.9297 30.0026 44.9469C30.0028 44.9469 30.0031 44.9469 30.0034 44.9469L30.0011 45.1969C33.6724 45.2056 37.1902 46.6704 39.7827 49.2699C42.3752 51.8694 43.8305 55.3912 43.8292 59.0625L33.8348 44.0446ZM33.8348 44.0446L34.3826 44.2083C37.5804 45.164 40.3847 47.1254 42.3792 49.8014C44.3737 52.4773 45.4521 55.7252 45.4542 59.0627C45.4542 59.2449 45.3818 59.4197 45.2529 59.5486C45.1239 59.6776 44.9491 59.75 44.7667 59.75C44.5844 59.75 44.4095 59.6776 44.2806 59.5486C44.1517 59.4197 44.0792 59.2449 44.0792 59.0626L33.8348 44.0446ZM36.5636 29.7812H36.8136V29.5312V26.25C36.8136 25.5621 36.5403 24.9024 36.0539 24.4159C35.5675 23.9295 34.9077 23.6562 34.2198 23.6562H25.7823C25.0944 23.6562 24.4347 23.9295 23.9483 24.4159C23.4619 24.9024 23.1886 25.5621 23.1886 26.25V29.5312V29.7812H23.4386H36.5636ZM23.4386 31.1562H23.1886V31.4062V37.0312C23.1886 40.5903 26.4031 43.5719 30.0573 43.5719C33.7172 43.5719 36.8136 40.5849 36.8136 37.0312V31.4062V31.1562H36.5636H23.4386Z" fill="url(#paint3_linear_13858_2268)" stroke="white" stroke-width="0.5"/>
<circle cx="6.5" cy="17.5" r="4.5" fill="#DEEEEE"/>
<circle cx="30" cy="59" r="13" fill="#DEEEEE"/>
<path d="M58 56C58 54.1487 57.5118 52.3338 56.5897 50.7573C55.6677 49.1808 54.348 47.9047 52.7776 47.0711C51.2073 46.2375 49.4479 45.8791 47.6955 46.0359C45.9431 46.1927 44.2664 46.8584 42.8522 47.959L48.5 56H58Z" fill="#DEEEEE"/>
<path d="M17.3748 47.1648C15.7895 46.2086 13.9832 45.6893 12.1571 45.6646C10.3309 45.64 8.55659 46.1109 7.03173 47.0251C5.50687 47.9393 4.29133 49.2607 3.52049 50.8423C2.74965 52.4238 2.45377 54.2034 2.66582 55.9828L13 55.9828L17.3748 47.1648Z" fill="#DEEEEE"/>
<circle cx="30.5" cy="5.5" r="3.5" fill="#DEEEEE"/>
<circle cx="52.5" cy="17.5" r="3.5" fill="#DEEEEE"/>
</g>
<defs>
<linearGradient id="paint0_linear_13858_2268" x1="-10.312" y1="6.00472" x2="94.7774" y2="-65.152" gradientUnits="userSpaceOnUse">
<stop stop-color="#46A29F"/>
<stop offset="1" stop-color="#4660A2"/>
</linearGradient>
<linearGradient id="paint1_linear_13858_2268" x1="38.5772" y1="34.6517" x2="83.6642" y2="26.0927" gradientUnits="userSpaceOnUse">
<stop stop-color="#46A29F"/>
<stop offset="1" stop-color="#4660A2"/>
</linearGradient>
<linearGradient id="paint2_linear_13858_2268" x1="-3.1416" y1="34.6517" x2="41.9457" y2="26.0926" gradientUnits="userSpaceOnUse">
<stop stop-color="#46A29F"/>
<stop offset="1" stop-color="#4660A2"/>
</linearGradient>
<linearGradient id="paint3_linear_13858_2268" x1="8.89984" y1="30.6987" x2="84.5824" y2="12.1107" gradientUnits="userSpaceOnUse">
<stop stop-color="#46A29F"/>
<stop offset="1" stop-color="#4660A2"/>
</linearGradient>
<clipPath id="clip0_13858_2268">
<rect width="60" height="60" fill="white"/>
</clipPath>
</defs>
</svg>
