<svg width="60" height="60" viewBox="0 0 60 60" fill="none" xmlns="http://www.w3.org/2000/svg">
<path d="M56.6663 43.488C57.0468 42.7341 57.3653 42.0366 57.64 41.3558C57.7686 41.0373 57.6145 40.6745 57.2957 40.5459C56.9775 40.4168 56.6144 40.5717 56.4858 40.8902C56.2241 41.5382 55.9196 42.2047 55.5552 42.9276C55.4002 43.2343 55.5236 43.6087 55.8306 43.7638C56.1338 43.9168 56.5102 43.7975 56.6663 43.488Z" fill="url(#paint0_linear_13858_2286)"/>
<path d="M29.9952 0.117554C13.5247 0.117554 0.125 13.5226 0.125 30.0001C0.125 46.4773 13.5247 59.8825 29.9952 59.8825C38.9231 59.8825 47.3123 55.9345 53.0123 49.0508C53.2317 48.7861 53.1946 48.3938 52.9299 48.1746C52.6656 47.9552 52.2732 47.9926 52.0537 48.257C46.5908 54.8542 38.551 58.6376 29.995 58.6376C14.2111 58.6376 1.36965 45.7907 1.36965 30C1.36965 14.2091 14.2111 1.3622 29.995 1.3622C33.1087 1.3622 36.1048 1.86857 38.9136 2.79166C37.5882 3.99154 36.8069 5.5056 36.7489 7.08318C36.6823 8.81099 37.4516 10.3494 38.1952 11.8368C38.7658 13.1039 40.004 15.2226 39.2513 17.0836C38.4893 18.9852 36.025 19.5639 35.5113 19.807C34.3209 20.1885 31.5327 21.0813 29.7229 23.558C29.52 23.8355 29.5804 24.2248 29.8582 24.4275C30.1334 24.6294 30.5237 24.5715 30.7277 24.2923C32.2986 22.1433 34.7251 21.3661 35.8912 20.9926C36.2325 20.8259 39.3832 20.1001 40.4062 17.5486C41.3532 15.2078 40.0048 12.8459 39.3088 11.28C38.6349 9.93306 37.9384 8.53994 37.9927 7.13005C38.0451 5.70037 38.8782 4.31486 40.2784 3.27951C51.0021 7.42103 58.6324 17.8331 58.6324 30.0001C58.6324 32.864 58.2082 35.7028 57.3714 38.4387C57.2709 38.7675 57.4556 39.1156 57.7844 39.2158C58.1138 39.3161 58.4613 39.1319 58.5615 38.8028C59.4347 35.949 59.8772 32.9874 59.8772 30.0001C59.8775 13.5226 46.4723 0.117554 29.9952 0.117554Z" fill="url(#paint1_linear_13858_2286)"/>
<path d="M42.3396 34.8738C42.7482 35.1613 44.5479 35.2894 45.4666 34.3669C46.2316 33.5995 46.3833 32.323 45.9177 30.5724C45.0239 27.2105 42.2612 25.0837 40.239 25.2174C39.1508 25.2862 38.3642 25.9425 37.9861 27.0382C35.7272 26.2669 33.3476 26.059 31.1792 26.4957C30.8424 26.5638 30.6242 26.8921 30.6921 27.2291C30.7598 27.5659 31.0875 27.7822 31.4254 27.7162C34.6538 27.0643 38.2714 28.07 40.9149 29.8847C41.1976 30.0787 41.5857 30.0072 41.7805 29.7235C41.975 29.4399 41.9027 29.0525 41.6194 28.858C40.834 28.319 40.0017 27.8599 39.1424 27.4843C39.3488 26.8434 39.7406 26.496 40.3176 26.4594C41.8332 26.373 44.0096 28.2406 44.7147 30.892C45.0527 32.163 45.0086 33.0595 44.5874 33.4854C44.1616 33.9155 43.3356 33.8596 42.9514 33.7835C40.8631 32.3809 39.0621 33.1056 38.0754 33.953C36.5038 32.2883 35.0737 31.3821 35.0368 31.3592C34.7444 31.1788 34.3618 31.2696 34.1806 31.5616C34.0002 31.8537 34.0904 32.2372 34.3821 32.418C34.528 32.5085 36.006 33.446 37.5235 35.1272C37.6913 35.4504 42.5208 39.9005 40.4267 46.8486C39.5499 49.759 36.8944 50.5938 34.821 50.7819C27.9603 51.405 16.393 45.7901 12.3405 37.8831C11.6436 36.5245 11.0776 36.604 12.0454 32.0175C12.0761 31.8719 12.0536 31.7199 11.9819 31.5895C9.10744 26.3528 8.84306 22.3568 11.1091 18.656C13.7191 14.7923 17.3899 14.3331 19.338 14.3951C22.2352 14.495 24.9164 15.8299 26.0242 17.7403C27.373 19.8456 27.2897 22.4775 26.9986 25.0085C26.8545 26.2646 27.3234 27.541 28.2534 28.4228C29.896 29.9806 31.5981 32.4014 30.3766 35.0889C28.5054 39.2039 19.676 37.1701 19.5873 37.1488C19.2518 37.0692 18.9178 37.2764 18.8381 37.6111C18.7591 37.9456 18.9657 38.2809 19.3001 38.3603C19.6223 38.4364 25.7489 39.845 29.3738 37.8445C29.3331 39.1644 29.7405 41.048 31.7506 42.9103C32.0022 43.1441 32.3966 43.1291 32.6301 42.8769C32.8638 42.6246 32.8489 42.2307 32.5967 41.9974C29.923 39.5203 30.6723 37.1001 30.8424 36.6546C31.1024 36.3442 31.3302 35.9987 31.5096 35.6041C33.1152 32.0723 30.6954 29.0228 29.1098 27.5196C28.4625 26.9056 28.1354 26.0201 28.2355 25.1505C28.5528 22.391 28.6315 19.502 27.0867 17.0925C25.7869 14.8493 22.6902 13.2653 19.3809 13.1512C15.6197 13.0236 12.2288 14.7742 10.0629 17.9826C6.86236 23.2076 8.72564 28.19 10.7804 31.986C9.79861 36.7372 10.4551 36.9303 11.2326 38.4508C15.4754 46.7294 27.3355 52.7135 34.9336 52.0216C38.4545 51.7025 40.766 50.0376 41.6189 47.2079C43.2384 41.8342 41.1435 37.6175 38.8987 34.8876C39.4673 34.4007 40.6946 33.7174 42.3396 34.8738Z" fill="url(#paint2_linear_13858_2286)"/>
<path d="M13.7856 33.1199C13.8716 33.4527 14.212 33.6526 14.5439 33.567C20.3573 32.0638 25.233 33.285 27.0225 34.5143C27.3034 34.7102 27.6908 34.6423 27.8884 34.3611C28.0856 34.0794 28.0175 33.6913 27.7362 33.4941C27.6602 33.4409 26.9017 32.9292 25.5132 32.4485C25.9295 31.4904 26.4772 30.6509 27.1603 29.9581C27.4016 29.7134 27.3989 29.3193 27.1542 29.0779C26.9093 28.836 26.5147 28.8396 26.274 29.084C25.449 29.9207 24.7997 30.9369 24.3164 32.094C22.0351 31.5186 18.65 31.2206 14.2328 32.3617C13.8995 32.4476 13.6996 32.7871 13.7856 33.1199Z" fill="url(#paint3_linear_13858_2286)"/>
<path d="M17.8335 24.3685L17.8356 24.355C17.8975 23.9502 17.5528 23.5861 17.1479 23.647C16.5374 23.7388 15.9667 24.0526 15.5385 24.55C14.4976 25.7597 14.7405 27.4536 15.8555 28.4657C16.9933 29.4982 18.8769 29.5344 20.0545 28.5395C20.3171 28.3176 20.3499 27.925 20.1281 27.6623C19.9062 27.4001 19.5135 27.3669 19.2509 27.5887C18.5467 28.1832 17.3745 28.1628 16.6919 27.5435C16.0735 26.9829 15.8899 26.0503 16.4822 25.3617C16.6988 25.1099 16.9796 24.9459 17.2849 24.8885C17.5615 24.8366 17.791 24.647 17.8335 24.3685Z" fill="url(#paint4_linear_13858_2286)"/>
<defs>
<linearGradient id="paint0_linear_13858_2286" x1="55.1107" y1="41.2605" x2="60.5169" y2="40.2014" gradientUnits="userSpaceOnUse">
<stop stop-color="#46A29F"/>
<stop offset="1" stop-color="#4660A2"/>
</linearGradient>
<linearGradient id="paint1_linear_13858_2286" x1="-10.1428" y1="13.7606" x2="130.164" y2="-27.8896" gradientUnits="userSpaceOnUse">
<stop stop-color="#46A29F"/>
<stop offset="1" stop-color="#4660A2"/>
</linearGradient>
<linearGradient id="paint2_linear_13858_2286" x1="1.83717" y1="22.0319" x2="91.0905" y2="-3.72683" gradientUnits="userSpaceOnUse">
<stop stop-color="#46A29F"/>
<stop offset="1" stop-color="#4660A2"/>
</linearGradient>
<linearGradient id="paint3_linear_13858_2286" x1="11.3194" y1="30.206" x2="34.868" y2="12.8281" gradientUnits="userSpaceOnUse">
<stop stop-color="#46A29F"/>
<stop offset="1" stop-color="#4660A2"/>
</linearGradient>
<linearGradient id="paint4_linear_13858_2286" x1="13.947" y1="24.9239" x2="26.7072" y2="21.2855" gradientUnits="userSpaceOnUse">
<stop stop-color="#46A29F"/>
<stop offset="1" stop-color="#4660A2"/>
</linearGradient>
</defs>
</svg>
