<svg width="60" height="60" viewBox="0 0 60 60" fill="none" xmlns="http://www.w3.org/2000/svg">
<path d="M54.9999 30.3204C54.9999 36.1871 44.5984 39.5959 42.9474 45.811C41.2964 52.026 38.138 54.9999 30.3996 54.9999C24.0937 54.9999 26.7674 50.5278 13.9883 48.7058C1.2092 46.8838 4.64693 39.3905 8.61373 32.5202C13.1254 23.9756 15.218 19.7252 18.4727 14.0882C21.7274 8.45119 23.0081 5.64085 30.3996 5.64085C36.5946 5.64085 44.7637 2.08352 46.5798 11.7298C48.3959 21.3761 54.9999 22.9052 54.9999 30.3204Z" fill="url(#paint0_linear)"/>
<path d="M54.9999 30.3204C54.9999 36.1871 44.5984 39.5959 42.9474 45.811C41.2964 52.026 38.138 54.9999 30.3996 54.9999C24.0937 54.9999 26.7674 50.5278 13.9883 48.7058C1.2092 46.8838 4.64693 39.3905 8.61373 32.5202C13.1254 23.9756 15.218 19.7252 18.4727 14.0882C21.7274 8.45119 23.0081 5.64085 30.3996 5.64085C36.5946 5.64085 44.7637 2.08352 46.5798 11.7298C48.3959 21.3761 54.9999 22.9052 54.9999 30.3204Z" fill="url(#paint1_linear)"/>
<g clip-path="url(#clip0)">
<path d="M32.7189 5.34399C33.4678 6.09384 33.4678 7.31284 32.7189 8.06269L29.9999 10.7813L27.2812 8.06257C26.5309 7.31284 26.5309 6.09372 27.2812 5.34387C28.031 4.59356 29.2496 4.59356 29.9999 5.34387C30.7496 4.59367 31.9683 4.59367 32.7189 5.34399Z" fill="#DEEEEE"/>
<path d="M48.2813 6.09372V15.4687H32.4465H27.5625H11.7189V6.09372C11.7189 2.98135 14.2408 0.468689 17.344 0.468689H42.6565C45.7693 0.468689 48.2813 2.98146 48.2813 6.09372ZM32.7192 8.06256C33.4681 7.31283 33.4681 6.09372 32.7192 5.34387C31.9686 4.59355 30.7499 4.59355 30.0002 5.34387C29.2499 4.59355 28.0313 4.59355 27.2815 5.34387C26.5312 6.09372 26.5312 7.31272 27.2815 8.06256L30.0002 10.7813L32.7192 8.06256Z" fill="white"/>
<path d="M46.3039 21.1033C42.759 20.1937 39.3935 18.8626 36.3 17.3437L32.4466 15.4687H48.2814V21.5624C47.6159 21.422 46.9595 21.2719 46.3039 21.1033Z" fill="#DEEEEE"/>
<path d="M13.6969 21.1033C13.041 21.2719 12.3845 21.4219 11.7189 21.5624V15.4687H27.5627L23.7097 17.3437C20.6065 18.8627 17.2409 20.1938 13.6969 21.1033Z" fill="#DEEEEE"/>
<path d="M13.5939 16.4063H11.7188V21.5625C12.3497 21.4293 12.9722 21.2851 13.5939 21.1272V16.4063Z" fill="#F0F4F4"/>
<path d="M46.4156 16.4063H48.2906V21.5625C47.6607 21.4293 47.0382 21.2851 46.4156 21.1272V16.4063Z" fill="#DEEEEE"/>
<path d="M22.0314 37.9972V42.9658L21.0938 39.8438L17.3438 43.5937L17.7938 44.3152L17.775 44.3344L16.4064 45.0284C14.8595 45.7214 13.1717 46.2469 11.7188 46.7064V21.5625C12.3844 21.422 13.0408 21.2719 13.6968 21.1034V22.9689C14.3437 28.9595 17.9719 34.5191 22.0314 37.9972Z" fill="#DEEEEE"/>
<path d="M48.281 46.7066C48.975 46.9318 49.6214 47.1378 50.1561 47.3438C53.906 48.7409 55.781 50.1563 55.781 53.9063C55.781 57.6563 55.781 59.5313 55.781 59.5313H35.5497L36.0277 58.5938L38.9062 52.9688L37.9686 51.0938L42.1874 44.3345L43.5937 45.0285C45.1408 45.7215 46.8272 46.247 48.281 46.7066Z" fill="white"/>
<path d="M48.2812 21.5625V46.7066C46.8275 46.247 45.1411 45.7215 43.5938 45.0285L42.1875 44.3345L42.6563 43.5938L38.9064 39.8439L37.9688 42.9659V37.9973C42.0374 34.5191 45.6657 28.9596 46.3037 22.9688V21.1033C46.9593 21.2719 47.6158 21.422 48.2812 21.5625Z" fill="#DEEEEE"/>
<path d="M27.656 22.9972V22.0313C27.656 21.5159 27.234 21.0937 26.7185 21.0937H20.156C19.6402 21.0937 19.2185 21.5157 19.2185 22.0313V23.9063C19.2185 24.4222 19.6402 24.8438 20.156 24.8438H26.7185C27.234 24.8438 27.656 24.4222 27.656 23.9063V22.9972ZM32.3436 22.9972V23.9063C32.3436 24.4222 32.7647 24.8438 33.2811 24.8438H39.8435C40.3589 24.8438 40.7811 24.4222 40.7811 23.9063V22.0313C40.7811 21.5159 40.3589 21.0937 39.8435 21.0937H33.2811C32.7647 21.0937 32.3436 21.5157 32.3436 22.0313V22.9972ZM46.3034 21.1033V22.9688C45.6654 28.9595 42.0371 34.5191 37.9685 37.9973C35.2586 40.3125 32.3527 41.7187 29.9998 41.7187C27.6464 41.7187 24.7405 40.3125 22.031 37.9972C17.9715 34.519 14.3434 28.9595 13.6964 22.9687V21.1033C17.2404 20.1937 20.606 18.8626 23.7092 17.3437L27.5621 15.4687H32.4461L36.2995 17.3437C39.393 18.8627 42.7586 20.1938 46.3034 21.1033Z" fill="#F0F4F4"/>
<path d="M15.5715 22.9688V22.0313V21.1034V20.5619C14.9503 20.75 14.3296 20.9409 13.6964 21.1034V22.9689C14.3434 28.9596 17.9715 34.5192 22.031 37.9974C24.7405 40.3127 27.6464 41.719 29.9998 41.719C30.3033 41.719 30.6169 41.6933 30.9373 41.6476C28.7744 41.339 26.2658 40.0143 23.9061 37.9974C19.8466 34.5191 16.2183 28.9595 15.5715 22.9688Z" fill="white"/>
<path d="M44.4285 22.9688V22.0313V21.1034V20.5619C45.0493 20.75 45.67 20.9409 46.3035 21.1034V22.9689C45.6563 28.9596 42.028 34.5192 37.9686 37.9974C35.2587 40.3125 32.3528 41.7187 29.9999 41.7187C29.6963 41.7187 29.3828 41.6931 29.0624 41.6474C31.2249 41.3388 33.7333 40.0141 36.0936 37.9972C40.1531 34.5191 43.7813 28.9595 44.4285 22.9688Z" fill="#DEEEEE"/>
<path d="M42.6563 43.5937L42.1875 44.3345L37.9687 51.0937L38.9063 52.9688L36.0279 58.5938L35.55 59.5313H33.0094L36.6944 47.222L37.5 44.5312L37.9687 42.9658L38.9063 39.8438L42.6563 43.5937Z" fill="white"/>
<path d="M37.9687 42.9658L37.5 44.5312C37.5 44.5312 35.1562 46.4063 30 46.4063C24.8438 46.4063 22.5187 44.5312 22.5187 44.5312L22.5 44.5403L22.0312 42.9656V37.997C24.7407 40.3123 27.6466 41.7186 30 41.7186C32.3529 41.7186 35.2588 40.3123 37.9687 37.997V42.9658Z" fill="#F0F4F4"/>
<path d="M37.5 44.5312L36.6944 47.222C35.3531 47.775 32.775 48.2813 30 48.2813C27.225 48.2813 24.6469 47.775 23.3157 47.222H23.3061L22.5 44.5403L22.5188 44.5312C22.5188 44.5312 24.8438 46.4063 30 46.4063C35.1562 46.4063 37.5 44.5312 37.5 44.5312Z" fill="#DEEEEE"/>
<path d="M36.6944 47.222L33.0094 59.5312H27L23.3062 47.222H23.3158C24.6469 47.775 27.2251 48.2813 30 48.2813C32.775 48.2813 35.3532 47.775 36.6944 47.222Z" fill="#DEEEEE"/>
<path d="M23.3062 47.222L26.9999 59.5313H24.4593L23.9814 58.5938L21.0938 52.9688L22.0313 51.0937L17.7938 44.3153L17.3439 43.5937L21.0938 39.8438L22.0313 42.9658L22.5001 44.5403L23.3062 47.222Z" fill="white"/>
<path d="M23.9812 58.5938L24.4592 59.5313H4.21866C4.21866 59.5313 4.21866 57.6564 4.21866 53.9063C4.21866 50.1564 6.09363 48.7409 9.84369 47.3438C10.3875 47.1379 11.0247 46.9318 11.7187 46.7158V46.7067C13.1716 46.2471 14.8594 45.7216 16.4062 45.0286L17.7749 44.3347L17.7936 44.3154L22.0311 51.094L21.0935 52.9689L23.9812 58.5938Z" fill="white"/>
<path d="M27.6659 23.9063C27.6659 24.4217 27.2438 24.8438 26.7284 24.8438H20.1659C19.6506 24.8438 19.2284 24.4217 19.2284 23.9063V22.0313C19.2284 21.5159 19.6506 21.0937 20.1659 21.0937H26.7284C27.2438 21.0937 27.6659 21.5158 27.6659 22.0313V22.9967V23.9063Z" fill="#DEEEEE"/>
<path d="M21.4723 24.8438H23.4137L24.4185 21.0937H22.4775L21.4723 24.8438Z" fill="#F0F4F4"/>
<path d="M23.9159 24.8438H24.4175L25.4222 21.0937H24.9206L23.9159 24.8438Z" fill="#F0F4F4"/>
<path d="M40.7905 23.9063C40.7905 24.4217 40.3693 24.8438 39.8529 24.8438H33.2905C32.7759 24.8438 32.3531 24.4217 32.3531 23.9063V22.0313C32.3531 21.5159 32.7759 21.0937 33.2905 21.0937H39.8529C40.3693 21.0937 40.7905 21.5158 40.7905 22.0313V22.9967V23.9063Z" fill="#DEEEEE"/>
<path d="M34.5976 24.8438H36.5386L37.5438 21.0937H35.6029L34.5976 24.8438Z" fill="#F0F4F4"/>
<path d="M37.0403 24.8438H37.5422L38.5474 21.0937H38.0456L37.0403 24.8438Z" fill="#F0F4F4"/>
<path d="M22.5187 44.5312C22.5187 44.5312 22.971 44.8948 23.9159 45.302V39.4326C23.2836 39.0032 22.652 38.5271 22.0312 37.9972V42.9658L22.5 44.5405L22.5187 44.5312Z" fill="white"/>
<path d="M36.0984 45.3003C37.046 44.8938 37.5001 44.5312 37.5001 44.5312L37.9688 42.9658V37.9972C37.3527 38.5235 36.7256 38.9958 36.0984 39.4226V45.3003Z" fill="#DEEEEE"/>
<path d="M48.2819 15.4683H11.7189V16.4058H48.2819V15.4683Z" fill="#DEEEEE"/>
<path d="M34.3735 16.4063L32.4464 15.4688H27.5625L25.6358 16.4063H34.3735Z" fill="#DEEEEE"/>
<path d="M26.7188 25.3125H20.1563C19.3809 25.3125 18.75 24.6817 18.75 23.9062V22.0312C18.75 21.2557 19.3807 20.6249 20.1563 20.6249H26.7188C27.4942 20.6249 28.1251 21.2557 28.1251 22.0312V23.9062C28.1251 24.6817 27.4942 25.3125 26.7188 25.3125ZM20.1563 21.5625C19.8976 21.5625 19.6876 21.7727 19.6876 22.0313V23.9063C19.6876 24.1649 19.8976 24.3751 20.1563 24.3751H26.7188C26.9774 24.3751 27.1876 24.1651 27.1876 23.9063V22.0313C27.1876 21.7727 26.9775 21.5625 26.7188 21.5625H20.1563Z" fill="url(#paint2_linear)"/>
<path d="M39.8434 25.3125H33.281C32.5056 25.3125 31.8748 24.6817 31.8748 23.9062V22.0312C31.8748 21.2557 32.5056 20.6249 33.281 20.6249H39.8434C40.619 20.6249 41.2497 21.2557 41.2497 22.0312V23.9062C41.2497 24.6817 40.619 25.3125 39.8434 25.3125ZM33.281 21.5625C33.0228 21.5625 32.8122 21.7727 32.8122 22.0313V23.9063C32.8122 24.1649 33.0228 24.3751 33.281 24.3751H39.8434C40.1016 24.3751 40.3122 24.1651 40.3122 23.9063V22.0313C40.3122 21.7727 40.1016 21.5625 39.8434 21.5625H33.281Z" fill="url(#paint3_linear)"/>
<path d="M32.3435 23.4659H27.655C27.3959 23.4659 27.1862 23.2562 27.1862 22.9972C27.1862 22.738 27.3959 22.5284 27.655 22.5284H32.3435C32.6026 22.5284 32.8122 22.738 32.8122 22.9972C32.8122 23.2562 32.6026 23.4659 32.3435 23.4659Z" fill="url(#paint4_linear)"/>
<path d="M23.9762 59.0626C23.8059 59.0626 23.6415 58.9692 23.5587 58.8081L20.6766 53.183C20.6084 53.0493 20.6075 52.8927 20.6743 52.7592L21.4941 51.1195L16.9461 43.8429C16.8303 43.657 16.8578 43.4162 17.012 43.2624L20.7621 39.5124C20.9451 39.3294 21.2418 39.3294 21.4248 39.5124C21.6079 39.6955 21.6079 39.9923 21.4248 40.1753L17.9385 43.6616L22.4283 50.8448C22.5148 50.984 22.5231 51.1579 22.4503 51.3035L21.619 52.9661L24.3926 58.3796C24.5107 58.6103 24.4195 58.8923 24.1893 59.0114C24.1208 59.0461 24.048 59.0626 23.9762 59.0626Z" fill="url(#paint5_linear)"/>
<path d="M26.7187 59.0626C26.5168 59.0626 26.3305 58.9317 26.2696 58.7284L20.6447 39.9784C20.5705 39.7303 20.711 39.4693 20.9591 39.3951C21.2072 39.32 21.4686 39.461 21.5428 39.7092L27.1678 58.4592C27.242 58.7073 27.1015 58.9683 26.8534 59.0425C26.8085 59.0562 26.7631 59.0626 26.7187 59.0626Z" fill="url(#paint6_linear)"/>
<path d="M36.0239 59.0626C35.9515 59.0626 35.8792 59.0461 35.8096 59.0113C35.5798 58.8922 35.4893 58.6102 35.6064 58.3795L38.3805 52.966L37.5492 51.3034C37.476 51.1578 37.4851 50.9838 37.5713 50.8447L42.061 43.6615L38.5747 40.1752C38.3917 39.9921 38.3917 39.6954 38.5747 39.5123C38.7578 39.3293 39.0544 39.3293 39.2375 39.5123L42.9875 43.2623C43.1413 43.416 43.1687 43.6569 43.0534 43.8428L38.505 51.1194L39.3253 52.7591C39.3921 52.8927 39.3911 53.0493 39.3234 53.1829L36.4413 58.8079C36.3581 58.9692 36.1943 59.0626 36.0239 59.0626Z" fill="url(#paint7_linear)"/>
<path d="M33.2811 59.0626C33.2372 59.0626 33.1913 59.0562 33.1466 59.0425C32.8984 58.9683 32.7575 58.7074 32.8325 58.4592L38.4575 39.7092C38.5307 39.4611 38.7917 39.3201 39.0407 39.3951C39.2888 39.4693 39.4298 39.7302 39.3548 39.9784L33.7297 58.7284C33.6693 58.9316 33.4825 59.0626 33.2811 59.0626Z" fill="url(#paint8_linear)"/>
<path d="M29.9998 46.875C24.7396 46.875 22.3079 44.978 22.2068 44.8975C22.0054 44.7363 21.9729 44.4424 22.1331 44.2402C22.2938 44.0378 22.5891 44.0058 22.7914 44.1642C22.8138 44.1816 25.0999 45.9376 29.9998 45.9376C34.8997 45.9376 37.1857 44.1817 37.2087 44.1642C37.4111 44.004 37.7048 44.0388 37.8659 44.2402C38.0271 44.4425 37.9941 44.7363 37.7927 44.8975C37.692 44.9781 35.2605 46.875 29.9998 46.875Z" fill="url(#paint9_linear)"/>
<path d="M30 48.7499C27.0896 48.7499 24.456 48.2025 23.1372 47.6604C22.8978 47.5615 22.7839 47.2869 22.8823 47.048C22.9811 46.809 23.2549 46.6954 23.4943 46.7925C24.7275 47.2997 27.2178 47.8123 30.0001 47.8123C32.7907 47.8123 35.2827 47.3006 36.5151 46.7942C36.7567 46.6972 37.0296 46.8089 37.1276 47.0488C37.2255 47.2887 37.112 47.5624 36.8721 47.6603C35.5545 48.2026 32.9187 48.7499 30 48.7499Z" fill="url(#paint10_linear)"/>
<path d="M29.9999 42.1885C23.5779 42.1885 14.2922 32.8931 13.2292 23.0191C13.2013 22.7614 13.3877 22.5301 13.6448 22.5027C13.9122 22.4798 14.1341 22.6615 14.1612 22.9184C14.6387 27.3523 16.9082 32.0361 20.3891 35.7697C23.5417 39.1497 27.2245 41.2509 29.9999 41.2509C30.259 41.2509 30.4687 41.4605 30.4687 41.7197C30.4687 41.9788 30.259 42.1885 29.9999 42.1885Z" fill="url(#paint11_linear)"/>
<path d="M55.7812 60H4.21865C3.95952 60 3.74985 59.7905 3.74985 59.5313V53.9063C3.74985 49.8835 5.83402 48.3417 9.67925 46.9044C10.2826 46.6791 11.0086 46.4485 11.7987 46.1977C13.1927 45.7545 14.7723 45.2528 16.2157 44.6064C16.452 44.5003 16.7293 44.6064 16.8351 44.8427C16.9409 45.079 16.8351 45.3563 16.5984 45.4615C15.1066 46.1299 13.5002 46.6408 12.083 47.0912C11.309 47.3365 10.598 47.5618 10.0075 47.7833C6.40303 49.131 4.68733 50.3907 4.68733 53.9063V59.0626H55.3124V53.9063C55.3124 50.3907 53.5967 49.131 49.9914 47.7833C49.4018 47.5616 48.6912 47.3365 47.9177 47.0912C46.5004 46.6407 44.8937 46.1299 43.4023 45.4615C43.1653 45.3553 43.06 45.0789 43.1653 44.8427C43.2714 44.6064 43.548 44.5003 43.7851 44.6064C45.2289 45.2528 46.8082 45.7545 48.2024 46.1977C48.9916 46.4486 49.7177 46.6791 50.32 46.9044C54.1661 48.3419 56.25 49.8835 56.25 53.9063V59.5313C56.25 59.7905 56.0403 60 55.7812 60Z" fill="url(#paint12_linear)"/>
<path d="M11.7185 45C11.4595 45 11.2498 44.7903 11.2498 44.5312V17.3438C11.2498 17.0848 11.4595 16.875 11.7185 16.875C11.9777 16.875 12.1873 17.0846 12.1873 17.3438V44.5313C12.1873 44.7903 11.9777 45 11.7185 45Z" fill="url(#paint13_linear)"/>
<path d="M11.7181 22.0313C11.5002 22.0313 11.3053 21.8788 11.2595 21.6573C11.2073 21.4037 11.3702 21.1556 11.6237 21.1034C15.4672 20.3106 19.4611 18.9039 23.4954 16.9231C23.7289 16.8102 24.0085 16.9053 24.1226 17.1374C24.2365 17.3694 24.1408 17.6506 23.9083 17.7646C19.8035 19.7806 15.7339 21.2129 11.8132 22.0218C11.7813 22.028 11.7496 22.0313 11.7181 22.0313Z" fill="url(#paint14_linear)"/>
<path d="M29.9998 42.1885C29.7407 42.1885 29.531 41.9788 29.531 41.7197C29.531 41.4606 29.7407 41.2509 29.9998 41.2509C32.7757 41.2509 36.458 39.1497 39.6111 35.7697C43.0919 32.0361 45.3606 27.3523 45.8385 22.9184C45.8659 22.6612 46.0838 22.4748 46.3548 22.5027C46.612 22.5301 46.7979 22.7614 46.7705 23.0191C45.7075 32.8931 36.4214 42.1885 29.9998 42.1885Z" fill="url(#paint15_linear)"/>
<path d="M48.281 45C48.022 45 47.8123 44.7903 47.8123 44.5312V17.3438C47.8123 17.0848 48.022 16.875 48.281 16.875C48.5402 16.875 48.7498 17.0846 48.7498 17.3438V44.5313C48.7498 44.7903 48.5402 45 48.281 45Z" fill="url(#paint16_linear)"/>
<path d="M48.2812 22.0313C48.2501 22.0313 48.219 22.0282 48.1861 22.0217C44.2649 21.2123 40.1954 19.7805 36.092 17.7645C35.8595 17.6505 35.7633 17.3694 35.8778 17.1373C35.9914 16.9047 36.2715 16.8082 36.5041 16.923C40.5379 18.9038 44.5314 20.3105 48.3766 21.1033C48.6293 21.1555 48.7924 21.4036 48.741 21.6572C48.6952 21.8788 48.4992 22.0313 48.2812 22.0313Z" fill="url(#paint17_linear)"/>
<path d="M11.7185 15.9375C11.4595 15.9375 11.2498 15.7278 11.2498 15.4687V6.09371C11.2498 5.83458 11.4595 5.62491 11.7185 5.62491C11.9777 5.62491 12.1873 5.83458 12.1873 6.09371V15.4687C12.1873 15.7279 11.9777 15.9375 11.7185 15.9375Z" fill="url(#paint18_linear)"/>
<path d="M42.6562 0.937485H17.1478C16.8887 0.937485 16.679 0.727814 16.679 0.468684C16.679 0.209671 16.8887 0 17.1478 0H42.6562C42.9153 0 43.125 0.209671 43.125 0.468684C43.125 0.727814 42.9153 0.937485 42.6562 0.937485Z" fill="url(#paint19_linear)"/>
<path d="M48.281 15.9375C48.022 15.9375 47.8123 15.7278 47.8123 15.4687V6.09371C47.8123 5.83458 48.022 5.62491 48.281 5.62491C48.5402 5.62491 48.7498 5.83458 48.7498 6.09371V15.4687C48.7498 15.7279 48.5402 15.9375 48.281 15.9375Z" fill="url(#paint20_linear)"/>
<path d="M48.2809 15.9375H11.7185C11.4595 15.9375 11.2498 15.7278 11.2498 15.4687C11.2498 15.2096 11.4595 14.9999 11.7185 14.9999H48.281C48.5402 14.9999 48.7498 15.2096 48.7498 15.4687C48.7498 15.7278 48.5401 15.9375 48.2809 15.9375Z" fill="url(#paint21_linear)"/>
<path d="M11.7185 6.56251C11.4595 6.56251 11.2498 6.35284 11.2498 6.09371C11.2498 2.7337 13.9835 0 17.3436 0C17.6027 0 17.8124 0.209671 17.8124 0.468684C17.8124 0.727814 17.6027 0.937485 17.3436 0.937485C14.5004 0.937485 12.1873 3.25055 12.1873 6.09371C12.1873 6.35284 11.9777 6.56251 11.7185 6.56251Z" fill="url(#paint22_linear)"/>
<path d="M48.2818 6.56251C48.0228 6.56251 47.8131 6.35284 47.8131 6.09371C47.8131 3.25055 45.4996 0.937485 42.6569 0.937485C42.3978 0.937485 42.1881 0.727814 42.1881 0.468684C42.1881 0.209671 42.3978 0 42.6569 0C46.0169 0 48.7506 2.7337 48.7506 6.09371C48.7506 6.35284 48.541 6.56251 48.2818 6.56251Z" fill="url(#paint23_linear)"/>
<path d="M30.0002 11.2501C29.8761 11.2501 29.7566 11.2006 29.6687 11.1127L26.9502 8.39459C26.0182 7.46167 26.0182 5.94463 26.9502 5.01266C27.7503 4.21253 29.0893 4.1026 30.0002 4.73524C30.9098 4.10353 32.2501 4.21206 33.0502 5.01266C33.5006 5.46446 33.7496 6.06465 33.7496 6.70362C33.7496 7.34271 33.5006 7.94278 33.0493 8.3947L30.3316 11.1128C30.2437 11.2006 30.1247 11.2501 30.0002 11.2501ZM28.641 5.24964C28.2524 5.24964 27.8875 5.40071 27.6129 5.67531C27.0463 6.24209 27.0467 7.16445 27.6134 7.73159L30.0002 10.1184L32.3865 7.73159C32.6611 7.45698 32.8122 7.09214 32.8122 6.7035C32.8122 6.31499 32.6611 5.95002 32.3865 5.67542C31.838 5.12611 30.8808 5.12611 30.3316 5.67542C30.1563 5.85076 29.845 5.85169 29.6687 5.67542C29.3941 5.40071 29.0293 5.24964 28.641 5.24964Z" fill="url(#paint24_linear)"/>
</g>
<defs>
<linearGradient id="paint0_linear" x1="4.99991" y1="4.99989" x2="64.9622" y2="24.7425" gradientUnits="userSpaceOnUse">
<stop stop-color="#ECF6F5"/>
<stop offset="1" stop-color="#FBF6F9"/>
</linearGradient>
<linearGradient id="paint1_linear" x1="4.99991" y1="4.99989" x2="64.9622" y2="24.7425" gradientUnits="userSpaceOnUse">
<stop stop-color="#F6F6FB"/>
<stop offset="1" stop-color="#FEF3F9"/>
</linearGradient>
<linearGradient id="paint2_linear" x1="17.139" y1="21.695" x2="34.8481" y2="11.1788" gradientUnits="userSpaceOnUse">
<stop stop-color="#46A29F"/>
<stop offset="1" stop-color="#4660A2"/>
</linearGradient>
<linearGradient id="paint3_linear" x1="30.2638" y1="21.695" x2="47.9728" y2="11.179" gradientUnits="userSpaceOnUse">
<stop stop-color="#46A29F"/>
<stop offset="1" stop-color="#4660A2"/>
</linearGradient>
<linearGradient id="paint4_linear" x1="26.2195" y1="22.7424" x2="29.6626" y2="16.6073" gradientUnits="userSpaceOnUse">
<stop stop-color="#46A29F"/>
<stop offset="1" stop-color="#4660A2"/>
</linearGradient>
<linearGradient id="paint5_linear" x1="15.574" y1="43.8694" x2="34.6658" y2="41.6899" gradientUnits="userSpaceOnUse">
<stop stop-color="#46A29F"/>
<stop offset="1" stop-color="#4660A2"/>
</linearGradient>
<linearGradient id="paint6_linear" x1="19.4971" y1="43.8692" x2="36.1027" y2="42.2257" gradientUnits="userSpaceOnUse">
<stop stop-color="#46A29F"/>
<stop offset="1" stop-color="#4660A2"/>
</linearGradient>
<linearGradient id="paint7_linear" x1="34.2545" y1="43.8693" x2="53.3456" y2="41.69" gradientUnits="userSpaceOnUse">
<stop stop-color="#46A29F"/>
<stop offset="1" stop-color="#4660A2"/>
</linearGradient>
<linearGradient id="paint8_linear" x1="31.6846" y1="43.8692" x2="48.2898" y2="42.2258" gradientUnits="userSpaceOnUse">
<stop stop-color="#46A29F"/>
<stop offset="1" stop-color="#4660A2"/>
</linearGradient>
<linearGradient id="paint9_linear" x1="19.2929" y1="44.7053" x2="29.9174" y2="26.8238" gradientUnits="userSpaceOnUse">
<stop stop-color="#46A29F"/>
<stop offset="1" stop-color="#4660A2"/>
</linearGradient>
<linearGradient id="paint10_linear" x1="20.3869" y1="47.2126" x2="26.9744" y2="33.1569" gradientUnits="userSpaceOnUse">
<stop stop-color="#46A29F"/>
<stop offset="1" stop-color="#4660A2"/>
</linearGradient>
<linearGradient id="paint11_linear" x1="10.2636" y1="26.995" x2="51.5284" y2="16.2648" gradientUnits="userSpaceOnUse">
<stop stop-color="#46A29F"/>
<stop offset="1" stop-color="#4660A2"/>
</linearGradient>
<linearGradient id="paint12_linear" x1="-5.27177" y1="48.0886" x2="61.1363" y2="-18.9787" gradientUnits="userSpaceOnUse">
<stop stop-color="#46A29F"/>
<stop offset="1" stop-color="#4660A2"/>
</linearGradient>
<linearGradient id="paint13_linear" x1="11.0887" y1="23.2953" x2="13.4839" y2="23.2716" gradientUnits="userSpaceOnUse">
<stop stop-color="#46A29F"/>
<stop offset="1" stop-color="#4660A2"/>
</linearGradient>
<linearGradient id="paint14_linear" x1="9.02944" y1="18.0525" x2="30.278" y2="2.24149" gradientUnits="userSpaceOnUse">
<stop stop-color="#46A29F"/>
<stop offset="1" stop-color="#4660A2"/>
</linearGradient>
<linearGradient id="paint15_linear" x1="26.5681" y1="26.9944" x2="67.833" y2="16.2647" gradientUnits="userSpaceOnUse">
<stop stop-color="#46A29F"/>
<stop offset="1" stop-color="#4660A2"/>
</linearGradient>
<linearGradient id="paint16_linear" x1="47.6512" y1="23.2953" x2="50.0464" y2="23.2716" gradientUnits="userSpaceOnUse">
<stop stop-color="#46A29F"/>
<stop offset="1" stop-color="#4660A2"/>
</linearGradient>
<linearGradient id="paint17_linear" x1="33.6092" y1="18.0518" x2="54.8608" y2="2.24141" gradientUnits="userSpaceOnUse">
<stop stop-color="#46A29F"/>
<stop offset="1" stop-color="#4660A2"/>
</linearGradient>
<linearGradient id="paint18_linear" x1="11.0887" y1="7.97904" x2="13.4823" y2="7.91443" gradientUnits="userSpaceOnUse">
<stop stop-color="#46A29F"/>
<stop offset="1" stop-color="#4660A2"/>
</linearGradient>
<linearGradient id="paint19_linear" x1="12.1345" y1="0.214007" x2="13.0841" y2="-7.74005" gradientUnits="userSpaceOnUse">
<stop stop-color="#46A29F"/>
<stop offset="1" stop-color="#4660A2"/>
</linearGradient>
<linearGradient id="paint20_linear" x1="47.6512" y1="7.97904" x2="50.0449" y2="7.91443" gradientUnits="userSpaceOnUse">
<stop stop-color="#46A29F"/>
<stop offset="1" stop-color="#4660A2"/>
</linearGradient>
<linearGradient id="paint21_linear" x1="4.80585" y1="15.2139" x2="5.4805" y2="7.20228" gradientUnits="userSpaceOnUse">
<stop stop-color="#46A29F"/>
<stop offset="1" stop-color="#4660A2"/>
</linearGradient>
<linearGradient id="paint22_linear" x1="10.1221" y1="1.49808" x2="25.5314" y2="-3.07714" gradientUnits="userSpaceOnUse">
<stop stop-color="#46A29F"/>
<stop offset="1" stop-color="#4660A2"/>
</linearGradient>
<linearGradient id="paint23_linear" x1="41.0604" y1="1.49808" x2="56.4696" y2="-3.07714" gradientUnits="userSpaceOnUse">
<stop stop-color="#46A29F"/>
<stop offset="1" stop-color="#4660A2"/>
</linearGradient>
<linearGradient id="paint24_linear" x1="24.9627" y1="5.90727" x2="42.326" y2="0.323462" gradientUnits="userSpaceOnUse">
<stop stop-color="#46A29F"/>
<stop offset="1" stop-color="#4660A2"/>
</linearGradient>
<clipPath id="clip0">
<rect width="60" height="60" fill="white"/>
</clipPath>
</defs>
</svg>
