<svg width="80" height="80" viewBox="0 0 80 80" fill="none" xmlns="http://www.w3.org/2000/svg">
<g clip-path="url(#clip0_14181_2123)">
<path opacity="0.4" d="M81.6667 38.6716C81.6667 46.2416 67.798 50.64 65.5967 58.6595C63.3953 66.6789 59.1842 70.5161 48.8662 70.5161C40.4583 70.5161 44.0234 64.7456 26.9845 62.3947C9.94572 60.0438 14.5294 50.375 19.8184 41.51C25.8339 30.4848 28.6241 25.0004 32.9637 17.7269C37.3033 10.4533 39.011 6.82705 48.8662 6.82705C57.1262 6.82705 68.0183 2.23695 70.4398 14.6838C72.8613 27.1306 81.6667 29.1036 81.6667 38.6716Z" fill="url(#paint0_linear_14181_2123)"/>
<path d="M45 26.5C45 31.7467 40.5228 36 35 36C29.4772 36 25 31.7467 25 26.5C25 21.2533 29.4772 17 35 17C40.5228 17 45 21.2533 45 26.5Z" fill="#DEEEEE"/>
<ellipse cx="15" cy="13.8065" rx="6" ry="5.80645" fill="#DEEEEE"/>
<circle cx="44" cy="8" r="4" fill="#DEEEEE"/>
<circle cx="16" cy="42" r="4" fill="#DEEEEE"/>
<ellipse cx="63" cy="34.5" rx="8" ry="7.5" fill="#DEEEEE"/>
<path d="M34.9998 72L35.9998 78.5L36.9999 79H42.9999L50.4999 79.5C51.9999 79.3333 55.2999 79 56.4999 79C57.6999 79 57.6665 78 57.4999 77.5V73L59.9999 69.5L61.4999 65V51C61.3332 50 60.8999 47.8 60.4999 47C60.0999 46.2 57.9999 46.3333 56.9999 46.5C55.9999 47.1667 53.9999 48.1 53.9999 46.5C53.9999 44.5 52.4999 44 51.4999 43C50.6999 42.2 48.1665 43.3333 46.9999 44L45.9999 43L44.4999 41L41.9999 40.5L39.4999 42V39.5C39.3332 36.8333 38.8999 31.2 38.4999 30C37.9999 28.5 33.4999 29 32.4999 29.5C31.4999 30 32.6123 51.1938 30.9999 52C27.9999 53.5 26.9998 56.5 26.4998 59.5C26.0998 61.9 31.9998 68.8333 34.9998 72Z" fill="#F6FBFA"/>
<path d="M63.5451 23.8392C59.2546 23.8392 55.6437 26.7651 54.5768 30.7228L46.7308 29.2985C46.7712 28.9033 46.7993 28.5055 46.7993 28.1016C46.7993 23.6539 44.2738 19.7901 40.5856 17.853L42.975 12.2927C43.3965 12.3919 43.833 12.4499 44.2834 12.4499C47.4403 12.4499 50.0088 9.88136 50.0088 6.7245C50.0088 3.56764 47.4403 1 44.2843 1C41.1283 1 38.5589 3.56852 38.5589 6.72538C38.5589 8.80829 39.6803 10.6286 41.3479 11.6306L38.9708 17.1619C37.7941 16.758 36.5366 16.5279 35.2247 16.5279C31.7456 16.5279 28.6282 18.0778 26.5049 20.5155L22.0853 16.916C22.6947 15.7859 23.0416 14.495 23.0416 13.1234C23.0416 8.70028 19.443 5.1026 15.0208 5.1026C10.5986 5.1026 7 8.70116 7 13.1234C7 17.5456 10.5986 21.1442 15.0208 21.1442C17.4409 21.1442 19.609 20.0623 21.0807 18.3623L25.4547 21.9248C24.3184 23.7153 23.651 25.8307 23.651 28.1033C23.651 30.2477 24.2464 32.292 25.3036 34.0509L20.5547 37.4123C19.4711 36.2058 17.9046 35.4409 16.158 35.4409C12.8957 35.4409 10.2412 38.0946 10.2412 41.3569C10.2412 44.6191 12.8949 47.2728 16.158 47.2728C19.4202 47.2728 22.0739 44.6191 22.0739 41.3569C22.0739 40.4708 21.8728 39.6331 21.5224 38.8788L26.3187 35.484C27.5051 36.9136 29.0418 38.0586 30.8244 38.7919V50.8415L28.2524 52.7936C26.555 54.0827 25.4784 55.9575 25.222 58.0729C24.9656 60.1883 25.5618 62.2668 26.9027 63.9238L34.2623 73.0212V76.8006C34.2623 78.5832 35.712 80.0339 37.4955 80.0339H55.5006C57.2832 80.0339 58.7339 78.5841 58.7339 76.8006L58.7347 73.2021C61.0381 70.3921 62.3026 66.8708 62.3026 63.2503V49.8545C62.3026 47.4168 60.3189 45.4331 57.8812 45.4331H57.5378C56.5377 45.4331 55.6148 45.7668 54.8727 46.3297V46.3112C54.8727 43.8736 52.8891 41.8899 50.4514 41.8899H50.1072C49.0622 41.8899 48.1006 42.2543 47.3428 42.8629C46.9134 40.8713 45.1378 39.3749 43.0207 39.3749H42.6765C41.6763 39.3749 40.7534 39.7086 40.0113 40.2706V38.625C43.2428 37.1594 45.5593 34.3635 46.4217 31.0275L54.2835 32.4553C54.2668 32.681 54.2493 32.9067 54.2493 33.1367C54.2493 38.2624 58.4195 42.4334 63.546 42.4334C68.6725 42.4334 72.8427 38.2624 72.8427 33.1367C72.8427 28.0111 68.6716 23.8392 63.5451 23.8392ZM44.2843 2.75625C46.4726 2.75625 48.2534 4.53621 48.2534 6.72538C48.2534 8.91454 46.4735 10.6945 44.2843 10.6945C42.0951 10.6945 40.3152 8.91454 40.3152 6.72538C40.3152 4.53621 42.096 2.75625 44.2843 2.75625ZM15.0199 19.3871C11.5654 19.3871 8.75537 16.5771 8.75537 13.1225C8.75537 9.66797 11.5654 6.85797 15.0199 6.85797C18.4745 6.85797 21.2845 9.66797 21.2845 13.1225C21.2845 16.5771 18.4745 19.3871 15.0199 19.3871ZM16.1571 45.5148C13.8634 45.5148 11.9965 43.6488 11.9965 41.3551C11.9965 39.0615 13.8625 37.1954 16.1571 37.1954C18.4516 37.1954 20.3168 39.0615 20.3168 41.3551C20.3168 43.6488 18.4516 45.5148 16.1571 45.5148ZM42.6765 41.1312H43.0207C44.4907 41.1312 45.6858 42.3263 45.6858 43.7963V46.3112L45.6928 53.7314C45.6937 54.2161 46.0862 54.6087 46.5709 54.6087C47.0557 54.6078 47.4499 54.2153 47.4491 53.7297L47.4412 46.3112C47.4412 44.8413 48.6363 43.6461 50.1063 43.6461H50.4505C51.9205 43.6461 53.1156 44.8413 53.1156 46.3112V49.5296C53.113 49.5559 53.0998 49.5788 53.0998 49.606L53.1077 53.7332C53.1086 54.2179 53.5011 54.6095 53.9858 54.6095C54.4644 54.5753 54.8648 54.2161 54.864 53.7297L54.8569 49.9282C54.8596 49.9028 54.8719 49.8808 54.8719 49.8545C54.8719 48.3845 56.067 47.1894 57.537 47.1894H57.8803C59.3503 47.1894 60.5454 48.3845 60.5454 49.8545V63.2485C60.5454 66.5599 59.3538 69.7791 57.1884 72.309C57.0522 72.4688 56.9776 72.6708 56.9776 72.8798V76.798C56.9776 77.6129 56.3155 78.275 55.5006 78.275H37.4955C36.6815 78.275 36.0185 77.6129 36.0185 76.798V72.7086C36.0185 72.5075 35.9491 72.3125 35.8227 72.1562L28.2673 62.8165C27.2285 61.5318 26.7657 59.9213 26.965 58.2819C27.1644 56.6415 27.9986 55.1891 29.314 54.1907L30.8244 53.0438V58.5989C30.8244 59.0845 31.2178 59.477 31.7025 59.477C32.1873 59.477 32.5807 59.0845 32.5807 58.5989V51.2832C32.5807 51.2771 32.5807 51.2709 32.5807 51.2648V38.1921V31.852C32.5807 30.3821 33.7758 29.1869 35.2458 29.1869H35.5891C37.0591 29.1869 38.2542 30.3821 38.2542 31.852V38.0507V43.7963L38.2612 53.7305C38.2612 54.2153 38.6546 54.6078 39.1394 54.6078C39.6241 54.6078 40.0184 54.2144 40.0175 53.7288L40.0105 43.7945C40.0113 42.3272 41.2065 41.1312 42.6765 41.1312ZM40.0113 36.6686V31.8529C40.0113 29.4152 38.0277 27.4316 35.59 27.4316H35.2466C32.809 27.4316 30.8253 29.4152 30.8253 31.8529V36.8697C27.5393 35.2214 25.4073 31.8398 25.4073 28.1025C25.4073 22.6879 29.8119 18.2841 35.2256 18.2841C40.6392 18.2841 45.0439 22.6888 45.0439 28.1025C45.043 31.7142 43.1059 34.9509 40.0113 36.6686ZM63.5451 40.6763C59.3881 40.6763 56.0046 37.2938 56.0046 33.1359C56.0046 28.9788 59.3881 25.5963 63.5451 25.5963C67.7021 25.5963 71.0856 28.9788 71.0856 33.1359C71.0856 37.2938 67.703 40.6763 63.5451 40.6763Z" fill="url(#paint1_linear_14181_2123)"/>
</g>
<defs>
<linearGradient id="paint0_linear_14181_2123" x1="15" y1="6" x2="94.4232" y2="33.0218" gradientUnits="userSpaceOnUse">
<stop stop-color="#ECF6F5"/>
<stop offset="1" stop-color="#EBF0F6"/>
</linearGradient>
<linearGradient id="paint1_linear_14181_2123" x1="-4.3144" y1="19.0417" x2="154.218" y2="-20.1725" gradientUnits="userSpaceOnUse">
<stop stop-color="#46A29F"/>
<stop offset="1" stop-color="#4660A2"/>
</linearGradient>
<clipPath id="clip0_14181_2123">
<rect width="80" height="80" fill="white"/>
</clipPath>
</defs>
</svg>
