<svg width="60" height="60" viewBox="0 0 60 60" fill="none" xmlns="http://www.w3.org/2000/svg">
<path d="M54.9999 30.3204C54.9999 36.1871 44.5984 39.5959 42.9474 45.811C41.2964 52.026 38.138 54.9999 30.3996 54.9999C24.0937 54.9999 26.7675 50.5278 13.9883 48.7058C1.20921 46.8838 4.64695 39.3905 8.61374 32.5202C13.1254 23.9756 15.218 19.7252 18.4727 14.0882C21.7274 8.45119 23.0081 5.64085 30.3996 5.64085C36.5946 5.64085 44.7637 2.08352 46.5798 11.7298C48.3959 21.3761 54.9999 22.9052 54.9999 30.3204Z" fill="url(#paint0_linear)"/>
<path d="M54.9999 30.3204C54.9999 36.1871 44.5984 39.5959 42.9474 45.811C41.2964 52.026 38.138 54.9999 30.3996 54.9999C24.0937 54.9999 26.7675 50.5278 13.9883 48.7058C1.20921 46.8838 4.64695 39.3905 8.61374 32.5202C13.1254 23.9756 15.218 19.7252 18.4727 14.0882C21.7274 8.45119 23.0081 5.64085 30.3996 5.64085C36.5946 5.64085 44.7637 2.08352 46.5798 11.7298C48.3959 21.3761 54.9999 22.9052 54.9999 30.3204Z" fill="url(#paint1_linear)"/>
<g clip-path="url(#clip0)">
<path d="M34.2183 14.6906H26.7184V27.1483H34.2183V14.6906Z" fill="#DEEEEE"/>
<path d="M37.9686 27.6562L41.0713 33.2812C41.5282 35.1269 39.8436 35.1562 39.8436 35.1562L31.9042 27.0996L34.2186 22.9687L37.9686 27.6562Z" fill="#DEEEEE"/>
<path d="M37.031 42.4401L22.9687 49.6489V55.6447H37.031V42.4401Z" fill="#DEEEEE"/>
<path d="M24.8439 49.6492H22.9689V55.6454H24.8439V49.6492Z" fill="#F0F4F4"/>
<path d="M25.2346 20.6249L22.8908 23.4374L19.2186 8.90613L20.2312 7.96861L25.2346 20.6249Z" fill="#DEEEEE"/>
<path d="M20.1707 8.02499L19.2186 8.90614L22.8908 23.4374L23.7916 22.3562L20.1707 8.02499Z" fill="#F0F4F4"/>
<path d="M22.0312 55.7811H37.9685L38.906 57.6562H21.0936L22.0312 55.7811Z" fill="#DEEEEE"/>
<path d="M22.0312 55.7811L21.0936 57.6562H22.9687L23.9061 55.7811H22.0312Z" fill="#F0F4F4"/>
<path d="M19.6874 0.468697C20.4657 0.468697 21.0937 2.0342 21.0937 2.81243C21.0937 3.59067 20.4657 4.21865 19.6874 4.21865C18.9092 4.21865 18.2811 3.59067 18.2811 2.81243C18.2811 2.0342 18.9093 0.468697 19.6874 0.468697Z" fill="#F0F4F4"/>
<path d="M19.2186 2.81243C19.2186 2.19945 19.6105 1.10957 20.1561 0.669116C20.0087 0.550036 19.8532 0.468697 19.6874 0.468697C18.9092 0.468697 18.2811 2.0342 18.2811 2.81243C18.2811 3.59067 18.9092 4.21865 19.6874 4.21865C19.8532 4.21865 20.0087 4.18478 20.1561 4.13309C19.6105 3.93982 19.2186 3.42541 19.2186 2.81243Z" fill="white"/>
<path d="M20.1561 2.81243C20.1561 2.19945 19.7643 1.10957 19.2186 0.669116C19.366 0.550036 19.5217 0.468697 19.6874 0.468697C20.4656 0.468697 21.0936 2.0342 21.0936 2.81243C21.0936 3.59067 20.4656 4.21865 19.6874 4.21865C19.5217 4.21865 19.366 4.18478 19.2186 4.13309C19.7643 3.93982 20.1561 3.42541 20.1561 2.81243Z" fill="#DEEEEE"/>
<path d="M17.3437 5.15618H22.0312L21.0937 7.0311H18.2812L17.3437 5.15618Z" fill="#DEEEEE"/>
<path d="M17.3437 5.15615L18.2812 7.03107H19.2186L18.2812 5.15615H17.3437Z" fill="#F0F4F4"/>
<path d="M22.0311 5.15615L21.0936 7.03107H20.1561L21.0936 5.15615H22.0311Z" fill="#5C9EFF"/>
<path d="M34.0775 13.5937C34.0023 13.2563 33.8806 12.9372 33.7214 12.6562C33.075 11.4843 31.8565 10.7811 30.4685 10.7811C29.0807 10.7811 27.862 11.4843 27.2157 12.6562C27.0565 12.9372 26.9347 13.2563 26.8495 13.5937C26.7652 13.9406 26.7186 14.306 26.7186 14.6905C26.7186 17.053 29.044 19.2187 30.4685 19.2187C31.893 19.2187 34.2185 17.053 34.2185 14.6905C34.2185 14.306 34.1718 13.931 34.0775 13.5937Z" fill="#DEEEEE"/>
<path d="M28.5936 14.6904C28.5936 14.3059 28.6402 13.9406 28.7245 13.5936C28.8097 13.2562 28.9315 12.9371 29.0908 12.6561C29.5861 11.7575 30.4191 11.1382 31.406 10.8964C31.1058 10.8228 30.7926 10.7811 30.4685 10.7811C29.0807 10.7811 27.862 11.4842 27.2157 12.6561C27.0565 12.9371 26.9347 13.2562 26.8495 13.5936C26.7652 13.9405 26.7186 14.3059 26.7186 14.6904C26.7186 17.0529 29.044 19.2186 30.4685 19.2186C30.7532 19.2186 31.0746 19.1288 31.406 18.9714C30.0815 18.3411 28.5936 16.5806 28.5936 14.6904Z" fill="#F0F4F4"/>
<path d="M23.409 27.5531L21.0936 23.9062L24.8436 18.2812C34.809 23.6718 35.9342 28.931 35.9342 28.931C35.9342 28.931 36.815 35.7 38.0243 42.6561C38.0243 42.6561 35.7181 43.7813 33.2809 45.0373C30.5527 46.4335 27.656 47.9807 27.656 48.2719V48.2811C27.797 48.7681 28.5936 49.2186 28.5936 49.2186L22.0312 52.031L22.9687 36.0936L23.409 27.5531Z" fill="#DEEEEE"/>
<path d="M22.0312 52.0311L23.9546 51.2071L24.8436 36.0936L25.2841 27.5531L22.0677 22.4453L21.0936 23.9062L23.409 27.5531L22.9687 36.0936L22.0312 52.0311Z" fill="#F0F4F4"/>
<path d="M37.0228 36.5129L36.3985 32.2978L39.8436 27.6561L42.656 28.5937L37.0228 36.5129Z" fill="#DEEEEE"/>
<path d="M39.8429 57.6566H20.1561V59.5315H39.8429V57.6566Z" fill="#DEEEEE"/>
<path d="M22.0311 57.6566H20.1561V59.5315H22.0311V57.6566Z" fill="#F0F4F4"/>
<path d="M30.4687 19.6874C28.841 19.6874 26.2499 17.4004 26.2499 14.6905C26.2499 14.2836 26.2984 13.8771 26.3937 13.483C26.4936 13.0897 26.6327 12.735 26.8085 12.4251C27.5364 11.1039 28.906 10.3125 30.4687 10.3125C32.0315 10.3125 33.4012 11.1039 34.1317 12.4296C34.313 12.7501 34.4504 13.109 34.5355 13.4921C34.6344 13.8432 34.6875 14.2547 34.6875 14.6905C34.6875 17.4004 32.0965 19.6874 30.4687 19.6874ZM30.4687 11.2499C29.2529 11.2499 28.19 11.86 27.626 12.8828C27.4896 13.1244 27.3816 13.4004 27.3037 13.7086C27.2268 14.0257 27.1874 14.3577 27.1874 14.6904C27.1874 16.8708 29.3883 18.7498 30.4687 18.7498C31.5491 18.7498 33.75 16.8708 33.75 14.6904C33.75 14.3448 33.7069 14.0092 33.6263 13.7199C33.5557 13.4072 33.4496 13.1276 33.3141 12.8873C32.7474 11.86 31.6845 11.2499 30.4687 11.2499Z" fill="#46A29F"/>
<path d="M19.6875 4.68735C18.6539 4.68735 17.8125 3.84641 17.8125 2.81243C17.8125 1.84655 18.543 -0.00012207 19.6875 -0.00012207C20.8319 -0.00012207 21.5624 1.84655 21.5624 2.81243C21.5624 3.84641 20.7211 4.68735 19.6875 4.68735ZM19.6875 0.937396C19.3368 0.937396 18.75 2.11155 18.75 2.81243C18.75 3.32919 19.1702 3.74995 19.6875 3.74995C20.2047 3.74995 20.625 3.3293 20.625 2.81243C20.625 2.11155 20.0381 0.937396 19.6875 0.937396Z" fill="#46A29F"/>
<path d="M22.0312 5.62487H17.3437C17.0846 5.62487 16.8749 5.41519 16.8749 5.15616C16.8749 4.89703 17.0846 4.68735 17.3437 4.68735H22.0312C22.2902 4.68735 22.4999 4.89703 22.4999 5.15616C22.4999 5.41519 22.2902 5.62487 22.0312 5.62487Z" fill="#46A29F"/>
<path d="M18.2813 7.49991C18.1102 7.49991 17.9443 7.40509 17.8619 7.24077L16.9244 5.36573C16.8091 5.13413 16.9024 4.85261 17.1341 4.73669C17.3666 4.62218 17.6467 4.71466 17.763 4.94637L18.7005 6.82141C18.8158 7.053 18.7225 7.33453 18.4908 7.45044C18.4231 7.48397 18.3517 7.49991 18.2813 7.49991Z" fill="#46A29F"/>
<path d="M21.0937 7.49991L18.2813 7.49991C18.0223 7.49991 17.8123 7.29023 17.8123 7.03109C17.8123 6.77207 18.022 6.56239 18.2811 6.56239H21.0937C21.3527 6.56239 21.5624 6.77207 21.5624 7.03109C21.5624 7.29023 21.3528 7.49991 21.0937 7.49991Z" fill="#46A29F"/>
<path d="M21.0937 7.49991C21.0231 7.49991 20.9517 7.48385 20.884 7.45044C20.6524 7.33465 20.559 7.053 20.6743 6.82141L21.6118 4.94637C21.7281 4.71466 22.0101 4.62312 22.2408 4.73669C22.4724 4.85249 22.5659 5.13413 22.4505 5.36573L21.513 7.24077C21.4306 7.4052 21.2649 7.49991 21.0937 7.49991Z" fill="#46A29F"/>
<path d="M22.0312 20.6249C21.8206 20.6249 21.6292 20.483 21.5761 20.2697L18.7637 9.0197C18.7224 8.85397 18.7747 8.67863 18.9001 8.56236L19.9126 7.62485C20.0272 7.51913 20.1846 7.47752 20.3356 7.51186C20.4867 7.5462 20.6112 7.65333 20.6679 7.79749L24.3429 17.1724C24.4371 17.4138 24.3181 17.6857 24.0773 17.7799C23.8383 17.8743 23.5637 17.7561 23.4693 17.5149L20.0452 8.77943L19.7404 9.06189L22.486 20.0427C22.5482 20.2935 22.3962 20.548 22.1445 20.6107C22.1072 20.6204 22.0687 20.6249 22.0312 20.6249Z" fill="#46A29F"/>
<path d="M27.6562 48.7406C27.3971 48.7406 27.1873 48.5309 27.1873 48.2719C27.1873 47.8855 27.1873 47.6301 33.0677 44.6198C34.9674 43.6411 36.7893 42.7403 37.5025 42.3897C36.3362 35.6239 35.4783 29.0583 35.469 28.9914C35.4644 28.9804 34.2276 23.8902 24.6201 18.6936C24.3931 18.5704 24.308 18.2858 24.4315 18.0583C24.5542 17.8298 24.8398 17.7474 25.0669 17.8687C35.1065 23.3001 36.3443 28.6097 36.3927 28.8331C36.4073 28.9384 37.2927 35.7101 38.4856 42.5756C38.5212 42.7816 38.4169 42.9858 38.2301 43.0772C38.2282 43.0781 35.9267 44.2015 33.4959 45.4539C29.204 47.6512 28.2748 48.2875 28.0806 48.4695C28.0068 48.6289 27.8447 48.7406 27.6562 48.7406Z" fill="#46A29F"/>
<path d="M22.0312 52.4999C21.936 52.4999 21.8417 52.4706 21.762 52.4148C21.6292 52.3214 21.5532 52.1657 21.5633 52.0036L22.5008 36.0662L22.933 27.6782L20.6981 24.1575C20.5984 24.001 20.6011 23.8005 20.7036 23.6461L24.4537 18.0211C24.5975 17.8051 24.8895 17.7483 25.1037 17.8911C25.3188 18.0348 25.3774 18.3256 25.2337 18.5412L21.6531 23.9126L23.8046 27.3018C23.8568 27.3838 23.8824 27.4803 23.8769 27.5774L23.4366 36.1174L22.544 51.3015L27.6645 49.1069C27.4649 48.9128 27.2818 48.6747 27.2058 48.411C27.1344 48.162 27.2772 47.9019 27.5262 47.8306C27.7715 47.76 28.0343 47.9019 28.1066 48.151C28.1633 48.3468 28.5671 48.6655 28.8244 48.8102C28.9791 48.8981 29.0716 49.0666 29.0615 49.2442C29.0523 49.4217 28.9424 49.5791 28.7785 49.6488L22.216 52.4612C22.1566 52.487 22.0934 52.4999 22.0312 52.4999Z" fill="#46A29F"/>
<path d="M30.4687 11.2499C30.2096 11.2499 29.9999 11.0402 29.9999 10.781V7.03109C29.9999 6.77207 30.2094 6.56239 30.4686 6.56239C30.7276 6.56239 30.9373 6.77207 30.9373 7.03109V10.7812C30.9373 11.0402 30.7277 11.2499 30.4687 11.2499Z" fill="#46A29F"/>
<path d="M32.3436 11.7278C32.2099 11.7278 32.0773 11.6706 31.9839 11.5599C31.8181 11.3612 31.8446 11.0655 32.0425 10.8998L34.8549 8.5469C35.0527 8.37941 35.3484 8.40684 35.5159 8.6055C35.6817 8.80416 35.6552 9.09998 35.4573 9.26559L32.6449 11.6185C32.5569 11.6921 32.4497 11.7278 32.3436 11.7278Z" fill="#46A29F"/>
<path d="M26.8496 14.0624C26.6831 14.0624 26.521 13.9732 26.4367 13.8158C26.314 13.5879 26.4001 13.3035 26.6281 13.1809C26.7032 13.1401 28.4984 12.1876 30.4687 12.1876C32.4397 12.1876 34.2177 13.1415 34.2928 13.1819C34.52 13.3054 34.6041 13.5897 34.4806 13.8172C34.3569 14.0438 34.0722 14.1293 33.8451 14.0058C33.8286 13.9971 32.1964 13.125 30.4687 13.125C28.7319 13.125 27.0877 13.998 27.0711 14.0066C27.0007 14.0445 26.9247 14.0624 26.8496 14.0624Z" fill="#46A29F"/>
<path d="M36.0936 13.1249H33.7215C33.4624 13.1249 33.2527 12.9152 33.2527 12.6561C33.2527 12.3971 33.4624 12.1874 33.7215 12.1874H36.0936C36.3528 12.1874 36.5623 12.3971 36.5623 12.6561C36.5623 12.9152 36.3528 13.1249 36.0936 13.1249Z" fill="#46A29F"/>
<path d="M28.5936 11.7278C28.4874 11.7278 28.3803 11.6921 28.2925 11.6185L25.4799 9.26559C25.2822 9.09986 25.2556 8.80416 25.4213 8.6055C25.5889 8.40777 25.8837 8.38082 26.0824 8.5469L28.8949 10.8998C29.0928 11.0655 29.1192 11.3613 28.9535 11.5599C28.8601 11.6705 28.7273 11.7278 28.5936 11.7278Z" fill="#46A29F"/>
<path d="M27.2159 13.1249H24.8438C24.5848 13.1249 24.3751 12.9152 24.3751 12.6561C24.3751 12.3971 24.5848 12.1874 24.8438 12.1874H27.2159C27.475 12.1874 27.6847 12.3971 27.6847 12.6561C27.6846 12.9152 27.475 13.1249 27.2159 13.1249Z" fill="#46A29F"/>
<path d="M34.2187 21.5624C33.9595 21.5624 33.75 21.3528 33.75 21.0936L33.75 14.6904C33.75 14.4314 33.9595 14.2217 34.2187 14.2217C34.4778 14.2217 34.6875 14.4314 34.6875 14.6905L34.6875 21.0936C34.6875 21.3528 34.4778 21.5624 34.2187 21.5624Z" fill="#46A29F"/>
<path d="M37.7342 30.9374C37.6362 30.9374 37.5373 30.9067 37.4532 30.8435C37.2462 30.6883 37.2041 30.3945 37.3588 30.1875L39.4683 27.375C39.6247 27.1676 39.9196 27.1274 40.1246 27.2812C40.3316 27.4364 40.3737 27.7303 40.219 27.9372L38.1096 30.7497C38.017 30.8728 37.8761 30.9374 37.7342 30.9374Z" fill="#46A29F"/>
<path d="M42.656 29.0624C42.6067 29.0624 42.5572 29.0546 42.5077 29.0381L39.6952 28.1006C39.4499 28.0191 39.3171 27.7537 39.3987 27.5078C39.4811 27.262 39.7475 27.1311 39.992 27.2116L42.8044 28.1491C43.0498 28.2306 43.1826 28.4961 43.101 28.7419C43.0352 28.9382 42.852 29.0624 42.656 29.0624Z" fill="#46A29F"/>
<path d="M37.9686 35.6249C37.8743 35.6249 37.7792 35.5965 37.6958 35.537C37.4852 35.3868 37.4367 35.0939 37.5869 34.8833L42.2743 28.3213C42.4245 28.1103 42.7174 28.0618 42.9289 28.2123C43.1395 28.3624 43.188 28.6554 43.0379 28.866L38.3504 35.429C38.2589 35.5571 38.1142 35.6249 37.9686 35.6249Z" fill="#46A29F"/>
<path d="M39.8436 35.6249C39.5844 35.6249 39.3749 35.4152 39.3749 35.1562C39.3749 34.897 39.5844 34.6874 39.8436 34.6874C39.8455 34.6874 40.3874 34.6746 40.5687 34.3156C40.8013 33.8514 40.6511 33.4899 40.6447 33.4752C40.544 33.2399 40.6474 32.9634 40.88 32.858C41.1153 32.7518 41.3854 32.8489 41.4943 33.0797C41.5318 33.1575 41.8431 33.8642 41.4064 34.7376C41.0513 35.438 40.2565 35.6249 39.8436 35.6249Z" fill="#46A29F"/>
<path d="M37.9685 28.1248C37.8313 28.1248 37.6948 28.0644 37.6024 27.949L33.8523 23.2616C33.6913 23.0593 33.7233 22.7644 33.9255 22.6024C34.1297 22.4409 34.4237 22.4747 34.5848 22.6757L38.3348 27.3631C38.4959 27.5655 38.4639 27.8603 38.2615 28.0224C38.1746 28.0914 38.0711 28.1248 37.9685 28.1248Z" fill="#46A29F"/>
<path d="M23.409 28.0219C23.2232 28.0219 23.0474 27.9107 22.9742 27.7281C22.8791 27.4901 22.9916 27.22 23.2269 27.1211C23.2598 27.106 24.1937 26.6542 25.3756 24.6093C25.5056 24.3845 25.794 24.309 26.0156 24.4376C26.2399 24.5671 26.3168 24.8541 26.1867 25.078C24.8235 27.4378 23.7065 27.9386 23.5839 27.9881C23.5263 28.0109 23.4677 28.0219 23.409 28.0219Z" fill="#46A29F"/>
<path d="M37.9686 56.2498H22.0312C21.7721 56.2498 21.5624 56.0402 21.5624 55.7811C21.5624 55.5221 21.7721 55.3124 22.0312 55.3124H37.9686C38.2277 55.3124 38.4374 55.5221 38.4374 55.7811C38.4374 56.0402 38.2277 56.2498 37.9686 56.2498Z" fill="#46A29F"/>
<path d="M21.0936 58.1248C21.0231 58.1248 20.9517 58.1083 20.884 58.0754C20.6524 57.9601 20.559 57.6781 20.6743 57.4465L21.6118 55.5714C21.7281 55.3398 22.0101 55.2483 22.2408 55.3619C22.4724 55.4772 22.5659 55.7592 22.4505 55.9908L21.513 57.8657C21.4306 58.0296 21.2649 58.1248 21.0936 58.1248Z" fill="#46A29F"/>
<path d="M39.8436 58.1248H20.1561C19.8971 58.1248 19.6874 57.9152 19.6874 57.6561C19.6874 57.397 19.8971 57.1873 20.1561 57.1873H39.8436C40.1026 57.1873 40.3123 57.397 40.3123 57.6561C40.3123 57.9152 40.1026 58.1248 39.8436 58.1248Z" fill="#46A29F"/>
<path d="M38.906 58.1248C38.7348 58.1248 38.5691 58.0297 38.4868 57.8657L37.5493 55.9908C37.4339 55.7591 37.5272 55.4772 37.7589 55.3619C37.9914 55.2474 38.2716 55.3398 38.3879 55.5714L39.3254 57.4465C39.4407 57.6782 39.3474 57.9601 39.1157 58.0754C39.048 58.1083 38.9766 58.1248 38.906 58.1248Z" fill="#46A29F"/>
<path d="M24.8436 40.3123C24.6815 40.3123 24.5232 40.2281 24.4362 40.0761C24.3081 39.8509 24.3859 39.5653 24.6111 39.4371C30.8503 35.871 30.9373 28.6655 30.9373 28.5932C30.9382 28.3345 31.1479 28.1253 31.4061 28.1253C31.6642 28.1253 31.8748 28.335 31.8748 28.5937C31.8748 28.9108 31.7979 36.4104 25.0763 40.2501C25.003 40.2922 24.9233 40.3123 24.8436 40.3123Z" fill="#46A29F"/>
<path d="M37.0311 55.3124C36.772 55.3124 36.5624 55.1027 36.5624 54.8436V44.098C36.5624 43.8389 36.772 43.6292 37.0311 43.6292C37.2902 43.6292 37.4999 43.8389 37.4999 44.098V54.8436C37.4999 55.1027 37.2902 55.3124 37.0311 55.3124Z" fill="#46A29F"/>
<path d="M34.2187 55.3124C33.9595 55.3124 33.75 55.1027 33.75 54.8436V45.4942C33.75 45.236 33.9595 45.0255 34.2187 45.0255C34.4778 45.0255 34.6875 45.236 34.6875 45.4942V54.8436C34.6875 55.1027 34.4778 55.3124 34.2187 55.3124Z" fill="#46A29F"/>
<path d="M31.4062 55.3124C31.1471 55.3124 30.9374 55.1027 30.9374 54.8436V46.9472C30.9374 46.6882 31.1471 46.4785 31.4062 46.4785C31.6652 46.4785 31.8749 46.6882 31.8749 46.9472V54.8436C31.8749 55.1027 31.6652 55.3124 31.4062 55.3124Z" fill="#46A29F"/>
<path d="M28.5936 55.3124C28.3346 55.3124 28.1249 55.1027 28.1249 54.8436V50.1561C28.1249 49.897 28.3346 49.6874 28.5936 49.6874C28.8527 49.6874 29.0624 49.897 29.0624 50.1561V54.8436C29.0624 55.1027 28.8527 55.3124 28.5936 55.3124Z" fill="#46A29F"/>
<path d="M25.7812 55.3124C25.522 55.3124 25.3124 55.1027 25.3124 54.8436V51.4141C25.3124 51.1549 25.522 50.9452 25.7812 50.9452C26.0402 50.9452 26.2499 51.1549 26.2499 51.4141V54.8436C26.2499 55.1027 26.0403 55.3124 25.7812 55.3124Z" fill="#46A29F"/>
<path d="M22.9687 55.3124C22.7096 55.3124 22.4998 55.1027 22.4998 54.8436V52.6097C22.4998 52.3516 22.7095 52.141 22.9687 52.141C23.2278 52.141 23.4375 52.3516 23.4375 52.6097V54.8436C23.4373 55.1027 23.2277 55.3124 22.9687 55.3124Z" fill="#46A29F"/>
<path d="M27.6562 48.7453C27.3971 48.7453 27.1873 48.5402 27.1873 48.2812V45.4685C27.1873 45.2094 27.397 44.9998 27.6562 44.9998C27.9153 44.9998 28.125 45.2094 28.125 45.4685V48.2719C28.1249 48.531 27.9152 48.7453 27.6562 48.7453Z" fill="#46A29F"/>
<path d="M32.3435 21.5624C32.0845 21.5624 31.8748 21.3528 31.8748 21.0936V20.1561C31.8748 19.8971 32.0845 19.6873 32.3435 19.6873C32.6027 19.6873 32.8124 19.897 32.8124 20.1561V21.0936C32.8124 21.3528 32.6027 21.5624 32.3435 21.5624Z" fill="#46A29F"/>
<path d="M33.2811 45.5061C33.0221 45.5061 32.8124 45.2965 32.8124 45.0374V39.8438C32.8124 39.5846 33.0221 39.3749 33.2811 39.3749C33.5402 39.3749 33.7499 39.5846 33.7499 39.8438V45.0374C33.7499 45.2965 33.5402 45.5061 33.2811 45.5061Z" fill="#46A29F"/>
<path d="M20.1561 59.9999C19.8971 59.9999 19.6874 59.7902 19.6874 59.5311V57.6561C19.6874 57.397 19.8971 57.1873 20.1561 57.1873C20.4153 57.1873 20.625 57.397 20.625 57.6561V59.5311C20.625 59.7902 20.4153 59.9999 20.1561 59.9999Z" fill="#46A29F"/>
<path d="M39.8436 59.9999C39.5844 59.9999 39.3749 59.7902 39.3749 59.5311V57.6561C39.3749 57.397 39.5844 57.1873 39.8436 57.1873C40.1026 57.1873 40.3123 57.397 40.3123 57.6561V59.5311C40.3123 59.7902 40.1026 59.9999 39.8436 59.9999Z" fill="#46A29F"/>
</g>
<defs>
<linearGradient id="paint0_linear" x1="4.99992" y1="4.99989" x2="64.9622" y2="24.7425" gradientUnits="userSpaceOnUse">
<stop stop-color="#ECF6F5"/>
<stop offset="1" stop-color="#FBF6F9"/>
</linearGradient>
<linearGradient id="paint1_linear" x1="4.99992" y1="4.99989" x2="64.9622" y2="24.7425" gradientUnits="userSpaceOnUse">
<stop stop-color="#F6F6FB"/>
<stop offset="1" stop-color="#FEF3F9"/>
</linearGradient>
<clipPath id="clip0">
<rect width="60" height="60" fill="white" transform="translate(0 -0.00012207)"/>
</clipPath>
</defs>
</svg>
