<svg width="58" height="60" viewBox="0 0 58 60" fill="none" xmlns="http://www.w3.org/2000/svg">
<path d="M5.69887 47.6719L5.69891 47.672L7.7711 50.8792L7.81111 50.9411V51.0148V59.1184C7.81111 59.4672 8.09374 59.7499 8.4426 59.7499C8.79146 59.7499 9.07408 59.4672 9.07408 59.1184V50.7549C9.07408 50.6333 9.03898 50.5143 8.973 50.4121L6.75975 46.9866C6.75974 46.9865 6.75973 46.9865 6.75971 46.9865C6.57036 46.6936 6.17979 46.6096 5.88658 46.7988L5.69887 47.6719ZM5.69887 47.6719C5.50958 47.3791 5.59359 46.9882 5.88648 46.7989L5.69887 47.6719Z" fill="url(#paint0_linear_13858_2231)" stroke="white" stroke-width="0.5"/>
<mask id="path-2-inside-1_13858_2231" fill="white">
<path d="M53.9352 16.8308C53.8249 16.8308 53.7158 16.8365 53.6083 16.8472C49.1071 7.37275 39.5277 1.29004 29.0008 1.29004C26.5365 1.29004 24.0914 1.62042 21.7333 2.27189C21.264 2.40165 20.9887 2.88705 21.1183 3.35635C21.2481 3.82566 21.7335 4.10115 22.2028 3.97128C24.4082 3.36188 26.6953 3.05301 29.0009 3.05301C38.8035 3.05301 47.7276 8.69227 51.9605 17.4872C51.4077 17.9005 50.9879 18.4825 50.7785 19.1562C49.2239 15.5483 46.7793 12.3536 43.6185 9.87111C43.2356 9.57034 42.6814 9.63698 42.3808 10.0199C42.0801 10.4028 42.1468 10.957 42.5296 11.2576C46.8386 14.6417 49.713 19.4526 50.6303 24.8098V32.0009C50.6303 32.0986 50.5943 32.1925 50.5292 32.2651L49.1844 33.7634V28.5253C49.1844 17.3963 40.1302 8.34191 29.001 8.34191C17.8719 8.34191 8.81754 17.396 8.81754 28.5252V33.7633L7.47298 32.2651C7.40752 32.1924 7.37167 32.0985 7.37167 32.0008V24.8095C8.23259 19.783 10.8551 15.1789 14.7624 11.839C18.7307 8.4471 23.7874 6.57894 29.0009 6.57894C32.6708 6.57894 36.3056 7.50802 39.5124 9.26594C39.9394 9.49982 40.4751 9.34339 40.7093 8.91664C40.9431 8.48964 40.7868 7.95394 40.36 7.71982C36.8942 5.82004 32.9663 4.81586 29.001 4.81586C23.3677 4.81586 17.9042 6.8341 13.6169 10.4988C10.833 12.8785 8.65358 15.8534 7.22511 19.1618C7.01626 18.486 6.59632 17.9021 6.04228 17.4877C7.50695 14.4514 9.59982 11.6819 12.1325 9.44106C12.4972 9.11844 12.5312 8.56134 12.2085 8.19676C11.8859 7.83194 11.3288 7.79786 10.9642 8.12071C8.22283 10.5463 5.96482 13.5524 4.39625 16.8473C4.28777 16.8365 4.17788 16.8308 4.06669 16.8308C2.24426 16.8308 0.761719 18.3135 0.761719 20.1359V38.3159C0.761719 39.7404 1.17037 41.1257 1.94338 42.3223L3.44519 44.6468C3.61396 44.9078 3.89721 45.0501 4.18646 45.0501C4.35041 45.0501 4.51613 45.0043 4.66399 44.9089C5.07288 44.6447 5.19029 44.099 4.92596 43.6901L3.42415 41.3656C2.83567 40.4548 2.52469 39.4002 2.52469 38.316V20.1359C2.52469 19.2856 3.21647 18.5938 4.06669 18.5938C4.91691 18.5938 5.6087 19.2856 5.6087 20.1359V32.0008C5.6087 32.5337 5.80474 33.0458 6.16086 33.4427L8.40136 35.9389C8.29253 36.8122 8.51137 37.7233 9.0734 38.465L13.6682 44.5274C13.9623 44.9152 14.5152 44.9913 14.9032 44.6975C15.2912 44.4034 15.3673 43.8504 15.0733 43.4624L10.4785 37.4002C9.96676 36.7249 10.0326 35.7637 10.6317 35.1646C10.9602 34.8361 11.3992 34.6577 11.861 34.6654C12.3253 34.6718 12.7567 34.8612 13.0759 35.1985L19.5553 42.0475C22.1475 44.7874 23.5749 48.3736 23.5749 52.1454V59.1184C23.5749 59.6054 23.9694 59.9999 24.4564 59.9999C24.9433 59.9999 25.3378 59.6054 25.3378 59.1184V52.1454C25.3378 48.0805 23.8567 44.2084 21.1583 41.1877V28.3486C21.1583 24.0242 24.6765 20.506 29.0009 20.506C33.0217 20.506 36.3739 23.5186 36.7985 27.5134C36.85 27.9975 37.2838 28.3483 37.7683 28.2967C38.2524 28.2452 38.6031 27.8111 38.5516 27.3269C38.3027 24.9846 37.1981 22.8187 35.4415 21.228C33.6717 19.6255 31.3843 18.7429 29.0009 18.7429C23.7045 18.7429 19.3953 23.052 19.3953 28.3485V39.3131L17.6324 37.4496V28.5251C17.6324 22.2565 22.7323 17.1566 29.0009 17.1566C35.2696 17.1566 40.3695 22.2565 40.3695 28.5251V37.4496L38.6065 39.3131V37.3417C38.6065 36.8547 38.212 36.4602 37.725 36.4602C37.2381 36.4602 36.8435 36.8547 36.8435 37.3417V41.1877C34.1451 44.2084 32.664 48.0805 32.664 52.1454V59.1184C32.664 59.6054 33.0586 59.9999 33.5455 59.9999C34.0324 59.9999 34.427 59.6054 34.427 59.1184V52.1454C34.427 48.3736 35.8545 44.7875 38.4466 42.0475L44.9259 35.1985C45.2451 34.8612 45.6766 34.6718 46.1408 34.6654C46.6011 34.6577 47.0417 34.8361 47.3701 35.1646C47.9693 35.7637 48.0351 36.7247 47.5234 37.4001L42.9286 43.4624C42.6345 43.8504 42.7107 44.4034 43.0987 44.6975C43.4869 44.9914 44.0395 44.9154 44.3337 44.5274L48.9285 38.465C49.4905 37.7233 49.7093 36.8122 49.6005 35.9389L51.8412 33.4426C52.1971 33.0458 52.3932 32.5338 52.3932 32.0008V20.1359C52.3932 19.2856 53.0849 18.5938 53.9352 18.5938C54.7854 18.5938 55.4772 19.2856 55.4772 20.1359V25.833C55.4772 26.3199 55.8717 26.7145 56.3587 26.7145C56.8456 26.7145 57.2401 26.3199 57.2401 25.833V20.1359C57.2401 18.3135 55.7576 16.8308 53.9352 16.8308ZM43.6452 33.9869L42.1323 35.586V28.5251C42.1323 21.2844 36.2416 15.3937 29.0008 15.3937C21.7601 15.3937 15.8693 21.2843 15.8693 28.5251V35.586L14.3564 33.9869C14.2765 33.9023 14.1929 33.8224 14.1063 33.7472V28.5251C14.1063 20.3123 20.788 13.6307 29.0008 13.6307C37.2136 13.6307 43.8953 20.3123 43.8953 28.5251V33.7472C43.8087 33.8225 43.7251 33.9023 43.6452 33.9869ZM46.1163 32.9025C45.9615 32.9047 45.8087 32.9178 45.6583 32.9396V28.5252C45.6583 19.3404 38.1858 11.8678 29.0008 11.8678C19.8159 11.8678 12.3434 19.3402 12.3434 28.5252V32.9396C12.1928 32.9178 12.0401 32.9047 11.8853 32.9025C11.4308 32.8985 10.9901 32.9796 10.5804 33.1382V28.5252C10.5804 18.3681 18.8438 10.1048 29.0008 10.1048C39.1579 10.1048 47.4212 18.3681 47.4212 28.5252V33.1384C47.0112 32.9796 46.5702 32.8984 46.1163 32.9025Z"/>
</mask>
<path d="M53.9352 16.8308C53.8249 16.8308 53.7158 16.8365 53.6083 16.8472C49.1071 7.37275 39.5277 1.29004 29.0008 1.29004C26.5365 1.29004 24.0914 1.62042 21.7333 2.27189C21.264 2.40165 20.9887 2.88705 21.1183 3.35635C21.2481 3.82566 21.7335 4.10115 22.2028 3.97128C24.4082 3.36188 26.6953 3.05301 29.0009 3.05301C38.8035 3.05301 47.7276 8.69227 51.9605 17.4872C51.4077 17.9005 50.9879 18.4825 50.7785 19.1562C49.2239 15.5483 46.7793 12.3536 43.6185 9.87111C43.2356 9.57034 42.6814 9.63698 42.3808 10.0199C42.0801 10.4028 42.1468 10.957 42.5296 11.2576C46.8386 14.6417 49.713 19.4526 50.6303 24.8098V32.0009C50.6303 32.0986 50.5943 32.1925 50.5292 32.2651L49.1844 33.7634V28.5253C49.1844 17.3963 40.1302 8.34191 29.001 8.34191C17.8719 8.34191 8.81754 17.396 8.81754 28.5252V33.7633L7.47298 32.2651C7.40752 32.1924 7.37167 32.0985 7.37167 32.0008V24.8095C8.23259 19.783 10.8551 15.1789 14.7624 11.839C18.7307 8.4471 23.7874 6.57894 29.0009 6.57894C32.6708 6.57894 36.3056 7.50802 39.5124 9.26594C39.9394 9.49982 40.4751 9.34339 40.7093 8.91664C40.9431 8.48964 40.7868 7.95394 40.36 7.71982C36.8942 5.82004 32.9663 4.81586 29.001 4.81586C23.3677 4.81586 17.9042 6.8341 13.6169 10.4988C10.833 12.8785 8.65358 15.8534 7.22511 19.1618C7.01626 18.486 6.59632 17.9021 6.04228 17.4877C7.50695 14.4514 9.59982 11.6819 12.1325 9.44106C12.4972 9.11844 12.5312 8.56134 12.2085 8.19676C11.8859 7.83194 11.3288 7.79786 10.9642 8.12071C8.22283 10.5463 5.96482 13.5524 4.39625 16.8473C4.28777 16.8365 4.17788 16.8308 4.06669 16.8308C2.24426 16.8308 0.761719 18.3135 0.761719 20.1359V38.3159C0.761719 39.7404 1.17037 41.1257 1.94338 42.3223L3.44519 44.6468C3.61396 44.9078 3.89721 45.0501 4.18646 45.0501C4.35041 45.0501 4.51613 45.0043 4.66399 44.9089C5.07288 44.6447 5.19029 44.099 4.92596 43.6901L3.42415 41.3656C2.83567 40.4548 2.52469 39.4002 2.52469 38.316V20.1359C2.52469 19.2856 3.21647 18.5938 4.06669 18.5938C4.91691 18.5938 5.6087 19.2856 5.6087 20.1359V32.0008C5.6087 32.5337 5.80474 33.0458 6.16086 33.4427L8.40136 35.9389C8.29253 36.8122 8.51137 37.7233 9.0734 38.465L13.6682 44.5274C13.9623 44.9152 14.5152 44.9913 14.9032 44.6975C15.2912 44.4034 15.3673 43.8504 15.0733 43.4624L10.4785 37.4002C9.96676 36.7249 10.0326 35.7637 10.6317 35.1646C10.9602 34.8361 11.3992 34.6577 11.861 34.6654C12.3253 34.6718 12.7567 34.8612 13.0759 35.1985L19.5553 42.0475C22.1475 44.7874 23.5749 48.3736 23.5749 52.1454V59.1184C23.5749 59.6054 23.9694 59.9999 24.4564 59.9999C24.9433 59.9999 25.3378 59.6054 25.3378 59.1184V52.1454C25.3378 48.0805 23.8567 44.2084 21.1583 41.1877V28.3486C21.1583 24.0242 24.6765 20.506 29.0009 20.506C33.0217 20.506 36.3739 23.5186 36.7985 27.5134C36.85 27.9975 37.2838 28.3483 37.7683 28.2967C38.2524 28.2452 38.6031 27.8111 38.5516 27.3269C38.3027 24.9846 37.1981 22.8187 35.4415 21.228C33.6717 19.6255 31.3843 18.7429 29.0009 18.7429C23.7045 18.7429 19.3953 23.052 19.3953 28.3485V39.3131L17.6324 37.4496V28.5251C17.6324 22.2565 22.7323 17.1566 29.0009 17.1566C35.2696 17.1566 40.3695 22.2565 40.3695 28.5251V37.4496L38.6065 39.3131V37.3417C38.6065 36.8547 38.212 36.4602 37.725 36.4602C37.2381 36.4602 36.8435 36.8547 36.8435 37.3417V41.1877C34.1451 44.2084 32.664 48.0805 32.664 52.1454V59.1184C32.664 59.6054 33.0586 59.9999 33.5455 59.9999C34.0324 59.9999 34.427 59.6054 34.427 59.1184V52.1454C34.427 48.3736 35.8545 44.7875 38.4466 42.0475L44.9259 35.1985C45.2451 34.8612 45.6766 34.6718 46.1408 34.6654C46.6011 34.6577 47.0417 34.8361 47.3701 35.1646C47.9693 35.7637 48.0351 36.7247 47.5234 37.4001L42.9286 43.4624C42.6345 43.8504 42.7107 44.4034 43.0987 44.6975C43.4869 44.9914 44.0395 44.9154 44.3337 44.5274L48.9285 38.465C49.4905 37.7233 49.7093 36.8122 49.6005 35.9389L51.8412 33.4426C52.1971 33.0458 52.3932 32.5338 52.3932 32.0008V20.1359C52.3932 19.2856 53.0849 18.5938 53.9352 18.5938C54.7854 18.5938 55.4772 19.2856 55.4772 20.1359V25.833C55.4772 26.3199 55.8717 26.7145 56.3587 26.7145C56.8456 26.7145 57.2401 26.3199 57.2401 25.833V20.1359C57.2401 18.3135 55.7576 16.8308 53.9352 16.8308ZM43.6452 33.9869L42.1323 35.586V28.5251C42.1323 21.2844 36.2416 15.3937 29.0008 15.3937C21.7601 15.3937 15.8693 21.2843 15.8693 28.5251V35.586L14.3564 33.9869C14.2765 33.9023 14.1929 33.8224 14.1063 33.7472V28.5251C14.1063 20.3123 20.788 13.6307 29.0008 13.6307C37.2136 13.6307 43.8953 20.3123 43.8953 28.5251V33.7472C43.8087 33.8225 43.7251 33.9023 43.6452 33.9869ZM46.1163 32.9025C45.9615 32.9047 45.8087 32.9178 45.6583 32.9396V28.5252C45.6583 19.3404 38.1858 11.8678 29.0008 11.8678C19.8159 11.8678 12.3434 19.3402 12.3434 28.5252V32.9396C12.1928 32.9178 12.0401 32.9047 11.8853 32.9025C11.4308 32.8985 10.9901 32.9796 10.5804 33.1382V28.5252C10.5804 18.3681 18.8438 10.1048 29.0008 10.1048C39.1579 10.1048 47.4212 18.3681 47.4212 28.5252V33.1384C47.0112 32.9796 46.5702 32.8984 46.1163 32.9025Z" fill="url(#paint1_linear_13858_2231)" stroke="white" mask="url(#path-2-inside-1_13858_2231)"/>
<path d="M50.1927 50.9409L50.2327 50.879L55.8487 42.1864C56.5955 41.0302 56.9903 39.692 56.9903 38.3157V29.5895C56.9903 29.5895 56.9903 29.5895 56.9903 29.5894C56.9902 29.2408 56.7074 28.9581 56.3587 28.9581C56.0098 28.9581 55.7272 29.2407 55.7272 29.5896V38.3158C55.7272 39.4482 55.4023 40.5498 54.7877 41.501L50.1927 50.9409ZM50.1927 50.9409V51.0147V59.1182C50.1927 59.4671 49.91 59.7497 49.5612 59.7497C49.2123 59.7497 48.9297 59.4671 48.9297 59.1182V50.7547C48.9297 50.6332 48.9648 50.5142 49.0307 50.412C49.0307 50.412 49.0307 50.4119 49.0308 50.4119L54.7877 41.501L50.1927 50.9409Z" fill="url(#paint2_linear_13858_2231)" stroke="white" stroke-width="0.5"/>
<path d="M17.4864 1.56284C18.1712 2.31267 18.1712 3.53165 17.4864 4.28148L15.0003 7L12.5145 4.28136C11.8285 3.53165 11.8285 2.31256 12.5145 1.56273C13.2001 0.812425 14.3143 0.812425 15.0003 1.56273C15.6858 0.812542 16.8001 0.812542 17.4864 1.56284Z" fill="#DEEEEE"/>
<path d="M37.4864 31.5628C38.1712 32.3127 38.1712 33.5316 37.4864 34.2815L35.0003 37L32.5145 34.2814C31.8285 33.5316 31.8285 32.3126 32.5145 31.5627C33.2001 30.8124 34.3143 30.8124 35.0003 31.5627C35.6858 30.8125 36.8001 30.8125 37.4864 31.5628Z" fill="#DEEEEE"/>
<path d="M15.623 7.40579L15.6231 7.40574L18.3164 4.71253C18.3164 4.71252 18.3164 4.71252 18.3164 4.71252C19.3359 3.69289 19.3359 2.03333 18.3164 1.01383L18.3164 1.01382C17.4421 0.139424 16.0851 0.0144215 15.0733 0.645246L14.9411 0.727716L14.8088 0.645244C13.7992 0.0157476 12.4466 0.140204 11.5732 1.01371L11.5732 1.01371C10.5537 2.03333 10.5537 3.6929 11.5732 4.71252L15.623 7.40579ZM15.623 7.40579C15.4416 7.58733 15.2015 7.68676 14.9448 7.68676C14.6882 7.68676 14.4481 7.58726 14.2666 7.40586C14.2665 7.40585 14.2665 7.40583 14.2665 7.40582L11.5732 4.71253L15.623 7.40579ZM14.4478 1.97469L14.4483 1.97516C14.7184 2.24286 15.1604 2.24364 15.4307 1.97795L15.4308 1.97779L15.5126 1.89752L15.5127 1.89741C16.0428 1.37789 16.8988 1.38216 17.4235 1.90682C17.6784 2.1618 17.8197 2.50227 17.8197 2.86306C17.8197 3.2239 17.6784 3.56418 17.4236 3.81932L17.4235 3.81942L15.1218 6.12115L14.9451 6.29794L14.7683 6.12115L12.4667 3.8194C11.9389 3.29219 11.9389 2.43432 12.4664 1.90698C12.4664 1.90695 12.4665 1.90692 12.4665 1.90688M14.4478 1.97469L12.4665 1.90688M14.4478 1.97469L14.3721 1.89995C14.372 1.89995 14.372 1.89994 14.372 1.89994C14.1093 1.64086 13.7652 1.51191 13.4228 1.51191C13.0772 1.51191 12.73 1.64329 12.4665 1.90688M14.4478 1.97469L12.4665 1.90688" fill="url(#paint3_linear_13858_2231)" stroke="white" stroke-width="0.5"/>
<path d="M34.2395 31.1266L34.2396 31.1266C34.5086 31.3921 34.95 31.3937 35.2217 31.1279C35.2218 31.1278 35.2218 31.1277 35.2219 31.1277L35.3029 31.0482L35.3029 31.0482C35.8328 30.5284 36.6891 30.5328 37.2138 31.0574C37.7413 31.5847 37.7413 32.4424 37.2138 32.9699L34.9121 35.2717L34.7353 35.4485L34.5585 35.2717L32.2568 32.9699C32.2568 32.9699 32.2568 32.9699 32.2568 32.9699C32.0018 32.7148 31.8607 32.3743 31.8607 32.0136C31.8607 31.6529 32.0018 31.3125 32.2569 31.0574L34.2395 31.1266ZM34.2395 31.1266L34.1629 31.051C34.1629 31.051 34.1629 31.051 34.1629 31.051C33.8999 30.7916 33.5557 30.6625 33.2131 30.6625C32.8675 30.6625 32.5203 30.7939 32.2569 31.0574L34.2395 31.1266ZM34.5991 29.7959L34.7314 29.8784L34.8637 29.7959C35.8759 29.1648 37.2324 29.2901 38.1068 30.1643C39.1264 31.1839 39.1264 32.8435 38.1069 33.8631C38.1069 33.8631 38.1069 33.8631 38.1069 33.8631L35.4136 36.5564C35.2321 36.7379 34.992 36.8373 34.7353 36.8373C34.4787 36.8373 34.2386 36.7378 34.0571 36.5564C34.0571 36.5564 34.057 36.5564 34.057 36.5564L31.3637 33.8629L31.3637 33.8628C30.8694 33.3687 30.5977 32.7126 30.5977 32.0136C30.5977 31.3147 30.8695 30.6585 31.3638 30.1643L31.3639 30.1643C32.2371 29.2909 33.5898 29.1663 34.5991 29.7959Z" fill="url(#paint4_linear_13858_2231)" stroke="white" stroke-width="0.5"/>
<defs>
<linearGradient id="paint0_linear_13858_2231" x1="4.66435" y1="49.5414" x2="14.7478" y2="48.6629" gradientUnits="userSpaceOnUse">
<stop stop-color="#46A29F"/>
<stop offset="1" stop-color="#4660A2"/>
</linearGradient>
<linearGradient id="paint1_linear_13858_2231" x1="-8.94353" y1="14.6922" x2="124.478" y2="-23.4167" gradientUnits="userSpaceOnUse">
<stop stop-color="#46A29F"/>
<stop offset="1" stop-color="#4660A2"/>
</linearGradient>
<linearGradient id="paint2_linear_13858_2231" x1="47.2086" y1="35.8512" x2="68.9382" y2="34.0862" gradientUnits="userSpaceOnUse">
<stop stop-color="#46A29F"/>
<stop offset="1" stop-color="#4660A2"/>
</linearGradient>
<linearGradient id="paint3_linear_13858_2231" x1="9.05113" y1="1.81174" x2="29.2861" y2="-4.82887" gradientUnits="userSpaceOnUse">
<stop stop-color="#46A29F"/>
<stop offset="1" stop-color="#4660A2"/>
</linearGradient>
<linearGradient id="paint4_linear_13858_2231" x1="28.84" y1="30.9623" x2="49.0776" y2="24.3197" gradientUnits="userSpaceOnUse">
<stop stop-color="#46A29F"/>
<stop offset="1" stop-color="#4660A2"/>
</linearGradient>
</defs>
</svg>
