<svg width="60" height="60" viewBox="0 0 60 60" fill="none" xmlns="http://www.w3.org/2000/svg">
<path d="M54.9999 30.3204C54.9999 36.1871 44.5984 39.5959 42.9474 45.811C41.2964 52.026 38.138 54.9999 30.3996 54.9999C24.0937 54.9999 26.7674 50.5278 13.9883 48.7058C1.2092 46.8838 4.64693 39.3905 8.61373 32.5202C13.1254 23.9756 15.218 19.7252 18.4727 14.0882C21.7274 8.4512 23.0081 5.64086 30.3996 5.64086C36.5946 5.64086 44.7637 2.08353 46.5798 11.7298C48.3959 21.3761 54.9999 22.9052 54.9999 30.3204Z" fill="url(#paint0_linear)"/>
<path d="M54.9999 30.3204C54.9999 36.1871 44.5984 39.5959 42.9474 45.811C41.2964 52.026 38.138 54.9999 30.3996 54.9999C24.0937 54.9999 26.7674 50.5278 13.9883 48.7058C1.2092 46.8838 4.64693 39.3905 8.61373 32.5202C13.1254 23.9756 15.218 19.7252 18.4727 14.0882C21.7274 8.4512 23.0081 5.64086 30.3996 5.64086C36.5946 5.64086 44.7637 2.08353 46.5798 11.7298C48.3959 21.3761 54.9999 22.9052 54.9999 30.3204Z" fill="url(#paint1_linear)"/>
<g clip-path="url(#clip0)">
<path d="M16.4062 40.7812H0.468719V39.8437C0.468719 39.3283 0.890815 38.9062 1.40621 38.9062H15.4687C15.9841 38.9062 16.4062 39.3283 16.4062 39.8437V40.7812Z" fill="#F0F4F4"/>
<path d="M14.531 42.6557H2.34406V47.3431H14.531V42.6557Z" fill="#DEEEEE"/>
<path d="M5.15654 49.2186H2.34406V53.9061H5.15654V49.2186Z" fill="#DEEEEE"/>
<path d="M9.84401 49.2186H7.03152V53.9061H9.84401V49.2186Z" fill="#DEEEEE"/>
<path d="M14.5315 49.2186H11.719V53.9061H14.5315V49.2186Z" fill="#DEEEEE"/>
<path d="M5.15619 53.906V49.2185H2.34371V53.906H5.15619ZM9.84366 53.906V49.2185H7.03118V53.906H9.84366ZM14.5313 47.3436V42.6561H2.34371V47.3436H14.5313ZM14.5313 53.906V49.2185H11.7188V53.906H14.5313ZM16.4062 40.7811V59.5311H0.468719V40.7811H16.4062Z" fill="white"/>
<path d="M29.0621 53.9061H23.9059V57.656H29.0621V53.9061Z" fill="#DEEEEE"/>
<path d="M36.0936 52.031V48.281H30.9375V52.031H36.0936ZM23.9062 46.4061H29.0625V42.6561H23.9062V46.4061ZM23.9062 57.656H29.0625V53.906H23.9062V57.656ZM22.0312 40.7811H37.9686V59.5311H22.0312V40.7811Z" fill="white"/>
<path d="M36.0938 48.2809H30.9377V52.0308H36.0938V48.2809Z" fill="#DEEEEE"/>
<path d="M29.0621 42.6557H23.9059V46.4056H29.0621V42.6557Z" fill="#DEEEEE"/>
<path d="M57.656 44.5311H45.469V50.1561H57.656V44.5311Z" fill="#DEEEEE"/>
<path d="M57.6561 50.156V44.5311H45.4687V50.156H57.6561ZM43.5937 59.531V40.7811H59.5312V59.5311H43.5937V59.531Z" fill="white"/>
<path d="M43.5937 39.8435C43.5937 39.3281 44.0159 38.9061 44.5312 38.9061H58.5937C59.1092 38.9061 59.5312 39.3281 59.5312 39.8435V40.781H43.5937V39.8435Z" fill="#F0F4F4"/>
<path d="M22.9687 38.9061H37.0311C37.5466 38.9061 37.9686 39.3281 37.9686 39.8435V40.781H22.0312V39.8435C22.0312 39.3281 22.4533 38.9061 22.9687 38.9061Z" fill="#F0F4F4"/>
<path d="M15.9375 0.468613H44.0625C44.5778 0.468613 45 0.890825 45 1.40611V2.3436H15V1.40611C15 0.890708 15.422 0.468613 15.9375 0.468613Z" fill="#F0F4F4"/>
<path d="M19.6876 13.5936C20.203 13.5936 20.625 14.0157 20.625 14.5311C20.625 15.0465 20.203 15.4686 19.6876 15.4686C19.1722 15.4686 18.7501 15.0465 18.7501 14.5311C18.7501 14.0157 19.1722 13.5936 19.6876 13.5936Z" fill="white"/>
<path d="M21.5625 17.3435L22.9504 19.4154L22.5 20.1561H19.6875L21.5625 17.3435Z" fill="#F0F4F4"/>
<path d="M22.9504 19.4154L25.3125 15.4685L28.1249 20.1561H22.5L22.9504 19.4154Z" fill="#F0F4F4"/>
<path d="M19.6875 15.4685C20.2029 15.4685 20.625 15.0465 20.625 14.5311C20.625 14.0157 20.2029 13.5936 19.6875 13.5936C19.1721 13.5936 18.7501 14.0157 18.7501 14.5311C18.7501 15.0465 19.1721 15.4685 19.6875 15.4685ZM21.5625 17.3435L19.6875 20.156H16.8751V11.7186H29.0625V20.156H28.125L25.3125 15.4685L22.9505 19.4155L21.5625 17.3435Z" fill="#DEEEEE"/>
<path d="M16.875 9.84358H43.125V4.21862H16.875V9.84358ZM29.0624 20.1561V11.7187H16.875V20.1561H19.6875H22.5H28.125H29.0624ZM45 22.0311H15V2.34363H45V22.0311Z" fill="white"/>
<path d="M43.1246 4.21809H16.8752V9.84306H43.1246V4.21809Z" fill="#DEEEEE"/>
<path d="M24.8448 53.9061H23.9059V57.656H24.8448V53.9061Z" fill="#F0F4F4"/>
<path d="M24.8448 42.6557H23.9059V46.4056H24.8448V42.6557Z" fill="#F0F4F4"/>
<path d="M31.8766 48.2809H30.9377V52.0308H31.8766V48.2809Z" fill="#F0F4F4"/>
<path d="M3.28296 49.2186H2.34406V53.9061H3.28296V49.2186Z" fill="#F0F4F4"/>
<path d="M7.97043 49.2186H7.03152V53.9061H7.97043V49.2186Z" fill="#F0F4F4"/>
<path d="M12.6579 49.2186H11.719V53.9061H12.6579V49.2186Z" fill="#F0F4F4"/>
<path d="M46.4079 44.5311H45.469V50.1561H46.4079V44.5311Z" fill="#F0F4F4"/>
<path d="M3.28296 42.6557H2.34406V47.349H3.28296V42.6557Z" fill="#D7E9FF"/>
<path d="M17.8127 4.21809H16.8752V9.84306H17.8127V4.21809Z" fill="#F0F4F4"/>
<path d="M17.8127 11.7188H16.8752V20.1562H17.8127V11.7188Z" fill="#F0F4F4"/>
<path d="M16.875 0.468613H15.9375C15.4221 0.468613 15 0.890825 15 1.40611V2.3436H15.9375V1.40611C15.9375 0.890708 16.3595 0.468613 16.875 0.468613Z" fill="white"/>
<path d="M2.34371 38.906H1.40621C0.890815 38.906 0.468719 39.3281 0.468719 39.8435V40.781H1.40621V39.8435C1.40621 39.3281 1.82831 38.906 2.34371 38.906Z" fill="white"/>
<path d="M23.9062 38.906H22.9687C22.4533 38.906 22.0312 39.3281 22.0312 39.8435V40.781H22.9687V39.8435C22.9687 39.3281 23.3908 38.906 23.9062 38.906Z" fill="white"/>
<path d="M45.4687 38.906H44.5312C44.0159 38.906 43.5937 39.3281 43.5937 39.8435V40.781H44.5312V39.8435C44.5312 39.3281 44.9533 38.906 45.4687 38.906Z" fill="white"/>
<path d="M16.9035 1.87484C16.6443 1.87484 16.4302 1.66526 16.4302 1.40609C16.4302 1.14705 16.6352 0.937347 16.8934 0.937347H16.9035C17.1616 0.937347 17.3722 1.14705 17.3722 1.40609C17.3722 1.66526 17.1616 1.87484 16.9035 1.87484Z" fill="url(#paint2_linear)"/>
<path d="M18.7783 1.87484C18.5191 1.87484 18.305 1.66526 18.305 1.40609C18.305 1.14705 18.51 0.937347 18.7682 0.937347H18.7783C19.0364 0.937347 19.2471 1.14705 19.2471 1.40609C19.2471 1.66526 19.0364 1.87484 18.7783 1.87484Z" fill="url(#paint3_linear)"/>
<path d="M20.6533 1.87484C20.3942 1.87484 20.18 1.66526 20.18 1.40609C20.18 1.14705 20.385 0.937347 20.6433 0.937347H20.6533C20.9115 0.937347 21.1221 1.14705 21.1221 1.40609C21.1221 1.66526 20.9115 1.87484 20.6533 1.87484Z" fill="url(#paint4_linear)"/>
<path d="M24.4034 40.3124C24.1443 40.3124 23.9301 40.1027 23.9301 39.8437C23.9301 39.5846 24.1351 39.3749 24.3933 39.3749H24.4033C24.6615 39.3749 24.872 39.5846 24.872 39.8437C24.872 40.1027 24.6616 40.3124 24.4034 40.3124Z" fill="url(#paint5_linear)"/>
<path d="M26.2783 40.3124C26.0192 40.3124 25.8049 40.1027 25.8049 39.8437C25.8049 39.5846 26.0101 39.3749 26.2682 39.3749H26.2783C26.5365 39.3749 26.747 39.5846 26.747 39.8437C26.747 40.1027 26.5365 40.3124 26.2783 40.3124Z" fill="url(#paint6_linear)"/>
<path d="M28.1533 40.3124C27.8942 40.3124 27.68 40.1027 27.68 39.8437C27.68 39.5846 27.8851 39.3749 28.1432 39.3749H28.1533C28.4115 39.3749 28.622 39.5846 28.622 39.8437C28.622 40.1027 28.4115 40.3124 28.1533 40.3124Z" fill="url(#paint7_linear)"/>
<path d="M2.84084 40.3124C2.58179 40.3124 2.36752 40.1027 2.36752 39.8437C2.36752 39.5846 2.57265 39.3749 2.83076 39.3749H2.84084C3.09907 39.3749 3.30959 39.5846 3.30959 39.8437C3.30959 40.1027 3.09907 40.3124 2.84084 40.3124Z" fill="url(#paint8_linear)"/>
<path d="M4.71584 40.3124C4.45679 40.3124 4.24252 40.1027 4.24252 39.8437C4.24252 39.5846 4.44765 39.3749 4.70576 39.3749H4.71584C4.97395 39.3749 5.18459 39.5846 5.18459 39.8437C5.18459 40.1027 4.97407 40.3124 4.71584 40.3124Z" fill="url(#paint9_linear)"/>
<path d="M6.5909 40.3124C6.33186 40.3124 6.11758 40.1027 6.11758 39.8437C6.11758 39.5846 6.32271 39.3749 6.58082 39.3749H6.5909C6.84901 39.3749 7.05965 39.5846 7.05965 39.8437C7.05965 40.1027 6.84901 40.3124 6.5909 40.3124Z" fill="url(#paint10_linear)"/>
<path d="M45.4971 58.1248C45.2382 58.1248 45.0239 57.9151 45.0239 57.656C45.0239 57.3968 45.229 57.1873 45.487 57.1873H45.4971C45.7553 57.1873 45.966 57.3968 45.966 57.656C45.966 57.9151 45.7553 58.1248 45.4971 58.1248Z" fill="url(#paint11_linear)"/>
<path d="M47.372 58.1248C47.113 58.1248 46.8988 57.9151 46.8988 57.656C46.8988 57.3968 47.1039 57.1873 47.3619 57.1873H47.372C47.6302 57.1873 47.8408 57.3968 47.8408 57.656C47.8408 57.9151 47.6302 58.1248 47.372 58.1248Z" fill="url(#paint12_linear)"/>
<path d="M49.2469 58.1248C48.988 58.1248 48.7737 57.9151 48.7737 57.656C48.7737 57.3968 48.9789 57.1873 49.2369 57.1873H49.2469C49.5052 57.1873 49.7158 57.3968 49.7158 57.656C49.7158 57.9151 49.5052 58.1248 49.2469 58.1248Z" fill="url(#paint13_linear)"/>
<path d="M45.9659 40.3124C45.7068 40.3124 45.4925 40.1027 45.4925 39.8437C45.4925 39.5846 45.6976 39.3749 45.9558 39.3749H45.9659C46.2242 39.3749 46.4346 39.5846 46.4346 39.8437C46.4346 40.1027 46.2242 40.3124 45.9659 40.3124Z" fill="url(#paint14_linear)"/>
<path d="M47.8408 40.3124C47.5816 40.3124 47.3674 40.1027 47.3674 39.8437C47.3674 39.5846 47.5725 39.3749 47.8307 39.3749H47.8408C48.099 39.3749 48.3094 39.5846 48.3094 39.8437C48.3094 40.1027 48.099 40.3124 47.8408 40.3124Z" fill="url(#paint15_linear)"/>
<path d="M49.7157 40.3124C49.4565 40.3124 49.2422 40.1027 49.2422 39.8437C49.2422 39.5846 49.4473 39.3749 49.7056 39.3749H49.7157C49.9739 39.3749 50.1843 39.5846 50.1843 39.8437C50.1843 40.1027 49.9739 40.3124 49.7157 40.3124Z" fill="url(#paint16_linear)"/>
<path d="M45 2.81236C44.7409 2.81236 44.5312 2.60278 44.5312 2.34361V1.40612C44.5312 1.14801 44.3208 0.937372 44.0625 0.937372H15.9376C15.6794 0.937372 15.4688 1.14801 15.4688 1.40612V2.34361C15.4688 2.60278 15.2591 2.81236 15.0001 2.81236C14.7409 2.81236 14.5313 2.60278 14.5313 2.34361V1.40612C14.5313 0.630735 15.1621 -0.00012207 15.9376 -0.00012207H44.0625C44.8379 -0.00012207 45.4687 0.630735 45.4687 1.40612V2.34361C45.4687 2.60278 45.2592 2.81236 45 2.81236Z" fill="url(#paint17_linear)"/>
<path d="M45 22.4999H15.0001C14.7409 22.4999 14.5313 22.2903 14.5313 22.0311V2.34363C14.5313 2.08458 14.7409 1.87488 15.0001 1.87488H45C45.2592 1.87488 45.4687 2.08458 45.4687 2.34363V22.0311C45.4687 22.2903 45.2592 22.4999 45 22.4999ZM15.4688 21.5624H44.5312V2.81237H15.4688V21.5624Z" fill="url(#paint18_linear)"/>
<path d="M43.1249 10.3124H16.875C16.6158 10.3124 16.4062 10.1028 16.4062 9.84361V4.21864C16.4062 3.95959 16.6158 3.74989 16.875 3.74989H43.1249C43.3841 3.74989 43.5936 3.95959 43.5936 4.21864V9.84361C43.5936 10.1028 43.3841 10.3124 43.1249 10.3124ZM17.3437 9.37486H42.6561V4.68739H17.3437V9.37486Z" fill="url(#paint19_linear)"/>
<path d="M40.3126 7.49987H19.6876C19.4284 7.49987 19.2188 7.29029 19.2188 7.03113C19.2188 6.77208 19.4284 6.56238 19.6876 6.56238H40.3126C40.5717 6.56238 40.7812 6.77208 40.7812 7.03113C40.7812 7.29029 40.5716 7.49987 40.3126 7.49987Z" fill="url(#paint20_linear)"/>
<path d="M43.1249 13.1248H30.9374C30.6782 13.1248 30.4685 12.9152 30.4685 12.656C30.4685 12.397 30.6782 12.1873 30.9374 12.1873H43.1249C43.3841 12.1873 43.5935 12.397 43.5935 12.656C43.5935 12.9152 43.3841 13.1248 43.1249 13.1248Z" fill="url(#paint21_linear)"/>
<path d="M43.1249 14.9998H30.9374C30.6782 14.9998 30.4685 14.7902 30.4685 14.5311C30.4685 14.272 30.6782 14.0623 30.9374 14.0623H43.1249C43.3841 14.0623 43.5935 14.272 43.5935 14.5311C43.5935 14.7902 43.3841 14.9998 43.1249 14.9998Z" fill="url(#paint22_linear)"/>
<path d="M43.1249 16.8747H30.9374C30.6782 16.8747 30.4685 16.6652 30.4685 16.406C30.4685 16.1469 30.6782 15.9372 30.9374 15.9372H43.1249C43.3841 15.9372 43.5935 16.1469 43.5935 16.406C43.5935 16.6652 43.3841 16.8747 43.1249 16.8747Z" fill="url(#paint23_linear)"/>
<path d="M37.031 18.7498H30.9374C30.6782 18.7498 30.4685 18.5402 30.4685 18.281C30.4685 18.022 30.6782 17.8123 30.9374 17.8123H37.031C37.2901 17.8123 37.4998 18.022 37.4998 18.281C37.4998 18.5402 37.2901 18.7498 37.031 18.7498Z" fill="url(#paint24_linear)"/>
<path d="M29.0624 20.6248H16.875C16.6158 20.6248 16.4062 20.4152 16.4062 20.1561V11.7186C16.4062 11.4596 16.6158 11.2499 16.875 11.2499H29.0624C29.3214 11.2499 29.5311 11.4596 29.5311 11.7186V20.1561C29.5311 20.4151 29.3214 20.6248 29.0624 20.6248ZM17.3437 19.6872H28.5936V12.1873H17.3437V19.6872Z" fill="url(#paint25_linear)"/>
<path d="M28.125 20.6249C27.9666 20.6249 27.811 20.5434 27.7231 20.397L25.3135 16.3805L22.9001 20.3997C22.7663 20.623 22.4762 20.6917 22.2565 20.5562C22.0349 20.4226 21.9654 20.1341 22.1 19.9127L24.9107 15.2279C24.9949 15.0869 25.1478 14.9999 25.3126 14.9999C25.4773 14.9999 25.6294 15.0859 25.7146 15.2279L28.5271 19.9154C28.6607 20.1369 28.5884 20.4254 28.3659 20.5579C28.2906 20.6038 28.2074 20.6249 28.125 20.6249Z" fill="url(#paint26_linear)"/>
<path d="M19.6875 20.6249C19.5977 20.6249 19.5071 20.5992 19.4274 20.5461C19.2123 20.4024 19.1537 20.1112 19.2974 19.8962L21.1724 17.0837C21.2594 16.9537 21.405 16.8749 21.5616 16.8749C21.5625 16.8749 21.5625 16.8749 21.5625 16.8749C21.719 16.8749 21.8646 16.9527 21.9516 17.0827L23.3395 19.1545L22.987 19.4714L22.5952 19.7285L21.5635 18.1868L20.0775 20.4162C19.9869 20.5516 19.8386 20.6249 19.6875 20.6249Z" fill="url(#paint27_linear)"/>
<path d="M19.6875 15.9373C18.912 15.9373 18.2812 15.3065 18.2812 14.531C18.2812 13.7556 18.912 13.1248 19.6875 13.1248C20.4629 13.1248 21.0937 13.7556 21.0937 14.531C21.0937 15.3065 20.4629 15.9373 19.6875 15.9373ZM19.6875 14.0623C19.4293 14.0623 19.2187 14.2729 19.2187 14.531C19.2187 14.7892 19.4293 14.9998 19.6875 14.9998C19.9456 14.9998 20.1562 14.7892 20.1562 14.531C20.1562 14.2729 19.9456 14.0623 19.6875 14.0623Z" fill="url(#paint28_linear)"/>
<path d="M29.9999 36.5064C29.7409 36.5064 29.5312 36.2967 29.5312 36.0377V24.7877C29.5312 24.5286 29.7409 24.3189 29.9999 24.3189C30.2591 24.3189 30.4686 24.5286 30.4686 24.7877V36.0377C30.4686 36.2967 30.2591 36.5064 29.9999 36.5064Z" fill="url(#paint29_linear)"/>
<path d="M30 36.5065C29.8801 36.5065 29.7602 36.4607 29.6685 36.3691C29.4854 36.186 29.4854 35.8895 29.6685 35.7064L30.606 34.7689C30.7891 34.5858 31.0859 34.5858 31.269 34.7689C31.452 34.952 31.452 35.2487 31.269 35.4316L30.3315 36.3691C30.2399 36.4607 30.1199 36.5065 30 36.5065Z" fill="url(#paint30_linear)"/>
<path d="M29.9999 36.5065C29.88 36.5065 29.7601 36.4607 29.6684 36.3691L28.7309 35.4316C28.5479 35.2486 28.5479 34.952 28.7309 34.7689C28.914 34.5858 29.2107 34.5858 29.3938 34.7689L30.3314 35.7064C30.5144 35.8895 30.5144 36.1862 30.3314 36.3691C30.2399 36.4607 30.1198 36.5065 29.9999 36.5065Z" fill="url(#paint31_linear)"/>
<path d="M8.43741 36.5065C8.17836 36.5065 7.96866 36.2968 7.96866 36.0378V29.5311C7.96866 29.272 8.17836 29.0623 8.43741 29.0623C8.69645 29.0623 8.90615 29.272 8.90615 29.5311V36.0378C8.90615 36.2968 8.69645 36.5065 8.43741 36.5065Z" fill="url(#paint32_linear)"/>
<path d="M8.43746 36.5065C8.31755 36.5065 8.19764 36.4607 8.10598 36.3691C7.92289 36.186 7.92289 35.8895 8.10598 35.7064L9.04347 34.7689C9.22656 34.5858 9.52324 34.5858 9.70633 34.7689C9.88942 34.952 9.88942 35.2487 9.70633 35.4316L8.76883 36.3691C8.67741 36.4607 8.55749 36.5065 8.43746 36.5065Z" fill="url(#paint33_linear)"/>
<path d="M8.43752 36.5065C8.31761 36.5065 8.19769 36.4607 8.10603 36.3691L7.16854 35.4316C6.98545 35.2486 6.98545 34.952 7.16854 34.7689C7.35163 34.5858 7.64819 34.5858 7.83128 34.7689L8.76877 35.7064C8.95186 35.8895 8.95186 36.1862 8.76877 36.3691C8.67746 36.4607 8.55755 36.5065 8.43752 36.5065Z" fill="url(#paint34_linear)"/>
<path d="M37.9686 41.2499C37.7097 41.2499 37.4999 41.0402 37.4999 40.7811V39.8436C37.4999 39.5855 37.2893 39.3749 37.0311 39.3749H22.9688C22.7105 39.3749 22.5 39.5855 22.5 39.8436V40.7811C22.5 41.0402 22.2903 41.2499 22.0313 41.2499C21.7721 41.2499 21.5625 41.0402 21.5625 40.7811V39.8436C21.5625 39.0681 22.1933 38.4374 22.9688 38.4374H37.0311C37.8067 38.4374 38.4374 39.0681 38.4374 39.8436V40.7811C38.4374 41.0402 38.2277 41.2499 37.9686 41.2499Z" fill="url(#paint35_linear)"/>
<path d="M37.9686 59.9998H22.0313C21.7721 59.9998 21.5625 59.7901 21.5625 59.5311V40.7811C21.5625 40.522 21.7721 40.3123 22.0313 40.3123H37.9686C38.2277 40.3123 38.4374 40.522 38.4374 40.7811V59.5311C38.4374 59.79 38.2277 59.9998 37.9686 59.9998ZM22.5 59.0622H37.4999V41.2498H22.5V59.0622Z" fill="url(#paint36_linear)"/>
<path d="M29.0624 46.8748H23.9062C23.647 46.8748 23.4374 46.6651 23.4374 46.4061V42.6561C23.4374 42.3971 23.647 42.1874 23.9062 42.1874H29.0624C29.3215 42.1874 29.5312 42.3971 29.5312 42.6561V46.4061C29.5312 46.6651 29.3215 46.8748 29.0624 46.8748ZM24.3749 45.9374H28.5937V43.1249H24.3749V45.9374Z" fill="url(#paint37_linear)"/>
<path d="M36.0935 43.1249H30.9374C30.6782 43.1249 30.4685 42.9152 30.4685 42.6561C30.4685 42.3971 30.6782 42.1874 30.9374 42.1874H36.0935C36.3526 42.1874 36.5623 42.3971 36.5623 42.6561C36.5623 42.9152 36.3526 43.1249 36.0935 43.1249Z" fill="url(#paint38_linear)"/>
<path d="M36.0935 44.9999H30.9374C30.6782 44.9999 30.4685 44.7902 30.4685 44.5311C30.4685 44.2721 30.6782 44.0624 30.9374 44.0624H36.0935C36.3526 44.0624 36.5623 44.2721 36.5623 44.5311C36.5623 44.7902 36.3526 44.9999 36.0935 44.9999Z" fill="url(#paint39_linear)"/>
<path d="M36.0935 46.8748H30.9374C30.6782 46.8748 30.4685 46.6651 30.4685 46.406C30.4685 46.147 30.6782 45.9373 30.9374 45.9373H36.0935C36.3526 45.9373 36.5623 46.147 36.5623 46.406C36.5623 46.6651 36.3526 46.8748 36.0935 46.8748Z" fill="url(#paint40_linear)"/>
<path d="M36.0935 52.4998H30.9374C30.6782 52.4998 30.4685 52.2901 30.4685 52.031V48.2811C30.4685 48.0219 30.6782 47.8123 30.9374 47.8123H36.0935C36.3526 47.8123 36.5623 48.0219 36.5623 48.2811V52.031C36.5623 52.2901 36.3526 52.4998 36.0935 52.4998ZM31.406 51.5623H35.6248V48.7498H31.406V51.5623Z" fill="url(#paint41_linear)"/>
<path d="M29.0624 48.7498H23.9062C23.647 48.7498 23.4374 48.5401 23.4374 48.2811C23.4374 48.0219 23.647 47.8123 23.9062 47.8123H29.0624C29.3215 47.8123 29.5312 48.0219 29.5312 48.2811C29.5312 48.5401 29.3215 48.7498 29.0624 48.7498Z" fill="url(#paint42_linear)"/>
<path d="M29.0624 50.6248H23.9062C23.647 50.6248 23.4374 50.4151 23.4374 50.1561C23.4374 49.8969 23.647 49.6873 23.9062 49.6873H29.0624C29.3215 49.6873 29.5312 49.8969 29.5312 50.1561C29.5312 50.4151 29.3215 50.6248 29.0624 50.6248Z" fill="url(#paint43_linear)"/>
<path d="M29.0624 52.4998H23.9062C23.647 52.4998 23.4374 52.2901 23.4374 52.0311C23.4374 51.7719 23.647 51.5623 23.9062 51.5623H29.0624C29.3215 51.5623 29.5312 51.7719 29.5312 52.0311C29.5312 52.2901 29.3215 52.4998 29.0624 52.4998Z" fill="url(#paint44_linear)"/>
<path d="M29.0624 58.1248H23.9062C23.647 58.1248 23.4374 57.9151 23.4374 57.6561V53.9061C23.4374 53.6469 23.647 53.4373 23.9062 53.4373H29.0624C29.3215 53.4373 29.5312 53.6469 29.5312 53.9061V57.6561C29.5312 57.9151 29.3215 58.1248 29.0624 58.1248ZM24.3749 57.1873H28.5937V54.3748H24.3749V57.1873Z" fill="url(#paint45_linear)"/>
<path d="M36.0935 54.3748H30.9374C30.6782 54.3748 30.4685 54.1651 30.4685 53.9061C30.4685 53.6469 30.6782 53.4373 30.9374 53.4373H36.0935C36.3526 53.4373 36.5623 53.6469 36.5623 53.9061C36.5623 54.1651 36.3526 54.3748 36.0935 54.3748Z" fill="url(#paint46_linear)"/>
<path d="M36.0935 56.2497H30.9374C30.6782 56.2497 30.4685 56.04 30.4685 55.781C30.4685 55.5218 30.6782 55.3123 30.9374 55.3123H36.0935C36.3526 55.3123 36.5623 55.5218 36.5623 55.781C36.5623 56.04 36.3526 56.2497 36.0935 56.2497Z" fill="url(#paint47_linear)"/>
<path d="M36.0935 58.1248H30.9374C30.6782 58.1248 30.4685 57.9151 30.4685 57.656C30.4685 57.3968 30.6782 57.1873 30.9374 57.1873H36.0935C36.3526 57.1873 36.5623 57.3968 36.5623 57.656C36.5623 57.9151 36.3526 58.1248 36.0935 58.1248Z" fill="url(#paint48_linear)"/>
<path d="M16.4063 41.2499C16.1471 41.2499 15.9375 41.0402 15.9375 40.7811V39.8436C15.9375 39.5855 15.7269 39.3749 15.4688 39.3749H1.40624C1.14801 39.3749 0.937494 39.5855 0.937494 39.8436V40.7811C0.937494 41.0402 0.727795 41.2499 0.468747 41.2499C0.2097 41.2499 0 41.0402 0 40.7811V39.8436C0 39.0681 0.630857 38.4374 1.40624 38.4374H15.4688C16.2442 38.4374 16.875 39.0681 16.875 39.8436V40.7811C16.875 41.0402 16.6653 41.2499 16.4063 41.2499Z" fill="url(#paint49_linear)"/>
<path d="M16.4063 59.9998H0.468747C0.2097 59.9998 0 59.7901 0 59.5311V40.7811C0 40.522 0.2097 40.3123 0.468747 40.3123H16.4063C16.6653 40.3123 16.875 40.522 16.875 40.7811V59.5311C16.875 59.79 16.6653 59.9998 16.4063 59.9998ZM0.937494 59.0622H15.9375V41.2498H0.937494V59.0622Z" fill="url(#paint50_linear)"/>
<path d="M14.5313 47.8123H2.34375C2.0847 47.8123 1.875 47.6026 1.875 47.3436V42.6561C1.875 42.3971 2.0847 42.1874 2.34375 42.1874H14.5313C14.7903 42.1874 15 42.3971 15 42.6561V47.3436C15 47.6026 14.7903 47.8123 14.5313 47.8123ZM2.81249 46.8749H14.0625V43.1249H2.81249V46.8749Z" fill="url(#paint51_linear)"/>
<path d="M5.15623 54.3748H2.34375C2.0847 54.3748 1.875 54.1651 1.875 53.9061V49.2186C1.875 48.9595 2.0847 48.7499 2.34375 48.7499H5.15623C5.41528 48.7499 5.62498 48.9595 5.62498 49.2186V53.9061C5.62498 54.1651 5.4154 54.3748 5.15623 54.3748ZM2.81249 53.4373H4.68748V49.6874H2.81249V53.4373Z" fill="url(#paint52_linear)"/>
<path d="M9.84373 54.3748H7.03125C6.7722 54.3748 6.5625 54.1651 6.5625 53.9061V49.2186C6.5625 48.9595 6.7722 48.7499 7.03125 48.7499H9.84373C10.1028 48.7499 10.3125 48.9595 10.3125 49.2186V53.9061C10.3126 54.1651 10.1028 54.3748 9.84373 54.3748ZM7.49999 53.4373H9.37498V49.6874H7.49999V53.4373Z" fill="url(#paint53_linear)"/>
<path d="M14.5312 54.3748H11.7187C11.4597 54.3748 11.25 54.1651 11.25 53.9061V49.2186C11.25 48.9595 11.4597 48.7499 11.7187 48.7499H14.5312C14.7903 48.7499 15 48.9595 15 49.2186V53.9061C15 54.1651 14.7903 54.3748 14.5312 54.3748ZM12.1875 53.4373H14.0625V49.6874H12.1875V53.4373Z" fill="url(#paint54_linear)"/>
<path d="M14.5313 56.2497H2.34375C2.0847 56.2497 1.875 56.04 1.875 55.781C1.875 55.5218 2.0847 55.3123 2.34375 55.3123H14.5313C14.7903 55.3123 15 55.5218 15 55.781C15 56.04 14.7903 56.2497 14.5313 56.2497Z" fill="url(#paint55_linear)"/>
<path d="M12.6563 58.1248H4.21878C3.95973 58.1248 3.75003 57.9151 3.75003 57.656C3.75003 57.3968 3.95973 57.1873 4.21878 57.1873H12.6562C12.9153 57.1873 13.125 57.3968 13.125 57.656C13.1251 57.9151 12.9154 58.1248 12.6563 58.1248Z" fill="url(#paint56_linear)"/>
<path d="M59.5312 41.2499C59.2723 41.2499 59.0626 41.0402 59.0626 40.7811V39.8436C59.0626 39.5855 58.8519 39.3749 58.5937 39.3749H44.5312C44.2732 39.3749 44.0626 39.5855 44.0626 39.8436V40.7811C44.0626 41.0402 43.8529 41.2499 43.5937 41.2499C43.3348 41.2499 43.1251 41.0402 43.1251 40.7811V39.8436C43.1251 39.0681 43.7558 38.4374 44.5312 38.4374H58.5937C59.3691 38.4374 60.0001 39.0681 60.0001 39.8436V40.7811C60.0001 41.0402 59.7903 41.2499 59.5312 41.2499Z" fill="url(#paint57_linear)"/>
<path d="M59.5312 59.9998H43.5937C43.3348 59.9998 43.1251 59.7901 43.1251 59.5311V40.7811C43.1251 40.522 43.3348 40.3123 43.5937 40.3123H59.5312C59.7904 40.3123 60.0001 40.522 60.0001 40.7811V59.5311C60.0001 59.79 59.7903 59.9998 59.5312 59.9998ZM44.0626 59.0622H59.0626V41.2498H44.0626V59.0622Z" fill="url(#paint58_linear)"/>
<path d="M57.656 50.6248H45.4686C45.2097 50.6248 45 50.4151 45 50.1561V44.5311C45 44.2721 45.2097 44.0624 45.4686 44.0624H57.6561C57.9153 44.0624 58.125 44.2721 58.125 44.5311V50.1561C58.1249 50.4151 57.9152 50.6248 57.656 50.6248ZM45.9375 49.6874H57.1875V44.9999H45.9375V49.6874Z" fill="url(#paint59_linear)"/>
<path d="M55.781 43.1249H47.3436C47.0846 43.1249 46.8749 42.9152 46.8749 42.6561C46.8749 42.3971 47.0846 42.1874 47.3436 42.1874H55.781C56.0402 42.1874 56.2499 42.3971 56.2499 42.6561C56.2499 42.9152 56.0402 43.1249 55.781 43.1249Z" fill="url(#paint60_linear)"/>
<path d="M57.656 52.4998H45.4686C45.2097 52.4998 45 52.2901 45 52.0311C45 51.7719 45.2097 51.5623 45.4686 51.5623H57.6561C57.9153 51.5623 58.125 51.7719 58.125 52.0311C58.1249 52.2901 57.9152 52.4998 57.656 52.4998Z" fill="url(#paint61_linear)"/>
<path d="M57.656 54.3748H45.4686C45.2097 54.3748 45 54.1651 45 53.9061C45 53.6469 45.2097 53.4373 45.4686 53.4373H57.6561C57.9153 53.4373 58.125 53.6469 58.125 53.9061C58.1249 54.1651 57.9152 54.3748 57.656 54.3748Z" fill="url(#paint62_linear)"/>
<path d="M52.0311 56.2497H45.4686C45.2097 56.2497 45 56.04 45 55.781C45 55.5218 45.2097 55.3123 45.4686 55.3123H52.0311C52.2902 55.3123 52.4999 55.5218 52.4999 55.781C52.4999 56.04 52.2902 56.2497 52.0311 56.2497Z" fill="url(#paint63_linear)"/>
<path d="M27.6562 29.9998H8.43741C8.17836 29.9998 7.96866 29.7901 7.96866 29.5311C7.96866 29.272 8.17836 29.0623 8.43741 29.0623H27.656C27.9151 29.0623 28.1248 29.272 28.1248 29.5311C28.1248 29.7901 27.9152 29.9998 27.6562 29.9998Z" fill="url(#paint64_linear)"/>
<path d="M51.5623 36.5065C51.3032 36.5065 51.0935 36.2968 51.0935 36.0378V29.5311C51.0935 29.272 51.3032 29.0623 51.5623 29.0623C51.8215 29.0623 52.031 29.272 52.031 29.5311V36.0378C52.031 36.2968 51.8215 36.5065 51.5623 36.5065Z" fill="url(#paint65_linear)"/>
<path d="M51.5625 36.5065C51.4426 36.5065 51.3225 36.4607 51.231 36.3691L50.2935 35.4316C50.1104 35.2486 50.1104 34.952 50.2935 34.7689C50.4766 34.5858 50.7734 34.5858 50.9562 34.7689L51.8937 35.7064C52.0768 35.8895 52.0768 36.1862 51.8937 36.3691C51.8024 36.4607 51.6825 36.5065 51.5625 36.5065Z" fill="url(#paint66_linear)"/>
<path d="M51.5623 36.5065C51.4424 36.5065 51.3224 36.4607 51.2309 36.3691C51.0478 36.186 51.0478 35.8895 51.2309 35.7064L52.1684 34.7689C52.3515 34.5858 52.6482 34.5858 52.8311 34.7689C53.0142 34.952 53.0142 35.2487 52.8311 35.4316L51.8936 36.3691C51.8023 36.4607 51.6824 36.5065 51.5623 36.5065Z" fill="url(#paint67_linear)"/>
<path d="M51.5624 29.9998H32.3435C32.0846 29.9998 31.8749 29.7901 31.8749 29.5311C31.8749 29.272 32.0846 29.0623 32.3435 29.0623H51.5624C51.8216 29.0623 52.031 29.272 52.031 29.5311C52.031 29.7901 51.8216 29.9998 51.5624 29.9998Z" fill="url(#paint68_linear)"/>
</g>
<defs>
<linearGradient id="paint0_linear" x1="4.99991" y1="4.99989" x2="64.9622" y2="24.7425" gradientUnits="userSpaceOnUse">
<stop stop-color="#ECF6F5"/>
<stop offset="1" stop-color="#FBF6F9"/>
</linearGradient>
<linearGradient id="paint1_linear" x1="4.99991" y1="4.99989" x2="64.9622" y2="24.7425" gradientUnits="userSpaceOnUse">
<stop stop-color="#F6F6FB"/>
<stop offset="1" stop-color="#FEF3F9"/>
</linearGradient>
<linearGradient id="paint2_linear" x1="16.2683" y1="1.15136" x2="18.4786" y2="0.491885" gradientUnits="userSpaceOnUse">
<stop stop-color="#46A29F"/>
<stop offset="1" stop-color="#4660A2"/>
</linearGradient>
<linearGradient id="paint3_linear" x1="18.1431" y1="1.15136" x2="20.3534" y2="0.49189" gradientUnits="userSpaceOnUse">
<stop stop-color="#46A29F"/>
<stop offset="1" stop-color="#4660A2"/>
</linearGradient>
<linearGradient id="paint4_linear" x1="20.0181" y1="1.15136" x2="22.2284" y2="0.49189" gradientUnits="userSpaceOnUse">
<stop stop-color="#46A29F"/>
<stop offset="1" stop-color="#4660A2"/>
</linearGradient>
<linearGradient id="paint5_linear" x1="23.7682" y1="39.5889" x2="25.9782" y2="38.9296" gradientUnits="userSpaceOnUse">
<stop stop-color="#46A29F"/>
<stop offset="1" stop-color="#4660A2"/>
</linearGradient>
<linearGradient id="paint6_linear" x1="25.643" y1="39.5889" x2="27.8533" y2="38.9295" gradientUnits="userSpaceOnUse">
<stop stop-color="#46A29F"/>
<stop offset="1" stop-color="#4660A2"/>
</linearGradient>
<linearGradient id="paint7_linear" x1="27.5181" y1="39.5889" x2="29.7284" y2="38.9295" gradientUnits="userSpaceOnUse">
<stop stop-color="#46A29F"/>
<stop offset="1" stop-color="#4660A2"/>
</linearGradient>
<linearGradient id="paint8_linear" x1="2.20564" y1="39.5889" x2="4.41592" y2="38.9295" gradientUnits="userSpaceOnUse">
<stop stop-color="#46A29F"/>
<stop offset="1" stop-color="#4660A2"/>
</linearGradient>
<linearGradient id="paint9_linear" x1="4.08064" y1="39.5889" x2="6.29092" y2="38.9295" gradientUnits="userSpaceOnUse">
<stop stop-color="#46A29F"/>
<stop offset="1" stop-color="#4660A2"/>
</linearGradient>
<linearGradient id="paint10_linear" x1="5.9557" y1="39.5889" x2="8.16598" y2="38.9295" gradientUnits="userSpaceOnUse">
<stop stop-color="#46A29F"/>
<stop offset="1" stop-color="#4660A2"/>
</linearGradient>
<linearGradient id="paint11_linear" x1="44.862" y1="57.4013" x2="47.0723" y2="56.7418" gradientUnits="userSpaceOnUse">
<stop stop-color="#46A29F"/>
<stop offset="1" stop-color="#4660A2"/>
</linearGradient>
<linearGradient id="paint12_linear" x1="46.7369" y1="57.4013" x2="48.9472" y2="56.7418" gradientUnits="userSpaceOnUse">
<stop stop-color="#46A29F"/>
<stop offset="1" stop-color="#4660A2"/>
</linearGradient>
<linearGradient id="paint13_linear" x1="48.6119" y1="57.4013" x2="50.8221" y2="56.7418" gradientUnits="userSpaceOnUse">
<stop stop-color="#46A29F"/>
<stop offset="1" stop-color="#4660A2"/>
</linearGradient>
<linearGradient id="paint14_linear" x1="45.3306" y1="39.5889" x2="47.5409" y2="38.9295" gradientUnits="userSpaceOnUse">
<stop stop-color="#46A29F"/>
<stop offset="1" stop-color="#4660A2"/>
</linearGradient>
<linearGradient id="paint15_linear" x1="47.2055" y1="39.5889" x2="49.4158" y2="38.9295" gradientUnits="userSpaceOnUse">
<stop stop-color="#46A29F"/>
<stop offset="1" stop-color="#4660A2"/>
</linearGradient>
<linearGradient id="paint16_linear" x1="49.0803" y1="39.5889" x2="51.2906" y2="38.9295" gradientUnits="userSpaceOnUse">
<stop stop-color="#46A29F"/>
<stop offset="1" stop-color="#4660A2"/>
</linearGradient>
<linearGradient id="paint17_linear" x1="9.21507" y1="0.641905" x2="15.9903" y2="-21.4862" gradientUnits="userSpaceOnUse">
<stop stop-color="#46A29F"/>
<stop offset="1" stop-color="#4660A2"/>
</linearGradient>
<linearGradient id="paint18_linear" x1="9.21507" y1="6.58311" x2="75.178" y2="-22.7947" gradientUnits="userSpaceOnUse">
<stop stop-color="#46A29F"/>
<stop offset="1" stop-color="#4660A2"/>
</linearGradient>
<linearGradient id="paint19_linear" x1="11.7343" y1="5.24796" x2="39.3759" y2="-28.7532" gradientUnits="userSpaceOnUse">
<stop stop-color="#46A29F"/>
<stop offset="1" stop-color="#4660A2"/>
</linearGradient>
<linearGradient id="paint20_linear" x1="15.5135" y1="6.77639" x2="16.6701" y2="-1.12177" gradientUnits="userSpaceOnUse">
<stop stop-color="#46A29F"/>
<stop offset="1" stop-color="#4660A2"/>
</linearGradient>
<linearGradient id="paint21_linear" x1="28.2131" y1="12.4013" x2="30.0477" y2="4.77513" gradientUnits="userSpaceOnUse">
<stop stop-color="#46A29F"/>
<stop offset="1" stop-color="#4660A2"/>
</linearGradient>
<linearGradient id="paint22_linear" x1="28.2131" y1="14.2763" x2="30.0477" y2="6.65016" gradientUnits="userSpaceOnUse">
<stop stop-color="#46A29F"/>
<stop offset="1" stop-color="#4660A2"/>
</linearGradient>
<linearGradient id="paint23_linear" x1="28.2131" y1="16.1513" x2="30.0477" y2="8.52506" gradientUnits="userSpaceOnUse">
<stop stop-color="#46A29F"/>
<stop offset="1" stop-color="#4660A2"/>
</linearGradient>
<linearGradient id="paint24_linear" x1="29.2602" y1="18.0263" x2="32.2751" y2="11.3126" gradientUnits="userSpaceOnUse">
<stop stop-color="#46A29F"/>
<stop offset="1" stop-color="#4660A2"/>
</linearGradient>
<linearGradient id="paint25_linear" x1="14.1508" y1="13.39" x2="42.7451" y2="1.50393" gradientUnits="userSpaceOnUse">
<stop stop-color="#46A29F"/>
<stop offset="1" stop-color="#4660A2"/>
</linearGradient>
<linearGradient id="paint26_linear" x1="20.9037" y1="16.2841" x2="35.8756" y2="11.0983" gradientUnits="userSpaceOnUse">
<stop stop-color="#46A29F"/>
<stop offset="1" stop-color="#4660A2"/>
</linearGradient>
<linearGradient id="paint27_linear" x1="18.5106" y1="17.7309" x2="28.0265" y2="14.6261" gradientUnits="userSpaceOnUse">
<stop stop-color="#46A29F"/>
<stop offset="1" stop-color="#4660A2"/>
</linearGradient>
<linearGradient id="paint28_linear" x1="17.798" y1="13.7668" x2="24.4018" y2="11.806" gradientUnits="userSpaceOnUse">
<stop stop-color="#46A29F"/>
<stop offset="1" stop-color="#4660A2"/>
</linearGradient>
<linearGradient id="paint29_linear" x1="29.3701" y1="27.1011" x2="31.764" y2="27.0464" gradientUnits="userSpaceOnUse">
<stop stop-color="#46A29F"/>
<stop offset="1" stop-color="#4660A2"/>
</linearGradient>
<linearGradient id="paint30_linear" x1="29.209" y1="35.0596" x2="33.6116" y2="33.7523" gradientUnits="userSpaceOnUse">
<stop stop-color="#46A29F"/>
<stop offset="1" stop-color="#4660A2"/>
</linearGradient>
<linearGradient id="paint31_linear" x1="28.2714" y1="35.0596" x2="32.6741" y2="33.7523" gradientUnits="userSpaceOnUse">
<stop stop-color="#46A29F"/>
<stop offset="1" stop-color="#4660A2"/>
</linearGradient>
<linearGradient id="paint32_linear" x1="7.80756" y1="30.7617" x2="10.1996" y2="30.6722" gradientUnits="userSpaceOnUse">
<stop stop-color="#46A29F"/>
<stop offset="1" stop-color="#4660A2"/>
</linearGradient>
<linearGradient id="paint33_linear" x1="7.64646" y1="35.0596" x2="12.049" y2="33.7524" gradientUnits="userSpaceOnUse">
<stop stop-color="#46A29F"/>
<stop offset="1" stop-color="#4660A2"/>
</linearGradient>
<linearGradient id="paint34_linear" x1="6.70904" y1="35.0596" x2="11.1114" y2="33.7525" gradientUnits="userSpaceOnUse">
<stop stop-color="#46A29F"/>
<stop offset="1" stop-color="#4660A2"/>
</linearGradient>
<linearGradient id="paint35_linear" x1="18.6627" y1="39.0794" x2="28.9933" y2="20.6757" gradientUnits="userSpaceOnUse">
<stop stop-color="#46A29F"/>
<stop offset="1" stop-color="#4660A2"/>
</linearGradient>
<linearGradient id="paint36_linear" x1="18.6627" y1="44.8066" x2="59.1565" y2="34.501" gradientUnits="userSpaceOnUse">
<stop stop-color="#46A29F"/>
<stop offset="1" stop-color="#4660A2"/>
</linearGradient>
<linearGradient id="paint37_linear" x1="22.3903" y1="43.2574" x2="35.9412" y2="38.0269" gradientUnits="userSpaceOnUse">
<stop stop-color="#46A29F"/>
<stop offset="1" stop-color="#4660A2"/>
</linearGradient>
<linearGradient id="paint38_linear" x1="29.4213" y1="42.4014" x2="32.7167" y2="36.0414" gradientUnits="userSpaceOnUse">
<stop stop-color="#46A29F"/>
<stop offset="1" stop-color="#4660A2"/>
</linearGradient>
<linearGradient id="paint39_linear" x1="29.4213" y1="44.2764" x2="32.7167" y2="37.9163" gradientUnits="userSpaceOnUse">
<stop stop-color="#46A29F"/>
<stop offset="1" stop-color="#4660A2"/>
</linearGradient>
<linearGradient id="paint40_linear" x1="29.4213" y1="46.1513" x2="32.7167" y2="39.7913" gradientUnits="userSpaceOnUse">
<stop stop-color="#46A29F"/>
<stop offset="1" stop-color="#4660A2"/>
</linearGradient>
<linearGradient id="paint41_linear" x1="29.4213" y1="48.8824" x2="42.9725" y2="43.6517" gradientUnits="userSpaceOnUse">
<stop stop-color="#46A29F"/>
<stop offset="1" stop-color="#4660A2"/>
</linearGradient>
<linearGradient id="paint42_linear" x1="22.3903" y1="48.0263" x2="25.6857" y2="41.6664" gradientUnits="userSpaceOnUse">
<stop stop-color="#46A29F"/>
<stop offset="1" stop-color="#4660A2"/>
</linearGradient>
<linearGradient id="paint43_linear" x1="22.3903" y1="49.9013" x2="25.6858" y2="43.5413" gradientUnits="userSpaceOnUse">
<stop stop-color="#46A29F"/>
<stop offset="1" stop-color="#4660A2"/>
</linearGradient>
<linearGradient id="paint44_linear" x1="22.3903" y1="51.7764" x2="25.6857" y2="45.4164" gradientUnits="userSpaceOnUse">
<stop stop-color="#46A29F"/>
<stop offset="1" stop-color="#4660A2"/>
</linearGradient>
<linearGradient id="paint45_linear" x1="22.3903" y1="54.5074" x2="35.9412" y2="49.2769" gradientUnits="userSpaceOnUse">
<stop stop-color="#46A29F"/>
<stop offset="1" stop-color="#4660A2"/>
</linearGradient>
<linearGradient id="paint46_linear" x1="29.4213" y1="53.6514" x2="32.7167" y2="47.2913" gradientUnits="userSpaceOnUse">
<stop stop-color="#46A29F"/>
<stop offset="1" stop-color="#4660A2"/>
</linearGradient>
<linearGradient id="paint47_linear" x1="29.4213" y1="55.5263" x2="32.7167" y2="49.1662" gradientUnits="userSpaceOnUse">
<stop stop-color="#46A29F"/>
<stop offset="1" stop-color="#4660A2"/>
</linearGradient>
<linearGradient id="paint48_linear" x1="29.4213" y1="57.4013" x2="32.7168" y2="51.0412" gradientUnits="userSpaceOnUse">
<stop stop-color="#46A29F"/>
<stop offset="1" stop-color="#4660A2"/>
</linearGradient>
<linearGradient id="paint49_linear" x1="-2.8998" y1="39.0794" x2="7.4307" y2="20.6756" gradientUnits="userSpaceOnUse">
<stop stop-color="#46A29F"/>
<stop offset="1" stop-color="#4660A2"/>
</linearGradient>
<linearGradient id="paint50_linear" x1="-2.8998" y1="44.8066" x2="37.5942" y2="34.5009" gradientUnits="userSpaceOnUse">
<stop stop-color="#46A29F"/>
<stop offset="1" stop-color="#4660A2"/>
</linearGradient>
<linearGradient id="paint51_linear" x1="-0.380406" y1="43.4714" x2="22.2789" y2="27.7729" gradientUnits="userSpaceOnUse">
<stop stop-color="#46A29F"/>
<stop offset="1" stop-color="#4660A2"/>
</linearGradient>
<linearGradient id="paint52_linear" x1="1.2306" y1="50.0339" x2="10.4508" y2="48.2089" gradientUnits="userSpaceOnUse">
<stop stop-color="#46A29F"/>
<stop offset="1" stop-color="#4660A2"/>
</linearGradient>
<linearGradient id="paint53_linear" x1="5.9181" y1="50.0339" x2="15.1383" y2="48.2089" gradientUnits="userSpaceOnUse">
<stop stop-color="#46A29F"/>
<stop offset="1" stop-color="#4660A2"/>
</linearGradient>
<linearGradient id="paint54_linear" x1="10.6056" y1="50.0339" x2="19.8258" y2="48.2089" gradientUnits="userSpaceOnUse">
<stop stop-color="#46A29F"/>
<stop offset="1" stop-color="#4660A2"/>
</linearGradient>
<linearGradient id="paint55_linear" x1="-0.380406" y1="55.5263" x2="1.4542" y2="47.9001" gradientUnits="userSpaceOnUse">
<stop stop-color="#46A29F"/>
<stop offset="1" stop-color="#4660A2"/>
</linearGradient>
<linearGradient id="paint56_linear" x1="2.13904" y1="57.4013" x2="4.57938" y2="50.1556" gradientUnits="userSpaceOnUse">
<stop stop-color="#46A29F"/>
<stop offset="1" stop-color="#4660A2"/>
</linearGradient>
<linearGradient id="paint57_linear" x1="40.2253" y1="39.0794" x2="50.5558" y2="20.6756" gradientUnits="userSpaceOnUse">
<stop stop-color="#46A29F"/>
<stop offset="1" stop-color="#4660A2"/>
</linearGradient>
<linearGradient id="paint58_linear" x1="40.2253" y1="44.8066" x2="80.7193" y2="34.5009" gradientUnits="userSpaceOnUse">
<stop stop-color="#46A29F"/>
<stop offset="1" stop-color="#4660A2"/>
</linearGradient>
<linearGradient id="paint59_linear" x1="42.7446" y1="45.5604" x2="67.5371" y2="30.8378" gradientUnits="userSpaceOnUse">
<stop stop-color="#46A29F"/>
<stop offset="1" stop-color="#4660A2"/>
</linearGradient>
<linearGradient id="paint60_linear" x1="45.264" y1="42.4014" x2="47.7042" y2="35.1558" gradientUnits="userSpaceOnUse">
<stop stop-color="#46A29F"/>
<stop offset="1" stop-color="#4660A2"/>
</linearGradient>
<linearGradient id="paint61_linear" x1="42.7446" y1="51.7764" x2="44.5792" y2="44.1502" gradientUnits="userSpaceOnUse">
<stop stop-color="#46A29F"/>
<stop offset="1" stop-color="#4660A2"/>
</linearGradient>
<linearGradient id="paint62_linear" x1="42.7446" y1="53.6514" x2="44.5792" y2="46.0252" gradientUnits="userSpaceOnUse">
<stop stop-color="#46A29F"/>
<stop offset="1" stop-color="#4660A2"/>
</linearGradient>
<linearGradient id="paint63_linear" x1="43.7112" y1="55.5263" x2="46.5962" y2="48.6734" gradientUnits="userSpaceOnUse">
<stop stop-color="#46A29F"/>
<stop offset="1" stop-color="#4660A2"/>
</linearGradient>
<linearGradient id="paint64_linear" x1="4.50503" y1="29.2764" x2="5.73854" y2="21.4021" gradientUnits="userSpaceOnUse">
<stop stop-color="#46A29F"/>
<stop offset="1" stop-color="#4660A2"/>
</linearGradient>
<linearGradient id="paint65_linear" x1="50.9324" y1="30.7617" x2="53.3244" y2="30.6722" gradientUnits="userSpaceOnUse">
<stop stop-color="#46A29F"/>
<stop offset="1" stop-color="#4660A2"/>
</linearGradient>
<linearGradient id="paint66_linear" x1="49.834" y1="35.0596" x2="54.2363" y2="33.7525" gradientUnits="userSpaceOnUse">
<stop stop-color="#46A29F"/>
<stop offset="1" stop-color="#4660A2"/>
</linearGradient>
<linearGradient id="paint67_linear" x1="50.7714" y1="35.0596" x2="55.1737" y2="33.7525" gradientUnits="userSpaceOnUse">
<stop stop-color="#46A29F"/>
<stop offset="1" stop-color="#4660A2"/>
</linearGradient>
<linearGradient id="paint68_linear" x1="28.4113" y1="29.2764" x2="29.6448" y2="21.4021" gradientUnits="userSpaceOnUse">
<stop stop-color="#46A29F"/>
<stop offset="1" stop-color="#4660A2"/>
</linearGradient>
<clipPath id="clip0">
<rect width="60" height="60" fill="white" transform="translate(0 -0.00012207)"/>
</clipPath>
</defs>
</svg>
