<svg width="80" height="80" viewBox="0 0 80 80" fill="none" xmlns="http://www.w3.org/2000/svg">
<g clip-path="url(#clip0_14181_2098)">
<path opacity="0.4" d="M82.6667 34.6716C82.6667 42.2416 68.798 46.64 66.5967 54.6595C64.3953 62.6789 60.1842 66.5161 49.8662 66.5161C41.4583 66.5161 45.0234 60.7456 27.9845 58.3947C10.9457 56.0438 15.5294 46.375 20.8184 37.51C26.8339 26.4848 29.6241 21.0004 33.9637 13.7269C38.3033 6.4533 40.011 2.82705 49.8662 2.82705C58.1262 2.82705 69.0183 -1.76305 71.4398 10.6838C73.8613 23.1306 82.6667 25.1036 82.6667 34.6716Z" fill="url(#paint0_linear_14181_2098)"/>
<path opacity="0.76" d="M7 64V18C7 16.8954 7.89543 16 9 16H70C71.1046 16 72 16.8954 72 18V64C72 65.1046 71.1046 66 70 66H9C7.89543 66 7 65.1046 7 64Z" fill="#DEEEEE"/>
<path d="M4 24.5H75" stroke="url(#paint1_linear_14181_2098)" stroke-width="2"/>
<path d="M75 49V15C75 12.7909 73.2091 11 71 11H8C5.79086 11 4 12.7909 4 15V65C4 67.2091 5.79086 69 8 69H46" stroke="url(#paint2_linear_14181_2098)" stroke-width="2" stroke-linecap="round"/>
<rect x="18" y="5" width="7" height="15" rx="3.5" stroke="url(#paint3_linear_14181_2098)" stroke-width="2"/>
<rect x="37" y="5" width="7" height="15" rx="3.5" stroke="url(#paint4_linear_14181_2098)" stroke-width="2"/>
<rect x="56" y="5" width="7" height="15" rx="3.5" stroke="url(#paint5_linear_14181_2098)" stroke-width="2"/>
<circle cx="61" cy="60" r="11" fill="#E1ECED"/>
<circle cx="61" cy="60" r="14" stroke="url(#paint6_linear_14181_2098)" stroke-width="2"/>
<rect x="13" y="34" width="8" height="7" rx="1" stroke="url(#paint7_linear_14181_2098)" stroke-width="2"/>
<rect x="13" y="45" width="8" height="7" rx="1" stroke="url(#paint8_linear_14181_2098)" stroke-width="2"/>
<rect x="13" y="56" width="8" height="7" rx="1" stroke="url(#paint9_linear_14181_2098)" stroke-width="2"/>
<rect x="28" y="34" width="8" height="7" rx="1" stroke="url(#paint10_linear_14181_2098)" stroke-width="2"/>
<rect x="28" y="45" width="8" height="7" rx="1" stroke="url(#paint11_linear_14181_2098)" stroke-width="2"/>
<path d="M50 46H44V51H47V53H44C42.8954 53 42 52.1046 42 51V46C42 44.8954 42.8954 44 44 44H50C51.1046 44 52 44.8954 52 46V47H50V46Z" fill="url(#paint12_linear_14181_2098)"/>
<rect x="28" y="56" width="8" height="7" rx="1" stroke="url(#paint13_linear_14181_2098)" stroke-width="2"/>
<rect x="43" y="34" width="8" height="7" rx="1" stroke="url(#paint14_linear_14181_2098)" stroke-width="2"/>
<rect x="58" y="34" width="8" height="7" rx="1" stroke="url(#paint15_linear_14181_2098)" stroke-width="2"/>
<path d="M67.3925 54.3322L58.1885 63.5361L54.0054 59.3519C53.7822 59.1363 53.4833 59.017 53.1731 59.0197C52.8628 59.0224 52.566 59.1469 52.3466 59.3663C52.1272 59.5857 52.0027 59.8825 52 60.1927C51.9973 60.503 52.1166 60.8019 52.3322 61.0251L57.3519 66.046C57.5738 66.2678 57.8747 66.3925 58.1885 66.3925C58.5023 66.3925 58.8032 66.2678 59.0251 66.046L69.0657 56.0054C69.2812 55.7822 69.4005 55.4833 69.3978 55.1731C69.3951 54.8628 69.2707 54.566 69.0513 54.3466C68.8319 54.1272 68.5351 54.0027 68.2248 54C67.9146 53.9973 67.6156 54.1166 67.3925 54.3322Z" fill="url(#paint16_linear_14181_2098)"/>
</g>
<defs>
<linearGradient id="paint0_linear_14181_2098" x1="16" y1="2" x2="95.4232" y2="29.0218" gradientUnits="userSpaceOnUse">
<stop stop-color="#F6F6FB"/>
<stop offset="1" stop-color="#FEF3F9"/>
</linearGradient>
<linearGradient id="paint1_linear_14181_2098" x1="-8.20064" y1="24.7283" x2="-7.79335" y2="16.1422" gradientUnits="userSpaceOnUse">
<stop stop-color="#46A29F"/>
<stop offset="1" stop-color="#4660A2"/>
</linearGradient>
<linearGradient id="paint2_linear_14181_2098" x1="-8.20064" y1="24.2401" x2="152.04" y2="-34.0017" gradientUnits="userSpaceOnUse">
<stop stop-color="#46A29F"/>
<stop offset="1" stop-color="#4660A2"/>
</linearGradient>
<linearGradient id="paint3_linear_14181_2098" x1="15.4534" y1="7.88072" x2="37.8945" y2="4.35321" gradientUnits="userSpaceOnUse">
<stop stop-color="#46A29F"/>
<stop offset="1" stop-color="#4660A2"/>
</linearGradient>
<linearGradient id="paint4_linear_14181_2098" x1="34.4534" y1="7.88072" x2="56.8945" y2="4.35321" gradientUnits="userSpaceOnUse">
<stop stop-color="#46A29F"/>
<stop offset="1" stop-color="#4660A2"/>
</linearGradient>
<linearGradient id="paint5_linear_14181_2098" x1="53.4534" y1="7.88072" x2="75.8945" y2="4.35321" gradientUnits="userSpaceOnUse">
<stop stop-color="#46A29F"/>
<stop offset="1" stop-color="#4660A2"/>
</linearGradient>
<linearGradient id="paint6_linear_14181_2098" x1="40.8448" y1="51.8483" x2="111.287" y2="30.9331" gradientUnits="userSpaceOnUse">
<stop stop-color="#46A29F"/>
<stop offset="1" stop-color="#4660A2"/>
</linearGradient>
<linearGradient id="paint7_linear_14181_2098" x1="10.2816" y1="35.0545" x2="33.3244" y2="27.4526" gradientUnits="userSpaceOnUse">
<stop stop-color="#46A29F"/>
<stop offset="1" stop-color="#4660A2"/>
</linearGradient>
<linearGradient id="paint8_linear_14181_2098" x1="10.2816" y1="46.0545" x2="33.3244" y2="38.4526" gradientUnits="userSpaceOnUse">
<stop stop-color="#46A29F"/>
<stop offset="1" stop-color="#4660A2"/>
</linearGradient>
<linearGradient id="paint9_linear_14181_2098" x1="10.2816" y1="57.0545" x2="33.3244" y2="49.4526" gradientUnits="userSpaceOnUse">
<stop stop-color="#46A29F"/>
<stop offset="1" stop-color="#4660A2"/>
</linearGradient>
<linearGradient id="paint10_linear_14181_2098" x1="25.2816" y1="35.0545" x2="48.3244" y2="27.4526" gradientUnits="userSpaceOnUse">
<stop stop-color="#46A29F"/>
<stop offset="1" stop-color="#4660A2"/>
</linearGradient>
<linearGradient id="paint11_linear_14181_2098" x1="25.2816" y1="46.0545" x2="48.3244" y2="38.4526" gradientUnits="userSpaceOnUse">
<stop stop-color="#46A29F"/>
<stop offset="1" stop-color="#4660A2"/>
</linearGradient>
<linearGradient id="paint12_linear_14181_2098" x1="40.2816" y1="46.0545" x2="63.3244" y2="38.4526" gradientUnits="userSpaceOnUse">
<stop stop-color="#46A29F"/>
<stop offset="1" stop-color="#4660A2"/>
</linearGradient>
<linearGradient id="paint13_linear_14181_2098" x1="25.2816" y1="57.0545" x2="48.3244" y2="49.4526" gradientUnits="userSpaceOnUse">
<stop stop-color="#46A29F"/>
<stop offset="1" stop-color="#4660A2"/>
</linearGradient>
<linearGradient id="paint14_linear_14181_2098" x1="40.2816" y1="35.0545" x2="63.3244" y2="27.4526" gradientUnits="userSpaceOnUse">
<stop stop-color="#46A29F"/>
<stop offset="1" stop-color="#4660A2"/>
</linearGradient>
<linearGradient id="paint15_linear_14181_2098" x1="55.2816" y1="35.0545" x2="78.3244" y2="27.4526" gradientUnits="userSpaceOnUse">
<stop stop-color="#46A29F"/>
<stop offset="1" stop-color="#4660A2"/>
</linearGradient>
<linearGradient id="paint16_linear_14181_2098" x1="49.0104" y1="56.8289" x2="86.8825" y2="41.0423" gradientUnits="userSpaceOnUse">
<stop stop-color="#46A29F"/>
<stop offset="1" stop-color="#4660A2"/>
</linearGradient>
<clipPath id="clip0_14181_2098">
<rect width="80" height="80" fill="white"/>
</clipPath>
</defs>
</svg>
