<svg width="80" height="80" viewBox="0 0 80 80" fill="none" xmlns="http://www.w3.org/2000/svg">
<path d="M74.6667 45.7606C74.6667 53.583 60.798 58.128 58.5967 66.4148C56.3953 74.7015 52.1842 78.6667 41.8662 78.6667C33.4583 78.6667 37.0234 72.7038 19.9845 70.2745C2.94572 67.8452 7.52937 57.8541 12.8184 48.6937C18.8339 37.3009 21.6241 31.6338 25.9637 24.1178C30.3033 16.6017 32.011 12.8546 41.8662 12.8546C50.1262 12.8546 61.0183 8.11151 63.4398 20.9732C65.8613 33.835 74.6667 35.8737 74.6667 45.7606Z" fill="url(#paint0_linear_14181_2187)"/>
<path d="M66.1792 71.8129C66.1792 74.8953 63.6895 77.5035 60.4886 77.5035H17.6906C14.6082 77.5035 12 75.0138 12 71.8129V10.1648C12 6.72674 14.8453 4 18.1648 4H54.6794" stroke="url(#paint1_linear_14181_2187)" stroke-width="1.4" stroke-miterlimit="10" stroke-linecap="round" stroke-linejoin="round"/>
<path d="M66.177 37.6694V15.3812" stroke="url(#paint2_linear_14181_2187)" stroke-width="1.4" stroke-miterlimit="10" stroke-linecap="round" stroke-linejoin="round"/>
<path d="M66.1821 15.3812L54.6824 4V12.2988C54.6824 13.9585 56.105 15.3812 57.7648 15.3812H66.1821Z" stroke="url(#paint3_linear_14181_2187)" stroke-width="1.4" stroke-miterlimit="10" stroke-linecap="round" stroke-linejoin="round"/>
<path d="M70.9218 50.2361C70.5661 50.5917 70.329 50.8288 69.9734 51.0659C70.4476 52.6071 70.0919 54.2669 68.9064 55.4524C68.0765 56.2823 67.0095 56.7565 65.9425 56.7565C65.4683 56.7565 65.1127 56.638 64.757 56.5194C64.0457 57.9421 62.623 58.8905 61.0818 58.8905C59.5406 58.8905 58.118 57.9421 57.4066 56.5194C55.984 56.9936 54.3242 56.638 53.2573 55.4524C52.0717 54.2669 51.8346 52.6071 52.1903 51.0659C50.8862 50.3546 49.9377 48.932 49.9377 47.2722C49.9377 45.6125 50.8862 44.1898 52.1903 43.4785C51.7161 41.9373 52.0717 40.2775 53.2573 39.092C54.4428 37.9065 55.984 37.5508 57.4066 38.025C58.118 36.6024 59.5406 35.6539 61.0818 35.6539C62.2674 35.6539 63.2158 36.1281 64.0457 36.958C64.4013 37.3137 64.6384 37.6693 64.757 38.025C66.1796 37.5508 67.8394 37.9065 68.9064 39.092C69.7363 39.9219 70.0919 41.1074 70.0919 42.1744C70.0919 42.6486 69.9734 43.0043 69.8548 43.4785C71.1589 44.1898 72.1073 45.6125 72.1073 47.2722C72.2259 48.3392 71.7517 49.5247 70.9218 50.2361Z" stroke="url(#paint4_linear_14181_2187)" stroke-width="1.4" stroke-miterlimit="10" stroke-linecap="round" stroke-linejoin="round"/>
<path d="M53.0228 67.1892L47.2136 68.2562L53.9712 56.0452" stroke="url(#paint5_linear_14181_2187)" stroke-width="1.4" stroke-miterlimit="10" stroke-linecap="round" stroke-linejoin="round"/>
<path d="M61.0827 58.772L55.0364 74.3025L53.021 67.1893" stroke="url(#paint6_linear_14181_2187)" stroke-width="1.4" stroke-miterlimit="10" stroke-linecap="round" stroke-linejoin="round"/>
<path d="M68.1926 56.0452L75.0688 68.2562L69.1411 67.1892" stroke="url(#paint7_linear_14181_2187)" stroke-width="1.4" stroke-miterlimit="10" stroke-linecap="round" stroke-linejoin="round"/>
<path d="M61.0781 58.772L67.1244 74.3025L69.1398 67.1893" stroke="url(#paint8_linear_14181_2187)" stroke-width="1.4" stroke-miterlimit="10" stroke-linecap="round" stroke-linejoin="round"/>
<path d="M24.0938 63.1584L26.5834 66.478L29.5472 63.1584L33.4595 65.6481L38.4388 63.7512" stroke="url(#paint9_linear_14181_2187)" stroke-width="1.4" stroke-miterlimit="10" stroke-linecap="round" stroke-linejoin="round"/>
<path d="M19.9426 22.2573H58.2356" stroke="url(#paint10_linear_14181_2187)" stroke-width="1.4" stroke-miterlimit="10" stroke-linecap="round" stroke-linejoin="round"/>
<path d="M48.5141 32.453H19.9426" stroke="url(#paint11_linear_14181_2187)" stroke-width="1.4" stroke-miterlimit="10" stroke-linecap="round" stroke-linejoin="round"/>
<path d="M45.0761 42.6486H19.9426" stroke="url(#paint12_linear_14181_2187)" stroke-width="1.4" stroke-miterlimit="10" stroke-linecap="round" stroke-linejoin="round"/>
<path d="M45.0761 52.8442H19.9426" stroke="url(#paint13_linear_14181_2187)" stroke-width="1.4" stroke-miterlimit="10" stroke-linecap="round" stroke-linejoin="round"/>
<defs>
<linearGradient id="paint0_linear_14181_2187" x1="8" y1="12" x2="87.9497" y2="38.3234" gradientUnits="userSpaceOnUse">
<stop stop-color="#ECF6F5"/>
<stop offset="1" stop-color="#F3FFFF"/>
</linearGradient>
<linearGradient id="paint1_linear_14181_2187" x1="2.68986" y1="20.7792" x2="134.794" y2="-8.13232" gradientUnits="userSpaceOnUse">
<stop stop-color="#46A29F"/>
<stop offset="1" stop-color="#4660A2"/>
</linearGradient>
<linearGradient id="paint2_linear_14181_2187" x1="66.0052" y1="20.4691" x2="68.5598" y2="20.4351" gradientUnits="userSpaceOnUse">
<stop stop-color="#46A29F"/>
<stop offset="1" stop-color="#4660A2"/>
</linearGradient>
<linearGradient id="paint3_linear_14181_2187" x1="52.7063" y1="6.59807" x2="79.6626" y2="-1.48903" gradientUnits="userSpaceOnUse">
<stop stop-color="#46A29F"/>
<stop offset="1" stop-color="#4660A2"/>
</linearGradient>
<linearGradient id="paint4_linear_14181_2187" x1="46.125" y1="40.9583" x2="98.5981" y2="26.0816" gradientUnits="userSpaceOnUse">
<stop stop-color="#46A29F"/>
<stop offset="1" stop-color="#4660A2"/>
</linearGradient>
<linearGradient id="paint5_linear_14181_2187" x1="46.0524" y1="58.8327" x2="62.8646" y2="56.0702" gradientUnits="userSpaceOnUse">
<stop stop-color="#46A29F"/>
<stop offset="1" stop-color="#4660A2"/>
</linearGradient>
<linearGradient id="paint6_linear_14181_2187" x1="51.6357" y1="62.3173" x2="71.7558" y2="59.2163" gradientUnits="userSpaceOnUse">
<stop stop-color="#46A29F"/>
<stop offset="1" stop-color="#4660A2"/>
</linearGradient>
<linearGradient id="paint7_linear_14181_2187" x1="67.011" y1="58.8327" x2="84.1022" y2="55.9751" gradientUnits="userSpaceOnUse">
<stop stop-color="#46A29F"/>
<stop offset="1" stop-color="#4660A2"/>
</linearGradient>
<linearGradient id="paint8_linear_14181_2187" x1="59.6928" y1="62.3173" x2="79.813" y2="59.2163" gradientUnits="userSpaceOnUse">
<stop stop-color="#46A29F"/>
<stop offset="1" stop-color="#4660A2"/>
</linearGradient>
<linearGradient id="paint9_linear_14181_2187" x1="21.6287" y1="63.9162" x2="35.479" y2="46.145" gradientUnits="userSpaceOnUse">
<stop stop-color="#46A29F"/>
<stop offset="1" stop-color="#4660A2"/>
</linearGradient>
<linearGradient id="paint10_linear_14181_2187" x1="13.3624" y1="22.4856" x2="14.1134" y2="13.9463" gradientUnits="userSpaceOnUse">
<stop stop-color="#46A29F"/>
<stop offset="1" stop-color="#4660A2"/>
</linearGradient>
<linearGradient id="paint11_linear_14181_2187" x1="15.0329" y1="32.6813" x2="16.0334" y2="24.1938" gradientUnits="userSpaceOnUse">
<stop stop-color="#46A29F"/>
<stop offset="1" stop-color="#4660A2"/>
</linearGradient>
<linearGradient id="paint12_linear_14181_2187" x1="15.6237" y1="42.8768" x2="16.7565" y2="34.4232" gradientUnits="userSpaceOnUse">
<stop stop-color="#46A29F"/>
<stop offset="1" stop-color="#4660A2"/>
</linearGradient>
<linearGradient id="paint13_linear_14181_2187" x1="15.6237" y1="53.0725" x2="16.7565" y2="44.6189" gradientUnits="userSpaceOnUse">
<stop stop-color="#46A29F"/>
<stop offset="1" stop-color="#4660A2"/>
</linearGradient>
</defs>
</svg>
