<svg width="80" height="80" viewBox="0 0 80 80" fill="none" xmlns="http://www.w3.org/2000/svg">
<path d="M67.8751 60L64.5 63L17.6249 60C17.2796 60 17 59.7204 17 59.3751L12 20.5L16 16.6249C16 16.2796 16.2794 16 16.6249 16H67.8751C68.2206 16 68.5 16.2796 68.5 16.6249V59.3751C68.5 59.7202 68.2206 60 67.8751 60Z" fill="white"/>
<path d="M68 17L63 21.5L63.5 63L68 59V17Z" fill="#DEEEEE"/>
<path d="M63.5 21.2542H11V64.2441H63.5V21.2542Z" fill="#F0F4F4"/>
<path d="M13.1167 20.8237H10.6172V64.0687H13.1167V20.8237Z" fill="#F0F4F4"/>
<path d="M13 21H11V64H13V21Z" fill="white"/>
<path d="M63.3751 64H10.6249C10.2796 64 10 63.7204 10 63.3751V20.6249C10 20.2796 10.2794 20 10.6249 20H63.3751C63.7206 20 64 20.2796 64 20.6249V63.3751C64 63.7202 63.7206 64 63.3751 64ZM11.2498 62.7501H62.7503V21.2498H11.2498V62.7501Z" fill="url(#paint0_linear)"/>
<path d="M38.5165 50.3925H38.5247H38.533H38.5385H38.5467H38.5549H38.5632H38.5687H38.5769H38.5852H38.5934H38.5989H38.6071H38.6154H38.6236H38.6291H38.6374H38.6456H38.6538H38.6593H38.6676H38.6758H38.6841H38.6896H38.6978H38.706H38.7143H38.7198H38.7225H38.7308H38.739H38.7473H38.7527H38.7555H38.7637H38.772H38.7802H38.7857H38.7885H38.7967H38.8049H38.8132H38.8187H38.8214H38.8297H38.8379H38.8462H38.8516H38.8544H38.8626H38.8709H38.8791H38.8846H38.8874H38.8956H38.9038H38.9121H38.9176H38.9203C39.2802 50.3458 39.6374 50.2359 39.9835 50.0711V50.0821L40.2335 49.9366L40.239 49.9338L40.3736 49.8569L43.217 48.2147V48.2119C43.7775 47.8879 44.2198 47.4457 44.5247 46.9184H44.5275C44.8352 46.3856 45 45.7787 45 45.1334C45 44.488 44.8352 43.8811 44.5275 43.3483H44.5247C44.2198 42.8182 43.7747 42.3761 43.2143 42.052L39.2775 39.7809V39.7781L35.3379 37.5042H35.3324C34.7692 37.1774 34.1621 37.0154 33.5577 37.0154C32.9533 37.0154 32.3489 37.1774 31.783 37.5042H31.7802C31.2198 37.8255 30.7775 38.2704 30.4725 38.7977C30.1648 39.3305 30 39.9374 30 40.5828V49.6812C30 50.3238 30.1648 50.9307 30.4753 51.4717C30.7802 51.999 31.2225 52.4412 31.783 52.7652C32.3489 53.092 32.956 53.2541 33.5632 53.2541C34.1676 53.2541 34.772 53.092 35.3379 52.7652L36.5275 52.0787M38.5165 50.3925H38.5082M38.5165 50.3925H38.478H38.4863H38.4945H38.5027H38.5082M38.5082 50.3925H38.5H38.4918H38.489H38.4808H38.4725H38.4643C37.8571 50.3925 37.25 50.2304 36.6841 49.9036L36.6813 49.9009L36.6786 49.8981L36.6758 49.8954L36.6731 49.8926L36.6703 49.8899L36.6676 49.8871L36.6648 49.8844H36.6621L36.6593 49.8816L36.6566 49.8789L36.6538 49.8762L36.6511 49.8734L36.6484 49.8707L36.6456 49.8679L36.6429 49.8652H36.6401L36.6374 49.8624L36.6346 49.8597L36.6319 49.8569L36.6209 49.8899L36.6181 49.8871L36.6154 49.8844L36.6126 49.8816H36.6099L36.6071 49.8789L36.6044 49.8762L36.6016 49.8734H36.5934L36.5907 49.8707L36.5879 49.8679L36.5852 49.8652L36.5824 49.8624L36.5797 49.8597L36.5769 49.8569L36.5742 49.8542L36.5632 49.8487L36.5604 49.8459L36.5495 49.8405L36.5467 49.8377L36.544 49.835L36.5385 49.8322L36.5357 49.8295L36.533 49.8267L36.5302 49.824L36.5275 49.8212L36.5247 49.8185L36.522 49.8157L36.5192 49.813L36.5165 49.8102H36.5137L36.511 49.8075L36.5082 49.8048L36.5055 49.802L36.5027 49.7993L36.5 49.7965L36.4973 49.7938L36.4945 49.791L36.4918 49.7883L36.489 49.7855C36.0275 49.4779 35.6566 49.0825 35.3901 48.6211C35.0824 48.0883 34.9176 47.4814 34.9176 46.836V41.8653" stroke="url(#paint1_linear)" stroke-width="1.2"/>
<path d="M39.073 44.499C39.7982 44.499 40.3861 45.0867 40.3861 45.8117C40.3861 46.5368 39.7982 47.1245 39.073 47.1245C38.3477 47.1245 37.7598 46.5368 37.7598 45.8117C37.757 45.0867 38.3477 44.499 39.073 44.499Z" fill="url(#paint2_linear)"/>
<path d="M33.4524 30.8542C34.5557 30.8542 35.4513 31.7478 35.4513 32.8521C35.4513 33.9545 34.5576 34.8501 33.4524 34.8501C32.3493 34.8501 31.4538 33.9567 31.4535 32.8527C31.4559 31.7467 32.3503 30.8542 33.4524 30.8542Z" stroke="url(#paint3_linear)" stroke-width="1.2"/>
<path fill-rule="evenodd" clip-rule="evenodd" d="M10.2148 20.5889L14.0008 16.5832L14.7148 16.0889L15.2841 16.9111L10.7841 21.4111L10.2148 20.5889Z" fill="url(#paint4_linear)"/>
<path fill-rule="evenodd" clip-rule="evenodd" d="M62.7148 63.0889L68.2148 58.5889L68.784 59.4111L68.2492 59.7814L63.284 63.9111L62.7148 63.0889Z" fill="url(#paint5_linear)"/>
<path fill-rule="evenodd" clip-rule="evenodd" d="M62.7148 21.0889L67.2603 17.2498L68.2148 16.5889L68.784 17.4111L67.7497 18.1272L63.284 21.9111L62.7148 21.0889Z" fill="url(#paint6_linear)"/>
<path d="M14.6243 16C14.2929 16 14.0222 16.2574 14.0008 16.5832L14.7148 16.0889L15.2841 16.9111L14.7949 17.2498H67.2603L68.2148 16.5889L68.784 17.4111L67.7497 18.1272V58.9109L68.2148 58.5889L68.784 59.4111L68.2492 59.7814L68.3746 60C68.72 60 68.9995 59.7202 68.9995 59.3751V16.6249C68.9995 16.2796 68.72 16 68.3746 16H14.6243Z" fill="url(#paint7_linear)"/>
<defs>
<linearGradient id="paint0_linear" x1="0.720641" y1="30.0442" x2="122.521" y2="-14.3392" gradientUnits="userSpaceOnUse">
<stop stop-color="#46A29F"/>
<stop offset="1" stop-color="#4660A2"/>
</linearGradient>
<linearGradient id="paint1_linear" x1="27.4224" y1="40.7223" x2="63.0671" y2="30.9462" gradientUnits="userSpaceOnUse">
<stop stop-color="#46A29F"/>
<stop offset="1" stop-color="#4660A2"/>
</linearGradient>
<linearGradient id="paint2_linear" x1="37.3084" y1="45.0984" x2="43.475" y2="43.2668" gradientUnits="userSpaceOnUse">
<stop stop-color="#46A29F"/>
<stop offset="1" stop-color="#4660A2"/>
</linearGradient>
<linearGradient id="paint3_linear" x1="29.9603" y1="31.4403" x2="42.1644" y2="27.8154" gradientUnits="userSpaceOnUse">
<stop stop-color="#46A29F"/>
<stop offset="1" stop-color="#4660A2"/>
</linearGradient>
<linearGradient id="paint4_linear" x1="0.113298" y1="26.937" x2="132.714" y2="-21.3693" gradientUnits="userSpaceOnUse">
<stop stop-color="#46A29F"/>
<stop offset="1" stop-color="#4660A2"/>
</linearGradient>
<linearGradient id="paint5_linear" x1="0.113298" y1="26.937" x2="132.714" y2="-21.3693" gradientUnits="userSpaceOnUse">
<stop stop-color="#46A29F"/>
<stop offset="1" stop-color="#4660A2"/>
</linearGradient>
<linearGradient id="paint6_linear" x1="0.113298" y1="26.937" x2="132.714" y2="-21.3693" gradientUnits="userSpaceOnUse">
<stop stop-color="#46A29F"/>
<stop offset="1" stop-color="#4660A2"/>
</linearGradient>
<linearGradient id="paint7_linear" x1="0.113298" y1="26.937" x2="132.714" y2="-21.3693" gradientUnits="userSpaceOnUse">
<stop stop-color="#46A29F"/>
<stop offset="1" stop-color="#4660A2"/>
</linearGradient>
</defs>
</svg>
