<svg width="80" height="80" viewBox="0 0 80 80" fill="none" xmlns="http://www.w3.org/2000/svg">
<g clip-path="url(#clip0)">
<path d="M61.8749 74.3749C61.8749 77.1251 59.6265 79.3748 56.8749 79.3748H23.125C20.3759 79.3748 18.125 77.125 18.125 74.3749V8.1249C18.125 5.37468 20.3759 3.12488 23.125 3.12488H56.8749C59.6265 3.12488 61.8749 5.37468 61.8749 8.1249V74.3749Z" fill="#656D78"/>
<path d="M61.8749 74.3749C61.8749 77.1251 59.6265 79.3748 56.8749 79.3748H23.125C20.3759 79.3748 18.125 77.125 18.125 74.3749V8.1249C18.125 5.37468 20.3759 3.12488 23.125 3.12488H56.8749C59.6265 3.12488 61.8749 5.37468 61.8749 8.1249V74.3749Z" fill="#DEEEEE"/>
<path d="M61.8749 71.875C61.8749 74.6253 59.6265 76.8751 56.8749 76.8751H23.125C20.3759 76.8751 18.125 74.6253 18.125 71.875V5.62502C18.125 2.87481 20.3759 0.625 23.125 0.625H56.8749C59.6265 0.625 61.8749 2.87481 61.8749 5.62502V71.875Z" fill="#DEEEEE"/>
<path d="M20.625 71.875V5.62502C20.625 2.87481 22.8759 0.625 25.625 0.625H23.125C20.3759 0.625 18.125 2.87481 18.125 5.62502V71.875C18.125 74.6253 20.3759 76.8751 23.125 76.8751H25.625C22.8759 76.8751 20.625 74.6253 20.625 71.875Z" fill="#F0F4F4"/>
<path d="M61.7506 6H18V66.0005H61.7506V6Z" fill="#F0F4F4"/>
<path d="M43.1251 71.2498C43.1251 72.9772 41.7262 74.375 40.0001 74.375C38.2753 74.375 36.875 72.9772 36.875 71.2498C36.875 69.5239 38.2751 68.1249 40.0001 68.1249C41.7262 68.1249 43.1251 69.5239 43.1251 71.2498Z" fill="#F0F4F4"/>
<path d="M20.625 5.62476H18.125V65.6253H20.625V5.62476Z" fill="#F0F4F4"/>
<path d="M42.2193 47.8942H42.2312H42.243H42.2509H42.2627H42.2745H42.2863H42.2942H42.306H42.3179H42.3297H42.3376H42.3494H42.3612H42.3731H42.3809H42.3928H42.4046H42.4164H42.4243H42.4361H42.4479H42.4598H42.4677H42.4795H42.4913H42.5031H42.511H42.515H42.5268H42.5386H42.5504H42.5583H42.5623H42.5741H42.5859H42.5977H42.6056H42.6096H42.6214H42.6332H42.645H42.6529H42.6569H42.6687H42.6805H42.6923H42.7002H42.7042H42.716H42.7278H42.7396H42.7475H42.7515H42.7633H42.7751H42.7869H42.7948H42.7988C43.3151 47.8272 43.8275 47.6696 44.3242 47.4331V47.4489L44.6829 47.2401L44.6908 47.2361L44.8839 47.1258L48.9636 44.7695V44.7656C49.7677 44.3006 50.4023 43.6662 50.8399 42.9097H50.8438C51.2853 42.1453 51.5218 41.2744 51.5218 40.3485C51.5218 39.4225 51.2853 38.5517 50.8438 37.7873H50.8399C50.4023 37.0268 49.7638 36.3924 48.9597 35.9274L43.3112 32.6688V32.6649L37.6588 29.4023H37.6509C36.8428 28.9334 35.9717 28.7009 35.1045 28.7009C34.2373 28.7009 33.3702 28.9334 32.5582 29.4023H32.5542C31.7501 29.8633 31.1155 30.5016 30.678 31.2582C30.2365 32.0226 30 32.8934 30 33.8194V46.8736C30 47.7957 30.2365 48.6665 30.6819 49.4427C31.1194 50.1992 31.7541 50.8336 32.5582 51.2986C33.3702 51.7675 34.2413 52 35.1124 52C35.9796 52 36.8468 51.7675 37.6588 51.2986L39.3655 50.3135M42.2193 47.8942H42.2075M42.2193 47.8942H42.1641H42.176H42.1878H42.1996H42.2075M42.2075 47.8942H42.1957H42.1839H42.1799H42.1681H42.1563H42.1444C41.2733 47.8942 40.4022 47.6617 39.5902 47.1928L39.5863 47.1888L39.5823 47.1849L39.5784 47.181L39.5744 47.177L39.5705 47.1731L39.5666 47.1691L39.5626 47.1652H39.5587L39.5547 47.1613L39.5508 47.1573L39.5468 47.1534L39.5429 47.1494L39.539 47.1455L39.535 47.1416L39.5311 47.1376H39.5271L39.5232 47.1337L39.5192 47.1297L39.5153 47.1258L39.4995 47.1731L39.4956 47.1691L39.4917 47.1652L39.4877 47.1613H39.4838L39.4798 47.1573L39.4759 47.1534L39.4719 47.1494H39.4601L39.4562 47.1455L39.4522 47.1416L39.4483 47.1376L39.4444 47.1337L39.4404 47.1297L39.4365 47.1258L39.4325 47.1219L39.4168 47.114L39.4128 47.11L39.3971 47.1022L39.3931 47.0982L39.3892 47.0943L39.3813 47.0903L39.3773 47.0864L39.3734 47.0825L39.3695 47.0785L39.3655 47.0746L39.3616 47.0706L39.3576 47.0667L39.3537 47.0628L39.3498 47.0588H39.3458L39.3419 47.0549L39.3379 47.0509L39.334 47.047L39.33 47.0431L39.3261 47.0391L39.3222 47.0352L39.3182 47.0312L39.3143 47.0273L39.3103 47.0234C38.6481 46.582 38.116 46.0146 37.7337 45.3527C37.2922 44.5882 37.0557 43.7174 37.0557 42.7915V35.6595" stroke="url(#paint0_linear)" stroke-width="1.2"/>
<path d="M43.017 39.4384C44.0576 39.4384 44.9011 40.2816 44.9011 41.3218C44.9011 42.3621 44.0576 43.2053 43.017 43.2053C41.9764 43.2053 41.1328 42.3621 41.1328 41.3218C41.1289 40.2816 41.9764 39.4384 43.017 39.4384Z" fill="url(#paint1_linear)"/>
<path d="M34.9535 19.6C36.6803 19.6 38.0823 20.9987 38.0823 22.7275C38.0823 24.4532 36.6834 25.8551 34.9535 25.8551C33.2268 25.8551 31.8249 24.4566 31.8246 22.7281C31.8282 20.9976 33.2279 19.6 34.9535 19.6Z" stroke="url(#paint2_linear)" stroke-width="1.2"/>
<path d="M56.9121 3.74984C56.5669 3.74984 56.2812 3.47025 56.2812 3.12472C56.2812 2.77934 56.5547 2.49976 56.8987 2.49976H56.9121C57.2564 2.49976 57.5373 2.77934 57.5373 3.12472C57.5373 3.47041 57.2564 3.74984 56.9121 3.74984Z" fill="url(#paint3_linear)"/>
<path d="M54.4125 3.74984C54.0669 3.74984 53.7812 3.47025 53.7812 3.12472C53.7812 2.77934 54.0547 2.49976 54.399 2.49976H54.4125C54.7567 2.49976 55.0376 2.77934 55.0376 3.12472C55.0376 3.47041 54.7567 3.74984 54.4125 3.74984Z" fill="url(#paint4_linear)"/>
<path d="M56.8749 77.5H23.125C20.0231 77.5 17.5 74.9767 17.5 71.875V5.62498C17.5 2.52314 20.0233 0 23.125 0H56.8749C59.9767 0 62.5 2.5233 62.5 5.62498V71.875C62.5 74.9769 59.9766 77.5 56.8749 77.5ZM23.125 1.25008C20.7128 1.25008 18.7499 3.21296 18.7499 5.62498V71.875C18.7499 74.2872 20.7128 76.2499 23.125 76.2499H56.8749C59.2872 76.2499 61.2501 74.287 61.2501 71.875V5.62498C61.2501 3.2128 59.2871 1.25008 56.8749 1.25008H23.125Z" fill="url(#paint5_linear)"/>
<path d="M56.8749 80.0001H23.125C20.0231 80.0001 17.5 77.4768 17.5 74.3751C17.5 74.0295 17.7796 73.7501 18.125 73.7501C18.4705 73.7501 18.7501 74.0295 18.7501 74.3751C18.7501 76.7873 20.713 78.75 23.1251 78.75H56.875C59.2874 78.75 61.2503 76.7871 61.2503 74.3751C61.2503 74.0295 61.5295 73.7501 61.8751 73.7501C62.2206 73.7501 62.5002 74.0295 62.5002 74.3751C62.5 77.4769 59.9766 80.0001 56.8749 80.0001Z" fill="url(#paint6_linear)"/>
<path d="M61.8748 74.9998C61.5293 74.9998 61.25 74.7203 61.25 74.3749V71.8749C61.25 71.5293 61.5293 71.2498 61.8748 71.2498C62.2203 71.2498 62.4999 71.5293 62.4999 71.8749V74.3749C62.4999 74.7203 62.2203 74.9998 61.8748 74.9998Z" fill="url(#paint7_linear)"/>
<path d="M18.125 74.9998C17.7796 74.9998 17.5 74.7203 17.5 74.3749V71.8749C17.5 71.5293 17.7796 71.2498 18.125 71.2498C18.4705 71.2498 18.7501 71.5293 18.7501 71.8749V74.3749C18.7499 74.7203 18.4705 74.9998 18.125 74.9998Z" fill="url(#paint8_linear)"/>
<path d="M60.625 6.25005H19.375C19.0296 6.25005 18.75 5.97062 18.75 5.62509C18.75 5.27971 19.0296 5.00012 19.375 5.00012H60.6249C60.9704 5.00012 61.25 5.27971 61.25 5.62509C61.2501 5.97062 60.9706 6.25005 60.625 6.25005Z" fill="url(#paint9_linear)"/>
<path d="M60.625 66.2501H19.375C19.0296 66.2501 18.75 65.9705 18.75 65.6251C18.75 65.2796 19.0296 65 19.375 65H60.6249C60.9704 65 61.25 65.2796 61.25 65.6251C61.2501 65.9705 60.9706 66.2501 60.625 66.2501Z" fill="url(#paint10_linear)"/>
<path d="M40.0001 75C37.9322 75 36.25 73.3178 36.25 71.2499C36.25 69.1822 37.9322 67.5 40.0001 67.5C42.068 67.5 43.7502 69.1822 43.7502 71.2499C43.7502 73.3178 42.068 75 40.0001 75ZM40.0001 68.7501C38.6219 68.7501 37.5001 69.8719 37.5001 71.2499C37.5001 72.6282 38.6219 73.7501 40.0001 73.7501C41.3782 73.7501 42.4999 72.6282 42.4999 71.2499C42.4999 69.8719 41.3782 68.7501 40.0001 68.7501Z" fill="url(#paint11_linear)"/>
<path d="M44.3749 3.74984H35.625C35.2796 3.74984 35 3.47025 35 3.12472C35 2.77934 35.2796 2.49976 35.625 2.49976H44.3749C44.7205 2.49976 45 2.77934 45 3.12472C45 3.47041 44.7205 3.74984 44.3749 3.74984Z" fill="url(#paint12_linear)"/>
<path d="M62.5001 14.9998C62.1546 14.9998 61.875 14.7204 61.875 14.3749V11.8748C61.875 11.5295 62.1546 11.2499 62.5001 11.2499C62.8457 11.2499 63.1249 11.5295 63.1249 11.8748V14.3749C63.1249 14.7204 62.8457 14.9998 62.5001 14.9998Z" fill="url(#paint13_linear)"/>
<path d="M17.5 16.2501C17.1546 16.2501 16.875 15.9705 16.875 15.625V13.1251C16.875 12.7796 17.1546 12.5 17.5 12.5C17.8453 12.5 18.1249 12.7796 18.1249 13.1251V15.6251C18.1249 15.9705 17.8453 16.2501 17.5 16.2501Z" fill="url(#paint14_linear)"/>
<path d="M62.5001 26.25C62.1546 26.25 61.875 25.9704 61.875 25.625V18.125C61.875 17.7796 62.1546 17.4999 62.5001 17.4999C62.8457 17.4999 63.1249 17.7795 63.1249 18.125V25.625C63.1249 25.9704 62.8457 26.25 62.5001 26.25Z" fill="url(#paint15_linear)"/>
</g>
<defs>
<linearGradient id="paint0_linear" x1="26.3017" y1="34.0196" x2="77.4442" y2="19.9929" gradientUnits="userSpaceOnUse">
<stop stop-color="#46A29F"/>
<stop offset="1" stop-color="#4660A2"/>
</linearGradient>
<linearGradient id="paint1_linear" x1="40.4853" y1="40.2983" x2="49.333" y2="37.6703" gradientUnits="userSpaceOnUse">
<stop stop-color="#46A29F"/>
<stop offset="1" stop-color="#4660A2"/>
</linearGradient>
<linearGradient id="paint2_linear" x1="29.9431" y1="20.7018" x2="47.4533" y2="15.5009" gradientUnits="userSpaceOnUse">
<stop stop-color="#46A29F"/>
<stop offset="1" stop-color="#4660A2"/>
</linearGradient>
<linearGradient id="paint3_linear" x1="56.0654" y1="2.78512" x2="59.0124" y2="1.90598" gradientUnits="userSpaceOnUse">
<stop stop-color="#46A29F"/>
<stop offset="1" stop-color="#4660A2"/>
</linearGradient>
<linearGradient id="paint4_linear" x1="53.5654" y1="2.78512" x2="56.5129" y2="1.90558" gradientUnits="userSpaceOnUse">
<stop stop-color="#46A29F"/>
<stop offset="1" stop-color="#4660A2"/>
</linearGradient>
<linearGradient id="paint5_linear" x1="9.76719" y1="17.6915" x2="121.426" y2="-1.55875" gradientUnits="userSpaceOnUse">
<stop stop-color="#46A29F"/>
<stop offset="1" stop-color="#4660A2"/>
</linearGradient>
<linearGradient id="paint6_linear" x1="9.76717" y1="75.1768" x2="30.4088" y2="31.049" gradientUnits="userSpaceOnUse">
<stop stop-color="#46A29F"/>
<stop offset="1" stop-color="#4660A2"/>
</linearGradient>
<linearGradient id="paint7_linear" x1="61.0352" y1="72.1058" x2="64.1979" y2="71.7928" gradientUnits="userSpaceOnUse">
<stop stop-color="#46A29F"/>
<stop offset="1" stop-color="#4660A2"/>
</linearGradient>
<linearGradient id="paint8_linear" x1="17.2852" y1="72.1058" x2="20.4482" y2="71.7928" gradientUnits="userSpaceOnUse">
<stop stop-color="#46A29F"/>
<stop offset="1" stop-color="#4660A2"/>
</linearGradient>
<linearGradient id="paint9_linear" x1="11.4468" y1="5.28545" x2="12.5019" y2="-5.36618" gradientUnits="userSpaceOnUse">
<stop stop-color="#46A29F"/>
<stop offset="1" stop-color="#4660A2"/>
</linearGradient>
<linearGradient id="paint10_linear" x1="11.4468" y1="65.2854" x2="12.5021" y2="54.6325" gradientUnits="userSpaceOnUse">
<stop stop-color="#46A29F"/>
<stop offset="1" stop-color="#4660A2"/>
</linearGradient>
<linearGradient id="paint11_linear" x1="34.9612" y1="69.2121" x2="52.572" y2="63.9831" gradientUnits="userSpaceOnUse">
<stop stop-color="#46A29F"/>
<stop offset="1" stop-color="#4660A2"/>
</linearGradient>
<linearGradient id="paint12_linear" x1="33.2816" y1="2.78512" x2="37.1288" y2="-6.35259" gradientUnits="userSpaceOnUse">
<stop stop-color="#46A29F"/>
<stop offset="1" stop-color="#4660A2"/>
</linearGradient>
<linearGradient id="paint13_linear" x1="61.6602" y1="12.1059" x2="64.8229" y2="11.7929" gradientUnits="userSpaceOnUse">
<stop stop-color="#46A29F"/>
<stop offset="1" stop-color="#4660A2"/>
</linearGradient>
<linearGradient id="paint14_linear" x1="16.6602" y1="13.3561" x2="19.8229" y2="13.0431" gradientUnits="userSpaceOnUse">
<stop stop-color="#46A29F"/>
<stop offset="1" stop-color="#4660A2"/>
</linearGradient>
<linearGradient id="paint15_linear" x1="61.6602" y1="19.4973" x2="64.8481" y2="19.3621" gradientUnits="userSpaceOnUse">
<stop stop-color="#46A29F"/>
<stop offset="1" stop-color="#4660A2"/>
</linearGradient>
<clipPath id="clip0">
<rect width="80" height="80" fill="white"/>
</clipPath>
</defs>
</svg>
