<svg width="80" height="80" viewBox="0 0 80 80" fill="none" xmlns="http://www.w3.org/2000/svg">
<path d="M47.8515 64.3555H32.1485L30.3516 73.1252H49.6094L47.8515 64.3555Z" fill="#F0F4F4"/>
<path d="M40 55.6006C41.0377 55.6006 41.8751 56.438 41.8751 57.4756C41.8751 58.5133 41.0377 59.3507 40 59.3507C38.9624 59.3507 38.125 58.5133 38.125 57.4756C38.125 56.438 38.9624 55.6006 40 55.6006Z" fill="#DEEEEE"/>
<path d="M79.3752 58.125V60.6006C79.3752 62.7124 77.737 64.3505 75.6251 64.3505C74.7376 64.3505 62.3378 64.3505 48.1129 64.3505C42.7882 64.3505 37.212 64.3505 31.8873 64.3505C17.6626 64.3505 5.26256 64.3505 4.37511 64.3505C2.26315 64.3505 0.625 62.7124 0.625 60.6006V58.125C0.625 60.1879 2.31191 61.875 4.37511 61.875H40.0001H75.6251C77.6881 61.875 79.3752 60.1879 79.3752 58.125Z" fill="#F0F4F4"/>
<path d="M4.60217 61.875H4.37511C2.31207 61.875 0.625 60.1879 0.625 58.125V60.6006C0.625 62.7124 2.26315 64.3505 4.37511 64.3505C4.64608 64.3505 5.99373 64.3505 8.12507 64.3505C6.46488 64.3505 5.11238 63.3326 4.60217 61.875Z" fill="white"/>
<path d="M75.3979 61.875H75.625C77.688 61.875 79.3751 60.1879 79.3751 58.125V60.6006C79.3751 62.7124 77.7369 64.3505 75.625 64.3505C75.354 64.3505 74.0065 64.3505 71.875 64.3505C73.5352 64.3505 74.8877 63.3326 75.3979 61.875Z" fill="#DEEEEE"/>
<path d="M79.3751 53.1006V58.1251C79.3751 60.1879 77.688 61.875 75.625 61.875H40V59.3507C41.0376 59.3507 41.8751 58.5132 41.8751 57.4756C41.8751 56.438 41.0376 55.6006 40 55.6006V53.1006H79.3751Z" fill="white"/>
<path d="M40.0001 59.3507V61.875H4.37511C2.31207 61.875 0.625 60.1879 0.625 58.1251V58.1007V53.1006H40.0001V55.6006C38.9625 55.6006 38.125 56.438 38.125 57.4756C38.125 58.5132 38.9625 59.3507 40.0001 59.3507Z" fill="white"/>
<path d="M79.375 8.12508V53.1006H39.9999H0.625V8.12508C0.625 6.06281 2.31191 4.37512 4.37511 4.37512H75.6249C77.688 4.37512 79.375 6.06281 79.375 8.12508ZM75.6249 49.3507V10.6V8.10008H73.1249H70.625H66.8748H64.3749H61.8748H59.3748H56.8748H29.375H24.375H19.3749H14.375H9.3749H4.37496V10.6V49.3507H75.6249Z" fill="#DEEEEE"/>
<path d="M5.6251 4.37512H4.37511C2.31207 4.37512 0.625 6.06281 0.625 8.12508V53.1006H1.87499V8.12508C1.87514 6.06281 3.56205 4.37512 5.6251 4.37512Z" fill="#F0F4F4"/>
<path d="M75.625 4.37512H74.375C76.438 4.37512 78.125 6.06281 78.125 8.12508V53.1006H79.3751V8.12508C79.3751 6.06281 77.688 4.37512 75.625 4.37512Z" fill="#DEEEEE"/>
<path d="M75.6253 8H4.375V49.25H75.6253V8Z" fill="#F0F4F4"/>
<path d="M37.3889 14C33.0017 14 29.4453 17.7205 29.4453 22.31V34.7756H45.3326V22.31C45.3327 17.7205 41.7763 14 37.3889 14Z" fill="#DEEEEE"/>
<path d="M46.6834 33.6671C46.327 33.5368 44.9462 32.507 44.4066 32.3314H38.0039H37.9941H31.5912C31.0518 32.507 29.6708 33.5368 29.3144 33.6671C27.7683 34.217 27 34.7668 27 36.2425C27 37.7088 27 38.4419 27 38.4419H48.9977C48.9977 38.4419 48.9977 37.7088 48.9977 36.2425C48.9977 34.7668 48.2297 34.217 46.6834 33.6671Z" fill="#DEEEEE"/>
<path d="M30.9437 33.6671C31.2826 33.5368 32.597 32.507 33.1105 32.3314H31.3694C30.856 32.507 29.5418 33.5368 29.2026 33.6671C27.7312 34.217 27 34.7668 27 36.2425C27 37.7088 27 38.4419 27 38.4419H28.7411C28.7411 38.4419 28.7411 37.7088 28.7411 36.2425C28.7412 34.7668 29.4721 34.217 30.9437 33.6671Z" fill="#EBF0F6"/>
<path d="M46.3514 33.6671C45.9444 33.5368 44.3674 32.507 43.7512 32.3314H41.6621C42.2782 32.507 43.8553 33.5368 44.2624 33.6671C46.0282 34.217 46.9056 34.7668 46.9056 36.2425C46.9056 37.7088 46.9056 38.4419 46.9056 38.4419H48.9947C48.9947 38.4419 48.9947 37.7088 48.9947 36.2425C48.9946 34.7668 48.1174 34.217 46.3514 33.6671Z" fill="#DEEEEE"/>
<path d="M41.6666 29.8872H34.334V33.5535H41.6666V29.8872Z" fill="#EBF0F6"/>
<path d="M43.9373 31.8444L41.1779 29.9338L38.4648 38.2498L42.1073 34.5896L41.1922 33.6746L43.9373 31.8444Z" fill="white"/>
<path d="M31.125 31.8444L33.8846 29.9338L36.5977 38.2498L32.9552 34.5896L33.8703 33.6746L31.125 31.8444Z" fill="white"/>
<path d="M37.5332 33.6741V38.2494H38.4662L40.2783 32.7679L37.5332 33.6741Z" fill="#DEEEEE"/>
<path d="M36.5956 38.2494H37.5286V33.6741L34.7832 32.7679L36.5956 38.2494Z" fill="#DEEEEE"/>
<path d="M41.7246 19.0257C41.6645 18.9989 39.0809 18.9307 37.3877 18.8884C35.6944 18.9307 33.1106 18.9989 33.0505 19.0257C32.9605 19.0657 30.666 23.0516 30.666 23.0516V24.0718C30.666 28.3704 34.8284 32.3211 37.3877 32.3315C39.9467 32.3211 44.1091 28.3704 44.1091 24.0718V23.0516C44.1091 23.0518 41.8148 19.0657 41.7246 19.0257Z" fill="#EBF0F6"/>
<path d="M41.8363 19.0257C41.7788 18.9989 39.3132 18.9307 37.6973 18.8884C37.4123 18.8959 37.0993 18.9044 36.7793 18.9129C38.2736 18.9537 39.9531 19.0036 40.0008 19.0257C40.0867 19.0657 42.2764 23.0516 42.2764 23.0516V24.0718C42.2764 27.8646 39.185 31.3824 36.7793 32.1655C37.1002 32.2703 37.4096 32.33 37.6973 32.3315C40.1395 32.3211 44.1119 28.3704 44.1119 24.0718V23.0516C44.1119 23.0518 41.9224 19.0657 41.8363 19.0257Z" fill="#DEEEEE"/>
<path d="M32.5017 24.0718V23.0516C32.5017 23.0516 34.6912 19.0657 34.7773 19.0257C34.8249 19.0036 36.5043 18.9537 37.9986 18.9129C37.6786 18.9044 37.3658 18.896 37.0809 18.8884C35.4649 18.9307 32.999 18.9989 32.9416 19.0257C32.8558 19.0657 30.666 23.0516 30.666 23.0516V24.0718C30.666 28.3704 34.6384 32.3211 37.0809 32.3315C37.3686 32.33 37.6777 32.2703 37.9986 32.1655C35.5929 31.3823 32.5017 27.8646 32.5017 24.0718Z" fill="white"/>
<path d="M29.5655 23.7768C32.1096 23.064 37.9462 20.8596 39.7194 19.841C42.4285 18.3007 44.0676 16.8491 44.1105 16.8107C42.5718 15.0892 40.3415 14 37.8515 14C33.2088 14 29.4453 17.7659 29.4453 22.4113C29.4452 22.8779 29.4927 23.3313 29.5655 23.7768Z" fill="#DEEEEE"/>
<path d="M30.3475 22.4114C30.3475 17.9297 33.7347 14.277 38 14.0247C37.8547 14.0165 37.7128 14 37.5657 14C33.0809 14 29.4453 17.7659 29.4453 22.4114C29.4453 22.8777 29.4911 23.3313 29.5614 23.7768C29.8172 23.7029 30.1132 23.6092 30.4295 23.5057C30.3819 23.147 30.3475 22.7842 30.3475 22.4114Z" fill="#EBF0F6"/>
<path d="M45.3331 22.7743C45.3331 20.3164 44.4993 18.0889 43.1483 16.4441L39.2227 19.9831C39.2227 19.9831 41.1722 22.4975 45.2845 23.7767C45.3152 23.4467 45.3331 23.1134 45.3331 22.7743Z" fill="#DEEEEE"/>
<path d="M43.2606 16.9497C43.2615 16.9492 43.2659 16.9454 43.2659 16.9454C43.2431 16.9168 43.2166 16.8923 43.193 16.8646C43.1552 16.8196 43.1209 16.7709 43.0825 16.7268C43.079 16.7225 43.0693 16.7258 43.064 16.723C41.5916 15.0523 39.5334 14 37.2379 14C37.0832 14 36.9322 14.0158 36.7793 14.0254C38.8957 14.151 40.7879 15.161 42.1643 16.723C42.1696 16.7258 42.1793 16.7225 42.1828 16.7268C42.2215 16.7708 42.2557 16.8196 42.2935 16.8646C42.3172 16.8923 42.3436 16.9166 42.3664 16.9449C42.3664 16.9449 42.362 16.9492 42.3611 16.9497C43.6446 18.5071 44.4342 20.556 44.4342 22.8129C44.4342 23.0418 44.4158 23.2656 44.3991 23.4899C44.6839 23.5902 44.9765 23.6873 45.2839 23.7768C45.3155 23.4593 45.334 23.139 45.334 22.8129C45.334 20.556 44.5441 18.5071 43.2606 16.9497Z" fill="#DEEEEE"/>
<path d="M37.3935 35.9977C37.0571 35.9977 36.7793 35.7244 36.7793 35.3868C36.7793 35.0489 37.0452 34.7756 37.3804 34.7756H37.3935C37.7283 34.7756 38.0014 35.0489 38.0014 35.3868C38.0014 35.7244 37.7283 35.9977 37.3935 35.9977Z" fill="url(#paint0_linear)"/>
<path d="M37.7596 32.3314C36.3653 32.3314 34.5337 31.1136 33.2 29.3013C33.0568 29.1064 33.0908 28.826 33.2751 28.6748C33.4596 28.5236 33.7259 28.5584 33.8696 28.7538C35.0316 30.3344 36.6315 31.4386 37.7596 31.4386C39.8301 31.4386 43.2635 27.9436 43.2635 24.2233C43.2635 23.9765 43.4528 23.7767 43.6867 23.7767C43.9207 23.7767 44.1102 23.9765 44.1102 24.2233C44.1102 28.5418 40.1518 32.3314 37.7596 32.3314Z" fill="url(#paint1_linear)"/>
<path d="M48.5336 38.4419H29.9105C29.6535 38.4419 29.4453 38.2464 29.4453 38.0048C29.4453 37.7631 29.6535 37.5677 29.9105 37.5677H48.0687V35.802C48.0687 34.6627 47.628 34.196 46.0173 33.6326C45.7701 33.543 45.463 33.4474 45.1206 33.3405L44.6165 33.1823C44.374 33.1046 44.2431 32.8562 44.3258 32.6278C44.4095 32.3986 44.6728 32.2782 44.9162 32.3542L45.4141 32.5109C45.7718 32.6226 46.0925 32.7229 46.3471 32.8148C48.025 33.4026 48.9988 34.0805 48.9988 35.802V38.0048C48.9988 38.2463 48.7907 38.4419 48.5336 38.4419Z" fill="url(#paint2_linear)"/>
<path d="M45.9413 31.1094C45.6033 31.1094 45.3301 30.9247 45.3301 30.6964V22.9676C45.3301 22.7394 45.6033 22.5547 45.9413 22.5547C46.279 22.5547 46.5522 22.7394 46.5522 22.9676V30.6964C46.5522 30.9247 46.279 31.1094 45.9413 31.1094Z" fill="url(#paint3_linear)"/>
<path d="M29.9175 18.8884C29.8464 18.8884 29.7747 18.8748 29.7074 18.8459C29.4739 18.746 29.3792 18.5014 29.4942 18.3C31.0213 15.6478 34.099 14 37.5281 14C37.7889 14 38 14.1822 38 14.4074C38 14.6326 37.7889 14.8148 37.5281 14.8148C34.4604 14.8148 31.7062 16.2891 30.3408 18.6621C30.2577 18.8056 30.091 18.8884 29.9175 18.8884Z" fill="url(#paint4_linear)"/>
<path d="M46.0674 22.5547C45.797 22.5547 45.5784 22.3633 45.5784 22.127C45.5784 20.3279 44.8279 18.6069 43.4646 17.2803C41.8853 15.7389 39.6264 14.8555 37.2682 14.8555C36.9978 14.8555 36.7793 14.6642 36.7793 14.4278C36.7793 14.1913 36.9978 14 37.2682 14C39.9043 14 42.4277 14.987 44.1921 16.7084C45.717 18.1921 46.5561 20.1165 46.5561 22.127C46.5561 22.3633 46.3375 22.5547 46.0674 22.5547Z" fill="url(#paint5_linear)"/>
<path d="M33.5441 23.7767C33.3547 23.7767 33.1808 23.63 33.1274 23.4059C33.0631 23.1356 33.1975 22.8555 33.4273 22.78C35.4337 22.1225 37.4382 21.1239 39.3862 19.8123C41.8564 18.1656 43.3742 16.5888 43.3894 16.5733C43.5676 16.3863 43.8414 16.4042 44.0005 16.6144C44.1593 16.8237 44.144 17.1445 43.9658 17.331C43.9015 17.3979 42.3703 18.9911 39.8154 20.6939C37.8067 22.0466 35.7355 23.078 33.6606 23.7579C33.6217 23.7707 33.5819 23.7767 33.5441 23.7767Z" fill="url(#paint6_linear)"/>
<path d="M46.097 23.7768C46.0585 23.7768 46.019 23.7726 45.9805 23.7639C41.5452 22.7791 39.4285 20.8379 39.3407 20.7559C39.1715 20.5976 39.1859 20.3536 39.3729 20.21C39.5599 20.0683 39.85 20.0786 40.0201 20.2364C40.0398 20.2549 42.061 22.0933 46.2133 23.0159C46.4585 23.0703 46.6044 23.2818 46.54 23.4885C46.4861 23.662 46.3 23.7768 46.097 23.7768Z" fill="url(#paint7_linear)"/>
<path d="M43.5015 24.9989C43.1638 24.9989 42.8906 24.7335 42.8906 24.4057V23.1479C42.8906 22.82 43.1638 22.5547 43.5015 22.5547C43.8392 22.5547 44.1127 22.82 44.1127 23.1479V24.4057C44.1127 24.7335 43.8392 24.9989 43.5015 24.9989Z" fill="url(#paint8_linear)"/>
<path d="M39.6313 37.2198C39.5274 37.2198 39.423 37.1771 39.3431 37.0927C39.1835 36.9231 39.182 36.6469 39.3415 36.4755L41.4905 34.1654L40.9611 33.6002C40.8742 33.5076 40.8311 33.3785 40.8431 33.2485C40.8559 33.1185 40.9214 33.0007 41.0234 32.9283L42.9776 31.5367L41.833 30.6813C41.6485 30.5432 41.6029 30.2708 41.7331 30.0734C41.8623 29.8752 42.1171 29.8284 42.3022 29.9661L43.9369 31.188C44.0471 31.2708 44.1126 31.4063 44.111 31.5508C44.1094 31.6948 44.0415 31.8287 43.9289 31.9088L41.8918 33.3593L42.3565 33.8559C42.5161 34.026 42.5161 34.3013 42.3573 34.4723L39.921 37.091C39.8412 37.1772 39.7367 37.2198 39.6313 37.2198Z" fill="url(#paint9_linear)"/>
<path d="M35.2484 37.2198C35.1693 37.2198 35.0907 37.1776 35.0307 37.0923L33.2008 34.5013C33.0814 34.3322 33.0814 34.0597 33.2015 33.8914L33.5492 33.4022L33.2493 33.1239C33.1078 32.9923 33.0688 32.7246 33.1624 32.5255C33.2553 32.3255 33.446 32.2721 33.5877 32.4028L34.2018 32.9725C34.2786 33.0441 34.3289 33.1606 34.3379 33.2897C34.3475 33.4186 34.3152 33.5469 34.2498 33.6385L33.8522 34.1977L35.4661 36.4834C35.5861 36.6529 35.585 36.9264 35.4649 37.094C35.405 37.1777 35.3264 37.2198 35.2484 37.2198Z" fill="url(#paint10_linear)"/>
<path d="M37.3897 33.5535C35.4851 33.5535 34.5028 32.8814 34.4618 32.8527C34.2914 32.7334 34.2914 32.54 34.4618 32.4206C34.6323 32.3024 34.9078 32.3015 35.0766 32.4189C35.1081 32.4404 35.8661 32.9424 37.3897 32.9424C38.915 32.9424 39.6728 32.4455 39.7043 32.4243C39.8775 32.3085 40.1528 32.3112 40.3199 32.4306C40.4871 32.5508 40.4862 32.7421 40.3157 32.8603C40.2747 32.8886 39.2936 33.5535 37.3897 33.5535Z" fill="url(#paint11_linear)"/>
<path d="M23.5116 35.4982L21.5116 36.4885L18.5117 33.4884L19.4013 32.2716L23.5116 35.4982Z" fill="white"/>
<path d="M23.5527 35.4982L25.5522 36.4885L28.5521 33.4884L27.6635 32.2716L23.5527 35.4982Z" fill="white"/>
<path d="M27.4588 18.5185C27.4588 18.5185 31.5097 17.9491 30.49 24.4881L28.49 21.4882C28.49 21.4882 26.1191 22.4883 23.5189 22.4883C20.9291 22.4883 18.4896 21.4882 18.4896 21.4882L16.4994 24.4785L16.4896 24.4883C15.4593 13.4884 28.4998 15.6788 28.4998 15.6788C26.5585 16.4686 27.4588 18.5185 27.4588 18.5185Z" fill="#DEEEEE"/>
<path d="M26.4627 15.5079C22.8382 15.4102 15.7182 16.25 16.4896 24.4882L16.4994 24.4785L17.4437 23.0605C17.5765 16.7891 22.9318 15.6017 26.4627 15.5079Z" fill="#EBF0F6"/>
<path d="M30.5181 25.4981C30.5181 30.2481 26.188 34.629 23.5176 34.629C20.8584 34.629 16.5176 30.2481 16.5176 25.4981V24.4883L16.498 24.4786L18.4883 21.4883C18.4883 21.4883 20.9278 22.4883 23.5176 22.4883C26.1177 22.4883 28.4887 21.4883 28.4887 21.4883L30.4887 24.4882H30.518V25.4981H30.5181Z" fill="#EBF0F6"/>
<path d="M30.4887 24.4883L28.4887 21.4884C28.4887 21.4884 27.8325 21.7618 26.8443 22.0216L28.4887 24.4884H28.518V25.4983C28.518 29.6906 25.1469 33.59 22.5195 34.4495C22.8681 34.5637 23.205 34.6292 23.5176 34.6292C26.188 34.6292 30.5181 30.2484 30.5181 25.4984V24.4886H30.4887V24.4883Z" fill="#DEEEEE"/>
<path d="M18.5177 25.4983V24.4884L18.4982 24.4787L20.1378 22.0158C19.1466 21.758 18.4883 21.4884 18.4883 21.4884L16.498 24.4787L16.5176 24.4884V25.4983C16.5176 30.2482 20.8584 34.6291 23.5176 34.6291C23.831 34.6291 24.1689 34.5637 24.52 34.4493C21.8975 33.59 18.5177 29.6906 18.5177 25.4983Z" fill="white"/>
<path d="M35.4908 42.4883H11.4902V41.4884C11.4902 41.4884 11.4902 40.8184 11.4902 39.1582C11.4902 37.4883 12.3301 36.8595 13.9902 36.2383C14.8096 35.9286 16.2802 35.379 17.4902 34.7988L18.6601 33.6387L21.5098 36.4884L23.5098 35.4981L25.5103 36.4884L28.3501 33.6484L29.4907 34.7891C30.7094 35.379 32.1704 35.9286 32.9907 36.2383C34.6606 36.8595 35.4907 37.4883 35.4907 39.1582C35.4907 40.8183 35.4907 41.4884 35.4907 41.4884V42.4883H35.4908Z" fill="#DEEEEE"/>
<path d="M13.4903 39.1582C13.4903 37.4883 14.3302 36.8595 15.9903 36.2383C16.8096 35.9286 18.2804 35.379 19.4903 34.7988L19.6563 34.6347L18.6601 33.6385L17.4902 34.7987C16.2802 35.3789 14.8095 35.9285 13.9902 36.2382C12.3301 36.8594 11.4902 37.4882 11.4902 39.158C11.4902 40.8182 11.4902 41.4883 11.4902 41.4883V42.4882H13.4902V41.4883C13.4903 41.4884 13.4903 40.8184 13.4903 39.1582Z" fill="#DEEEEE"/>
<path d="M24.5503 42.4884H22.5508L23.0507 36.9884H24.0508L24.5503 42.4884Z" fill="#EBF0F6"/>
<path d="M24.4062 35.6285H22.625V36.988H24.4062V35.6285Z" fill="#EBF0F6"/>
<path d="M11.5 42.9885C11.2237 42.9885 11 42.7648 11 42.4885V39.1564C11 37.2073 12.0356 36.4386 13.8247 35.7698C14.3593 35.5714 15.9834 34.968 17.2846 34.347C17.5332 34.2269 17.832 34.3323 17.9511 34.5823C18.0703 34.8323 17.9647 35.1301 17.7153 35.2492C16.374 35.8899 14.7183 36.5052 14.1743 36.7072C12.4677 37.345 12.0001 37.8714 12.0001 39.1564V42.4885C12.0001 42.7648 11.7764 42.9885 11.5 42.9885Z" fill="url(#paint12_linear)"/>
<path d="M35.5002 42.9882C35.2238 42.9882 35.0002 42.7646 35.0002 42.4883V39.1561C35.0002 37.8711 34.5325 37.3447 32.8253 36.7069C31.3507 36.1591 30.1915 35.6806 29.2824 35.2449C29.0335 35.1259 28.9279 34.827 29.0471 34.578C29.1662 34.3289 29.466 34.2245 29.7141 34.3427C30.5959 34.7655 31.7277 35.2323 33.1739 35.7696C34.9649 36.4385 36.0002 37.207 36.0002 39.1561V42.4883C36.0002 42.7646 35.7766 42.9882 35.5002 42.9882Z" fill="url(#paint13_linear)"/>
<path d="M23.5293 35.126C20.7036 35.126 16.0293 30.629 16.0293 25.504C16.0293 25.2276 16.2529 25.0039 16.5293 25.0039C16.8056 25.0039 17.0294 25.2276 17.0294 25.504C17.0294 29.9503 21.0845 34.1261 23.5293 34.1261C25.9736 34.1261 30.0293 29.9503 30.0293 25.504C30.0293 25.2276 30.253 25.0039 30.5293 25.0039C30.8057 25.0039 31.0293 25.2276 31.0293 25.504C31.0293 30.629 26.3545 35.126 23.5293 35.126Z" fill="url(#paint14_linear)"/>
<path d="M16.4992 24.9893C16.4587 24.9893 16.4177 24.9844 16.3767 24.9737C16.1716 24.9219 16.0212 24.747 16.0012 24.5361C15.737 21.7109 16.3488 19.459 17.8211 17.8428C19.9612 15.4932 23.431 15 25.9641 15C27.4759 15 28.5453 15.1757 28.5892 15.1836C28.8099 15.2208 28.9788 15.3995 29.0042 15.6212C29.0286 15.8428 28.9035 16.0547 28.6975 16.1398C28.2708 16.3145 27.9973 16.5636 27.8607 16.9015C27.7044 17.2912 27.7591 17.7257 27.8294 18.0099C28.3391 18.0304 29.3666 18.1945 30.1477 19.1075C31.1009 20.2199 31.3841 22.0558 30.9934 24.5666C30.9623 24.7698 30.808 24.9339 30.6068 24.9778C30.4056 25.0227 30.1976 24.9378 30.0833 24.7668L28.305 22.0998C27.509 22.3879 25.6017 22.9894 23.5295 22.9894C21.4504 22.9894 19.5007 22.3839 18.695 22.0968L16.9152 24.7668C16.821 24.9082 16.6638 24.9893 16.4992 24.9893ZM28.4992 20.9893C28.6625 20.9893 28.8197 21.0694 28.9153 21.212L30.1496 23.0625C30.2258 21.5645 29.968 20.4356 29.3889 19.7579C28.8292 19.1055 28.0959 19.0078 27.7082 19.0078C27.6106 19.0078 27.5481 19.0147 27.5343 19.0156C27.3117 19.0469 27.0988 18.9238 27.01 18.7217C26.9894 18.6747 26.5139 17.5674 26.9338 16.5274C27.0041 16.3517 27.0949 16.1906 27.2043 16.0421C26.847 16.0177 26.4269 16.0002 25.964 16.0002C23.6325 16.0002 20.4547 16.4366 18.5603 18.5158C17.5544 19.6211 17.0149 21.0958 16.9485 22.9141L18.0833 21.2121C18.2156 21.0138 18.4665 20.9337 18.6892 21.0266C18.7127 21.0364 21.0677 21.9894 23.5295 21.9894C25.9894 21.9894 28.2824 21.0382 28.306 21.0285C28.3684 21.0021 28.4338 20.9893 28.4992 20.9893Z" fill="url(#paint15_linear)"/>
<path d="M30.5293 26.0041C30.253 26.0041 30.0293 25.7805 30.0293 25.5042V24.4895C30.0293 24.2132 30.253 23.9895 30.5293 23.9895C30.8057 23.9895 31.0292 24.2132 31.0292 24.4895V25.5042C31.0292 25.7805 30.8057 26.0041 30.5293 26.0041Z" fill="url(#paint16_linear)"/>
<path d="M16.5293 26.0041C16.2529 26.0041 16.0293 25.7805 16.0293 25.5042V24.4895C16.0293 24.2132 16.2529 23.9895 16.5293 23.9895C16.8056 23.9895 17.0294 24.2132 17.0294 24.4895V25.5042C17.0294 25.7805 16.8057 26.0041 16.5293 26.0041Z" fill="url(#paint17_linear)"/>
<path d="M21.5156 36.9884C21.3862 36.9884 21.2583 36.9376 21.1621 36.8419L18.1622 33.8427C17.9668 33.6473 17.9668 33.331 18.1622 33.1357C18.3575 32.9405 18.6739 32.9404 18.8691 33.1357L21.6153 35.8809L23.3082 35.041C23.5557 34.92 23.8554 35.0196 23.9781 35.2676C24.1011 35.5147 24.0001 35.8144 23.7525 35.9374L21.7378 36.9364C21.6669 36.9718 21.5912 36.9884 21.5156 36.9884Z" fill="url(#paint18_linear)"/>
<path d="M25.5147 36.9885C25.4396 36.9885 25.3634 36.9719 25.2931 36.9367L23.278 35.9377C23.0304 35.8147 22.9293 35.5149 23.0524 35.2679C23.1749 35.0199 23.4747 34.9202 23.7223 35.0413L25.4152 35.8811L28.1612 33.136C28.3565 32.9407 28.673 32.9407 28.8681 33.136C29.0635 33.3314 29.0635 33.6478 28.8681 33.843L25.8682 36.8422C25.7717 36.9377 25.6447 36.9885 25.5147 36.9885Z" fill="url(#paint19_linear)"/>
<path d="M23.5488 37.9886C23.421 37.9886 23.293 37.9398 23.1953 37.8421L22.1953 36.8422C22 36.6468 22 36.3303 22.1953 36.1352C22.3907 35.9398 22.707 35.9398 22.9023 36.1352L23.9023 37.1351C24.0977 37.3305 24.0977 37.6468 23.9023 37.8421C23.8046 37.9398 23.6766 37.9886 23.5488 37.9886Z" fill="url(#paint20_linear)"/>
<path d="M23.5567 37.9886C23.4288 37.9886 23.3009 37.9398 23.2032 37.8421C23.0078 37.6467 23.0078 37.3304 23.2032 37.1351L24.2031 36.1352C24.3985 35.9398 24.715 35.9398 24.9101 36.1352C25.1055 36.3304 25.1055 36.6468 24.9101 36.8422L23.9102 37.8421C23.8125 37.9398 23.6845 37.9886 23.5567 37.9886Z" fill="url(#paint21_linear)"/>
<path d="M22.5495 41.9885C22.531 41.9885 22.5125 41.9875 22.4938 41.9856C22.2194 41.9553 22.0216 41.7081 22.0519 41.4328L22.552 36.9328C22.5822 36.6592 22.8382 36.4641 23.1042 36.4915C23.3787 36.5216 23.5764 36.7688 23.5462 37.0441L23.0462 41.5442C23.0178 41.799 22.8009 41.9885 22.5495 41.9885Z" fill="url(#paint22_linear)"/>
<path d="M24.5518 41.9886C24.3009 41.9886 24.0842 41.7991 24.0558 41.5441L23.5558 37.0441C23.5255 36.7688 23.7233 36.5216 23.9977 36.4914C24.276 36.464 24.5196 36.6603 24.5498 36.9327L25.0499 41.4328C25.0802 41.7081 24.8818 41.9553 24.6085 41.9856C24.589 41.9876 24.5704 41.9886 24.5518 41.9886Z" fill="url(#paint23_linear)"/>
<path d="M35.5 42.9883H11.5C11.2237 42.9883 11 42.7647 11 42.4884C11 42.2121 11.2237 41.9884 11.5 41.9884H35.5C35.7763 41.9884 36 42.2121 36 42.4884C36 42.7647 35.7763 42.9883 35.5 42.9883Z" fill="url(#paint24_linear)"/>
<path d="M6 8H4V49H6V8Z" fill="white"/>
<path d="M28.1132 73.1251H30.6376H49.3631H51.8753C53.2633 73.1251 54.3753 74.2382 54.3753 75.6251H25.6133C25.6133 74.2382 26.7375 73.1251 28.1132 73.1251Z" fill="white"/>
<path d="M48.1024 65.6055L47.852 64.3555H32.149L31.8926 65.6055H48.1024Z" fill="#DEEEEE"/>
<path d="M31.892 65.6053L30.3516 73.1251H32.8515L34.392 65.6053H31.892Z" fill="white"/>
<path d="M48.0703 65.6053L49.6108 73.1251H47.1108L45.5703 65.6053H48.0703Z" fill="#DEEEEE"/>
<path d="M79.3751 53.7257H0.625071C0.279719 53.7257 0 53.4449 0 53.1006C0 52.754 0.279563 52.4757 0.625071 52.4757H79.3751C79.7204 52.4757 80 52.754 80 53.1006C80 53.4449 79.7204 53.7257 79.3751 53.7257Z" fill="url(#paint25_linear)"/>
<path d="M40 59.9755C38.6218 59.9755 37.5 58.8537 37.5 57.4756C37.5 56.0962 38.6218 54.9756 40 54.9756C41.3781 54.9756 42.5 56.0962 42.5 57.4756C42.5 58.8537 41.3781 59.9755 40 59.9755ZM40 56.2256C39.3102 56.2256 38.75 56.786 38.75 57.4756C38.75 58.1641 39.3102 58.7255 40 58.7255C40.6896 58.7255 41.25 58.1641 41.25 57.4756C41.25 56.786 40.6896 56.2256 40 56.2256Z" fill="url(#paint26_linear)"/>
<path d="M30.6382 72.4757C30.5966 72.4757 30.5552 72.4708 30.5149 72.4635C30.1755 72.395 29.9558 72.0655 30.0242 71.7273L31.2742 65.4774C31.3426 65.1369 31.6832 64.9207 32.0091 64.9879C32.3485 65.0551 32.5683 65.3833 32.4998 65.7227L31.2498 71.9726C31.19 72.2706 30.9299 72.4757 30.6382 72.4757Z" fill="url(#paint27_linear)"/>
<path d="M49.3603 72.4755C49.0685 72.4755 48.8085 72.2705 48.7487 71.9725L47.4988 65.7226C47.4304 65.3832 47.6501 65.055 47.9895 64.9878C48.3106 64.9194 48.656 65.1367 48.7243 65.4772L49.9744 71.7272C50.0429 72.0653 49.823 72.3949 49.4836 72.4633C49.4433 72.4707 49.4019 72.4755 49.3603 72.4755Z" fill="url(#paint28_linear)"/>
<path d="M54.3754 76.2501H25.6134C25.2678 76.2501 24.9883 75.9705 24.9883 75.6252C24.9883 75.2797 25.2678 75.0001 25.6134 75.0001H54.3755C54.721 75.0001 55.0006 75.2797 55.0006 75.6252C55.0004 75.9705 54.7209 76.2501 54.3754 76.2501Z" fill="url(#paint29_linear)"/>
<path d="M75.625 62.4999H4.37503C1.96288 62.4999 0 60.5371 0 58.1251C0 58.1202 0 58.1165 0 58.1129C0 58.108 0 58.1043 0 58.1007V8.12503C0 5.71288 1.96288 3.75 4.37503 3.75H75.6248C78.037 3.75 79.9998 5.71303 79.9998 8.12503V58.1251C80 60.5372 78.037 62.4999 75.625 62.4999ZM1.24999 58.1129C1.24999 58.1165 1.24999 58.1202 1.24999 58.1251C1.24999 59.8485 2.65139 61.2499 4.37503 61.2499H75.6248C77.3484 61.2499 78.7499 59.8485 78.7499 58.1251V8.12503C78.7499 6.40202 77.3484 4.99999 75.6248 4.99999H4.37503C2.65139 4.99999 1.24999 6.40202 1.24999 8.12503V58.1007C1.24999 58.1043 1.24999 58.108 1.24999 58.1129Z" fill="url(#paint30_linear)"/>
<path d="M75.625 64.9758H4.37503C1.92131 64.9758 0 63.0531 0 60.6008V58.1252C0 57.7797 0.279563 57.4879 0.625071 57.4879C0.970579 57.4879 1.25014 57.754 1.25014 58.1008V60.6008C1.25014 62.3817 2.5942 63.7257 4.37518 63.7257H75.625C77.406 63.7257 78.75 62.3817 78.75 60.6008V58.1252C78.75 57.7797 79.0296 57.5001 79.3751 57.5001C79.7204 57.5001 80 57.7797 80 58.1252V60.6008C80 63.0531 78.0785 64.9758 75.625 64.9758Z" fill="url(#paint31_linear)"/>
<path d="M25.6134 76.2501C25.2678 76.2501 24.9883 75.9705 24.9883 75.6252C24.9883 73.9015 26.3897 72.5001 28.1133 72.5001C28.4588 72.5001 28.7384 72.7797 28.7384 73.1252C28.7384 73.4705 28.4588 73.7501 28.1133 73.7501C27.0795 73.7501 26.2383 74.5911 26.2383 75.6252C26.2383 75.9705 25.9587 76.2501 25.6134 76.2501Z" fill="url(#paint32_linear)"/>
<path d="M54.375 76.2501C54.0295 76.2501 53.7501 75.9705 53.7501 75.6252C53.7501 74.5911 52.9089 73.7501 51.8751 73.7501C51.5296 73.7501 51.25 73.4705 51.25 73.1252C51.25 72.7797 51.5296 72.5001 51.8751 72.5001C53.5987 72.5001 55.0001 73.9015 55.0001 75.6252C55.0001 75.9705 54.7205 76.2501 54.375 76.2501Z" fill="url(#paint33_linear)"/>
<path d="M51.8754 73.7501H28.1134C27.7678 73.7501 27.4883 73.4705 27.4883 73.1252C27.4883 72.7797 27.7678 72.5001 28.1134 72.5001H51.8756C52.2211 72.5001 52.5007 72.7797 52.5007 73.1252C52.5005 73.4705 52.2209 73.7501 51.8754 73.7501Z" fill="url(#paint34_linear)"/>
<path d="M75.625 50.0001H4.37507C4.02956 50.0001 3.75 49.7205 3.75 49.375V8.12504C3.75 7.77953 4.02956 7.50012 4.37507 7.50012H75.6249C75.9704 7.50012 76.2499 7.77953 76.2499 8.12504V49.375C76.2501 49.7205 75.9705 50.0001 75.625 50.0001ZM4.99999 48.7501H75V8.75011H4.99999V48.7501Z" fill="url(#paint35_linear)"/>
<path d="M68.3748 36.0002C68.3748 38.4173 66.4163 40.3752 64 40.3752C61.5835 40.3752 59.625 38.4173 59.625 36.0002C59.625 33.5845 61.5837 31.6254 64 31.6254C66.4163 31.6254 68.3748 33.5845 68.3748 36.0002Z" fill="#EBF0F6"/>
<path d="M60.8751 36.0002C60.8751 33.7981 62.5071 31.9939 64.625 31.6888C64.4193 31.6584 64.2142 31.6254 64 31.6254C61.5835 31.6254 59.625 33.5845 59.625 36.0002C59.625 38.4173 61.5837 40.3752 64 40.3752C64.2142 40.3752 64.4193 40.3422 64.625 40.3117C62.507 40.0065 60.8751 38.2036 60.8751 36.0002Z" fill="white"/>
<path d="M67.1641 36.0002C67.1641 38.2023 65.5321 40.0065 63.4141 40.3117C63.6198 40.3422 63.8248 40.3752 64.0392 40.3752C66.4557 40.3752 68.4142 38.4161 68.4142 36.0002C68.4142 33.5833 66.4557 31.6254 64.0392 31.6254C63.825 31.6254 63.6198 31.6584 63.4141 31.6888C65.5321 31.9939 67.1641 33.7968 67.1641 36.0002Z" fill="#DEEEEE"/>
<path d="M64.0001 41.0002C61.2431 41.0002 59 38.7578 59 36.0001C59 33.2425 61.2431 31 64.0001 31C66.757 31 69.0001 33.2425 69.0001 36.0001C69.0001 38.7578 66.757 41.0002 64.0001 41.0002ZM64.0001 32.2504C61.9321 32.2504 60.2501 33.9326 60.2501 36.0003C60.2501 38.0682 61.9321 39.7503 64.0001 39.7503C66.0679 39.7503 67.75 38.0681 67.75 36.0003C67.75 33.9325 66.0679 32.2504 64.0001 32.2504Z" fill="url(#paint36_linear)"/>
<path d="M65.8751 37.2503C65.6176 37.2503 65.3765 37.0905 65.2861 36.8341C65.2556 36.7548 64.9418 36.0004 64.0001 36.0004C63.0203 36.0004 62.717 36.8255 62.714 36.8341C62.5993 37.1588 62.2434 37.3322 61.9169 37.2151C61.5916 37.0991 61.4207 36.7427 61.536 36.4167C61.5598 36.3497 62.1463 34.7506 64.0001 34.7506C65.8536 34.7506 66.4401 36.3498 66.4641 36.4167C66.5793 36.7427 66.4086 37.0991 66.0832 37.2151C66.0144 37.2395 65.944 37.2503 65.8751 37.2503Z" fill="url(#paint37_linear)"/>
<path d="M62.7499 37.2502H62.125C61.7796 37.2502 61.5 36.9707 61.5 36.6254C61.5 36.2798 61.7796 36.0002 62.125 36.0002H62.7499C63.0955 36.0002 63.375 36.2798 63.375 36.6254C63.3749 36.9707 63.0955 37.2502 62.7499 37.2502Z" fill="url(#paint38_linear)"/>
<path d="M65.8749 37.2502H65.25C64.9046 37.2502 64.625 36.9707 64.625 36.6254C64.625 36.2798 64.9046 36.0002 65.25 36.0002H65.8749C66.2205 36.0002 66.5 36.2798 66.5 36.6254C66.5 36.9707 66.2205 37.2502 65.8749 37.2502Z" fill="url(#paint39_linear)"/>
<path d="M68.6269 20.9524C68.6269 23.3695 66.6677 25.3274 64.2519 25.3274C61.8362 25.3274 59.877 23.3695 59.877 20.9524C59.877 18.5367 61.8362 16.5775 64.2519 16.5775C66.6677 16.5775 68.6269 18.5367 68.6269 20.9524Z" fill="#EBF0F6"/>
<path d="M67.5604 20.9524C67.5604 23.1545 65.9284 24.9587 63.8105 25.2639C64.0168 25.2944 64.2219 25.3274 64.4355 25.3274C66.8512 25.3274 68.8103 23.3682 68.8103 20.9524C68.8103 18.5354 66.8512 16.5775 64.4355 16.5775C64.2219 16.5775 64.0168 16.6105 63.8105 16.641C65.9285 16.946 67.5604 18.749 67.5604 20.9524Z" fill="#DEEEEE"/>
<path d="M61.1505 20.9524C61.1505 18.7502 62.7814 16.946 64.9003 16.641C64.6941 16.6105 64.489 16.5775 64.2754 16.5775C61.8584 16.5775 59.9004 18.5367 59.9004 20.9524C59.9004 23.3695 61.8584 25.3274 64.2754 25.3274C64.489 25.3274 64.6941 25.2944 64.9003 25.2639C62.7814 24.9587 61.1505 23.1557 61.1505 20.9524Z" fill="white"/>
<path d="M64.2519 25.9523C62.9152 25.9523 61.6603 25.4322 60.7169 24.4874C59.772 23.5427 59.252 22.2878 59.252 20.9523C59.252 19.6169 59.772 18.3609 60.7169 17.4173C62.6039 15.5276 65.8975 15.5276 67.7871 17.4173C68.732 18.3609 69.252 19.6169 69.252 20.9523C69.252 22.2878 68.732 23.5439 67.7871 24.4874C66.8433 25.4322 65.5886 25.9523 64.2519 25.9523ZM64.2507 17.2025C63.2498 17.2025 62.3086 17.593 61.6006 18.301C60.8913 19.009 60.502 19.9502 60.502 20.9523C60.502 21.9533 60.8913 22.8958 61.6006 23.6037C63.0165 25.0198 65.4873 25.0198 66.9032 23.6037C67.6125 22.8958 68.0018 21.9546 68.0018 20.9523C68.0018 19.9502 67.6125 19.009 66.9032 18.301C66.194 17.593 65.2527 17.2025 64.2507 17.2025Z" fill="url(#paint40_linear)"/>
<path d="M65.2034 22.6225C64.6589 22.6225 63.9863 22.4564 63.3662 21.8363C62.0564 20.5253 62.7717 18.9811 62.8024 18.9151C62.95 18.604 63.3223 18.4707 63.6361 18.6208C63.9472 18.7699 64.0792 19.1421 63.9302 19.4547C63.8947 19.5315 63.5848 20.2871 64.2501 20.9524C64.941 21.6446 65.7405 21.2748 65.7491 21.2723C66.0604 21.1235 66.4339 21.2564 66.5827 21.5678C66.7305 21.879 66.5974 22.2525 66.2863 22.4003C66.2519 22.4173 65.8063 22.6225 65.2034 22.6225Z" fill="url(#paint41_linear)"/>
<path d="M66.02 22.4612C65.8602 22.4612 65.7001 22.4001 65.5782 22.278L65.1363 21.8361C64.8921 21.5919 64.8921 21.1965 65.1363 20.9524C65.3805 20.7083 65.7759 20.7082 66.02 20.9524L66.4619 21.3943C66.7061 21.6385 66.7061 22.0341 66.4619 22.278C66.3398 22.4002 66.1798 22.4612 66.02 22.4612Z" fill="url(#paint42_linear)"/>
<path d="M63.8091 20.2518C63.6493 20.2518 63.4892 20.1909 63.3672 20.0687L62.9254 19.6269C62.6811 19.3827 62.6811 18.9872 62.9254 18.7432C63.1696 18.4991 63.565 18.4989 63.8091 18.7432L64.2509 19.185C64.4952 19.4293 64.4952 19.8247 64.2509 20.0687C64.129 20.1909 63.9689 20.2518 63.8091 20.2518Z" fill="url(#paint43_linear)"/>
<defs>
<linearGradient id="paint0_linear" x1="36.5693" y1="35.0546" x2="39.4389" y2="34.2026" gradientUnits="userSpaceOnUse">
<stop stop-color="#46A29F"/>
<stop offset="1" stop-color="#4660A2"/>
</linearGradient>
<linearGradient id="paint1_linear" x1="31.2213" y1="25.7296" x2="55.7496" y2="16.366" gradientUnits="userSpaceOnUse">
<stop stop-color="#46A29F"/>
<stop offset="1" stop-color="#4660A2"/>
</linearGradient>
<linearGradient id="paint2_linear" x1="26.0852" y1="33.7263" x2="52.3424" y2="8.77868" gradientUnits="userSpaceOnUse">
<stop stop-color="#46A29F"/>
<stop offset="1" stop-color="#4660A2"/>
</linearGradient>
<linearGradient id="paint3_linear" x1="45.1201" y1="24.5075" x2="48.237" y2="24.3753" gradientUnits="userSpaceOnUse">
<stop stop-color="#46A29F"/>
<stop offset="1" stop-color="#4660A2"/>
</linearGradient>
<linearGradient id="paint4_linear" x1="27.9753" y1="15.1159" x2="45.1863" y2="6.17306" gradientUnits="userSpaceOnUse">
<stop stop-color="#46A29F"/>
<stop offset="1" stop-color="#4660A2"/>
</linearGradient>
<linearGradient id="paint5_linear" x1="35.0993" y1="15.9528" x2="57.5002" y2="8.35153" gradientUnits="userSpaceOnUse">
<stop stop-color="#46A29F"/>
<stop offset="1" stop-color="#4660A2"/>
</linearGradient>
<linearGradient id="paint6_linear" x1="31.2213" y1="18.118" x2="54.6724" y2="7.67349" gradientUnits="userSpaceOnUse">
<stop stop-color="#46A29F"/>
<stop offset="1" stop-color="#4660A2"/>
</linearGradient>
<linearGradient id="paint7_linear" x1="37.9626" y1="20.9474" x2="51.8136" y2="12.7223" gradientUnits="userSpaceOnUse">
<stop stop-color="#46A29F"/>
<stop offset="1" stop-color="#4660A2"/>
</linearGradient>
<linearGradient id="paint8_linear" x1="42.6806" y1="23.1126" x2="45.7358" y2="22.6591" gradientUnits="userSpaceOnUse">
<stop stop-color="#46A29F"/>
<stop offset="1" stop-color="#4660A2"/>
</linearGradient>
<linearGradient id="paint9_linear" x1="38.3826" y1="31.5611" x2="50.4018" y2="29.182" gradientUnits="userSpaceOnUse">
<stop stop-color="#46A29F"/>
<stop offset="1" stop-color="#4660A2"/>
</linearGradient>
<linearGradient id="paint10_linear" x1="32.6913" y1="33.4473" x2="38.8017" y2="32.5402" gradientUnits="userSpaceOnUse">
<stop stop-color="#46A29F"/>
<stop offset="1" stop-color="#4660A2"/>
</linearGradient>
<linearGradient id="paint11_linear" x1="33.284" y1="32.6104" x2="38.1569" y2="25.3762" gradientUnits="userSpaceOnUse">
<stop stop-color="#46A29F"/>
<stop offset="1" stop-color="#4660A2"/>
</linearGradient>
<linearGradient id="paint12_linear" x1="9.7971" y1="36.2813" x2="26.7153" y2="32.2354" gradientUnits="userSpaceOnUse">
<stop stop-color="#46A29F"/>
<stop offset="1" stop-color="#4660A2"/>
</linearGradient>
<linearGradient id="paint13_linear" x1="27.7948" y1="36.2787" x2="44.7181" y2="32.2319" gradientUnits="userSpaceOnUse">
<stop stop-color="#46A29F"/>
<stop offset="1" stop-color="#4660A2"/>
</linearGradient>
<linearGradient id="paint14_linear" x1="13.4517" y1="27.3146" x2="45.5613" y2="13.1865" gradientUnits="userSpaceOnUse">
<stop stop-color="#46A29F"/>
<stop offset="1" stop-color="#4660A2"/>
</linearGradient>
<linearGradient id="paint15_linear" x1="13.3257" y1="17.2804" x2="45.6103" y2="2.6739" gradientUnits="userSpaceOnUse">
<stop stop-color="#46A29F"/>
<stop offset="1" stop-color="#4660A2"/>
</linearGradient>
<linearGradient id="paint16_linear" x1="29.8575" y1="24.4494" x2="32.3581" y2="24.0809" gradientUnits="userSpaceOnUse">
<stop stop-color="#46A29F"/>
<stop offset="1" stop-color="#4660A2"/>
</linearGradient>
<linearGradient id="paint17_linear" x1="15.8574" y1="24.4494" x2="18.3583" y2="24.0808" gradientUnits="userSpaceOnUse">
<stop stop-color="#46A29F"/>
<stop offset="1" stop-color="#4660A2"/>
</linearGradient>
<linearGradient id="paint18_linear" x1="16.982" y1="33.9022" x2="29.7951" y2="28.1802" gradientUnits="userSpaceOnUse">
<stop stop-color="#46A29F"/>
<stop offset="1" stop-color="#4660A2"/>
</linearGradient>
<linearGradient id="paint19_linear" x1="21.9664" y1="33.9024" x2="34.7792" y2="28.1806" gradientUnits="userSpaceOnUse">
<stop stop-color="#46A29F"/>
<stop offset="1" stop-color="#4660A2"/>
</linearGradient>
<linearGradient id="paint20_linear" x1="21.7051" y1="36.4452" x2="26.4013" y2="35.0508" gradientUnits="userSpaceOnUse">
<stop stop-color="#46A29F"/>
<stop offset="1" stop-color="#4660A2"/>
</linearGradient>
<linearGradient id="paint21_linear" x1="22.713" y1="36.4452" x2="27.4091" y2="35.0508" gradientUnits="userSpaceOnUse">
<stop stop-color="#46A29F"/>
<stop offset="1" stop-color="#4660A2"/>
</linearGradient>
<linearGradient id="paint22_linear" x1="21.791" y1="37.7443" x2="25.5996" y2="37.4358" gradientUnits="userSpaceOnUse">
<stop stop-color="#46A29F"/>
<stop offset="1" stop-color="#4660A2"/>
</linearGradient>
<linearGradient id="paint23_linear" x1="23.2949" y1="37.7443" x2="27.1032" y2="37.4359" gradientUnits="userSpaceOnUse">
<stop stop-color="#46A29F"/>
<stop offset="1" stop-color="#4660A2"/>
</linearGradient>
<linearGradient id="paint24_linear" x1="6.704" y1="42.2167" x2="7.84248" y2="33.7653" gradientUnits="userSpaceOnUse">
<stop stop-color="#46A29F"/>
<stop offset="1" stop-color="#4660A2"/>
</linearGradient>
<linearGradient id="paint25_linear" x1="-13.7472" y1="52.7611" x2="-13.1827" y2="42.0341" gradientUnits="userSpaceOnUse">
<stop stop-color="#46A29F"/>
<stop offset="1" stop-color="#4660A2"/>
</linearGradient>
<linearGradient id="paint26_linear" x1="36.6408" y1="56.117" x2="48.381" y2="52.6311" gradientUnits="userSpaceOnUse">
<stop stop-color="#46A29F"/>
<stop offset="1" stop-color="#4660A2"/>
</linearGradient>
<linearGradient id="paint27_linear" x1="29.582" y1="66.6878" x2="35.9092" y2="66.0614" gradientUnits="userSpaceOnUse">
<stop stop-color="#46A29F"/>
<stop offset="1" stop-color="#4660A2"/>
</linearGradient>
<linearGradient id="paint28_linear" x1="47.0566" y1="66.6874" x2="53.3838" y2="66.061" gradientUnits="userSpaceOnUse">
<stop stop-color="#46A29F"/>
<stop offset="1" stop-color="#4660A2"/>
</linearGradient>
<linearGradient id="paint29_linear" x1="19.831" y1="75.2855" x2="21.3107" y2="64.7364" gradientUnits="userSpaceOnUse">
<stop stop-color="#46A29F"/>
<stop offset="1" stop-color="#4660A2"/>
</linearGradient>
<linearGradient id="paint30_linear" x1="-13.7472" y1="17.1613" x2="161.939" y2="-53.8701" gradientUnits="userSpaceOnUse">
<stop stop-color="#46A29F"/>
<stop offset="1" stop-color="#4660A2"/>
</linearGradient>
<linearGradient id="paint31_linear" x1="-13.7472" y1="59.1972" x2="4.72941" y2="0.585539" gradientUnits="userSpaceOnUse">
<stop stop-color="#46A29F"/>
<stop offset="1" stop-color="#4660A2"/>
</linearGradient>
<linearGradient id="paint32_linear" x1="24.3439" y1="73.3562" x2="33.1493" y2="70.7416" gradientUnits="userSpaceOnUse">
<stop stop-color="#46A29F"/>
<stop offset="1" stop-color="#4660A2"/>
</linearGradient>
<linearGradient id="paint33_linear" x1="50.6056" y1="73.3562" x2="59.411" y2="70.7416" gradientUnits="userSpaceOnUse">
<stop stop-color="#46A29F"/>
<stop offset="1" stop-color="#4660A2"/>
</linearGradient>
<linearGradient id="paint34_linear" x1="23.1902" y1="72.7855" x2="24.9507" y2="62.3252" gradientUnits="userSpaceOnUse">
<stop stop-color="#46A29F"/>
<stop offset="1" stop-color="#4660A2"/>
</linearGradient>
<linearGradient id="paint35_linear" x1="-8.70839" y1="17.2019" x2="138.714" y2="-57.4674" gradientUnits="userSpaceOnUse">
<stop stop-color="#46A29F"/>
<stop offset="1" stop-color="#4660A2"/>
</linearGradient>
<linearGradient id="paint36_linear" x1="57.2816" y1="33.2828" x2="80.7624" y2="26.3111" gradientUnits="userSpaceOnUse">
<stop stop-color="#46A29F"/>
<stop offset="1" stop-color="#4660A2"/>
</linearGradient>
<linearGradient id="paint37_linear" x1="60.6408" y1="35.3216" x2="70.0879" y2="29.7141" gradientUnits="userSpaceOnUse">
<stop stop-color="#46A29F"/>
<stop offset="1" stop-color="#4660A2"/>
</linearGradient>
<linearGradient id="paint38_linear" x1="61.1778" y1="36.2856" x2="65.1755" y2="34.505" gradientUnits="userSpaceOnUse">
<stop stop-color="#46A29F"/>
<stop offset="1" stop-color="#4660A2"/>
</linearGradient>
<linearGradient id="paint39_linear" x1="64.3028" y1="36.2856" x2="68.3005" y2="34.505" gradientUnits="userSpaceOnUse">
<stop stop-color="#46A29F"/>
<stop offset="1" stop-color="#4660A2"/>
</linearGradient>
<linearGradient id="paint40_linear" x1="57.5335" y1="18.2719" x2="80.996" y2="11.2721" gradientUnits="userSpaceOnUse">
<stop stop-color="#46A29F"/>
<stop offset="1" stop-color="#4660A2"/>
</linearGradient>
<linearGradient id="paint41_linear" x1="61.8819" y1="19.4867" x2="71.4222" y2="16.6543" gradientUnits="userSpaceOnUse">
<stop stop-color="#46A29F"/>
<stop offset="1" stop-color="#4660A2"/>
</linearGradient>
<linearGradient id="paint42_linear" x1="64.6624" y1="21.1555" x2="68.6351" y2="19.976" gradientUnits="userSpaceOnUse">
<stop stop-color="#46A29F"/>
<stop offset="1" stop-color="#4660A2"/>
</linearGradient>
<linearGradient id="paint43_linear" x1="62.4514" y1="18.9463" x2="66.4241" y2="17.7666" gradientUnits="userSpaceOnUse">
<stop stop-color="#46A29F"/>
<stop offset="1" stop-color="#4660A2"/>
</linearGradient>
</defs>
</svg>
