<svg width="80" height="80" viewBox="0 0 80 80" fill="none" xmlns="http://www.w3.org/2000/svg">
<path d="M75.625 15.6353H4.37489C2.31192 15.6353 0.625 17.3228 0.625 19.3853V60.6351C0.625 62.6981 2.31208 64.385 4.37489 64.385H75.6249C77.6877 64.385 79.3746 62.6981 79.3746 60.6351V19.3853C79.3748 17.3228 77.6879 15.6353 75.625 15.6353Z" fill="#DEEEEE"/>
<path d="M3.12498 60.6351V19.3853C3.12498 17.323 4.8119 15.6353 6.87486 15.6353H4.37489C2.31192 15.6353 0.625 17.3228 0.625 19.3853V60.6351C0.625 62.6981 2.31208 64.385 4.37489 64.385H6.87486C4.8119 64.385 3.12498 62.6981 3.12498 60.6351Z" fill="white"/>
<path d="M75.625 65.0109H4.37484C1.96274 65.0109 0 63.0479 0 60.6359V19.3861C0 16.974 1.96289 15.0111 4.37484 15.0111C4.72039 15.0111 4.99995 15.2907 4.99995 15.6361C4.99995 15.9815 4.72039 16.2612 4.37484 16.2612C2.65133 16.2612 1.24991 17.6631 1.24991 19.3861V60.6359C1.24991 62.3595 2.65133 63.7609 4.37484 63.7609H75.6248C77.3484 63.7609 78.7498 62.3595 78.7498 60.6359V19.3861C78.7498 17.6631 77.3484 16.2612 75.6248 16.2612C75.2791 16.2612 74.9997 15.9816 74.9997 15.6361C74.9997 15.2905 75.2791 15.0111 75.6248 15.0111C78.0368 15.0111 79.9997 16.974 79.9997 19.3861V60.6359C79.9997 63.0479 78.0366 65.0109 75.625 65.0109Z" fill="url(#paint0_linear)"/>
<path d="M48.7837 16.2602H4.37495C4.02956 16.2602 3.75 15.9806 3.75 15.6351C3.75 15.2895 4.02956 15.0101 4.37495 15.0101H48.7837C49.1291 15.0101 49.4087 15.2897 49.4087 15.6351C49.4087 15.9805 49.1291 16.2602 48.7837 16.2602Z" fill="url(#paint1_linear)"/>
<path d="M75.6251 16.2602H46.8751C46.5294 16.2602 46.25 15.9806 46.25 15.6351C46.25 15.2895 46.5294 15.0101 46.8751 15.0101H75.6251C75.9705 15.0101 76.2499 15.2897 76.2499 15.6351C76.2499 15.9805 75.9703 16.2602 75.6251 16.2602Z" fill="url(#paint2_linear)"/>
<path d="M28.7612 25.0455H8.76172V45.045H28.7612V25.0455Z" fill="white"/>
<path d="M24.0697 35.6771H13.4513C13.1059 35.6771 12.8262 35.3975 12.8262 35.052C12.8262 34.7066 13.1057 34.427 13.4513 34.427H24.0699C24.4154 34.427 24.695 34.7066 24.695 35.052C24.6948 35.3975 24.4154 35.6771 24.0697 35.6771Z" fill="url(#paint3_linear)"/>
<path d="M19.3868 29.7429L19.3868 40.3613C19.3868 40.7067 19.1072 40.9865 18.7617 40.9865C18.4163 40.9865 18.1367 40.7069 18.1367 40.3613L18.1367 29.7427C18.1367 29.3972 18.4163 29.1176 18.7617 29.1176C19.1072 29.1178 19.3868 29.3972 19.3868 29.7429Z" fill="url(#paint4_linear)"/>
<path d="M8.79316 55.6414C8.44777 55.6414 8.16211 55.3618 8.16211 55.0164C8.16211 54.671 8.43558 54.3915 8.77972 54.3915H8.79316C9.13746 54.3915 9.41827 54.671 9.41827 55.0164C9.41827 55.3618 9.13761 55.6414 8.79316 55.6414Z" fill="url(#paint5_linear)"/>
<path d="M11.2932 55.6414C10.9478 55.6414 10.6621 55.3618 10.6621 55.0164C10.6621 54.671 10.9356 54.3915 11.2797 54.3915H11.2932C11.6375 54.3915 11.9181 54.671 11.9181 55.0164C11.9181 55.3618 11.6373 55.6414 11.2932 55.6414Z" fill="url(#paint6_linear)"/>
<path d="M13.7932 55.6414C13.4478 55.6414 13.1621 55.3618 13.1621 55.0164C13.1621 54.671 13.4356 54.3915 13.7797 54.3915H13.7932C14.1375 54.3915 14.4181 54.671 14.4181 55.0164C14.4181 55.3618 14.1375 55.6414 13.7932 55.6414Z" fill="url(#paint7_linear)"/>
<path d="M16.2932 55.6414C15.9478 55.6414 15.6621 55.3618 15.6621 55.0164C15.6621 54.671 15.9356 54.3915 16.2797 54.3915H16.2932C16.6373 54.3915 16.9181 54.671 16.9181 55.0164C16.9181 55.3618 16.6373 55.6414 16.2932 55.6414Z" fill="url(#paint8_linear)"/>
<path d="M18.7933 55.6414C18.4478 55.6414 18.1621 55.3618 18.1621 55.0164C18.1621 54.671 18.4356 54.3915 18.7799 54.3915H18.7933C19.1375 54.3915 19.4183 54.671 19.4183 55.0164C19.4183 55.3618 19.1376 55.6414 18.7933 55.6414Z" fill="url(#paint9_linear)"/>
<path d="M21.2933 55.6414C20.9479 55.6414 20.6621 55.3618 20.6621 55.0164C20.6621 54.671 20.9356 54.3915 21.2799 54.3915H21.2933C21.6376 54.3915 21.9184 54.671 21.9184 55.0164C21.9184 55.3618 21.6376 55.6414 21.2933 55.6414Z" fill="url(#paint10_linear)"/>
<path d="M23.7933 55.6414C23.4479 55.6414 23.1621 55.3618 23.1621 55.0164C23.1621 54.671 23.4356 54.3915 23.7799 54.3915H23.7933C24.1376 54.3915 24.4183 54.671 24.4183 55.0164C24.4183 55.3618 24.1375 55.6414 23.7933 55.6414Z" fill="url(#paint11_linear)"/>
<path d="M26.2932 55.6414C25.9478 55.6414 25.6621 55.3618 25.6621 55.0164C25.6621 54.671 25.9356 54.3915 26.2797 54.3915H26.2932C26.6375 54.3915 26.9183 54.671 26.9183 55.0164C26.9183 55.3618 26.6373 55.6414 26.2932 55.6414Z" fill="url(#paint12_linear)"/>
<path d="M28.7932 55.6414C28.4478 55.6414 28.1621 55.3618 28.1621 55.0164C28.1621 54.671 28.4356 54.3915 28.7797 54.3915H28.7932C29.1375 54.3915 29.4181 54.671 29.4181 55.0164C29.4181 55.3618 29.1375 55.6414 28.7932 55.6414Z" fill="url(#paint13_linear)"/>
<path d="M28.7545 45.6413H8.75597C8.41058 45.6413 8.13086 45.3618 8.13086 45.0164V25.0164C8.13086 24.671 8.41042 24.3915 8.75597 24.3915H28.7548C29.1004 24.3915 29.3799 24.671 29.3799 25.0164V45.0164C29.3798 45.3618 29.1002 45.6413 28.7545 45.6413ZM9.38093 44.3914H28.1296V25.6414H9.38093V44.3914Z" fill="url(#paint14_linear)"/>
<path d="M71.256 28.1415H35.006C34.6606 28.1415 34.3809 27.8619 34.3809 27.5166C34.3809 27.171 34.6604 26.8916 35.006 26.8916H71.256C71.6014 26.8916 71.8808 27.171 71.8808 27.5166C71.8808 27.8619 71.6012 28.1415 71.256 28.1415Z" fill="url(#paint15_linear)"/>
<path d="M71.256 33.1416H35.006C34.6606 33.1416 34.3809 32.862 34.3809 32.5164C34.3809 32.171 34.6604 31.8915 35.006 31.8915H71.256C71.6014 31.8915 71.8808 32.171 71.8808 32.5164C71.8808 32.862 71.6012 33.1416 71.256 33.1416Z" fill="url(#paint16_linear)"/>
<path d="M71.256 38.1414H35.006C34.6606 38.1414 34.3809 37.8618 34.3809 37.5164C34.3809 37.171 34.6604 36.8915 35.006 36.8915H71.256C71.6014 36.8915 71.8808 37.171 71.8808 37.5164C71.8808 37.8618 71.6012 38.1414 71.256 38.1414Z" fill="url(#paint17_linear)"/>
<path d="M55.0059 43.1414H35.006C34.6606 43.1414 34.3809 42.8619 34.3809 42.5165C34.3809 42.1711 34.6604 41.8914 35.006 41.8914H55.0059C55.3513 41.8914 55.631 42.1711 55.631 42.5165C55.631 42.8619 55.3511 43.1414 55.0059 43.1414Z" fill="url(#paint18_linear)"/>
<path d="M55.0059 55.6414H35.006C34.6606 55.6414 34.3809 55.3618 34.3809 55.0164C34.3809 54.671 34.6604 54.3915 35.006 54.3915H55.0059C55.3513 54.3915 55.631 54.671 55.631 55.0164C55.631 55.3618 55.3511 55.6414 55.0059 55.6414Z" fill="url(#paint19_linear)"/>
<path d="M28.7558 50.6414H8.75597C8.41058 50.6414 8.13086 50.3619 8.13086 50.0163C8.13086 49.6709 8.41042 49.3914 8.75597 49.3914H28.7559C29.1015 49.3914 29.381 49.6709 29.381 50.0163C29.3809 50.3619 29.1015 50.6414 28.7558 50.6414Z" fill="url(#paint20_linear)"/>
<defs>
<linearGradient id="paint0_linear" x1="-13.7471" y1="26.425" x2="153.021" y2="-52.8001" gradientUnits="userSpaceOnUse">
<stop stop-color="#46A29F"/>
<stop offset="1" stop-color="#4660A2"/>
</linearGradient>
<linearGradient id="paint1_linear" x1="-4.09599" y1="15.2955" x2="-3.11241" y2="4.62884" gradientUnits="userSpaceOnUse">
<stop stop-color="#46A29F"/>
<stop offset="1" stop-color="#4660A2"/>
</linearGradient>
<linearGradient id="paint2_linear" x1="41.0948" y1="15.2955" x2="42.5754" y2="4.74593" gradientUnits="userSpaceOnUse">
<stop stop-color="#46A29F"/>
<stop offset="1" stop-color="#4660A2"/>
</linearGradient>
<linearGradient id="paint3_linear" x1="10.7866" y1="34.7124" x2="14.176" y2="25.1574" gradientUnits="userSpaceOnUse">
<stop stop-color="#46A29F"/>
<stop offset="1" stop-color="#4660A2"/>
</linearGradient>
<linearGradient id="paint4_linear" x1="18.4221" y1="43.026" x2="8.86706" y2="39.6366" gradientUnits="userSpaceOnUse">
<stop stop-color="#46A29F"/>
<stop offset="1" stop-color="#4660A2"/>
</linearGradient>
<linearGradient id="paint5_linear" x1="7.94625" y1="54.6768" x2="10.8934" y2="53.7974" gradientUnits="userSpaceOnUse">
<stop stop-color="#46A29F"/>
<stop offset="1" stop-color="#4660A2"/>
</linearGradient>
<linearGradient id="paint6_linear" x1="10.4463" y1="54.6768" x2="13.3931" y2="53.7976" gradientUnits="userSpaceOnUse">
<stop stop-color="#46A29F"/>
<stop offset="1" stop-color="#4660A2"/>
</linearGradient>
<linearGradient id="paint7_linear" x1="12.9463" y1="54.6768" x2="15.8931" y2="53.7976" gradientUnits="userSpaceOnUse">
<stop stop-color="#46A29F"/>
<stop offset="1" stop-color="#4660A2"/>
</linearGradient>
<linearGradient id="paint8_linear" x1="15.4463" y1="54.6768" x2="18.3931" y2="53.7976" gradientUnits="userSpaceOnUse">
<stop stop-color="#46A29F"/>
<stop offset="1" stop-color="#4660A2"/>
</linearGradient>
<linearGradient id="paint9_linear" x1="17.9463" y1="54.6768" x2="20.8934" y2="53.7974" gradientUnits="userSpaceOnUse">
<stop stop-color="#46A29F"/>
<stop offset="1" stop-color="#4660A2"/>
</linearGradient>
<linearGradient id="paint10_linear" x1="20.4462" y1="54.6768" x2="23.3937" y2="53.7972" gradientUnits="userSpaceOnUse">
<stop stop-color="#46A29F"/>
<stop offset="1" stop-color="#4660A2"/>
</linearGradient>
<linearGradient id="paint11_linear" x1="22.9463" y1="54.6768" x2="25.8934" y2="53.7974" gradientUnits="userSpaceOnUse">
<stop stop-color="#46A29F"/>
<stop offset="1" stop-color="#4660A2"/>
</linearGradient>
<linearGradient id="paint12_linear" x1="25.4462" y1="54.6768" x2="28.3934" y2="53.7974" gradientUnits="userSpaceOnUse">
<stop stop-color="#46A29F"/>
<stop offset="1" stop-color="#4660A2"/>
</linearGradient>
<linearGradient id="paint13_linear" x1="27.9463" y1="54.6768" x2="30.8931" y2="53.7976" gradientUnits="userSpaceOnUse">
<stop stop-color="#46A29F"/>
<stop offset="1" stop-color="#4660A2"/>
</linearGradient>
<linearGradient id="paint14_linear" x1="4.47942" y1="29.2424" x2="54.374" y2="14.4285" gradientUnits="userSpaceOnUse">
<stop stop-color="#46A29F"/>
<stop offset="1" stop-color="#4660A2"/>
</linearGradient>
<linearGradient id="paint15_linear" x1="27.9369" y1="27.1769" x2="29.1293" y2="16.5548" gradientUnits="userSpaceOnUse">
<stop stop-color="#46A29F"/>
<stop offset="1" stop-color="#4660A2"/>
</linearGradient>
<linearGradient id="paint16_linear" x1="27.9369" y1="32.1768" x2="29.1296" y2="21.5534" gradientUnits="userSpaceOnUse">
<stop stop-color="#46A29F"/>
<stop offset="1" stop-color="#4660A2"/>
</linearGradient>
<linearGradient id="paint17_linear" x1="27.9369" y1="37.1768" x2="29.1293" y2="26.5547" gradientUnits="userSpaceOnUse">
<stop stop-color="#46A29F"/>
<stop offset="1" stop-color="#4660A2"/>
</linearGradient>
<linearGradient id="paint18_linear" x1="30.7292" y1="42.1767" x2="32.78" y2="31.8257" gradientUnits="userSpaceOnUse">
<stop stop-color="#46A29F"/>
<stop offset="1" stop-color="#4660A2"/>
</linearGradient>
<linearGradient id="paint19_linear" x1="30.7292" y1="54.6768" x2="32.7795" y2="44.327" gradientUnits="userSpaceOnUse">
<stop stop-color="#46A29F"/>
<stop offset="1" stop-color="#4660A2"/>
</linearGradient>
<linearGradient id="paint20_linear" x1="4.47923" y1="49.6767" x2="6.53001" y2="39.3257" gradientUnits="userSpaceOnUse">
<stop stop-color="#46A29F"/>
<stop offset="1" stop-color="#4660A2"/>
</linearGradient>
</defs>
</svg>
