<svg width="80" height="80" viewBox="0 0 80 80" fill="none" xmlns="http://www.w3.org/2000/svg">
<path d="M61.875 74.375C61.875 77.1253 59.6266 79.3749 56.8749 79.3749H23.1251C20.3759 79.3749 18.125 77.1251 18.125 74.375V8.12502C18.125 5.37481 20.3759 3.125 23.1251 3.125H56.8749C59.6266 3.125 61.875 5.37481 61.875 8.12502V74.375Z" fill="#656D78"/>
<path d="M61.875 74.375C61.875 77.1253 59.6266 79.3749 56.8749 79.3749H23.1251C20.3759 79.3749 18.125 77.1251 18.125 74.375V8.12502C18.125 5.37481 20.3759 3.125 23.1251 3.125H56.8749C59.6266 3.125 61.875 5.37481 61.875 8.12502V74.375Z" fill="#DEEEEE"/>
<path d="M61.875 71.875C61.875 74.6253 59.6266 76.8751 56.8749 76.8751H23.1251C20.3759 76.8751 18.125 74.6253 18.125 71.875V5.62502C18.125 2.87481 20.3759 0.625 23.1251 0.625H56.8749C59.6266 0.625 61.875 2.87481 61.875 5.62502V71.875Z" fill="#DEEEEE"/>
<path d="M20.625 71.875V5.62502C20.625 2.87481 22.8759 0.625 25.6251 0.625H23.1251C20.3759 0.625 18.125 2.87481 18.125 5.62502V71.875C18.125 74.6253 20.3759 76.8751 23.1251 76.8751H25.6251C22.8759 76.8751 20.625 74.6253 20.625 71.875Z" fill="#F0F4F4"/>
<path d="M61.8761 5.62476H18.1255V65.6253H61.8761V5.62476Z" fill="#DEEEEE"/>
<path d="M43.125 71.25C43.125 72.9773 41.7261 74.3751 40 74.3751C38.2751 74.3751 36.8749 72.9773 36.8749 71.25C36.8749 69.524 38.275 68.125 40 68.125C41.7261 68.125 43.125 69.524 43.125 71.25Z" fill="#F0F4F4"/>
<path d="M20.6255 5.62476H18.1255V65.6253H20.6255V5.62476Z" fill="#F0F4F4"/>
<path d="M40.0844 25.9894C36.9397 22.8411 31.8384 22.8411 28.6927 25.9894C25.5482 29.1339 25.5482 34.2364 28.6927 37.3809L40.0844 48.7689L51.4723 37.3809C54.623 34.2364 54.623 29.1339 51.4723 25.9894C48.3302 22.8411 43.2275 22.8411 40.0844 25.9894Z" fill="#EBF0F6"/>
<path d="M31.1927 37.3812C28.2154 33.5031 28.0482 29.1341 31.1927 25.9896C32.4462 24.7347 34.0112 23.9889 35.6384 23.735C33.1835 23.3505 30.5848 24.0963 28.6927 25.9896C25.5482 29.1341 25.5482 34.2367 28.6927 37.3812L40.0844 48.7691L31.1927 37.3812Z" fill="#F0F4F4"/>
<path d="M40.0844 49.3904C39.9245 49.3904 39.7645 49.3293 39.6424 49.2072L28.2509 37.8192C24.8658 34.4355 24.8658 28.9277 28.2509 25.5439C29.8902 23.9033 32.0705 23 34.3886 23C36.5053 23 38.5047 23.752 40.0844 25.1301C41.6627 23.7519 43.6623 23 45.7788 23C48.0983 23 50.2773 23.9033 51.9143 25.5439C53.5559 27.1821 54.4606 29.3623 54.4606 31.6815C54.4606 34.0007 53.5559 36.1811 51.9143 37.8192L40.5263 49.2072C40.4041 49.3294 40.2441 49.3904 40.0844 49.3904ZM34.3884 24.2501C32.4035 24.2501 30.5383 25.0227 29.1345 26.4278C26.2378 29.3245 26.2378 34.0388 29.1345 36.9356L40.0842 47.8818L51.0302 36.9356C52.4364 35.5319 53.2105 33.6667 53.2105 31.6817C53.2105 29.6969 52.4364 27.8316 51.0302 26.4278C49.6276 25.0227 47.7637 24.2501 45.7786 24.2501C43.794 24.2501 41.9286 25.0227 40.5262 26.4278C40.2918 26.6623 39.8767 26.6623 39.6423 26.4278C38.2398 25.0227 36.3732 24.2501 34.3884 24.2501Z" fill="url(#paint0_linear)"/>
<path d="M56.9128 3.74984C56.5675 3.74984 56.2819 3.47025 56.2819 3.12472C56.2819 2.77934 56.5553 2.49976 56.8993 2.49976H56.9128C57.257 2.49976 57.5379 2.77934 57.5379 3.12472C57.5379 3.47041 57.257 3.74984 56.9128 3.74984Z" fill="url(#paint1_linear)"/>
<path d="M54.4129 3.74984C54.0674 3.74984 53.7817 3.47025 53.7817 3.12472C53.7817 2.77934 54.0552 2.49976 54.3995 2.49976H54.4129C54.7572 2.49976 55.038 2.77934 55.038 3.12472C55.038 3.47041 54.7572 3.74984 54.4129 3.74984Z" fill="url(#paint2_linear)"/>
<path d="M56.875 77.5H23.125C20.0232 77.5 17.5001 74.9767 17.5001 71.875V5.62498C17.5001 2.52314 20.0234 0 23.125 0H56.875C59.9768 0 62.5001 2.5233 62.5001 5.62498V71.875C62.5001 74.9769 59.9766 77.5 56.875 77.5ZM23.125 1.25008C20.7129 1.25008 18.75 3.21296 18.75 5.62498V71.875C18.75 74.2872 20.7129 76.2499 23.125 76.2499H56.875C59.2873 76.2499 61.2502 74.287 61.2502 71.875V5.62498C61.2502 3.2128 59.2871 1.25008 56.875 1.25008H23.125Z" fill="url(#paint3_linear)"/>
<path d="M56.875 80.0002H23.125C20.0232 80.0002 17.5001 77.4769 17.5001 74.3752C17.5001 74.0297 17.7796 73.7502 18.125 73.7502C18.4706 73.7502 18.7501 74.0297 18.7501 74.3752C18.7501 76.7874 20.713 78.7501 23.1252 78.7501H56.8751C59.2874 78.7501 61.2503 76.7872 61.2503 74.3752C61.2503 74.0297 61.5296 73.7502 61.8751 73.7502C62.2207 73.7502 62.5002 74.0297 62.5002 74.3752C62.5001 77.477 59.9766 80.0002 56.875 80.0002Z" fill="url(#paint4_linear)"/>
<path d="M61.8749 74.9998C61.5294 74.9998 61.2501 74.7203 61.2501 74.3749V71.8749C61.2501 71.5293 61.5294 71.2498 61.8749 71.2498C62.2205 71.2498 62.5001 71.5293 62.5001 71.8749V74.3749C62.5001 74.7203 62.2205 74.9998 61.8749 74.9998Z" fill="url(#paint5_linear)"/>
<path d="M18.125 74.9998C17.7796 74.9998 17.5001 74.7203 17.5001 74.3749V71.8749C17.5001 71.5293 17.7796 71.2498 18.125 71.2498C18.4706 71.2498 18.7501 71.5293 18.7501 71.8749V74.3749C18.75 74.7203 18.4706 74.9998 18.125 74.9998Z" fill="url(#paint6_linear)"/>
<path d="M60.625 6.24993H19.3749C19.0296 6.24993 18.75 5.9705 18.75 5.62496C18.75 5.27959 19.0296 5 19.3749 5H60.6248C60.9704 5 61.25 5.27959 61.25 5.62496C61.2501 5.9705 60.9705 6.24993 60.625 6.24993Z" fill="url(#paint7_linear)"/>
<path d="M60.625 66.2501H19.3749C19.0296 66.2501 18.75 65.9705 18.75 65.6251C18.75 65.2796 19.0296 65 19.3749 65H60.6248C60.9704 65 61.25 65.2796 61.25 65.6251C61.2501 65.9705 60.9705 66.2501 60.625 66.2501Z" fill="url(#paint8_linear)"/>
<path d="M40 75C37.9321 75 36.2499 73.3178 36.2499 71.2499C36.2499 69.1822 37.9321 67.5 40 67.5C42.0679 67.5 43.7501 69.1822 43.7501 71.2499C43.7501 73.3178 42.0679 75 40 75ZM40 68.7501C38.6218 68.7501 37.5 69.8719 37.5 71.2499C37.5 72.6282 38.6218 73.7501 40 73.7501C41.3781 73.7501 42.4999 72.6282 42.4999 71.2499C42.4999 69.8719 41.3781 68.7501 40 68.7501Z" fill="url(#paint9_linear)"/>
<path d="M44.3749 3.74984H35.6249C35.2796 3.74984 35 3.47025 35 3.12472C35 2.77934 35.2796 2.49976 35.6249 2.49976H44.3749C44.7204 2.49976 45 2.77934 45 3.12472C45 3.47041 44.7204 3.74984 44.3749 3.74984Z" fill="url(#paint10_linear)"/>
<path d="M62.5001 14.9999C62.1545 14.9999 61.8749 14.7205 61.8749 14.375V11.875C61.8749 11.5296 62.1545 11.25 62.5001 11.25C62.8456 11.25 63.1249 11.5296 63.1249 11.875V14.375C63.1249 14.7205 62.8456 14.9999 62.5001 14.9999Z" fill="url(#paint11_linear)"/>
<path d="M17.5001 16.2501C17.1547 16.2501 16.8751 15.9705 16.8751 15.625V13.1251C16.8751 12.7796 17.1547 12.5 17.5001 12.5C17.8454 12.5 18.125 12.7796 18.125 13.1251V15.6251C18.125 15.9705 17.8454 16.2501 17.5001 16.2501Z" fill="url(#paint12_linear)"/>
<path d="M62.5001 26.2501C62.1545 26.2501 61.8749 25.9705 61.8749 25.6251V18.1251C61.8749 17.7797 62.1545 17.5 62.5001 17.5C62.8456 17.5 63.1249 17.7796 63.1249 18.1251V25.6251C63.1249 25.9705 62.8456 26.2501 62.5001 26.2501Z" fill="url(#paint13_linear)"/>
<defs>
<linearGradient id="paint0_linear" x1="20.772" y1="29.0243" x2="87.2695" y2="7.51606" gradientUnits="userSpaceOnUse">
<stop stop-color="#46A29F"/>
<stop offset="1" stop-color="#4660A2"/>
</linearGradient>
<linearGradient id="paint1_linear" x1="56.066" y1="2.78512" x2="59.013" y2="1.90598" gradientUnits="userSpaceOnUse">
<stop stop-color="#46A29F"/>
<stop offset="1" stop-color="#4660A2"/>
</linearGradient>
<linearGradient id="paint2_linear" x1="53.5658" y1="2.78512" x2="56.5133" y2="1.90558" gradientUnits="userSpaceOnUse">
<stop stop-color="#46A29F"/>
<stop offset="1" stop-color="#4660A2"/>
</linearGradient>
<linearGradient id="paint3_linear" x1="9.76726" y1="17.6915" x2="121.427" y2="-1.55875" gradientUnits="userSpaceOnUse">
<stop stop-color="#46A29F"/>
<stop offset="1" stop-color="#4660A2"/>
</linearGradient>
<linearGradient id="paint4_linear" x1="9.76723" y1="75.177" x2="30.4088" y2="31.0491" gradientUnits="userSpaceOnUse">
<stop stop-color="#46A29F"/>
<stop offset="1" stop-color="#4660A2"/>
</linearGradient>
<linearGradient id="paint5_linear" x1="61.0353" y1="72.1058" x2="64.198" y2="71.7928" gradientUnits="userSpaceOnUse">
<stop stop-color="#46A29F"/>
<stop offset="1" stop-color="#4660A2"/>
</linearGradient>
<linearGradient id="paint6_linear" x1="17.2852" y1="72.1058" x2="20.4483" y2="71.7928" gradientUnits="userSpaceOnUse">
<stop stop-color="#46A29F"/>
<stop offset="1" stop-color="#4660A2"/>
</linearGradient>
<linearGradient id="paint7_linear" x1="11.4468" y1="5.28533" x2="12.5018" y2="-5.3663" gradientUnits="userSpaceOnUse">
<stop stop-color="#46A29F"/>
<stop offset="1" stop-color="#4660A2"/>
</linearGradient>
<linearGradient id="paint8_linear" x1="11.4468" y1="65.2854" x2="12.5021" y2="54.6325" gradientUnits="userSpaceOnUse">
<stop stop-color="#46A29F"/>
<stop offset="1" stop-color="#4660A2"/>
</linearGradient>
<linearGradient id="paint9_linear" x1="34.9611" y1="69.2121" x2="52.5719" y2="63.9831" gradientUnits="userSpaceOnUse">
<stop stop-color="#46A29F"/>
<stop offset="1" stop-color="#4660A2"/>
</linearGradient>
<linearGradient id="paint10_linear" x1="33.2816" y1="2.78512" x2="37.1288" y2="-6.35259" gradientUnits="userSpaceOnUse">
<stop stop-color="#46A29F"/>
<stop offset="1" stop-color="#4660A2"/>
</linearGradient>
<linearGradient id="paint11_linear" x1="61.6602" y1="12.106" x2="64.8228" y2="11.793" gradientUnits="userSpaceOnUse">
<stop stop-color="#46A29F"/>
<stop offset="1" stop-color="#4660A2"/>
</linearGradient>
<linearGradient id="paint12_linear" x1="16.6603" y1="13.3561" x2="19.823" y2="13.0431" gradientUnits="userSpaceOnUse">
<stop stop-color="#46A29F"/>
<stop offset="1" stop-color="#4660A2"/>
</linearGradient>
<linearGradient id="paint13_linear" x1="61.6602" y1="19.4975" x2="64.8481" y2="19.3622" gradientUnits="userSpaceOnUse">
<stop stop-color="#46A29F"/>
<stop offset="1" stop-color="#4660A2"/>
</linearGradient>
</defs>
</svg>
