<svg width="80" height="80" viewBox="0 0 80 80" fill="none" xmlns="http://www.w3.org/2000/svg">
<g clip-path="url(#clip0_13219_4732)">
<path d="M2 59.3988V62.4773C2.20523 64.2218 2.92354 68.1417 4.15494 69.8656C5.38633 71.5896 8.67004 75.4069 10.158 77.1001" stroke="url(#paint0_linear_13219_4732)" stroke-width="1.25" stroke-linecap="round" stroke-linejoin="round"/>
<path d="M11.8511 58.6292V53.7036V47.2388C11.8511 44.5185 9.64588 42.3132 6.92557 42.3132V42.3132C4.20525 42.3132 2 44.5185 2 47.2388V53.7036V59.3988" stroke="url(#paint1_linear_13219_4732)" stroke-width="1.25" stroke-linecap="round"/>
<path d="M16.4261 66.9081L14.3801 63.9583L12.5962 61.449C11.2737 59.5886 11.7254 57.0063 13.601 55.7054V55.7054C15.4461 54.4256 17.9775 54.8684 19.2786 56.6986L21.1174 59.2853L22.4787 61.2479C22.9343 61.9048 23.3442 62.5957 23.608 63.3504C23.9589 64.3542 24.3189 65.7115 24.3189 66.9081C24.3189 68.6585 24.3189 74.4321 24.3189 77.1002" stroke="url(#paint2_linear_13219_4732)" stroke-width="1.25" stroke-linecap="round"/>
<path d="M78 59.3988V62.4773C77.7948 64.2218 77.0765 68.1417 75.8451 69.8656C74.6137 71.5896 71.33 75.4069 69.842 77.1001" stroke="url(#paint3_linear_13219_4732)" stroke-width="1.25" stroke-linecap="round" stroke-linejoin="round"/>
<path d="M68.1489 58.6292V53.7036V47.2388C68.1489 44.5185 70.3541 42.3132 73.0744 42.3132V42.3132C75.7947 42.3132 78 44.5185 78 47.2388V53.7036V59.3988" stroke="url(#paint4_linear_13219_4732)" stroke-width="1.25" stroke-linecap="round"/>
<path d="M63.5739 66.9081L65.6199 63.9583L67.4038 61.449C68.7263 59.5886 68.2746 57.0063 66.399 55.7054V55.7054C64.5539 54.4256 62.0225 54.8684 60.7214 56.6986L58.8826 59.2853L57.5213 61.2479C57.0657 61.9048 56.6558 62.5957 56.392 63.3504C56.0411 64.3542 55.6811 65.7115 55.6811 66.9081C55.6811 68.6585 55.6811 74.4321 55.6811 77.1002" stroke="url(#paint5_linear_13219_4732)" stroke-width="1.25" stroke-linecap="round"/>
<circle cx="40" cy="27.8757" r="25.375" fill="#F0F4F4" stroke="url(#paint6_linear_13219_4732)" stroke-width="1.25"/>
<path d="M27.4393 30.4757C26.7893 30.2591 25.6193 29.0457 26.1393 25.9257C26.7893 22.0257 28.7393 19.4257 31.3393 18.7757C33.9393 18.1257 36.5393 20.0757 39.7893 18.1257C42.3893 16.5657 43.4726 15.3091 43.6893 14.8757" stroke="url(#paint7_linear_13219_4732)" stroke-width="1.25" stroke-linecap="round" stroke-linejoin="round"/>
<circle cx="50.4" cy="36.9757" r="3.4" fill="#DEEEEE" stroke="url(#paint8_linear_13219_4732)"/>
<path d="M34.0946 32.3001C35.0843 33.4339 35.6358 34.7335 35.7465 35.9019C35.8573 37.0711 35.5276 38.0662 34.8147 38.6885C34.1017 39.3108 33.0713 39.503 31.9277 39.2352C30.785 38.9677 29.5718 38.2456 28.5822 37.1117C27.5925 35.9779 27.041 34.6783 26.9303 33.51C26.8195 32.3407 27.1492 31.3457 27.8621 30.7233C28.575 30.101 29.6055 29.9088 30.7491 30.1766C31.8917 30.4442 33.1049 31.1663 34.0946 32.3001Z" fill="#DEEEEE" stroke="url(#paint9_linear_13219_4732)"/>
<circle cx="51.0496" cy="27.2258" r="1.95" fill="url(#paint10_linear_13219_4732)"/>
</g>
<defs>
<linearGradient id="paint0_linear_13219_4732" x1="0.598135" y1="63.4396" x2="21.0592" y2="60.6397" gradientUnits="userSpaceOnUse">
<stop stop-color="#46A29F"/>
<stop offset="1" stop-color="#4660A2"/>
</linearGradient>
<linearGradient id="paint1_linear_13219_4732" x1="0.307181" y1="46.2135" x2="24.7608" y2="42.0272" gradientUnits="userSpaceOnUse">
<stop stop-color="#46A29F"/>
<stop offset="1" stop-color="#4660A2"/>
</linearGradient>
<linearGradient id="paint2_linear_13219_4732" x1="12.1057" y1="63.3235" x2="28.0713" y2="49.6041" gradientUnits="userSpaceOnUse">
<stop stop-color="#46A29F"/>
<stop offset="1" stop-color="#4660A2"/>
</linearGradient>
<linearGradient id="paint3_linear_13219_4732" x1="79.4019" y1="63.4396" x2="58.9408" y2="60.6397" gradientUnits="userSpaceOnUse">
<stop stop-color="#46A29F"/>
<stop offset="1" stop-color="#4660A2"/>
</linearGradient>
<linearGradient id="paint4_linear_13219_4732" x1="79.6928" y1="46.2135" x2="55.2392" y2="42.0272" gradientUnits="userSpaceOnUse">
<stop stop-color="#46A29F"/>
<stop offset="1" stop-color="#4660A2"/>
</linearGradient>
<linearGradient id="paint5_linear_13219_4732" x1="67.8943" y1="63.3235" x2="51.9287" y2="49.6041" gradientUnits="userSpaceOnUse">
<stop stop-color="#46A29F"/>
<stop offset="1" stop-color="#4660A2"/>
</linearGradient>
<linearGradient id="paint6_linear_13219_4732" x1="5.06432" y1="13.7462" x2="127.164" y2="-22.5069" gradientUnits="userSpaceOnUse">
<stop stop-color="#46A29F"/>
<stop offset="1" stop-color="#4660A2"/>
</linearGradient>
<linearGradient id="paint7_linear_13219_4732" x1="22.9717" y1="18.4369" x2="63.5495" y2="4.78274" gradientUnits="userSpaceOnUse">
<stop stop-color="#46A29F"/>
<stop offset="1" stop-color="#4660A2"/>
</linearGradient>
<linearGradient id="paint8_linear_13219_4732" x1="45.1596" y1="34.8563" x2="63.4746" y2="29.4183" gradientUnits="userSpaceOnUse">
<stop stop-color="#46A29F"/>
<stop offset="1" stop-color="#4660A2"/>
</linearGradient>
<linearGradient id="paint9_linear_13219_4732" x1="25.0609" y1="36.0114" x2="37.5212" y2="19.3782" gradientUnits="userSpaceOnUse">
<stop stop-color="#46A29F"/>
<stop offset="1" stop-color="#4660A2"/>
</linearGradient>
<linearGradient id="paint10_linear_13219_4732" x1="48.4294" y1="26.166" x2="57.5869" y2="23.4471" gradientUnits="userSpaceOnUse">
<stop stop-color="#46A29F"/>
<stop offset="1" stop-color="#4660A2"/>
</linearGradient>
<clipPath id="clip0_13219_4732">
<rect width="80" height="80" fill="white"/>
</clipPath>
</defs>
</svg>
