<svg width="80" height="80" viewBox="0 0 80 80" fill="none" xmlns="http://www.w3.org/2000/svg">
<g clip-path="url(#clip0)">
<path d="M41.8731 2.53095C40.1489 0.806089 37.3735 0.806089 35.6614 2.53095C33.936 4.24363 33.936 7.04386 35.6614 8.75528L41.8731 14.9809L48.0865 8.75528C49.7979 7.04386 49.7979 4.24363 48.0865 2.53095C46.3604 0.806089 43.587 0.806089 41.8731 2.53095Z" fill="#DEEEEE"/>
<path d="M36.9115 8.75538C35.4308 6.7364 35.186 4.24373 36.9115 2.53105C37.6081 1.8292 38.482 1.42865 39.3884 1.298C38.0652 1.1064 36.6773 1.50804 35.6616 2.53105C33.9361 4.24373 33.9361 7.04396 35.6616 8.75538L41.8733 14.981L36.9115 8.75538Z" fill="#F0F4F4"/>
<path d="M50.6206 49.3689C52.984 51.3195 55.4961 52.4816 57.4713 52.4816H57.4957C59.4831 52.4816 61.9964 51.3063 64.3708 49.3445V49.3567V51.2317C64.3708 53.894 67.5959 55.1319 70.6207 55.9937V56.0072C70.6207 56.0072 68.2329 61.9189 57.4957 61.9189C46.7584 61.9189 44.3706 56.0072 44.3706 56.0072C46.0711 55.5188 47.8338 54.906 49.0581 53.9941C49.3341 53.7939 49.5709 53.5694 49.7834 53.3435C50.3083 52.7564 50.6206 52.0692 50.6206 51.2317V49.3689Z" fill="#F0F4F4"/>
<path d="M53.1208 51.8689V51.1011C52.2881 50.6287 51.4459 50.05 50.6206 49.3689V51.2318C50.6206 52.0691 50.3083 52.7564 49.7834 53.3436C49.571 53.5694 49.3341 53.794 49.0581 53.9942C47.8338 54.9061 46.0711 55.5188 44.3706 56.0072C44.1839 56.0572 43.997 56.1196 43.8093 56.1561C43.5211 56.244 43.2329 56.3196 42.9461 56.394C42.5714 56.4818 42.209 56.582 41.8708 56.6822C41.7962 56.6944 41.7218 56.7188 41.646 56.7444C41.1839 56.8811 40.7587 57.0068 40.3967 57.1435C37.2088 58.3314 35.6213 59.5312 35.6213 62.7185C35.6213 65.8935 35.6213 67.4818 35.6213 67.4818H38.1213C38.1213 66.8459 38.1213 66.0999 38.1213 65.2187C38.1213 62.0313 39.7088 60.1502 42.896 58.9626C43.2585 58.8259 43.6847 58.7001 44.1459 58.5633C44.2215 58.5377 44.2961 58.5133 44.3706 58.5011C44.7088 58.4011 45.0714 58.3011 45.4463 58.2131C45.7329 58.1386 46.0211 58.0629 46.3091 57.9751C46.4971 57.9385 46.6839 57.8763 46.8708 57.8263C48.5713 57.3379 50.334 56.7252 51.5583 55.8133C51.8343 55.6131 52.0707 55.3883 52.2833 55.1627C52.8082 54.5755 53.1208 53.8882 53.1208 53.0509V51.8689Z" fill="white"/>
<path d="M57.4957 61.9189C68.2329 61.9189 70.6207 56.0071 70.6207 56.0071V55.9937C71.497 56.244 72.359 56.4684 73.1206 56.6821C73.6711 56.831 74.184 56.981 74.5963 57.1434C77.7836 58.3313 79.3705 59.5311 79.3705 62.7184C79.3705 65.8934 79.3705 67.4816 79.3705 67.4816H61.884H58.1086H35.6213C35.6213 67.4816 35.6213 65.8935 35.6213 62.7184C35.6213 59.5311 37.2088 58.3313 40.3967 57.1434C40.7587 57.0067 41.1839 56.881 41.646 56.7443C41.7217 56.7186 41.7962 56.6943 41.8708 56.6821C42.209 56.5819 42.5712 56.4819 42.9461 56.3939C43.2331 56.3193 43.5212 56.2439 43.8093 56.156C43.997 56.1195 44.1837 56.0571 44.3706 56.0071C44.3706 56.0071 46.7584 61.9189 57.4957 61.9189Z" fill="#DEEEEE"/>
<g opacity="0.3">
<path opacity="0.3" d="M42.896 58.9623C43.2585 58.8256 43.6847 58.6998 44.1459 58.563C44.2215 58.5374 44.2961 58.513 44.3706 58.5008C44.7088 58.4008 45.0714 58.3008 45.4463 58.2128C45.5987 58.1725 45.7525 58.1273 45.9062 58.0859C44.7662 56.953 44.3706 56.0071 44.3706 56.0071C44.1839 56.0571 43.997 56.1194 43.8093 56.156C43.5211 56.2438 43.2329 56.3195 42.9461 56.3939C42.5714 56.4817 42.209 56.5819 41.8708 56.6821C41.7962 56.6942 41.7218 56.7186 41.646 56.7443C41.1839 56.881 40.7587 57.0066 40.3967 57.1434C37.2088 58.3313 35.6213 59.531 35.6213 62.7184C35.6213 65.8934 35.6213 67.4816 35.6213 67.4816H38.1213C38.1213 66.8457 38.1213 66.0998 38.1213 65.2185C38.1213 62.0312 39.7088 60.1501 42.896 58.9623Z" fill="white"/>
</g>
<path d="M50.6206 49.3685V51.2313C50.6206 52.0687 50.3083 52.756 49.7834 53.3432C49.571 53.569 49.3341 53.7814 49.0581 53.9937C47.8338 54.9056 46.0711 55.5062 44.3706 55.9934C44.1839 56.0434 43.997 56.107 43.8093 56.1557C43.5211 56.2314 43.2207 56.3059 42.9461 56.3936C42.5714 56.4814 42.209 56.5816 41.8708 56.6818V34.9807H43.0963C43.0963 40.6802 46.6462 46.0933 50.5962 49.3441C50.6084 49.3563 50.6084 49.3563 50.6206 49.3685Z" fill="#FFCE54"/>
<path d="M50.6206 49.3685V51.2313C50.6206 52.0687 50.3083 52.756 49.7834 53.3432C49.571 53.569 49.3341 53.7814 49.0581 53.9937C47.8338 54.9056 46.0711 55.5062 44.3706 55.9934C44.1839 56.0434 43.997 56.107 43.8093 56.1557C43.5211 56.2314 43.2207 56.3059 42.9461 56.3936C42.5714 56.4814 42.209 56.5816 41.8708 56.6818V34.9807H43.0963C43.0963 40.6802 46.6462 46.0933 50.5962 49.3441C50.6084 49.3563 50.6084 49.3563 50.6206 49.3685Z" fill="#DEEEEE"/>
<path d="M67.9999 24.5C64.6502 26.8755 48.3378 24.2752 43.5001 26.0001C42.0975 26.5469 44.0703 34.4892 43.0963 34.7136C43.0988 40.4121 46.6475 46.0949 50.5962 49.3444C50.6084 49.3566 50.6084 49.3566 50.6206 49.3688C52.984 51.3195 55.4961 52.4816 57.4713 52.4816H57.4957C59.4831 52.4816 61.9964 51.3062 64.3707 49.3444C68.3207 46.0936 71.8706 40.6806 71.8706 34.981V33.2805C70.9999 27 67.9999 24.5 67.9999 24.5Z" fill="#F0F4F4"/>
<path d="M53.1208 49.3688C53.1086 49.3566 53.1086 49.3566 53.0964 49.3444C49.1472 46.0949 45.5159 39.7515 45.5135 34.0532L43.0963 34.7137C43.0988 40.4121 46.6475 46.0949 50.5962 49.3444C50.6084 49.3566 50.6084 49.3566 50.6206 49.3688C52.984 51.3195 55.4961 52.4816 57.4713 52.4816H57.4957C57.8889 52.4816 58.3049 52.423 58.7334 52.335C56.9999 51.9776 55.0153 50.9326 53.1208 49.3688Z" fill="white"/>
<path d="M54.7126 67.506C53.8371 66.8567 52.7118 66.3439 51.3373 65.8313C49.1497 65.006 43.4247 62.794 40.6244 61.2315L39.1498 60.344L35.6243 66.2315L31.6246 64.2321L30.8244 63.8317L31.8241 61.8187C30.7492 62.257 29.7117 62.4816 28.7492 62.4816C28.1742 62.4816 27.5619 62.3938 26.9369 62.2436L26.8741 63.7315L21.8741 66.2315L18.3493 60.344L16.8742 61.2315C14.0745 62.794 8.34945 65.0058 6.14902 65.8313C2.46206 67.207 0.624359 68.5937 0.624359 72.2815C0.624359 75.9694 0.624359 78.7316 0.624359 78.7316H26.8744H30.6245H56.8745C56.8745 78.7316 56.8745 75.9692 56.8745 72.2815C56.8743 69.9816 56.1493 68.5693 54.7126 67.506Z" fill="#DEEEEE"/>
<path d="M29.5917 62.4255L21.8744 66.2317L18.1243 59.9816V55.2527L29.5917 62.4255Z" fill="white"/>
<path d="M27.9071 62.4255L35.6244 66.2317L39.3744 59.9816V55.2527L27.9071 62.4255Z" fill="white"/>
<path d="M3.12437 74.7816C3.12437 71.0938 4.63748 69.231 8.3246 67.8554C10.525 67.0302 16.25 64.8182 19.0496 63.2557L19.787 62.8113L18.3497 60.3442L16.8745 61.2318C14.0748 62.7942 8.34976 65.0061 6.14933 65.8315C2.46206 67.2071 0.624359 68.5938 0.624359 72.2815C0.624359 75.9694 0.624359 78.7317 0.624359 78.7317H3.12437C3.12437 77.6538 3.12437 76.305 3.12437 74.7816Z" fill="#F0F4F4"/>
<path d="M35.0385 20.9087C27.1246 20.6633 11.3618 22.4712 13.1244 41.2309L15.5249 37.2306C16.1603 23.7955 27.4347 21.1527 35.0385 20.9087Z" fill="#F0F4F4"/>
<path d="M44.3742 41.2309V42.4816C44.3742 43.2068 44.3242 43.9439 44.2362 44.6569C43.2745 52.6819 37.1495 59.6936 31.8243 61.8187C30.7494 62.257 29.7119 62.4816 28.7493 62.4816C28.1744 62.4816 27.5621 62.3938 26.9371 62.2436C20.9117 60.7067 13.1243 52.0568 13.1243 42.4816V41.2309L16.8744 34.981C16.8744 34.981 22.937 37.481 28.7493 37.481C34.5495 37.481 40.6244 34.981 40.6244 34.981L44.3742 41.2309Z" fill="#F0F4F4"/>
<path d="M45.6241 73.7316L41.8744 71.2314L38.1244 73.7316V74.9816H45.6241V73.7316Z" fill="#F0F4F4"/>
<path d="M29.4373 62.2436C23.4119 60.7067 15.6243 52.0568 15.6243 42.4817V37.0916L13.1243 41.2309V42.4817C13.1243 52.0569 20.9119 60.7067 26.9371 62.2436C27.5621 62.3938 28.1744 62.4816 28.7493 62.4816C29.1569 62.4816 29.5806 62.4329 30.0127 62.3522C29.8217 62.3192 29.632 62.29 29.4373 62.2436Z" fill="white"/>
<path d="M41.8756 15.6058C41.7096 15.6058 41.5509 15.54 41.4337 15.4228L35.2198 9.19361C33.2624 7.23182 33.2624 4.04089 35.2198 2.08036C36.9745 0.322673 39.9579 0.162642 41.8756 1.68622C43.7922 0.162798 46.7744 0.320329 48.531 2.08036C50.4863 4.04089 50.4876 7.23182 48.531 9.19361L42.3176 15.4228C42.2004 15.54 42.0417 15.6058 41.8756 15.6058ZM38.7689 1.85719C37.7631 1.85719 36.8171 2.25023 36.1048 2.96428C34.6333 4.43784 34.6333 6.83534 36.1048 8.30984L41.8758 14.0958L47.6472 8.30984C49.1169 6.83518 49.1169 4.43784 47.6472 2.96428C46.2215 1.53603 43.7411 1.53853 42.3177 2.96303C42.0833 3.19995 41.6682 3.1987 41.4338 2.96428C40.7209 2.25008 39.7747 1.85719 38.7689 1.85719Z" fill="url(#paint0_linear)"/>
<path d="M57.5007 53.1066C54.1388 53.1066 49.4843 49.9083 46.1822 45.3293C45.982 45.0499 46.0442 44.6592 46.3238 44.4578C46.6047 44.2538 46.9954 44.3198 47.1977 44.5993C50.229 48.8047 54.5612 51.8565 57.5007 51.8565C59.9713 51.8565 63.3893 49.8436 66.2117 46.7285C69.4149 43.192 71.2505 38.9104 71.2505 34.9809C71.2505 34.6355 71.5301 34.356 71.8756 34.356C72.2212 34.356 72.5008 34.6355 72.5008 34.9809C72.5008 44.3271 63.1425 53.1066 57.5007 53.1066Z" fill="url(#paint1_linear)"/>
<path d="M41.6485 57.3667C41.3776 57.3667 41.1266 57.1872 41.0484 56.9125C40.9539 56.5806 41.1467 56.2352 41.4788 56.14C41.8609 56.0325 42.2688 55.9226 42.6958 55.8092C45.7781 54.984 50.0006 53.8547 50.0006 51.2316C50.0006 50.886 50.2802 50.6064 50.6254 50.6064C50.971 50.6064 51.2506 50.886 51.2506 51.2316C51.2506 54.8143 46.4923 56.0875 43.018 57.0164C42.598 57.1288 42.1954 57.2362 41.8206 57.3437C41.7633 57.3593 41.7059 57.3667 41.6485 57.3667Z" fill="url(#paint2_linear)"/>
<path d="M79.3755 68.1065H58.1098C57.7643 68.1065 57.4847 67.8271 57.4847 67.4816C57.4847 67.1362 57.7643 66.8566 58.1098 66.8566H78.7507V62.7086C78.7507 59.8401 77.404 58.8537 74.3852 57.727C73.7579 57.4926 72.8947 57.2618 71.9805 57.0164C68.5075 56.0864 63.7505 54.813 63.7505 51.2316C63.7505 50.886 64.0301 50.6064 64.3756 50.6064C64.7208 50.6064 65.0004 50.886 65.0004 51.2316C65.0004 53.8535 69.2218 54.984 72.3052 55.8092C73.2475 56.0619 74.1387 56.3 74.8221 56.5549C78.1803 57.8086 80.0005 59.1612 80.0005 62.7085V67.4814C80.0006 67.8271 79.7211 68.1065 79.3755 68.1065Z" fill="url(#paint3_linear)"/>
<path d="M50.6254 51.8567C50.2802 51.8567 50.0006 51.5771 50.0006 51.2317V49.2273C50.0006 48.8819 50.2802 48.6023 50.6254 48.6023C50.971 48.6023 51.2506 48.8819 51.2506 49.2273V51.2317C51.2506 51.5771 50.971 51.8567 50.6254 51.8567Z" fill="url(#paint4_linear)"/>
<path d="M64.3757 51.8565C64.0302 51.8565 63.7506 51.5769 63.7506 51.2315V49.3479C63.7506 49.0023 64.0302 48.7229 64.3757 48.7229C64.721 48.7229 65.0006 49.0023 65.0006 49.3479V51.2315C65.0006 51.5769 64.721 51.8565 64.3757 51.8565Z" fill="url(#paint5_linear)"/>
<path d="M57.5007 62.5391C46.4679 62.5391 43.8998 56.4891 43.796 56.2317C43.6678 55.9106 43.8216 55.5468 44.1412 55.4174C44.4586 55.2894 44.8237 55.4417 44.9543 55.7604C45.0495 55.99 47.37 61.289 57.5007 61.289C67.6351 61.289 69.9543 55.9862 70.0482 55.7604C70.1814 55.443 70.5452 55.2942 70.8626 55.4197C71.181 55.5504 71.3347 55.9117 71.2066 56.2316C71.1016 56.4891 68.5358 62.5391 57.5007 62.5391Z" fill="url(#paint6_linear)"/>
<path d="M56.8755 79.3565H0.625453C0.280074 79.3565 0.000488281 79.0771 0.000488281 78.7316V72.2777C0.000488281 68.2249 2.0873 66.6771 5.93867 65.2354C6.6985 64.9522 13.4442 62.4205 16.5723 60.6846C16.8752 60.5198 17.2546 60.626 17.422 60.9288C17.5898 61.2302 17.4806 61.6098 17.179 61.7783C13.971 63.5582 7.14421 66.1204 6.37641 66.4073C2.90339 67.7062 1.25073 68.9159 1.25073 72.2775V78.1065H56.2506V72.2775C56.2506 68.9158 54.5978 67.7048 51.1235 66.4073C50.3568 66.1204 43.5234 63.5519 40.3228 61.7783C40.0207 61.6112 39.9115 61.2302 40.0787 60.9288C40.2466 60.6259 40.6268 60.5198 40.9281 60.6846C44.0506 62.4144 50.8025 64.9522 51.5619 65.2354C55.4131 66.6758 57.5005 68.2249 57.5005 72.2777V78.7316C57.5007 79.0771 57.2209 79.3565 56.8755 79.3565Z" fill="url(#paint7_linear)"/>
<path d="M28.7506 63.1065C22.4817 63.1065 12.5006 53.668 12.5006 42.4814C12.5006 42.1359 12.7802 41.8564 13.1257 41.8564C13.4712 41.8564 13.7508 42.1359 13.7508 42.4814C13.7508 52.8012 23.0995 61.8564 28.7508 61.8564C34.402 61.8564 43.7509 52.8014 43.7509 42.4814C43.7509 42.1359 44.0301 41.8564 44.3757 41.8564C44.7212 41.8564 45.0008 42.1359 45.0008 42.4814C45.0006 53.6681 35.0195 63.1065 28.7506 63.1065Z" fill="url(#paint8_linear)"/>
<path d="M28.7878 66.8566C28.4429 66.8566 28.1566 66.577 28.1566 66.2317C28.1566 65.8861 28.43 65.6067 28.7754 65.6067H28.7876C29.133 65.6067 29.4126 65.8861 29.4126 66.2317C29.4127 66.577 29.1332 66.8566 28.7878 66.8566Z" fill="url(#paint9_linear)"/>
<path d="M28.7878 71.8566C28.4429 71.8566 28.1566 71.577 28.1566 71.2315C28.1566 70.8861 28.43 70.6067 28.7754 70.6067H28.7876C29.133 70.6067 29.4126 70.8861 29.4126 71.2315C29.4127 71.577 29.1332 71.8566 28.7878 71.8566Z" fill="url(#paint10_linear)"/>
<path d="M28.7878 76.7957C28.4429 76.7957 28.1566 76.5162 28.1566 76.1706C28.1566 75.8252 28.43 75.5457 28.7754 75.5457H28.7876C29.133 75.5457 29.4126 75.8252 29.4126 76.1706C29.4127 76.5162 29.1332 76.7957 28.7878 76.7957Z" fill="url(#paint11_linear)"/>
<path d="M35.6249 66.8566C35.5156 66.8566 35.4045 66.8285 35.3039 66.7675C35.0079 66.5904 34.9121 66.206 35.0896 65.9106L38.8396 59.6607C39.0179 59.3642 39.4011 59.2665 39.6971 59.4459C39.9932 59.6228 40.089 60.0075 39.9113 60.3027L36.1612 66.5526C36.0443 66.7478 35.8374 66.8566 35.6249 66.8566Z" fill="url(#paint12_linear)"/>
<path d="M35.6249 66.8567C35.5308 66.8567 35.4358 66.8359 35.3459 66.7907L30.3459 64.2907C30.0369 64.1358 29.9119 63.7609 30.0663 63.4521C30.2213 63.1445 30.5967 63.0176 30.9049 63.1727L35.9049 65.6727C36.2137 65.8277 36.3388 66.2025 36.1845 66.5111C36.0748 66.7296 35.8544 66.8567 35.6249 66.8567Z" fill="url(#paint13_linear)"/>
<path d="M21.8761 66.8566C21.6637 66.8566 21.4568 66.748 21.3396 66.5526L17.5897 60.3027C17.412 60.0073 17.5079 59.6227 17.8039 59.4459C18.0999 59.2665 18.4833 59.3642 18.6614 59.6607L22.4115 65.9106C22.5891 66.2062 22.4933 66.5906 22.1973 66.7675C22.0965 66.8285 21.9854 66.8566 21.8761 66.8566Z" fill="url(#paint14_linear)"/>
<path d="M21.8761 66.8567C21.6467 66.8567 21.4264 66.7298 21.3163 66.5111C21.1619 66.2023 21.2869 65.8277 21.5959 65.6727L26.5959 63.1727C26.9041 63.0176 27.2797 63.1445 27.4345 63.4521C27.5889 63.7611 27.4639 64.1358 27.155 64.2907L22.1549 66.7907C22.0654 66.8359 21.97 66.8567 21.8761 66.8567Z" fill="url(#paint15_linear)"/>
<path d="M44.4488 34.0811C44.7992 35.9183 44.837 38.256 44.3743 41.2308L40.6245 34.9808C40.6245 34.9808 34.5496 37.4808 28.7494 37.4808C22.937 37.4808 16.8744 34.9808 16.8744 34.9808L13.1243 41.2308C10.8245 16.7557 38.3747 21.1308 39.3744 21.2808C35.0373 23.068 36.8744 27.4809 36.8744 27.4809C36.8744 27.4809 38.0871 27.3686 39.5618 27.8679C41.4117 28.5061 43.6751 30.093 44.4488 34.0811Z" fill="#DEEEEE"/>
<path d="M13.1256 41.8565C13.0798 41.8565 13.0334 41.8517 12.9871 41.8406C12.7233 41.7807 12.5286 41.5585 12.503 41.29C11.9072 34.9258 13.2494 29.8941 16.4922 26.3334C21.0681 21.309 28.4234 20.2544 33.7883 20.2544C36.7131 20.2544 38.8804 20.5668 39.4749 20.662C39.7509 20.7071 39.9639 20.9294 39.9963 21.2075C40.0286 21.4859 39.8723 21.7509 39.6135 21.857C36.5881 23.1021 37.0293 25.8231 37.321 26.8472C38.485 26.8704 41.0855 27.1989 43.0437 29.4852C45.174 31.9731 45.8293 35.9574 44.9933 41.3278C44.9517 41.5879 44.754 41.7942 44.4951 41.8443C44.2386 41.9005 43.9753 41.7796 43.8398 41.5526L40.3613 35.7547C38.7701 36.3566 33.7121 38.1058 28.7506 38.1058C23.7897 38.1058 18.7304 36.3566 17.14 35.7547L13.6616 41.5526C13.5468 41.7442 13.3417 41.8565 13.1256 41.8565ZM40.6257 34.3559C40.8391 34.3559 41.0455 34.4657 41.1615 34.6597L43.9841 39.362C44.3793 35.2714 43.746 32.227 42.0943 30.2982C40.3444 28.2548 37.8926 28.0961 37.1827 28.0961C36.8325 28.0961 36.9069 28.1058 36.8775 28.1058C36.6261 28.1058 36.3954 27.9543 36.2982 27.7199C36.2604 27.6283 35.3833 25.4652 36.2415 23.4011C36.5179 22.7344 36.9391 22.1596 37.5006 21.6787C36.5387 21.5884 35.2569 21.5042 33.7885 21.5042C28.6756 21.5042 21.6846 22.4881 17.417 27.1743C14.7603 30.0918 13.4888 34.1238 13.6262 39.1824L16.3398 34.6597C16.4991 34.3937 16.8263 34.2813 17.1137 34.4034C17.1728 34.4278 23.1416 36.8557 28.7506 36.8557C34.3689 36.8557 40.3279 34.4278 40.3876 34.4034C40.4653 34.3704 40.5457 34.3559 40.6257 34.3559Z" fill="url(#paint16_linear)"/>
<path d="M72.0834 25.8265C72.4337 27.6637 71.9627 28.525 71.5 31.4998L68.259 26.7262C68.259 26.7262 62.1841 29.2262 56.3839 29.2262C50.5715 29.2262 44.509 26.7262 44.509 26.7262L40.7589 32.9762C38.459 8.50112 64.5004 13.35 65.5001 13.5C62.5001 15.5 64.5089 19.2263 64.5089 19.2263C64.5089 19.2263 65.7217 19.114 67.1963 19.6133C69.0462 20.2515 71.3096 21.8384 72.0834 25.8265Z" fill="#DEEEEE"/>
<path fill-rule="evenodd" clip-rule="evenodd" d="M44.6449 18.5495C49.0795 13.6799 56.2835 12.6997 61.423 12.6997C62.912 12.6997 64.2114 12.7851 65.1866 12.8767C65.6701 12.9221 65.8618 13.5261 65.4929 13.842C64.9949 14.2685 64.6263 14.7731 64.384 15.3573C64.006 16.2666 64.0044 17.2149 64.1128 17.9673C64.2208 18.717 64.4324 19.2346 64.4411 19.2555C64.4493 19.2746 64.4666 19.2903 64.4876 19.2973C64.4911 19.2984 64.4947 19.2987 64.4983 19.2984C64.5539 19.2937 64.6457 19.2916 64.8173 19.2916C65.5774 19.2916 68.2372 19.4563 70.1466 21.686C71.9414 23.7819 72.5671 27.01 72.166 31.1604C72.115 31.6884 71.42 31.8454 71.147 31.3906L68.3244 26.6883C68.311 26.6658 68.2864 26.6514 68.2603 26.6514C68.2536 26.6514 68.2488 26.652 68.2454 26.6527C68.2422 26.6533 68.2395 26.6541 68.237 26.6552L68.2301 26.6581C68.1677 26.6836 62.1208 29.1513 56.3852 29.1513C51.6215 29.1513 46.6296 27.4437 45.0488 26.8543C44.7638 26.7481 44.6325 26.4294 44.7485 26.1483L44.9506 25.6586C44.9547 25.6486 44.9661 25.6438 44.9762 25.6478L45.0294 25.6691C45.0758 25.6874 45.1437 25.714 45.2315 25.7475C45.4072 25.8147 45.6626 25.9099 45.9855 26.0237C46.6315 26.2514 47.5463 26.5532 48.6324 26.8542C50.8109 27.4581 53.6513 28.0513 56.3852 28.0513C61.8407 28.0513 67.6603 25.7023 67.8116 25.6408C67.9615 25.5779 68.1143 25.5514 68.2603 25.5514C68.6605 25.5514 69.049 25.7573 69.2676 26.1222M69.2676 26.1222C70 28 73.3734 36.4119 70.8454 25.6171C70.5364 24.2981 70.0194 23.2286 69.3111 22.4015C67.7208 20.5444 65.4768 20.3916 64.8173 20.3916C64.7318 20.3916 64.675 20.3922 64.6376 20.393C64.6244 20.3933 64.6144 20.3936 64.607 20.3938C64.5608 20.4013 64.5239 20.4013 64.5122 20.4013C64.0411 20.4013 63.6081 20.1185 63.4247 19.6761C63.3955 19.6055 63.1494 18.995 63.024 18.1242C62.899 17.2562 62.888 16.0907 63.3679 14.936C63.5687 14.4518 63.2747 13.8407 62.7509 13.8227C62.3299 13.8082 61.8858 13.7997 61.423 13.7997C56.3368 13.7997 49.5587 14.7874 45.4582 19.2902C44.4433 20.4046 43.9683 21.0079 43.4948 21.921C43.1067 22.6694 42.7227 23.6185 42.0806 25.2051C41.9677 25.4841 41.8469 25.7827 41.7167 26.1034C41.6024 26.3848 41.2814 26.5199 41.0001 26.4052C40.7188 26.2905 40.5838 25.9695 40.698 25.6881C40.8222 25.3823 40.9384 25.0951 41.0478 24.8247C41.6943 23.2263 42.1043 22.213 42.5183 21.4147C43.0576 20.3746 43.6083 19.6879 44.6449 18.5495M64.3433 19.3299C64.3278 19.3353 64.333 19.333 64.3484 19.3282L64.3433 19.3299Z" fill="url(#paint17_linear)"/>
<path d="M30.6256 79.3565C30.2802 79.3565 30.0005 79.0771 30.0005 78.7316V66.2317C30.0005 65.8861 30.2801 65.6067 30.6256 65.6067C30.9712 65.6067 31.2507 65.8861 31.2507 66.2317V78.7316C31.2506 79.0771 30.971 79.3565 30.6256 79.3565Z" fill="url(#paint18_linear)"/>
<path d="M26.8755 79.3565C26.5301 79.3565 26.2506 79.0771 26.2506 78.7316V66.2317C26.2506 65.8861 26.5301 65.6067 26.8755 65.6067C27.2211 65.6067 27.5006 65.8861 27.5006 66.2317V78.7316C27.5006 79.0771 27.2211 79.3565 26.8755 79.3565Z" fill="url(#paint19_linear)"/>
<path d="M46.8756 75.6066H36.8756C36.5302 75.6066 36.2505 75.3272 36.2505 74.9817C36.2505 74.6361 36.5301 74.3567 36.8756 74.3567H46.8756C47.2209 74.3567 47.5005 74.6361 47.5005 74.9817C47.5005 75.3272 47.2209 75.6066 46.8756 75.6066Z" fill="url(#paint20_linear)"/>
<path d="M36.8756 76.8567C36.5302 76.8567 36.2505 76.5771 36.2505 76.2316V74.9817C36.2505 74.6361 36.5301 74.3567 36.8756 74.3567C37.2211 74.3567 37.5007 74.6361 37.5007 74.9817V76.2316C37.5006 76.5771 37.221 76.8567 36.8756 76.8567Z" fill="url(#paint21_linear)"/>
<path d="M46.8756 76.8567C46.5301 76.8567 46.2505 76.5771 46.2505 76.2316V74.9817C46.2505 74.6361 46.5301 74.3567 46.8756 74.3567C47.2209 74.3567 47.5005 74.6361 47.5005 74.9817V76.2316C47.5005 76.5771 47.2209 76.8567 46.8756 76.8567Z" fill="url(#paint22_linear)"/>
<path d="M18.1255 60.6065C17.7802 60.6065 17.5006 60.3269 17.5006 59.9815V58.7314C17.5006 58.386 17.7802 58.1064 18.1255 58.1064C18.4711 58.1064 18.7507 58.386 18.7507 58.7314V59.9815C18.7505 60.3269 18.4711 60.6065 18.1255 60.6065Z" fill="url(#paint23_linear)"/>
<path d="M39.3756 60.6065C39.0302 60.6065 38.7505 60.3269 38.7505 59.9815V58.7314C38.7505 58.386 39.0301 58.1064 39.3756 58.1064C39.7211 58.1064 40.0007 58.386 40.0007 58.7314V59.9815C40.0006 60.3269 39.721 60.6065 39.3756 60.6065Z" fill="url(#paint24_linear)"/>
<path d="M38.1261 74.3568C37.9241 74.3568 37.7257 74.2591 37.6056 74.0784C37.4138 73.7916 37.4915 73.4034 37.7789 73.2117L41.5288 70.7117C41.817 70.5201 42.2039 70.5982 42.3957 70.885C42.5871 71.1719 42.5101 71.56 42.2224 71.7517L38.4723 74.2517C38.3656 74.3225 38.2452 74.3568 38.1261 74.3568Z" fill="url(#paint25_linear)"/>
<path d="M45.6254 74.3568C45.506 74.3568 45.3865 74.3225 45.2789 74.2517L41.5288 71.7517C41.2413 71.56 41.1638 71.1719 41.3555 70.885C41.546 70.5982 41.9342 70.5201 42.2224 70.7117L45.9722 73.2117C46.2604 73.4034 46.3373 73.7916 46.1455 74.0784C46.0259 74.2591 45.8268 74.3568 45.6254 74.3568Z" fill="url(#paint26_linear)"/>
</g>
<defs>
<linearGradient id="paint0_linear" x1="30.96" y1="4.05891" x2="68.562" y2="-8.06356" gradientUnits="userSpaceOnUse">
<stop stop-color="#46A29F"/>
<stop offset="1" stop-color="#4660A2"/>
</linearGradient>
<linearGradient id="paint1_linear" x1="41.5223" y1="38.6363" x2="98.9961" y2="14.5774" gradientUnits="userSpaceOnUse">
<stop stop-color="#46A29F"/>
<stop offset="1" stop-color="#4660A2"/>
</linearGradient>
<linearGradient id="paint2_linear" x1="39.2671" y1="52.1497" x2="61.0096" y2="42.3842" gradientUnits="userSpaceOnUse">
<stop stop-color="#46A29F"/>
<stop offset="1" stop-color="#4660A2"/>
</linearGradient>
<linearGradient id="paint3_linear" x1="53.6156" y1="54.6013" x2="103.819" y2="35.4232" gradientUnits="userSpaceOnUse">
<stop stop-color="#46A29F"/>
<stop offset="1" stop-color="#4660A2"/>
</linearGradient>
<linearGradient id="paint4_linear" x1="49.7858" y1="49.3452" x2="52.9385" y2="48.9857" gradientUnits="userSpaceOnUse">
<stop stop-color="#46A29F"/>
<stop offset="1" stop-color="#4660A2"/>
</linearGradient>
<linearGradient id="paint5_linear" x1="63.5358" y1="49.4382" x2="66.6853" y2="49.0652" gradientUnits="userSpaceOnUse">
<stop stop-color="#46A29F"/>
<stop offset="1" stop-color="#4660A2"/>
</linearGradient>
<linearGradient id="paint6_linear" x1="39.0251" y1="57.0081" x2="69.602" y2="22.1715" gradientUnits="userSpaceOnUse">
<stop stop-color="#46A29F"/>
<stop offset="1" stop-color="#4660A2"/>
</linearGradient>
<linearGradient id="paint7_linear" x1="-9.88031" y1="64.8872" x2="70.4399" y2="-8.24973" gradientUnits="userSpaceOnUse">
<stop stop-color="#46A29F"/>
<stop offset="1" stop-color="#4660A2"/>
</linearGradient>
<linearGradient id="paint8_linear" x1="6.91575" y1="46.7074" x2="75.7595" y2="15.445" gradientUnits="userSpaceOnUse">
<stop stop-color="#46A29F"/>
<stop offset="1" stop-color="#4660A2"/>
</linearGradient>
<linearGradient id="paint9_linear" x1="27.9407" y1="65.892" x2="30.8876" y2="65.0128" gradientUnits="userSpaceOnUse">
<stop stop-color="#46A29F"/>
<stop offset="1" stop-color="#4660A2"/>
</linearGradient>
<linearGradient id="paint10_linear" x1="27.9407" y1="70.892" x2="30.8876" y2="70.0128" gradientUnits="userSpaceOnUse">
<stop stop-color="#46A29F"/>
<stop offset="1" stop-color="#4660A2"/>
</linearGradient>
<linearGradient id="paint11_linear" x1="27.9407" y1="75.831" x2="30.8877" y2="74.9519" gradientUnits="userSpaceOnUse">
<stop stop-color="#46A29F"/>
<stop offset="1" stop-color="#4660A2"/>
</linearGradient>
<linearGradient id="paint12_linear" x1="34.1412" y1="61.0682" x2="46.4353" y2="58.6348" gradientUnits="userSpaceOnUse">
<stop stop-color="#46A29F"/>
<stop offset="1" stop-color="#4660A2"/>
</linearGradient>
<linearGradient id="paint13_linear" x1="28.9261" y1="63.9625" x2="41.7547" y2="57.6141" gradientUnits="userSpaceOnUse">
<stop stop-color="#46A29F"/>
<stop offset="1" stop-color="#4660A2"/>
</linearGradient>
<linearGradient id="paint14_linear" x1="16.6412" y1="61.0682" x2="28.9355" y2="58.6347" gradientUnits="userSpaceOnUse">
<stop stop-color="#46A29F"/>
<stop offset="1" stop-color="#4660A2"/>
</linearGradient>
<linearGradient id="paint15_linear" x1="20.1761" y1="63.9625" x2="33.0049" y2="57.6139" gradientUnits="userSpaceOnUse">
<stop stop-color="#46A29F"/>
<stop offset="1" stop-color="#4660A2"/>
</linearGradient>
<linearGradient id="paint16_linear" x1="6.69826" y1="25.186" x2="76.6019" y2="-6.49876" gradientUnits="userSpaceOnUse">
<stop stop-color="#46A29F"/>
<stop offset="1" stop-color="#4660A2"/>
</linearGradient>
<linearGradient id="paint17_linear" x1="35.223" y1="17.0275" x2="100.11" y2="-15.1102" gradientUnits="userSpaceOnUse">
<stop stop-color="#46A29F"/>
<stop offset="1" stop-color="#4660A2"/>
</linearGradient>
<linearGradient id="paint18_linear" x1="29.7857" y1="68.7455" x2="32.9778" y2="68.6593" gradientUnits="userSpaceOnUse">
<stop stop-color="#46A29F"/>
<stop offset="1" stop-color="#4660A2"/>
</linearGradient>
<linearGradient id="paint19_linear" x1="26.0358" y1="68.7455" x2="29.2275" y2="68.6593" gradientUnits="userSpaceOnUse">
<stop stop-color="#46A29F"/>
<stop offset="1" stop-color="#4660A2"/>
</linearGradient>
<linearGradient id="paint20_linear" x1="34.3173" y1="74.642" x2="37.8479" y2="65.207" gradientUnits="userSpaceOnUse">
<stop stop-color="#46A29F"/>
<stop offset="1" stop-color="#4660A2"/>
</linearGradient>
<linearGradient id="paint21_linear" x1="36.0356" y1="74.9274" x2="39.1612" y2="74.4633" gradientUnits="userSpaceOnUse">
<stop stop-color="#46A29F"/>
<stop offset="1" stop-color="#4660A2"/>
</linearGradient>
<linearGradient id="paint22_linear" x1="46.0357" y1="74.9274" x2="49.1605" y2="74.4635" gradientUnits="userSpaceOnUse">
<stop stop-color="#46A29F"/>
<stop offset="1" stop-color="#4660A2"/>
</linearGradient>
<linearGradient id="paint23_linear" x1="17.2858" y1="58.6771" x2="20.4109" y2="58.2132" gradientUnits="userSpaceOnUse">
<stop stop-color="#46A29F"/>
<stop offset="1" stop-color="#4660A2"/>
</linearGradient>
<linearGradient id="paint24_linear" x1="38.5356" y1="58.6771" x2="41.6612" y2="58.2131" gradientUnits="userSpaceOnUse">
<stop stop-color="#46A29F"/>
<stop offset="1" stop-color="#4660A2"/>
</linearGradient>
<linearGradient id="paint25_linear" x1="36.6411" y1="71.4627" x2="47.6863" y2="67.0897" gradientUnits="userSpaceOnUse">
<stop stop-color="#46A29F"/>
<stop offset="1" stop-color="#4660A2"/>
</linearGradient>
<linearGradient id="paint26_linear" x1="40.3909" y1="71.4627" x2="51.4365" y2="67.0895" gradientUnits="userSpaceOnUse">
<stop stop-color="#46A29F"/>
<stop offset="1" stop-color="#4660A2"/>
</linearGradient>
<clipPath id="clip0">
<rect width="80" height="80" fill="white" transform="translate(0.000488281)"/>
</clipPath>
</defs>
</svg>
