<svg width="80" height="80" viewBox="0 0 80 80" fill="none" xmlns="http://www.w3.org/2000/svg">
<path d="M61.8749 74.3749C61.8749 77.1251 59.6265 79.3748 56.8749 79.3748H23.125C20.3759 79.3748 18.125 77.125 18.125 74.3749V8.1249C18.125 5.37468 20.3759 3.12488 23.125 3.12488H56.8749C59.6265 3.12488 61.8749 5.37468 61.8749 8.1249V74.3749Z" fill="#656D78"/>
<path d="M61.8749 74.3749C61.8749 77.1251 59.6265 79.3748 56.8749 79.3748H23.125C20.3759 79.3748 18.125 77.125 18.125 74.3749V8.1249C18.125 5.37468 20.3759 3.12488 23.125 3.12488H56.8749C59.6265 3.12488 61.8749 5.37468 61.8749 8.1249V74.3749Z" fill="#DEEEEE"/>
<path d="M61.8749 71.875C61.8749 74.6253 59.6265 76.8751 56.8749 76.8751H23.125C20.3759 76.8751 18.125 74.6253 18.125 71.875V5.62502C18.125 2.87481 20.3759 0.625 23.125 0.625H56.8749C59.6265 0.625 61.8749 2.87481 61.8749 5.62502V71.875Z" fill="#DEEEEE"/>
<path d="M20.625 71.875V5.62502C20.625 2.87481 22.8759 0.625 25.625 0.625H23.125C20.3759 0.625 18.125 2.87481 18.125 5.62502V71.875C18.125 74.6253 20.3759 76.8751 23.125 76.8751H25.625C22.8759 76.8751 20.625 74.6253 20.625 71.875Z" fill="#F0F4F4"/>
<path d="M61.8756 5.625H18.125V65.6255H61.8756V5.625Z" fill="#DEEEEE"/>
<path d="M43.1251 71.2498C43.1251 72.9772 41.7262 74.375 40.0001 74.375C38.2753 74.375 36.875 72.9772 36.875 71.2498C36.875 69.5239 38.2751 68.1249 40.0001 68.1249C41.7262 68.1249 43.1251 69.5239 43.1251 71.2498Z" fill="#F0F4F4"/>
<path d="M20.625 5.625H18.125V65.6255H20.625V5.625Z" fill="#F0F4F4"/>
<path d="M40.0841 25.9891C36.9394 22.8409 31.8381 22.8409 28.6924 25.9891C25.5479 29.1336 25.5479 34.2362 28.6924 37.3807L40.0841 48.7686L51.472 37.3807C54.6226 34.2362 54.6226 29.1336 51.472 25.9891C48.3299 22.8409 43.2272 22.8409 40.0841 25.9891Z" fill="#EBF0F6"/>
<path d="M31.1924 37.3809C28.2151 33.5028 28.0479 29.1339 31.1924 25.9894C32.4459 24.7344 34.0109 23.9887 35.6381 23.7347C33.1832 23.3503 30.5844 24.096 28.6924 25.9894C25.5479 29.1339 25.5479 34.2364 28.6924 37.3809L40.0841 48.7689L31.1924 37.3809Z" fill="#F0F4F4"/>
<path d="M40.0842 49.3904C39.9243 49.3904 39.7643 49.3293 39.6422 49.2072L28.2507 37.8192C24.8657 34.4355 24.8657 28.9277 28.2507 25.5439C29.8901 23.9033 32.0703 23 34.3884 23C36.5051 23 38.5045 23.752 40.0842 25.1301C41.6625 23.7519 43.6621 23 45.7786 23C48.0981 23 50.2771 23.9033 51.9141 25.5439C53.5557 27.1821 54.4604 29.3623 54.4604 31.6815C54.4604 34.0007 53.5557 36.1811 51.9141 37.8192L40.5262 49.2072C40.4039 49.3294 40.2439 49.3904 40.0842 49.3904ZM34.3883 24.2501C32.4034 24.2501 30.5382 25.0227 29.1343 26.4278C26.2376 29.3245 26.2376 34.0388 29.1343 36.9356L40.084 47.8818L51.03 36.9356C52.4363 35.5319 53.2103 33.6667 53.2103 31.6817C53.2103 29.6969 52.4363 27.8316 51.03 26.4278C49.6274 25.0227 47.7635 24.2501 45.7784 24.2501C43.7938 24.2501 41.9285 25.0227 40.526 26.4278C40.2916 26.6623 39.8765 26.6623 39.6421 26.4278C38.2396 25.0227 36.373 24.2501 34.3883 24.2501Z" fill="url(#paint0_linear_13214_4759)"/>
<path d="M56.9131 3.75008C56.5679 3.75008 56.2822 3.4705 56.2822 3.12496C56.2822 2.77958 56.5557 2.5 56.8997 2.5H56.9131C57.2574 2.5 57.5382 2.77958 57.5382 3.12496C57.5382 3.47065 57.2574 3.75008 56.9131 3.75008Z" fill="url(#paint1_linear_13214_4759)"/>
<path d="M54.4125 3.75008C54.0669 3.75008 53.7812 3.4705 53.7812 3.12496C53.7812 2.77958 54.0547 2.5 54.399 2.5H54.4125C54.7567 2.5 55.0376 2.77958 55.0376 3.12496C55.0376 3.47065 54.7567 3.75008 54.4125 3.75008Z" fill="url(#paint2_linear_13214_4759)"/>
<path d="M56.8749 77.5H23.125C20.0231 77.5 17.5 74.9767 17.5 71.875V5.62498C17.5 2.52314 20.0233 0 23.125 0H56.8749C59.9767 0 62.5 2.5233 62.5 5.62498V71.875C62.5 74.9769 59.9766 77.5 56.8749 77.5ZM23.125 1.25008C20.7128 1.25008 18.7499 3.21296 18.7499 5.62498V71.875C18.7499 74.2872 20.7128 76.2499 23.125 76.2499H56.8749C59.2872 76.2499 61.2501 74.287 61.2501 71.875V5.62498C61.2501 3.2128 59.2871 1.25008 56.8749 1.25008H23.125Z" fill="url(#paint3_linear_13214_4759)"/>
<path d="M56.8749 80.0001H23.125C20.0231 80.0001 17.5 77.4768 17.5 74.3751C17.5 74.0295 17.7796 73.7501 18.125 73.7501C18.4705 73.7501 18.7501 74.0295 18.7501 74.3751C18.7501 76.7873 20.713 78.75 23.1251 78.75H56.875C59.2874 78.75 61.2503 76.7871 61.2503 74.3751C61.2503 74.0295 61.5295 73.7501 61.8751 73.7501C62.2206 73.7501 62.5002 74.0295 62.5002 74.3751C62.5 77.4769 59.9766 80.0001 56.8749 80.0001Z" fill="url(#paint4_linear_13214_4759)"/>
<path d="M61.8748 74.9998C61.5293 74.9998 61.25 74.7203 61.25 74.3749V71.8749C61.25 71.5293 61.5293 71.2498 61.8748 71.2498C62.2203 71.2498 62.4999 71.5293 62.4999 71.8749V74.3749C62.4999 74.7203 62.2203 74.9998 61.8748 74.9998Z" fill="url(#paint5_linear_13214_4759)"/>
<path d="M18.125 74.9998C17.7796 74.9998 17.5 74.7203 17.5 74.3749V71.8749C17.5 71.5293 17.7796 71.2498 18.125 71.2498C18.4705 71.2498 18.7501 71.5293 18.7501 71.8749V74.3749C18.7499 74.7203 18.4705 74.9998 18.125 74.9998Z" fill="url(#paint6_linear_13214_4759)"/>
<path d="M60.625 6.25005H19.375C19.0296 6.25005 18.75 5.97062 18.75 5.62509C18.75 5.27971 19.0296 5.00012 19.375 5.00012H60.6249C60.9704 5.00012 61.25 5.27971 61.25 5.62509C61.2501 5.97062 60.9706 6.25005 60.625 6.25005Z" fill="url(#paint7_linear_13214_4759)"/>
<path d="M60.625 66.2501H19.375C19.0296 66.2501 18.75 65.9705 18.75 65.6251C18.75 65.2796 19.0296 65 19.375 65H60.6249C60.9704 65 61.25 65.2796 61.25 65.6251C61.2501 65.9705 60.9706 66.2501 60.625 66.2501Z" fill="url(#paint8_linear_13214_4759)"/>
<path d="M40.0001 75C37.9322 75 36.25 73.3178 36.25 71.2499C36.25 69.1822 37.9322 67.5 40.0001 67.5C42.068 67.5 43.7502 69.1822 43.7502 71.2499C43.7502 73.3178 42.068 75 40.0001 75ZM40.0001 68.7501C38.6219 68.7501 37.5001 69.8719 37.5001 71.2499C37.5001 72.6282 38.6219 73.7501 40.0001 73.7501C41.3782 73.7501 42.4999 72.6282 42.4999 71.2499C42.4999 69.8719 41.3782 68.7501 40.0001 68.7501Z" fill="url(#paint9_linear_13214_4759)"/>
<path d="M44.3749 3.74984H35.625C35.2796 3.74984 35 3.47025 35 3.12472C35 2.77934 35.2796 2.49976 35.625 2.49976H44.3749C44.7205 2.49976 45 2.77934 45 3.12472C45 3.47041 44.7205 3.74984 44.3749 3.74984Z" fill="url(#paint10_linear_13214_4759)"/>
<path d="M62.5001 14.9998C62.1546 14.9998 61.875 14.7204 61.875 14.3749V11.8748C61.875 11.5295 62.1546 11.2499 62.5001 11.2499C62.8457 11.2499 63.1249 11.5295 63.1249 11.8748V14.3749C63.1249 14.7204 62.8457 14.9998 62.5001 14.9998Z" fill="url(#paint11_linear_13214_4759)"/>
<path d="M17.5 16.2501C17.1546 16.2501 16.875 15.9705 16.875 15.625V13.1251C16.875 12.7796 17.1546 12.5 17.5 12.5C17.8453 12.5 18.1249 12.7796 18.1249 13.1251V15.6251C18.1249 15.9705 17.8453 16.2501 17.5 16.2501Z" fill="url(#paint12_linear_13214_4759)"/>
<path d="M62.5001 26.25C62.1546 26.25 61.875 25.9704 61.875 25.625V18.125C61.875 17.7796 62.1546 17.4999 62.5001 17.4999C62.8457 17.4999 63.1249 17.7795 63.1249 18.125V25.625C63.1249 25.9704 62.8457 26.25 62.5001 26.25Z" fill="url(#paint13_linear_13214_4759)"/>
<defs>
<linearGradient id="paint0_linear_13214_4759" x1="20.7718" y1="29.0243" x2="87.2693" y2="7.51606" gradientUnits="userSpaceOnUse">
<stop stop-color="#46A29F"/>
<stop offset="1" stop-color="#4660A2"/>
</linearGradient>
<linearGradient id="paint1_linear_13214_4759" x1="56.0664" y1="2.78537" x2="59.0133" y2="1.90623" gradientUnits="userSpaceOnUse">
<stop stop-color="#46A29F"/>
<stop offset="1" stop-color="#4660A2"/>
</linearGradient>
<linearGradient id="paint2_linear_13214_4759" x1="53.5654" y1="2.78537" x2="56.5129" y2="1.90582" gradientUnits="userSpaceOnUse">
<stop stop-color="#46A29F"/>
<stop offset="1" stop-color="#4660A2"/>
</linearGradient>
<linearGradient id="paint3_linear_13214_4759" x1="9.76719" y1="17.6915" x2="121.426" y2="-1.55875" gradientUnits="userSpaceOnUse">
<stop stop-color="#46A29F"/>
<stop offset="1" stop-color="#4660A2"/>
</linearGradient>
<linearGradient id="paint4_linear_13214_4759" x1="9.76717" y1="75.1768" x2="30.4088" y2="31.049" gradientUnits="userSpaceOnUse">
<stop stop-color="#46A29F"/>
<stop offset="1" stop-color="#4660A2"/>
</linearGradient>
<linearGradient id="paint5_linear_13214_4759" x1="61.0352" y1="72.1058" x2="64.1979" y2="71.7928" gradientUnits="userSpaceOnUse">
<stop stop-color="#46A29F"/>
<stop offset="1" stop-color="#4660A2"/>
</linearGradient>
<linearGradient id="paint6_linear_13214_4759" x1="17.2852" y1="72.1058" x2="20.4482" y2="71.7928" gradientUnits="userSpaceOnUse">
<stop stop-color="#46A29F"/>
<stop offset="1" stop-color="#4660A2"/>
</linearGradient>
<linearGradient id="paint7_linear_13214_4759" x1="11.4468" y1="5.28545" x2="12.5019" y2="-5.36618" gradientUnits="userSpaceOnUse">
<stop stop-color="#46A29F"/>
<stop offset="1" stop-color="#4660A2"/>
</linearGradient>
<linearGradient id="paint8_linear_13214_4759" x1="11.4468" y1="65.2854" x2="12.5021" y2="54.6325" gradientUnits="userSpaceOnUse">
<stop stop-color="#46A29F"/>
<stop offset="1" stop-color="#4660A2"/>
</linearGradient>
<linearGradient id="paint9_linear_13214_4759" x1="34.9612" y1="69.2121" x2="52.572" y2="63.9831" gradientUnits="userSpaceOnUse">
<stop stop-color="#46A29F"/>
<stop offset="1" stop-color="#4660A2"/>
</linearGradient>
<linearGradient id="paint10_linear_13214_4759" x1="33.2816" y1="2.78512" x2="37.1288" y2="-6.35259" gradientUnits="userSpaceOnUse">
<stop stop-color="#46A29F"/>
<stop offset="1" stop-color="#4660A2"/>
</linearGradient>
<linearGradient id="paint11_linear_13214_4759" x1="61.6602" y1="12.1059" x2="64.8229" y2="11.7929" gradientUnits="userSpaceOnUse">
<stop stop-color="#46A29F"/>
<stop offset="1" stop-color="#4660A2"/>
</linearGradient>
<linearGradient id="paint12_linear_13214_4759" x1="16.6602" y1="13.3561" x2="19.8229" y2="13.0431" gradientUnits="userSpaceOnUse">
<stop stop-color="#46A29F"/>
<stop offset="1" stop-color="#4660A2"/>
</linearGradient>
<linearGradient id="paint13_linear_13214_4759" x1="61.6602" y1="19.4973" x2="64.8481" y2="19.3621" gradientUnits="userSpaceOnUse">
<stop stop-color="#46A29F"/>
<stop offset="1" stop-color="#4660A2"/>
</linearGradient>
</defs>
</svg>
