<svg width="80" height="80" viewBox="0 0 80 80" fill="none" xmlns="http://www.w3.org/2000/svg">
<path d="M51.8603 26.8884C51.7018 27.0154 50.0515 28.1251 40.6251 28.1251C31.0168 28.1251 28.3398 26.9739 28.1439 26.8835C22.8437 30.6178 19.3713 36.7725 19.3713 43.7476C19.3713 51.2477 23.3862 57.7919 29.3715 61.404V65.6251H50.6213V61.4065C56.6089 57.7969 60.6275 51.2502 60.6275 43.7476C60.6275 36.7748 57.1571 30.6214 51.8603 26.8884Z" fill="#DEEEEE"/>
<path d="M21.8714 43.7475C21.8714 37.0716 25.0574 31.1522 29.9781 27.3828C28.7402 27.1386 28.2253 26.9214 28.144 26.8835C22.8438 30.6178 19.3715 36.7725 19.3715 43.7476C19.3715 51.2477 23.3864 57.7919 29.3716 61.404C29.3713 61.4038 21.8714 54.6875 21.8714 43.7475Z" fill="#F0F4F4"/>
<path d="M51.853 26.8932C51.6615 27.041 49.9404 28.1249 40.6251 28.1249C31.192 28.1249 28.4352 27.0141 28.1525 26.887C24.3402 29.5775 21.471 33.5178 20.1672 38.1248H59.8317C58.5292 33.5216 55.6618 29.5837 51.853 26.8932Z" fill="#F0F4F4"/>
<path d="M30.0043 27.3865C28.7993 27.1521 28.2666 26.9385 28.1525 26.8872C24.3402 29.5777 21.471 33.518 20.1672 38.1251H22.6673C23.8947 33.7879 26.521 30.0549 30.0043 27.3865Z" fill="white"/>
<path d="M33.1251 33.125C33.1251 33.8134 32.5624 34.3749 31.8751 34.3749C31.175 34.3749 30.625 33.8134 30.625 33.125C30.625 32.4376 31.175 31.875 31.8751 31.875C32.5624 31.875 33.1251 32.4377 33.1251 33.125Z" fill="white"/>
<path d="M34.375 76.8752H45.6251C45.6251 76.8752 44.3751 79.3752 40.0001 79.3752C35.625 79.3752 34.375 76.8752 34.375 76.8752Z" fill="#5C9EFF"/>
<path d="M36.8749 76.8752H34.375C34.375 76.8752 35.625 79.3752 40.0001 79.3752C40.4517 79.3752 40.8631 79.3434 41.2501 79.2957C37.8882 78.8795 36.8749 76.8752 36.8749 76.8752Z" fill="#94C1FF"/>
<path d="M29.3749 65.625V69.3128V73.0628V74.375L31.8751 76.8751H34.375H45.6251H48.125L50.6249 74.375V71.9386V68.1884V65.625H29.3749Z" fill="#DEEEEE"/>
<path d="M31.8751 73.0628V69.3128V65.625H29.3749V69.3128V73.0628V74.375L31.8751 76.8751H34.375L31.8751 74.375V73.0628Z" fill="#F0F4F4"/>
<path d="M53.1249 13.125C53.8122 13.125 54.3751 13.6877 54.3751 14.3751C54.3751 15.0636 53.8122 15.6251 53.1249 15.6251C52.4255 15.6251 51.8749 15.0636 51.8749 14.3751C51.8749 13.6877 52.4256 13.125 53.1249 13.125Z" fill="white"/>
<path d="M41.8751 9.375C43.2497 9.375 44.375 10.5005 44.375 11.8751C44.375 13.2507 43.2497 14.3751 41.8751 14.3751C40.4877 14.3751 39.375 13.2509 39.375 11.8751C39.375 10.5005 40.4877 9.375 41.8751 9.375Z" fill="white"/>
<path d="M26.875 11.875C28.9374 11.875 30.625 13.551 30.625 15.625C30.625 17.7001 28.9374 19.3749 26.875 19.3749C24.7999 19.3749 23.125 17.7001 23.125 15.625C23.125 13.551 24.7999 11.875 26.875 11.875Z" fill="white"/>
<path d="M40.6251 28.1248C30.625 28.1248 28.1249 26.8747 28.1249 26.8747C28.1249 26.8747 29.3749 25.6248 39.375 25.6248C49.375 25.6248 51.8749 26.8747 51.8749 26.8747C51.8749 26.8747 50.6249 28.1248 40.6251 28.1248Z" fill="#117CFF"/>
<path d="M40.6251 26.875C35.3229 26.875 32.143 26.5235 30.3124 26.1938C28.4918 26.5235 28.1249 26.875 28.1249 26.875C28.1249 26.875 30.625 28.1251 40.6251 28.1251C50.6249 28.1251 51.8749 26.875 51.8749 26.875C51.8749 26.875 51.3087 26.5991 49.6877 26.3061C48.0737 26.599 45.3224 26.875 40.6251 26.875Z" fill="#DEEEEE"/>
<path d="M45.6251 29.9998C45.6251 31.035 44.7853 31.8748 43.75 31.8748C42.7151 31.8748 41.8752 31.035 41.8752 29.9998C41.8752 28.9646 42.7151 28.1248 43.75 28.1248C44.7853 28.1248 45.6251 28.9646 45.6251 29.9998Z" fill="white"/>
<path d="M33.7502 50.6256C35.4761 50.6256 36.8753 49.2264 36.8753 47.5005C36.8753 45.7746 35.4761 44.3755 33.7502 44.3755C32.0243 44.3755 30.6252 45.7746 30.6252 47.5005C30.6252 49.2264 32.0243 50.6256 33.7502 50.6256Z" fill="#F0F4F4"/>
<path d="M46.2498 50.6255C47.9756 50.6255 49.3747 49.2265 49.3747 47.5006C49.3747 45.7748 47.9756 44.3757 46.2498 44.3757C44.524 44.3757 43.1249 45.7748 43.1249 47.5006C43.1249 49.2265 44.524 50.6255 46.2498 50.6255Z" fill="#F0F4F4"/>
<path d="M43.125 58.1249L40 55.625L36.8749 58.1249V64.3505H43.125V58.1249Z" fill="#F0F4F4"/>
<path d="M46.9093 22.4999C46.5639 22.4999 46.2781 22.2203 46.2781 21.8749C46.2781 21.5293 46.5517 21.2498 46.8959 21.2498H46.9093C47.2535 21.2498 47.5344 21.5293 47.5344 21.8749C47.5344 22.2203 47.2535 22.4999 46.9093 22.4999Z" fill="url(#paint0_linear)"/>
<path d="M34.4087 4.99996C34.0637 4.99996 33.7776 4.72038 33.7776 4.37498C33.7776 4.02957 34.0511 3.75 34.3965 3.75H34.4087C34.7541 3.75 35.0336 4.02957 35.0336 4.37498C35.0336 4.72038 34.7541 4.99996 34.4087 4.99996Z" fill="url(#paint1_linear)"/>
<path d="M48.125 77.5H31.8751C31.7091 77.5 31.5504 77.434 31.4333 77.3169L28.9332 74.8169C28.8159 74.6997 28.7501 74.5409 28.7501 74.375V65.625C28.7501 65.2796 29.0297 65 29.3751 65C29.7206 65 30.0002 65.2796 30.0002 65.625V74.1162L32.1339 76.2499H47.8664L50.0001 74.1162V65.625C50.0001 65.2796 50.2795 65 50.6249 65C50.9707 65 51.2501 65.2796 51.2501 65.625V74.375C51.2501 74.541 51.1841 74.6997 51.0668 74.8169L48.5669 77.3169C48.4496 77.434 48.2911 77.5 48.125 77.5Z" fill="url(#paint2_linear)"/>
<path d="M28.1243 70C27.7936 70 27.5176 69.74 27.5006 69.4054C27.4836 69.0612 27.7491 68.7683 28.0938 68.7511L29.3439 68.6889L51.8433 67.5012C52.2233 67.4547 52.4806 67.7489 52.4989 68.093C52.5172 68.4373 52.2512 68.7316 51.9068 68.7486L28.1562 69.9986C28.1457 70 28.1348 70 28.1243 70Z" fill="url(#paint3_linear)"/>
<path d="M28.1243 73.7502C27.7936 73.7502 27.5176 73.4903 27.5006 73.1557C27.4836 72.8114 27.7491 72.5185 28.0938 72.5013L29.3439 72.4391L51.8433 71.2514C52.2233 71.2013 52.4806 71.4992 52.4989 71.8433C52.5172 72.1877 52.2512 72.4818 51.9068 72.4988L28.1562 73.7488C28.1457 73.7502 28.1348 73.7502 28.1243 73.7502Z" fill="url(#paint4_linear)"/>
<path d="M50.6249 66.25H29.3749C29.0295 66.25 28.7499 65.9704 28.7499 65.625V61.7492C22.4811 57.8296 18.75 51.1279 18.75 43.75C18.75 43.4046 19.0295 43.125 19.3749 43.125C19.7204 43.125 19.9999 43.4046 19.9999 43.75C19.9999 50.8033 23.6255 57.2022 29.6978 60.8655C29.8851 60.9779 29.9999 61.1817 29.9999 61.4002V65H50V61.4002C50 61.1818 50.1147 60.9779 50.3027 60.8655C56.3745 57.2022 59.9999 50.8033 59.9999 43.75C59.9999 43.4046 60.2797 43.125 60.6251 43.125C60.9705 43.125 61.2499 43.4046 61.2499 43.75C61.2499 51.1281 57.5196 57.8296 51.2501 61.7492V65.625C51.2501 65.9704 50.9707 66.25 50.6249 66.25Z" fill="url(#paint5_linear)"/>
<path d="M40 80C35.2929 80 33.8738 77.2706 33.8159 77.1546C33.6614 76.8457 33.7867 76.4711 34.0955 76.316C34.4032 76.161 34.7761 76.2855 34.9317 76.5907C34.9811 76.6847 36.1152 78.7502 40.0002 78.7502C43.8904 78.7502 45.022 76.6786 45.0685 76.5907C45.2284 76.2878 45.602 76.1659 45.9083 76.3221C46.2137 76.4785 46.338 76.8482 46.1844 77.1546C46.1256 77.2706 44.7071 80 40 80Z" fill="url(#paint6_linear)"/>
<path d="M19.3749 44.375C19.0295 44.375 18.75 44.0954 18.75 43.7498C18.75 41.5575 19.0838 39.3908 19.7418 37.3119C21.134 32.9077 23.9837 29.0196 27.7655 26.3635C28.0474 26.1645 28.4388 26.2328 28.6364 26.5161C28.8348 26.7982 28.7663 27.1875 28.4844 27.3864C24.9249 29.8863 22.2436 33.5449 20.9332 37.688C20.3144 39.646 19.9999 41.6857 19.9999 43.75C19.9999 44.0954 19.7205 44.375 19.3749 44.375Z" fill="url(#paint7_linear)"/>
<path d="M60.6251 44.375C60.2797 44.375 59.9999 44.0954 59.9999 43.7498C59.9999 41.2645 59.552 38.8426 58.6673 36.5502C57.2389 32.8367 54.7671 29.6677 51.5162 27.3864C51.233 27.1886 51.1647 26.798 51.3638 26.5161C51.5637 26.2328 51.9543 26.1645 52.2341 26.3635C55.6884 28.7877 58.3165 32.1556 59.834 36.1009C60.7741 38.5363 61.2499 41.1095 61.2499 43.7498C61.2499 44.0954 60.9705 44.375 60.6251 44.375Z" fill="url(#paint8_linear)"/>
<path d="M40.6251 28.7499C30.5926 28.7499 27.9529 27.4877 27.8455 27.4339C27.5367 27.2788 27.4116 26.904 27.566 26.5952C27.719 26.2889 28.089 26.1643 28.399 26.3133C28.4546 26.3389 31.0791 27.4998 40.6251 27.4998C49.8389 27.4998 51.4122 26.4401 51.4746 26.3951C51.7213 26.151 52.0936 26.1704 52.3377 26.4146C52.582 26.6587 52.5613 27.0726 52.3169 27.3167C52.0777 27.5561 50.3895 28.7499 40.6251 28.7499Z" fill="url(#paint9_linear)"/>
<path d="M28.1109 27.5281C27.9505 27.5281 27.7886 27.4622 27.6617 27.3353C27.4182 27.091 27.439 26.6773 27.6831 26.4331C27.9223 26.1938 29.6105 25 39.375 25C49.4067 25 52.0472 26.2622 52.1546 26.3159C52.4634 26.4709 52.5879 26.8457 52.434 27.1545C52.2789 27.4621 51.9054 27.5842 51.6016 27.4366C51.5454 27.4109 48.9207 26.25 39.375 26.25C30.1619 26.25 28.5876 27.3095 28.5248 27.3547C28.4077 27.4719 28.2599 27.5281 28.1109 27.5281Z" fill="url(#paint10_linear)"/>
<path d="M54.9976 39.0015C54.4481 39.0015 53.9015 38.8953 53.4743 38.6853C52.9616 38.4241 52.0386 38.4278 51.5332 38.6817C50.6701 39.1089 49.3298 39.1066 48.4742 38.6853C47.9605 38.4241 47.0375 38.4278 46.5334 38.6817C45.6703 39.1089 44.33 39.1066 43.4744 38.6853C42.9604 38.4241 42.0376 38.4278 41.5336 38.6817C40.6705 39.1078 39.3295 39.1066 38.4744 38.6853C37.9623 38.4253 37.0401 38.4266 36.5335 38.6817C35.6693 39.1078 34.3294 39.1066 33.4744 38.6853C32.9617 38.4253 32.0407 38.4266 31.5335 38.6817C30.6704 39.1078 29.3296 39.1066 28.4744 38.6853C27.9617 38.4253 27.0401 38.4266 26.5335 38.6817C25.6693 39.1078 24.3294 39.1066 23.4744 38.6853C22.7854 38.3363 22.2268 38.0616 22.2251 38.0616C21.915 37.909 21.7875 37.5355 21.9394 37.2254C22.0908 36.9153 22.4662 36.7896 22.7757 36.9385C22.7757 36.9385 23.3422 37.2168 24.0336 37.5683C24.5366 37.8136 25.4655 37.8149 25.9745 37.5647C26.8271 37.1325 28.1731 37.1302 29.0336 37.5683C29.5358 37.8136 30.466 37.8149 30.9745 37.5647C31.8271 37.1325 33.1742 37.1302 34.0336 37.5683C34.5364 37.8136 35.4655 37.8149 35.9745 37.5647C36.8271 37.1325 38.1735 37.1302 39.0335 37.5683C39.5365 37.8136 40.4636 37.8149 40.9746 37.5647C41.8254 37.1314 43.1732 37.1302 44.0337 37.5683C44.5342 37.8125 45.4617 37.8149 45.9744 37.5647C46.8252 37.1314 48.1741 37.1302 49.0335 37.5683C49.534 37.8125 50.4619 37.8149 50.9746 37.5647C51.8253 37.1314 53.1729 37.1302 54.0333 37.5683C54.5338 37.8125 55.4617 37.8149 55.9744 37.5647C56.6591 37.2168 57.2256 36.9385 57.2256 36.9385C57.5319 36.7884 57.9091 36.9141 58.0618 37.2254C58.2133 37.5355 58.085 37.909 57.7751 38.0616C57.7738 38.0616 57.2147 38.3363 56.5337 38.6817C56.1014 38.8953 55.5483 39.0015 54.9976 39.0015Z" fill="url(#paint11_linear)"/>
<path d="M36.8749 63.7501C36.5295 63.7501 36.25 63.4705 36.25 63.1251V58.125C36.25 57.7796 36.5295 57.5 36.8749 57.5C37.2205 57.5 37.5001 57.7796 37.5001 58.125V63.1251C37.5001 63.4705 37.2205 63.7501 36.8749 63.7501Z" fill="url(#paint12_linear)"/>
<path d="M43.125 63.7501C42.7796 63.7501 42.4999 63.4705 42.4999 63.1251V58.125C42.4999 57.7796 42.7796 57.5 43.125 57.5C43.4705 57.5 43.7499 57.7796 43.7499 58.125V63.1251C43.7499 63.4705 43.4705 63.7501 43.125 63.7501Z" fill="url(#paint13_linear)"/>
<path d="M36.8756 58.75C36.6919 58.75 36.5106 58.6695 36.3868 58.5157C36.1713 58.2459 36.2153 57.8528 36.4845 57.6368L39.6096 55.1368C39.8799 54.9232 40.2732 54.9659 40.4885 55.2345C40.7035 55.5044 40.6608 55.8973 40.3908 56.1133L37.2659 58.6133C37.1503 58.7048 37.0124 58.75 36.8756 58.75Z" fill="url(#paint14_linear)"/>
<path d="M43.1251 58.75C42.987 58.75 42.8502 58.7048 42.7345 58.6133L39.6094 56.1133C39.3403 55.8973 39.2964 55.5042 39.5117 55.2345C39.7278 54.9659 40.1209 54.9232 40.3906 55.1368L43.5157 57.6368C43.7854 57.8528 43.8281 58.246 43.6134 58.5157C43.49 58.6695 43.308 58.75 43.1251 58.75Z" fill="url(#paint15_linear)"/>
<path d="M43.125 56.25C42.7796 56.25 42.4999 55.9704 42.4999 55.625V47.5C42.4999 47.1544 42.7796 46.875 43.125 46.875C43.4705 46.875 43.7499 47.1544 43.7499 47.5V55.625C43.7499 55.9704 43.4705 56.25 43.125 56.25Z" fill="url(#paint16_linear)"/>
<path d="M36.8749 56.25C36.5295 56.25 36.25 55.9704 36.25 55.625V47.5C36.25 47.1544 36.5295 46.875 36.8749 46.875C37.2205 46.875 37.5001 47.1544 37.5001 47.5V55.625C37.5001 55.9704 37.2205 56.25 36.8749 56.25Z" fill="url(#paint17_linear)"/>
<path d="M36.8749 48.125C36.5295 48.125 36.25 47.8454 36.25 47.5C36.25 46.1219 35.1288 45 33.7501 45C32.3713 45 31.25 46.1219 31.25 47.5C31.25 47.8454 30.9704 48.125 30.625 48.125C30.2796 48.125 30 47.8454 30 47.5C30 45.432 31.6822 43.75 33.7501 43.75C35.8179 43.75 37.5001 45.4321 37.5001 47.5C37.5001 47.8454 37.2205 48.125 36.8749 48.125Z" fill="url(#paint18_linear)"/>
<path d="M33.7501 51.2498C31.6822 51.2498 30 49.5677 30 47.5C30 47.1544 30.2796 46.875 30.625 46.875C30.9704 46.875 31.25 47.1544 31.25 47.5C31.25 48.878 32.3711 49.9999 33.7501 49.9999C34.0955 49.9999 34.375 50.2795 34.375 50.6249C34.375 50.9704 34.0955 51.2498 33.7501 51.2498Z" fill="url(#paint19_linear)"/>
<path d="M49.375 48.125C49.0296 48.125 48.7502 47.8454 48.7502 47.5C48.7502 46.1219 47.6281 45 46.2502 45C44.8721 45 43.75 46.1219 43.75 47.5C43.75 47.8454 43.4706 48.125 43.1252 48.125C42.7798 48.125 42.5001 47.8454 42.5001 47.5C42.5001 45.432 44.1822 43.75 46.2502 43.75C48.3181 43.75 50.0001 45.4321 50.0001 47.5C50.0001 47.8454 49.7204 48.125 49.375 48.125Z" fill="url(#paint20_linear)"/>
<path d="M46.2503 51.2498C45.9045 51.2498 45.6251 50.9704 45.6251 50.6249C45.6251 50.2795 45.9045 49.9999 46.2503 49.9999C47.6281 49.9999 48.7502 48.878 48.7502 47.5C48.7502 47.1544 49.0296 46.875 49.375 46.875C49.7204 46.875 50.0001 47.1544 50.0001 47.5C50.0001 49.5677 48.318 51.2498 46.2503 51.2498Z" fill="url(#paint21_linear)"/>
<path d="M40.6252 51.25H39.375C39.0296 51.25 38.7501 50.9705 38.7501 50.625C38.7501 50.2796 39.0296 50 39.375 50H40.6252C40.9706 50 41.25 50.2796 41.25 50.625C41.25 50.9705 40.9706 51.25 40.6252 51.25Z" fill="url(#paint22_linear)"/>
<path d="M26.875 20C24.4628 20 22.5 18.037 22.5 15.625C22.5 13.2128 24.4628 11.25 26.875 11.25C29.2872 11.25 31.25 13.213 31.25 15.625C31.25 18.0372 29.2872 20 26.875 20ZM26.875 12.5C25.1519 12.5 23.7501 13.9013 23.7501 15.625C23.7501 17.3487 25.1521 18.7499 26.875 18.7499C28.598 18.7499 30.0001 17.3486 30.0001 15.625C30.0001 13.9014 28.5981 12.5 26.875 12.5Z" fill="url(#paint23_linear)"/>
<path d="M31.8751 34.9999C30.8411 34.9999 30 34.1588 30 33.1249C30 32.0911 30.8411 31.25 31.8751 31.25C32.909 31.25 33.7501 32.0911 33.7501 33.1249C33.7501 34.1588 32.909 34.9999 31.8751 34.9999ZM31.8751 32.5C31.5247 32.5 31.25 32.7747 31.25 33.1249C31.25 33.4753 31.5246 33.7499 31.8751 33.7499C32.2199 33.7499 32.5001 33.4692 32.5001 33.1249C32.5001 32.7808 32.2199 32.5 31.8751 32.5Z" fill="url(#paint24_linear)"/>
<path d="M53.1248 16.25C52.0911 16.25 51.2501 15.409 51.2501 14.3751C51.2501 13.3411 52.0911 12.5 53.1248 12.5C54.1589 12.5 54.9999 13.3411 54.9999 14.3751C55.0001 15.409 54.159 16.25 53.1248 16.25ZM53.1248 13.7501C52.7746 13.7501 52.5 14.0247 52.5 14.3751C52.5 14.7253 52.7746 15.0001 53.1248 15.0001C53.4693 15.0001 53.75 14.7192 53.75 14.3751C53.7501 14.0308 53.4695 13.7501 53.1248 13.7501Z" fill="url(#paint25_linear)"/>
<path d="M43.7499 32.5C42.372 32.5 41.25 31.3781 41.25 30.0001C41.25 29.6546 41.5297 29.375 41.8751 29.375C42.2205 29.375 42.4999 29.6546 42.4999 30.0001C42.4999 30.6898 43.0603 31.2501 43.7499 31.2501C44.4397 31.2501 44.9998 30.6898 44.9998 30.0001C44.9998 29.6546 45.2796 29.375 45.625 29.375C45.9704 29.375 46.2501 29.6546 46.2501 30.0001C46.2503 31.3781 45.1282 32.5 43.7499 32.5Z" fill="url(#paint26_linear)"/>
<path d="M41.8751 14.9998C40.152 14.9998 38.7501 13.5984 38.7501 11.8748C38.7501 10.1512 40.152 8.74976 41.8751 8.74976C43.5987 8.74976 44.9998 10.1511 44.9998 11.8748C45 13.5984 43.5988 14.9998 41.8751 14.9998ZM41.8751 9.99987C40.8411 9.99987 40 10.8409 40 11.875C40 12.9088 40.8409 13.75 41.8751 13.75C42.9088 13.75 43.7499 12.909 43.7499 11.875C43.7499 10.8409 42.909 9.99987 41.8751 9.99987Z" fill="url(#paint27_linear)"/>
<path d="M50.6249 6.24994C50.2795 6.24994 50.0001 5.97036 50.0001 5.62496V0.624978C50.0001 0.279575 50.2795 0 50.6249 0C50.9707 0 51.2501 0.279575 51.2501 0.624978V5.62511C51.2501 5.97036 50.9707 6.24994 50.6249 6.24994Z" fill="url(#paint28_linear)"/>
<path d="M51.8749 3.75011H49.375C49.0296 3.75011 48.7502 3.47054 48.7502 3.12498C48.7502 2.77958 49.0296 2.5 49.375 2.5H51.8749C52.2206 2.5 52.5 2.77958 52.5 3.12498C52.5 3.47054 52.2206 3.75011 51.8749 3.75011Z" fill="url(#paint29_linear)"/>
<path d="M36.8749 22.5C36.5295 22.5 36.25 22.2204 36.25 21.875V19.375C36.25 19.0296 36.5295 18.75 36.8749 18.75C37.2205 18.75 37.5001 19.0296 37.5001 19.375V21.875C37.5001 22.2204 37.2205 22.5 36.8749 22.5Z" fill="url(#paint30_linear)"/>
<path d="M38.1251 21.2499H35.625C35.2796 21.2499 35 20.9704 35 20.625C35 20.2796 35.2796 20 35.625 20H38.1251C38.4705 20 38.7501 20.2796 38.7501 20.625C38.7501 20.9704 38.4705 21.2499 38.1251 21.2499Z" fill="url(#paint31_linear)"/>
<path d="M23.125 7.49987C22.7796 7.49987 22.5 7.22029 22.5 6.87489V4.37498C22.5 4.02957 22.7796 3.75 23.125 3.75C23.4704 3.75 23.7501 4.02957 23.7501 4.37498V6.87505C23.7501 7.2203 23.4705 7.49987 23.125 7.49987Z" fill="url(#paint32_linear)"/>
<path d="M24.3751 6.24987H21.875C21.5296 6.24987 21.2499 5.97029 21.2499 5.62489C21.2499 5.27933 21.5295 4.99976 21.875 4.99976H24.3751C24.7205 4.99976 25.0001 5.27933 25.0001 5.62489C25.0001 5.97029 24.7205 6.24987 24.3751 6.24987Z" fill="url(#paint33_linear)"/>
<defs>
<linearGradient id="paint0_linear" x1="46.0622" y1="21.5351" x2="49.0098" y2="20.6556" gradientUnits="userSpaceOnUse">
<stop stop-color="#46A29F"/>
<stop offset="1" stop-color="#4660A2"/>
</linearGradient>
<linearGradient id="paint1_linear" x1="33.5617" y1="4.03534" x2="36.5087" y2="3.15607" gradientUnits="userSpaceOnUse">
<stop stop-color="#46A29F"/>
<stop offset="1" stop-color="#4660A2"/>
</linearGradient>
<linearGradient id="paint2_linear" x1="24.8837" y1="67.8535" x2="69.6003" y2="43.955" gradientUnits="userSpaceOnUse">
<stop stop-color="#46A29F"/>
<stop offset="1" stop-color="#4660A2"/>
</linearGradient>
<linearGradient id="paint3_linear" x1="23.2038" y1="68.0679" x2="29.7286" y2="48.7235" gradientUnits="userSpaceOnUse">
<stop stop-color="#46A29F"/>
<stop offset="1" stop-color="#4660A2"/>
</linearGradient>
<linearGradient id="paint4_linear" x1="23.2038" y1="71.8175" x2="29.7316" y2="52.4692" gradientUnits="userSpaceOnUse">
<stop stop-color="#46A29F"/>
<stop offset="1" stop-color="#4660A2"/>
</linearGradient>
<linearGradient id="paint5_linear" x1="11.4468" y1="48.4039" x2="95.1214" y2="2.74439" gradientUnits="userSpaceOnUse">
<stop stop-color="#46A29F"/>
<stop offset="1" stop-color="#4660A2"/>
</linearGradient>
<linearGradient id="paint6_linear" x1="31.6016" y1="77.1055" x2="47.7392" y2="61.1365" gradientUnits="userSpaceOnUse">
<stop stop-color="#46A29F"/>
<stop offset="1" stop-color="#4660A2"/>
</linearGradient>
<linearGradient id="paint7_linear" x1="17.0316" y1="30.3871" x2="41.9145" y2="26.3111" gradientUnits="userSpaceOnUse">
<stop stop-color="#46A29F"/>
<stop offset="1" stop-color="#4660A2"/>
</linearGradient>
<linearGradient id="paint8_linear" x1="49.5313" y1="30.3871" x2="74.4146" y2="26.3109" gradientUnits="userSpaceOnUse">
<stop stop-color="#46A29F"/>
<stop offset="1" stop-color="#4660A2"/>
</linearGradient>
<linearGradient id="paint9_linear" x1="23.202" y1="26.7986" x2="29.8406" y2="7.30068" gradientUnits="userSpaceOnUse">
<stop stop-color="#46A29F"/>
<stop offset="1" stop-color="#4660A2"/>
</linearGradient>
<linearGradient id="paint10_linear" x1="23.1913" y1="25.5771" x2="29.8282" y2="6.08155" gradientUnits="userSpaceOnUse">
<stop stop-color="#46A29F"/>
<stop offset="1" stop-color="#4660A2"/>
</linearGradient>
<linearGradient id="paint11_linear" x1="15.6462" y1="37.3607" x2="19.1256" y2="19.7491" gradientUnits="userSpaceOnUse">
<stop stop-color="#46A29F"/>
<stop offset="1" stop-color="#4660A2"/>
</linearGradient>
<linearGradient id="paint12_linear" x1="36.0352" y1="58.9268" x2="39.218" y2="58.7377" gradientUnits="userSpaceOnUse">
<stop stop-color="#46A29F"/>
<stop offset="1" stop-color="#4660A2"/>
</linearGradient>
<linearGradient id="paint13_linear" x1="42.2851" y1="58.9268" x2="45.4676" y2="58.7378" gradientUnits="userSpaceOnUse">
<stop stop-color="#46A29F"/>
<stop offset="1" stop-color="#4660A2"/>
</linearGradient>
<linearGradient id="paint14_linear" x1="35.4982" y1="55.8568" x2="45.4789" y2="52.3983" gradientUnits="userSpaceOnUse">
<stop stop-color="#46A29F"/>
<stop offset="1" stop-color="#4660A2"/>
</linearGradient>
<linearGradient id="paint15_linear" x1="38.6232" y1="55.8568" x2="48.6034" y2="52.3988" gradientUnits="userSpaceOnUse">
<stop stop-color="#46A29F"/>
<stop offset="1" stop-color="#4660A2"/>
</linearGradient>
<linearGradient id="paint16_linear" x1="42.2851" y1="49.0151" x2="45.4739" y2="48.8889" gradientUnits="userSpaceOnUse">
<stop stop-color="#46A29F"/>
<stop offset="1" stop-color="#4660A2"/>
</linearGradient>
<linearGradient id="paint17_linear" x1="36.0352" y1="49.0151" x2="39.2243" y2="48.8888" gradientUnits="userSpaceOnUse">
<stop stop-color="#46A29F"/>
<stop offset="1" stop-color="#4660A2"/>
</linearGradient>
<linearGradient id="paint18_linear" x1="28.7112" y1="44.7487" x2="43.9312" y2="37.0018" gradientUnits="userSpaceOnUse">
<stop stop-color="#46A29F"/>
<stop offset="1" stop-color="#4660A2"/>
</linearGradient>
<linearGradient id="paint19_linear" x1="29.2482" y1="47.8737" x2="39.521" y2="44.8235" gradientUnits="userSpaceOnUse">
<stop stop-color="#46A29F"/>
<stop offset="1" stop-color="#4660A2"/>
</linearGradient>
<linearGradient id="paint20_linear" x1="41.2113" y1="44.7487" x2="56.4312" y2="37.0018" gradientUnits="userSpaceOnUse">
<stop stop-color="#46A29F"/>
<stop offset="1" stop-color="#4660A2"/>
</linearGradient>
<linearGradient id="paint21_linear" x1="44.8733" y1="47.8737" x2="55.1461" y2="44.8235" gradientUnits="userSpaceOnUse">
<stop stop-color="#46A29F"/>
<stop offset="1" stop-color="#4660A2"/>
</linearGradient>
<linearGradient id="paint22_linear" x1="38.3205" y1="50.2853" x2="43.0427" y2="47.4811" gradientUnits="userSpaceOnUse">
<stop stop-color="#46A29F"/>
<stop offset="1" stop-color="#4660A2"/>
</linearGradient>
<linearGradient id="paint23_linear" x1="20.9964" y1="13.2474" x2="41.542" y2="7.14716" gradientUnits="userSpaceOnUse">
<stop stop-color="#46A29F"/>
<stop offset="1" stop-color="#4660A2"/>
</linearGradient>
<linearGradient id="paint24_linear" x1="29.3556" y1="32.106" x2="38.1609" y2="29.4915" gradientUnits="userSpaceOnUse">
<stop stop-color="#46A29F"/>
<stop offset="1" stop-color="#4660A2"/>
</linearGradient>
<linearGradient id="paint25_linear" x1="50.6057" y1="13.356" x2="59.4107" y2="10.7418" gradientUnits="userSpaceOnUse">
<stop stop-color="#46A29F"/>
<stop offset="1" stop-color="#4660A2"/>
</linearGradient>
<linearGradient id="paint26_linear" x1="40.3907" y1="30.0884" x2="50.814" y2="25.1366" gradientUnits="userSpaceOnUse">
<stop stop-color="#46A29F"/>
<stop offset="1" stop-color="#4660A2"/>
</linearGradient>
<linearGradient id="paint27_linear" x1="37.6761" y1="10.1765" x2="52.3511" y2="5.81951" gradientUnits="userSpaceOnUse">
<stop stop-color="#46A29F"/>
<stop offset="1" stop-color="#4660A2"/>
</linearGradient>
<linearGradient id="paint28_linear" x1="49.7853" y1="1.42672" x2="52.9678" y2="1.23774" gradientUnits="userSpaceOnUse">
<stop stop-color="#46A29F"/>
<stop offset="1" stop-color="#4660A2"/>
</linearGradient>
<linearGradient id="paint29_linear" x1="48.1058" y1="2.78537" x2="53.4488" y2="-1.97325" gradientUnits="userSpaceOnUse">
<stop stop-color="#46A29F"/>
<stop offset="1" stop-color="#4660A2"/>
</linearGradient>
<linearGradient id="paint30_linear" x1="36.0352" y1="19.606" x2="39.1983" y2="19.293" gradientUnits="userSpaceOnUse">
<stop stop-color="#46A29F"/>
<stop offset="1" stop-color="#4660A2"/>
</linearGradient>
<linearGradient id="paint31_linear" x1="34.3556" y1="20.2853" x2="39.698" y2="15.5264" gradientUnits="userSpaceOnUse">
<stop stop-color="#46A29F"/>
<stop offset="1" stop-color="#4660A2"/>
</linearGradient>
<linearGradient id="paint32_linear" x1="22.2852" y1="4.60601" x2="25.4483" y2="4.29291" gradientUnits="userSpaceOnUse">
<stop stop-color="#46A29F"/>
<stop offset="1" stop-color="#4660A2"/>
</linearGradient>
<linearGradient id="paint33_linear" x1="20.6054" y1="5.28513" x2="25.9485" y2="0.526059" gradientUnits="userSpaceOnUse">
<stop stop-color="#46A29F"/>
<stop offset="1" stop-color="#4660A2"/>
</linearGradient>
</defs>
</svg>
