<svg width="80" height="80" viewBox="0 0 80 80" fill="none" xmlns="http://www.w3.org/2000/svg">
<g clip-path="url(#clip0)">
<path d="M43.6252 7.12547C44.6237 8.12527 44.6237 9.7506 43.6252 10.7504L39.9998 14.3752L36.3748 10.7502C35.3744 9.7506 35.3744 8.12511 36.3748 7.12532C37.3746 6.12489 38.9994 6.12489 39.9998 7.12532C40.9994 6.12505 42.6243 6.12505 43.6252 7.12547Z" fill="#DEEEEE"/>
<path d="M64.3751 8.12504V20.625H43.262H36.75H15.6252V8.12504C15.6252 3.97521 18.9878 0.625 23.1252 0.625H56.8753C61.0256 0.625 64.3751 3.97536 64.3751 8.12504ZM43.6256 10.7502C44.6242 9.75052 44.6242 8.12504 43.6256 7.12524C42.6247 6.12482 40.9998 6.12482 40.0002 7.12524C38.9998 6.12482 37.3751 6.12482 36.3753 7.12524C35.3749 8.12504 35.3749 9.75037 36.3753 10.7502L40.0002 14.3751L43.6256 10.7502Z" fill="white"/>
<path d="M61.7384 28.1379C57.0119 26.9251 52.5246 25.1502 48.3999 23.125L43.262 20.625H64.3751V28.75C63.4878 28.5627 62.6126 28.3626 61.7384 28.1379Z" fill="#DEEEEE"/>
<path d="M18.2625 28.1379C17.3879 28.3626 16.5126 28.5626 15.6252 28.75V20.625H36.7502L31.6129 23.125C27.4752 25.1503 22.9879 26.9252 18.2625 28.1379Z" fill="#DEEEEE"/>
<path d="M18.1252 21.875H15.6251V28.75C16.4662 28.5723 17.2962 28.3801 18.1252 28.1696V21.875Z" fill="#F0F4F4"/>
<path d="M61.8874 21.875H64.3874V28.75C63.5476 28.5723 62.7175 28.3801 61.8874 28.1696V21.875Z" fill="#DEEEEE"/>
<path d="M29.3752 50.6629V57.2877L28.125 53.125L23.1251 58.125L23.725 59.0869L23.7 59.1126L21.8751 60.0378C19.8127 60.9618 17.5623 61.6625 15.6251 62.2753V28.75C16.5125 28.5627 17.3878 28.3625 18.2624 28.1379V30.6252C19.125 38.6127 23.9625 46.0255 29.3752 50.6629Z" fill="#DEEEEE"/>
<path d="M64.3747 62.2755C65.3001 62.5758 66.1619 62.8505 66.8748 63.1251C71.8747 64.988 74.3747 66.8752 74.3747 71.8751C74.3747 76.8752 74.3747 79.3752 74.3747 79.3752H47.3997L48.0369 78.1252L51.875 70.6251L50.6249 68.1252L56.2499 59.1128L58.1249 60.038C60.1878 60.9621 62.4363 61.6628 64.3747 62.2755Z" fill="white"/>
<path d="M64.375 28.7499V62.2753C62.4366 61.6626 60.1881 60.9619 58.1251 60.0379L56.25 59.1126L56.8751 58.125L51.8752 53.1251L50.625 57.2878V50.663C56.0499 46.0254 60.8876 38.6127 61.7383 30.625V28.1377C62.6124 28.3624 63.4877 28.5626 64.375 28.7499Z" fill="#DEEEEE"/>
<path d="M36.8747 30.663V29.3752C36.8747 28.6879 36.3119 28.125 35.6247 28.125H26.8747C26.1869 28.125 25.6247 28.6878 25.6247 29.3752V31.8751C25.6247 32.563 26.1869 33.1251 26.8747 33.1251H35.6247C36.3119 33.1251 36.8747 32.563 36.8747 31.8751V30.663ZM43.1247 30.663V31.8751C43.1247 32.563 43.6862 33.1251 44.3747 33.1251H53.1246C53.8118 33.1251 54.3747 32.563 54.3747 31.8751V29.3752C54.3747 28.6879 53.8118 28.125 53.1246 28.125H44.3747C43.6862 28.125 43.1247 28.6878 43.1247 29.3752V30.663ZM61.7378 28.1379V30.6252C60.8871 38.6127 56.0494 46.0256 50.6246 50.6631C47.0114 53.75 43.1369 55.6251 39.9997 55.6251C36.8618 55.6251 32.9874 53.75 29.3746 50.663C23.962 46.0254 19.1244 38.6127 18.2618 30.625V28.1379C22.9872 26.9251 27.4746 25.1502 31.6122 23.125L36.7495 20.625H43.2615L48.3994 23.125C52.524 25.1503 57.0114 26.9252 61.7378 28.1379Z" fill="#F0F4F4"/>
<path d="M20.762 30.625V29.375V28.1379V27.4158C19.9337 27.6666 19.1062 27.9211 18.2618 28.1379V30.6252C19.1244 38.6128 23.962 46.0256 29.3746 50.6632C32.9874 53.7502 36.8618 55.6253 39.9997 55.6253C40.4044 55.6253 40.8224 55.591 41.2497 55.5301C38.3658 55.1186 35.021 53.3524 31.8747 50.6632C26.4621 46.0255 21.6244 38.6126 20.762 30.625Z" fill="white"/>
<path d="M59.2381 30.625V29.375V28.1379V27.4158C60.0658 27.6666 60.8934 27.9211 61.738 28.1379V30.6252C60.8751 38.6128 56.0374 46.0256 50.6248 50.6632C47.0116 53.7499 43.1371 55.6249 39.9999 55.6249C39.5951 55.6249 39.1771 55.5907 38.7499 55.5298C41.6332 55.1183 44.9778 53.352 48.1248 50.6628C53.5374 46.0255 58.3751 38.6126 59.2381 30.625Z" fill="#DEEEEE"/>
<path d="M56.875 58.1249L56.2499 59.1127L50.6249 68.1249L51.8751 70.625L48.0372 78.1251L47.3999 79.3751H44.0125L48.9258 62.9626L50 59.3749L50.6249 57.2876L51.8751 53.125L56.875 58.1249Z" fill="white"/>
<path d="M50.6249 57.2878L50 59.375C50 59.375 46.875 61.8752 40 61.8752C33.1251 61.8752 30.025 59.375 30.025 59.375L30 59.3872L29.375 57.2876V50.6628C32.9877 53.7499 36.8622 55.6249 40 55.6249C43.1372 55.6249 47.0117 53.7499 50.6249 50.6628V57.2878Z" fill="#F0F4F4"/>
<path d="M50 59.375L48.9258 62.9627C47.1375 63.7 43.6999 64.3751 40 64.3751C36.3001 64.3751 32.8625 63.7 31.0876 62.9627H31.0748L30 59.3872L30.025 59.375C30.025 59.375 33.125 61.8751 40 61.8751C46.875 61.8751 50 59.375 50 59.375Z" fill="#DEEEEE"/>
<path d="M48.9259 62.9629L44.0125 79.3752H35.9999L31.0749 62.9629H31.0877C32.8626 63.7002 36.3001 64.3752 40.0001 64.3752C43.7 64.3752 47.1376 63.7002 48.9259 62.9629Z" fill="#DEEEEE"/>
<path d="M31.0749 62.9626L35.9998 79.3751H32.6124L31.9751 78.1251L28.125 70.625L29.375 68.1249L23.725 59.0871L23.1251 58.1249L28.125 53.125L29.375 57.2876L30.0001 59.3871L31.0749 62.9626Z" fill="white"/>
<path d="M31.975 78.125L32.6122 79.375H5.62491C5.62491 79.375 5.62491 76.875 5.62491 71.875C5.62491 66.875 8.12487 64.9878 13.1249 63.1249C13.85 62.8504 14.6997 62.5757 15.6249 62.2877V62.2755C17.5622 61.6628 19.8126 60.962 21.875 60.038L23.6999 59.1128L23.7249 59.0872L29.3749 68.1252L28.1247 70.6251L31.975 78.125Z" fill="white"/>
<path d="M36.8879 31.8751C36.8879 32.5624 36.3251 33.1251 35.6379 33.1251H26.8879C26.2008 33.1251 25.6379 32.5624 25.6379 31.8751V29.3751C25.6379 28.6879 26.2008 28.125 26.8879 28.125H35.6379C36.3251 28.125 36.8879 28.6877 36.8879 29.3751V30.6623V31.8751Z" fill="#DEEEEE"/>
<path d="M28.6297 33.1251H31.2183L32.5579 28.125H29.97L28.6297 33.1251Z" fill="#F0F4F4"/>
<path d="M31.8877 33.1251H32.5565L33.8962 28.125H33.2274L31.8877 33.1251Z" fill="#F0F4F4"/>
<path d="M54.3874 31.8751C54.3874 32.5624 53.8258 33.1251 53.1372 33.1251H44.3874C43.7012 33.1251 43.1374 32.5624 43.1374 31.8751V29.3751C43.1374 28.6879 43.7012 28.125 44.3874 28.125H53.1372C53.8258 28.125 54.3874 28.6877 54.3874 29.3751V30.6623V31.8751Z" fill="#DEEEEE"/>
<path d="M46.1302 33.1251H48.7181L50.0584 28.125H47.4705L46.1302 33.1251Z" fill="#F0F4F4"/>
<path d="M49.3872 33.1251H50.0563L51.3966 28.125H50.7275L49.3872 33.1251Z" fill="#F0F4F4"/>
<path d="M30.025 59.3749C30.025 59.3749 30.6281 59.8596 31.8879 60.4027V52.5768C31.0448 52.0042 30.2027 51.3695 29.375 50.6628V57.2876L30 59.3872L30.025 59.3749Z" fill="white"/>
<path d="M48.1313 60.4003C49.3947 59.8584 50.0002 59.3749 50.0002 59.3749L50.6251 57.2876V50.6628C49.8036 51.3646 48.9676 51.9944 48.1313 52.5634V60.4003Z" fill="#DEEEEE"/>
<path d="M64.3758 20.6245H15.6252V21.8745H64.3758V20.6245Z" fill="#DEEEEE"/>
<path d="M45.8313 21.875L43.2619 20.625H36.7499L34.181 21.875H45.8313Z" fill="#DEEEEE"/>
<path d="M35.6251 33.7501H26.8751C25.8412 33.7501 25 32.909 25 31.875V29.3751C25 28.341 25.841 27.5 26.8751 27.5H35.6251C36.6589 27.5 37.5001 28.341 37.5001 29.3751V31.875C37.5001 32.909 36.6589 33.7501 35.6251 33.7501ZM26.8751 28.7501C26.5302 28.7501 26.2501 29.0303 26.2501 29.3752V31.8752C26.2501 32.22 26.5302 32.5002 26.8751 32.5002H35.6251C35.97 32.5002 36.2501 32.2202 36.2501 31.8752V29.3752C36.2501 29.0303 35.9701 28.7501 35.6251 28.7501H26.8751Z" fill="url(#paint0_linear)"/>
<path d="M53.1247 33.7501H44.3748C43.341 33.7501 42.4998 32.909 42.4998 31.875V29.3751C42.4998 28.341 43.341 27.5 44.3748 27.5H53.1247C54.1587 27.5 54.9998 28.341 54.9998 29.3751V31.875C54.9998 32.909 54.1587 33.7501 53.1247 33.7501ZM44.3748 28.7501C44.0306 28.7501 43.7498 29.0303 43.7498 29.3752V31.8752C43.7498 32.22 44.0306 32.5002 44.3748 32.5002H53.1247C53.469 32.5002 53.7498 32.2202 53.7498 31.8752V29.3752C53.7498 29.0303 53.469 28.7501 53.1247 28.7501H44.3748Z" fill="url(#paint1_linear)"/>
<path d="M43.1248 31.2878H36.8735C36.528 31.2878 36.2484 31.0083 36.2484 30.6629C36.2484 30.3174 36.528 30.0378 36.8735 30.0378H43.1248C43.4703 30.0378 43.7497 30.3174 43.7497 30.6629C43.7497 31.0083 43.4703 31.2878 43.1248 31.2878Z" fill="url(#paint2_linear)"/>
<path d="M31.9683 78.7502C31.7412 78.7502 31.5222 78.6257 31.4117 78.4108L27.5689 70.9108C27.478 70.7325 27.4767 70.5237 27.5658 70.3457L28.6589 68.1594L22.5949 58.4572C22.4405 58.2094 22.4771 57.8883 22.6828 57.6832L27.6828 52.6833C27.9269 52.4392 28.3224 52.4392 28.5665 52.6833C28.8106 52.9274 28.8106 53.3231 28.5665 53.5672L23.918 58.2155L29.9045 67.7931C30.0198 67.9787 30.0309 68.2106 29.9339 68.4047L28.8255 70.6215L32.5235 77.8395C32.681 78.1472 32.5595 78.5232 32.2525 78.6819C32.1611 78.7282 32.0641 78.7502 31.9683 78.7502Z" fill="url(#paint3_linear)"/>
<path d="M35.625 78.7503C35.3557 78.7503 35.1074 78.5757 35.0262 78.3046L27.5263 53.3047C27.4274 52.9739 27.6147 52.6258 27.9455 52.5269C28.2764 52.4268 28.6248 52.6148 28.7237 52.9457L36.2238 77.9456C36.3227 78.2764 36.1353 78.6245 35.8045 78.7234C35.7447 78.7417 35.6842 78.7503 35.625 78.7503Z" fill="url(#paint4_linear)"/>
<path d="M48.0318 78.7501C47.9354 78.7501 47.839 78.7281 47.7462 78.6817C47.4397 78.5229 47.3191 78.1469 47.4752 77.8392L51.174 70.6213L50.0656 68.4045C49.968 68.2104 49.9802 67.9783 50.095 67.7928L56.0813 58.2152L51.433 53.5669C51.1889 53.3228 51.1889 52.9272 51.433 52.6831C51.6771 52.439 52.0726 52.439 52.3167 52.6831L57.3167 57.683C57.5218 57.888 57.5583 58.2091 57.4046 58.457L51.34 68.1591L52.4337 70.3455C52.5228 70.5236 52.5215 70.7324 52.4312 70.9105L48.5884 78.4106C48.4775 78.6256 48.259 78.7501 48.0318 78.7501Z" fill="url(#paint5_linear)"/>
<path d="M44.3749 78.7502C44.3163 78.7502 44.2552 78.7416 44.1955 78.7233C43.8647 78.6244 43.6767 78.2766 43.7767 77.9456L51.2767 52.9457C51.3744 52.6148 51.7224 52.4269 52.0543 52.5269C52.3851 52.6258 52.5731 52.9736 52.4731 53.3046L44.9731 78.3045C44.8924 78.5755 44.6433 78.7502 44.3749 78.7502Z" fill="url(#paint6_linear)"/>
<path d="M39.9999 62.4999C32.9863 62.4999 29.7441 59.9706 29.6092 59.8632C29.3407 59.6483 29.2973 59.2564 29.5109 58.9869C29.7251 58.717 30.1189 58.6743 30.3887 58.8856C30.4185 58.9087 33.4666 61.2501 39.9999 61.2501C46.5331 61.2501 49.5811 58.9089 49.6117 58.8856C49.8816 58.672 50.2732 58.7184 50.488 58.9869C50.7029 59.2566 50.659 59.6483 50.3904 59.8632C50.2561 59.9707 47.0141 62.4999 39.9999 62.4999Z" fill="url(#paint7_linear)"/>
<path d="M40.0001 64.9999C36.1195 64.9999 32.6081 64.27 30.8497 63.5473C30.5305 63.4154 30.3786 63.0492 30.5099 62.7306C30.6416 62.412 31.0066 62.2606 31.3259 62.39C32.9701 63.0663 36.2905 63.7498 40.0003 63.7498C43.721 63.7498 47.0437 63.0675 48.6869 62.3923C49.0091 62.2629 49.3729 62.4118 49.5035 62.7317C49.6342 63.0516 49.4827 63.4165 49.1629 63.5471C47.4061 64.2702 43.8917 64.9999 40.0001 64.9999Z" fill="url(#paint8_linear)"/>
<path d="M39.9999 56.2513C31.4373 56.2513 19.0564 43.8574 17.639 30.6921C17.6019 30.3484 17.8503 30.0401 18.1932 30.0036C18.5496 29.9731 18.8456 30.2153 18.8817 30.5578C19.5183 36.4697 22.5443 42.7148 27.1856 47.6928C31.389 52.1996 36.2994 55.0011 39.9999 55.0011C40.3455 55.0011 40.625 55.2807 40.625 55.6262C40.625 55.9717 40.3455 56.2513 39.9999 56.2513Z" fill="url(#paint9_linear)"/>
<path d="M74.3749 80.0001H5.62493C5.27942 80.0001 4.99986 79.7207 4.99986 79.3752V71.8752C4.99986 66.5114 7.77876 64.4557 12.9057 62.5393C13.7102 62.2389 14.6783 61.9314 15.7317 61.597C17.5903 61.0061 19.6965 60.3372 21.6211 59.4754C21.9361 59.3338 22.3058 59.4754 22.4469 59.7904C22.5879 60.1054 22.4469 60.4752 22.1313 60.6155C20.1421 61.5067 18.0003 62.1878 16.1108 62.7884C15.0788 63.1154 14.1307 63.4158 13.3434 63.7111C8.53744 65.508 6.24984 67.1878 6.24984 71.8752V78.7503H73.7499V71.8752C73.7499 67.1878 71.4623 65.508 66.6552 63.7111C65.8692 63.4156 64.9217 63.1154 63.8904 62.7884C62.0006 62.1877 59.8584 61.5067 57.8699 60.6155C57.5537 60.4739 57.4134 60.1053 57.5537 59.7904C57.6953 59.4754 58.0641 59.3338 58.3802 59.4754C60.3053 60.3372 62.411 61.0061 64.2699 61.597C65.3222 61.9316 66.2903 62.2389 67.0934 62.5393C72.2216 64.4559 75 66.5114 75 71.8752V79.3752C75 79.7207 74.7205 80.0001 74.3749 80.0001Z" fill="url(#paint10_linear)"/>
<path d="M15.6248 60C15.2794 60 14.9998 59.7205 14.9998 59.375V23.1251C14.9998 22.7797 15.2794 22.5 15.6248 22.5C15.9703 22.5 16.2498 22.7796 16.2498 23.1251V59.3751C16.2498 59.7205 15.9703 60 15.6248 60Z" fill="url(#paint11_linear)"/>
<path d="M15.6242 29.3753C15.3337 29.3753 15.0738 29.172 15.0127 28.8766C14.9432 28.5385 15.1604 28.2076 15.4984 28.1381C20.623 27.0809 25.9483 25.2054 31.3273 22.5643C31.6386 22.4137 32.0115 22.5406 32.1635 22.85C32.3154 23.1594 32.1879 23.5343 31.8778 23.6863C26.4048 26.3743 20.9787 28.284 15.7511 29.3626C15.7084 29.3709 15.6662 29.3753 15.6242 29.3753Z" fill="url(#paint12_linear)"/>
<path d="M39.9999 56.2514C39.6544 56.2514 39.3748 55.9718 39.3748 55.6263C39.3748 55.2808 39.6544 55.0013 39.9999 55.0013C43.7011 55.0013 48.6108 52.1997 52.8149 47.693C57.456 42.7149 60.4809 36.4699 61.1181 30.558C61.1547 30.215 61.4452 29.9665 61.8065 30.0037C62.1495 30.0403 62.3973 30.3486 62.3607 30.6922C60.9434 43.8575 48.5619 56.2514 39.9999 56.2514Z" fill="url(#paint13_linear)"/>
<path d="M64.3748 60C64.0294 60 63.7499 59.7205 63.7499 59.375V23.1251C63.7499 22.7797 64.0294 22.5 64.3748 22.5C64.7203 22.5 64.9999 22.7796 64.9999 23.1251V59.3751C64.9999 59.7205 64.7203 60 64.3748 60Z" fill="url(#paint14_linear)"/>
<path d="M64.375 29.3752C64.3335 29.3752 64.292 29.3709 64.2481 29.3623C59.0199 28.2832 53.5938 26.374 48.1228 23.6861C47.8127 23.534 47.6844 23.1593 47.8371 22.8497C47.9885 22.5397 48.362 22.4109 48.6722 22.5641C54.0506 25.2052 59.3753 27.0807 64.5022 28.1378C64.8391 28.2074 65.0565 28.5382 64.9881 28.8763C64.927 29.1718 64.6657 29.3752 64.375 29.3752Z" fill="url(#paint15_linear)"/>
<path d="M15.6248 21.2501C15.2794 21.2501 14.9998 20.9705 14.9998 20.625V8.12507C14.9998 7.77956 15.2794 7.5 15.6248 7.5C15.9703 7.5 16.2498 7.77956 16.2498 8.12507V20.625C16.2498 20.9707 15.9703 21.2501 15.6248 21.2501Z" fill="url(#paint16_linear)"/>
<path d="M56.875 1.24998H22.8638C22.5183 1.24998 22.2387 0.970419 22.2387 0.624912C22.2387 0.279562 22.5183 0 22.8638 0H56.875C57.2206 0 57.5001 0.279562 57.5001 0.624912C57.5001 0.970419 57.2206 1.24998 56.875 1.24998Z" fill="url(#paint17_linear)"/>
<path d="M64.3748 21.2501C64.0294 21.2501 63.7499 20.9705 63.7499 20.625V8.12507C63.7499 7.77956 64.0294 7.5 64.3748 7.5C64.7203 7.5 64.9999 7.77956 64.9999 8.12507V20.625C64.9999 20.9707 64.7203 21.2501 64.3748 21.2501Z" fill="url(#paint18_linear)"/>
<path d="M64.3746 21.2501H15.6248C15.2794 21.2501 14.9998 20.9706 14.9998 20.6251C14.9998 20.2796 15.2794 20 15.6248 20H64.3748C64.7203 20 64.9998 20.2796 64.9998 20.6251C64.9998 20.9706 64.7201 21.2501 64.3746 21.2501Z" fill="url(#paint19_linear)"/>
<path d="M15.6248 8.75002C15.2794 8.75002 14.9998 8.47046 14.9998 8.12495C14.9998 3.64493 18.6448 0 23.1248 0C23.4703 0 23.7499 0.279562 23.7499 0.624912C23.7499 0.970419 23.4703 1.24998 23.1248 1.24998C19.3339 1.24998 16.2498 4.33407 16.2498 8.12495C16.2498 8.47046 15.9703 8.75002 15.6248 8.75002Z" fill="url(#paint20_linear)"/>
<path d="M64.3759 8.75002C64.0305 8.75002 63.751 8.47046 63.751 8.12495C63.751 4.33407 60.6663 1.24998 56.876 1.24998C56.5305 1.24998 56.2509 0.970419 56.2509 0.624912C56.2509 0.279562 56.5305 0 56.876 0C61.356 0 65.001 3.64493 65.001 8.12495C65.001 8.47046 64.7214 8.75002 64.3759 8.75002Z" fill="url(#paint21_linear)"/>
<path d="M40.0004 15C39.8349 15 39.6756 14.934 39.5584 14.8168L35.9337 11.1927C34.691 9.94879 34.691 7.92608 35.9337 6.68344C37.0005 5.6166 38.7858 5.47003 40.0004 6.31356C41.2131 5.47128 43.0002 5.61598 44.067 6.68344C44.6676 7.28585 44.9996 8.08609 44.9996 8.93806C44.9996 9.79018 44.6676 10.5903 44.0658 11.1928L40.4423 14.817C40.3251 14.934 40.1663 15 40.0004 15ZM38.1881 6.99941C37.6699 6.99941 37.1835 7.20084 36.8174 7.56697C36.0618 8.32268 36.0624 9.5525 36.818 10.3087L40.0004 13.4911L43.1821 10.3087C43.5482 9.94254 43.7497 9.45609 43.7497 8.9379C43.7497 8.41988 43.5482 7.93326 43.1821 7.56713C42.4508 6.83471 41.1745 6.83471 40.4423 7.56713C40.2085 7.80091 39.7935 7.80216 39.5584 7.56713C39.1923 7.20084 38.7058 6.99941 38.1881 6.99941Z" fill="url(#paint22_linear)"/>
</g>
<defs>
<linearGradient id="paint0_linear" x1="22.852" y1="28.9267" x2="46.4642" y2="14.9052" gradientUnits="userSpaceOnUse">
<stop stop-color="#46A29F"/>
<stop offset="1" stop-color="#4660A2"/>
</linearGradient>
<linearGradient id="paint1_linear" x1="40.3518" y1="28.9267" x2="63.9639" y2="14.9054" gradientUnits="userSpaceOnUse">
<stop stop-color="#46A29F"/>
<stop offset="1" stop-color="#4660A2"/>
</linearGradient>
<linearGradient id="paint2_linear" x1="34.9594" y1="30.3232" x2="39.5502" y2="22.1431" gradientUnits="userSpaceOnUse">
<stop stop-color="#46A29F"/>
<stop offset="1" stop-color="#4660A2"/>
</linearGradient>
<linearGradient id="paint3_linear" x1="20.7655" y1="58.4925" x2="46.2211" y2="55.5866" gradientUnits="userSpaceOnUse">
<stop stop-color="#46A29F"/>
<stop offset="1" stop-color="#4660A2"/>
</linearGradient>
<linearGradient id="paint4_linear" x1="25.9962" y1="58.4923" x2="48.1371" y2="56.301" gradientUnits="userSpaceOnUse">
<stop stop-color="#46A29F"/>
<stop offset="1" stop-color="#4660A2"/>
</linearGradient>
<linearGradient id="paint5_linear" x1="45.6727" y1="58.4923" x2="71.1274" y2="55.5866" gradientUnits="userSpaceOnUse">
<stop stop-color="#46A29F"/>
<stop offset="1" stop-color="#4660A2"/>
</linearGradient>
<linearGradient id="paint6_linear" x1="42.2462" y1="58.4923" x2="64.3865" y2="56.3011" gradientUnits="userSpaceOnUse">
<stop stop-color="#46A29F"/>
<stop offset="1" stop-color="#4660A2"/>
</linearGradient>
<linearGradient id="paint7_linear" x1="25.7239" y1="59.607" x2="39.89" y2="35.7651" gradientUnits="userSpaceOnUse">
<stop stop-color="#46A29F"/>
<stop offset="1" stop-color="#4660A2"/>
</linearGradient>
<linearGradient id="paint8_linear" x1="27.1826" y1="62.9501" x2="35.966" y2="44.2092" gradientUnits="userSpaceOnUse">
<stop stop-color="#46A29F"/>
<stop offset="1" stop-color="#4660A2"/>
</linearGradient>
<linearGradient id="paint9_linear" x1="13.6848" y1="35.9933" x2="68.7046" y2="21.6864" gradientUnits="userSpaceOnUse">
<stop stop-color="#46A29F"/>
<stop offset="1" stop-color="#4660A2"/>
</linearGradient>
<linearGradient id="paint10_linear" x1="-7.02896" y1="64.1183" x2="81.5151" y2="-25.3048" gradientUnits="userSpaceOnUse">
<stop stop-color="#46A29F"/>
<stop offset="1" stop-color="#4660A2"/>
</linearGradient>
<linearGradient id="paint11_linear" x1="14.7851" y1="31.0604" x2="17.9785" y2="31.0288" gradientUnits="userSpaceOnUse">
<stop stop-color="#46A29F"/>
<stop offset="1" stop-color="#4660A2"/>
</linearGradient>
<linearGradient id="paint12_linear" x1="12.0394" y1="24.0702" x2="40.3707" y2="2.98883" gradientUnits="userSpaceOnUse">
<stop stop-color="#46A29F"/>
<stop offset="1" stop-color="#4660A2"/>
</linearGradient>
<linearGradient id="paint13_linear" x1="35.4243" y1="35.9926" x2="90.4441" y2="21.6863" gradientUnits="userSpaceOnUse">
<stop stop-color="#46A29F"/>
<stop offset="1" stop-color="#4660A2"/>
</linearGradient>
<linearGradient id="paint14_linear" x1="63.5351" y1="31.0604" x2="66.7286" y2="31.0288" gradientUnits="userSpaceOnUse">
<stop stop-color="#46A29F"/>
<stop offset="1" stop-color="#4660A2"/>
</linearGradient>
<linearGradient id="paint15_linear" x1="44.8123" y1="24.0691" x2="73.1477" y2="2.98861" gradientUnits="userSpaceOnUse">
<stop stop-color="#46A29F"/>
<stop offset="1" stop-color="#4660A2"/>
</linearGradient>
<linearGradient id="paint16_linear" x1="14.7851" y1="10.6388" x2="17.9765" y2="10.5527" gradientUnits="userSpaceOnUse">
<stop stop-color="#46A29F"/>
<stop offset="1" stop-color="#4660A2"/>
</linearGradient>
<linearGradient id="paint17_linear" x1="16.1794" y1="0.285343" x2="17.4456" y2="-10.3201" gradientUnits="userSpaceOnUse">
<stop stop-color="#46A29F"/>
<stop offset="1" stop-color="#4660A2"/>
</linearGradient>
<linearGradient id="paint18_linear" x1="63.5351" y1="10.6388" x2="66.7266" y2="10.5527" gradientUnits="userSpaceOnUse">
<stop stop-color="#46A29F"/>
<stop offset="1" stop-color="#4660A2"/>
</linearGradient>
<linearGradient id="paint19_linear" x1="6.40785" y1="20.2854" x2="7.30738" y2="9.60319" gradientUnits="userSpaceOnUse">
<stop stop-color="#46A29F"/>
<stop offset="1" stop-color="#4660A2"/>
</linearGradient>
<linearGradient id="paint20_linear" x1="13.4962" y1="1.99743" x2="34.0419" y2="-4.10286" gradientUnits="userSpaceOnUse">
<stop stop-color="#46A29F"/>
<stop offset="1" stop-color="#4660A2"/>
</linearGradient>
<linearGradient id="paint21_linear" x1="54.7473" y1="1.99743" x2="75.293" y2="-4.10285" gradientUnits="userSpaceOnUse">
<stop stop-color="#46A29F"/>
<stop offset="1" stop-color="#4660A2"/>
</linearGradient>
<linearGradient id="paint22_linear" x1="33.2836" y1="7.87626" x2="56.4348" y2="0.431179" gradientUnits="userSpaceOnUse">
<stop stop-color="#46A29F"/>
<stop offset="1" stop-color="#4660A2"/>
</linearGradient>
<clipPath id="clip0">
<rect width="80" height="80" fill="white"/>
</clipPath>
</defs>
</svg>
