<svg width="80" height="80" viewBox="0 0 80 80" fill="none" xmlns="http://www.w3.org/2000/svg">
<path d="M64.3456 13.0977C58.1333 13.0977 53.0974 18.1334 53.0974 24.3453V41.2176H75.5939V24.3453C75.5941 18.1334 70.5581 13.0977 64.3456 13.0977Z" fill="#DEEEEE"/>
<path d="M76.2054 38.7559C75.7184 38.5693 73.8316 37.0949 73.0944 36.8435H64.3457H64.3322H55.5834C54.8463 37.0949 52.9594 38.5693 52.4724 38.7559C50.3597 39.5432 49.3099 40.3304 49.3099 42.4432C49.3099 44.5426 49.3099 45.5922 49.3099 45.5922H79.3677C79.3677 45.5922 79.3677 44.5426 79.3677 42.4432C79.3677 40.3304 78.3182 39.5432 76.2054 38.7559Z" fill="#DEEEEE"/>
<path d="M54.9721 38.7559C55.4588 38.5693 57.3459 37.0949 58.0832 36.8435H55.5834C54.8463 37.0949 52.9594 38.5693 52.4724 38.7559C50.3597 39.5432 49.3099 40.3304 49.3099 42.4432C49.3099 44.5426 49.3099 45.5922 49.3099 45.5922H51.8097C51.8097 45.5922 51.8097 44.5426 51.8097 42.4432C51.8099 40.3304 52.8593 39.5432 54.9721 38.7559Z" fill="#DEEEEE"/>
<path d="M69.3572 34.2344H59.3586V38.7186H69.3572V34.2344Z" fill="#F0F4F4"/>
<path d="M73.0941 36.8436L69.3254 34.2341L65.6199 45.5922L70.5947 40.593L69.345 39.3432L73.0941 36.8436Z" fill="white"/>
<path d="M55.5896 36.8436L59.3586 34.2341L63.0642 45.5922L58.0894 40.593L59.3391 39.3432L55.5896 36.8436Z" fill="white"/>
<path d="M64.3456 39.3429V45.5918H65.6199L68.095 38.1052L64.3456 39.3429Z" fill="#DEEEEE"/>
<path d="M63.0642 45.5918H64.3384V39.3429L60.5888 38.1052L63.0642 45.5918Z" fill="#DEEEEE"/>
<path d="M69.9819 19.5693C69.9037 19.5345 66.5462 19.446 64.3456 19.3911C62.1451 19.446 58.7872 19.5345 58.7091 19.5693C58.5921 19.6212 55.6102 24.7955 55.6102 24.7955V26.1198C55.6102 31.7 61.0196 36.8286 64.3456 36.842C67.6713 36.8286 73.0807 31.7 73.0807 26.1198V24.7955C73.0807 24.7957 70.0991 19.6212 69.9819 19.5693Z" fill="#F0F4F4"/>
<path d="M58.1102 26.1201V24.7958C58.1102 24.7958 61.0917 19.6215 61.209 19.5696C61.2737 19.5408 63.5607 19.4761 65.5955 19.4231C65.1598 19.4121 64.7338 19.4012 64.3458 19.3914C62.1453 19.4462 58.7874 19.5347 58.7092 19.5696C58.5923 19.6215 55.6104 24.7958 55.6104 24.7958V26.1201C55.6104 31.7002 61.0198 36.8288 64.3458 36.8423C64.7376 36.8404 65.1586 36.7629 65.5955 36.6269C62.3196 35.6101 58.1102 31.0436 58.1102 26.1201Z" fill="white"/>
<path d="M53.2584 26.171C56.6625 25.2179 64.4724 22.2702 66.8453 20.9081C70.4703 18.8484 72.6635 16.9072 72.7209 16.856C70.662 14.554 67.6776 13.0974 64.3458 13.0974C58.1335 13.0974 53.0975 18.1332 53.0975 24.3451C53.0974 24.969 53.161 25.5754 53.2584 26.171Z" fill="#DEEEEE"/>
<path d="M54.3471 24.3453C54.3471 18.3525 59.0389 13.468 64.9472 13.1306C64.746 13.1197 64.5493 13.0977 64.3456 13.0977C58.1333 13.0977 53.0974 18.1334 53.0974 24.3453C53.0974 24.9689 53.1608 25.5755 53.2582 26.1711C53.6125 26.0723 54.0225 25.9471 54.4606 25.8086C54.3948 25.3289 54.3471 24.8438 54.3471 24.3453Z" fill="#F0F4F4"/>
<path d="M75.5941 24.3454C75.5941 21.3295 74.4002 18.5961 72.4659 16.5779L66.8453 20.9205C66.8453 20.9205 69.6366 24.0059 75.5245 25.5754C75.5685 25.1705 75.5941 24.7616 75.5941 24.3454Z" fill="#DEEEEE"/>
<path d="M30.6484 45.5982H0.653015V44.3484C0.653015 44.3484 0.653015 43.5112 0.653015 41.4364C0.653015 39.3487 1.70263 38.5612 3.77748 37.7863C4.8002 37.3988 6.63836 36.7115 8.15166 35.9866L9.61399 34.5366L13.1754 38.0987L15.675 36.8611L18.1746 38.0987L21.7238 34.5494L23.1494 35.9738C24.6727 36.7115 26.4985 37.3988 27.5237 37.7863C29.6109 38.5612 30.6482 39.3485 30.6482 41.4364C30.6482 43.511 30.6482 44.3484 30.6482 44.3484V45.5982H30.6484Z" fill="#F0F4F4"/>
<path d="M3.15259 41.4363C3.15259 39.3486 4.2022 38.5612 6.27705 37.7862C7.29978 37.3987 9.13793 36.7114 10.6512 35.9865L10.8587 35.7814L9.61381 34.5364L8.15147 35.9864C6.63802 36.7113 4.80002 37.3985 3.77729 37.7861C1.70245 38.561 0.652832 39.3483 0.652832 41.4361C0.652832 43.5108 0.652832 44.3481 0.652832 44.3481V45.598H3.15243V44.3481C3.15259 44.3483 3.15259 43.5111 3.15259 41.4363Z" fill="white"/>
<path d="M28.1732 41.4363C28.1732 39.3486 27.1236 38.5612 25.0487 37.7862C24.026 37.3987 22.1878 36.7114 20.6744 35.9865L20.4669 35.7814L21.7118 34.5364L23.174 35.9864C24.6874 36.7113 26.5256 37.3985 27.5483 37.7861C29.6232 38.561 30.6728 39.3483 30.6728 41.4361C30.6728 43.5108 30.6728 44.3481 30.6728 44.3481V45.598H28.1732V44.3481C28.1732 44.3483 28.1732 43.5111 28.1732 41.4363Z" fill="#DEEEEE"/>
<path d="M16.9517 45.5983H14.4521L15.077 38.812H16.3269L16.9517 45.5983Z" fill="#DEEEEE"/>
<path d="M16.7721 37.1123H14.546V38.8112H16.7721V37.1123Z" fill="#DEEEEE"/>
<path d="M13.2023 38.1922L9.45294 34.4427L10.7027 33.1929L15.7214 35.8633V36.9423L13.2023 38.1922Z" fill="white"/>
<path d="M18.2015 38.1922L21.951 34.4427L20.7012 33.1929L15.6825 35.8633V36.9423L18.2015 38.1922Z" fill="white"/>
<path d="M8.16399 13.1957C8.16399 13.1957 25.6613 6.94663 24.4495 23.1942L21.8118 19.4448C16.3622 19.1201 10.2632 21.5568 6.92647 23.1442C5.36424 23.8943 4.41467 24.444 4.41467 24.444C4.41467 16.6327 9.51392 14.4456 9.51392 14.4456L8.16399 13.1957Z" fill="#DEEEEE"/>
<path d="M10.8589 14.7389L9.41387 13.196C9.41387 13.196 12.3138 12.1611 15.6703 12.0293C11.8183 11.8963 8.16399 13.196 8.16399 13.196L9.51392 14.4459C9.51392 14.4459 4.41467 16.633 4.41467 24.4443C4.41467 24.4443 4.88461 24.1734 5.69253 23.7577C5.9866 16.5172 10.8589 14.7389 10.8589 14.7389Z" fill="#F0F4F4"/>
<path d="M24.4494 23.1944V24.4563C24.4494 30.393 19.0377 35.8675 15.7008 35.8675C12.376 35.8675 6.95209 30.3929 6.95209 24.4563V23.1944L6.92645 23.1444C10.2634 21.5571 16.3622 19.1204 21.8118 19.4449L24.4494 23.1944Z" fill="#F0F4F4"/>
<path d="M9.45169 24.4563V23.1944L9.42605 23.1444C12.2649 21.7938 17.1043 19.8436 21.841 19.4876L21.8118 19.4449C16.3622 19.1202 10.2632 21.557 6.92645 23.1444L6.95209 23.1944V24.4563C6.95209 30.3931 12.376 35.8675 15.7008 35.8675C16.0925 35.8675 16.5148 35.7857 16.9517 35.6429C13.6747 34.569 9.45169 29.6955 9.45169 24.4563Z" fill="white"/>
<path d="M30.2579 43.793C28.5832 40.9554 27.4836 37.6811 27.4836 34.3192V33.0939L31.2965 27.6462C30.0918 27.2019 29.3585 26.845 29.3585 26.845L24.9841 33.094V34.3194C24.9841 37.6813 26.0839 40.9554 27.7584 43.7931C30.9452 49.2171 36.2446 53.0911 39.9819 53.0911C40.381 53.0911 40.7995 53.0374 41.2293 52.9518C37.631 52.2352 33.104 48.6358 30.2579 43.793Z" fill="white"/>
<path d="M64.3763 42.475C64.0306 42.475 63.7452 42.1955 63.7452 41.8501C63.7452 41.5046 64.0184 41.2251 64.3628 41.2251H64.3763C64.7204 41.2251 65.001 41.5046 65.001 41.8501C65.001 42.1955 64.7204 42.475 64.3763 42.475Z" fill="url(#paint0_linear)"/>
<path d="M64.3396 37.4682C62.2816 37.4682 59.5782 35.7638 57.6096 33.2275C57.3983 32.9547 57.4484 32.5623 57.7205 32.3506C57.9928 32.139 58.3858 32.1877 58.5979 32.4612C60.3131 34.6733 62.6745 36.2186 64.3396 36.2186C67.3957 36.2186 72.4634 31.3273 72.4634 26.1206C72.4634 25.7751 72.7428 25.4956 73.0881 25.4956C73.4334 25.4956 73.7131 25.7751 73.7131 26.1206C73.7131 32.1644 67.8705 37.4682 64.3396 37.4682Z" fill="url(#paint1_linear)"/>
<path d="M79.375 46.2171H54.3544C54.0091 46.2171 53.7294 45.9375 53.7294 45.5922C53.7294 45.2467 54.0091 44.9673 54.3544 44.9673H78.7503V42.4432C78.7503 40.8144 78.1582 40.1473 75.9943 39.3419C75.6621 39.2137 75.2495 39.077 74.7894 38.9243L74.1122 38.6981C73.7864 38.5869 73.6105 38.2319 73.7217 37.9053C73.8341 37.5777 74.1879 37.4055 74.5149 37.5142L75.1839 37.7382C75.6644 37.898 76.0953 38.0413 76.4373 38.1727C78.6917 39.013 80 39.9821 80 42.4432V45.5922C80 45.9374 79.7203 46.2171 79.375 46.2171Z" fill="url(#paint2_linear)"/>
<path d="M15.6226 46.2171H0.624861C0.279522 46.2171 0 45.9376 0 45.5922V41.4304C0 39.0033 1.29365 38.0397 3.52842 37.1963C4.50237 36.84 6.35147 36.138 7.85399 35.418C8.16149 35.2704 8.53872 35.3991 8.68755 35.7109C8.83638 36.0222 8.70459 36.3957 8.39333 36.5445C6.84455 37.2872 4.95402 38.0056 3.96412 38.368C1.83425 39.1718 1.24972 39.8306 1.24972 41.4304V44.9674H15.6226C15.968 44.9674 16.2475 45.2467 16.2475 45.5922C16.2475 45.9374 15.968 46.2171 15.6226 46.2171Z" fill="url(#paint3_linear)"/>
<path d="M25.6088 46.217H15.6226C15.2773 46.217 14.9977 45.9375 14.9977 45.5921C14.9977 45.2466 15.2773 44.9673 15.6226 44.9673H25.6088C25.9541 44.9673 26.2338 45.2466 26.2338 45.5921C26.2338 45.9373 25.9543 46.217 25.6088 46.217Z" fill="url(#paint4_linear)"/>
<path d="M15.6592 36.3937C12.1283 36.3937 6.28564 30.7745 6.28564 24.3704C6.28564 24.025 6.56517 23.7454 6.9105 23.7454C7.25584 23.7454 7.53537 24.0249 7.53537 24.3704C7.53537 29.9257 12.603 35.1439 15.6592 35.1439C17.3057 35.1439 19.6478 33.5169 21.3553 31.1876C21.5604 30.9099 21.9497 30.8489 22.2292 31.0528C22.5075 31.2567 22.5674 31.6478 22.3635 31.9261C20.4047 34.5983 17.7109 36.3937 15.6592 36.3937Z" fill="url(#paint5_linear)"/>
<path d="M13.1474 38.7182C12.9851 38.7182 12.8252 38.6554 12.7056 38.535L8.95628 34.7857C8.71208 34.5415 8.71208 34.1461 8.95628 33.9021C9.20047 33.658 9.59583 33.6579 9.83987 33.9021L13.2731 37.3348L15.3479 36.3071C15.5848 36.1784 15.8813 36.2053 16.0839 36.3975C16.3342 36.6354 16.35 37.0248 16.1121 37.2743C16.0621 37.3275 15.99 37.3836 15.9242 37.4158L13.4233 38.6535C13.3353 38.6968 13.2413 38.7182 13.1474 38.7182Z" fill="url(#paint6_linear)"/>
<path d="M18.1466 38.7183C18.0525 38.7183 17.9575 38.6969 17.8696 38.6536L15.37 37.4165L15.9133 36.29L18.0222 37.3343L21.4543 33.9021C21.6985 33.6579 22.0939 33.6579 22.3379 33.9021C22.5819 34.1463 22.5821 34.5417 22.3379 34.7857L18.5886 38.5351C18.4688 38.6553 18.3089 38.7183 18.1466 38.7183Z" fill="url(#paint7_linear)"/>
<path d="M4.37435 24.9702C4.26695 24.9702 4.15955 24.942 4.06184 24.8866C3.86908 24.7756 3.74933 24.5687 3.74933 24.3453C3.74933 18.0554 6.89458 15.2268 8.42148 14.2248L7.69891 13.5554C7.53898 13.4071 7.46707 13.1855 7.51084 12.972C7.55477 12.7578 7.70735 12.5821 7.91371 12.5089C8.25295 12.3875 16.2913 9.57973 21.2967 12.9063C23.6071 14.4429 24.8764 17.0182 25.0693 20.5619C25.0889 20.9068 24.824 21.2015 24.4798 21.2198C24.1015 21.2753 23.8415 20.9745 23.8219 20.6302C23.6511 17.5014 22.5697 15.2532 20.6046 13.9473C17.0859 11.6083 11.5972 12.7573 9.3454 13.3774L9.89835 13.8887C10.0534 14.0322 10.1253 14.2445 10.09 14.4532C10.0534 14.6619 9.91414 14.8377 9.72013 14.9213C9.53957 15.0006 5.45085 16.8698 5.03344 23.2732C7.67218 21.8873 15.1527 18.3276 21.8082 18.7225C22.0255 18.7347 22.2208 18.8598 22.3232 19.0525L23.6572 21.5454C23.8232 21.8482 23.7122 22.2276 23.4094 22.3937C23.1117 22.5591 22.7271 22.4498 22.5611 22.146L21.3869 19.954C13.7795 19.6769 4.7794 24.8329 4.68795 24.8861C4.59149 24.9422 4.483 24.9702 4.37435 24.9702Z" fill="url(#paint8_linear)"/>
<path d="M15.6226 39.9679C15.4629 39.9679 15.3029 39.9068 15.1808 39.7849L13.931 38.535C13.6869 38.291 13.6869 37.8954 13.931 37.6514C14.1751 37.4072 14.5705 37.4072 14.8147 37.6514L16.0644 38.9013C16.3086 39.1455 16.3086 39.5408 16.0644 39.7849C15.9423 39.9068 15.7824 39.9679 15.6226 39.9679Z" fill="url(#paint9_linear)"/>
<path d="M15.6226 39.9679C15.4628 39.9679 15.3029 39.9068 15.1808 39.7849C14.9366 39.5407 14.9366 39.1453 15.1808 38.9013L16.4307 37.6514C16.6747 37.4072 17.0703 37.4072 17.3143 37.6514C17.5583 37.8956 17.5585 38.2911 17.3143 38.535L16.0644 39.7849C15.9423 39.9068 15.7824 39.9679 15.6226 39.9679Z" fill="url(#paint10_linear)"/>
<path d="M14.374 44.9672C14.3508 44.9672 14.3277 44.9659 14.3031 44.9636C13.9602 44.9257 13.7136 44.6168 13.7515 44.2727L14.3763 38.6491C14.4141 38.3055 14.7095 38.0552 15.0671 38.0968C15.4101 38.1353 15.6567 38.4442 15.6188 38.787L14.994 44.4117C14.9587 44.7305 14.6876 44.9672 14.374 44.9672Z" fill="url(#paint11_linear)"/>
<path d="M16.8713 44.9672C16.5577 44.9672 16.2866 44.7303 16.2513 44.4117L15.6264 38.787C15.5886 38.4442 15.8351 38.1353 16.1781 38.0968C16.5284 38.0565 16.8311 38.3055 16.8689 38.6491L17.4939 44.2727C17.5318 44.6168 17.2852 44.9257 16.9422 44.9636C16.9175 44.9661 16.8944 44.9672 16.8713 44.9672Z" fill="url(#paint12_linear)"/>
<path d="M75.6015 36.6689C75.2558 36.6689 74.9764 36.3894 74.9764 36.0439V24.3452C74.9764 23.9997 75.2558 23.7202 75.6015 23.7202C75.9468 23.7202 76.2262 23.9997 76.2262 24.3452V36.0439C76.2262 36.3894 75.9468 36.6689 75.6015 36.6689Z" fill="url(#paint13_linear)"/>
<path d="M54.2788 19.971C54.1846 19.971 54.0898 19.9502 54.0006 19.9058C53.6916 19.7526 53.5662 19.3774 53.7185 19.0685C55.7398 14.9999 59.8139 12.4722 64.353 12.4722C64.6983 12.4722 64.9777 12.7517 64.9777 13.0972C64.9777 13.4425 64.6983 13.722 64.353 13.722C60.2922 13.722 56.6466 15.9837 54.8391 19.6239C54.7292 19.844 54.5084 19.971 54.2788 19.971Z" fill="url(#paint14_linear)"/>
<path d="M75.6014 24.9701C75.2558 24.9701 74.9764 24.6906 74.9764 24.3452C74.9764 21.7168 74.017 19.2025 72.2742 17.2643C70.2553 15.0125 67.3677 13.7218 64.3532 13.7218C64.0075 13.7218 63.7281 13.4423 63.7281 13.0969C63.7281 12.7514 64.0075 12.4719 64.3532 12.4719C67.7229 12.4719 70.9487 13.9139 73.2042 16.4289C75.1536 18.5964 76.2261 21.408 76.2261 24.3452C76.2261 24.6906 75.9468 24.9701 75.6014 24.9701Z" fill="url(#paint15_linear)"/>
<path d="M58.1041 25.2455C57.8305 25.2455 57.5793 25.0649 57.5022 24.7892C57.4094 24.4565 57.6035 24.1118 57.9354 24.0189C60.833 23.2097 63.728 21.9807 66.5414 20.3665C70.1089 18.3398 72.301 16.3993 72.3228 16.3802C72.5802 16.1501 72.9757 16.1721 73.2053 16.4308C73.4347 16.6883 73.4126 17.0832 73.1553 17.3127C73.0624 17.3951 70.851 19.3558 67.1612 21.4515C64.2602 23.1163 61.2689 24.3857 58.2723 25.2224C58.216 25.2382 58.1587 25.2455 58.1041 25.2455Z" fill="url(#paint16_linear)"/>
<path d="M75.6014 26.2199C75.5489 26.2199 75.4951 26.2131 75.4426 26.1991C69.3947 24.6082 66.5085 21.4727 66.3887 21.3403C66.1582 21.0845 66.1777 20.6904 66.4327 20.4584C66.6877 20.2295 67.0833 20.2461 67.3152 20.5011C67.3421 20.5309 70.098 23.5005 75.7599 24.9908C76.0943 25.0786 76.2934 25.4204 76.2055 25.7542C76.132 26.0345 75.8783 26.2199 75.6014 26.2199Z" fill="url(#paint17_linear)"/>
<path d="M73.0881 26.7455C72.7427 26.7455 72.4634 26.466 72.4634 26.1207V24.7958C72.4634 24.4504 72.7427 24.1709 73.0881 24.1709C73.4334 24.1709 73.7131 24.4504 73.7131 24.7958V26.1207C73.7131 26.466 73.4334 26.7455 73.0881 26.7455Z" fill="url(#paint18_linear)"/>
<path d="M66.877 44.967C66.7181 44.967 66.5585 44.9059 66.4364 44.785C66.1924 44.5422 66.19 44.1467 66.4339 43.9014L69.7197 40.5939L68.9102 39.7847C68.7773 39.6522 68.7115 39.4674 68.7298 39.2812C68.7494 39.0951 68.8496 38.9265 69.0056 38.8228L71.9936 36.8304L70.2434 35.6056C69.9612 35.4079 69.8917 35.018 70.0907 34.7353C70.2883 34.4516 70.6779 34.3845 70.9608 34.5817L73.4603 36.3312C73.6288 36.4497 73.729 36.6437 73.7265 36.8505C73.724 37.0567 73.6202 37.2484 73.4481 37.3631L70.3333 39.4399L71.0438 40.1509C71.2879 40.3944 71.2879 40.7885 71.0451 41.0334L67.32 44.7827C67.1979 44.906 67.0381 44.967 66.877 44.967Z" fill="url(#paint19_linear)"/>
<path d="M61.8276 44.967C61.6668 44.967 61.5067 44.9059 61.3846 44.7825L57.661 41.0332C57.418 40.7885 57.418 40.3943 57.6623 40.1507L58.37 39.4428L57.7597 39.0401C57.4717 38.8497 57.3923 38.4623 57.5829 38.1742C57.7719 37.8848 58.1599 37.8074 58.4482 37.9966L59.6979 38.8209C59.8542 38.9246 59.9565 39.0931 59.9748 39.2799C59.9943 39.4666 59.9286 39.6521 59.7956 39.7847L58.9864 40.5939L62.2707 43.9014C62.5149 44.1467 62.5125 44.5424 62.2682 44.785C62.1464 44.906 61.9865 44.967 61.8276 44.967Z" fill="url(#paint20_linear)"/>
<path d="M64.353 39.968C61.6264 39.968 60.2202 38.5936 60.1615 38.535C59.9175 38.291 59.9175 37.8955 60.1615 37.6514C60.4056 37.4097 60.8 37.4079 61.0415 37.6478C61.0867 37.6918 62.1718 38.7184 64.353 38.7184C66.5365 38.7184 67.6213 37.7022 67.6664 37.6589C67.9144 37.4221 68.3085 37.4277 68.5477 37.6717C68.787 37.9177 68.7858 38.3088 68.5416 38.5505C68.483 38.6083 67.0785 39.968 64.353 39.968Z" fill="url(#paint21_linear)"/>
<path d="M58.6951 36.6875C58.6951 26.0852 50.102 17.4922 39.4997 17.4922C28.8975 17.4922 20.3044 26.0853 20.3044 36.6875C20.3044 36.6875 21.2888 51.9453 15.3825 55.8828C15.3825 55.8828 20.3044 59.8203 28.1794 59.8203H50.82C58.695 59.8203 63.6169 55.8828 63.6169 55.8828C57.7107 51.9453 58.6951 36.6875 58.6951 36.6875Z" fill="#DEEEEE"/>
<path d="M66.5702 73.6015C66.5702 77.539 66.5702 79.5077 66.5702 79.5077H57.7108V65.7361C58.823 66.0909 59.8469 66.4053 60.6639 66.7108C64.6014 68.1875 66.5702 69.664 66.5702 73.6015Z" fill="#F0F4F4"/>
<path d="M39.4997 17.4922C45.4156 17.4922 50.7113 20.1699 54.2355 24.3828C54.2355 24.3828 51.8631 27.9954 45.8981 31.6671C40.5629 34.9552 32.3432 38.2919 20.3635 39.1091C20.3635 37.6324 20.3044 36.6875 20.3044 36.6875C20.3046 26.0857 28.898 17.4922 39.4997 17.4922Z" fill="#656D78"/>
<path d="M39.4997 17.4922C45.4156 17.4922 50.7113 20.1699 54.2355 24.3828C54.2355 24.3828 51.8631 27.9954 45.8981 31.6671C40.5629 34.9552 32.3432 38.2919 20.3635 39.1091C20.3635 37.6324 20.3044 36.6875 20.3044 36.6875C20.3046 26.0857 28.898 17.4922 39.4997 17.4922Z" fill="#DEEEEE"/>
<path d="M22.2734 36.6875C22.2734 26.3467 30.455 17.9401 40.6948 17.5311C40.2998 17.5071 39.9018 17.4922 39.4999 17.4922C28.8981 17.4922 20.3046 26.0857 20.3046 36.6875C20.3046 36.6875 20.3637 37.6324 20.3637 39.1091C21.0327 39.0634 21.6859 39.0072 22.3315 38.9466C22.3275 37.5666 22.2734 36.6875 22.2734 36.6875Z" fill="#F0F4F4"/>
<path d="M58.6652 37.2089C51.992 36.6874 45.8981 31.6669 45.8981 31.6669C51.8631 27.9952 54.2355 24.3826 54.2355 24.3826C57.0215 27.7198 58.695 32.0019 58.695 36.6873C58.6951 36.6874 58.6855 36.8743 58.6652 37.2089Z" fill="#DEEEEE"/>
<path d="M45.8982 31.6672C45.8982 31.6672 50.8567 35.7528 56.7264 36.9352V39.1486C56.7264 45.6748 53.1436 51.9166 48.8514 56.0012C45.7407 58.9638 42.2558 60.8048 39.4998 60.8048C36.7438 60.8048 33.259 58.9744 30.1483 56.0012C26.2897 52.3299 23.0019 46.9154 22.3815 41.1173V38.9448C33.3435 37.9233 40.8485 34.7794 45.8982 31.6672Z" fill="#F0F4F4"/>
<path d="M32.117 56.0009C28.2584 52.3297 24.9706 46.9152 24.3502 41.1171V38.7283L22.3814 38.9446V41.1171C23.0018 46.9152 26.2896 52.3297 30.1482 56.0009C33.2589 58.9742 36.7437 60.8046 39.4998 60.8046C39.817 60.8046 40.1468 60.7739 40.4817 60.7257C37.9088 60.3595 34.8676 58.6301 32.117 56.0009Z" fill="white"/>
<path d="M48.8513 58.8359C48.8513 59.2993 48.9205 59.7319 49.0581 60.1356C49.5705 61.7198 51.0268 62.8915 52.7888 63.8068C52.7888 63.8068 52.7888 63.8068 52.7888 63.8174C52.7399 64.1616 51.519 71.6328 39.5488 71.6328C27.3031 71.6328 26.2106 63.8068 26.2106 63.8068C27.8251 62.9704 29.1733 61.9169 29.7939 60.5298C30.0203 60.0174 30.1481 59.4463 30.1481 58.8358V56.001C33.2588 58.9742 36.7436 60.8047 39.4997 60.8047C42.2556 60.8047 45.7405 58.9636 48.8512 56.001V58.8359H48.8513Z" fill="#F0F4F4"/>
<g opacity="0.2">
<path opacity="0.2" d="M48.8514 56.001C45.7407 58.9636 42.2558 60.8047 39.4999 60.8047C36.7439 60.8047 33.2591 58.9742 30.1484 56.001V56.9854C33.2591 59.9587 36.7439 61.789 39.4999 61.789C42.2558 61.789 45.7407 59.9481 48.8514 56.9854V56.001Z" fill="black"/>
</g>
<path d="M30.1484 56.9856V58.836C30.1484 59.4464 30.0206 60.0175 29.7942 60.5299C29.1736 61.917 27.8254 62.9706 26.2109 63.807L26.8959 65.7364C28.5103 64.9001 31.1423 62.9014 31.7629 61.5143C31.9893 61.002 32.1172 60.4309 32.1172 59.8204V58.6631C31.452 58.1517 30.7915 57.5998 30.1484 56.9856Z" fill="white"/>
<path d="M21.3086 65.7361L21.2889 79.5077H12.4296C12.4296 79.5077 12.4296 77.539 12.4296 73.6015C12.4296 69.664 14.3983 68.1875 18.3358 66.7108C19.1528 66.4053 20.1863 66.0909 21.3086 65.7361Z" fill="#F0F4F4"/>
<path d="M14.3983 75.1184C14.3983 71.1809 16.3671 69.7043 20.3046 68.2278C20.6078 68.1144 20.9491 67.9991 21.3057 67.8818L21.3086 65.7361C20.1863 66.0909 19.1528 66.4053 18.3358 66.7108C14.3983 68.1875 12.4296 69.664 12.4296 73.6015C12.4296 77.539 12.4296 79.5077 12.4296 79.5077H14.3983C14.3983 78.5233 14.3983 77.0641 14.3983 75.1184Z" fill="white"/>
<path d="M57.7108 65.736V79.5077H21.2889L21.3086 65.736C22.9034 65.215 24.6752 64.6142 26.2109 63.8066C26.2109 63.8066 27.3034 71.6327 39.549 71.6327C51.5191 71.6327 52.74 64.1614 52.7891 63.8172C54.3348 64.6142 56.1064 65.2246 57.7108 65.736Z" fill="#DEEEEE"/>
<path d="M39.5489 71.6327C51.519 71.6327 52.7399 64.1614 52.789 63.8172C52.789 63.8067 52.789 63.8067 52.789 63.8067C52.7149 63.7683 52.6457 63.7269 52.5726 63.6874C51.8988 65.7255 49.2658 70.6481 39.5489 70.6481C29.8204 70.6481 27.1335 65.7129 26.439 63.6816C26.3626 63.723 26.2886 63.7663 26.2108 63.8067C26.2109 63.8068 27.3032 71.6327 39.5489 71.6327Z" fill="#DEEEEE"/>
<g opacity="0.5">
<path opacity="0.5" d="M21.3085 67.8646C22.8289 67.3676 25.4893 66.4784 26.9735 65.7267C26.3372 64.5452 26.2108 63.8069 26.2108 63.8069C24.6751 64.6144 22.9034 65.2151 21.3085 65.7363C21.3085 65.7363 21.3085 67.8646 21.3085 67.8646Z" fill="white"/>
</g>
<path d="M39.4997 61.2969C36.6676 61.2969 33.045 59.4503 29.8083 56.3568C25.4228 52.1838 22.4631 46.5063 21.892 41.1696C21.8632 40.8995 22.0587 40.6567 22.3289 40.628C22.6043 40.604 22.8422 40.7952 22.8706 41.0649C23.4176 46.1766 26.265 51.6262 30.4875 55.6444C33.5463 58.5678 36.9152 60.3126 39.4997 60.3126C42.074 60.3126 45.4425 58.5678 48.5119 55.6444C53.3473 51.0427 56.234 44.8759 56.234 39.1485C56.234 38.8764 56.4542 38.6562 56.7263 38.6562C56.9983 38.6562 57.2185 38.8764 57.2185 39.1485C57.2185 45.1402 54.2172 51.5733 49.1906 56.3578C45.9434 59.4503 42.3203 61.2969 39.4997 61.2969Z" fill="url(#paint22_linear)"/>
<path d="M66.5701 80H12.4295C12.1575 80 11.9373 79.7799 11.9373 79.5078V73.6015C11.9373 69.3843 14.1252 67.7644 18.1628 66.2495C18.854 65.9918 19.7008 65.7265 20.5973 65.4439L21.1601 65.2669C22.7857 64.7354 24.5012 64.15 25.9817 63.3713C27.7365 62.4619 28.8353 61.4679 29.3447 60.3279C29.551 59.8616 29.6562 59.3588 29.6562 58.8358C29.6562 58.5639 29.8763 58.3438 30.1484 58.3438C30.4204 58.3438 30.6406 58.5639 30.6406 58.8358C30.6406 59.4973 30.5075 60.1337 30.2441 60.7278C29.6395 62.0813 28.3945 63.23 26.4373 64.2442C24.8915 65.0566 23.1318 65.6573 21.4616 66.2034L20.8925 66.3832C20.0086 66.6609 19.1742 66.9234 18.5081 67.1723C14.7234 68.5912 12.9219 69.9159 12.9219 73.6015V79.0156H66.078V73.6015C66.078 69.9159 64.2765 68.5912 60.491 67.1723C59.8239 66.9224 59.0173 66.6667 58.1367 66.388L57.5608 66.2053C55.9873 65.7035 54.1616 65.0788 52.563 64.2539C52.3217 64.1299 52.2266 63.8328 52.3515 63.5915C52.4755 63.3492 52.7736 63.2551 53.0149 63.379C54.5491 64.1712 56.3246 64.7778 57.8598 65.267L58.4347 65.4497C59.3326 65.7342 60.1554 65.9958 60.8361 66.2495C64.8745 67.7646 67.0626 69.3843 67.0626 73.6015V79.5078C67.0623 79.7799 66.8422 80 66.5701 80Z" fill="url(#paint23_linear)"/>
<path d="M52.7889 64.299C52.712 64.299 52.6341 64.2808 52.5619 64.2442C50.3836 63.1117 49.0849 61.8178 48.5899 60.2865C48.438 59.8405 48.3591 59.3492 48.3591 58.8358C48.3591 58.5639 48.5793 58.3438 48.8514 58.3438C49.1234 58.3438 49.3436 58.5639 49.3436 58.8358C49.3436 59.2416 49.4041 59.6251 49.5243 59.9761C49.9376 61.2565 51.0788 62.3639 53.0158 63.3694C53.2571 63.4953 53.3513 63.7925 53.2253 64.0337C53.1378 64.2019 52.9667 64.299 52.7889 64.299Z" fill="url(#paint24_linear)"/>
<path d="M30.1483 59.3283C29.8763 59.3283 29.6561 59.1081 29.6561 58.8361V56.0013C29.6561 55.7292 29.8763 55.509 30.1483 55.509C30.4203 55.509 30.6406 55.7292 30.6406 56.0013V58.8361C30.6403 59.1081 30.4202 59.3283 30.1483 59.3283Z" fill="url(#paint25_linear)"/>
<path d="M48.8514 59.3283C48.5793 59.3283 48.3591 59.1081 48.3591 58.8361V56.0013C48.3591 55.7292 48.5793 55.509 48.8514 55.509C49.1234 55.509 49.3436 55.7292 49.3436 56.0013V58.8361C49.3436 59.1081 49.1234 59.3283 48.8514 59.3283Z" fill="url(#paint26_linear)"/>
<path d="M58.695 37.1797C58.4229 37.1797 58.2028 36.9596 58.2028 36.6875C58.2028 32.3125 56.6599 28.0545 53.8576 24.698C50.2884 20.4317 45.0551 17.9843 39.4997 17.9843C29.1867 17.9843 20.7965 26.3745 20.7965 36.6875C20.7965 36.9596 20.5764 37.1797 20.3043 37.1797C20.0322 37.1797 19.8121 36.9596 19.8121 36.6875C19.8121 25.832 28.6441 17 39.4996 17C45.3472 17 50.8564 19.5759 54.6131 24.067C57.5624 27.6008 59.1871 32.0823 59.1871 36.6875C59.1872 36.9596 58.9671 37.1797 58.695 37.1797Z" fill="url(#paint27_linear)"/>
<path d="M63.617 56.3749C63.5227 56.3749 63.4276 56.3479 63.3439 56.2922C58.82 53.2756 58.1442 44.2442 58.1442 39.1287C58.1442 38.4125 58.1586 37.8131 58.1682 37.3882L58.2037 36.6619C58.2171 36.3918 58.4201 36.1798 58.7199 36.1957C58.992 36.2096 59.2006 36.4413 59.1862 36.7129L59.1526 37.4117C59.143 37.8308 59.1286 38.422 59.1286 39.1287C59.1286 43.0888 59.5929 52.6086 63.8898 55.4731C64.1157 55.6241 64.1773 55.9288 64.0263 56.1557C63.9313 56.298 63.7756 56.3749 63.617 56.3749Z" fill="url(#paint28_linear)"/>
<path d="M50.82 60.3124C50.548 60.3124 50.3278 60.0922 50.3278 59.8201C50.3278 59.5481 50.548 59.3279 50.82 59.3279C58.4153 59.3279 63.2622 55.5365 63.3103 55.4981C63.5237 55.3269 63.8323 55.3635 64.0014 55.575C64.1706 55.7884 64.136 56.098 63.9245 56.2672C63.718 56.4326 58.7758 60.3124 50.82 60.3124Z" fill="url(#paint29_linear)"/>
<path d="M15.3831 56.3751C15.2241 56.3751 15.0678 56.2981 14.973 56.1559C14.8221 55.929 14.8832 55.6243 15.1095 55.4733C18.8581 52.974 19.6833 45.3456 19.8419 41.0207C19.8611 40.331 19.8712 39.6758 19.8712 39.1091C19.8712 37.6677 19.8135 36.7275 19.813 36.7183C19.7962 36.4467 20.0024 36.2132 20.2735 36.1963C20.5552 36.1814 20.7781 36.3857 20.7955 36.6568C20.798 36.6962 20.8555 37.634 20.8555 39.1091C20.8555 39.6844 20.8455 40.3482 20.8258 41.0524C20.6238 46.5693 19.5631 53.6873 15.6554 56.2925C15.5715 56.3481 15.4767 56.3751 15.3831 56.3751Z" fill="url(#paint30_linear)"/>
<path d="M28.1794 60.3125C20.2232 60.3125 15.2816 56.4327 15.0749 56.2673C14.8629 56.0981 14.8288 55.7885 14.998 55.5751C15.1677 55.3636 15.4766 55.329 15.6897 55.4982C15.7378 55.5366 20.5846 59.3281 28.1794 59.3281C28.4514 59.3281 28.6717 59.5482 28.6717 59.8203C28.6717 60.0924 28.4515 60.3125 28.1794 60.3125Z" fill="url(#paint31_linear)"/>
<path d="M20.3631 39.6012C20.1064 39.6012 19.8901 39.4022 19.8723 39.1427C19.8541 38.8711 20.0589 38.6366 20.33 38.6177C30.292 37.9385 38.8076 35.4589 45.6397 31.2479C51.4259 27.6867 53.8011 24.1471 53.8242 24.1121C53.9742 23.8838 54.2809 23.8226 54.5058 23.9717C54.7327 24.1212 54.7961 24.4258 54.6471 24.6528C54.548 24.8041 52.1459 28.3994 46.1558 32.086C39.1869 36.3811 30.5203 38.9094 20.3973 39.6001C20.3856 39.6007 20.3742 39.6012 20.3631 39.6012Z" fill="url(#paint32_linear)"/>
<path d="M58.6663 37.7011C58.6529 37.7011 58.6403 37.7006 58.6269 37.6997C51.8767 37.1719 45.8387 32.2557 45.585 32.0467C45.3754 31.8741 45.3456 31.5642 45.5186 31.3541C45.6916 31.1436 46.0021 31.1161 46.2107 31.2868C46.2712 31.3363 52.2679 36.2154 58.7038 36.7182C58.9749 36.7393 59.1768 36.9763 59.1557 37.2474C59.1354 37.505 58.92 37.7011 58.6663 37.7011Z" fill="url(#paint33_linear)"/>
<path d="M39.5487 72.1249C33.0449 72.1249 29.6382 69.9101 27.9256 68.0528C26.0391 66.0071 25.7352 63.9615 25.7233 63.875C25.6858 63.6057 25.8728 63.3587 26.1411 63.3202C26.4083 63.2789 26.6583 63.4692 26.6981 63.7365C26.7423 64.0394 27.9128 71.1405 39.5489 71.1405C51.1172 71.1405 52.2582 64.0499 52.3015 63.7481C52.3015 63.475 52.5197 63.2847 52.7917 63.2847C53.0628 63.2847 53.2811 63.5346 53.2811 63.8067C53.2281 64.223 51.9613 72.1249 39.5487 72.1249Z" fill="url(#paint34_linear)"/>
<path d="M57.7106 80C57.4386 80 57.2185 79.7798 57.2185 79.5078V65.7361C57.2185 65.464 57.4386 65.2439 57.7106 65.2439C57.9827 65.2439 58.2028 65.464 58.2028 65.7361V79.5078C58.2028 79.7798 57.9827 80 57.7106 80Z" fill="url(#paint35_linear)"/>
<path d="M21.2889 80.0001C21.2884 80.0001 21.2884 80.0001 21.2884 80.0001C21.0165 80.0001 20.7962 79.779 20.7967 79.5079L20.8164 65.7363C20.8169 65.4642 21.037 65.2393 21.3086 65.2393C21.3086 65.2393 21.3086 65.2393 21.3091 65.2393C21.5807 65.2393 21.8008 65.4556 21.8008 65.7267L21.7811 79.5079C21.7806 79.78 21.5605 80.0001 21.2889 80.0001Z" fill="url(#paint36_linear)"/>
<defs>
<linearGradient id="paint0_linear" x1="63.5294" y1="41.5104" x2="66.4758" y2="40.6314" gradientUnits="userSpaceOnUse">
<stop stop-color="#46A29F"/>
<stop offset="1" stop-color="#4660A2"/>
</linearGradient>
<linearGradient id="paint1_linear" x1="54.689" y1="28.2287" x2="90.3832" y2="13.858" gradientUnits="userSpaceOnUse">
<stop stop-color="#46A29F"/>
<stop offset="1" stop-color="#4660A2"/>
</linearGradient>
<linearGradient id="paint2_linear" x1="49.2151" y1="39.4758" x2="86.5611" y2="6.12832" gradientUnits="userSpaceOnUse">
<stop stop-color="#46A29F"/>
<stop offset="1" stop-color="#4660A2"/>
</linearGradient>
<linearGradient id="paint3_linear" x1="-2.79197" y1="37.8361" x2="31.8801" y2="22.4347" gradientUnits="userSpaceOnUse">
<stop stop-color="#46A29F"/>
<stop offset="1" stop-color="#4660A2"/>
</linearGradient>
<linearGradient id="paint4_linear" x1="13.0669" y1="45.2526" x2="16.5998" y2="35.8216" gradientUnits="userSpaceOnUse">
<stop stop-color="#46A29F"/>
<stop offset="1" stop-color="#4660A2"/>
</linearGradient>
<linearGradient id="paint5_linear" x1="3.50204" y1="26.6327" x2="39.6624" y2="12.8824" gradientUnits="userSpaceOnUse">
<stop stop-color="#46A29F"/>
<stop offset="1" stop-color="#4660A2"/>
</linearGradient>
<linearGradient id="paint6_linear" x1="7.4829" y1="34.8602" x2="23.485" y2="27.7243" gradientUnits="userSpaceOnUse">
<stop stop-color="#46A29F"/>
<stop offset="1" stop-color="#4660A2"/>
</linearGradient>
<linearGradient id="paint7_linear" x1="14.1412" y1="34.8602" x2="29.6203" y2="28.2861" gradientUnits="userSpaceOnUse">
<stop stop-color="#46A29F"/>
<stop offset="1" stop-color="#4660A2"/>
</linearGradient>
<linearGradient id="paint8_linear" x1="0.0855274" y1="14.4101" x2="44.9583" y2="-6.34927" gradientUnits="userSpaceOnUse">
<stop stop-color="#46A29F"/>
<stop offset="1" stop-color="#4660A2"/>
</linearGradient>
<linearGradient id="paint9_linear" x1="13.3184" y1="38.0389" x2="19.1877" y2="36.2962" gradientUnits="userSpaceOnUse">
<stop stop-color="#46A29F"/>
<stop offset="1" stop-color="#4660A2"/>
</linearGradient>
<linearGradient id="paint10_linear" x1="14.5681" y1="38.0389" x2="20.4376" y2="36.2962" gradientUnits="userSpaceOnUse">
<stop stop-color="#46A29F"/>
<stop offset="1" stop-color="#4660A2"/>
</linearGradient>
<linearGradient id="paint11_linear" x1="13.4254" y1="39.6617" x2="18.1851" y2="39.2762" gradientUnits="userSpaceOnUse">
<stop stop-color="#46A29F"/>
<stop offset="1" stop-color="#4660A2"/>
</linearGradient>
<linearGradient id="paint12_linear" x1="15.3003" y1="39.6619" x2="20.0604" y2="39.2763" gradientUnits="userSpaceOnUse">
<stop stop-color="#46A29F"/>
<stop offset="1" stop-color="#4660A2"/>
</linearGradient>
<linearGradient id="paint13_linear" x1="74.7617" y1="26.6761" x2="77.9522" y2="26.5847" gradientUnits="userSpaceOnUse">
<stop stop-color="#46A29F"/>
<stop offset="1" stop-color="#4660A2"/>
</linearGradient>
<linearGradient id="paint14_linear" x1="51.7078" y1="14.184" x2="75.7982" y2="3.38256" gradientUnits="userSpaceOnUse">
<stop stop-color="#46A29F"/>
<stop offset="1" stop-color="#4660A2"/>
</linearGradient>
<linearGradient id="paint15_linear" x1="61.5805" y1="15.325" x2="90.9267" y2="6.6118" gradientUnits="userSpaceOnUse">
<stop stop-color="#46A29F"/>
<stop offset="1" stop-color="#4660A2"/>
</linearGradient>
<linearGradient id="paint16_linear" x1="54.7494" y1="18.2812" x2="86.6284" y2="1.62011" gradientUnits="userSpaceOnUse">
<stop stop-color="#46A29F"/>
<stop offset="1" stop-color="#4660A2"/>
</linearGradient>
<linearGradient id="paint17_linear" x1="64.5097" y1="21.6495" x2="84.9262" y2="11.4153" gradientUnits="userSpaceOnUse">
<stop stop-color="#46A29F"/>
<stop offset="1" stop-color="#4660A2"/>
</linearGradient>
<linearGradient id="paint18_linear" x1="72.2486" y1="24.7586" x2="75.3768" y2="24.3078" gradientUnits="userSpaceOnUse">
<stop stop-color="#46A29F"/>
<stop offset="1" stop-color="#4660A2"/>
</linearGradient>
<linearGradient id="paint19_linear" x1="64.9678" y1="36.8653" x2="83.2484" y2="33.0009" gradientUnits="userSpaceOnUse">
<stop stop-color="#46A29F"/>
<stop offset="1" stop-color="#4660A2"/>
</linearGradient>
<linearGradient id="paint20_linear" x1="56.6242" y1="39.5081" x2="68.8017" y2="36.9658" gradientUnits="userSpaceOnUse">
<stop stop-color="#46A29F"/>
<stop offset="1" stop-color="#4660A2"/>
</linearGradient>
<linearGradient id="paint21_linear" x1="58.4754" y1="38.0395" x2="69.2196" y2="26.8726" gradientUnits="userSpaceOnUse">
<stop stop-color="#46A29F"/>
<stop offset="1" stop-color="#4660A2"/>
</linearGradient>
<linearGradient id="paint22_linear" x1="15.8182" y1="43.8246" x2="90.1342" y2="9.3929" gradientUnits="userSpaceOnUse">
<stop stop-color="#46A29F"/>
<stop offset="1" stop-color="#4660A2"/>
</linearGradient>
<linearGradient id="paint23_linear" x1="2.4646" y1="63.2874" x2="92.108" y2="-4.46371" gradientUnits="userSpaceOnUse">
<stop stop-color="#46A29F"/>
<stop offset="1" stop-color="#4660A2"/>
</linearGradient>
<linearGradient id="paint24_linear" x1="47.5133" y1="59.7032" x2="59.3753" y2="56.7922" gradientUnits="userSpaceOnUse">
<stop stop-color="#46A29F"/>
<stop offset="1" stop-color="#4660A2"/>
</linearGradient>
<linearGradient id="paint25_linear" x1="29.487" y1="56.3809" x2="31.9876" y2="56.1895" gradientUnits="userSpaceOnUse">
<stop stop-color="#46A29F"/>
<stop offset="1" stop-color="#4660A2"/>
</linearGradient>
<linearGradient id="paint26_linear" x1="48.19" y1="56.3809" x2="50.6907" y2="56.1895" gradientUnits="userSpaceOnUse">
<stop stop-color="#46A29F"/>
<stop offset="1" stop-color="#4660A2"/>
</linearGradient>
<linearGradient id="paint27_linear" x1="13.0459" y1="21.6066" x2="88.3699" y2="-22.0319" gradientUnits="userSpaceOnUse">
<stop stop-color="#46A29F"/>
<stop offset="1" stop-color="#4660A2"/>
</linearGradient>
<linearGradient id="paint28_linear" x1="57.1192" y1="40.8015" x2="72.2433" y2="39.4742" gradientUnits="userSpaceOnUse">
<stop stop-color="#46A29F"/>
<stop offset="1" stop-color="#4660A2"/>
</linearGradient>
<linearGradient id="paint29_linear" x1="47.9597" y1="56.5136" x2="68.7829" y2="39.2045" gradientUnits="userSpaceOnUse">
<stop stop-color="#46A29F"/>
<stop offset="1" stop-color="#4660A2"/>
</linearGradient>
<linearGradient id="paint30_linear" x1="13.8651" y1="40.8021" x2="28.9905" y2="39.4745" gradientUnits="userSpaceOnUse">
<stop stop-color="#46A29F"/>
<stop offset="1" stop-color="#4660A2"/>
</linearGradient>
<linearGradient id="paint31_linear" x1="12.5223" y1="56.5144" x2="33.3427" y2="39.2043" gradientUnits="userSpaceOnUse">
<stop stop-color="#46A29F"/>
<stop offset="1" stop-color="#4660A2"/>
</linearGradient>
<linearGradient id="paint32_linear" x1="13.8815" y1="27.4768" x2="75.9904" y2="-13.4371" gradientUnits="userSpaceOnUse">
<stop stop-color="#46A29F"/>
<stop offset="1" stop-color="#4660A2"/>
</linearGradient>
<linearGradient id="paint33_linear" x1="43.0431" y1="32.665" x2="68.2939" y2="16.8668" gradientUnits="userSpaceOnUse">
<stop stop-color="#46A29F"/>
<stop offset="1" stop-color="#4660A2"/>
</linearGradient>
<linearGradient id="paint34_linear" x1="20.9821" y1="65.3027" x2="58.9061" y2="30.1951" gradientUnits="userSpaceOnUse">
<stop stop-color="#46A29F"/>
<stop offset="1" stop-color="#4660A2"/>
</linearGradient>
<linearGradient id="paint35_linear" x1="57.0494" y1="68.6124" x2="59.5634" y2="68.5626" gradientUnits="userSpaceOnUse">
<stop stop-color="#46A29F"/>
<stop offset="1" stop-color="#4660A2"/>
</linearGradient>
<linearGradient id="paint36_linear" x1="20.6241" y1="68.6088" x2="23.1887" y2="68.557" gradientUnits="userSpaceOnUse">
<stop stop-color="#46A29F"/>
<stop offset="1" stop-color="#4660A2"/>
</linearGradient>
</defs>
</svg>
