<svg width="10" height="11" viewBox="0 0 10 11" fill="none" xmlns="http://www.w3.org/2000/svg">
<path d="M3.66321 0.801031L5.99776 2.20134V2.20303L8.33069 3.60164C8.6628 3.8012 8.92654 4.07348 9.10725 4.39988H9.10887C9.29121 4.72797 9.38889 5.10173 9.38889 5.49915C9.38889 5.89658 9.29121 6.27034 9.10887 6.59843H9.10725C8.92654 6.92314 8.66443 7.19542 8.33232 7.39498V7.39667L6.64733 8.408L6.56756 8.45535L6.56431 8.45704L6.41616 8.54668V8.53991C6.21103 8.64138 5.99939 8.70903 5.78612 8.73778H5.78449H5.78124H5.77635H5.77147H5.76659H5.76496H5.7617H5.75682H5.75193H5.74705H5.74542H5.74217H5.73728H5.7324H5.72751H5.72589H5.72263H5.71775H5.71286H5.70798H5.70635H5.70309H5.69821H5.69333H5.68844H5.68681H5.68356H5.67867H5.67379H5.66891H5.66728H5.66402H5.65914H5.65425H5.64937H5.64611H5.64123H5.63635H5.63146H5.62821H5.62332H5.61844H5.61355H5.6103H5.60541H5.60053H5.59565H5.59239H5.58751H5.58262H5.57774H5.57448H5.5696H5.56471H5.55983H5.55657H5.55169H5.54681H5.54192H5.53867H5.53378H5.5289H5.52401H5.54681H5.54192H5.53704H5.53215H5.53053H5.52564H5.52076H5.51587C5.15609 8.73778 4.7963 8.638 4.46093 8.43675L4.4593 8.43506L4.45767 8.43337L4.45604 8.43168L4.45442 8.42999L4.45279 8.42829L4.45116 8.4266L4.44953 8.42491H4.4479L4.44628 8.42322L4.44465 8.42153L4.44302 8.41984L4.44139 8.41815L4.43976 8.41646L4.43814 8.41476L4.43651 8.41307H4.43488L4.43325 8.41138L4.43162 8.40969L4.43 8.408L4.42348 8.42829L4.42186 8.4266L4.42023 8.42491L4.4186 8.42322H4.41697L4.41534 8.42153L4.41372 8.41984L4.41209 8.41815H4.4072L4.40558 8.41646L4.40395 8.41476L4.40232 8.41307L4.40069 8.41138L4.39906 8.40969L4.39744 8.408L4.39581 8.40631L4.3893 8.40293L4.38767 8.40123L4.38116 8.39785L4.37953 8.39616L4.3779 8.39447L4.37464 8.39278L4.37302 8.39109L4.37139 8.3894L4.36976 8.3877L4.36813 8.38601L4.3665 8.38432L4.36488 8.38263L4.36325 8.38094L4.36162 8.37925H4.35999L4.35836 8.37756L4.35674 8.37587L4.35511 8.37418L4.35348 8.37248L4.35185 8.37079L4.35022 8.3691L4.3486 8.36741L4.34697 8.36572L4.34534 8.36403C4.07184 8.17462 3.85206 7.93108 3.69414 7.64696C3.5118 7.31887 3.41412 6.94512 3.41412 6.54769V3.48664L3.63228 3.61686H3.6339L4.59931 4.19694V6.55784C4.59931 6.7388 4.64001 6.90284 4.71652 7.03983C4.79467 7.1802 4.91026 7.30027 5.06166 7.3899C5.20981 7.47785 5.3661 7.52182 5.52239 7.52182C5.65914 7.52182 5.79589 7.48799 5.9245 7.42373L7.74461 6.33122H7.74624C7.89601 6.24159 8.0116 6.1232 8.08812 5.98453V5.98283C8.16463 5.84585 8.20533 5.6818 8.20533 5.50084C8.20533 5.31989 8.16463 5.15584 8.08812 5.01886V5.01717C8.0116 4.87849 7.89438 4.75841 7.74624 4.67047L5.41168 3.27017H5.41005L4.59931 2.7831L4.22324 2.55818L3.0755 1.86986V1.86817C2.92898 1.78023 2.77106 1.73626 2.61315 1.73626C2.45523 1.73626 2.29731 1.78023 2.15079 1.86817V1.86986C2.00102 1.9595 1.8838 2.07957 1.80566 2.21994C1.72914 2.35693 1.68844 2.52097 1.68844 2.70193V8.30315C1.68844 8.4841 1.72914 8.64815 1.80566 8.78513C1.8838 8.9255 1.99939 9.04558 2.15079 9.13521C2.29894 9.22315 2.45523 9.26712 2.61152 9.26712C2.76943 9.26712 2.92735 9.22315 3.0755 9.13521L3.23504 9.03881C3.42552 9.22653 3.63879 9.39058 3.86834 9.52926C4.02951 9.62566 4.19719 9.70852 4.36813 9.77617L3.66321 10.199C3.32784 10.4002 2.96968 10.5 2.61152 10.5C2.25173 10.5 1.89194 10.4002 1.55657 10.199C1.22446 9.99941 0.962353 9.72713 0.781644 9.40242C0.59768 9.06925 0.5 8.6955 0.5 8.29976V2.69685C0.5 2.29942 0.59768 1.92567 0.780016 1.59758C0.960725 1.27287 1.22283 0.9989 1.55495 0.801031H1.55657C1.89194 0.59978 2.2501 0.5 2.60826 0.5C2.96642 0.5 3.32621 0.59978 3.65995 0.801031H3.66321Z" fill="#46A29F"/>
</svg>
