<svg width="12" height="16" viewBox="0 0 12 16" fill="none" xmlns="http://www.w3.org/2000/svg">
<path d="M2.92581 0C3.93318 0 4.75144 0.808119 4.75144 1.80728C4.75144 2.80454 3.93511 3.61457 2.92581 3.61457C1.91843 3.61457 1.10018 2.80645 1.10018 1.80728C1.10211 0.808119 1.91843 0 2.92581 0ZM6.87426 9.90949C7.38374 9.90949 7.79672 10.3183 7.79672 10.8227C7.79672 11.327 7.38374 11.7359 6.87426 11.7359C6.36478 11.7359 5.9518 11.327 5.9518 10.8227C5.94987 10.3183 6.36478 9.90949 6.87426 9.90949ZM4.24968 5.04358L7.01707 6.62543V6.62734L9.78253 8.20728C10.1762 8.43272 10.4888 8.7403 10.7031 9.10902H10.705C10.9211 9.47964 11.0369 9.90185 11.0369 10.3508C11.0369 10.7998 10.9211 11.222 10.705 11.5926H10.7031C10.4888 11.9594 10.1781 12.267 9.78446 12.4924V12.4943L7.78707 13.6368L7.69251 13.6903L7.68865 13.6922L7.51304 13.7934V13.7858C7.26988 13.9004 7.019 13.9768 6.76619 14.0093H6.76426H6.7604H6.75461H6.74882H6.74303H6.7411H6.73724H6.73145H6.72566H6.71987H6.71794H6.71408H6.70829H6.7025H6.69671H6.69478H6.69093H6.68514H6.67935H6.67356H6.67163H6.66777H6.66198H6.65619H6.6504H6.64847H6.64461H6.63882H6.63303H6.62724H6.62531H6.62145H6.61566H6.60987H6.60408H6.60022H6.59443H6.58864H6.58285H6.57899H6.5732H6.56742H6.56163H6.55777H6.55198H6.54619H6.5404H6.53654H6.53075H6.52496H6.51917H6.51531H6.50952H6.50373H6.49794H6.49408H6.48829H6.4825H6.47671H6.47285H6.46706H6.46127H6.45548H6.4825H6.47671H6.47092H6.46513H6.4632H6.45741H6.45163H6.44584C6.01934 14.0093 5.59285 13.8966 5.1953 13.6693L5.19337 13.6673L5.19144 13.6654L5.18951 13.6635L5.18758 13.6616L5.18565 13.6597L5.18372 13.6578L5.18179 13.6559H5.17986L5.17793 13.654L5.176 13.6521L5.17407 13.6501L5.17214 13.6482L5.17021 13.6463L5.16828 13.6444L5.16635 13.6425H5.16442L5.16249 13.6406L5.16056 13.6387L5.15863 13.6368L5.15091 13.6597L5.14898 13.6578L5.14705 13.6559L5.14512 13.654H5.14319L5.14126 13.6521L5.13933 13.6501L5.1374 13.6482H5.13161L5.12968 13.6463L5.12776 13.6444L5.12583 13.6425L5.1239 13.6406L5.12197 13.6387L5.12004 13.6368L5.11811 13.6349L5.11039 13.631L5.10846 13.6291L5.10074 13.6253L5.09881 13.6234L5.09688 13.6215L5.09302 13.6196L5.09109 13.6177L5.08916 13.6158L5.08723 13.6139L5.0853 13.6119L5.08337 13.61L5.08144 13.6081L5.07951 13.6062L5.07758 13.6043H5.07565L5.07372 13.6024L5.07179 13.6005L5.06986 13.5986L5.06793 13.5967L5.066 13.5947L5.06407 13.5928L5.06214 13.5909L5.06021 13.589L5.05828 13.5871C4.73407 13.3731 4.47354 13.098 4.28635 12.7771C4.0702 12.4064 3.95441 11.9842 3.95441 11.5353V8.07737L4.21301 8.22448H4.21494L5.35934 8.87976V11.5467C5.35934 11.7512 5.40758 11.9365 5.49828 12.0912C5.59092 12.2498 5.72794 12.3854 5.90741 12.4867C6.08303 12.586 6.26829 12.6357 6.45356 12.6357C6.61566 12.6357 6.77777 12.5975 6.93023 12.5249L9.08779 11.2907H9.08972C9.26726 11.1895 9.40428 11.0558 9.49498 10.8991V10.8972C9.58568 10.7424 9.63393 10.5571 9.63393 10.3527C9.63393 10.1483 9.58568 9.96299 9.49498 9.80824V9.80633C9.40428 9.64967 9.26533 9.51403 9.08972 9.41469L6.32233 7.83284H6.3204L5.35934 7.28263L4.91354 7.02854L3.55301 6.25099V6.24907C3.37932 6.14973 3.19213 6.10006 3.00493 6.10006C2.81774 6.10006 2.63054 6.14973 2.45686 6.24907V6.25099C2.27931 6.35224 2.14036 6.48788 2.04773 6.64645C1.95703 6.80119 1.90878 6.98651 1.90878 7.19093V13.5183C1.90878 13.7227 1.95703 13.9081 2.04773 14.0628C2.14036 14.2214 2.27738 14.357 2.45686 14.4583C2.63247 14.5576 2.81774 14.6073 3.003 14.6073C3.1902 14.6073 3.37739 14.5576 3.55301 14.4583L3.74213 14.3494C3.96792 14.5614 4.22073 14.7467 4.49284 14.9034C4.68389 15.0123 4.88267 15.1059 5.0853 15.1823L4.24968 15.6599C3.85213 15.8873 3.42757 16 3.003 16C2.57651 16 2.15001 15.8873 1.75247 15.6599C1.35878 15.4345 1.04807 15.1269 0.833862 14.7601C0.61579 14.3838 0.5 13.9616 0.5 13.5145V7.18519C0.5 6.73624 0.61579 6.31403 0.831932 5.9434C1.04614 5.5766 1.35685 5.2671 1.75054 5.04358H1.75247C2.15001 4.81624 2.57458 4.70352 2.99914 4.70352C3.42371 4.70352 3.8502 4.81624 4.24582 5.04358H4.24968Z" fill="url(#paint0_linear_15696_1755)"/>
<defs>
<linearGradient id="paint0_linear_15696_1755" x1="-1.31066" y1="3.65244" x2="24.6204" y2="-1.41799" gradientUnits="userSpaceOnUse">
<stop stop-color="#46A29F"/>
<stop offset="1" stop-color="#4660A2"/>
</linearGradient>
</defs>
</svg>
