<svg width="49" height="57" viewBox="0 0 49 57" fill="none" xmlns="http://www.w3.org/2000/svg">
<path d="M41.6344 51.8597C41.6344 54.1715 39.7671 56.1276 37.3664 56.1276H5.26794C2.95614 56.1276 1 54.2604 1 51.8597V5.6236C1 3.04506 3.13397 1 5.6236 1H33.0096" stroke="url(#paint0_linear_13858_2244)" stroke-width="1.4" stroke-miterlimit="10" stroke-linecap="round" stroke-linejoin="round"/>
<path d="M41.6328 26.252V9.53589" stroke="url(#paint1_linear_13858_2244)" stroke-width="1.4" stroke-miterlimit="10" stroke-linecap="round" stroke-linejoin="round"/>
<path d="M41.6365 9.53589L33.0117 1V7.22408C33.0117 8.4689 34.0787 9.53589 35.3235 9.53589H41.6365Z" stroke="url(#paint2_linear_13858_2244)" stroke-width="1.4" stroke-miterlimit="10" stroke-linecap="round" stroke-linejoin="round"/>
<path d="M45.1912 35.677C44.9244 35.9438 44.7466 36.1216 44.4798 36.2994C44.8355 37.4553 44.5688 38.7001 43.6796 39.5893C43.0572 40.2117 42.257 40.5674 41.4567 40.5674C41.1011 40.5674 40.8343 40.4785 40.5676 40.3895C40.0341 41.4565 38.9671 42.1678 37.8112 42.1678C36.6553 42.1678 35.5883 41.4565 35.0548 40.3895C33.9878 40.7452 32.743 40.4785 31.9428 39.5893C31.0536 38.7001 30.8758 37.4553 31.1425 36.2994C30.1644 35.7659 29.4531 34.6989 29.4531 33.4541C29.4531 32.2093 30.1644 31.1423 31.1425 30.6088C30.7869 29.4529 31.0536 28.2081 31.9428 27.319C32.8319 26.4298 33.9878 26.1631 35.0548 26.5187C35.5883 25.4517 36.6553 24.7404 37.8112 24.7404C38.7003 24.7404 39.4117 25.0961 40.0341 25.7185C40.3008 25.9852 40.4786 26.252 40.5676 26.5187C41.6345 26.1631 42.8794 26.4298 43.6796 27.319C44.302 27.9414 44.5688 28.8305 44.5688 29.6308C44.5688 29.9864 44.4798 30.2532 44.3909 30.6088C45.369 31.1423 46.0803 32.2093 46.0803 33.4541C46.1692 34.2544 45.8136 35.1435 45.1912 35.677Z" stroke="url(#paint3_linear_13858_2244)" stroke-width="1.4" stroke-miterlimit="10" stroke-linecap="round" stroke-linejoin="round"/>
<path d="M31.767 48.3919L27.4102 49.1922L32.4783 40.0339" stroke="url(#paint4_linear_13858_2244)" stroke-width="1.4" stroke-miterlimit="10" stroke-linecap="round" stroke-linejoin="round"/>
<path d="M37.8119 42.0789L33.2772 53.7268L31.7656 48.3919" stroke="url(#paint5_linear_13858_2244)" stroke-width="1.4" stroke-miterlimit="10" stroke-linecap="round" stroke-linejoin="round"/>
<path d="M43.1445 40.0339L48.3016 49.1922L43.8559 48.3919" stroke="url(#paint6_linear_13858_2244)" stroke-width="1.4" stroke-miterlimit="10" stroke-linecap="round" stroke-linejoin="round"/>
<path d="M37.8086 42.0789L42.3433 53.7268L43.8548 48.3919" stroke="url(#paint7_linear_13858_2244)" stroke-width="1.4" stroke-miterlimit="10" stroke-linecap="round" stroke-linejoin="round"/>
<path d="M10.0703 45.3688L11.9375 47.8585L14.1604 45.3688L17.0946 47.2361L20.8291 45.8134" stroke="url(#paint8_linear_13858_2244)" stroke-width="1.4" stroke-miterlimit="10" stroke-linecap="round" stroke-linejoin="round"/>
<path d="M6.95703 14.693H35.6767" stroke="url(#paint9_linear_13858_2244)" stroke-width="1.4" stroke-miterlimit="10" stroke-linecap="round" stroke-linejoin="round"/>
<path d="M28.3857 22.3397H6.95703" stroke="url(#paint10_linear_13858_2244)" stroke-width="1.4" stroke-miterlimit="10" stroke-linecap="round" stroke-linejoin="round"/>
<path d="M25.8071 29.9865H6.95703" stroke="url(#paint11_linear_13858_2244)" stroke-width="1.4" stroke-miterlimit="10" stroke-linecap="round" stroke-linejoin="round"/>
<path d="M25.8071 37.6332H6.95703" stroke="url(#paint12_linear_13858_2244)" stroke-width="1.4" stroke-miterlimit="10" stroke-linecap="round" stroke-linejoin="round"/>
<defs>
<linearGradient id="paint0_linear_13858_2244" x1="-5.98261" y1="13.5844" x2="93.0953" y2="-8.09924" gradientUnits="userSpaceOnUse">
<stop stop-color="#46A29F"/>
<stop offset="1" stop-color="#4660A2"/>
</linearGradient>
<linearGradient id="paint1_linear_13858_2244" x1="41.461" y1="13.3518" x2="44.0152" y2="13.3064" gradientUnits="userSpaceOnUse">
<stop stop-color="#46A29F"/>
<stop offset="1" stop-color="#4660A2"/>
</linearGradient>
<linearGradient id="paint2_linear_13858_2244" x1="31.5296" y1="2.94855" x2="51.7469" y2="-3.11677" gradientUnits="userSpaceOnUse">
<stop stop-color="#46A29F"/>
<stop offset="1" stop-color="#4660A2"/>
</linearGradient>
<linearGradient id="paint3_linear_13858_2244" x1="26.5936" y1="28.7187" x2="65.9484" y2="17.5612" gradientUnits="userSpaceOnUse">
<stop stop-color="#46A29F"/>
<stop offset="1" stop-color="#4660A2"/>
</linearGradient>
<linearGradient id="paint4_linear_13858_2244" x1="26.5392" y1="42.1245" x2="39.1484" y2="40.0527" gradientUnits="userSpaceOnUse">
<stop stop-color="#46A29F"/>
<stop offset="1" stop-color="#4660A2"/>
</linearGradient>
<linearGradient id="paint5_linear_13858_2244" x1="30.7266" y1="44.7379" x2="45.8168" y2="42.4121" gradientUnits="userSpaceOnUse">
<stop stop-color="#46A29F"/>
<stop offset="1" stop-color="#4660A2"/>
</linearGradient>
<linearGradient id="paint6_linear_13858_2244" x1="42.2583" y1="42.1245" x2="55.0767" y2="39.9813" gradientUnits="userSpaceOnUse">
<stop stop-color="#46A29F"/>
<stop offset="1" stop-color="#4660A2"/>
</linearGradient>
<linearGradient id="paint7_linear_13858_2244" x1="36.7696" y1="44.7379" x2="51.8597" y2="42.4121" gradientUnits="userSpaceOnUse">
<stop stop-color="#46A29F"/>
<stop offset="1" stop-color="#4660A2"/>
</linearGradient>
<linearGradient id="paint8_linear_13858_2244" x1="8.22153" y1="45.9372" x2="18.6093" y2="32.6087" gradientUnits="userSpaceOnUse">
<stop stop-color="#46A29F"/>
<stop offset="1" stop-color="#4660A2"/>
</linearGradient>
<linearGradient id="paint9_linear_13858_2244" x1="2.02184" y1="14.9213" x2="3.01731" y2="6.43261" gradientUnits="userSpaceOnUse">
<stop stop-color="#46A29F"/>
<stop offset="1" stop-color="#4660A2"/>
</linearGradient>
<linearGradient id="paint10_linear_13858_2244" x1="3.27474" y1="22.568" x2="4.59466" y2="14.17" gradientUnits="userSpaceOnUse">
<stop stop-color="#46A29F"/>
<stop offset="1" stop-color="#4660A2"/>
</linearGradient>
<linearGradient id="paint11_linear_13858_2244" x1="3.71783" y1="30.2147" x2="5.20781" y2="21.8755" gradientUnits="userSpaceOnUse">
<stop stop-color="#46A29F"/>
<stop offset="1" stop-color="#4660A2"/>
</linearGradient>
<linearGradient id="paint12_linear_13858_2244" x1="3.71783" y1="37.8615" x2="5.20781" y2="29.5223" gradientUnits="userSpaceOnUse">
<stop stop-color="#46A29F"/>
<stop offset="1" stop-color="#4660A2"/>
</linearGradient>
</defs>
</svg>
