<svg width="226" height="84" viewBox="0 0 226 84" fill="none" xmlns="http://www.w3.org/2000/svg">
<g clip-path="url(#clip0)">
<path d="M212.55 62.24C209.16 62.24 206.63 60.29 206.63 57.3C206.63 54.26 209.16 52.3 212.55 52.3C215.19 52.3 217.78 53.28 219.15 55.17V59.36C217.77 61.26 215.19 62.24 212.55 62.24ZM225.18 65.68V47.31C225.18 39.84 219.78 37.26 213.64 37.26C209.22 37.26 205.2 38.7 201.98 41.74L204.45 45.93C206.86 43.58 209.56 42.43 212.66 42.43C216.51 42.43 219.15 44.38 219.15 47.6V51.73C217.14 49.38 213.92 48.17 210.19 48.17C205.65 48.17 200.54 50.81 200.54 57.19C200.54 63.33 205.65 66.38 210.19 66.38C213.86 66.38 217.08 65.06 219.15 62.7V65.69H225.18V65.68ZM188.31 65.68V46.79C189.52 44.84 192.9 43.12 195.43 43.12C196.18 43.12 196.81 43.18 197.32 43.29V37.32C193.7 37.32 190.37 39.39 188.3 42.03V37.95H182.27V65.69H188.31V65.68ZM170.46 49.54H154.84C155.13 46.15 157.48 42.19 162.65 42.19C168.1 42.19 170.34 46.27 170.46 49.54ZM163.1 66.37C167.52 66.37 171.6 64.99 174.35 62.35L171.59 58.39C169.64 60.34 166.42 61.43 163.72 61.43C158.49 61.43 155.34 57.98 154.88 53.79H176.3V52.35C176.3 43.62 170.96 37.25 162.63 37.25C154.42 37.25 148.56 43.74 148.56 51.78C148.58 60.57 154.78 66.37 163.1 66.37ZM140.31 66.37C143.12 66.37 144.9 65.62 146 64.59L144.56 60.05C144.1 60.57 143.01 61.03 141.86 61.03C140.14 61.03 139.22 59.65 139.22 57.76V43.23H144.85V37.95H139.22V30.37H133.19V37.95H128.6V43.23H133.19V59.25C133.19 63.84 135.66 66.37 140.31 66.37ZM124.17 65.68V37.94H118.14V65.68H124.17ZM121.13 34.56C123.2 34.56 124.86 32.89 124.86 30.83C124.86 28.76 123.19 27.1 121.13 27.1C119.12 27.1 117.4 28.77 117.4 30.83C117.39 32.89 119.12 34.56 121.13 34.56ZM110.33 65.68V45.64C110.33 40.01 107.46 37.26 102.35 37.26C98.22 37.26 94.54 39.84 92.93 42.37C92.01 39.33 89.48 37.26 85.35 37.26C81.16 37.26 77.48 40.02 76.33 41.74V37.95H70.3V65.69H76.33V46.33C77.59 44.49 80.06 42.6 82.7 42.6C85.97 42.6 87.29 44.61 87.29 47.6V65.69H93.32V46.27C94.53 44.49 97.05 42.59 99.75 42.59C102.97 42.59 104.29 44.6 104.29 47.59V65.68H110.33Z" fill="#96999B"/>
<path d="M12.57 0C17.79 0 22.03 4.23 22.03 9.46C22.03 14.68 17.8 18.92 12.57 18.92C7.35 18.92 3.11 14.69 3.11 9.46C3.12 4.23 7.35 0 12.57 0ZM33.03 51.87C35.67 51.87 37.81 54.01 37.81 56.65C37.81 59.29 35.67 61.43 33.03 61.43C30.39 61.43 28.25 59.29 28.25 56.65C28.24 54.01 30.39 51.87 33.03 51.87ZM19.43 26.4L33.77 34.68V34.69L48.1 42.96C50.14 44.14 51.76 45.75 52.87 47.68H52.88C54 49.62 54.6 51.83 54.6 54.18C54.6 56.53 54 58.74 52.88 60.68H52.87C51.76 62.6 50.15 64.21 48.11 65.39V65.4L37.76 71.38L37.27 71.66L37.25 71.67L36.34 72.2V72.16C35.08 72.76 33.78 73.16 32.47 73.33H32.46H32.44H32.41H32.38H32.35H32.34H32.32H32.29H32.26H32.23H32.22H32.2H32.17H32.14H32.11H32.1H32.08H32.05H32.02H31.99H31.98H31.96H31.93H31.9H31.87H31.86H31.84H31.81H31.78H31.75H31.74H31.72H31.69H31.66H31.63H31.61H31.58H31.55H31.52H31.5H31.47H31.44H31.41H31.39H31.36H31.33H31.3H31.28H31.25H31.22H31.19H31.17H31.14H31.11H31.08H31.06H31.03H31H30.97H30.95H30.92H30.89H30.86H31H30.97H30.94H30.91H30.9H30.87H30.84H30.81C28.6 73.33 26.39 72.74 24.33 71.55L24.32 71.54L24.31 71.53L24.3 71.52L24.29 71.51L24.28 71.5L24.27 71.49L24.26 71.48H24.25L24.24 71.47L24.23 71.46L24.22 71.45L24.21 71.44L24.2 71.43L24.19 71.42L24.18 71.41H24.17L24.16 71.4L24.15 71.39L24.14 71.38L24.1 71.5L24.09 71.49L24.08 71.48L24.07 71.47H24.06L24.05 71.46L24.04 71.45L24.03 71.44H24L23.99 71.43L23.98 71.42L23.97 71.41L23.96 71.4L23.95 71.39L23.94 71.38L23.93 71.37L23.89 71.35L23.88 71.34L23.84 71.32L23.83 71.31L23.82 71.3L23.8 71.29L23.79 71.28L23.78 71.27L23.77 71.26L23.76 71.25L23.75 71.24L23.74 71.23L23.73 71.22L23.72 71.21H23.71L23.7 71.2L23.69 71.19L23.68 71.18L23.67 71.17L23.66 71.16L23.65 71.15L23.64 71.14L23.63 71.13L23.62 71.12C21.94 70 20.59 68.56 19.62 66.88C18.5 64.94 17.9 62.73 17.9 60.38V42.28L19.24 43.05H19.25L25.18 46.48V60.44C25.18 61.51 25.43 62.48 25.9 63.29C26.38 64.12 27.09 64.83 28.02 65.36C28.93 65.88 29.89 66.14 30.85 66.14C31.69 66.14 32.53 65.94 33.32 65.56L44.5 59.1H44.51C45.43 58.57 46.14 57.87 46.61 57.05V57.04C47.08 56.23 47.33 55.26 47.33 54.19C47.33 53.12 47.08 52.15 46.61 51.34V51.33C46.14 50.51 45.42 49.8 44.51 49.28L30.17 41H30.16L25.18 38.12L22.87 36.79L15.82 32.72V32.71C14.92 32.19 13.95 31.93 12.98 31.93C12.01 31.93 11.04 32.19 10.14 32.71V32.72C9.22 33.25 8.5 33.96 8.02 34.79C7.55 35.6 7.3 36.57 7.3 37.64V70.76C7.3 71.83 7.55 72.8 8.02 73.61C8.5 74.44 9.21 75.15 10.14 75.68C11.05 76.2 12.01 76.46 12.97 76.46C13.94 76.46 14.91 76.2 15.82 75.68L16.8 75.11C17.97 76.22 19.28 77.19 20.69 78.01C21.68 78.58 22.71 79.07 23.76 79.47L19.43 81.97C17.37 83.16 15.17 83.75 12.97 83.75C10.76 83.75 8.55 83.16 6.49 81.97C4.45 80.79 2.84 79.18 1.73 77.26C0.6 75.29 0 73.08 0 70.74V37.61C0 35.26 0.6 33.05 1.72 31.11C2.83 29.19 4.44 27.57 6.48 26.4H6.49C8.55 25.21 10.75 24.62 12.95 24.62C15.15 24.62 17.36 25.21 19.41 26.4H19.43Z" fill="url(#paint0_linear)"/>
</g>
<defs>
<linearGradient id="paint0_linear" x1="-9.38246" y1="19.1183" x2="125.086" y2="-6.91077" gradientUnits="userSpaceOnUse">
<stop stop-color="#46A29F"/>
<stop offset="1" stop-color="#4660A2"/>
</linearGradient>
<clipPath id="clip0">
<rect width="225.18" height="83.72" fill="white"/>
</clipPath>
</defs>
</svg>
