<svg width="563" height="157" viewBox="0 0 563 157" fill="none" xmlns="http://www.w3.org/2000/svg">
<path d="M24.6789 0C34.5489 0 42.5658 7.90549 42.5658 17.6799C42.5658 27.4356 34.5678 35.3598 24.6789 35.3598C14.809 35.3598 6.79199 27.4543 6.79199 17.6799C6.8109 7.90549 14.809 0 24.6789 0ZM63.3646 96.9403C68.3563 96.9403 72.4026 100.94 72.4026 105.874C72.4026 110.808 68.3563 114.807 63.3646 114.807C58.3729 114.807 54.3266 110.808 54.3266 105.874C54.3077 100.94 58.3729 96.9403 63.3646 96.9403ZM37.6498 49.3392L64.7637 64.8138V64.8325L91.8588 80.2884C95.716 82.4937 98.7791 85.5026 100.878 89.1096H100.897C103.015 92.7353 104.149 96.8656 104.149 101.258C104.149 105.649 103.015 109.78 100.897 113.405H100.878C98.7791 116.994 95.735 120.003 91.8777 122.208V122.227L72.308 133.403L71.3815 133.926L71.3437 133.945L69.6231 134.935V134.861C67.2407 135.982 64.7827 136.729 62.3057 137.047H62.2868H62.249H62.1923H62.1355H62.0788H62.0599H62.0221H61.9654H61.9086H61.8519H61.833H61.7952H61.7385H61.6817H61.625H61.6061H61.5683H61.5116H61.4549H61.3981H61.3792H61.3414H61.2847H61.228H61.1712H61.1523H61.1145H61.0578H61.0011H60.9443H60.9254H60.8876H60.8309H60.7742H60.7174H60.6796H60.6229H60.5662H60.5095H60.4716H60.4149H60.3582H60.3015H60.2637H60.2069H60.1502H60.0935H60.0557H59.9989H59.9422H59.8855H59.8477H59.791H59.7342H59.6775H59.6397H59.583H59.5262H59.4695H59.4317H59.375H59.3183H59.2615H59.5262H59.4695H59.4128H59.3561H59.3372H59.2804H59.2237H59.167C54.9883 137.047 50.8097 135.944 46.9146 133.72L46.8957 133.702L46.8768 133.683L46.8579 133.664L46.839 133.646L46.8201 133.627L46.8012 133.608L46.7823 133.59H46.7634L46.7445 133.571L46.7256 133.552L46.7067 133.534L46.6877 133.515L46.6688 133.496L46.6499 133.478L46.631 133.459H46.6121L46.5932 133.44L46.5743 133.421L46.5554 133.403L46.4798 133.627L46.4609 133.608L46.4419 133.59L46.423 133.571H46.4041L46.3852 133.552L46.3663 133.534L46.3474 133.515H46.2907L46.2718 133.496L46.2529 133.478L46.234 133.459L46.215 133.44L46.1961 133.421L46.1772 133.403L46.1583 133.384L46.0827 133.347L46.0638 133.328L45.9882 133.291L45.9692 133.272L45.9503 133.253L45.9125 133.235L45.8936 133.216L45.8747 133.197L45.8558 133.178L45.8369 133.16L45.818 133.141L45.7991 133.122L45.7802 133.104L45.7613 133.085H45.7424L45.7234 133.066L45.7045 133.048L45.6856 133.029L45.6667 133.01L45.6478 132.992L45.6289 132.973L45.61 132.954L45.5911 132.936L45.5722 132.917C42.3956 130.824 39.8431 128.132 38.009 124.993C35.8913 121.367 34.7568 117.237 34.7568 112.845V79.0175L37.2905 80.4566H37.3094L48.5218 86.8669V112.957C48.5218 114.957 48.9945 116.769 49.8832 118.283C50.7908 119.834 52.1332 121.161 53.8917 122.152C55.6123 123.124 57.4275 123.61 59.2426 123.61C60.8309 123.61 62.4192 123.236 63.9129 122.526L85.052 110.453H85.0709C86.8104 109.462 88.1529 108.154 89.0415 106.621V106.603C89.9302 105.089 90.4029 103.276 90.4029 101.276C90.4029 99.2765 89.9302 97.4636 89.0415 95.9498V95.9311C88.1529 94.3986 86.7915 93.0717 85.0709 92.0999L57.9569 76.6253H57.938L48.5218 71.2428L44.1541 68.7572L30.824 61.1507V61.132C29.1223 60.1602 27.2882 59.6743 25.4541 59.6743C23.6201 59.6743 21.786 60.1602 20.0843 61.132V61.1507C18.3447 62.1412 16.9834 63.4682 16.0758 65.0194C15.1871 66.5332 14.7144 68.346 14.7144 70.3457V132.244C14.7144 134.244 15.1871 136.057 16.0758 137.57C16.9834 139.122 18.3258 140.449 20.0843 141.439C21.8049 142.411 23.6201 142.897 25.4352 142.897C27.2693 142.897 29.1034 142.411 30.824 141.439L32.677 140.374C34.8892 142.448 37.3661 144.261 40.0322 145.794C41.904 146.859 43.8516 147.775 45.8369 148.522L37.6498 153.195C33.7547 155.419 29.595 156.521 25.4352 156.521C21.2566 156.521 17.0779 155.419 13.1829 153.195C9.32565 150.989 6.28148 147.98 4.1827 144.392C2.0461 140.71 0.911621 136.58 0.911621 132.207V70.2897C0.911621 65.8978 2.0461 61.7675 4.16379 58.1418C6.26257 54.5535 9.30675 51.5258 13.164 49.3392H13.1829C17.0779 47.1152 21.2377 46.0126 25.3974 46.0126C29.5572 46.0126 33.7358 47.1152 37.6119 49.3392H37.6498Z" fill="#46A29F"/>
<path d="M168.489 63.3184L164.36 53.3276H142.713L138.584 63.3184H127.527L148.308 16.695H158.965L179.812 63.3184H168.489ZM146.177 45.1353H160.963L153.57 27.2852L146.177 45.1353ZM210.699 27.485H220.557V57.3239C220.557 70.6449 213.364 76.7725 200.442 76.7725C193.649 76.7725 187.055 75.1074 182.859 71.8438L186.988 64.384C190.052 66.8484 195.047 68.4469 199.643 68.4469C206.97 68.4469 210.167 65.1167 210.167 58.656V57.1241C207.436 60.1213 203.506 61.5866 198.844 61.5866C188.92 61.5866 180.927 54.7263 180.927 44.2694C180.927 33.8125 188.92 26.9522 198.844 26.9522C203.839 26.9522 207.969 28.6173 210.699 32.0807V27.485ZM200.909 53.0612C206.37 53.0612 210.3 49.5312 210.3 44.2694C210.3 39.0076 206.37 35.4776 200.909 35.4776C195.447 35.4776 191.451 39.0076 191.451 44.2694C191.451 49.5312 195.447 53.0612 200.909 53.0612ZM265.328 45.5349C265.328 46.3341 265.195 47.4664 265.129 48.3323H238.02C239.019 52.7948 242.816 55.5256 248.278 55.5256C252.074 55.5256 254.805 54.3933 257.269 52.0622L262.797 58.0566C259.467 61.8531 254.472 63.8512 248.011 63.8512C235.623 63.8512 227.563 56.0584 227.563 45.4017C227.563 34.6783 235.756 26.9522 246.679 26.9522C257.203 26.9522 265.328 34.0123 265.328 45.5349ZM246.746 34.8115C242.017 34.8115 238.62 37.6755 237.887 42.2713H255.537C254.805 37.7421 251.408 34.8115 246.746 34.8115ZM294.026 26.9522C302.484 26.9522 308.878 31.8809 308.878 42.8041V63.3184H298.488V44.4026C298.488 38.608 295.824 35.9438 291.228 35.9438C286.233 35.9438 282.636 39.0076 282.636 45.6015V63.3184H272.246V27.485H282.17V31.6811C284.967 28.6173 289.163 26.9522 294.026 26.9522ZM336.004 63.8512C324.348 63.8512 316.023 56.1917 316.023 45.4017C316.023 34.6117 324.348 26.9522 336.004 26.9522C343.531 26.9522 349.458 30.2158 352.056 36.077L343.997 40.4063C342.065 37.0095 339.201 35.4776 335.938 35.4776C330.676 35.4776 326.546 39.1408 326.546 45.4017C326.546 51.6625 330.676 55.3258 335.938 55.3258C339.201 55.3258 342.065 53.8605 343.997 50.397L352.056 54.793C349.458 60.521 343.531 63.8512 336.004 63.8512ZM383.094 27.485H393.085L376.9 65.5163C373.437 74.1749 368.508 76.7725 362.047 76.7725C358.384 76.7725 354.388 75.5736 352.057 73.5089L355.853 66.1158C357.452 67.5145 359.649 68.3803 361.714 68.3803C364.578 68.3803 366.177 67.1148 367.575 63.9178L367.709 63.5848L352.19 27.485H362.913L372.97 51.7957L383.094 27.485ZM193.799 93.695H204.123L188.87 140.318H177.281L167.024 108.748L156.434 140.318H144.911L129.592 93.695H140.782L151.305 126.465L162.295 93.695H172.286L182.942 126.731L193.799 93.695ZM223.798 140.851C212.408 140.851 204.083 133.192 204.083 122.402C204.083 111.612 212.408 103.952 223.798 103.952C235.187 103.952 243.446 111.612 243.446 122.402C243.446 133.192 235.187 140.851 223.798 140.851ZM223.798 132.326C228.993 132.326 232.923 128.596 232.923 122.402C232.923 116.207 228.993 112.478 223.798 112.478C218.602 112.478 214.606 116.207 214.606 122.402C214.606 128.596 218.602 132.326 223.798 132.326ZM260.315 109.214C262.846 105.75 267.109 103.952 272.637 103.952V113.543C271.771 113.477 271.105 113.41 270.306 113.41C264.578 113.41 260.782 116.54 260.782 123.401V140.318H250.391V104.485H260.315V109.214ZM305.524 140.318L294.201 126.265L289.206 131.194V140.318H278.815V90.8976H289.206V118.872L304.391 104.485H316.78L301.86 119.671L318.112 140.318H305.524ZM343.965 103.952C354.022 103.952 361.815 111.145 361.815 122.402C361.815 133.658 354.022 140.851 343.965 140.851C339.17 140.851 335.306 139.319 332.709 136.189V140.318H322.785V90.8976H333.175V108.281C335.839 105.351 339.503 103.952 343.965 103.952ZM342.167 132.326C347.362 132.326 351.292 128.596 351.292 122.402C351.292 116.207 347.362 112.478 342.167 112.478C336.972 112.478 333.042 116.207 333.042 122.402C333.042 128.596 336.972 132.326 342.167 132.326ZM403.871 122.535C403.871 123.334 403.738 124.466 403.672 125.332H376.563C377.563 129.795 381.359 132.526 386.821 132.526C390.617 132.526 393.348 131.393 395.812 129.062L401.34 135.057C398.01 138.853 393.015 140.851 386.554 140.851C374.166 140.851 366.106 133.058 366.106 122.402C366.106 111.678 374.299 103.952 385.222 103.952C395.746 103.952 403.871 111.012 403.871 122.535ZM385.289 111.812C380.56 111.812 377.163 114.676 376.43 119.271H394.08C393.348 114.742 389.951 111.812 385.289 111.812ZM432.569 103.952C441.027 103.952 447.422 108.881 447.422 119.804V140.318H437.031V121.403C437.031 115.608 434.367 112.944 429.771 112.944C424.776 112.944 421.179 116.008 421.179 122.601V140.318H410.789V104.485H420.713V108.681C423.51 105.617 427.707 103.952 432.569 103.952ZM474.547 140.851C462.892 140.851 454.566 133.192 454.566 122.402C454.566 111.612 462.892 103.952 474.547 103.952C482.074 103.952 488.002 107.216 490.599 113.077L482.54 117.406C480.608 114.009 477.744 112.478 474.481 112.478C469.219 112.478 465.089 116.141 465.089 122.402C465.089 128.663 469.219 132.326 474.481 132.326C477.744 132.326 480.608 130.86 482.54 127.397L490.599 131.793C488.002 137.521 482.074 140.851 474.547 140.851ZM518.101 103.952C526.56 103.952 532.954 108.881 532.954 119.804V140.318H522.564V121.403C522.564 115.608 519.899 112.944 515.304 112.944C510.308 112.944 506.712 116.008 506.712 122.601V140.318H496.321V90.8976H506.712V108.215C509.509 105.417 513.505 103.952 518.101 103.952Z" fill="#949096"/>
<path d="M532.317 89.5753V88.4263H541.459V89.5753H537.587V98.7917H536.214V89.5753H532.317ZM554.871 98.7917H553.572L553.547 90.7991L549.276 97.5179H548.652L544.381 90.949V98.7917H543.057V88.4263H544.181L548.977 95.9194L553.747 88.4263H554.846L554.871 98.7917Z" fill="#949096"/>
</svg>
