<?xml version="1.0" encoding="utf-8"?><svg xmlns="http://www.w3.org/2000/svg" xmlns:xlink="http://www.w3.org/1999/xlink"><defs><svg viewBox="0 0 16 16" id="ic_apple" xmlns="http://www.w3.org/2000/svg"><path d="M11.834 8.397c-.006-1.147.513-2.013 1.563-2.65-.588-.84-1.475-1.303-2.647-1.394C9.64 4.266 8.428 5 7.984 5c-.468 0-1.543-.616-2.387-.616C3.853 4.412 2 5.775 2 8.547c0 .819.15 1.664.45 2.537.4 1.147 1.844 3.96 3.35 3.913.788-.019 1.344-.56 2.369-.56.993 0 1.51.56 2.387.56 1.519-.022 2.825-2.578 3.207-3.728-2.038-.96-1.929-2.813-1.929-2.872zm-1.768-5.131c.853-1.013.775-1.935.75-2.266-.754.044-1.625.512-2.122 1.09-.547.62-.869 1.385-.8 2.248.815.062 1.56-.357 2.172-1.072z"/></svg><svg fill="none" viewBox="0 0 11 8" id="ic_arrow_down_grey" xmlns="http://www.w3.org/2000/svg"><g clip-path="url(#bclip0_13213_4158)"><path d="M8.945 3.402l.41.396a.417.417 0 010 .606L5.767 7.875a.452.452 0 01-.626 0l-3.59-3.471a.417.417 0 010-.606l.41-.396a.454.454 0 01.634.007l2.12 2.152V.429c0-.238.197-.429.443-.429h.59c.246 0 .444.191.444.429V5.56l2.12-2.152a.451.451 0 01.633-.007z" fill="#949096"/></g><defs><clipPath id="bclip0_13213_4158"><path fill="#fff" transform="rotate(90 5.09 5.09)" d="M0 0h8v9.455H0z"/></clipPath></defs></svg><svg viewBox="0 0 8 10" id="ic_arrow_right" xmlns="http://www.w3.org/2000/svg"><g clip-path="url(#cclip0)"><path d="M3.402 1.508l.396-.41a.417.417 0 01.606 0l3.471 3.588a.452.452 0 010 .626l-3.471 3.59a.417.417 0 01-.606 0l-.396-.41a.454.454 0 01.007-.634l2.152-2.12H.429A.435.435 0 010 5.296v-.59c0-.246.191-.444.429-.444H5.56l-2.152-2.12a.451.451 0 01-.007-.633z"/></g><defs><linearGradient id="cpaint0_linear" x1="0" y1="1.01" x2="8.536" y2="8.461" gradientUnits="userSpaceOnUse"><stop stop-color="#F99073"/><stop offset="1" stop-color="#D2957E"/></linearGradient><clipPath id="cclip0"><path fill="#fff" transform="translate(0 .273)" d="M0 0h8v9.455H0z"/></clipPath></defs></svg><svg fill="none" viewBox="0 0 8 10" id="ic_arrow_right_orange" xmlns="http://www.w3.org/2000/svg"><g clip-path="url(#dclip0_13214_4123)"><path d="M3.4 1.508l.397-.41a.417.417 0 01.606 0l3.471 3.588a.452.452 0 010 .626l-3.471 3.59a.417.417 0 01-.606 0l-.396-.41a.454.454 0 01.007-.633l2.152-2.12H.428a.435.435 0 01-.429-.444v-.59c0-.246.191-.444.429-.444H5.56l-2.152-2.12a.451.451 0 01-.007-.633z" fill="url(#dpaint0_linear_13214_4123)"/></g><defs><linearGradient id="dpaint0_linear_13214_4123" x1="-.001" y1="1.01" x2="8.535" y2="8.461" gradientUnits="userSpaceOnUse"><stop stop-color="#F99073"/><stop offset="1" stop-color="#D2957E"/></linearGradient><clipPath id="dclip0_13214_4123"><path fill="#fff" transform="rotate(180 4 4.864)" d="M0 0h8v9.455H0z"/></clipPath></defs></svg><svg viewBox="0 0 24 24" id="ic_facebook" xmlns="http://www.w3.org/2000/svg"><path d="M13.397 20.997v-8.196h2.765l.411-3.209h-3.176V7.548c0-.926.258-1.56 1.587-1.56h1.684v-2.86A22.336 22.336 0 0014.201 3c-2.444 0-4.122 1.492-4.122 4.231v2.355H7.332v3.21h2.753v8.201h3.312z"/><defs><linearGradient id="epaint0_linear" x1="7.332" y1="3.093" x2="21.856" y2="9.722" gradientUnits="userSpaceOnUse"><stop stop-color="#F99073"/><stop offset="1" stop-color="#D2957E"/></linearGradient></defs></svg><svg viewBox="0 0 16 16" id="ic_google-play" xmlns="http://www.w3.org/2000/svg"><path d="M10.166 7.322L3.269.406l8.775 5.038-1.878 1.878zM1.469 0C1.062.212.79.6.79 1.103v13.79c0 .504.271.891.678 1.104l8.018-8L1.47 0zm13.287 7.05l-1.84-1.066L10.863 8l2.053 2.016 1.878-1.066c.562-.447.562-1.453-.038-1.9zM3.27 15.594l8.775-5.038-1.878-1.878-6.897 6.916z"/></svg><svg fill="none" viewBox="0 0 41 41" id="ic_header_cta_decor" xmlns="http://www.w3.org/2000/svg"><path opacity=".2" d="M18.811 9.162c6.68-1.096 21.383-1.319 21.187 12.074-.196 13.392-13.395 18.09-19.97 18.764-6.383-.123-19.126-4.047-19.027-18.764C1.099 6.519 15.09 1.613 22.075 1" stroke="url(#gpaint0_linear)"/><defs><linearGradient id="gpaint0_linear" x1="1" y1="1.202" x2="42.325" y2="37.56" gradientUnits="userSpaceOnUse"><stop stop-color="#F99073"/><stop offset="1" stop-color="#D2957E"/></linearGradient></defs></svg><svg fill="none" viewBox="0 0 16 17" id="ic_info_circle" xmlns="http://www.w3.org/2000/svg"><path d="M8 1.833A6.674 6.674 0 001.333 8.5 6.674 6.674 0 008 15.167 6.674 6.674 0 0014.667 8.5 6.674 6.674 0 008 1.833zm0 12A5.34 5.34 0 012.667 8.5 5.34 5.34 0 018 3.167 5.34 5.34 0 0113.333 8.5 5.34 5.34 0 018 13.833z" fill="url(#hpaint0_linear)"/><path d="M7.333 7.833h1.334v4H7.333v-4zm0-2.666h1.334V6.5H7.333V5.167z" fill="url(#hpaint1_linear)"/><defs><linearGradient id="hpaint0_linear" x1="1.333" y1="1.902" x2="15.461" y2="14.332" gradientUnits="userSpaceOnUse"><stop stop-color="#F99073"/><stop offset="1" stop-color="#D2957E"/></linearGradient><linearGradient id="hpaint1_linear" x1="7.333" y1="5.201" x2="9.764" y2="5.629" gradientUnits="userSpaceOnUse"><stop stop-color="#F99073"/><stop offset="1" stop-color="#D2957E"/></linearGradient></defs></svg><svg fill="none" viewBox="0 0 16 17" id="ic_info_circle_hover" xmlns="http://www.w3.org/2000/svg"><path d="M8 1.833A6.674 6.674 0 001.333 8.5 6.674 6.674 0 008 15.167 6.674 6.674 0 0014.667 8.5 6.674 6.674 0 008 1.833z" fill="url(#ipaint0_linear)"/><path d="M7.333 7.833h1.334v4H7.333v-4zm0-2.666h1.334V6.5H7.333V5.167z" fill="#fff"/><defs><linearGradient id="ipaint0_linear" x1="1.333" y1="1.902" x2="15.461" y2="14.332" gradientUnits="userSpaceOnUse"><stop stop-color="#F99073"/><stop offset="1" stop-color="#D2957E"/></linearGradient></defs></svg><svg viewBox="0 0 24 24" id="ic_instagram" xmlns="http://www.w3.org/2000/svg"><path d="M11.999 7.377A4.623 4.623 0 007.376 12a4.623 4.623 0 104.623-4.623zm0 7.627a3.004 3.004 0 110-6.008 3.004 3.004 0 010 6.008zM16.806 8.285a1.078 1.078 0 100-2.156 1.078 1.078 0 000 2.156z"/><path d="M20.533 6.11A4.605 4.605 0 0017.9 3.48a6.606 6.606 0 00-2.186-.42c-.963-.042-1.268-.054-3.71-.054s-2.755 0-3.71.054a6.554 6.554 0 00-2.184.42A4.6 4.6 0 003.477 6.11a6.585 6.585 0 00-.419 2.186c-.043.962-.056 1.267-.056 3.71 0 2.442 0 2.753.056 3.71.015.748.156 1.486.419 2.187a4.61 4.61 0 002.634 2.632 6.584 6.584 0 002.185.45c.963.042 1.268.055 3.71.055s2.755 0 3.71-.055a6.615 6.615 0 002.186-.42 4.613 4.613 0 002.633-2.632c.263-.7.404-1.438.419-2.186.043-.962.056-1.267.056-3.71s0-2.753-.056-3.71a6.581 6.581 0 00-.421-2.217zm-1.218 9.533a5.043 5.043 0 01-.311 1.688 2.987 2.987 0 01-1.712 1.71 4.985 4.985 0 01-1.67.312c-.95.044-1.218.055-3.654.055-2.438 0-2.687 0-3.655-.055a4.96 4.96 0 01-1.669-.311 2.985 2.985 0 01-1.719-1.711 5.08 5.08 0 01-.311-1.67c-.043-.95-.053-1.217-.053-3.653 0-2.437 0-2.686.053-3.655a5.038 5.038 0 01.311-1.687c.305-.79.93-1.41 1.719-1.712a5.01 5.01 0 011.669-.311c.951-.043 1.218-.055 3.655-.055s2.687 0 3.654.055a4.96 4.96 0 011.67.31 2.991 2.991 0 011.712 1.713 5.08 5.08 0 01.311 1.669c.043.95.054 1.218.054 3.655 0 2.436 0 2.698-.043 3.654h-.011v-.001z"/><defs><linearGradient id="jpaint0_linear" x1="7.376" y1="7.425" x2="17.174" y2="16.044" gradientUnits="userSpaceOnUse"><stop stop-color="#F99073"/><stop offset="1" stop-color="#D2957E"/></linearGradient><linearGradient id="jpaint1_linear" x1="15.728" y1="6.14" x2="18.012" y2="8.15" gradientUnits="userSpaceOnUse"><stop stop-color="#F99073"/><stop offset="1" stop-color="#D2957E"/></linearGradient><linearGradient id="jpaint2_linear" x1="3.002" y1="3.098" x2="22.109" y2="19.883" gradientUnits="userSpaceOnUse"><stop stop-color="#F99073"/><stop offset="1" stop-color="#D2957E"/></linearGradient></defs></svg><svg viewBox="0 0 24 24" id="ic_linkedin" xmlns="http://www.w3.org/2000/svg"><path d="M4.983 7.197a2.188 2.188 0 100-4.376 2.188 2.188 0 000 4.376zM9.237 8.855v12.14h3.769V14.99c0-1.584.298-3.118 2.262-3.118 1.937 0 1.961 1.811 1.961 3.218v5.904H21v-6.657c0-3.27-.704-5.783-4.526-5.783-1.835 0-3.065 1.007-3.568 1.96h-.051v-1.66H9.237zm-6.142 0H6.87v12.14H3.095V8.854z"/></svg><svg fill="none" viewBox="0 0 24 24" id="ic_location" xmlns="http://www.w3.org/2000/svg"><path d="M12 1.5a8.26 8.26 0 00-8.25 8.25 8.167 8.167 0 001.662 4.95s.225.296.262.339L12 22.5l6.33-7.465.258-.335v-.002A8.164 8.164 0 0020.25 9.75 8.26 8.26 0 0012 1.5zm0 11.25a3 3 0 110-5.999 3 3 0 010 5.999z" fill="#E69379"/></svg><svg fill="none" viewBox="0 0 24 24" id="ic_mail" xmlns="http://www.w3.org/2000/svg"><path d="M22 8.608v8.142a3.25 3.25 0 01-3.066 3.245L18.75 20H5.25a3.25 3.25 0 01-3.245-3.066L2 16.75V8.608l9.652 5.056a.75.75 0 00.696 0L22 8.608zM5.25 4h13.5a3.25 3.25 0 013.234 2.924L12 12.154l-9.984-5.23a3.25 3.25 0 013.048-2.919L5.25 4h13.5-13.5z" fill="#E69379"/></svg><svg fill="none" viewBox="0 0 24 24" id="ic_phone" xmlns="http://www.w3.org/2000/svg"><path d="M3.84 5.844L6.165 3.52a1.766 1.766 0 012.505 0l2.503 2.503a1.766 1.766 0 010 2.506l-1.83 1.83a8.603 8.603 0 001.758 2.537 8.635 8.635 0 002.537 1.765l1.83-1.83a1.766 1.766 0 012.506 0l2.505 2.5a1.769 1.769 0 010 2.508l-2.322 2.322a2.871 2.871 0 01-2.488.8c-2.945-.485-5.865-2.051-8.222-4.406-2.355-2.353-3.92-5.271-4.41-8.225-.15-.902.15-1.83.801-2.486z" fill="#E69379"/></svg><svg fill="none" viewBox="0 0 24 24" id="ic_phone_old" xmlns="http://www.w3.org/2000/svg"><path d="M20.844 14.091c-.11-.767-.703-1.365-1.465-1.543-2.964-.695-3.707-2.402-3.832-4.294-.525-.098-1.46-.204-3.047-.204-1.587 0-2.522.106-3.048.204-.125 1.893-.868 3.6-3.832 4.294-.762.18-1.354.776-1.465 1.543l-.571 3.958c-.202 1.394.822 2.651 2.246 2.651h13.34c1.422 0 2.447-1.257 2.246-2.65l-.572-3.959zM12.5 17.816c-1.605 0-2.905-1.288-2.905-2.875s1.3-2.875 2.905-2.875c1.604 0 2.905 1.288 2.905 2.875s-1.302 2.875-2.905 2.875zM23.942 6.9c-.027-1.725-4.418-4.599-11.442-4.6-7.026.001-11.416 2.875-11.443 4.6-.026 1.725.024 3.97 2.915 3.596 3.383-.438 3.174-1.62 3.174-3.307 0-1.178 2.751-1.462 5.354-1.462 2.602 0 5.352.284 5.353 1.462 0 1.688-.208 2.869 3.174 3.307 2.89.374 2.942-1.871 2.915-3.596z" fill="#E69379"/></svg><svg fill="none" viewBox="0 0 23 16" id="ic_slider_arrov_left" xmlns="http://www.w3.org/2000/svg"><path opacity=".2" d="M.293 7.293a1 1 0 000 1.414l6.364 6.364a1 1 0 001.414-1.414L2.414 8l5.657-5.657A1 1 0 006.657.93L.293 7.293zM23 7H1v2h22V7z"/></svg><svg fill="none" viewBox="0 0 23 16" id="ic_slider_arrov_right" xmlns="http://www.w3.org/2000/svg"><path d="M22.707 8.707a1 1 0 000-1.414L16.343.929a1 1 0 10-1.414 1.414L20.586 8l-5.657 5.657a1 1 0 001.414 1.414l6.364-6.364zM0 9h22V7H0v2z" fill="red"/></svg><svg viewBox="0 0 24 24" id="ic_twitter" xmlns="http://www.w3.org/2000/svg"><path d="M19.633 7.997c.013.175.013.349.013.523 0 5.325-4.053 11.461-11.46 11.461-2.282 0-4.402-.661-6.186-1.809.324.037.636.05.973.05a8.07 8.07 0 005.001-1.721 4.036 4.036 0 01-3.767-2.793c.249.037.499.062.761.062.361 0 .724-.05 1.061-.137a4.027 4.027 0 01-3.23-3.953v-.05c.537.299 1.16.486 1.82.511a4.022 4.022 0 01-1.796-3.354c0-.748.199-1.434.548-2.032a11.457 11.457 0 008.306 4.215c-.062-.3-.1-.611-.1-.923a4.026 4.026 0 014.028-4.028c1.16 0 2.207.486 2.943 1.272a7.957 7.957 0 002.556-.973 4.02 4.02 0 01-1.771 2.22 8.073 8.073 0 002.319-.624 8.645 8.645 0 01-2.019 2.083z"/></svg></defs></svg>