<svg width="80" height="80" viewBox="0 0 80 80" fill="none" xmlns="http://www.w3.org/2000/svg">
<path d="M54.625 27.8125C57.4769 30.6481 60.7106 33.9144 63.5625 36.75H54.625V27.8125Z" fill="white"/>
<path d="M55.25 62.25C57.0449 62.25 58.5 60.7949 58.5 59C58.5 57.2051 57.0449 55.75 55.25 55.75C53.4551 55.75 52 57.2051 52 59C52 60.7949 53.4551 62.25 55.25 62.25Z" fill="#F0F4F4"/>
<path d="M63.5625 36.75V65.1875H37.5625V27.8125H54.625V36.75H63.5625ZM58.6875 58.6875C58.6875 58.0447 58.4969 57.4164 58.1398 56.8819C57.7827 56.3474 57.2751 55.9309 56.6812 55.6849C56.0874 55.4389 55.4339 55.3745 54.8035 55.4999C54.173 55.6253 53.5939 55.9349 53.1394 56.3894C52.6849 56.8439 52.3753 57.423 52.2499 58.0535C52.1245 58.6839 52.1889 59.3374 52.4349 59.9312C52.6809 60.5251 53.0974 61.0327 53.6319 61.3898C54.1664 61.7469 54.7947 61.9375 55.4375 61.9375C55.8643 61.9376 56.287 61.8536 56.6814 61.6903C57.0757 61.5271 57.434 61.2877 57.7359 60.9859C58.0377 60.684 58.2771 60.3257 58.4403 59.9314C58.6036 59.537 58.6876 59.1143 58.6875 58.6875Z" fill="white"/>
<path d="M51.375 14.8125L45.6875 22.9375H22.125L16.4375 14.8125H51.375Z" fill="#DEEEEE"/>
<path d="M37.5625 27.8125V65.1875H16.4375V14.8125L22.125 22.9375H45.6875L51.375 14.8125V27.8125H37.5625Z" fill="#F0F4F4"/>
<path d="M58.6874 49.9391H42.4414C42.2259 49.9391 42.0193 49.8864 41.8669 49.7926C41.7145 49.6989 41.6289 49.5717 41.6289 49.4391C41.6289 49.3065 41.7145 49.1793 41.8669 49.0855C42.0193 48.9918 42.2259 48.9391 42.4414 48.9391H58.6874C58.9029 48.9391 59.1096 48.9918 59.2619 49.0855C59.4143 49.1793 59.4999 49.3065 59.4999 49.4391C59.4999 49.5717 59.4143 49.6989 59.2619 49.7926C59.1096 49.8864 58.9029 49.9391 58.6874 49.9391Z" fill="url(#paint0_linear_13265_5802)"/>
<path d="M58.6874 45.8741H42.4414C42.2259 45.8741 42.0193 45.8215 41.8669 45.7277C41.7145 45.6339 41.6289 45.5068 41.6289 45.3741C41.6289 45.2415 41.7145 45.1144 41.8669 45.0206C42.0193 44.9268 42.2259 44.8741 42.4414 44.8741H58.6874C58.9029 44.8741 59.1096 44.9268 59.2619 45.0206C59.4143 45.1144 59.4999 45.2415 59.4999 45.3741C59.4999 45.5068 59.4143 45.6339 59.2619 45.7277C59.1096 45.8215 58.9029 45.8741 58.6874 45.8741Z" fill="url(#paint1_linear_13265_5802)"/>
<path d="M58.6874 41.8085H42.4414C42.2259 41.8085 42.0193 41.7558 41.8669 41.662C41.7145 41.5683 41.6289 41.4411 41.6289 41.3085C41.6289 41.1759 41.7145 41.0487 41.8669 40.9549C42.0193 40.8611 42.2259 40.8085 42.4414 40.8085H58.6874C58.9029 40.8085 59.1096 40.8611 59.2619 40.9549C59.4143 41.0487 59.4999 41.1759 59.4999 41.3085C59.4999 41.4411 59.4143 41.5683 59.2619 41.662C59.1096 41.7558 58.9029 41.8085 58.6874 41.8085Z" fill="url(#paint2_linear_13265_5802)"/>
<path d="M49.7605 54H42.4512C42.2357 54 42.029 53.9473 41.8767 53.8536C41.7243 53.7598 41.6387 53.6326 41.6387 53.5C41.6387 53.3674 41.7243 53.2402 41.8767 53.1464C42.029 53.0527 42.2357 53 42.4512 53H49.7605C49.976 53 50.1826 53.0527 50.335 53.1464C50.4874 53.2402 50.573 53.3674 50.573 53.5C50.573 53.6326 50.4874 53.7598 50.335 53.8536C50.1826 53.9473 49.976 54 49.7605 54Z" fill="url(#paint3_linear_13265_5802)"/>
<path d="M55.4532 59.625C55.3465 59.6255 55.2407 59.605 55.142 59.5647C55.0432 59.5243 54.9533 59.4649 54.8775 59.3898C54.7244 59.2382 54.6378 59.032 54.6367 58.8165C54.6357 58.601 54.7203 58.3939 54.8719 58.2408C55.0235 58.0877 55.2298 58.0011 55.4453 58H55.4532C55.6687 58 55.8753 58.0856 56.0277 58.238C56.1801 58.3903 56.2657 58.597 56.2657 58.8125C56.2657 59.028 56.1801 59.2347 56.0277 59.387C55.8753 59.5394 55.6687 59.625 55.4532 59.625Z" fill="url(#paint4_linear_13265_5802)"/>
<path d="M58.832 58.9865C58.832 60.9194 57.265 62.4865 55.332 62.4865C53.399 62.4865 51.832 60.9194 51.832 58.9865C51.832 57.0535 53.399 55.4865 55.332 55.4865C57.265 55.4865 58.832 57.0535 58.832 58.9865Z" stroke="url(#paint5_linear_13265_5802)"/>
<rect x="55" y="28" width="1" height="10" rx="0.5" fill="url(#paint6_linear_13265_5802)"/>
<path d="M63 37C63.2761 37 63.5 37.2239 63.5 37.5C63.5 37.7761 63.2761 38 63 38L55.5007 38C55.2245 38 55.0007 37.7761 55.0007 37.5C55.0007 37.2239 55.2245 37 55.5007 37L63 37Z" fill="url(#paint7_linear_13265_5802)"/>
<path fill-rule="evenodd" clip-rule="evenodd" d="M17 65V15H34H38.5H42H51V23.5V27V28H52V27V23.5V15C52 14.4477 51.5523 14 51 14H42H38.5H34H17C16.4477 14 16 14.4477 16 15V65C16 65.5523 16.4477 66 17 66H50V65H17Z" fill="url(#paint8_linear_13265_5802)"/>
<path d="M17 15L21.7062 22.53C21.889 22.8224 22.2095 23 22.5542 23H45.4458C45.7905 23 46.111 22.8224 46.2938 22.53L51 15" stroke="url(#paint9_linear_13265_5802)" stroke-linecap="round" stroke-linejoin="round"/>
<path d="M59.6053 32.807L59.6105 32.8136L59.6159 32.8201L62.1077 35.8103L63.4 37.5333C63.4649 37.6199 63.5 37.7251 63.5 37.8333V47V65C63.5 65.2761 63.2761 65.5 63 65.5H38C37.7239 65.5 37.5 65.2761 37.5 65V29C37.5 28.7239 37.7239 28.5 38 28.5H50.5H53.875H56.0109C56.1652 28.5 56.3109 28.5712 56.4056 28.693L59.6053 32.807Z" stroke="url(#paint10_linear_13265_5802)"/>
<defs>
<linearGradient id="paint0_linear_13265_5802" x1="38.558" y1="49.1674" x2="40.1241" y2="40.8571" gradientUnits="userSpaceOnUse">
<stop stop-color="#46A29F"/>
<stop offset="1" stop-color="#4660A2"/>
</linearGradient>
<linearGradient id="paint1_linear_13265_5802" x1="38.558" y1="45.1024" x2="40.1241" y2="36.7922" gradientUnits="userSpaceOnUse">
<stop stop-color="#46A29F"/>
<stop offset="1" stop-color="#4660A2"/>
</linearGradient>
<linearGradient id="paint2_linear_13265_5802" x1="38.558" y1="41.0367" x2="40.1241" y2="32.7265" gradientUnits="userSpaceOnUse">
<stop stop-color="#46A29F"/>
<stop offset="1" stop-color="#4660A2"/>
</linearGradient>
<linearGradient id="paint3_linear_13265_5802" x1="40.1034" y1="53.2283" x2="42.9437" y2="45.6936" gradientUnits="userSpaceOnUse">
<stop stop-color="#46A29F"/>
<stop offset="1" stop-color="#4660A2"/>
</linearGradient>
<linearGradient id="paint4_linear_13265_5802" x1="54.3568" y1="58.371" x2="58.1802" y2="57.2329" gradientUnits="userSpaceOnUse">
<stop stop-color="#46A29F"/>
<stop offset="1" stop-color="#4660A2"/>
</linearGradient>
<linearGradient id="paint5_linear_13265_5802" x1="49.9573" y1="56.8127" x2="68.7418" y2="51.2353" gradientUnits="userSpaceOnUse">
<stop stop-color="#46A29F"/>
<stop offset="1" stop-color="#4660A2"/>
</linearGradient>
<linearGradient id="paint6_linear_13265_5802" x1="54.8282" y1="30.2828" x2="57.381" y2="30.207" gradientUnits="userSpaceOnUse">
<stop stop-color="#46A29F"/>
<stop offset="1" stop-color="#4660A2"/>
</linearGradient>
<linearGradient id="paint7_linear_13265_5802" x1="61.5598" y1="36.8282" x2="61.6489" y2="39.3801" gradientUnits="userSpaceOnUse">
<stop stop-color="#46A29F"/>
<stop offset="1" stop-color="#4660A2"/>
</linearGradient>
<linearGradient id="paint8_linear_13265_5802" x1="9.81376" y1="25.8704" x2="98.0671" y2="7.72944" gradientUnits="userSpaceOnUse">
<stop stop-color="#46A29F"/>
<stop offset="1" stop-color="#4660A2"/>
</linearGradient>
<linearGradient id="paint9_linear_13265_5802" x1="11.1574" y1="16.8262" x2="44.6684" y2="-25.4607" gradientUnits="userSpaceOnUse">
<stop stop-color="#46A29F"/>
<stop offset="1" stop-color="#4660A2"/>
</linearGradient>
<linearGradient id="paint10_linear_13265_5802" x1="32.3603" y1="36.6746" x2="98.4076" y2="22.7409" gradientUnits="userSpaceOnUse">
<stop stop-color="#46A29F"/>
<stop offset="1" stop-color="#4660A2"/>
</linearGradient>
</defs>
</svg>
