<svg width="80" height="80" viewBox="0 0 80 80" fill="none" xmlns="http://www.w3.org/2000/svg">
<g clip-path="url(#clip0_13265_5042)">
<path d="M43.6257 7.12547C44.6242 8.12527 44.6242 9.7506 43.6257 10.7504L40.0003 14.3752L36.3753 10.7502C35.3749 9.7506 35.3749 8.12511 36.3753 7.12532C37.3751 6.12489 38.9998 6.12489 40.0003 7.12532C40.9999 6.12505 42.6248 6.12505 43.6257 7.12547Z" fill="#DEEEEE"/>
<path d="M64.3749 8.12497V20.6249H43.2618H36.7498H15.625V8.12497C15.625 3.97515 18.9876 0.624939 23.125 0.624939H56.8751C61.0254 0.624939 64.3749 3.9753 64.3749 8.12497ZM43.6254 10.7501C44.624 9.75046 44.624 8.12497 43.6254 7.12518C42.6245 6.12476 40.9997 6.12476 40 7.12518C38.9996 6.12476 37.3749 6.12476 36.3751 7.12518C35.3747 8.12497 35.3747 9.75031 36.3751 10.7501L40 14.375L43.6254 10.7501Z" fill="white"/>
<path d="M61.7381 28.1378C57.0117 26.925 52.5243 25.1501 48.3996 23.1249L43.2617 20.6249H64.3748V28.7499C63.4875 28.5627 62.6123 28.3625 61.7381 28.1378Z" fill="#DEEEEE"/>
<path d="M18.2623 28.1378C17.3877 28.3625 16.5124 28.5625 15.625 28.7499V20.6249H36.75L31.6127 23.1249C27.475 25.1503 22.9877 26.9252 18.2623 28.1378Z" fill="#DEEEEE"/>
<path d="M18.1251 21.875H15.625V28.75C16.4662 28.5723 17.2961 28.3801 18.1251 28.1696V21.875Z" fill="#F0F4F4"/>
<path d="M61.8867 21.875H64.3867V28.75C63.5469 28.5723 62.7168 28.3801 61.8867 28.1696V21.875Z" fill="#DEEEEE"/>
<path d="M29.3751 50.6629V57.2877L28.125 53.1251L23.125 58.125L23.725 59.087L23.7 59.1126L21.8751 60.0378C19.8126 60.9618 17.5622 61.6626 15.625 62.2753V28.75C16.5124 28.5627 17.3877 28.3625 18.2623 28.1379V30.6252C19.1249 38.6127 23.9625 46.0255 29.3751 50.6629Z" fill="#DEEEEE"/>
<path d="M64.3754 62.275C65.3008 62.5753 66.1626 62.8501 66.8755 63.1246C71.8754 64.9875 74.3754 66.8747 74.3754 71.8746C74.3754 76.8747 74.3754 79.3747 74.3754 79.3747H47.4004L48.0376 78.1247L51.8757 70.6247L50.6256 68.1247L56.2506 59.1123L58.1256 60.0376C60.1885 60.9616 62.437 61.6623 64.3754 62.275Z" fill="white"/>
<path d="M64.3749 28.75V62.2754C62.4366 61.6627 60.1881 60.962 58.125 60.038L56.25 59.1127L56.8751 58.1251L51.8751 53.1252L50.625 57.2878V50.663C56.0498 46.0255 60.8875 38.6128 61.7382 30.6251V28.1377C62.6124 28.3625 63.4877 28.5626 64.3749 28.75Z" fill="#DEEEEE"/>
<path d="M36.8745 30.6629V29.3751C36.8745 28.6879 36.3118 28.125 35.6246 28.125H26.8745C26.1868 28.125 25.6246 28.6877 25.6246 29.3751V31.8751C25.6246 32.563 26.1868 33.1251 26.8745 33.1251H35.6246C36.3118 33.1251 36.8745 32.563 36.8745 31.8751V30.6629ZM43.1246 30.6629V31.8751C43.1246 32.563 43.6861 33.1251 44.3746 33.1251H53.1244C53.8117 33.1251 54.3746 32.563 54.3746 31.8751V29.3751C54.3746 28.6879 53.8117 28.125 53.1244 28.125H44.3746C43.6861 28.125 43.1246 28.6877 43.1246 29.3751V30.6629ZM61.7377 28.1378V30.6251C60.887 38.6127 56.0493 46.0255 50.6245 50.6631C47.0113 53.75 43.1368 55.625 39.9996 55.625C36.8617 55.625 32.9872 53.75 29.3745 50.6629C23.9619 46.0254 19.1243 38.6127 18.2617 30.6249V28.1378C22.9871 26.925 27.4744 25.1501 31.6121 23.1249L36.7494 20.6249H43.2613L48.3992 23.1249C52.5239 25.1503 57.0113 26.9252 61.7377 28.1378Z" fill="#F0F4F4"/>
<path d="M20.7618 30.625V29.3751V28.1379V27.4158C19.9336 27.6666 19.106 27.9212 18.2617 28.1379V30.6252C19.1243 38.6128 23.9619 46.0256 29.3745 50.6632C32.9872 53.7502 36.8617 55.6253 39.9996 55.6253C40.4043 55.6253 40.8223 55.5911 41.2495 55.5301C38.3656 55.1187 35.0209 53.3524 31.8746 50.6632C26.462 46.0255 21.6243 38.6126 20.7618 30.625Z" fill="white"/>
<path d="M59.2382 30.625V29.3751V28.1379V27.4158C60.0659 27.6666 60.8935 27.9212 61.7381 28.1379V30.6252C60.8752 38.6128 56.0375 46.0256 50.6249 50.6632C47.0117 53.7499 43.1372 55.625 40 55.625C39.5952 55.625 39.1772 55.5907 38.75 55.5298C41.6333 55.1183 44.9779 53.3521 48.1249 50.6629C53.5375 46.0255 58.3753 38.6126 59.2382 30.625Z" fill="#DEEEEE"/>
<path d="M56.8742 58.1249L56.2491 59.1127L50.6242 68.1249L51.8743 70.625L48.0364 78.1251L47.3991 79.3751H44.0117L48.9251 62.9626L49.9992 59.3749L50.6242 57.2876L51.8743 53.125L56.8742 58.1249Z" fill="white"/>
<path d="M50.625 57.288L50.0001 59.3753C50.0001 59.3753 46.875 61.8754 40.0001 61.8754C33.1251 61.8754 30.0251 59.3753 30.0251 59.3753L30.0001 59.3875L29.375 57.2879V50.6631C32.9877 53.7501 36.8622 55.6252 40.0001 55.6252C43.1373 55.6252 47.0118 53.7501 50.625 50.6631V57.288Z" fill="#F0F4F4"/>
<path d="M50 59.375L48.9258 62.9627C47.1375 63.7 43.6999 64.375 40 64.375C36.3001 64.375 32.8625 63.7 31.0876 62.9627H31.0748L30 59.3871L30.025 59.375C30.025 59.375 33.125 61.8751 40 61.8751C46.875 61.8751 50 59.375 50 59.375Z" fill="#DEEEEE"/>
<path d="M48.9252 62.9628L44.0119 79.3751H35.9993L31.0742 62.9628H31.087C32.8619 63.7001 36.2995 64.3752 39.9994 64.3752C43.6994 64.3752 47.1369 63.7001 48.9252 62.9628Z" fill="#DEEEEE"/>
<path d="M31.0748 62.9627L35.9997 79.3751H32.6123L31.975 78.1251L28.1249 70.6251L29.3749 68.125L23.7249 59.0871L23.125 58.125L28.1249 53.125L29.3749 57.2877L30 59.3871L31.0748 62.9627Z" fill="white"/>
<path d="M31.9751 78.1248L32.6123 79.3748H5.625C5.625 79.3748 5.625 76.8748 5.625 71.8748C5.625 66.8748 8.12496 64.9876 13.125 63.1247C13.8501 62.8502 14.6997 62.5755 15.625 62.2874V62.2753C17.5622 61.6625 19.8126 60.9618 21.8751 60.0378L23.6999 59.1126L23.7249 59.0869L29.3749 68.125L28.1248 70.6249L31.9751 78.1248Z" fill="white"/>
<path d="M36.8887 31.875C36.8887 32.5623 36.3259 33.125 35.6387 33.125H26.8887C26.2015 33.125 25.6387 32.5623 25.6387 31.875V29.3751C25.6387 28.6878 26.2015 28.1249 26.8887 28.1249H35.6387C36.3259 28.1249 36.8887 28.6877 36.8887 29.3751V30.6622V31.875Z" fill="#DEEEEE"/>
<path d="M28.6289 33.125H31.2175L32.5571 28.1249H29.9692L28.6289 33.125Z" fill="#F0F4F4"/>
<path d="M31.8867 33.125H32.5555L33.8952 28.1249H33.2264L31.8867 33.125Z" fill="#F0F4F4"/>
<path d="M54.3867 31.8751C54.3867 32.5624 53.8251 33.1251 53.1366 33.1251H44.3867C43.7005 33.1251 43.1367 32.5624 43.1367 31.8751V29.3751C43.1367 28.6879 43.7005 28.125 44.3867 28.125H53.1366C53.8251 28.125 54.3867 28.6877 54.3867 29.3751V30.6623V31.8751Z" fill="#DEEEEE"/>
<path d="M46.1289 33.1251H48.7168L50.0571 28.125H47.4692L46.1289 33.1251Z" fill="#F0F4F4"/>
<path d="M49.3867 33.1251H50.0559L51.3962 28.125H50.727L49.3867 33.1251Z" fill="#F0F4F4"/>
<path d="M30.0251 59.3749C30.0251 59.3749 30.6281 59.8596 31.8879 60.4027V52.5768C31.0449 52.0043 30.2027 51.3695 29.375 50.6629V57.2876L30.0001 59.3872L30.0251 59.3749Z" fill="white"/>
<path d="M48.1309 60.4006C49.3943 59.8586 49.9998 59.3751 49.9998 59.3751L50.6247 57.2879V50.6631C49.8032 51.3649 48.9672 51.9946 48.1309 52.5636V60.4006Z" fill="#DEEEEE"/>
<path d="M64.3756 20.624H15.625V21.874H64.3756V20.624Z" fill="#DEEEEE"/>
<path d="M45.83 21.875L43.2605 20.625H36.7486L34.1797 21.875H45.83Z" fill="#DEEEEE"/>
<path d="M35.6251 33.75H26.8751C25.8412 33.75 25 32.9089 25 31.8749V29.375C25 28.3409 25.841 27.4999 26.8751 27.4999H35.6251C36.6589 27.4999 37.5001 28.3409 37.5001 29.375V31.8749C37.5001 32.9089 36.6589 33.75 35.6251 33.75ZM26.8751 28.75C26.5302 28.75 26.2501 29.0302 26.2501 29.3751V31.8751C26.2501 32.22 26.5302 32.5001 26.8751 32.5001H35.6251C35.97 32.5001 36.2501 32.2201 36.2501 31.8751V29.3751C36.2501 29.0302 35.9701 28.75 35.6251 28.75H26.8751Z" fill="url(#paint0_linear_13265_5042)"/>
<path d="M53.1249 33.75H44.375C43.3412 33.75 42.5 32.9089 42.5 31.8749V29.375C42.5 28.3409 43.3412 27.4999 44.375 27.4999H53.1249C54.1589 27.4999 55 28.3409 55 29.375V31.8749C55 32.9089 54.1589 33.75 53.1249 33.75ZM44.375 28.75C44.0308 28.75 43.75 29.0302 43.75 29.3751V31.8751C43.75 32.22 44.0308 32.5001 44.375 32.5001H53.1249C53.4692 32.5001 53.75 32.2201 53.75 31.8751V29.3751C53.75 29.0302 53.4692 28.75 53.1249 28.75H44.375Z" fill="url(#paint1_linear_13265_5042)"/>
<path d="M43.1244 31.2881H36.8731C36.5276 31.2881 36.248 31.0085 36.248 30.6632C36.248 30.3176 36.5276 30.0381 36.8731 30.0381H43.1244C43.4699 30.0381 43.7493 30.3176 43.7493 30.6632C43.7493 31.0085 43.4699 31.2881 43.1244 31.2881Z" fill="url(#paint2_linear_13265_5042)"/>
<path d="M31.9685 78.7502C31.7414 78.7502 31.5223 78.6256 31.4119 78.4108L27.5691 70.9107C27.4782 70.7324 27.4769 70.5237 27.566 70.3457L28.6591 68.1594L22.5951 58.4572C22.4407 58.2094 22.4773 57.8882 22.6829 57.6832L27.683 52.6833C27.9271 52.4392 28.3226 52.4392 28.5667 52.6833C28.8108 52.9274 28.8108 53.3231 28.5667 53.5671L23.9182 58.2155L29.9047 67.7931C30.02 67.9787 30.0311 68.2106 29.934 68.4047L28.8256 70.6215L32.5237 77.8395C32.6812 78.1472 32.5596 78.5231 32.2527 78.6819C32.1613 78.7282 32.0643 78.7502 31.9685 78.7502Z" fill="url(#paint3_linear_13265_5042)"/>
<path d="M35.6251 78.7502C35.3559 78.7502 35.1076 78.5756 35.0263 78.3045L27.5264 53.3046C27.4275 52.9738 27.6149 52.6258 27.9457 52.5269C28.2765 52.4267 28.625 52.6147 28.7239 52.9457L36.2239 77.9456C36.3229 78.2764 36.1355 78.6244 35.8047 78.7233C35.7448 78.7416 35.6844 78.7502 35.6251 78.7502Z" fill="url(#paint4_linear_13265_5042)"/>
<path d="M48.0311 78.7501C47.9347 78.7501 47.8383 78.7281 47.7455 78.6817C47.439 78.5229 47.3184 78.1469 47.4745 77.8392L51.1733 70.6213L50.0649 68.4045C49.9673 68.2104 49.9795 67.9783 50.0943 67.7928L56.0806 58.2152L51.4323 53.5669C51.1882 53.3228 51.1882 52.9272 51.4323 52.6831C51.6764 52.439 52.0719 52.439 52.316 52.6831L57.316 57.683C57.5211 57.888 57.5576 58.2091 57.4039 58.457L51.3393 68.1591L52.433 70.3455C52.5221 70.5236 52.5208 70.7324 52.4305 70.9105L48.5877 78.4106C48.4768 78.6256 48.2583 78.7501 48.0311 78.7501Z" fill="url(#paint5_linear_13265_5042)"/>
<path d="M44.3751 78.7502C44.3165 78.7502 44.2554 78.7416 44.1957 78.7233C43.8648 78.6244 43.6769 78.2765 43.7769 77.9456L51.2769 52.9456C51.3745 52.6148 51.7226 52.4268 52.0545 52.5268C52.3853 52.6258 52.5733 52.9736 52.4733 53.3046L44.9732 78.3045C44.8926 78.5755 44.6435 78.7502 44.3751 78.7502Z" fill="url(#paint6_linear_13265_5042)"/>
<path d="M39.9995 62.4997C32.9859 62.4997 29.7437 59.9703 29.6088 59.863C29.3404 59.6481 29.2969 59.2562 29.5105 58.9866C29.7248 58.7167 30.1186 58.6741 30.3883 58.8854C30.4181 58.9085 33.4663 61.2498 39.9995 61.2498C46.5327 61.2498 49.5807 58.9086 49.6113 58.8854C49.8812 58.6717 50.2728 58.7181 50.4877 58.9866C50.7025 59.2563 50.6586 59.6481 50.39 59.863C50.2558 59.9705 47.0137 62.4997 39.9995 62.4997Z" fill="url(#paint7_linear_13265_5042)"/>
<path d="M40.0004 64.9999C36.1198 64.9999 32.6083 64.27 30.85 63.5473C30.5307 63.4154 30.3788 63.0492 30.5101 62.7306C30.6418 62.412 31.0069 62.2606 31.3261 62.39C32.9704 63.0663 36.2907 63.7498 40.0005 63.7498C43.7212 63.7498 47.0439 63.0675 48.6871 62.3923C49.0093 62.2629 49.3731 62.4118 49.5037 62.7317C49.6344 63.0516 49.483 63.4165 49.1631 63.5471C47.4063 64.2702 43.8919 64.9999 40.0004 64.9999Z" fill="url(#paint8_linear_13265_5042)"/>
<path d="M40.0013 56.2513C31.4386 56.2513 19.0577 43.8574 17.6404 30.6921C17.6032 30.3484 17.8517 30.0401 18.1945 30.0036C18.551 29.9731 18.8469 30.2153 18.883 30.5578C19.5197 36.4697 22.5456 42.7148 27.1869 47.6928C31.3904 52.1996 36.3007 55.0011 40.0013 55.0011C40.3468 55.0011 40.6264 55.2807 40.6264 55.6262C40.6264 55.9717 40.3468 56.2513 40.0013 56.2513Z" fill="url(#paint9_linear_13265_5042)"/>
<path d="M74.3751 79.9996H5.62507C5.27956 79.9996 5 79.7202 5 79.3747V71.8747C5 66.511 7.7789 64.4553 12.9059 62.5388C13.7103 62.2385 14.6784 61.9309 15.7318 61.5965C17.5904 61.0057 19.6966 60.3367 21.6212 59.4749C21.9362 59.3333 22.306 59.4749 22.4471 59.7899C22.588 60.1049 22.4471 60.4747 22.1314 60.615C20.1423 61.5062 18.0005 62.1874 16.1109 62.7879C15.0789 63.115 14.1308 63.4153 13.3436 63.7106C8.53757 65.5076 6.24998 67.1873 6.24998 71.8747V78.7498H73.75V71.8747C73.75 67.1873 71.4624 65.5076 66.6553 63.7106C65.8693 63.4151 64.9219 63.115 63.8905 62.7879C62.0008 62.1872 59.8585 61.5062 57.87 60.615C57.5539 60.4734 57.4135 60.1048 57.5539 59.7899C57.6954 59.4749 58.0642 59.3333 58.3804 59.4749C60.3054 60.3367 62.4111 61.0057 64.2701 61.5965C65.3224 61.9311 66.2905 62.2385 67.0935 62.5388C72.2217 64.4554 75.0002 66.511 75.0002 71.8747V79.3747C75.0002 79.7202 74.7206 79.9996 74.3751 79.9996Z" fill="url(#paint10_linear_13265_5042)"/>
<path d="M15.6249 60C15.2796 60 15 59.7204 15 59.3749V23.125C15 22.7797 15.2796 22.5 15.6249 22.5C15.9704 22.5 16.25 22.7795 16.25 23.125V59.3751C16.25 59.7205 15.9704 60 15.6249 60Z" fill="url(#paint11_linear_13265_5042)"/>
<path d="M15.6244 29.3751C15.3339 29.3751 15.0741 29.1718 15.013 28.8765C14.9434 28.5383 15.1606 28.2075 15.4986 28.138C20.6233 27.0808 25.9485 25.2053 31.3275 22.5642C31.6388 22.4136 32.0117 22.5405 32.1637 22.8499C32.3156 23.1593 32.1881 23.5342 31.8781 23.6862C26.405 26.3742 20.9789 28.2839 15.7513 29.3625C15.7087 29.3708 15.6665 29.3751 15.6244 29.3751Z" fill="url(#paint12_linear_13265_5042)"/>
<path d="M40.0001 56.2513C39.6546 56.2513 39.375 55.9718 39.375 55.6263C39.375 55.2808 39.6546 55.0012 40.0001 55.0012C43.7013 55.0012 48.611 52.1996 52.8151 47.6929C57.4562 42.7149 60.4811 36.4698 61.1183 30.5579C61.1549 30.2149 61.4454 29.9664 61.8067 30.0036C62.1497 30.0402 62.3975 30.3485 62.3609 30.6921C60.9436 43.8575 48.5621 56.2513 40.0001 56.2513Z" fill="url(#paint13_linear_13265_5042)"/>
<path d="M64.3749 60C64.0296 60 63.75 59.7204 63.75 59.3749V23.125C63.75 22.7797 64.0296 22.5 64.3749 22.5C64.7204 22.5 65 22.7795 65 23.125V59.3751C65 59.7205 64.7204 60 64.3749 60Z" fill="url(#paint14_linear_13265_5042)"/>
<path d="M64.3757 29.3747C64.3342 29.3747 64.2927 29.3704 64.2488 29.3618C59.0206 28.2827 53.5945 26.3736 48.1235 23.6856C47.8134 23.5335 47.6851 23.1588 47.8378 22.8493C47.9892 22.5392 48.3627 22.4105 48.6729 22.5636C54.0513 25.2047 59.376 27.0802 64.5029 28.1373C64.8398 28.2069 65.0572 28.5377 64.9888 28.8759C64.9277 29.1714 64.6664 29.3747 64.3757 29.3747Z" fill="url(#paint15_linear_13265_5042)"/>
<path d="M15.6249 21.25C15.2796 21.25 15 20.9704 15 20.6249V8.12498C15 7.77947 15.2796 7.49991 15.6249 7.49991C15.9704 7.49991 16.25 7.77947 16.25 8.12498V20.6249C16.25 20.9706 15.9704 21.25 15.6249 21.25Z" fill="url(#paint16_linear_13265_5042)"/>
<path d="M56.8746 1.24998H22.8634C22.5178 1.24998 22.2383 0.970419 22.2383 0.624912C22.2383 0.279562 22.5178 0 22.8634 0H56.8746C57.2201 0 57.4997 0.279562 57.4997 0.624912C57.4997 0.970419 57.2201 1.24998 56.8746 1.24998Z" fill="url(#paint17_linear_13265_5042)"/>
<path d="M64.3749 21.25C64.0296 21.25 63.75 20.9704 63.75 20.6249V8.12498C63.75 7.77947 64.0296 7.49991 64.3749 7.49991C64.7204 7.49991 65 7.77947 65 8.12498V20.6249C65 20.9706 64.7204 21.25 64.3749 21.25Z" fill="url(#paint18_linear_13265_5042)"/>
<path d="M64.3748 21.25H15.6249C15.2796 21.25 15 20.9705 15 20.6249C15 20.2794 15.2796 19.9999 15.6249 19.9999H64.3749C64.7204 19.9999 65 20.2794 65 20.6249C65 20.9705 64.7203 21.25 64.3748 21.25Z" fill="url(#paint19_linear_13265_5042)"/>
<path d="M15.6249 8.75002C15.2796 8.75002 15 8.47046 15 8.12495C15 3.64493 18.6449 0 23.125 0C23.4705 0 23.75 0.279562 23.75 0.624912C23.75 0.970419 23.4705 1.24998 23.125 1.24998C19.3341 1.24998 16.25 4.33407 16.25 8.12495C16.25 8.47046 15.9704 8.75002 15.6249 8.75002Z" fill="url(#paint20_linear_13265_5042)"/>
<path d="M64.3769 8.75002C64.0316 8.75002 63.752 8.47046 63.752 8.12495C63.752 4.33407 60.6673 1.24998 56.877 1.24998C56.5315 1.24998 56.252 0.970419 56.252 0.624912C56.252 0.279562 56.5315 0 56.877 0C61.357 0 65.002 3.64493 65.002 8.12495C65.002 8.47046 64.7224 8.75002 64.3769 8.75002Z" fill="url(#paint21_linear_13265_5042)"/>
<path d="M40.0006 15.0005C39.8351 15.0005 39.6759 14.9345 39.5587 14.8173L35.9339 11.1932C34.6913 9.94928 34.6913 7.92656 35.9339 6.68393C37.0008 5.61709 38.7861 5.47051 40.0006 6.31404C41.2134 5.47176 43.0005 5.61647 44.0673 6.68393C44.6678 7.28634 44.9999 8.08658 44.9999 8.93855C44.9999 9.79067 44.6678 10.5908 44.066 11.1933L40.4425 14.8175C40.3253 14.9345 40.1666 15.0005 40.0006 15.0005ZM38.1884 6.9999C37.6702 6.9999 37.1837 7.20133 36.8176 7.56746C36.0621 8.32317 36.0627 9.55299 36.8182 10.3092L40.0006 13.4915L43.1824 10.3092C43.5485 9.94303 43.7499 9.45657 43.7499 8.93839C43.7499 8.42037 43.5485 7.93375 43.1824 7.56762C42.451 6.83519 41.1748 6.83519 40.4425 7.56762C40.2088 7.80139 39.7937 7.80264 39.5587 7.56762C39.1926 7.20133 38.7061 6.9999 38.1884 6.9999Z" fill="url(#paint22_linear_13265_5042)"/>
</g>
<defs>
<linearGradient id="paint0_linear_13265_5042" x1="22.852" y1="28.9267" x2="46.4642" y2="14.9051" gradientUnits="userSpaceOnUse">
<stop stop-color="#46A29F"/>
<stop offset="1" stop-color="#4660A2"/>
</linearGradient>
<linearGradient id="paint1_linear_13265_5042" x1="40.352" y1="28.9267" x2="63.9641" y2="14.9053" gradientUnits="userSpaceOnUse">
<stop stop-color="#46A29F"/>
<stop offset="1" stop-color="#4660A2"/>
</linearGradient>
<linearGradient id="paint2_linear_13265_5042" x1="34.959" y1="30.3234" x2="39.5499" y2="22.1434" gradientUnits="userSpaceOnUse">
<stop stop-color="#46A29F"/>
<stop offset="1" stop-color="#4660A2"/>
</linearGradient>
<linearGradient id="paint3_linear_13265_5042" x1="20.7657" y1="58.4925" x2="46.2213" y2="55.5865" gradientUnits="userSpaceOnUse">
<stop stop-color="#46A29F"/>
<stop offset="1" stop-color="#4660A2"/>
</linearGradient>
<linearGradient id="paint4_linear_13265_5042" x1="25.9963" y1="58.4923" x2="48.1372" y2="56.3009" gradientUnits="userSpaceOnUse">
<stop stop-color="#46A29F"/>
<stop offset="1" stop-color="#4660A2"/>
</linearGradient>
<linearGradient id="paint5_linear_13265_5042" x1="45.672" y1="58.4923" x2="71.1267" y2="55.5866" gradientUnits="userSpaceOnUse">
<stop stop-color="#46A29F"/>
<stop offset="1" stop-color="#4660A2"/>
</linearGradient>
<linearGradient id="paint6_linear_13265_5042" x1="42.2464" y1="58.4923" x2="64.3866" y2="56.3011" gradientUnits="userSpaceOnUse">
<stop stop-color="#46A29F"/>
<stop offset="1" stop-color="#4660A2"/>
</linearGradient>
<linearGradient id="paint7_linear_13265_5042" x1="25.7236" y1="59.6067" x2="39.8897" y2="35.7648" gradientUnits="userSpaceOnUse">
<stop stop-color="#46A29F"/>
<stop offset="1" stop-color="#4660A2"/>
</linearGradient>
<linearGradient id="paint8_linear_13265_5042" x1="27.1829" y1="62.9501" x2="35.9663" y2="44.2092" gradientUnits="userSpaceOnUse">
<stop stop-color="#46A29F"/>
<stop offset="1" stop-color="#4660A2"/>
</linearGradient>
<linearGradient id="paint9_linear_13265_5042" x1="13.6862" y1="35.9933" x2="68.706" y2="21.6864" gradientUnits="userSpaceOnUse">
<stop stop-color="#46A29F"/>
<stop offset="1" stop-color="#4660A2"/>
</linearGradient>
<linearGradient id="paint10_linear_13265_5042" x1="-7.02882" y1="64.1178" x2="81.5152" y2="-25.3053" gradientUnits="userSpaceOnUse">
<stop stop-color="#46A29F"/>
<stop offset="1" stop-color="#4660A2"/>
</linearGradient>
<linearGradient id="paint11_linear_13265_5042" x1="14.7852" y1="31.0604" x2="17.9787" y2="31.0288" gradientUnits="userSpaceOnUse">
<stop stop-color="#46A29F"/>
<stop offset="1" stop-color="#4660A2"/>
</linearGradient>
<linearGradient id="paint12_linear_13265_5042" x1="12.0396" y1="24.0701" x2="40.3709" y2="2.9887" gradientUnits="userSpaceOnUse">
<stop stop-color="#46A29F"/>
<stop offset="1" stop-color="#4660A2"/>
</linearGradient>
<linearGradient id="paint13_linear_13265_5042" x1="35.4245" y1="35.9925" x2="90.4443" y2="21.6862" gradientUnits="userSpaceOnUse">
<stop stop-color="#46A29F"/>
<stop offset="1" stop-color="#4660A2"/>
</linearGradient>
<linearGradient id="paint14_linear_13265_5042" x1="63.5352" y1="31.0604" x2="66.7287" y2="31.0288" gradientUnits="userSpaceOnUse">
<stop stop-color="#46A29F"/>
<stop offset="1" stop-color="#4660A2"/>
</linearGradient>
<linearGradient id="paint15_linear_13265_5042" x1="44.813" y1="24.0686" x2="73.1484" y2="2.98812" gradientUnits="userSpaceOnUse">
<stop stop-color="#46A29F"/>
<stop offset="1" stop-color="#4660A2"/>
</linearGradient>
<linearGradient id="paint16_linear_13265_5042" x1="14.7852" y1="10.6387" x2="17.9767" y2="10.5526" gradientUnits="userSpaceOnUse">
<stop stop-color="#46A29F"/>
<stop offset="1" stop-color="#4660A2"/>
</linearGradient>
<linearGradient id="paint17_linear_13265_5042" x1="16.179" y1="0.285343" x2="17.4452" y2="-10.3201" gradientUnits="userSpaceOnUse">
<stop stop-color="#46A29F"/>
<stop offset="1" stop-color="#4660A2"/>
</linearGradient>
<linearGradient id="paint18_linear_13265_5042" x1="63.5352" y1="10.6387" x2="66.7267" y2="10.5526" gradientUnits="userSpaceOnUse">
<stop stop-color="#46A29F"/>
<stop offset="1" stop-color="#4660A2"/>
</linearGradient>
<linearGradient id="paint19_linear_13265_5042" x1="6.408" y1="20.2853" x2="7.30753" y2="9.60307" gradientUnits="userSpaceOnUse">
<stop stop-color="#46A29F"/>
<stop offset="1" stop-color="#4660A2"/>
</linearGradient>
<linearGradient id="paint20_linear_13265_5042" x1="13.4964" y1="1.99743" x2="34.042" y2="-4.10286" gradientUnits="userSpaceOnUse">
<stop stop-color="#46A29F"/>
<stop offset="1" stop-color="#4660A2"/>
</linearGradient>
<linearGradient id="paint21_linear_13265_5042" x1="54.7484" y1="1.99743" x2="75.294" y2="-4.10285" gradientUnits="userSpaceOnUse">
<stop stop-color="#46A29F"/>
<stop offset="1" stop-color="#4660A2"/>
</linearGradient>
<linearGradient id="paint22_linear_13265_5042" x1="33.2839" y1="7.87675" x2="56.4351" y2="0.431667" gradientUnits="userSpaceOnUse">
<stop stop-color="#46A29F"/>
<stop offset="1" stop-color="#4660A2"/>
</linearGradient>
<clipPath id="clip0_13265_5042">
<rect width="80" height="80" fill="white"/>
</clipPath>
</defs>
</svg>
