<svg width="80" height="80" viewBox="0 0 80 80" fill="none" xmlns="http://www.w3.org/2000/svg">
<path d="M46.9043 41.7932C48.4397 43.0611 50.0725 43.8165 51.3564 43.8165H51.3731C52.6649 43.8165 54.2977 43.0525 55.8419 41.7773V41.7853V43.004C55.8419 44.7345 57.9382 45.5391 59.9043 46.0994V46.1081C59.9043 46.1081 58.3523 49.9507 51.3731 49.9507C44.3939 49.9507 42.8418 46.1081 42.8418 46.1081C43.9463 45.7907 45.092 45.3923 45.8887 44.7996C46.0672 44.6695 46.2219 44.5235 46.3601 44.3767C46.7013 43.9951 46.9043 43.5484 46.9043 43.004V41.7932Z" fill="#F0F4F4"/>
<path d="M48.5294 43.4182V42.9191C47.9881 42.6121 47.4407 42.2359 46.9043 41.7932V43.0041C46.9043 43.5483 46.7013 43.9951 46.3601 44.3767C46.222 44.5235 46.0672 44.6695 45.8886 44.7996C45.092 45.3924 43.9463 45.7907 42.8418 46.1081C42.7196 46.1406 42.5974 46.1812 42.4761 46.2049C42.2896 46.262 42.1023 46.3112 41.915 46.3595C41.6715 46.4166 41.4359 46.4817 41.2169 46.5468C41.1677 46.5548 41.1184 46.5706 41.0708 46.5873C40.7692 46.6761 40.4932 46.7578 40.2583 46.8467C38.1858 47.6188 37.1543 48.3987 37.1543 50.4705C37.1543 52.5342 37.1543 53.5666 37.1543 53.5666H38.7793C38.7793 53.1532 38.7793 52.6684 38.7793 52.0956C38.7793 50.0238 39.8108 48.8011 41.8832 48.0291C42.1181 47.9403 42.3943 47.8585 42.6957 47.7696C42.7433 47.7529 42.7925 47.7371 42.8418 47.7292C43.0608 47.6642 43.2966 47.5991 43.5402 47.5419C43.7273 47.4935 43.9146 47.4443 44.101 47.3872C44.2224 47.3635 44.3446 47.3229 44.4669 47.2905C45.5714 46.9731 46.7171 46.5748 47.5137 45.9821C47.6923 45.8519 47.8468 45.7059 47.985 45.5592C48.3262 45.1775 48.5294 44.7308 48.5294 44.1865V43.4182Z" fill="white"/>
<path d="M51.3731 49.9508C58.3523 49.9508 59.9043 46.1081 59.9043 46.1081V46.0994C60.4724 46.2621 61.0334 46.408 61.5292 46.5468C61.8864 46.6436 62.2197 46.7412 62.4878 46.8467C64.5595 47.6188 65.5918 48.3987 65.5918 50.4704C65.5918 52.5342 65.5918 53.5666 65.5918 53.5666H54.2248H51.7716H37.1543C37.1543 53.5666 37.1543 52.5343 37.1543 50.4704C37.1543 48.3987 38.1858 47.6188 40.2583 46.8467C40.4932 46.7578 40.7692 46.676 41.0708 46.5873C41.1184 46.5706 41.1676 46.5548 41.2169 46.5468C41.4359 46.4817 41.6715 46.4167 41.915 46.3595C42.1024 46.3111 42.2897 46.262 42.4761 46.2049C42.5973 46.1811 42.7195 46.1406 42.8418 46.1081C42.8418 46.1081 44.3939 49.9508 51.3731 49.9508Z" fill="#DEEEEE"/>
<path d="M54.2207 43.4182V42.9191C54.7619 42.6121 55.3094 42.2359 55.8458 41.7932V43.0041C55.8458 43.5483 56.0488 43.9951 56.39 44.3767C56.528 44.5235 56.6829 44.6695 56.8614 44.7996C57.658 45.3924 58.8038 45.7907 59.9083 46.1081C60.0305 46.1406 60.1527 46.1812 60.274 46.2049C60.4605 46.262 60.6478 46.3112 60.835 46.3595C61.0786 46.4166 61.3142 46.4817 61.5332 46.5468C61.5824 46.5548 61.6316 46.5706 61.6793 46.5873C61.9809 46.6761 62.2569 46.7578 62.4917 46.8467C64.5642 47.6188 65.5958 48.3987 65.5958 50.4705C65.5958 52.5342 65.5958 53.5666 65.5958 53.5666H63.9709C63.9709 53.1532 63.9709 52.6684 63.9709 52.0956C63.9709 50.0238 62.9394 48.8011 60.8668 48.0291C60.632 47.9403 60.3558 47.8585 60.0544 47.7696C60.0067 47.7529 59.9576 47.7371 59.9083 47.7292C59.6893 47.6642 59.4535 47.5991 59.2099 47.5419C59.0228 47.4935 58.8355 47.4443 58.6491 47.3872C58.5277 47.3635 58.4055 47.3229 58.2832 47.2905C57.1787 46.9731 56.0329 46.5748 55.2363 45.9821C55.0577 45.8519 54.9032 45.7059 54.7651 45.5592C54.4239 45.1775 54.2207 44.7308 54.2207 44.1865V43.4182Z" fill="#DEEEEE"/>
<path d="M62.4877 46.8468C62.3893 46.8079 62.275 46.7714 62.1626 46.7348C62.0594 46.7023 61.9499 46.669 61.8387 46.6357C61.7363 46.6055 61.6372 46.5762 61.5292 46.5468C61.4689 46.5301 61.4022 46.5119 61.3404 46.4952C61.1755 46.4484 61.0104 46.4007 60.8343 46.3595C60.647 46.311 60.4596 46.262 60.2732 46.2049C60.1521 46.1811 60.0298 46.1406 59.9075 46.1081C59.9067 46.1081 59.9052 46.1073 59.9044 46.1064V46.1081C59.9044 46.1081 59.6481 46.7221 58.9062 47.4585C59.0078 47.4862 59.1086 47.5156 59.2092 47.5418C59.4528 47.5989 59.6885 47.664 59.9075 47.729C59.9567 47.7369 60.006 47.7528 60.0536 47.7694C60.355 47.8583 60.6312 47.9401 60.8661 48.029C62.9386 48.801 63.9701 50.0238 63.9701 52.0954C63.9701 52.6683 63.9701 53.1531 63.9701 53.5664H65.5919C65.5919 53.5664 65.5919 52.5342 65.5919 50.4703C65.5918 48.3987 64.5594 47.6189 62.4877 46.8468Z" fill="#DEEEEE"/>
<g opacity="0.3">
<path d="M41.8832 48.0291C42.1181 47.9402 42.3943 47.8584 42.6957 47.7695C42.7433 47.7529 42.7925 47.737 42.8418 47.7291C43.0608 47.6641 43.2966 47.5991 43.5402 47.5419C43.6399 47.5157 43.74 47.4863 43.8399 47.4594C43.0973 46.723 42.8418 46.1082 42.8418 46.1082C42.7196 46.1407 42.5974 46.1812 42.4761 46.205C42.2896 46.2621 42.1023 46.3112 41.915 46.3596C41.6715 46.4167 41.4359 46.4818 41.2169 46.5469C41.1677 46.5548 41.1184 46.5707 41.0708 46.5873C40.7692 46.6761 40.4932 46.7579 40.2583 46.8468C38.1858 47.6189 37.1543 48.3987 37.1543 50.4705C37.1543 52.5342 37.1543 53.5666 37.1543 53.5666H38.7793C38.7793 53.1533 38.7793 52.6684 38.7793 52.0956C38.7793 50.0237 39.8108 48.801 41.8832 48.0291Z" fill="white"/>
</g>
<path d="M46.9042 41.7933V43.0042C46.9042 43.5485 46.7012 43.9952 46.36 44.3769C46.222 44.5237 46.0671 44.6617 45.8886 44.7998C45.092 45.3925 43.9462 45.7829 42.8417 46.0995C42.7195 46.132 42.5973 46.1734 42.476 46.2051C42.2895 46.2542 42.0943 46.3026 41.915 46.3597C41.6714 46.4168 41.4358 46.4819 41.2168 46.547V32.4413H42.0126C42.0126 36.146 44.3208 39.6645 46.8875 41.7775C46.8963 41.7854 46.8963 41.7854 46.9042 41.7933Z" fill="url(#paint0_linear_13265_5707)" fill-opacity="0.1"/>
<path d="M61.5292 32.4413V46.5469C61.0334 46.4081 60.4723 46.2621 59.9043 46.0995C57.9381 45.5393 55.8418 44.7346 55.8418 43.0042V41.7854V41.7775C58.4093 39.6645 60.7167 36.146 60.7167 32.4413V31.3359C60.985 31.4415 61.253 31.5478 61.5292 31.6446V32.4413Z" fill="url(#paint1_linear_13265_5707)" fill-opacity="0.1"/>
<path d="M46.9042 41.7933V43.0042C46.9042 43.5485 46.7012 43.9952 46.36 44.3769C46.222 44.5237 46.0671 44.6617 45.8886 44.7998C45.092 45.3925 43.9462 45.7829 42.8417 46.0995C42.7195 46.132 42.5973 46.1734 42.476 46.2051C42.2895 46.2542 42.0943 46.3026 41.915 46.3597C41.6714 46.4168 41.4358 46.4819 41.2168 46.547V32.4413H42.0126C42.0126 36.146 44.3208 39.6645 46.8875 41.7775C46.8963 41.7854 46.8963 41.7854 46.9042 41.7933Z" fill="#DEEEEE"/>
<path d="M61.5292 32.4413V46.5469C61.0334 46.4081 60.4723 46.2621 59.9043 46.0995C57.9381 45.5393 55.8418 44.7346 55.8418 43.0042V41.7854V41.7775C58.4093 39.6645 60.7167 36.146 60.7167 32.4413V31.3359C60.985 31.4415 61.253 31.5478 61.5292 31.6446V32.4413Z" fill="#DEEEEE"/>
<path d="M52.5849 27.2004C50.4069 28.7445 47.6195 30.4021 44.4758 31.5233C43.5649 31.8787 42.6467 32.1216 42.0137 32.2675C42.0145 35.9713 44.3219 39.6653 46.8886 41.7775C46.8973 41.7854 46.8973 41.7854 46.9053 41.7933C48.4407 43.0613 50.0735 43.8166 51.3574 43.8166H51.3741C52.6659 43.8166 54.2987 43.0526 55.8429 41.7775C58.4103 39.6645 60.7178 36.146 60.7178 32.4413V31.3359C56.2157 29.5808 52.5849 27.2004 52.5849 27.2004Z" fill="#F0F4F4"/>
<path d="M59.0916 30.6495V32.4412C59.0916 36.1459 56.7842 39.6644 54.2165 41.7775C52.9771 42.801 51.6823 43.4874 50.5508 43.7214C50.8301 43.7785 51.1014 43.8167 51.3561 43.8167H51.3728C52.6646 43.8167 54.2974 43.0527 55.8416 41.7776C58.4091 39.6645 60.7165 36.146 60.7165 32.4413V31.336L59.0916 30.6495Z" fill="#DEEEEE"/>
<path d="M48.5305 41.7933C48.5225 41.7854 48.5225 41.7854 48.5138 41.7774C45.9468 39.6652 43.5865 35.542 43.5857 31.8381L42.0137 32.2674C42.0145 35.9713 44.3219 39.6652 46.8886 41.7774C46.8973 41.7854 46.8973 41.7854 46.9053 41.7933C48.4407 43.0612 50.0735 43.8166 51.3574 43.8166H51.3741C51.628 43.8166 51.8992 43.7785 52.177 43.7213C51.0519 43.4889 49.7611 42.8097 48.5305 41.7933Z" fill="white"/>
<path d="M61.5293 31.2223V31.6445C61.2531 31.5477 60.9851 31.4413 60.7169 31.3358C56.2147 29.5808 52.584 27.2003 52.584 27.2003C55.6142 25.0477 57.4668 23.0973 57.4668 23.0973C59.9283 24.9501 61.5293 27.8995 61.5293 31.2223Z" fill="url(#paint2_linear_13265_5707)" fill-opacity="0.1"/>
<path d="M61.5293 31.2223V31.6445C61.2531 31.5477 60.9851 31.4413 60.7169 31.3358C56.2147 29.5808 52.584 27.2003 52.584 27.2003C55.6142 25.0477 57.4668 23.0973 57.4668 23.0973C59.9283 24.9501 61.5293 27.8995 61.5293 31.2223Z" fill="#DEEEEE"/>
<path d="M57.4667 23.0974C57.4667 23.0974 55.614 25.0477 52.5838 27.2004C50.4058 28.7445 47.6184 30.4021 44.4747 31.5233C42.9552 32.116 41.4033 32.4008 41.2168 32.4333V31.6446V31.2225C41.2168 29.8252 41.5009 28.4843 42.0126 27.2735C42.0126 27.2655 42.0126 27.2576 42.0213 27.2576C42.1912 26.8593 42.3864 26.4697 42.6052 26.0952C43.0036 25.4129 43.483 24.7876 44.0192 24.2187C44.1907 24.0401 44.3605 23.8695 44.5478 23.7069C44.7182 23.5522 44.8888 23.4062 45.0682 23.2682C45.092 23.2436 45.1166 23.2197 45.1412 23.2111C45.2626 23.1055 45.3928 23.0167 45.523 22.9349C45.6127 22.862 45.6936 22.7969 45.7823 22.7485C45.9045 22.6667 46.0346 22.5858 46.1649 22.5128C46.2617 22.4477 46.368 22.3827 46.4648 22.3423C46.587 22.2605 46.7092 22.1955 46.8312 22.147C46.9281 22.0899 47.0257 22.0415 47.1233 22.009C47.2455 21.9439 47.3677 21.8868 47.4971 21.8384C47.6352 21.7733 47.7818 21.7162 47.9278 21.6757C48.0246 21.6265 48.131 21.5947 48.2365 21.5622C48.5373 21.4646 48.8371 21.3828 49.1545 21.31C49.3339 21.2696 49.5117 21.2369 49.6989 21.2044C49.6989 21.2044 49.7068 21.2044 49.7148 21.2044C49.8211 21.1799 49.9264 21.164 50.0399 21.156C50.0645 21.1472 50.0891 21.1472 50.113 21.1472C50.2677 21.1235 50.4304 21.1068 50.5923 21.0988C50.8526 21.0742 51.1127 21.0663 51.3731 21.0663C53.6558 21.0662 55.7687 21.8216 57.4667 23.0974Z" fill="#DEEEEE"/>
<path d="M42.8417 31.6446V31.2225C42.8417 29.8252 43.1258 28.4843 43.6375 27.2735C43.6375 27.2655 43.6375 27.2576 43.6462 27.2576C43.8161 26.8593 44.0113 26.4697 44.2303 26.0952C44.6287 25.4129 45.1079 24.7876 45.6444 24.2187C45.8156 24.0401 45.9854 23.8695 46.1727 23.7069C46.3433 23.5522 46.5139 23.4062 46.6933 23.2682C46.7171 23.2436 46.7415 23.2197 46.7661 23.2111C46.8875 23.1055 47.0177 23.0167 47.1479 22.9349C47.2376 22.862 47.3185 22.7969 47.4074 22.7485C47.5296 22.6667 47.6597 22.5858 47.7898 22.5128C47.8866 22.4477 47.9929 22.3827 48.0897 22.3423C48.2119 22.2605 48.3341 22.1955 48.4564 22.147C48.5532 22.0899 48.6508 22.0415 48.7484 22.009C48.8704 21.9439 48.9926 21.8868 49.122 21.8384C49.2601 21.7733 49.407 21.7162 49.5529 21.6757C49.6497 21.6265 49.7561 21.5947 49.8614 21.5622C50.1622 21.4646 50.4622 21.3828 50.7796 21.31C50.9588 21.2696 51.1366 21.2369 51.3238 21.2044C51.3238 21.2044 51.3317 21.2044 51.3397 21.2044C51.446 21.1799 51.5516 21.164 51.665 21.156C51.6896 21.1472 51.7142 21.1472 51.7381 21.1472C51.8873 21.1242 52.0442 21.1083 52.2014 21.1004C51.9283 21.0782 51.6516 21.0663 51.3731 21.0663C51.1128 21.0663 50.8527 21.0742 50.5923 21.0988C50.4304 21.1067 50.2678 21.1234 50.113 21.1472C50.0892 21.1472 50.0645 21.1472 50.0399 21.156C49.9264 21.1639 49.8211 21.1798 49.7148 21.2044C49.7068 21.2044 49.6989 21.2044 49.6989 21.2044C49.5116 21.2369 49.3338 21.2696 49.1545 21.31C48.8371 21.3829 48.5373 21.4646 48.2365 21.5622C48.131 21.5947 48.0246 21.6265 47.9278 21.6757C47.7817 21.7161 47.6352 21.7733 47.4971 21.8384C47.3678 21.8868 47.2455 21.9439 47.1233 22.009C47.0257 22.0415 46.9281 22.0899 46.8312 22.147C46.7092 22.1955 46.587 22.2605 46.4648 22.3423C46.368 22.3826 46.2617 22.4477 46.1649 22.5128C46.0347 22.5859 45.9046 22.6668 45.7823 22.7485C45.6936 22.7969 45.6127 22.862 45.523 22.9349C45.3928 23.0167 45.2627 23.1055 45.1412 23.2111C45.1166 23.2198 45.0921 23.2436 45.0682 23.2682C44.8888 23.4062 44.7182 23.5522 44.5478 23.7069C44.3605 23.8696 44.1906 24.0401 44.0192 24.2187C43.483 24.7876 43.0036 25.4129 42.6052 26.0952C42.3864 26.4698 42.1912 26.8593 42.0213 27.2576C42.0126 27.2576 42.0126 27.2655 42.0126 27.2735C41.5009 28.4843 41.2168 29.8252 41.2168 31.2225V31.6446V32.4333C41.3342 32.4127 41.9912 32.292 42.8417 32.0588V31.6446Z" fill="#F0F4F4"/>
<path d="M61.2497 28.8619C61.2393 28.8198 61.2274 28.7786 61.2172 28.7372C61.1325 28.3985 61.0301 28.066 60.9118 27.7414C60.8975 27.705 60.8848 27.6684 60.8721 27.6319C60.7705 27.3646 60.6498 27.1066 60.5269 26.8496C60.4587 26.7068 60.3881 26.5647 60.3134 26.4251C60.1912 26.1997 60.0628 25.9777 59.9247 25.7626C59.8573 25.6571 59.7882 25.5523 59.7168 25.45C59.5692 25.2373 59.4137 25.0302 59.2509 24.8296C59.1692 24.7288 59.0853 24.6304 58.9995 24.5328C58.7995 24.3051 58.5948 24.0813 58.3757 23.8719C58.3599 23.8568 58.344 23.8402 58.3265 23.825C58.0744 23.5869 57.8078 23.3641 57.5316 23.1522C57.4331 23.0743 57.3332 22.999 57.23 22.9347C57.2212 22.9276 57.2133 22.9236 57.2046 22.9164C57.0998 22.8434 56.9968 22.7681 56.889 22.6983C56.8111 22.6475 56.731 22.5975 56.6493 22.5507C56.5771 22.5062 56.5033 22.4641 56.4287 22.4221C56.381 22.3943 56.3334 22.361 56.2874 22.342C56.17 22.2627 56.0509 22.2007 55.9329 22.1524C55.9035 22.1381 55.8742 22.1246 55.8448 22.1103C55.7734 22.0722 55.702 22.0325 55.6297 22.0087C55.5211 21.95 55.4099 21.9009 55.294 21.8557C55.1599 21.7993 55.0226 21.7485 54.8847 21.6985C54.8649 21.6922 54.845 21.681 54.8252 21.6755C54.7507 21.6374 54.6689 21.6136 54.5879 21.5882C54.48 21.5524 54.3689 21.5239 54.2594 21.4914C54.0864 21.4398 53.912 21.3898 53.7334 21.3469C53.5072 21.2931 53.2803 21.2423 53.0494 21.2042C53.047 21.2042 53.0438 21.2042 53.0375 21.2042C53.0184 21.1994 52.9978 21.1994 52.9779 21.1955C52.7789 21.1638 52.5774 21.1407 52.3758 21.1201C52.3027 21.1138 52.2329 21.1026 52.1599 21.0987C52.1345 21.0963 52.1075 21.0979 52.0821 21.0955C51.849 21.0789 51.6141 21.0662 51.376 21.0662C51.1712 21.0662 50.9697 21.0789 50.7683 21.0916C50.7096 21.0955 50.6509 21.0932 50.5922 21.0987C50.5826 21.0995 50.5739 21.101 50.5645 21.1018C50.7176 21.1097 50.8698 21.1249 51.0143 21.147C51.0397 21.147 51.0634 21.147 51.0881 21.1558C51.2016 21.1637 51.3079 21.1795 51.4127 21.2042C51.4206 21.2042 51.4293 21.2042 51.4293 21.2042C51.6158 21.2367 51.7952 21.2693 51.9735 21.3098C52.2901 21.3827 52.5909 21.4644 52.8917 21.562C52.997 21.5945 53.1026 21.6263 53.2002 21.6755C53.347 21.7159 53.4931 21.7731 53.6311 21.8382C53.7612 21.8865 53.8834 21.9436 54.0047 22.0087C54.1024 22.0412 54.1992 22.0897 54.2976 22.1468C54.419 22.1952 54.5412 22.2603 54.6627 22.342C54.7611 22.3824 54.8658 22.4475 54.9643 22.5126C55.0934 22.5856 55.2236 22.6666 55.345 22.7483C55.4347 22.7967 55.5165 22.8617 55.6053 22.9347C55.7354 23.0164 55.8655 23.1053 55.9878 23.2109C56.0116 23.2196 56.0361 23.2434 56.0607 23.268C56.2392 23.406 56.4099 23.552 56.5805 23.7067C56.767 23.8694 56.9383 24.0399 57.108 24.2185C57.6444 24.7874 58.1236 25.4127 58.522 26.095C58.7418 26.4696 58.9362 26.8591 59.1077 27.2574C59.1156 27.2574 59.1156 27.2653 59.1156 27.2732C59.6011 28.4214 59.8725 29.6885 59.9011 31.0073C60.1691 31.1184 60.4406 31.2286 60.7167 31.3357C60.985 31.4413 61.2529 31.5476 61.5291 31.6444V31.2222C61.5291 30.8073 61.5037 30.3971 61.4546 29.9956V29.9948C61.4085 29.6094 61.337 29.2325 61.2497 28.8619Z" fill="#DEEEEE"/>
<path d="M42.8398 51.1593V51.1672C42.8398 51.1672 41.0769 55.8963 32.4651 55.9691C28.9056 55.9207 26.5252 55.0757 24.9653 54.1085V52.7192L22.7793 53.5395C22.8857 52.6136 22.9825 51.6956 23.0721 50.818C23.7465 50.4927 24.3638 50.0944 24.8272 49.5993C25.1112 49.3471 25.3144 49.0463 25.4524 48.7217C25.4937 48.6566 25.5175 48.5916 25.5421 48.5185C25.7206 48.0798 25.8103 47.5926 25.7777 47.0316V45.098L25.8181 45.0575C27.9391 47.2594 30.3765 48.6567 32.2776 48.6567C34.1954 48.6567 36.6488 47.2507 38.7777 45.033V47.0317C38.7778 49.071 40.7606 50.3064 42.8398 51.1593Z" fill="#F0F4F4"/>
<path d="M18.3286 52.4511C19.2387 52.1099 20.4852 51.8242 21.7246 51.3156C23.8043 50.4626 25.7871 49.8556 25.7871 47.0317V45.033C26.3132 45.5812 26.8591 46.0787 27.4121 46.5183V46.658V48.4075C27.4121 50.4467 25.4292 51.6821 23.3496 52.5351C22.115 53.0548 20.847 53.4286 19.937 53.7697C17.3368 54.7369 16.0371 55.9691 16.0371 58.5694C16.0371 59.4953 16.0371 60.2482 16.0371 60.8442H14.4121C14.4121 60.8442 14.4121 59.5446 14.4121 56.9444C14.4121 54.3442 15.7285 53.4183 18.3286 52.4511Z" fill="white"/>
<path d="M32.4666 55.9692C41.0784 55.8963 42.8414 51.1673 42.8414 51.1673V51.1594C44.076 51.6791 45.3441 52.0528 46.255 52.3941C48.8543 53.3612 50.154 54.3443 50.154 56.9445C50.154 59.5447 50.154 60.8444 50.154 60.8444H14.4043C14.4043 60.8444 14.4043 59.5447 14.4043 56.9445C14.4043 56.7414 14.4122 56.5462 14.4289 56.3676C14.4368 56.2534 14.4526 56.1478 14.4693 56.0423C14.4852 55.921 14.5097 55.7988 14.5344 55.6852C14.5423 55.6527 14.5503 55.6114 14.5669 55.5789C14.5915 55.4734 14.6154 55.3758 14.6558 55.279C14.6971 55.1647 14.7375 55.0512 14.7947 54.9457C14.9002 54.726 15.0216 54.5308 15.1684 54.3443C15.2326 54.2546 15.3144 54.1657 15.3952 54.0841C15.477 54.0031 15.5659 53.9213 15.6555 53.8406C15.9157 53.6216 16.2078 53.4185 16.5489 53.2391C16.6544 53.174 16.7687 53.1177 16.8901 53.0605C17.0044 52.9954 17.1258 52.9383 17.2559 52.8899C17.386 52.8328 17.5162 52.7765 17.6542 52.7193C17.8653 52.6296 18.0929 52.5407 18.3286 52.4511C19.1006 52.1583 20.1568 51.8987 21.2295 51.5489C21.3025 52.2074 21.3756 52.8574 21.4485 53.4993L19.2792 52.7192V55.9691L21.7167 55.0432C21.8389 55.1163 21.9769 55.1567 22.1229 55.1567C22.2776 55.1567 22.4158 55.1163 22.5292 55.0432V55.0511L24.9668 55.9691V54.1086C26.5268 55.0758 28.9072 55.9209 32.4666 55.9692Z" fill="#DEEEEE"/>
<path d="M19.2791 54.041V52.7192L21.0842 53.3683C21.1969 53.3302 21.3049 53.2937 21.4207 53.254C21.3572 52.6906 21.293 52.1249 21.2295 51.5488C20.4598 51.7996 19.7036 52.0042 19.0498 52.2074C18.7937 52.2883 18.55 52.3677 18.3286 52.451C18.0858 52.5414 17.8652 52.6318 17.6447 52.7231C17.5177 52.7755 17.3963 52.8287 17.2757 52.881C17.0963 52.9611 16.9258 53.0429 16.7639 53.1262C16.6925 53.162 16.6187 53.1968 16.5529 53.2365C16.3553 53.346 16.1704 53.4595 15.9998 53.5793C15.9562 53.6102 15.9157 53.6436 15.8729 53.6752C15.5516 53.918 15.2873 54.1902 15.0723 54.4989C15.0088 54.59 14.9493 54.6861 14.8945 54.7845C14.5803 55.3542 14.4121 56.0444 14.4121 56.9444C14.4121 59.5446 14.4121 60.8442 14.4121 60.8442H16.0371C16.0371 60.2483 16.0371 59.4954 16.0371 58.5694C16.037 56.2032 17.1257 54.9726 19.2791 54.041Z" fill="#F0F4F4"/>
<path d="M45.279 34.8438C45.279 34.8438 45.4425 39.394 42.8414 41.3443C41.9639 42.1084 40.8594 42.4409 40.8594 42.4409C42.4766 40.028 43.5969 37.1517 43.646 34.2179V34.21C44.0761 34.3241 44.5157 34.4297 44.9536 34.5186H45.279V34.8438Z" fill="#DEEEEE"/>
<path d="M45.2776 32.4063V34.5185H44.9522C44.5143 34.4296 44.0747 34.3241 43.6446 34.2099C38.3147 32.861 33.4396 30.0823 29.8405 27.5884C26.0542 24.9636 23.6816 22.6563 23.6816 22.6563C25.9732 20.633 28.9796 19.4062 32.278 19.4062C39.4604 19.4062 45.2776 25.224 45.2776 32.4063Z" fill="#DEEEEE"/>
<path d="M32.2782 19.4062C31.9926 19.4062 31.7125 19.4277 31.4316 19.4452C38.249 19.8498 43.6528 25.4866 43.6528 32.4063V34.2115C44.0814 34.3249 44.5162 34.4305 44.9525 34.5185H45.2779V32.4063C45.2779 25.224 39.4607 19.4062 32.2782 19.4062Z" fill="#DEEEEE"/>
<path d="M23.9185 42.7415C22.1555 40.231 20.9121 37.1516 20.9121 34.0313V32.5849C26.1696 30.3997 29.8417 27.5884 29.8417 27.5884C33.4408 30.0823 38.3159 32.8609 43.6458 34.2099V34.2178C43.5968 37.1516 42.4764 40.0279 40.8592 42.4408C40.2336 43.3834 39.5266 44.261 38.7792 45.0331C36.6503 47.2508 34.197 48.6568 32.2792 48.6568C30.378 48.6568 27.9406 47.2596 25.8196 45.0577C25.1373 44.3665 24.4954 43.5864 23.9185 42.7415Z" fill="#F0F4F4"/>
<path d="M42.0206 34.2099V34.2178C41.9714 37.1516 40.851 40.0279 39.2336 42.4408C38.6083 43.3834 37.9014 44.2609 37.1539 45.0331C35.3155 46.9477 33.2374 48.2529 31.4688 48.5742C31.7465 48.625 32.0186 48.6567 32.2789 48.6567C34.1966 48.6567 36.65 47.2507 38.7789 45.033C39.5263 44.2608 40.2334 43.3834 40.8589 42.4407C42.4761 40.0278 43.5964 37.1515 43.6455 34.2177V34.2098L42.0158 33.7495L42.0206 34.2099Z" fill="#DEEEEE"/>
<path d="M27.4447 45.0576C26.7622 44.3665 26.1203 43.5865 25.5435 42.7415C23.7805 40.231 22.5371 37.1516 22.5371 34.0313V31.8969L20.9121 32.5848V34.0312C20.9121 37.1515 22.1555 40.2309 23.9185 42.7414C24.4954 43.5863 25.1373 44.3664 25.8196 45.0575C27.9406 47.2594 30.378 48.6567 32.2792 48.6567C32.541 48.6567 32.814 48.6257 33.094 48.5742C31.3397 48.2537 29.2752 46.9579 27.4447 45.0576Z" fill="white"/>
<path d="M20.9122 32.5848C20.3846 32.8045 19.8403 33.0156 19.2793 33.2188V32.4062C19.2793 28.5223 20.9852 25.0286 23.683 22.6562C23.683 22.6562 26.0554 24.9636 29.8418 27.5884C29.8418 27.5884 26.1697 30.3996 20.9122 32.5848Z" fill="#DEEEEE"/>
<path d="M20.9044 32.4062C20.9044 28.5223 22.6103 25.0286 25.3081 22.6563C27.4012 20.8084 30.0942 19.6363 33.0578 19.4452C32.7984 19.4301 32.5421 19.4062 32.2794 19.4062C28.981 19.4062 25.9746 20.633 23.683 22.6563C20.9853 25.0286 19.2793 28.5223 19.2793 32.4062V33.2188C19.8379 33.0164 20.379 32.8062 20.9043 32.588L20.9044 32.4062Z" fill="#F0F4F4"/>
<path d="M24.9669 54.1085V55.969L22.5293 55.051V55.0431C22.7729 54.9052 22.9356 54.6448 22.9356 54.3441C22.9356 54.0433 22.7729 53.7832 22.5293 53.645V53.6371L22.7808 53.5395L24.9669 52.7191V54.1085Z" fill="#F0F4F4"/>
<path d="M23.0736 50.818C22.9839 51.6957 22.8872 52.6137 22.7808 53.5396L22.5293 53.6373V53.6452C22.4158 53.5721 22.2778 53.5317 22.123 53.5317C21.9849 53.5317 21.8469 53.5642 21.7326 53.6373L21.7168 53.5968L21.4486 53.4993C21.3756 52.8574 21.3026 52.2075 21.2296 51.5489C20.2465 42.6685 19.2793 33.2189 19.2793 33.2189C19.8402 33.0158 20.3845 32.8047 20.9122 32.585V34.0314C20.9122 37.1517 22.1556 40.231 23.9187 42.7416C23.8782 43.0914 23.5291 46.5357 23.0736 50.818Z" fill="#DEEEEE"/>
<path d="M22.5293 53.6452C22.7729 53.7833 22.9357 54.0435 22.9357 54.3443C22.9357 54.645 22.7729 54.9052 22.5293 55.0433C22.4159 55.1163 22.2778 55.1567 22.123 55.1567C21.977 55.1567 21.839 55.1163 21.7168 55.0433C21.4732 54.9053 21.3105 54.645 21.3105 54.3443C21.3105 54.0356 21.4811 53.7674 21.7326 53.6373C21.8469 53.5642 21.985 53.5317 22.123 53.5317C22.2778 53.5317 22.4159 53.5722 22.5293 53.6452Z" fill="#F0F4F4"/>
<path d="M21.4486 53.4993L21.7168 53.5968L21.7326 53.6372C21.4811 53.7674 21.3105 54.0355 21.3105 54.3442C21.3105 54.6449 21.4732 54.9052 21.7168 55.0432L19.2793 55.9692V52.7192L21.4486 53.4993Z" fill="#F0F4F4"/>
<path d="M21.5605 55.1972L22.1215 59.3025L22.6904 55.1567L21.5605 55.1972Z" fill="#DEEEEE"/>
<path d="M46.2452 52.3939C45.3343 52.0527 44.0663 51.679 42.8316 51.1593C40.7523 50.3064 38.7695 49.0708 38.7695 47.0317V45.033C38.2434 45.5812 37.6975 46.0787 37.1445 46.5183V46.658V48.4075C37.1445 50.4467 39.1274 51.6821 41.2067 52.5351C42.4413 53.0548 43.7092 53.4286 44.6203 53.7697C47.2195 54.7369 48.5193 55.9691 48.5193 58.5694C48.5193 59.4953 48.5193 60.2482 48.5193 60.8442H50.1442C50.1442 60.8442 50.1442 59.5446 50.1442 56.9444C50.1442 54.3442 48.8445 53.3612 46.2452 52.3939Z" fill="#DEEEEE"/>
<path d="M42.8336 51.1592C40.7543 50.3063 38.7715 49.0707 38.7715 47.0316V45.0408C38.245 45.5883 37.6991 46.0857 37.1465 46.5253V46.6579V48.4074C37.1465 50.4466 39.1294 51.682 41.2087 52.535C41.3888 52.6112 41.5688 52.6778 41.7497 52.7477C42.5711 51.8764 42.8415 51.1671 42.8415 51.1671V51.1623C42.839 51.1616 42.8359 51.16 42.8336 51.1592Z" fill="#DEEEEE"/>
<path d="M51.3744 44.1881C49.6789 44.1881 47.3746 42.8709 45.3601 40.7515C45.2053 40.5888 45.2116 40.3318 45.3744 40.1771C45.5363 40.0232 45.7924 40.028 45.9487 40.1914C47.7872 42.126 49.9167 43.3756 51.3744 43.3756C52.9795 43.3756 55.2029 42.0672 57.0366 40.0424C59.1186 37.7437 60.3118 34.9607 60.3118 32.4065C60.3118 32.182 60.4936 32.0002 60.7182 32.0002C60.9428 32.0002 61.1245 32.182 61.1245 32.4065C61.1245 38.4814 55.0416 44.1881 51.3744 44.1881Z" fill="url(#paint3_linear_13265_5707)"/>
<path d="M40.4065 47.1634C40.2379 47.1634 40.0808 47.0579 40.0224 46.8897C39.949 46.6778 40.0618 46.447 40.2736 46.3731C40.6912 46.2288 41.207 46.0907 41.7536 45.9446C43.7563 45.4083 46.5002 44.6734 46.5002 42.9692C46.5002 42.7446 46.682 42.5629 46.9064 42.5629C47.131 42.5629 47.3127 42.7446 47.3127 42.9692C47.3127 45.2972 44.2206 46.1247 41.9632 46.7294C41.4284 46.8722 40.9357 47.0039 40.5392 47.1413C40.4954 47.1563 40.4506 47.1634 40.4065 47.1634Z" fill="url(#paint4_linear_13265_5707)"/>
<path d="M65.5938 53.9379H50.8341C50.6095 53.9379 50.4277 53.7563 50.4277 53.5317C50.4277 53.3072 50.6095 53.1255 50.8341 53.1255H65.1877V50.4293C65.1877 48.5647 64.3124 47.9236 62.3501 47.1913C61.9424 47.0389 61.3813 46.8888 60.7879 46.7294C58.5297 46.1248 55.4376 45.2972 55.4376 42.9692C55.4376 42.7446 55.6193 42.5629 55.8439 42.5629C56.0683 42.5629 56.25 42.7446 56.25 42.9692C56.25 44.6734 58.994 45.4083 60.9974 45.9446C61.6106 46.1089 62.1907 46.2637 62.6341 46.4294C64.8169 47.2443 66.0001 48.1235 66.0001 50.4292V53.5316C66.0002 53.7563 65.8184 53.9379 65.5938 53.9379Z" fill="url(#paint5_linear_13265_5707)"/>
<path d="M46.9061 43.3754C46.6817 43.3754 46.5 43.1937 46.5 42.9692V41.652C46.5 41.4275 46.6817 41.2457 46.9061 41.2457C47.1307 41.2457 47.3125 41.4275 47.3125 41.652V42.9692C47.3125 43.1937 47.1307 43.3754 46.9061 43.3754Z" fill="url(#paint6_linear_13265_5707)"/>
<path d="M55.8438 43.3754C55.6192 43.3754 55.4375 43.1937 55.4375 42.9692V41.7448C55.4375 41.5203 55.6192 41.3386 55.8438 41.3386C56.0682 41.3386 56.25 41.5203 56.25 41.7448V42.9692C56.25 43.1937 56.0682 43.3754 55.8438 43.3754Z" fill="url(#paint7_linear_13265_5707)"/>
<path d="M61.5316 31.593C61.307 31.593 61.1255 31.4113 61.1255 31.1867C61.1255 25.8111 56.7518 21.4375 51.3754 21.4375C48.7865 21.4375 46.3481 22.4412 44.5113 24.2638C44.351 24.4217 44.0946 24.4193 43.9359 24.2614C43.778 24.102 43.7796 23.8448 43.9383 23.6862C45.9291 21.712 48.5706 20.625 51.3754 20.625C57.1993 20.625 61.9379 25.3628 61.9379 31.1867C61.9379 31.4113 61.7562 31.593 61.5316 31.593Z" fill="url(#paint8_linear_13265_5707)"/>
<path d="M61.5311 45.8129C61.3065 45.8129 61.125 45.6312 61.125 45.4067V31.1867C61.125 30.9622 61.3065 30.7805 61.5311 30.7805C61.7557 30.7805 61.9375 30.9622 61.9375 31.1867V45.4067C61.9375 45.6312 61.7557 45.8129 61.5311 45.8129Z" fill="url(#paint9_linear_13265_5707)"/>
<path d="M46.7871 30.9518C46.6334 30.9518 46.4866 30.8637 46.4175 30.7145C46.3246 30.5106 46.4143 30.2694 46.6183 30.1757C52.7803 27.355 57.1306 22.8267 57.1735 22.7815C57.329 22.6188 57.5861 22.6133 57.7481 22.7672C57.9108 22.9218 57.9171 23.179 57.7624 23.3417C57.7179 23.3877 53.2658 28.0262 46.9562 30.9152C46.9014 30.9399 46.8443 30.9518 46.7871 30.9518Z" fill="url(#paint10_linear_13265_5707)"/>
<path d="M61.5308 32.0095C61.4847 32.0095 61.4379 32.0016 61.3919 31.985C56.5416 30.2187 52.4069 27.5281 52.3656 27.5011C52.1775 27.3789 52.1252 27.1265 52.2482 26.9394C52.3712 26.7521 52.6235 26.6981 52.81 26.822C52.8505 26.8482 56.9106 29.488 61.6697 31.2217C61.8808 31.2987 61.9895 31.532 61.9126 31.7422C61.8522 31.9073 61.6966 32.0095 61.5308 32.0095Z" fill="url(#paint11_linear_13265_5707)"/>
<path d="M51.3752 50.3191C44.2031 50.3191 42.5346 46.3866 42.4672 46.2193C42.3831 46.0106 42.4838 45.7741 42.6916 45.69C42.8979 45.6068 43.1352 45.7058 43.2201 45.9129C43.282 46.0622 44.7903 49.5065 51.3752 49.5065C57.9626 49.5065 59.4701 46.0597 59.5312 45.9129C59.6177 45.7066 59.8557 45.6106 60.0605 45.6915C60.2674 45.7764 60.3674 46.0113 60.2841 46.2192C60.2166 46.3866 58.548 50.3191 51.3752 50.3191Z" fill="url(#paint12_linear_13265_5707)"/>
<path d="M32.2819 49.0629C27.8528 49.0629 20.5078 41.7821 20.5078 34.0312C20.5078 33.8066 20.6895 33.625 20.914 33.625C21.1385 33.625 21.3204 33.8066 21.3204 34.0312C21.3204 37.3015 22.7653 40.8887 25.2848 43.8737C27.5292 46.5326 30.2756 48.2505 32.2819 48.2505C32.5064 48.2505 32.6882 48.4321 32.6882 48.6567C32.6881 48.8812 32.5064 49.0629 32.2819 49.0629Z" fill="url(#paint13_linear_13265_5707)"/>
<path d="M32.2852 49.0629C32.0607 49.0629 31.8789 48.8811 31.8789 48.6566C31.8789 48.432 32.0606 48.2504 32.2852 48.2504C36.2088 48.2504 42.2947 41.9979 43.1421 35.603C43.1723 35.3792 43.3786 35.2245 43.5984 35.2532C43.8212 35.2833 43.9775 35.4872 43.9482 35.7094C43.0366 42.5874 36.6048 49.0629 32.2852 49.0629Z" fill="url(#paint14_linear_13265_5707)"/>
<path d="M50.1562 61.2505H14.4062C14.1817 61.2505 14 61.0688 14 60.8442V56.9452C14 54.3102 15.2834 53.2628 17.5007 52.344C17.7074 52.2567 17.9459 52.3567 18.0316 52.5637C18.1173 52.7708 18.0189 53.0088 17.8118 53.0945C15.8226 53.9189 14.8126 54.741 14.8126 56.9452V60.438H49.7502V56.9452C49.7502 54.5545 48.5774 53.6952 46.1137 52.7756C45.7852 52.6526 45.4091 52.5248 45.0044 52.3876C42.3647 51.4885 38.3751 50.1318 38.3751 47.0317C38.3751 46.8071 38.5569 46.6255 38.7814 46.6255C39.0059 46.6255 39.1876 46.8071 39.1876 47.0317C39.1876 49.5493 42.8454 50.7942 45.2663 51.6178C45.6797 51.7583 46.0629 51.8892 46.3978 52.0137C49.0987 53.023 50.5627 54.1076 50.5627 56.9451V60.8441C50.5626 61.0688 50.3808 61.2505 50.1562 61.2505Z" fill="url(#paint15_linear_13265_5707)"/>
<path d="M24.6138 50.2001C24.4904 50.2001 24.3685 50.1445 24.2888 50.0381C24.1539 49.8587 24.1896 49.6042 24.3689 49.4692C25.0552 48.9526 25.375 48.1783 25.375 47.0317C25.375 46.8071 25.5567 46.6255 25.7812 46.6255C26.0058 46.6255 26.1876 46.8071 26.1876 47.0317C26.1876 48.4353 25.7523 49.4446 24.8578 50.1183C24.7843 50.1739 24.6987 50.2001 24.6138 50.2001Z" fill="url(#paint16_linear_13265_5707)"/>
<path d="M38.7812 47.4379C38.5567 47.4379 38.375 47.2562 38.375 47.0316V45.0354C38.375 44.8108 38.5567 44.629 38.7812 44.629C39.0057 44.629 39.1875 44.8108 39.1875 45.0354V47.0316C39.1875 47.2562 39.0058 47.4379 38.7812 47.4379Z" fill="url(#paint17_linear_13265_5707)"/>
<path d="M25.7812 47.4379C25.5567 47.4379 25.375 47.2563 25.375 47.0317V45.1029C25.375 44.8783 25.5567 44.6965 25.7812 44.6965C26.0058 44.6965 26.1876 44.8783 26.1876 45.1029V47.0317C26.1875 47.2563 26.0058 47.4379 25.7812 47.4379Z" fill="url(#paint18_linear_13265_5707)"/>
<path d="M45.2813 32.8125C45.0567 32.8125 44.875 32.6309 44.875 32.4063C44.875 25.462 39.2256 19.8125 32.2812 19.8125C25.3368 19.8125 19.6876 25.4619 19.6876 32.4063C19.6876 32.6309 19.5058 32.8125 19.2813 32.8125C19.0567 32.8125 18.875 32.6309 18.875 32.4063C18.875 25.0144 24.8891 19 32.2813 19C39.6735 19 45.6876 25.0144 45.6876 32.4063C45.6876 32.6309 45.5059 32.8125 45.2813 32.8125Z" fill="url(#paint19_linear_13265_5707)"/>
<path d="M42.8435 41.7512C42.7205 41.7512 42.5983 41.6948 42.5183 41.5885C42.3843 41.4092 42.4207 41.1545 42.5999 41.0196C45.0025 39.2176 44.8764 34.9015 44.8748 34.8579C44.8669 34.6342 45.0423 34.4453 45.2668 34.4374C45.4875 34.4437 45.6788 34.6048 45.6875 34.8293C45.6938 35.0237 45.8262 39.6158 43.0872 41.6701C43.0142 41.725 42.9284 41.7512 42.8435 41.7512Z" fill="url(#paint20_linear_13265_5707)"/>
<path d="M44.9577 34.9263C44.93 34.9263 44.9021 34.9239 44.8752 34.9175C33.3741 32.5444 23.4987 23.0435 23.4002 22.9475C23.2395 22.7913 23.236 22.5342 23.3923 22.3732C23.5486 22.2121 23.8056 22.2089 23.9668 22.3652C24.0636 22.4588 33.7743 31.797 45.0386 34.1227C45.2584 34.1679 45.4004 34.3829 45.3544 34.6019C45.3148 34.7946 45.1457 34.9263 44.9577 34.9263Z" fill="url(#paint21_linear_13265_5707)"/>
<path d="M19.2813 33.6251C19.1155 33.6251 18.9596 33.5227 18.8997 33.3576C18.8228 33.1474 18.9314 32.9141 19.1425 32.8371C25.1212 30.6591 29.553 27.2996 29.5971 27.2654C29.776 27.1289 30.0311 27.1639 30.1664 27.3416C30.3028 27.5202 30.2687 27.7749 30.0906 27.9113C30.0458 27.9454 25.5211 31.3787 19.4202 33.6004C19.3745 33.6172 19.3274 33.6251 19.2813 33.6251Z" fill="url(#paint22_linear_13265_5707)"/>
<path d="M32.2852 56.3755C32.0607 56.3755 31.8789 56.1937 31.8789 55.9691C31.8789 55.7447 32.0606 55.563 32.2852 55.563C40.6359 55.563 42.394 51.2069 42.4646 51.022C42.5447 50.8125 42.7802 50.7086 42.9873 50.7856C43.1968 50.864 43.3031 51.0967 43.2254 51.3061C43.1484 51.5131 41.2394 56.3755 32.2852 56.3755Z" fill="url(#paint23_linear_13265_5707)"/>
<path d="M32.279 56.3755C30.0839 56.3755 28.1261 56.0771 26.4587 55.4892C26.2472 55.4146 26.1361 55.1821 26.2107 54.9709C26.2853 54.7583 26.5178 54.648 26.7292 54.7227C28.309 55.2805 30.1765 55.563 32.279 55.563C32.5035 55.563 32.6854 55.7446 32.6854 55.9691C32.6854 56.1938 32.5036 56.3755 32.279 56.3755Z" fill="url(#paint24_linear_13265_5707)"/>
<path d="M21.7187 54.0054C21.6731 54.0054 21.6263 53.9975 21.5807 53.9816L19.1432 53.1017C18.9321 53.0255 18.8231 52.7923 18.8992 52.5812C18.975 52.371 19.2071 52.2622 19.4193 52.3369L21.8569 53.2168C22.0679 53.293 22.177 53.5262 22.1008 53.7373C22.0413 53.9022 21.8849 54.0054 21.7187 54.0054Z" fill="url(#paint25_linear_13265_5707)"/>
<path d="M19.2813 56.3755C19.0567 56.3755 18.875 56.1937 18.875 55.9691V52.7192C18.875 52.4946 19.0567 52.313 19.2813 52.313C19.5058 52.313 19.6876 52.4946 19.6876 52.7192V55.9691C19.6876 56.1937 19.5058 56.3755 19.2813 56.3755Z" fill="url(#paint26_linear_13265_5707)"/>
<path d="M19.2813 56.3756C19.1175 56.3756 18.9631 56.2756 18.9016 56.1137C18.8219 55.9035 18.9274 55.6694 19.1373 55.5892L21.5747 54.6641C21.7831 54.5871 22.0192 54.6903 22.0984 54.8998C22.1781 55.11 22.0726 55.3441 21.8628 55.4243L19.4253 56.3494C19.378 56.3668 19.3293 56.3756 19.2813 56.3756Z" fill="url(#paint27_linear_13265_5707)"/>
<path d="M24.9689 56.3756C24.9213 56.3756 24.8725 56.3668 24.8253 56.3494L22.3878 55.4289C22.178 55.3496 22.072 55.1155 22.1513 54.9053C22.2303 54.695 22.464 54.5902 22.675 54.6688L25.1126 55.5892C25.3224 55.6686 25.4284 55.9027 25.349 56.1129C25.2875 56.2755 25.1332 56.3756 24.9689 56.3756Z" fill="url(#paint28_linear_13265_5707)"/>
<path d="M24.9688 56.3755C24.7442 56.3755 24.5625 56.1937 24.5625 55.9691V52.7192C24.5625 52.4946 24.7442 52.313 24.9688 52.313C25.1933 52.313 25.3751 52.4946 25.3751 52.7192V55.9691C25.3751 56.1937 25.1933 56.3755 24.9688 56.3755Z" fill="url(#paint29_linear_13265_5707)"/>
<path d="M22.5315 54.0458C22.3672 54.0458 22.2129 53.9458 22.1513 53.7832C22.072 53.5729 22.178 53.3389 22.3878 53.2596L24.8253 52.3391C25.0347 52.2613 25.2696 52.3653 25.3489 52.5755C25.4283 52.7858 25.3223 53.0198 25.1125 53.0992L22.6749 54.0196C22.6279 54.0371 22.579 54.0458 22.5315 54.0458Z" fill="url(#paint30_linear_13265_5707)"/>
<path d="M22.1281 55.563C21.4565 55.563 20.9102 55.0154 20.9102 54.3434C20.9102 53.6714 21.4565 53.1246 22.1281 53.1246C22.8006 53.1246 23.3477 53.6714 23.3477 54.3434C23.3477 55.0154 22.8006 55.563 22.1281 55.563ZM22.1281 53.9371C21.9044 53.9371 21.7227 54.1196 21.7227 54.3434C21.7227 54.5679 21.9044 54.7505 22.1281 54.7505C22.3527 54.7505 22.5352 54.5679 22.5352 54.3434C22.5352 54.1196 22.3527 53.9371 22.1281 53.9371Z" fill="url(#paint31_linear_13265_5707)"/>
<path d="M21.2599 52.1662C21.0555 52.1662 20.8799 52.013 20.8564 51.8051C19.9086 43.3214 18.8875 33.36 18.8771 33.26C18.8545 33.0371 19.0168 32.8371 19.2402 32.8149C19.4588 32.7887 19.6626 32.9537 19.6857 33.1775C19.6957 33.2767 20.7168 43.235 21.6642 51.7146C21.6888 51.9375 21.5286 52.1383 21.3056 52.1637C21.2901 52.1654 21.2751 52.1662 21.2599 52.1662Z" fill="url(#paint32_linear_13265_5707)"/>
<path d="M22.1254 59.6256C22.1087 59.6256 22.0921 59.6248 22.075 59.6224C21.8525 59.5947 21.6942 59.3923 21.7219 59.1693C21.8096 58.4607 21.9064 57.6467 22.0071 56.7722C22.0329 56.5494 22.2337 56.3977 22.4571 56.4152C22.68 56.4414 22.8399 56.6428 22.8141 56.8659C22.7133 57.7418 22.6165 58.5592 22.5281 59.2692C22.5027 59.4748 22.3277 59.6256 22.1254 59.6256Z" fill="url(#paint33_linear_13265_5707)"/>
<path d="M22.1289 59.6255C21.9267 59.6255 21.7517 59.4747 21.7263 59.2691C21.6378 58.5591 21.541 57.7417 21.4402 56.8658C21.4145 56.6428 21.5743 56.4413 21.7973 56.4151C22.0258 56.3968 22.2214 56.5491 22.2472 56.7721C22.348 57.6464 22.4448 58.4606 22.5324 59.1692C22.5602 59.3921 22.4019 59.5946 22.1793 59.6223C22.1623 59.6246 22.1456 59.6255 22.1289 59.6255Z" fill="url(#paint34_linear_13265_5707)"/>
<path d="M22.9769 52.1226C22.9627 52.1226 22.948 52.1218 22.9329 52.1203C22.71 52.0965 22.5484 51.8957 22.5727 51.6728C22.9781 47.915 23.3221 44.5531 23.3221 44.5531C23.3455 44.3293 23.5514 44.1667 23.7676 44.1906C23.991 44.2127 24.1532 44.4127 24.1306 44.6356C24.1306 44.6356 23.7858 47.9991 23.3804 51.7602C23.3578 51.9678 23.1816 52.1226 22.9769 52.1226Z" fill="url(#paint35_linear_13265_5707)"/>
<path d="M19.2813 33.6251C19.0567 33.6251 18.875 33.4434 18.875 33.2189V32.4063C18.875 32.1819 19.0567 32.0001 19.2813 32.0001C19.5058 32.0001 19.6876 32.1819 19.6876 32.4063V33.2189C19.6876 33.4434 19.5058 33.6251 19.2813 33.6251Z" fill="url(#paint36_linear_13265_5707)"/>
<path d="M45.2813 35.2501C45.0567 35.2501 44.875 35.0684 44.875 34.8438V32.4063C44.875 32.1819 45.0567 32.0001 45.2813 32.0001C45.5059 32.0001 45.6877 32.1819 45.6877 32.4063V34.8438C45.6877 35.0684 45.5059 35.2501 45.2813 35.2501Z" fill="url(#paint37_linear_13265_5707)"/>
<path d="M21.7188 49.8753C21.6149 49.8753 21.5109 49.8356 21.4315 49.7564C21.2728 49.5977 21.2728 49.3406 21.4315 49.1819L22.2441 48.3694C22.4027 48.2107 22.6598 48.2107 22.8185 48.3694C22.9772 48.528 22.9772 48.7851 22.8185 48.9438L22.006 49.7564C21.9267 49.8357 21.8227 49.8753 21.7188 49.8753Z" fill="url(#paint38_linear_13265_5707)"/>
<path d="M22.5313 49.8753C22.4274 49.8753 22.3235 49.8356 22.2441 49.7564L21.4315 48.9438C21.2728 48.7851 21.2728 48.528 21.4315 48.3694C21.5902 48.2107 21.8473 48.2107 22.006 48.3694L22.8185 49.1819C22.9772 49.3406 22.9772 49.5977 22.8185 49.7564C22.7393 49.8357 22.6353 49.8753 22.5313 49.8753Z" fill="url(#paint39_linear_13265_5707)"/>
<path d="M21.7188 47.4379C21.6149 47.4379 21.5109 47.3982 21.4315 47.3189C21.2728 47.1602 21.2728 46.9031 21.4315 46.7444L22.2441 45.932C22.4027 45.7733 22.6598 45.7733 22.8185 45.932C22.9772 46.0907 22.9772 46.3478 22.8185 46.5064L22.006 47.3189C21.9267 47.3983 21.8227 47.4379 21.7188 47.4379Z" fill="url(#paint40_linear_13265_5707)"/>
<path d="M22.5313 47.4379C22.4274 47.4379 22.3235 47.3982 22.2441 47.3189L21.4315 46.5064C21.2728 46.3478 21.2728 46.0907 21.4315 45.932C21.5902 45.7733 21.8473 45.7733 22.006 45.932L22.8185 46.7444C22.9772 46.9031 22.9772 47.1603 22.8185 47.3189C22.7393 47.3983 22.6353 47.4379 22.5313 47.4379Z" fill="url(#paint41_linear_13265_5707)"/>
<path d="M21.7188 45.0004C21.6149 45.0004 21.5109 44.9607 21.4315 44.8814C21.2728 44.7227 21.2728 44.4656 21.4315 44.3069L22.2441 43.4945C22.4027 43.3358 22.6598 43.3358 22.8185 43.4945C22.9772 43.6532 22.9772 43.9103 22.8185 44.0689L22.006 44.8814C21.9267 44.9608 21.8227 45.0004 21.7188 45.0004Z" fill="url(#paint42_linear_13265_5707)"/>
<path d="M22.5313 45.0004C22.4274 45.0004 22.3235 44.9607 22.2441 44.8814L21.4315 44.0689C21.2728 43.9103 21.2728 43.6531 21.4315 43.4945C21.5902 43.3358 21.8473 43.3358 22.006 43.4945L22.8185 44.3069C22.9772 44.4656 22.9772 44.7227 22.8185 44.8814C22.7393 44.9608 22.6353 45.0004 22.5313 45.0004Z" fill="url(#paint43_linear_13265_5707)"/>
<defs>
<linearGradient id="paint0_linear_13265_5707" x1="41.2168" y1="32.5144" x2="50.713" y2="35.8831" gradientUnits="userSpaceOnUse">
<stop stop-color="#F99073"/>
<stop offset="1" stop-color="#D2957E"/>
</linearGradient>
<linearGradient id="paint1_linear_13265_5707" x1="55.8418" y1="31.4148" x2="65.489" y2="34.5884" gradientUnits="userSpaceOnUse">
<stop stop-color="#F99073"/>
<stop offset="1" stop-color="#D2957E"/>
</linearGradient>
<linearGradient id="paint2_linear_13265_5707" x1="52.584" y1="23.1416" x2="61.684" y2="31.5208" gradientUnits="userSpaceOnUse">
<stop stop-color="#F99073"/>
<stop offset="1" stop-color="#D2957E"/>
</linearGradient>
<linearGradient id="paint3_linear_13265_5707" x1="42.5198" y1="34.7825" x2="77.8065" y2="21.1345" gradientUnits="userSpaceOnUse">
<stop stop-color="#46A29F"/>
<stop offset="1" stop-color="#4660A2"/>
</linearGradient>
<linearGradient id="paint4_linear_13265_5707" x1="38.7434" y1="43.6131" x2="54.0242" y2="36.4013" gradientUnits="userSpaceOnUse">
<stop stop-color="#46A29F"/>
<stop offset="1" stop-color="#4660A2"/>
</linearGradient>
<linearGradient id="paint5_linear_13265_5707" x1="47.7518" y1="45.1595" x2="81.8984" y2="31.2799" gradientUnits="userSpaceOnUse">
<stop stop-color="#46A29F"/>
<stop offset="1" stop-color="#4660A2"/>
</linearGradient>
<linearGradient id="paint6_linear_13265_5707" x1="46.3604" y1="41.7319" x2="48.41" y2="41.4997" gradientUnits="userSpaceOnUse">
<stop stop-color="#46A29F"/>
<stop offset="1" stop-color="#4660A2"/>
</linearGradient>
<linearGradient id="paint7_linear_13265_5707" x1="55.2979" y1="41.8036" x2="57.3451" y2="41.5611" gradientUnits="userSpaceOnUse">
<stop stop-color="#46A29F"/>
<stop offset="1" stop-color="#4660A2"/>
</linearGradient>
<linearGradient id="paint8_linear_13265_5707" x1="40.7047" y1="23.1288" x2="78.0226" y2="4.82388" gradientUnits="userSpaceOnUse">
<stop stop-color="#46A29F"/>
<stop offset="1" stop-color="#4660A2"/>
</linearGradient>
<linearGradient id="paint9_linear_13265_5707" x1="60.9854" y1="34.2121" x2="63.0607" y2="34.1788" gradientUnits="userSpaceOnUse">
<stop stop-color="#46A29F"/>
<stop offset="1" stop-color="#4660A2"/>
</linearGradient>
<linearGradient id="paint10_linear_13265_5707" x1="44.4058" y1="24.5494" x2="69.5227" y2="14.2178" gradientUnits="userSpaceOnUse">
<stop stop-color="#46A29F"/>
<stop offset="1" stop-color="#4660A2"/>
</linearGradient>
<linearGradient id="paint11_linear_13265_5707" x1="50.5052" y1="27.9547" x2="69.6219" y2="17.4161" gradientUnits="userSpaceOnUse">
<stop stop-color="#46A29F"/>
<stop offset="1" stop-color="#4660A2"/>
</linearGradient>
<linearGradient id="paint12_linear_13265_5707" x1="39.3657" y1="46.724" x2="59.2407" y2="24.0798" gradientUnits="userSpaceOnUse">
<stop stop-color="#46A29F"/>
<stop offset="1" stop-color="#4660A2"/>
</linearGradient>
<linearGradient id="paint13_linear_13265_5707" x1="18.4147" y1="37.1491" x2="47.9174" y2="30.2378" gradientUnits="userSpaceOnUse">
<stop stop-color="#46A29F"/>
<stop offset="1" stop-color="#4660A2"/>
</linearGradient>
<linearGradient id="paint14_linear_13265_5707" x1="29.8043" y1="38.403" x2="58.7049" y2="30.9031" gradientUnits="userSpaceOnUse">
<stop stop-color="#46A29F"/>
<stop offset="1" stop-color="#4660A2"/>
</linearGradient>
<linearGradient id="paint15_linear_13265_5707" x1="7.71707" y1="49.964" x2="67.9494" y2="5.25419" gradientUnits="userSpaceOnUse">
<stop stop-color="#46A29F"/>
<stop offset="1" stop-color="#4660A2"/>
</linearGradient>
<linearGradient id="paint16_linear_13265_5707" x1="23.8667" y1="47.4415" x2="28.7938" y2="46.6309" gradientUnits="userSpaceOnUse">
<stop stop-color="#46A29F"/>
<stop offset="1" stop-color="#4660A2"/>
</linearGradient>
<linearGradient id="paint17_linear_13265_5707" x1="38.2354" y1="45.2702" x2="40.2961" y2="45.0933" gradientUnits="userSpaceOnUse">
<stop stop-color="#46A29F"/>
<stop offset="1" stop-color="#4660A2"/>
</linearGradient>
<linearGradient id="paint18_linear_13265_5707" x1="25.2354" y1="45.3223" x2="27.2955" y2="45.141" gradientUnits="userSpaceOnUse">
<stop stop-color="#46A29F"/>
<stop offset="1" stop-color="#4660A2"/>
</linearGradient>
<linearGradient id="paint19_linear_13265_5707" x1="14.2675" y1="22.1531" x2="65.6924" y2="-7.48634" gradientUnits="userSpaceOnUse">
<stop stop-color="#46A29F"/>
<stop offset="1" stop-color="#4660A2"/>
</linearGradient>
<linearGradient id="paint20_linear_13265_5707" x1="41.8786" y1="36.107" x2="50.047" y2="35.0283" gradientUnits="userSpaceOnUse">
<stop stop-color="#46A29F"/>
<stop offset="1" stop-color="#4660A2"/>
</linearGradient>
<linearGradient id="paint21_linear_13265_5707" x1="19.4821" y1="25.1438" x2="63.9992" y2="2.11453" gradientUnits="userSpaceOnUse">
<stop stop-color="#46A29F"/>
<stop offset="1" stop-color="#4660A2"/>
</linearGradient>
<linearGradient id="paint22_linear_13265_5707" x1="16.9203" y1="28.6528" x2="39.7196" y2="16.7017" gradientUnits="userSpaceOnUse">
<stop stop-color="#46A29F"/>
<stop offset="1" stop-color="#4660A2"/>
</linearGradient>
<linearGradient id="paint23_linear_13265_5707" x1="29.9248" y1="52.0421" x2="51.2648" y2="39.2101" gradientUnits="userSpaceOnUse">
<stop stop-color="#46A29F"/>
<stop offset="1" stop-color="#4660A2"/>
</linearGradient>
<linearGradient id="paint24_linear_13265_5707" x1="25.0709" y1="55.082" x2="32.2122" y2="46.8622" gradientUnits="userSpaceOnUse">
<stop stop-color="#46A29F"/>
<stop offset="1" stop-color="#4660A2"/>
</linearGradient>
<linearGradient id="paint25_linear_13265_5707" x1="18.3165" y1="52.6996" x2="24.5825" y2="49.126" gradientUnits="userSpaceOnUse">
<stop stop-color="#46A29F"/>
<stop offset="1" stop-color="#4660A2"/>
</linearGradient>
<linearGradient id="paint26_linear_13265_5707" x1="18.7354" y1="53.2404" x2="20.8042" y2="53.1175" gradientUnits="userSpaceOnUse">
<stop stop-color="#46A29F"/>
<stop offset="1" stop-color="#4660A2"/>
</linearGradient>
<linearGradient id="paint27_linear_13265_5707" x1="18.3165" y1="55.0352" x2="24.6619" y2="51.5098" gradientUnits="userSpaceOnUse">
<stop stop-color="#46A29F"/>
<stop offset="1" stop-color="#4660A2"/>
</linearGradient>
<linearGradient id="paint28_linear_13265_5707" x1="21.5665" y1="55.0383" x2="27.9053" y2="51.508" gradientUnits="userSpaceOnUse">
<stop stop-color="#46A29F"/>
<stop offset="1" stop-color="#4660A2"/>
</linearGradient>
<linearGradient id="paint29_linear_13265_5707" x1="24.4229" y1="53.2404" x2="26.4917" y2="53.1175" gradientUnits="userSpaceOnUse">
<stop stop-color="#46A29F"/>
<stop offset="1" stop-color="#4660A2"/>
</linearGradient>
<linearGradient id="paint30_linear_13265_5707" x1="21.5665" y1="52.7088" x2="27.9045" y2="49.1783" gradientUnits="userSpaceOnUse">
<stop stop-color="#46A29F"/>
<stop offset="1" stop-color="#4660A2"/>
</linearGradient>
<linearGradient id="paint31_linear_13265_5707" x1="20.4913" y1="53.6813" x2="26.2152" y2="51.9823" gradientUnits="userSpaceOnUse">
<stop stop-color="#46A29F"/>
<stop offset="1" stop-color="#4660A2"/>
</linearGradient>
<linearGradient id="paint32_linear_13265_5707" x1="18.3953" y1="37.2302" x2="25.5152" y2="36.9253" gradientUnits="userSpaceOnUse">
<stop stop-color="#46A29F"/>
<stop offset="1" stop-color="#4660A2"/>
</linearGradient>
<linearGradient id="paint33_linear_13265_5707" x1="21.5301" y1="57.147" x2="24.3071" y2="56.8651" gradientUnits="userSpaceOnUse">
<stop stop-color="#46A29F"/>
<stop offset="1" stop-color="#4660A2"/>
</linearGradient>
<linearGradient id="paint34_linear_13265_5707" x1="21.2488" y1="57.1468" x2="24.0259" y2="56.8649" gradientUnits="userSpaceOnUse">
<stop stop-color="#46A29F"/>
<stop offset="1" stop-color="#4660A2"/>
</linearGradient>
<linearGradient id="paint35_linear_13265_5707" x1="22.3018" y1="45.9995" x2="26.2802" y2="45.7669" gradientUnits="userSpaceOnUse">
<stop stop-color="#46A29F"/>
<stop offset="1" stop-color="#4660A2"/>
</linearGradient>
<linearGradient id="paint36_linear_13265_5707" x1="18.7354" y1="32.3711" x2="20.7667" y2="32.0695" gradientUnits="userSpaceOnUse">
<stop stop-color="#46A29F"/>
<stop offset="1" stop-color="#4660A2"/>
</linearGradient>
<linearGradient id="paint37_linear_13265_5707" x1="44.7354" y1="32.742" x2="46.8004" y2="32.5887" gradientUnits="userSpaceOnUse">
<stop stop-color="#46A29F"/>
<stop offset="1" stop-color="#4660A2"/>
</linearGradient>
<linearGradient id="paint38_linear_13265_5707" x1="21.0333" y1="48.6213" x2="24.8489" y2="47.4884" gradientUnits="userSpaceOnUse">
<stop stop-color="#46A29F"/>
<stop offset="1" stop-color="#4660A2"/>
</linearGradient>
<linearGradient id="paint39_linear_13265_5707" x1="21.0333" y1="48.6213" x2="24.8489" y2="47.4884" gradientUnits="userSpaceOnUse">
<stop stop-color="#46A29F"/>
<stop offset="1" stop-color="#4660A2"/>
</linearGradient>
<linearGradient id="paint40_linear_13265_5707" x1="21.0333" y1="46.1839" x2="24.8489" y2="45.051" gradientUnits="userSpaceOnUse">
<stop stop-color="#46A29F"/>
<stop offset="1" stop-color="#4660A2"/>
</linearGradient>
<linearGradient id="paint41_linear_13265_5707" x1="21.0333" y1="46.1839" x2="24.8489" y2="45.051" gradientUnits="userSpaceOnUse">
<stop stop-color="#46A29F"/>
<stop offset="1" stop-color="#4660A2"/>
</linearGradient>
<linearGradient id="paint42_linear_13265_5707" x1="21.0333" y1="43.7464" x2="24.8489" y2="42.6135" gradientUnits="userSpaceOnUse">
<stop stop-color="#46A29F"/>
<stop offset="1" stop-color="#4660A2"/>
</linearGradient>
<linearGradient id="paint43_linear_13265_5707" x1="21.0333" y1="43.7464" x2="24.8489" y2="42.6135" gradientUnits="userSpaceOnUse">
<stop stop-color="#46A29F"/>
<stop offset="1" stop-color="#4660A2"/>
</linearGradient>
</defs>
</svg>
