<svg width="80" height="80" viewBox="0 0 80 80" fill="none" xmlns="http://www.w3.org/2000/svg">
<path d="M67.125 20.26V23.76H66.25H13.75H12.875V20.26H67.125Z" fill="#DEEEEE"/>
<path d="M27.75 35.135C28.7125 35.135 29.5 35.9138 29.5 36.885C29.5 37.8475 28.7125 38.635 27.75 38.635C27.2687 38.635 26.8313 38.4425 26.5163 38.1188C26.1925 37.8038 26 37.3663 26 36.885C26 35.9138 26.7875 35.135 27.75 35.135Z" fill="url(#paint0_linear_13265_5824)"/>
<path d="M27.75 29.01V35.135C26.7875 35.135 26 35.9138 26 36.885C26 37.3663 26.1925 37.8038 26.5163 38.1188L22.185 42.45C20.7588 41.0325 19.875 39.055 19.875 36.885C19.875 32.5363 23.4013 29.01 27.75 29.01Z" fill="#DEEEEE"/>
<path d="M27.7505 29.01C32.0993 29.01 35.6255 32.5363 35.6255 36.885C35.6255 41.2338 32.0993 44.76 27.7505 44.76C25.5805 44.76 23.603 43.8763 22.1855 42.45L26.5168 38.1188C26.8318 38.4425 27.2693 38.635 27.7505 38.635C28.713 38.635 29.5005 37.8475 29.5005 36.885C29.5005 35.9138 28.713 35.135 27.7505 35.135V29.01Z" fill="white"/>
<path d="M66.25 23.76V58.76H48.015H48.0063C44.5 58.76 43.5788 58.76 40 58.76C36.4212 58.76 35.625 58.76 31.9937 58.76H31.985H13.75V23.76H66.25ZM35.625 36.885C35.625 32.5363 32.0987 29.01 27.75 29.01C23.4013 29.01 19.875 32.5363 19.875 36.885C19.875 39.055 20.7588 41.0325 22.185 42.45C23.6025 43.8763 25.58 44.76 27.75 44.76C32.0987 44.76 35.625 41.2338 35.625 36.885Z" fill="url(#paint1_linear_13265_5824)"/>
<path d="M59.125 45.885H43.375C42.8937 45.885 42.5 45.66 42.5 45.385C42.5 45.11 42.8937 44.885 43.375 44.885H59.125C59.6063 44.885 60 45.11 60 45.385C60 45.66 59.615 45.885 59.125 45.885Z" fill="url(#paint2_linear_13265_5824)"/>
<path d="M44 45.635C43.725 45.635 43.5 45.2413 43.5 44.76V29.01C43.5 28.5288 43.725 28.135 44 28.135C44.275 28.135 44.5 28.5288 44.5 29.01V44.76C44.5 45.2413 44.28 45.635 44 45.635Z" fill="url(#paint3_linear_13265_5824)"/>
<path d="M47.5 45.635C47.225 45.635 47 45.2413 47 44.76V38.635C47 38.1538 47.225 37.76 47.5 37.76C47.775 37.76 48 38.1538 48 38.635V44.76C48 45.2413 47.775 45.635 47.5 45.635Z" fill="url(#paint4_linear_13265_5824)"/>
<path d="M51 45.635C50.725 45.635 50.5 45.2413 50.5 44.76V33.385C50.5 32.9038 50.725 32.51 51 32.51C51.275 32.51 51.5 32.9038 51.5 33.385V44.76C51.5 45.2413 51.28 45.635 51 45.635Z" fill="url(#paint5_linear_13265_5824)"/>
<path d="M58 45.635C57.725 45.635 57.5 45.2413 57.5 44.76V36.01C57.5 35.5288 57.725 35.135 58 35.135C58.275 35.135 58.5 35.5288 58.5 36.01V44.76C58.5 45.2413 58.275 45.635 58 45.635Z" fill="url(#paint6_linear_13265_5824)"/>
<path d="M54.5 45.635C54.225 45.635 54 45.2413 54 44.76V40.385C54 39.9038 54.225 39.51 54.5 39.51C54.775 39.51 55 39.9038 55 40.385V44.76C55 45.2413 54.775 45.635 54.5 45.635Z" fill="url(#paint7_linear_13265_5824)"/>
<path d="M61.875 50.26H42.625C42.1437 50.26 41.75 50.035 41.75 49.76C41.75 49.485 42.1437 49.26 42.625 49.26H61.875C62.3563 49.26 62.75 49.485 62.75 49.76C62.75 50.035 62.3563 50.26 61.875 50.26Z" fill="url(#paint8_linear_13265_5824)"/>
<path d="M58.375 52.885H46.125C45.6437 52.885 45.25 52.66 45.25 52.385C45.25 52.11 45.6437 51.885 46.125 51.885H58.375C58.8562 51.885 59.25 52.11 59.25 52.385C59.25 52.66 58.8562 52.885 58.375 52.885Z" fill="url(#paint9_linear_13265_5824)"/>
<path d="M37.375 50.26H18.125C17.6437 50.26 17.25 50.035 17.25 49.76C17.25 49.485 17.6437 49.26 18.125 49.26H37.375C37.8563 49.26 38.25 49.485 38.25 49.76C38.25 50.035 37.8563 50.26 37.375 50.26Z" fill="url(#paint10_linear_13265_5824)"/>
<path d="M33.875 52.885H21.625C21.1437 52.885 20.75 52.66 20.75 52.385C20.75 52.11 21.1437 51.885 21.625 51.885H33.875C34.3562 51.885 34.75 52.11 34.75 52.385C34.75 52.66 34.3562 52.885 33.875 52.885Z" fill="url(#paint11_linear_13265_5824)"/>
<path d="M28 29.5V35.5" stroke="url(#paint12_linear_13265_5824)" stroke-linecap="round" stroke-linejoin="round"/>
<path d="M22.5 41.5L26.5 38" stroke="url(#paint13_linear_13265_5824)" stroke-linecap="round" stroke-linejoin="round"/>
<circle cx="28" cy="37" r="7.5" stroke="url(#paint14_linear_13265_5824)"/>
<circle cx="28" cy="37" r="1.5" stroke="url(#paint15_linear_13265_5824)"/>
<path d="M13.5 21C13.5 20.7239 13.7239 20.5 14 20.5H40H46.75H52H66C66.2761 20.5 66.5 20.7239 66.5 21V27.3077V30V40V59C66.5 59.2761 66.2761 59.5 66 59.5H14C13.7239 59.5 13.5 59.2761 13.5 59V21Z" stroke="url(#paint16_linear_13265_5824)"/>
<path d="M10.5 21C10.5 20.7239 10.7239 20.5 11 20.5H40H47.5H53.3333H69.2692C69.3967 20.5 69.5 20.6033 69.5 20.7308V21V22V23C69.5 23.2761 69.2761 23.5 69 23.5H11C10.7239 23.5 10.5 23.2761 10.5 23V21Z" fill="white" stroke="url(#paint17_linear_13265_5824)"/>
<defs>
<linearGradient id="paint0_linear_13265_5824" x1="26" y1="35.135" x2="30.1974" y2="36.517" gradientUnits="userSpaceOnUse">
<stop stop-color="#ECF6F5"/>
<stop offset="1" stop-color="#EBF0F6"/>
</linearGradient>
<linearGradient id="paint1_linear_13265_5824" x1="13.75" y1="23.76" x2="69.8517" y2="51.4672" gradientUnits="userSpaceOnUse">
<stop stop-color="#ECF6F5"/>
<stop offset="1" stop-color="#EBF0F6"/>
</linearGradient>
<linearGradient id="paint2_linear_13265_5824" x1="39.4928" y1="45.1133" x2="41.0898" y2="36.8152" gradientUnits="userSpaceOnUse">
<stop stop-color="#46A29F"/>
<stop offset="1" stop-color="#4660A2"/>
</linearGradient>
<linearGradient id="paint3_linear_13265_5824" x1="43.3282" y1="32.1299" x2="45.8825" y2="32.0865" gradientUnits="userSpaceOnUse">
<stop stop-color="#46A29F"/>
<stop offset="1" stop-color="#4660A2"/>
</linearGradient>
<linearGradient id="paint4_linear_13265_5824" x1="46.8282" y1="39.5577" x2="49.3796" y2="39.4615" gradientUnits="userSpaceOnUse">
<stop stop-color="#46A29F"/>
<stop offset="1" stop-color="#4660A2"/>
</linearGradient>
<linearGradient id="paint5_linear_13265_5824" x1="50.3282" y1="35.5062" x2="52.8819" y2="35.4484" gradientUnits="userSpaceOnUse">
<stop stop-color="#46A29F"/>
<stop offset="1" stop-color="#4660A2"/>
</linearGradient>
<linearGradient id="paint6_linear_13265_5824" x1="57.3282" y1="37.5319" x2="59.8812" y2="37.4597" gradientUnits="userSpaceOnUse">
<stop stop-color="#46A29F"/>
<stop offset="1" stop-color="#4660A2"/>
</linearGradient>
<linearGradient id="paint7_linear_13265_5824" x1="53.8282" y1="40.9082" x2="56.3772" y2="40.7846" gradientUnits="userSpaceOnUse">
<stop stop-color="#46A29F"/>
<stop offset="1" stop-color="#4660A2"/>
</linearGradient>
<linearGradient id="paint8_linear_13265_5824" x1="38.1414" y1="49.4883" x2="39.4869" y2="41.0987" gradientUnits="userSpaceOnUse">
<stop stop-color="#46A29F"/>
<stop offset="1" stop-color="#4660A2"/>
</linearGradient>
<linearGradient id="paint9_linear_13265_5824" x1="42.8442" y1="52.1133" x2="44.8012" y2="43.9787" gradientUnits="userSpaceOnUse">
<stop stop-color="#46A29F"/>
<stop offset="1" stop-color="#4660A2"/>
</linearGradient>
<linearGradient id="paint10_linear_13265_5824" x1="13.6414" y1="49.4883" x2="14.9869" y2="41.0987" gradientUnits="userSpaceOnUse">
<stop stop-color="#46A29F"/>
<stop offset="1" stop-color="#4660A2"/>
</linearGradient>
<linearGradient id="paint11_linear_13265_5824" x1="18.3442" y1="52.1133" x2="20.3012" y2="43.9787" gradientUnits="userSpaceOnUse">
<stop stop-color="#46A29F"/>
<stop offset="1" stop-color="#4660A2"/>
</linearGradient>
<linearGradient id="paint12_linear_13265_5824" x1="27.8282" y1="30.8697" x2="30.377" y2="30.7435" gradientUnits="userSpaceOnUse">
<stop stop-color="#46A29F"/>
<stop offset="1" stop-color="#4660A2"/>
</linearGradient>
<linearGradient id="paint13_linear_13265_5824" x1="21.8126" y1="38.799" x2="30.9776" y2="35.689" gradientUnits="userSpaceOnUse">
<stop stop-color="#46A29F"/>
<stop offset="1" stop-color="#4660A2"/>
</linearGradient>
<linearGradient id="paint14_linear_13265_5824" x1="17.2506" y1="32.6524" x2="54.8196" y2="21.4977" gradientUnits="userSpaceOnUse">
<stop stop-color="#46A29F"/>
<stop offset="1" stop-color="#4660A2"/>
</linearGradient>
<linearGradient id="paint15_linear_13265_5824" x1="25.3126" y1="35.9131" x2="34.7049" y2="33.1244" gradientUnits="userSpaceOnUse">
<stop stop-color="#46A29F"/>
<stop offset="1" stop-color="#4660A2"/>
</linearGradient>
<linearGradient id="paint16_linear_13265_5824" x1="3.72064" y1="29.1311" x2="122.595" y2="-18.5177" gradientUnits="userSpaceOnUse">
<stop stop-color="#46A29F"/>
<stop offset="1" stop-color="#4660A2"/>
</linearGradient>
<linearGradient id="paint17_linear_13265_5824" x1="-0.310398" y1="20.9131" x2="7.04741" y2="-11.8564" gradientUnits="userSpaceOnUse">
<stop stop-color="#46A29F"/>
<stop offset="1" stop-color="#4660A2"/>
</linearGradient>
</defs>
</svg>
