<svg width="80" height="80" viewBox="0 0 80 80" fill="none" xmlns="http://www.w3.org/2000/svg">
<path d="M64.3459 13.0977C58.1336 13.0977 53.0977 18.1334 53.0977 24.3453V41.2176H75.5942V24.3453C75.5944 18.1334 70.5584 13.0977 64.3459 13.0977Z" fill="#DEEEEE"/>
<path d="M76.206 38.7562C75.719 38.5695 73.8322 37.0951 73.095 36.8438H64.3463H64.3328H55.584C54.8469 37.0951 52.96 38.5695 52.473 38.7562C50.3603 39.5435 49.3105 40.3306 49.3105 42.4434C49.3105 44.5428 49.3105 45.5924 49.3105 45.5924H79.3683C79.3683 45.5924 79.3683 44.5428 79.3683 42.4434C79.3683 40.3306 78.3188 39.5435 76.206 38.7562Z" fill="#DEEEEE"/>
<path d="M54.9728 38.7562C55.4594 38.5695 57.3465 37.0951 58.0838 36.8438H55.584C54.8469 37.0951 52.96 38.5695 52.473 38.7562C50.3603 39.5435 49.3105 40.3306 49.3105 42.4434C49.3105 44.5428 49.3105 45.5924 49.3105 45.5924H51.8103C51.8103 45.5924 51.8103 44.5428 51.8103 42.4434C51.8105 40.3306 52.8599 39.5435 54.9728 38.7562Z" fill="#DEEEEE"/>
<path d="M69.3579 34.2344H59.3594V38.7186H69.3579V34.2344Z" fill="#F0F4F4"/>
<path d="M73.0953 36.8439L69.3266 34.2344L65.6211 45.5924L70.5959 40.5932L69.3462 39.3435L73.0953 36.8439Z" fill="white"/>
<path d="M55.5898 36.8439L59.3589 34.2344L63.0644 45.5924L58.0896 40.5932L59.3393 39.3435L55.5898 36.8439Z" fill="white"/>
<path d="M64.3438 39.343V45.5919H65.618L68.0931 38.1053L64.3438 39.343Z" fill="#DEEEEE"/>
<path d="M63.0633 45.5919H64.3375V39.343L60.5879 38.1053L63.0633 45.5919Z" fill="#DEEEEE"/>
<path d="M69.981 19.5688C69.9029 19.534 66.5453 19.4455 64.3448 19.3906C62.1442 19.4455 58.7864 19.534 58.7082 19.5688C58.5913 19.6207 55.6094 24.795 55.6094 24.795V26.1193C55.6094 31.6995 61.0188 36.8281 64.3448 36.8416C67.6704 36.8281 73.0798 31.6995 73.0798 26.1193V24.795C73.0798 24.7952 70.0983 19.6207 69.981 19.5688Z" fill="#F0F4F4"/>
<path d="M58.1091 26.1203V24.796C58.1091 24.796 61.0907 19.6217 61.208 19.5698C61.2727 19.5411 63.5597 19.4763 65.5945 19.4233C65.1588 19.4124 64.7328 19.4015 64.3448 19.3916C62.1442 19.4465 58.7864 19.535 58.7082 19.5698C58.5913 19.6217 55.6094 24.796 55.6094 24.796V26.1203C55.6094 31.7004 61.0188 36.8291 64.3448 36.8425C64.7365 36.8406 65.1575 36.7631 65.5945 36.6271C62.3185 35.6103 58.1091 31.0438 58.1091 26.1203Z" fill="white"/>
<path d="M53.2585 26.1711C56.6627 25.218 64.4726 22.2703 66.8454 20.9082C70.4704 18.8485 72.6636 16.9073 72.721 16.856C70.6621 14.5541 67.6777 13.0975 64.3459 13.0975C58.1336 13.0975 53.0977 18.1333 53.0977 24.3452C53.0975 24.9691 53.1611 25.5755 53.2585 26.1711Z" fill="#DEEEEE"/>
<path d="M54.3474 24.3453C54.3474 18.3525 59.0392 13.468 64.9475 13.1306C64.7463 13.1197 64.5496 13.0977 64.3459 13.0977C58.1336 13.0977 53.0977 18.1334 53.0977 24.3453C53.0977 24.9689 53.1611 25.5755 53.2585 26.1711C53.6128 26.0723 54.0228 25.9471 54.4609 25.8086C54.3951 25.3289 54.3474 24.8438 54.3474 24.3453Z" fill="#F0F4F4"/>
<path d="M75.5945 24.3457C75.5945 21.3297 74.4006 18.5964 72.4663 16.5781L66.8457 20.9207C66.8457 20.9207 69.637 24.0061 75.525 25.5757C75.5689 25.1708 75.5945 24.7618 75.5945 24.3457Z" fill="#DEEEEE"/>
<path d="M30.6477 45.5987H0.652344V44.3488C0.652344 44.3488 0.652344 43.5117 0.652344 41.4368C0.652344 39.3492 1.70196 38.5617 3.7768 37.7868C4.79953 37.3992 6.63769 36.712 8.15099 35.9871L9.61332 34.5371L13.1747 38.0991L15.6743 36.8616L18.1739 38.0991L21.7231 34.5499L23.1487 35.9743C24.672 36.712 26.4978 37.3992 27.5231 37.7868C29.6103 38.5617 30.6475 39.349 30.6475 41.4368C30.6475 43.5115 30.6475 44.3488 30.6475 44.3488V45.5987H30.6477Z" fill="#F0F4F4"/>
<path d="M3.1521 41.436C3.1521 39.3484 4.20172 38.5609 6.27656 37.786C7.29929 37.3984 9.13744 36.7112 10.6507 35.9863L10.8582 35.7812L9.61332 34.5361L8.15099 35.9861C6.63753 36.711 4.79953 37.3983 3.7768 37.7858C1.70196 38.5608 0.652344 39.3481 0.652344 41.4359C0.652344 43.5106 0.652344 44.3479 0.652344 44.3479V45.5978H3.15194V44.3479C3.1521 44.348 3.1521 43.5109 3.1521 41.436Z" fill="white"/>
<path d="M28.173 41.4362C28.173 39.3486 27.1234 38.5611 25.0486 37.7862C24.0259 37.3986 22.1877 36.7114 20.6742 35.9865L20.4668 35.7814L21.7117 34.5363L23.1738 35.9863C24.6873 36.7112 26.5255 37.3985 27.5482 37.786C29.623 38.561 30.6726 39.3482 30.6726 41.4361C30.6726 43.5108 30.6726 44.3481 30.6726 44.3481V45.598H28.173V44.3481C28.173 44.3482 28.173 43.5111 28.173 41.4362Z" fill="#DEEEEE"/>
<path d="M16.9508 45.5978H14.4512L15.076 38.8116H16.3259L16.9508 45.5978Z" fill="#DEEEEE"/>
<path d="M16.7711 37.1124H14.5449V38.8112H16.7711V37.1124Z" fill="#DEEEEE"/>
<path d="M13.2024 38.1917L9.45312 34.4423L10.7028 33.1924L15.7216 35.8629V36.9419L13.2024 38.1917Z" fill="white"/>
<path d="M18.2026 38.1917L21.9521 34.4423L20.7023 33.1924L15.6836 35.8629V36.9419L18.2026 38.1917Z" fill="white"/>
<path d="M8.16338 13.1959C8.16338 13.1959 25.6607 6.94687 24.4488 23.1945L21.8112 19.445C16.3616 19.1203 10.2626 21.5571 6.92586 23.1445C5.36363 23.8945 4.41406 24.4442 4.41406 24.4442C4.41406 16.6329 9.51331 14.4458 9.51331 14.4458L8.16338 13.1959Z" fill="#DEEEEE"/>
<path d="M10.8582 14.7386L9.41326 13.1958C9.41326 13.1958 12.3132 12.1609 15.6697 12.0291C11.8177 11.8961 8.16338 13.1958 8.16338 13.1958L9.51331 14.4457C9.51331 14.4457 4.41406 16.6328 4.41406 24.4441C4.41406 24.4441 4.884 24.1731 5.69192 23.7575C5.98598 16.5169 10.8582 14.7386 10.8582 14.7386Z" fill="#F0F4F4"/>
<path d="M24.4488 23.1939V24.4558C24.4488 30.3925 19.037 35.867 15.7001 35.867C12.3754 35.867 6.95142 30.3924 6.95142 24.4558V23.1939L6.92578 23.1439C10.2627 21.5566 16.3615 19.1199 21.8111 19.4444L24.4488 23.1939Z" fill="#F0F4F4"/>
<path d="M9.45102 24.4568V23.1949L9.42538 23.1449C12.2642 21.7943 17.1036 19.8441 21.8404 19.4881L21.8111 19.4454C16.3615 19.1207 10.2625 21.5575 6.92578 23.1449L6.95142 23.1949V24.4568C6.95142 30.3935 12.3754 35.868 15.7001 35.868C16.0919 35.868 16.5141 35.7862 16.9511 35.6433C13.674 34.5695 9.45102 29.696 9.45102 24.4568Z" fill="white"/>
<path d="M30.2581 43.7927C28.5835 40.9551 27.4838 37.6809 27.4838 34.319V33.0936L31.2968 27.6459C30.0921 27.2016 29.3587 26.8447 29.3587 26.8447L24.9844 33.0938V34.3191C24.9844 37.6811 26.0842 40.9551 27.7587 43.7929C30.9455 49.2168 36.2448 53.0909 39.9821 53.0909C40.3812 53.0909 40.7997 53.0371 41.2295 52.9516C37.6312 52.235 33.1043 48.6356 30.2581 43.7927Z" fill="white"/>
<path d="M64.3772 42.4747C64.0316 42.4747 63.7461 42.1952 63.7461 41.8498C63.7461 41.5043 64.0194 41.2248 64.3638 41.2248H64.3772C64.7213 41.2248 65.0019 41.5043 65.0019 41.8498C65.0019 42.1952 64.7213 42.4747 64.3772 42.4747Z" fill="url(#paint0_linear_13265_5101)"/>
<path d="M64.3393 37.4679C62.2814 37.4679 59.5779 35.7636 57.6094 33.2272C57.398 32.9544 57.4482 32.562 57.7202 32.3504C57.9925 32.1387 58.3856 32.1875 58.5977 32.4609C60.3128 34.673 62.6742 36.2183 64.3393 36.2183C67.3955 36.2183 72.4631 31.327 72.4631 26.1203C72.4631 25.7749 72.7425 25.4953 73.0878 25.4953C73.4332 25.4953 73.7129 25.7749 73.7129 26.1203C73.7129 32.1642 67.8703 37.4679 64.3393 37.4679Z" fill="url(#paint1_linear_13265_5101)"/>
<path d="M79.3741 46.217H54.3535C54.0082 46.217 53.7285 45.9375 53.7285 45.5922C53.7285 45.2467 54.0082 44.9673 54.3535 44.9673H78.7494V42.4432C78.7494 40.8143 78.1573 40.1473 75.9934 39.3418C75.6612 39.2137 75.2486 39.077 74.7885 38.9243L74.1113 38.6981C73.7855 38.5869 73.6096 38.2319 73.7208 37.9053C73.8332 37.5776 74.187 37.4055 74.514 37.5142L75.183 37.7382C75.6635 37.898 76.0944 38.0413 76.4364 38.1726C78.6907 39.0129 79.9991 39.982 79.9991 42.4432V45.5922C79.9991 45.9373 79.7194 46.217 79.3741 46.217Z" fill="url(#paint2_linear_13265_5101)"/>
<path d="M15.6226 46.217H0.624861C0.279522 46.217 0 45.9375 0 45.5922V41.4303C0 39.0032 1.29365 38.0396 3.52842 37.1962C4.50237 36.8399 6.35147 36.138 7.85399 35.4179C8.16149 35.2703 8.53872 35.399 8.68755 35.7109C8.83638 36.0221 8.70459 36.3956 8.39333 36.5444C6.84455 37.2872 4.95402 38.0055 3.96412 38.3679C1.83425 39.1718 1.24972 39.8306 1.24972 41.4303V44.9673H15.6226C15.968 44.9673 16.2475 45.2467 16.2475 45.5922C16.2475 45.9374 15.968 46.217 15.6226 46.217Z" fill="url(#paint3_linear_13265_5101)"/>
<path d="M25.6091 46.2167H15.6229C15.2776 46.2167 14.998 45.9372 14.998 45.5919C14.998 45.2464 15.2776 44.967 15.6229 44.967H25.6091C25.9545 44.967 26.2341 45.2464 26.2341 45.5919C26.2341 45.937 25.9546 46.2167 25.6091 46.2167Z" fill="url(#paint4_linear_13265_5101)"/>
<path d="M15.6587 36.3937C12.1278 36.3937 6.28516 30.7745 6.28516 24.3703C6.28516 24.025 6.56468 23.7453 6.91002 23.7453C7.25536 23.7453 7.53488 24.0249 7.53488 24.3703C7.53488 29.9256 12.6026 35.1438 15.6587 35.1438C17.3052 35.1438 19.6474 33.5169 21.3548 31.1875C21.5599 30.9099 21.9492 30.8489 22.2287 31.0528C22.507 31.2566 22.5669 31.6478 22.363 31.926C20.4042 34.5982 17.7104 36.3937 15.6587 36.3937Z" fill="url(#paint5_linear_13265_5101)"/>
<path d="M13.1477 38.7182C12.9854 38.7182 12.8255 38.6554 12.7059 38.535L8.95658 34.7856C8.71239 34.5415 8.71239 34.1461 8.95658 33.902C9.20077 33.658 9.59614 33.6579 9.84017 33.902L13.2734 37.3348L15.3482 36.3071C15.5851 36.1784 15.8816 36.2053 16.0842 36.3974C16.3345 36.6354 16.3503 37.0248 16.1124 37.2743C16.0624 37.3275 15.9903 37.3836 15.9245 37.4158L13.4236 38.6535C13.3356 38.6968 13.2417 38.7182 13.1477 38.7182Z" fill="url(#paint6_linear_13265_5101)"/>
<path d="M18.1458 38.7183C18.0517 38.7183 17.9566 38.6968 17.8687 38.6535L15.3691 37.4165L15.9124 36.2899L18.0213 37.3342L21.4534 33.9021C21.6976 33.6579 22.093 33.6579 22.337 33.9021C22.5811 34.1463 22.5812 34.5417 22.337 34.7857L18.5877 38.535C18.468 38.6552 18.308 38.7183 18.1458 38.7183Z" fill="url(#paint7_linear_13265_5101)"/>
<path d="M4.37502 24.9702C4.26762 24.9702 4.16022 24.942 4.06251 24.8865C3.86975 24.7755 3.75 24.5687 3.75 24.3453C3.75 18.0554 6.89525 15.2267 8.42215 14.2248L7.69958 13.5554C7.53965 13.407 7.46774 13.1855 7.51151 12.972C7.55544 12.7578 7.70802 12.5821 7.91438 12.5089C8.25362 12.3874 16.2919 9.5797 21.2974 12.9063C23.6078 14.4429 24.8771 17.0182 25.07 20.5619C25.0895 20.9068 24.8247 21.2015 24.4805 21.2197C24.1021 21.2752 23.8422 20.9745 23.8226 20.6302C23.6517 17.5014 22.5704 15.2532 20.6053 13.9473C17.0866 11.6083 11.5979 12.7573 9.34608 13.3773L9.89902 13.8887C10.0541 14.0322 10.126 14.2445 10.0907 14.4532C10.0541 14.6619 9.91481 14.8376 9.7208 14.9213C9.54024 15.0005 5.45152 16.8698 5.03411 23.2732C7.67285 21.8873 15.1534 18.3276 21.8089 18.7225C22.0262 18.7347 22.2215 18.8597 22.3239 19.0525L23.6578 21.5454C23.8239 21.8482 23.7129 22.2276 23.4101 22.3936C23.1124 22.559 22.7278 22.4498 22.5618 22.146L21.3876 19.9539C13.7801 19.6769 4.78007 24.8329 4.68862 24.8861C4.59216 24.9422 4.48367 24.9702 4.37502 24.9702Z" fill="url(#paint8_linear_13265_5101)"/>
<path d="M15.6227 39.9678C15.463 39.9678 15.303 39.9067 15.181 39.7848L13.9311 38.5349C13.687 38.2908 13.687 37.8953 13.9311 37.6513C14.1753 37.4071 14.5706 37.4071 14.8148 37.6513L16.0645 38.9012C16.3087 39.1454 16.3087 39.5407 16.0645 39.7848C15.9424 39.9067 15.7825 39.9678 15.6227 39.9678Z" fill="url(#paint9_linear_13265_5101)"/>
<path d="M15.623 39.9677C15.4632 39.9677 15.3033 39.9065 15.1812 39.7846C14.937 39.5404 14.937 39.1451 15.1812 38.901L16.4311 37.6511C16.6751 37.4069 17.0706 37.4069 17.3147 37.6511C17.5587 37.8953 17.5589 38.2908 17.3147 38.5347L16.0648 39.7846C15.9427 39.9065 15.7828 39.9677 15.623 39.9677Z" fill="url(#paint10_linear_13265_5101)"/>
<path d="M14.3744 44.9669C14.3513 44.9669 14.3281 44.9656 14.3036 44.9633C13.9606 44.9255 13.714 44.6165 13.7519 44.2725L14.3767 38.6489C14.4146 38.3052 14.7099 38.0549 15.0676 38.0965C15.4106 38.135 15.6571 38.4439 15.6193 38.7867L14.9944 44.4114C14.9591 44.7302 14.688 44.9669 14.3744 44.9669Z" fill="url(#paint11_linear_13265_5101)"/>
<path d="M16.8718 44.9676C16.5582 44.9676 16.2871 44.7308 16.2517 44.4122L15.6269 38.7875C15.589 38.4446 15.8356 38.1357 16.1786 38.0973C16.5289 38.0569 16.8316 38.306 16.8694 38.6496L17.4944 44.2732C17.5323 44.6173 17.2857 44.9262 16.9427 44.964C16.918 44.9665 16.8949 44.9676 16.8718 44.9676Z" fill="url(#paint12_linear_13265_5101)"/>
<path d="M75.6016 36.6689C75.2559 36.6689 74.9766 36.3893 74.9766 36.0438V24.3452C74.9766 23.9997 75.2559 23.7202 75.6016 23.7202C75.9469 23.7202 76.2263 23.9997 76.2263 24.3452V36.0438C76.2263 36.3893 75.9469 36.6689 75.6016 36.6689Z" fill="url(#paint13_linear_13265_5101)"/>
<path d="M54.2793 19.9707C54.1852 19.9707 54.0903 19.9499 54.0012 19.9055C53.6921 19.7523 53.5667 19.3771 53.719 19.0682C55.7404 14.9996 59.8144 12.4719 64.3535 12.4719C64.6989 12.4719 64.9782 12.7514 64.9782 13.0969C64.9782 13.4422 64.6989 13.7218 64.3535 13.7218C60.2928 13.7218 56.6471 15.9834 54.8396 19.6236C54.7297 19.8437 54.509 19.9707 54.2793 19.9707Z" fill="url(#paint14_linear_13265_5101)"/>
<path d="M75.6018 24.9701C75.2562 24.9701 74.9768 24.6905 74.9768 24.3452C74.9768 21.7168 74.0174 19.2025 72.2746 17.2643C70.2557 15.0125 67.3681 13.7218 64.3535 13.7218C64.0079 13.7218 63.7285 13.4422 63.7285 13.0969C63.7285 12.7514 64.0079 12.4719 64.3535 12.4719C67.7233 12.4719 70.949 13.9139 73.2046 16.4288C75.1539 18.5964 76.2265 21.408 76.2265 24.3452C76.2265 24.6905 75.9471 24.9701 75.6018 24.9701Z" fill="url(#paint15_linear_13265_5101)"/>
<path d="M58.1036 25.2452C57.83 25.2452 57.5788 25.0647 57.5017 24.7889C57.4089 24.4562 57.603 24.1115 57.9349 24.0186C60.8325 23.2095 63.7275 21.9804 66.5409 20.3662C70.1084 18.3395 72.3005 16.399 72.3224 16.3799C72.5797 16.1498 72.9752 16.1718 73.2048 16.4306C73.4342 16.6881 73.4121 17.0829 73.1548 17.3124C73.062 17.3948 70.8505 19.3556 67.1607 21.4512C64.2597 23.116 61.2684 24.3854 58.2718 25.2221C58.2155 25.2379 58.1582 25.2452 58.1036 25.2452Z" fill="url(#paint16_linear_13265_5101)"/>
<path d="M75.6021 26.2194C75.5496 26.2194 75.4958 26.2126 75.4433 26.1986C69.3954 24.6077 66.5092 21.4722 66.3894 21.3397C66.1588 21.084 66.1784 20.6899 66.4333 20.4579C66.6883 20.229 67.084 20.2456 67.3158 20.5006C67.3427 20.5304 70.0987 23.4999 75.7606 24.9903C76.095 25.0781 76.294 25.4199 76.2062 25.7536C76.1327 26.0339 75.879 26.2194 75.6021 26.2194Z" fill="url(#paint17_linear_13265_5101)"/>
<path d="M73.0876 26.7458C72.7423 26.7458 72.4629 26.4662 72.4629 26.1209V24.796C72.4629 24.4506 72.7423 24.1711 73.0876 24.1711C73.4329 24.1711 73.7126 24.4506 73.7126 24.796V26.1209C73.7126 26.4662 73.4329 26.7458 73.0876 26.7458Z" fill="url(#paint18_linear_13265_5101)"/>
<path d="M66.8767 44.9672C66.7179 44.9672 66.5583 44.9061 66.4362 44.7852C66.1921 44.5424 66.1898 44.1469 66.4337 43.9016L69.7195 40.5941L68.91 39.7849C68.7771 39.6524 68.7113 39.4676 68.7296 39.2814C68.7491 39.0954 68.8493 38.9267 69.0053 38.823L71.9933 36.8306L70.2432 35.6059C69.961 35.4081 69.8914 35.0182 70.0904 34.7356C70.288 34.4518 70.6776 34.3847 70.9606 34.5819L73.46 36.3314C73.6285 36.4499 73.7288 36.6439 73.7262 36.8507C73.7237 37.0569 73.6199 37.2486 73.4478 37.3633L70.3331 39.4401L71.0436 40.1511C71.2876 40.3946 71.2876 40.7887 71.0448 41.0336L67.3198 44.7829C67.1977 44.9062 67.0379 44.9672 66.8767 44.9672Z" fill="url(#paint19_linear_13265_5101)"/>
<path d="M61.8273 44.9674C61.6664 44.9674 61.5063 44.9063 61.3842 44.783L57.6607 41.0336C57.4176 40.789 57.4176 40.3947 57.6619 40.1511L58.3697 39.4433L57.7593 39.0406C57.4714 38.8501 57.3919 38.4627 57.5825 38.1746C57.7715 37.8853 58.1595 37.8079 58.4478 37.997L59.6975 38.8214C59.8539 38.925 59.9561 39.0936 59.9744 39.2804C59.9939 39.467 59.9283 39.6526 59.7952 39.7852L58.9861 40.5943L62.2703 43.9019C62.5145 44.1472 62.5121 44.5428 62.2678 44.7855C62.146 44.9065 61.9861 44.9674 61.8273 44.9674Z" fill="url(#paint20_linear_13265_5101)"/>
<path d="M64.353 39.968C61.6264 39.968 60.2202 38.5937 60.1615 38.535C59.9175 38.291 59.9175 37.8955 60.1615 37.6514C60.4056 37.4097 60.8 37.4079 61.0415 37.6478C61.0867 37.6918 62.1718 38.7184 64.353 38.7184C66.5365 38.7184 67.6213 37.7022 67.6664 37.6589C67.9144 37.4221 68.3085 37.4277 68.5477 37.6718C68.787 37.9177 68.7858 38.3088 68.5416 38.5505C68.483 38.6083 67.0785 39.968 64.353 39.968Z" fill="url(#paint21_linear_13265_5101)"/>
<path d="M58.6954 36.6875C58.6954 26.0852 50.1023 17.4922 39.5 17.4922C28.8978 17.4922 20.3047 26.0853 20.3047 36.6875C20.3047 36.6875 21.2891 51.9453 15.3828 55.8828C15.3828 55.8828 20.3047 59.8203 28.1798 59.8203H50.8203C58.6953 59.8203 63.6173 55.8828 63.6173 55.8828C57.711 51.9453 58.6954 36.6875 58.6954 36.6875Z" fill="#DEEEEE"/>
<path d="M66.5704 73.6015C66.5704 77.539 66.5704 79.5078 66.5704 79.5078H57.7109V65.7361C58.8232 66.0909 59.847 66.4053 60.6641 66.7108C64.6016 68.1875 66.5704 69.664 66.5704 73.6015Z" fill="#F0F4F4"/>
<path d="M39.5 17.4922C45.4158 17.4922 50.7116 20.1699 54.2357 24.3828C54.2357 24.3828 51.8634 27.9954 45.8983 31.6671C40.5632 34.9553 32.3435 38.2919 20.3638 39.1091C20.3638 37.6325 20.3047 36.6875 20.3047 36.6875C20.3048 26.0857 28.8982 17.4922 39.5 17.4922Z" fill="#656D78"/>
<path d="M39.5 17.4922C45.4158 17.4922 50.7116 20.1699 54.2357 24.3828C54.2357 24.3828 51.8634 27.9954 45.8983 31.6671C40.5632 34.9553 32.3435 38.2919 20.3638 39.1091C20.3638 37.6325 20.3047 36.6875 20.3047 36.6875C20.3048 26.0857 28.8982 17.4922 39.5 17.4922Z" fill="#DEEEEE"/>
<path d="M22.2734 36.6875C22.2734 26.3467 30.4551 17.9402 40.6948 17.5311C40.2998 17.5071 39.9019 17.4922 39.5 17.4922C28.8982 17.4922 20.3047 26.0857 20.3047 36.6875C20.3047 36.6875 20.3638 37.6325 20.3638 39.1091C21.0328 39.0635 21.686 39.0072 22.3315 38.9467C22.3276 37.5666 22.2734 36.6875 22.2734 36.6875Z" fill="#F0F4F4"/>
<path d="M58.6656 37.2092C51.9924 36.6877 45.8984 31.6672 45.8984 31.6672C51.8635 27.9954 54.2359 24.3828 54.2359 24.3828C57.0218 27.7201 58.6954 32.0021 58.6954 36.6875C58.6955 36.6877 58.6859 36.8746 58.6656 37.2092Z" fill="#DEEEEE"/>
<path d="M45.8995 31.667C45.8995 31.667 50.858 35.7525 56.7277 36.935V39.1483C56.7277 45.6745 53.145 51.9164 48.8527 56.0009C45.742 58.9636 42.2571 60.8046 39.5012 60.8046C36.7451 60.8046 33.2603 58.9741 30.1496 56.0009C26.291 52.3297 23.0033 46.9152 22.3828 41.1171V38.9446C33.3449 37.9231 40.8499 34.7792 45.8995 31.667Z" fill="#F0F4F4"/>
<path d="M32.1184 56.0012C28.2598 52.33 24.972 46.9155 24.3516 41.1174V38.7285L22.3828 38.9448V41.1174C23.0033 46.9155 26.291 52.33 30.1496 56.0012C33.2603 58.9744 36.7451 60.8049 39.5012 60.8049C39.8184 60.8049 40.1482 60.7741 40.4832 60.726C37.9102 60.3598 34.869 58.6304 32.1184 56.0012Z" fill="white"/>
<path d="M48.8516 58.8359C48.8516 59.2993 48.9208 59.7319 49.0584 60.1356C49.5708 61.7198 51.0271 62.8915 52.7891 63.8068C52.7891 63.8068 52.7891 63.8068 52.7891 63.8174C52.7402 64.1616 51.5193 71.6328 39.5491 71.6328C27.3034 71.6328 26.2109 63.8068 26.2109 63.8068C27.8254 62.9704 29.1736 61.9169 29.7942 60.5298C30.0206 60.0174 30.1484 59.4463 30.1484 58.8358V56.001C33.2591 58.9742 36.7439 60.8047 39.5 60.8047C42.2559 60.8047 45.7408 58.9636 48.8515 56.001V58.8359H48.8516Z" fill="#F0F4F4"/>
<g opacity="0.2">
<path opacity="0.2" d="M48.8515 56.001C45.7408 58.9637 42.2559 60.8047 39.5 60.8047C36.7439 60.8047 33.2591 58.9743 30.1484 56.001V56.9855C33.2591 59.9587 36.7439 61.789 39.5 61.789C42.2559 61.789 45.7408 59.9481 48.8515 56.9855V56.001Z" fill="black"/>
</g>
<path d="M30.1484 56.9855V58.8359C30.1484 59.4464 30.0206 60.0175 29.7942 60.5299C29.1736 61.9169 27.8254 62.9705 26.2109 63.8069L26.8959 65.7363C28.5103 64.9 31.1423 62.9014 31.7629 61.5142C31.9893 61.0019 32.1172 60.4308 32.1172 59.8203V58.663C31.452 58.1516 30.7915 57.5997 30.1484 56.9855Z" fill="white"/>
<path d="M21.3087 65.7361L21.289 79.5078H12.4297C12.4297 79.5078 12.4297 77.539 12.4297 73.6015C12.4297 69.664 14.3984 68.1875 18.3359 66.7108C19.1529 66.4053 20.1864 66.0909 21.3087 65.7361Z" fill="#F0F4F4"/>
<path d="M14.3984 75.1184C14.3984 71.1809 16.3672 69.7044 20.3047 68.2278C20.6079 68.1144 20.9493 67.9991 21.3059 67.8818L21.3087 65.7361C20.1864 66.0909 19.1529 66.4053 18.3359 66.7108C14.3984 68.1875 12.4297 69.664 12.4297 73.6015C12.4297 77.539 12.4297 79.5078 12.4297 79.5078H14.3984C14.3984 78.5233 14.3984 77.0642 14.3984 75.1184Z" fill="white"/>
<path d="M57.7109 65.736V79.5077H21.2891L21.3088 65.736C22.9035 65.215 24.6753 64.6142 26.211 63.8066C26.211 63.8066 27.3035 71.6327 39.5491 71.6327C51.5193 71.6327 52.7401 64.1614 52.7892 63.8172C54.3349 64.6142 56.1065 65.2246 57.7109 65.736Z" fill="#DEEEEE"/>
<path d="M39.5491 71.6328C51.5192 71.6328 52.74 64.1615 52.7891 63.8174C52.7891 63.8068 52.7891 63.8068 52.7891 63.8068C52.7151 63.7684 52.6459 63.727 52.5728 63.6875C51.899 65.7256 49.266 70.6482 39.5491 70.6482C29.8206 70.6482 27.1337 65.713 26.4392 63.6817C26.3628 63.7231 26.2888 63.7664 26.2109 63.8068C26.2111 63.8069 27.3034 71.6328 39.5491 71.6328Z" fill="#DEEEEE"/>
<g opacity="0.5">
<path opacity="0.5" d="M21.3086 67.8645C22.8289 67.3675 25.4894 66.4783 26.9735 65.7266C26.3372 64.5451 26.2108 63.8068 26.2108 63.8068C24.6751 64.6143 22.9035 65.215 21.3086 65.7362C21.3086 65.7362 21.3086 67.8645 21.3086 67.8645Z" fill="white"/>
</g>
<path d="M39.5012 61.2969C36.6691 61.2969 33.0465 59.4503 29.8098 56.3568C25.4242 52.1838 22.4645 46.5063 21.8934 41.1696C21.8646 40.8995 22.0602 40.6567 22.3304 40.628C22.6058 40.604 22.8437 40.7952 22.8721 41.0649C23.4191 46.1766 26.2664 51.6262 30.4889 55.6444C33.5478 58.5678 36.9167 60.3126 39.5012 60.3126C42.0755 60.3126 45.444 58.5678 48.5133 55.6444C53.3488 51.0427 56.2355 44.8759 56.2355 39.1485C56.2355 38.8764 56.4556 38.6562 56.7277 38.6562C56.9998 38.6562 57.2199 38.8764 57.2199 39.1485C57.2199 45.1402 54.2186 51.5733 49.1921 56.3578C45.9448 59.4503 42.3217 61.2969 39.5012 61.2969Z" fill="url(#paint22_linear_13265_5101)"/>
<path d="M66.5703 80H12.4297C12.1576 80 11.9375 79.7799 11.9375 79.5078V73.6015C11.9375 69.3843 14.1254 67.7644 18.163 66.2495C18.8542 65.9918 19.701 65.7265 20.5975 65.4439L21.1603 65.2669C22.7859 64.7354 24.5014 64.15 25.9818 63.3713C27.7367 62.4619 28.8355 61.4679 29.3449 60.3279C29.5512 59.8616 29.6564 59.3588 29.6564 58.8358C29.6564 58.5639 29.8765 58.3438 30.1486 58.3438C30.4205 58.3438 30.6408 58.5639 30.6408 58.8358C30.6408 59.4973 30.5077 60.1337 30.2443 60.7278C29.6396 62.0813 28.3947 63.23 26.4375 64.2442C24.8917 65.0566 23.132 65.6573 21.4618 66.2034L20.8927 66.3832C20.0088 66.6609 19.1743 66.9234 18.5082 67.1723C14.7236 68.5912 12.9221 69.9159 12.9221 73.6015V79.0156H66.0782V73.6015C66.0782 69.9159 64.2767 68.5912 60.4911 67.1723C59.8241 66.9224 59.0174 66.6667 58.1369 66.388L57.561 66.2053C55.9875 65.7035 54.1618 65.0788 52.5632 64.2539C52.3219 64.1299 52.2268 63.8328 52.3517 63.5915C52.4757 63.3492 52.7738 63.2551 53.0151 63.379C54.5493 64.1712 56.3248 64.7778 57.86 65.267L58.4349 65.4497C59.3328 65.7342 60.1556 65.9958 60.8363 66.2495C64.8747 67.7646 67.0627 69.3843 67.0627 73.6015V79.5078C67.0625 79.7799 66.8424 80 66.5703 80Z" fill="url(#paint23_linear_13265_5101)"/>
<path d="M52.7891 64.2991C52.7122 64.2991 52.6343 64.2809 52.5622 64.2443C50.3839 63.1119 49.0852 61.8179 48.5901 60.2867C48.4383 59.8406 48.3594 59.3494 48.3594 58.836C48.3594 58.564 48.5795 58.3439 48.8516 58.3439C49.1237 58.3439 49.3438 58.564 49.3438 58.836C49.3438 59.2417 49.4044 59.6252 49.5246 59.9762C49.9378 61.2566 51.079 62.3641 53.016 63.3695C53.2573 63.4954 53.3516 63.7926 53.2256 64.0338C53.1381 64.202 52.9669 64.2991 52.7891 64.2991Z" fill="url(#paint24_linear_13265_5101)"/>
<path d="M30.1485 59.3282C29.8764 59.3282 29.6562 59.108 29.6562 58.836V56.0011C29.6562 55.7291 29.8764 55.5089 30.1485 55.5089C30.4204 55.5089 30.6407 55.7291 30.6407 56.0011V58.836C30.6404 59.108 30.4203 59.3282 30.1485 59.3282Z" fill="url(#paint25_linear_13265_5101)"/>
<path d="M48.8516 59.3282C48.5795 59.3282 48.3594 59.108 48.3594 58.836V56.0011C48.3594 55.7291 48.5795 55.5089 48.8516 55.5089C49.1237 55.5089 49.3438 55.7291 49.3438 56.0011V58.836C49.3438 59.108 49.1237 59.3282 48.8516 59.3282Z" fill="url(#paint26_linear_13265_5101)"/>
<path d="M58.6954 37.1797C58.4233 37.1797 58.2032 36.9596 58.2032 36.6875C58.2032 32.3125 56.6603 28.0545 53.858 24.698C50.2888 20.4317 45.0555 17.9843 39.5001 17.9843C29.1872 17.9843 20.7969 26.3745 20.7969 36.6875C20.7969 36.9596 20.5768 37.1797 20.3047 37.1797C20.0326 37.1797 19.8125 36.9596 19.8125 36.6875C19.8125 25.832 28.6445 17 39.5 17C45.3477 17 50.8568 19.5759 54.6136 24.067C57.5628 27.6008 59.1875 32.0823 59.1875 36.6875C59.1876 36.9596 58.9675 37.1797 58.6954 37.1797Z" fill="url(#paint27_linear_13265_5101)"/>
<path d="M63.6174 56.3754C63.5231 56.3754 63.428 56.3484 63.3443 56.2927C58.8203 53.2761 58.1445 44.2447 58.1445 39.1292C58.1445 38.413 58.1589 37.8136 58.1685 37.3887L58.2041 36.6624C58.2175 36.3923 58.4204 36.1803 58.7203 36.1961C58.9924 36.2101 59.2009 36.4418 59.1866 36.7133L59.153 37.4122C59.1434 37.8313 59.129 38.4225 59.129 39.1292C59.129 43.0893 59.5932 52.609 63.8902 55.4736C64.1161 55.6246 64.1776 55.9293 64.0266 56.1562C63.9316 56.2985 63.776 56.3754 63.6174 56.3754Z" fill="url(#paint28_linear_13265_5101)"/>
<path d="M50.8203 60.3121C50.5483 60.3121 50.3281 60.092 50.3281 59.8199C50.3281 59.5478 50.5483 59.3277 50.8203 59.3277C58.4156 59.3277 63.2625 55.5362 63.3106 55.4978C63.524 55.3267 63.8326 55.3632 64.0017 55.5748C64.1709 55.7881 64.1363 56.0977 63.9248 56.2669C63.7183 56.4323 58.7761 60.3121 50.8203 60.3121Z" fill="url(#paint29_linear_13265_5101)"/>
<path d="M15.3835 56.3748C15.2245 56.3748 15.0682 56.2979 14.9735 56.1557C14.8225 55.9287 14.8836 55.6241 15.1099 55.4731C18.8586 52.9737 19.6838 45.3453 19.8424 41.0204C19.8616 40.3307 19.8717 39.6756 19.8717 39.1089C19.8717 37.6674 19.814 36.7273 19.8135 36.7181C19.7966 36.4465 20.0028 36.2129 20.2739 36.1961C20.5556 36.1812 20.7786 36.3855 20.7959 36.6565C20.7984 36.6959 20.856 37.6337 20.856 39.1089C20.856 39.6842 20.8459 40.3479 20.8262 41.0522C20.6243 46.5691 19.5635 53.6871 15.6558 56.2922C15.5719 56.3479 15.4771 56.3748 15.3835 56.3748Z" fill="url(#paint30_linear_13265_5101)"/>
<path d="M28.1796 60.3123C20.2234 60.3123 15.2818 56.4325 15.0751 56.2671C14.863 56.0979 14.8289 55.7883 14.9981 55.5749C15.1678 55.3634 15.4768 55.3288 15.6898 55.498C15.738 55.5364 20.5848 59.3278 28.1796 59.3278C28.4516 59.3278 28.6718 59.548 28.6718 59.82C28.6718 60.0921 28.4517 60.3123 28.1796 60.3123Z" fill="url(#paint31_linear_13265_5101)"/>
<path d="M20.363 39.6014C20.1063 39.6014 19.8899 39.4025 19.8722 39.1429C19.854 38.8713 20.0588 38.6368 20.3299 38.618C30.2919 37.9387 38.8075 35.4592 45.6396 31.2481C51.4257 27.6869 53.8009 24.1474 53.8241 24.1123C53.9741 23.884 54.2807 23.8229 54.5057 23.9719C54.7326 24.1214 54.796 24.4261 54.6469 24.653C54.5479 24.8044 52.1457 28.3996 46.1557 32.0862C39.1867 36.3813 30.5201 38.9096 20.3972 39.6003C20.3855 39.6009 20.374 39.6014 20.363 39.6014Z" fill="url(#paint32_linear_13265_5101)"/>
<path d="M58.6665 37.7016C58.653 37.7016 58.6405 37.7011 58.6271 37.7002C51.8769 37.1724 45.8389 32.2562 45.5851 32.0472C45.3756 31.8746 45.3458 31.5647 45.5188 31.3546C45.6918 31.1441 46.0023 31.1166 46.2109 31.2873C46.2714 31.3368 52.2681 36.2159 58.704 36.7187C58.9751 36.7398 59.177 36.9768 59.1558 37.2479C59.1355 37.5055 58.9202 37.7016 58.6665 37.7016Z" fill="url(#paint33_linear_13265_5101)"/>
<path d="M39.549 72.1254C33.0452 72.1254 29.6384 69.9105 27.9258 68.0533C26.0393 66.0076 25.7355 63.962 25.7235 63.8754C25.686 63.6062 25.8731 63.3592 26.1413 63.3207C26.4086 63.2794 26.6585 63.4697 26.6984 63.737C26.7426 64.0398 27.9131 71.141 39.5491 71.141C51.1175 71.141 52.2584 64.0504 52.3017 63.7486C52.3017 63.4755 52.5199 63.2852 52.792 63.2852C53.0631 63.2852 53.2814 63.5351 53.2814 63.8072C53.2283 64.2234 51.9615 72.1254 39.549 72.1254Z" fill="url(#paint34_linear_13265_5101)"/>
<path d="M57.7108 80C57.4389 80 57.2188 79.7798 57.2188 79.5078V65.7361C57.2188 65.464 57.4389 65.2439 57.7108 65.2439C57.9829 65.2439 58.2031 65.464 58.2031 65.7361V79.5078C58.2031 79.7798 57.9829 80 57.7108 80Z" fill="url(#paint35_linear_13265_5101)"/>
<path d="M21.2891 80.0001C21.2886 80.0001 21.2886 80.0001 21.2886 80.0001C21.0167 80.0001 20.7964 79.779 20.7969 79.5079L20.8166 65.7362C20.8171 65.4642 21.0372 65.2392 21.3088 65.2392C21.3088 65.2392 21.3088 65.2392 21.3093 65.2392C21.5809 65.2392 21.801 65.4555 21.801 65.7266L21.7813 79.5079C21.7808 79.78 21.5607 80.0001 21.2891 80.0001Z" fill="url(#paint36_linear_13265_5101)"/>
<defs>
<linearGradient id="paint0_linear_13265_5101" x1="63.5303" y1="41.5101" x2="66.4768" y2="40.6311" gradientUnits="userSpaceOnUse">
<stop stop-color="#46A29F"/>
<stop offset="1" stop-color="#4660A2"/>
</linearGradient>
<linearGradient id="paint1_linear_13265_5101" x1="54.6888" y1="28.2284" x2="90.383" y2="13.8578" gradientUnits="userSpaceOnUse">
<stop stop-color="#46A29F"/>
<stop offset="1" stop-color="#4660A2"/>
</linearGradient>
<linearGradient id="paint2_linear_13265_5101" x1="49.2142" y1="39.4757" x2="86.5602" y2="6.12829" gradientUnits="userSpaceOnUse">
<stop stop-color="#46A29F"/>
<stop offset="1" stop-color="#4660A2"/>
</linearGradient>
<linearGradient id="paint3_linear_13265_5101" x1="-2.79197" y1="37.836" x2="31.8801" y2="22.4346" gradientUnits="userSpaceOnUse">
<stop stop-color="#46A29F"/>
<stop offset="1" stop-color="#4660A2"/>
</linearGradient>
<linearGradient id="paint4_linear_13265_5101" x1="13.0672" y1="45.2523" x2="16.6001" y2="35.8214" gradientUnits="userSpaceOnUse">
<stop stop-color="#46A29F"/>
<stop offset="1" stop-color="#4660A2"/>
</linearGradient>
<linearGradient id="paint5_linear_13265_5101" x1="3.50156" y1="26.6327" x2="39.6619" y2="12.8824" gradientUnits="userSpaceOnUse">
<stop stop-color="#46A29F"/>
<stop offset="1" stop-color="#4660A2"/>
</linearGradient>
<linearGradient id="paint6_linear_13265_5101" x1="7.48321" y1="34.8602" x2="23.4853" y2="27.7243" gradientUnits="userSpaceOnUse">
<stop stop-color="#46A29F"/>
<stop offset="1" stop-color="#4660A2"/>
</linearGradient>
<linearGradient id="paint7_linear_13265_5101" x1="14.1403" y1="34.8602" x2="29.6195" y2="28.2861" gradientUnits="userSpaceOnUse">
<stop stop-color="#46A29F"/>
<stop offset="1" stop-color="#4660A2"/>
</linearGradient>
<linearGradient id="paint8_linear_13265_5101" x1="0.0861988" y1="14.4101" x2="44.9589" y2="-6.3493" gradientUnits="userSpaceOnUse">
<stop stop-color="#46A29F"/>
<stop offset="1" stop-color="#4660A2"/>
</linearGradient>
<linearGradient id="paint9_linear_13265_5101" x1="13.3185" y1="38.0388" x2="19.1878" y2="36.2961" gradientUnits="userSpaceOnUse">
<stop stop-color="#46A29F"/>
<stop offset="1" stop-color="#4660A2"/>
</linearGradient>
<linearGradient id="paint10_linear_13265_5101" x1="14.5685" y1="38.0386" x2="20.438" y2="36.2959" gradientUnits="userSpaceOnUse">
<stop stop-color="#46A29F"/>
<stop offset="1" stop-color="#4660A2"/>
</linearGradient>
<linearGradient id="paint11_linear_13265_5101" x1="13.4258" y1="39.6614" x2="18.1855" y2="39.276" gradientUnits="userSpaceOnUse">
<stop stop-color="#46A29F"/>
<stop offset="1" stop-color="#4660A2"/>
</linearGradient>
<linearGradient id="paint12_linear_13265_5101" x1="15.3008" y1="39.6623" x2="20.0609" y2="39.2768" gradientUnits="userSpaceOnUse">
<stop stop-color="#46A29F"/>
<stop offset="1" stop-color="#4660A2"/>
</linearGradient>
<linearGradient id="paint13_linear_13265_5101" x1="74.7618" y1="26.6761" x2="77.9523" y2="26.5846" gradientUnits="userSpaceOnUse">
<stop stop-color="#46A29F"/>
<stop offset="1" stop-color="#4660A2"/>
</linearGradient>
<linearGradient id="paint14_linear_13265_5101" x1="51.7084" y1="14.1837" x2="75.7988" y2="3.38229" gradientUnits="userSpaceOnUse">
<stop stop-color="#46A29F"/>
<stop offset="1" stop-color="#4660A2"/>
</linearGradient>
<linearGradient id="paint15_linear_13265_5101" x1="61.5809" y1="15.3249" x2="90.927" y2="6.61177" gradientUnits="userSpaceOnUse">
<stop stop-color="#46A29F"/>
<stop offset="1" stop-color="#4660A2"/>
</linearGradient>
<linearGradient id="paint16_linear_13265_5101" x1="54.7489" y1="18.281" x2="86.6279" y2="1.61983" gradientUnits="userSpaceOnUse">
<stop stop-color="#46A29F"/>
<stop offset="1" stop-color="#4660A2"/>
</linearGradient>
<linearGradient id="paint17_linear_13265_5101" x1="64.5104" y1="21.649" x2="84.9269" y2="11.4148" gradientUnits="userSpaceOnUse">
<stop stop-color="#46A29F"/>
<stop offset="1" stop-color="#4660A2"/>
</linearGradient>
<linearGradient id="paint18_linear_13265_5101" x1="72.2481" y1="24.7588" x2="75.3763" y2="24.308" gradientUnits="userSpaceOnUse">
<stop stop-color="#46A29F"/>
<stop offset="1" stop-color="#4660A2"/>
</linearGradient>
<linearGradient id="paint19_linear_13265_5101" x1="64.9676" y1="36.8655" x2="83.2481" y2="33.0011" gradientUnits="userSpaceOnUse">
<stop stop-color="#46A29F"/>
<stop offset="1" stop-color="#4660A2"/>
</linearGradient>
<linearGradient id="paint20_linear_13265_5101" x1="56.6238" y1="39.5085" x2="68.8013" y2="36.9662" gradientUnits="userSpaceOnUse">
<stop stop-color="#46A29F"/>
<stop offset="1" stop-color="#4660A2"/>
</linearGradient>
<linearGradient id="paint21_linear_13265_5101" x1="58.4754" y1="38.0395" x2="69.2196" y2="26.8726" gradientUnits="userSpaceOnUse">
<stop stop-color="#46A29F"/>
<stop offset="1" stop-color="#4660A2"/>
</linearGradient>
<linearGradient id="paint22_linear_13265_5101" x1="15.8196" y1="43.8246" x2="90.1356" y2="9.3929" gradientUnits="userSpaceOnUse">
<stop stop-color="#46A29F"/>
<stop offset="1" stop-color="#4660A2"/>
</linearGradient>
<linearGradient id="paint23_linear_13265_5101" x1="2.46478" y1="63.2874" x2="92.1082" y2="-4.46371" gradientUnits="userSpaceOnUse">
<stop stop-color="#46A29F"/>
<stop offset="1" stop-color="#4660A2"/>
</linearGradient>
<linearGradient id="paint24_linear_13265_5101" x1="47.5136" y1="59.7033" x2="59.3755" y2="56.7923" gradientUnits="userSpaceOnUse">
<stop stop-color="#46A29F"/>
<stop offset="1" stop-color="#4660A2"/>
</linearGradient>
<linearGradient id="paint25_linear_13265_5101" x1="29.4871" y1="56.3808" x2="31.9877" y2="56.1894" gradientUnits="userSpaceOnUse">
<stop stop-color="#46A29F"/>
<stop offset="1" stop-color="#4660A2"/>
</linearGradient>
<linearGradient id="paint26_linear_13265_5101" x1="48.1902" y1="56.3808" x2="50.6909" y2="56.1894" gradientUnits="userSpaceOnUse">
<stop stop-color="#46A29F"/>
<stop offset="1" stop-color="#4660A2"/>
</linearGradient>
<linearGradient id="paint27_linear_13265_5101" x1="13.0463" y1="21.6066" x2="88.3703" y2="-22.0319" gradientUnits="userSpaceOnUse">
<stop stop-color="#46A29F"/>
<stop offset="1" stop-color="#4660A2"/>
</linearGradient>
<linearGradient id="paint28_linear_13265_5101" x1="57.1195" y1="40.802" x2="72.2436" y2="39.4746" gradientUnits="userSpaceOnUse">
<stop stop-color="#46A29F"/>
<stop offset="1" stop-color="#4660A2"/>
</linearGradient>
<linearGradient id="paint29_linear_13265_5101" x1="47.96" y1="56.5133" x2="68.7832" y2="39.2042" gradientUnits="userSpaceOnUse">
<stop stop-color="#46A29F"/>
<stop offset="1" stop-color="#4660A2"/>
</linearGradient>
<linearGradient id="paint30_linear_13265_5101" x1="13.8655" y1="40.8018" x2="28.9909" y2="39.4743" gradientUnits="userSpaceOnUse">
<stop stop-color="#46A29F"/>
<stop offset="1" stop-color="#4660A2"/>
</linearGradient>
<linearGradient id="paint31_linear_13265_5101" x1="12.5225" y1="56.5141" x2="33.3429" y2="39.2041" gradientUnits="userSpaceOnUse">
<stop stop-color="#46A29F"/>
<stop offset="1" stop-color="#4660A2"/>
</linearGradient>
<linearGradient id="paint32_linear_13265_5101" x1="13.8814" y1="27.4771" x2="75.9903" y2="-13.4368" gradientUnits="userSpaceOnUse">
<stop stop-color="#46A29F"/>
<stop offset="1" stop-color="#4660A2"/>
</linearGradient>
<linearGradient id="paint33_linear_13265_5101" x1="43.0433" y1="32.6655" x2="68.2941" y2="16.8673" gradientUnits="userSpaceOnUse">
<stop stop-color="#46A29F"/>
<stop offset="1" stop-color="#4660A2"/>
</linearGradient>
<linearGradient id="paint34_linear_13265_5101" x1="20.9824" y1="65.3032" x2="58.9063" y2="30.1956" gradientUnits="userSpaceOnUse">
<stop stop-color="#46A29F"/>
<stop offset="1" stop-color="#4660A2"/>
</linearGradient>
<linearGradient id="paint35_linear_13265_5101" x1="57.0496" y1="68.6124" x2="59.5636" y2="68.5626" gradientUnits="userSpaceOnUse">
<stop stop-color="#46A29F"/>
<stop offset="1" stop-color="#4660A2"/>
</linearGradient>
<linearGradient id="paint36_linear_13265_5101" x1="20.6243" y1="68.6088" x2="23.1889" y2="68.557" gradientUnits="userSpaceOnUse">
<stop stop-color="#46A29F"/>
<stop offset="1" stop-color="#4660A2"/>
</linearGradient>
</defs>
</svg>
