<svg width="80" height="80" fill="none" xmlns="http://www.w3.org/2000/svg"><path d="M74.667 45.76c0 7.823-13.869 12.368-16.07 20.655-2.202 8.286-6.413 12.252-16.73 12.252-8.409 0-4.844-5.963-21.882-8.392-17.04-2.43-12.456-12.42-7.167-21.581 6.016-11.393 8.806-17.06 13.146-24.576 4.34-7.516 6.047-11.263 15.902-11.263 8.26 0 19.152-4.743 21.574 8.118 2.421 12.862 11.227 14.9 11.227 24.788z" fill="url(#paint0_linear_14181_2187)"/><path d="M66.18 71.813c0 3.082-2.49 5.69-5.691 5.69H17.69c-3.083 0-5.691-2.49-5.691-5.69V10.165C12 6.727 14.845 4 18.165 4h36.514" stroke="url(#paint1_linear_14181_2187)" stroke-width="1.4" stroke-miterlimit="10" stroke-linecap="round" stroke-linejoin="round"/><path d="M66.177 37.67V15.38" stroke="url(#paint2_linear_14181_2187)" stroke-width="1.4" stroke-miterlimit="10" stroke-linecap="round" stroke-linejoin="round"/><path d="M66.182 15.381L54.682 4v8.299c0 1.66 1.423 3.082 3.083 3.082h8.417z" stroke="url(#paint3_linear_14181_2187)" stroke-width="1.4" stroke-miterlimit="10" stroke-linecap="round" stroke-linejoin="round"/><path d="M70.922 50.236c-.356.356-.593.593-.949.83.475 1.541.119 3.2-1.067 4.386-.83.83-1.897 1.305-2.964 1.305-.474 0-.83-.119-1.185-.238-.711 1.423-2.134 2.372-3.675 2.372s-2.964-.949-3.675-2.372c-1.423.475-3.083.119-4.15-1.067-1.185-1.185-1.422-2.845-1.067-4.386a4.34 4.34 0 01-2.252-3.794 4.34 4.34 0 012.252-3.794c-.474-1.54-.118-3.2 1.067-4.386 1.186-1.185 2.727-1.541 4.15-1.067.711-1.423 2.134-2.371 3.675-2.371 1.185 0 2.134.474 2.964 1.304.355.356.592.711.711 1.067 1.423-.474 3.082-.118 4.15 1.067.83.83 1.185 2.015 1.185 3.082 0 .475-.119.83-.237 1.304a4.34 4.34 0 012.252 3.794c.119 1.067-.355 2.253-1.185 2.964z" stroke="url(#paint4_linear_14181_2187)" stroke-width="1.4" stroke-miterlimit="10" stroke-linecap="round" stroke-linejoin="round"/><path d="M53.023 67.19l-5.81 1.066 6.758-12.21" stroke="url(#paint5_linear_14181_2187)" stroke-width="1.4" stroke-miterlimit="10" stroke-linecap="round" stroke-linejoin="round"/><path d="M61.083 58.772l-6.047 15.53-2.015-7.113" stroke="url(#paint6_linear_14181_2187)" stroke-width="1.4" stroke-miterlimit="10" stroke-linecap="round" stroke-linejoin="round"/><path d="M68.193 56.045l6.876 12.211-5.928-1.067" stroke="url(#paint7_linear_14181_2187)" stroke-width="1.4" stroke-miterlimit="10" stroke-linecap="round" stroke-linejoin="round"/><path d="M61.078 58.772l6.046 15.53 2.016-7.113" stroke="url(#paint8_linear_14181_2187)" stroke-width="1.4" stroke-miterlimit="10" stroke-linecap="round" stroke-linejoin="round"/><path d="M24.094 63.158l2.49 3.32 2.963-3.32 3.912 2.49 4.98-1.897" stroke="url(#paint9_linear_14181_2187)" stroke-width="1.4" stroke-miterlimit="10" stroke-linecap="round" stroke-linejoin="round"/><path d="M19.943 22.257h38.293" stroke="url(#paint10_linear_14181_2187)" stroke-width="1.4" stroke-miterlimit="10" stroke-linecap="round" stroke-linejoin="round"/><path d="M48.514 32.453H19.943" stroke="url(#paint11_linear_14181_2187)" stroke-width="1.4" stroke-miterlimit="10" stroke-linecap="round" stroke-linejoin="round"/><path d="M45.076 42.649H19.943" stroke="url(#paint12_linear_14181_2187)" stroke-width="1.4" stroke-miterlimit="10" stroke-linecap="round" stroke-linejoin="round"/><path d="M45.076 52.844H19.943" stroke="url(#paint13_linear_14181_2187)" stroke-width="1.4" stroke-miterlimit="10" stroke-linecap="round" stroke-linejoin="round"/><defs><linearGradient id="paint0_linear_14181_2187" x1="8" y1="12" x2="87.95" y2="38.323" gradientUnits="userSpaceOnUse"><stop stop-color="#ECF6F5"/><stop offset="1" stop-color="#F3FFFF"/></linearGradient><linearGradient id="paint1_linear_14181_2187" x1="2.69" y1="20.779" x2="134.794" y2="-8.132" gradientUnits="userSpaceOnUse"><stop stop-color="#46A29F"/><stop offset="1" stop-color="#4660A2"/></linearGradient><linearGradient id="paint2_linear_14181_2187" x1="66.005" y1="20.469" x2="68.56" y2="20.435" gradientUnits="userSpaceOnUse"><stop stop-color="#46A29F"/><stop offset="1" stop-color="#4660A2"/></linearGradient><linearGradient id="paint3_linear_14181_2187" x1="52.706" y1="6.598" x2="79.663" y2="-1.489" gradientUnits="userSpaceOnUse"><stop stop-color="#46A29F"/><stop offset="1" stop-color="#4660A2"/></linearGradient><linearGradient id="paint4_linear_14181_2187" x1="46.125" y1="40.958" x2="98.598" y2="26.082" gradientUnits="userSpaceOnUse"><stop stop-color="#46A29F"/><stop offset="1" stop-color="#4660A2"/></linearGradient><linearGradient id="paint5_linear_14181_2187" x1="46.052" y1="58.833" x2="62.865" y2="56.07" gradientUnits="userSpaceOnUse"><stop stop-color="#46A29F"/><stop offset="1" stop-color="#4660A2"/></linearGradient><linearGradient id="paint6_linear_14181_2187" x1="51.636" y1="62.317" x2="71.756" y2="59.216" gradientUnits="userSpaceOnUse"><stop stop-color="#46A29F"/><stop offset="1" stop-color="#4660A2"/></linearGradient><linearGradient id="paint7_linear_14181_2187" x1="67.011" y1="58.833" x2="84.102" y2="55.975" gradientUnits="userSpaceOnUse"><stop stop-color="#46A29F"/><stop offset="1" stop-color="#4660A2"/></linearGradient><linearGradient id="paint8_linear_14181_2187" x1="59.693" y1="62.317" x2="79.813" y2="59.216" gradientUnits="userSpaceOnUse"><stop stop-color="#46A29F"/><stop offset="1" stop-color="#4660A2"/></linearGradient><linearGradient id="paint9_linear_14181_2187" x1="21.629" y1="63.916" x2="35.479" y2="46.145" gradientUnits="userSpaceOnUse"><stop stop-color="#46A29F"/><stop offset="1" stop-color="#4660A2"/></linearGradient><linearGradient id="paint10_linear_14181_2187" x1="13.362" y1="22.486" x2="14.113" y2="13.946" gradientUnits="userSpaceOnUse"><stop stop-color="#46A29F"/><stop offset="1" stop-color="#4660A2"/></linearGradient><linearGradient id="paint11_linear_14181_2187" x1="15.033" y1="32.681" x2="16.033" y2="24.194" gradientUnits="userSpaceOnUse"><stop stop-color="#46A29F"/><stop offset="1" stop-color="#4660A2"/></linearGradient><linearGradient id="paint12_linear_14181_2187" x1="15.624" y1="42.877" x2="16.756" y2="34.423" gradientUnits="userSpaceOnUse"><stop stop-color="#46A29F"/><stop offset="1" stop-color="#4660A2"/></linearGradient><linearGradient id="paint13_linear_14181_2187" x1="15.624" y1="53.072" x2="16.756" y2="44.619" gradientUnits="userSpaceOnUse"><stop stop-color="#46A29F"/><stop offset="1" stop-color="#4660A2"/></linearGradient></defs></svg>