<svg width="60" height="60" fill="none" xmlns="http://www.w3.org/2000/svg"><path d="M55 30.32c0 5.867-10.402 9.276-12.053 15.491C41.297 52.026 38.138 55 30.4 55c-6.306 0-3.633-4.472-16.412-6.294C1.21 46.884 4.647 39.39 8.614 32.52c4.511-8.544 6.604-12.795 9.859-18.432 3.254-5.637 4.535-8.447 11.927-8.447 6.195 0 14.364-3.557 16.18 6.089C48.396 21.376 55 22.905 55 30.32z" fill="url(#paint0_linear)"/><path d="M55 30.32c0 5.867-10.402 9.276-12.053 15.491C41.297 52.026 38.138 55 30.4 55c-6.306 0-3.633-4.472-16.412-6.294C1.21 46.884 4.647 39.39 8.614 32.52c4.511-8.544 6.604-12.795 9.859-18.432 3.254-5.637 4.535-8.447 11.927-8.447 6.195 0 14.364-3.557 16.18 6.089C48.396 21.376 55 22.905 55 30.32z" fill="url(#paint1_linear)"/><g clip-path="url(#clip0)"><path d="M32.719 5.344c.749.75.749 1.969 0 2.719l-2.72 2.718-2.718-2.718A1.923 1.923 0 0130 5.343c.75-.75 1.968-.75 2.719.001z" fill="#DEEEEE"/><path d="M48.281 6.094v9.375H11.72V6.094A5.624 5.624 0 0117.344.469h25.313a5.617 5.617 0 015.624 5.625zM32.72 8.063a1.923 1.923 0 10-5.438 0l2.72 2.718 2.718-2.718z" fill="#fff"/><path d="M46.304 21.103c-3.545-.91-6.91-2.24-10.004-3.76l-3.853-1.874H48.28v6.093a45.01 45.01 0 01-1.977-.459zm-32.607 0c-.656.169-1.313.319-1.978.46v-6.094h15.844l-3.853 1.875c-3.104 1.519-6.47 2.85-10.013 3.76z" fill="#DEEEEE"/><path d="M13.594 16.406h-1.875v5.157c.63-.134 1.253-.278 1.875-.436v-4.72z" fill="#F0F4F4"/><path d="M46.416 16.406h1.875v5.157a48.04 48.04 0 01-1.875-.436v-4.72zM22.031 37.997v4.969l-.937-3.122-3.75 3.75.45.721-.019.02-1.369.693c-1.546.693-3.234 1.219-4.687 1.678V21.562a45.39 45.39 0 001.978-.459v1.866c.647 5.99 4.275 11.55 8.334 15.028z" fill="#DEEEEE"/><path d="M48.281 46.707c.694.225 1.34.43 1.875.637 3.75 1.397 5.625 2.812 5.625 6.562v5.625H35.55l.478-.937 2.878-5.625-.937-1.875 4.218-6.76 1.407.694c1.547.694 3.233 1.219 4.687 1.679z" fill="#fff"/><path d="M48.281 21.563v25.144c-1.453-.46-3.14-.986-4.687-1.678l-1.407-.695.47-.74-3.75-3.75-.938 3.122v-4.969c4.068-3.478 7.697-9.037 8.335-15.028v-1.866c.655.169 1.312.319 1.977.46z" fill="#DEEEEE"/><path d="M27.656 22.997v-.966a.94.94 0 00-.938-.937h-6.562a.94.94 0 00-.938.937v1.875a.94.94 0 00.938.938h6.563a.94.94 0 00.937-.938v-.909zm4.688 0v.91a.94.94 0 00.937.937h6.563a.94.94 0 00.937-.938v-1.875a.94.94 0 00-.938-.937h-6.562a.94.94 0 00-.937.937v.966zm13.96-1.894v1.866c-.639 5.99-4.267 11.55-8.336 15.028-2.71 2.316-5.615 3.722-7.968 3.722-2.354 0-5.26-1.407-7.969-3.722-4.06-3.478-7.688-9.038-8.335-15.028v-1.866c3.544-.91 6.91-2.24 10.013-3.76l3.853-1.874h4.884l3.854 1.875c3.093 1.519 6.459 2.85 10.003 3.76z" fill="#F0F4F4"/><path d="M15.572 22.969v-2.407c-.622.188-1.242.379-1.876.541v1.866c.647 5.99 4.275 11.55 8.335 15.028 2.71 2.316 5.615 3.722 7.969 3.722.303 0 .617-.026.937-.071-2.163-.309-4.671-1.634-7.03-3.65-4.06-3.479-7.689-9.038-8.335-15.03z" fill="#fff"/><path d="M44.428 22.969v-2.407c.621.188 1.242.379 1.876.541v1.866c-.648 5.99-4.276 11.55-8.335 15.028-2.71 2.316-5.616 3.722-7.97 3.722-.303 0-.616-.026-.937-.072 2.163-.308 4.671-1.633 7.032-3.65 4.06-3.478 7.687-9.038 8.334-15.028z" fill="#DEEEEE"/><path d="M42.656 43.594l-.468.74-4.22 6.76.938 1.875-2.878 5.625-.478.937h-2.54l3.684-12.309.806-2.69.469-1.566.937-3.122 3.75 3.75z" fill="#fff"/><path d="M37.969 42.966L37.5 44.53s-2.344 1.875-7.5 1.875c-5.156 0-7.481-1.875-7.481-1.875l-.019.01-.469-1.575v-4.969c2.71 2.315 5.616 3.722 7.969 3.722 2.353 0 5.259-1.407 7.969-3.722v4.969z" fill="#F0F4F4"/><path d="M37.5 44.531l-.806 2.691c-1.34.553-3.919 1.06-6.694 1.06s-5.353-.507-6.684-1.06h-.01L22.5 44.54l.019-.009s2.325 1.875 7.481 1.875 7.5-1.875 7.5-1.875z" fill="#DEEEEE"/><path d="M36.694 47.222l-3.685 12.31H27l-3.694-12.31h.01c1.33.553 3.91 1.06 6.684 1.06 2.775 0 5.353-.507 6.694-1.06z" fill="#DEEEEE"/><path d="M23.306 47.222L27 59.532h-2.54l-.479-.938-2.887-5.625.937-1.875-4.237-6.779-.45-.721 3.75-3.75.937 3.122.47 1.574.805 2.682z" fill="#fff"/><path d="M23.981 58.594l.478.937H4.22v-5.625c0-3.75 1.875-5.165 5.625-6.562a34.092 34.092 0 011.875-.628v-.01c1.453-.459 3.14-.984 4.687-1.677l1.369-.694.019-.02 4.237 6.779-.938 1.875 2.888 5.625z" fill="#fff"/><path d="M27.666 23.906a.94.94 0 01-.938.938h-6.562a.94.94 0 01-.938-.938v-1.875a.94.94 0 01.938-.937h6.562a.94.94 0 01.938.937v1.876z" fill="#DEEEEE"/><path d="M21.472 24.844h1.942l1.005-3.75h-1.942l-1.005 3.75zm2.444 0h.502l1.004-3.75h-.501l-1.005 3.75z" fill="#F0F4F4"/><path d="M40.79 23.906a.94.94 0 01-.937.938H33.29a.941.941 0 01-.937-.938v-1.875c0-.515.423-.937.938-.937h6.562a.94.94 0 01.938.937v1.876z" fill="#DEEEEE"/><path d="M34.598 24.844h1.94l1.006-3.75h-1.941l-1.005 3.75zm2.442 0h.502l1.005-3.75h-.501l-1.006 3.75z" fill="#F0F4F4"/><path d="M22.519 44.531s.452.364 1.397.771v-5.87a21.534 21.534 0 01-1.885-1.435v4.969l.469 1.575.019-.01z" fill="#fff"/><path d="M36.098 45.3c.948-.406 1.402-.769 1.402-.769l.469-1.565v-4.969c-.616.526-1.243.999-1.87 1.426V45.3zm12.184-29.832H11.719v.938h36.563v-.938z" fill="#DEEEEE"/><path d="M34.373 16.406l-1.927-.937h-4.883l-1.927.937h8.738z" fill="#DEEEEE"/><path d="M26.719 25.313h-6.563a1.408 1.408 0 01-1.406-1.407v-1.875c0-.775.63-1.406 1.406-1.406h6.563c.775 0 1.406.63 1.406 1.406v1.875c0 .776-.63 1.407-1.406 1.407zm-6.563-3.75a.469.469 0 00-.468.468v1.875c0 .259.21.47.468.47h6.563a.47.47 0 00.469-.47v-1.875a.47.47 0 00-.47-.468h-6.562z" fill="url(#paint2_linear)"/><path d="M39.843 25.313h-6.562a1.408 1.408 0 01-1.406-1.407v-1.875c0-.775.63-1.406 1.406-1.406h6.562c.776 0 1.407.63 1.407 1.406v1.875c0 .776-.631 1.407-1.407 1.407zm-6.562-3.75a.47.47 0 00-.469.468v1.875c0 .259.21.47.469.47h6.562a.47.47 0 00.47-.47v-1.875a.47.47 0 00-.47-.468h-6.562z" fill="url(#paint3_linear)"/><path d="M32.343 23.466h-4.688a.469.469 0 110-.938h4.688a.468.468 0 110 .938z" fill="url(#paint4_linear)"/><path d="M23.976 59.063a.47.47 0 01-.417-.255l-2.882-5.625a.469.469 0 01-.003-.424l.82-1.64-4.548-7.276a.47.47 0 01.066-.58l3.75-3.75a.469.469 0 11.663.662l-3.486 3.487 4.49 7.183a.47.47 0 01.021.459l-.831 1.662 2.774 5.414a.47.47 0 01-.417.683z" fill="url(#paint5_linear)"/><path d="M26.719 59.063a.469.469 0 01-.45-.335l-5.624-18.75a.468.468 0 11.898-.269l5.625 18.75a.468.468 0 01-.45.604z" fill="url(#paint6_linear)"/><path d="M36.024 59.063a.471.471 0 01-.417-.683l2.773-5.414-.83-1.663a.47.47 0 01.021-.458l4.49-7.184-3.486-3.486a.469.469 0 01.662-.663l3.75 3.75a.47.47 0 01.066.58l-4.548 7.277.82 1.64a.47.47 0 01-.002.424l-2.882 5.625a.47.47 0 01-.417.255z" fill="url(#paint7_linear)"/><path d="M33.281 59.063a.467.467 0 01-.449-.603l5.626-18.75a.467.467 0 11.897.27L33.73 58.726a.468.468 0 01-.449.335z" fill="url(#paint8_linear)"/><path d="M30 46.875c-5.26 0-7.692-1.897-7.793-1.977a.469.469 0 01.584-.734c.023.018 2.309 1.774 7.209 1.774 4.9 0 7.186-1.756 7.209-1.774a.47.47 0 01.584.733c-.101.081-2.532 1.978-7.793 1.978z" fill="url(#paint9_linear)"/><path d="M30 48.75c-2.91 0-5.544-.547-6.863-1.09a.47.47 0 01.357-.867c1.233.507 3.724 1.02 6.506 1.02 2.79 0 5.283-.512 6.515-1.019a.47.47 0 11.357.866c-1.318.543-3.953 1.09-6.872 1.09z" fill="url(#paint10_linear)"/><path d="M30 42.188c-6.422 0-15.708-9.295-16.77-19.169a.468.468 0 11.931-.1c.478 4.433 2.747 9.117 6.228 12.85 3.153 3.38 6.835 5.482 9.61 5.482a.468.468 0 110 .938z" fill="url(#paint11_linear)"/><path d="M55.781 60H4.22a.468.468 0 01-.47-.469v-5.625c0-4.023 2.085-5.564 5.93-7.002.604-.225 1.33-.456 2.12-.706 1.394-.444 2.973-.945 4.417-1.592a.469.469 0 11.382.855c-1.491.669-3.098 1.18-4.515 1.63-.774.245-1.485.47-2.075.692-3.605 1.348-5.32 2.608-5.32 6.123v5.157h50.624v-5.157c0-3.515-1.715-4.775-5.32-6.123-.59-.221-1.3-.447-2.074-.692-1.418-.45-3.024-.961-4.516-1.63a.468.468 0 11.383-.855c1.444.647 3.023 1.148 4.417 1.592.79.25 1.516.481 2.118.706 3.846 1.438 5.93 2.98 5.93 7.002v5.625c0 .26-.21.469-.469.469z" fill="url(#paint12_linear)"/><path d="M11.719 45a.469.469 0 01-.47-.469V17.344a.469.469 0 11.938 0V44.53c0 .26-.21.469-.468.469z" fill="url(#paint13_linear)"/><path d="M11.718 22.031a.469.469 0 01-.094-.928c3.843-.792 7.837-2.2 11.871-4.18a.47.47 0 01.413.842c-4.105 2.016-8.174 3.448-12.095 4.257a.498.498 0 01-.095.01z" fill="url(#paint14_linear)"/><path d="M30 42.188a.469.469 0 110-.937c2.776 0 6.458-2.101 9.611-5.481 3.48-3.734 5.75-8.418 6.228-12.852a.461.461 0 01.516-.415.469.469 0 01.416.516C45.707 32.893 36.42 42.19 30 42.19z" fill="url(#paint15_linear)"/><path d="M48.281 45a.469.469 0 01-.469-.469V17.344a.469.469 0 11.938 0V44.53c0 .26-.21.469-.469.469z" fill="url(#paint16_linear)"/><path d="M48.281 22.031a.485.485 0 01-.095-.01c-3.921-.809-7.99-2.24-12.094-4.256a.468.468 0 11.412-.842c4.034 1.98 8.027 3.388 11.873 4.18a.47.47 0 01-.096.928z" fill="url(#paint17_linear)"/><path d="M11.719 15.938a.469.469 0 01-.47-.47V6.095a.469.469 0 11.938 0v9.375c0 .259-.21.469-.468.469z" fill="url(#paint18_linear)"/><path d="M42.656.937H17.148a.469.469 0 110-.937h25.508a.469.469 0 110 .937z" fill="url(#paint19_linear)"/><path d="M48.281 15.938a.469.469 0 01-.469-.47V6.095a.469.469 0 11.938 0v9.375c0 .259-.21.469-.469.469z" fill="url(#paint20_linear)"/><path d="M48.28 15.938H11.719a.469.469 0 110-.938h36.563a.468.468 0 110 .938z" fill="url(#paint21_linear)"/><path d="M11.719 6.563a.469.469 0 01-.47-.47A6.1 6.1 0 0117.345 0a.469.469 0 110 .937 5.162 5.162 0 00-5.157 5.157c0 .259-.21.469-.468.469z" fill="url(#paint22_linear)"/><path d="M48.282 6.563a.469.469 0 01-.469-.47A5.162 5.162 0 0042.657.938a.469.469 0 110-.937 6.1 6.1 0 016.094 6.094.47.47 0 01-.47.469z" fill="url(#paint23_linear)"/><path d="M30 11.25a.47.47 0 01-.331-.137L26.95 8.395a2.395 2.395 0 010-3.382c.8-.8 2.14-.91 3.05-.278.91-.631 2.25-.523 3.05.278.45.451.7 1.052.7 1.69 0 .64-.25 1.24-.7 1.692l-2.718 2.718a.469.469 0 01-.332.137zm-1.359-6c-.389 0-.753.15-1.028.425a1.456 1.456 0 000 2.057L30 10.118l2.386-2.386c.275-.275.426-.64.426-1.029 0-.388-.15-.753-.425-1.028-.549-.549-1.506-.549-2.055 0a.483.483 0 01-.663 0 1.443 1.443 0 00-1.028-.425z" fill="url(#paint24_linear)"/></g><defs><linearGradient id="paint0_linear" x1="5" y1="5" x2="64.962" y2="24.742" gradientUnits="userSpaceOnUse"><stop stop-color="#ECF6F5"/><stop offset="1" stop-color="#FBF6F9"/></linearGradient><linearGradient id="paint1_linear" x1="5" y1="5" x2="64.962" y2="24.742" gradientUnits="userSpaceOnUse"><stop stop-color="#F6F6FB"/><stop offset="1" stop-color="#FEF3F9"/></linearGradient><linearGradient id="paint2_linear" x1="17.139" y1="21.695" x2="34.848" y2="11.179" gradientUnits="userSpaceOnUse"><stop stop-color="#46A29F"/><stop offset="1" stop-color="#4660A2"/></linearGradient><linearGradient id="paint3_linear" x1="30.264" y1="21.695" x2="47.973" y2="11.179" gradientUnits="userSpaceOnUse"><stop stop-color="#46A29F"/><stop offset="1" stop-color="#4660A2"/></linearGradient><linearGradient id="paint4_linear" x1="26.22" y1="22.742" x2="29.663" y2="16.607" gradientUnits="userSpaceOnUse"><stop stop-color="#46A29F"/><stop offset="1" stop-color="#4660A2"/></linearGradient><linearGradient id="paint5_linear" x1="15.574" y1="43.869" x2="34.666" y2="41.69" gradientUnits="userSpaceOnUse"><stop stop-color="#46A29F"/><stop offset="1" stop-color="#4660A2"/></linearGradient><linearGradient id="paint6_linear" x1="19.497" y1="43.869" x2="36.103" y2="42.226" gradientUnits="userSpaceOnUse"><stop stop-color="#46A29F"/><stop offset="1" stop-color="#4660A2"/></linearGradient><linearGradient id="paint7_linear" x1="34.255" y1="43.869" x2="53.346" y2="41.69" gradientUnits="userSpaceOnUse"><stop stop-color="#46A29F"/><stop offset="1" stop-color="#4660A2"/></linearGradient><linearGradient id="paint8_linear" x1="31.685" y1="43.869" x2="48.29" y2="42.226" gradientUnits="userSpaceOnUse"><stop stop-color="#46A29F"/><stop offset="1" stop-color="#4660A2"/></linearGradient><linearGradient id="paint9_linear" x1="19.293" y1="44.705" x2="29.917" y2="26.824" gradientUnits="userSpaceOnUse"><stop stop-color="#46A29F"/><stop offset="1" stop-color="#4660A2"/></linearGradient><linearGradient id="paint10_linear" x1="20.387" y1="47.213" x2="26.974" y2="33.157" gradientUnits="userSpaceOnUse"><stop stop-color="#46A29F"/><stop offset="1" stop-color="#4660A2"/></linearGradient><linearGradient id="paint11_linear" x1="10.264" y1="26.995" x2="51.528" y2="16.265" gradientUnits="userSpaceOnUse"><stop stop-color="#46A29F"/><stop offset="1" stop-color="#4660A2"/></linearGradient><linearGradient id="paint12_linear" x1="-5.272" y1="48.089" x2="61.136" y2="-18.979" gradientUnits="userSpaceOnUse"><stop stop-color="#46A29F"/><stop offset="1" stop-color="#4660A2"/></linearGradient><linearGradient id="paint13_linear" x1="11.089" y1="23.295" x2="13.484" y2="23.272" gradientUnits="userSpaceOnUse"><stop stop-color="#46A29F"/><stop offset="1" stop-color="#4660A2"/></linearGradient><linearGradient id="paint14_linear" x1="9.029" y1="18.052" x2="30.278" y2="2.241" gradientUnits="userSpaceOnUse"><stop stop-color="#46A29F"/><stop offset="1" stop-color="#4660A2"/></linearGradient><linearGradient id="paint15_linear" x1="26.568" y1="26.994" x2="67.833" y2="16.265" gradientUnits="userSpaceOnUse"><stop stop-color="#46A29F"/><stop offset="1" stop-color="#4660A2"/></linearGradient><linearGradient id="paint16_linear" x1="47.651" y1="23.295" x2="50.046" y2="23.272" gradientUnits="userSpaceOnUse"><stop stop-color="#46A29F"/><stop offset="1" stop-color="#4660A2"/></linearGradient><linearGradient id="paint17_linear" x1="33.609" y1="18.052" x2="54.861" y2="2.241" gradientUnits="userSpaceOnUse"><stop stop-color="#46A29F"/><stop offset="1" stop-color="#4660A2"/></linearGradient><linearGradient id="paint18_linear" x1="11.089" y1="7.979" x2="13.482" y2="7.914" gradientUnits="userSpaceOnUse"><stop stop-color="#46A29F"/><stop offset="1" stop-color="#4660A2"/></linearGradient><linearGradient id="paint19_linear" x1="12.134" y1=".214" x2="13.084" y2="-7.74" gradientUnits="userSpaceOnUse"><stop stop-color="#46A29F"/><stop offset="1" stop-color="#4660A2"/></linearGradient><linearGradient id="paint20_linear" x1="47.651" y1="7.979" x2="50.045" y2="7.914" gradientUnits="userSpaceOnUse"><stop stop-color="#46A29F"/><stop offset="1" stop-color="#4660A2"/></linearGradient><linearGradient id="paint21_linear" x1="4.806" y1="15.214" x2="5.481" y2="7.202" gradientUnits="userSpaceOnUse"><stop stop-color="#46A29F"/><stop offset="1" stop-color="#4660A2"/></linearGradient><linearGradient id="paint22_linear" x1="10.122" y1="1.498" x2="25.531" y2="-3.077" gradientUnits="userSpaceOnUse"><stop stop-color="#46A29F"/><stop offset="1" stop-color="#4660A2"/></linearGradient><linearGradient id="paint23_linear" x1="41.06" y1="1.498" x2="56.47" y2="-3.077" gradientUnits="userSpaceOnUse"><stop stop-color="#46A29F"/><stop offset="1" stop-color="#4660A2"/></linearGradient><linearGradient id="paint24_linear" x1="24.963" y1="5.907" x2="42.326" y2=".323" gradientUnits="userSpaceOnUse"><stop stop-color="#46A29F"/><stop offset="1" stop-color="#4660A2"/></linearGradient><clipPath id="clip0"><path fill="#fff" d="M0 0h60v60H0z"/></clipPath></defs></svg>