<svg width="80" height="80" fill="none" xmlns="http://www.w3.org/2000/svg"><g clip-path="url(#clip0_14181_2123)"><path opacity=".4" d="M81.667 38.672c0 7.57-13.869 11.968-16.07 19.988-2.202 8.019-6.413 11.856-16.73 11.856-8.409 0-4.844-5.77-21.882-8.121-17.04-2.351-12.456-12.02-7.167-20.885C25.834 30.485 28.624 25 32.964 17.727c4.34-7.274 6.047-10.9 15.902-10.9 8.26 0 19.152-4.59 21.574 7.857 2.421 12.447 11.227 14.42 11.227 23.988z" fill="url(#paint0_linear_14181_2123)"/><path d="M45 26.5c0 5.247-4.477 9.5-10 9.5s-10-4.253-10-9.5S29.477 17 35 17s10 4.253 10 9.5z" fill="#DEEEEE"/><ellipse cx="15" cy="13.806" rx="6" ry="5.806" fill="#DEEEEE"/><circle cx="44" cy="8" r="4" fill="#DEEEEE"/><circle cx="16" cy="42" r="4" fill="#DEEEEE"/><ellipse cx="63" cy="34.5" rx="8" ry="7.5" fill="#DEEEEE"/><path d="M35 72l1 6.5 1 .5h6l7.5.5c1.5-.167 4.8-.5 6-.5 1.2 0 1.166-1 1-1.5V73l2.5-3.5 1.5-4.5V51c-.167-1-.6-3.2-1-4-.4-.8-2.5-.667-3.5-.5-1 .667-3 1.6-3 0 0-2-1.5-2.5-2.5-3.5-.8-.8-3.334.333-4.5 1l-1-1-1.5-2-2.5-.5-2.5 1.5v-2.5c-.167-2.667-.6-8.3-1-9.5-.5-1.5-5-1-6-.5S32.612 51.194 31 52c-3 1.5-4 4.5-4.5 7.5-.4 2.4 5.5 9.333 8.5 12.5z" fill="#F6FBFA"/><path d="M63.545 23.84c-4.29 0-7.901 2.925-8.968 6.883l-7.846-1.424c.04-.396.068-.793.068-1.197 0-4.448-2.525-8.312-6.213-10.249l2.389-5.56a5.71 5.71 0 001.308.157 5.732 5.732 0 005.726-5.725A5.731 5.731 0 0044.284 1a5.733 5.733 0 00-5.725 5.725 5.72 5.72 0 002.789 4.906l-2.377 5.53a11.512 11.512 0 00-3.746-.633c-3.48 0-6.597 1.55-8.72 3.988l-4.42-3.6a7.96 7.96 0 00.957-3.793c0-4.423-3.599-8.02-8.021-8.02C10.599 5.103 7 8.7 7 13.123s3.599 8.021 8.02 8.021a7.999 7.999 0 006.06-2.782l4.375 3.563a11.491 11.491 0 00-1.804 6.178c0 2.145.595 4.189 1.653 5.948l-4.75 3.361a5.896 5.896 0 00-4.396-1.971 5.923 5.923 0 00-5.917 5.916 5.923 5.923 0 005.917 5.916 5.922 5.922 0 005.916-5.916c0-.886-.201-1.724-.552-2.478l4.797-3.395a11.564 11.564 0 004.505 3.308v12.05l-2.572 1.952a7.747 7.747 0 00-3.03 5.279 7.745 7.745 0 001.68 5.85l7.36 9.098v3.78a3.237 3.237 0 003.233 3.233h18.006a3.237 3.237 0 003.233-3.233v-3.599a15.715 15.715 0 003.569-9.952V49.855a4.427 4.427 0 00-4.422-4.422h-.343c-1 0-1.923.334-2.665.897v-.019a4.427 4.427 0 00-4.422-4.421h-.344a4.4 4.4 0 00-2.764.973 4.429 4.429 0 00-4.322-3.488h-.345a4.4 4.4 0 00-2.665.896v-1.646a11.483 11.483 0 006.41-7.598l7.862 1.428c-.016.226-.034.452-.034.682 0 5.125 4.17 9.296 9.297 9.296 5.127 0 9.297-4.17 9.297-9.296 0-5.126-4.171-9.298-9.298-9.298zM44.285 2.755a3.973 3.973 0 013.968 3.97c0 2.189-1.78 3.968-3.969 3.968s-3.969-1.78-3.969-3.969 1.781-3.969 3.97-3.969zM15.02 19.387a6.271 6.271 0 01-6.265-6.264 6.271 6.271 0 016.265-6.265 6.271 6.271 0 016.265 6.265 6.271 6.271 0 01-6.265 6.264zm1.137 26.128a4.165 4.165 0 01-4.16-4.16 4.165 4.165 0 014.16-4.16 4.164 4.164 0 014.16 4.16 4.164 4.164 0 01-4.16 4.16zm26.52-4.384h.344a2.668 2.668 0 012.665 2.665v2.515l.007 7.42a.878.878 0 001.756-.001l-.008-7.419a2.668 2.668 0 012.665-2.665h.344a2.668 2.668 0 012.666 2.665v3.219c-.003.026-.016.049-.016.076l.008 4.127c0 .485.393.877.878.877.478-.035.879-.394.878-.88l-.007-3.802c.003-.025.015-.047.015-.073a2.668 2.668 0 012.665-2.666h.343a2.668 2.668 0 012.665 2.666v13.394a13.95 13.95 0 01-3.357 9.06.88.88 0 00-.21.57v3.919c0 .815-.663 1.477-1.477 1.477H37.496a1.479 1.479 0 01-1.477-1.477v-4.09a.879.879 0 00-.196-.552l-7.556-9.34a6.002 6.002 0 01-1.302-4.534 6.003 6.003 0 012.349-4.091l1.51-1.147v5.555a.878.878 0 101.757 0V31.852a2.668 2.668 0 012.665-2.665h.343a2.668 2.668 0 012.665 2.665v11.944l.007 9.934a.878.878 0 101.756-.001l-.007-9.934a2.669 2.669 0 012.666-2.664zM40.01 36.67v-4.816a4.427 4.427 0 00-4.421-4.421h-.343a4.427 4.427 0 00-4.422 4.42v5.018a9.824 9.824 0 01-5.418-8.767c0-5.415 4.405-9.819 9.819-9.819 5.413 0 9.818 4.405 9.818 9.819a9.752 9.752 0 01-5.033 8.566zm23.534 4.007c-4.157 0-7.54-3.382-7.54-7.54 0-4.157 3.383-7.54 7.54-7.54s7.54 3.383 7.54 7.54c0 4.158-3.382 7.54-7.54 7.54z" fill="url(#paint1_linear_14181_2123)"/></g><defs><linearGradient id="paint0_linear_14181_2123" x1="15" y1="6" x2="94.423" y2="33.022" gradientUnits="userSpaceOnUse"><stop stop-color="#ECF6F5"/><stop offset="1" stop-color="#EBF0F6"/></linearGradient><linearGradient id="paint1_linear_14181_2123" x1="-4.314" y1="19.042" x2="154.218" y2="-20.172" gradientUnits="userSpaceOnUse"><stop stop-color="#46A29F"/><stop offset="1" stop-color="#4660A2"/></linearGradient><clipPath id="clip0_14181_2123"><path fill="#fff" d="M0 0h80v80H0z"/></clipPath></defs></svg>