<svg width="60" height="60" fill="none" xmlns="http://www.w3.org/2000/svg"><path d="M55 30.32c0 5.867-10.401 9.276-12.053 15.491C41.297 52.026 38.138 55 30.4 55c-6.306 0-3.633-4.472-16.412-6.294C1.21 46.884 4.647 39.39 8.614 32.52c4.511-8.544 6.604-12.795 9.859-18.432 3.254-5.637 4.535-8.447 11.927-8.447 6.195 0 14.364-3.557 16.18 6.089C48.396 21.376 55 22.905 55 30.32z" fill="url(#paint0_linear)"/><path d="M55 30.32c0 5.867-10.401 9.276-12.053 15.491C41.297 52.026 38.138 55 30.4 55c-6.306 0-3.633-4.472-16.412-6.294C1.21 46.884 4.647 39.39 8.614 32.52c4.511-8.544 6.604-12.795 9.859-18.432 3.254-5.637 4.535-8.447 11.927-8.447 6.195 0 14.364-3.557 16.18 6.089C48.396 21.376 55 22.905 55 30.32z" fill="url(#paint1_linear)"/><path d="M25.15 6.557a.467.467 0 01-.332-.137l-.669-.668a.468.468 0 11.663-.663l.668.668a.469.469 0 01-.33.8z" fill="url(#paint2_linear)"/><path d="M24.48 7.215a.467.467 0 01-.33-.8l.653-.654a.468.468 0 11.663.663l-.654.654a.467.467 0 01-.331.137z" fill="url(#paint3_linear)"/><path d="M25.15 6.567H12.1a.469.469 0 110-.938h13.05a.469.469 0 110 .938z" fill="url(#paint4_linear)"/><path fill-rule="evenodd" clip-rule="evenodd" d="M39.378 6.45c0-.26.21-.47.469-.47H51.42l.023.001-.023.468.024-.468h.01a1.88 1.88 0 01.102.009c.066.006.161.017.28.035.238.036.572.1.972.214a8.938 8.938 0 012.925 1.46c2.148 1.622 4.217 4.714 4.217 10.526 0 5.812-2.069 8.903-4.217 10.526a8.938 8.938 0 01-2.925 1.46c-.4.113-.734.177-.972.213a5.316 5.316 0 01-.382.044h-.009L51.42 30l.023.468h-21.27a.469.469 0 110-.937H51.41l.056-.005a4.76 4.76 0 00.231-.029 6.88 6.88 0 00.855-.188 8.001 8.001 0 002.617-1.306c1.882-1.422 3.844-4.218 3.844-9.778 0-5.56-1.962-8.357-3.844-9.779a8 8 0 00-2.617-1.305 6.892 6.892 0 00-.855-.189 4.457 4.457 0 00-.287-.034H39.846a.469.469 0 01-.468-.469z" fill="url(#paint5_linear)"/><path d="M30.157 31.17a.468.468 0 01-.331-.138l-.668-.668a.468.468 0 11.663-.662l.668.667a.469.469 0 01-.332.8z" fill="url(#paint6_linear)"/><path d="M29.504 30.497a.468.468 0 01-.332-.8l.654-.654a.469.469 0 11.663.663l-.654.654a.467.467 0 01-.331.137z" fill="url(#paint7_linear)"/><path fill-rule="evenodd" clip-rule="evenodd" d="M20.68 30.058a.469.469 0 00-.468-.47H8.638l-.03.002.03.468-.03-.468h-.011a7.903 7.903 0 00-1.353.277 9.082 9.082 0 00-2.923 1.5C2.176 33.018.108 36.137.108 41.948c0 5.812 2.068 8.93 4.213 10.582a9.08 9.08 0 002.923 1.5c.4.119.734.188.971.227a5.383 5.383 0 00.382.049h.01l.03-.467-.03.468h9.532a.469.469 0 000-.937H8.656a4.42 4.42 0 01-.288-.038 6.957 6.957 0 01-.855-.2 8.144 8.144 0 01-2.62-1.345c-1.885-1.451-3.848-4.279-3.848-9.839 0-5.56 1.963-8.387 3.848-9.838a8.144 8.144 0 012.62-1.345 6.96 6.96 0 01.855-.2 4.42 4.42 0 01.287-.039h11.557c.259 0 .468-.21.468-.468z" fill="url(#paint8_linear)"/><path d="M17.579 55.008c.12 0 .24-.046.331-.138l.668-.667a.468.468 0 10-.663-.663l-.668.668a.468.468 0 00.332.8z" fill="url(#paint9_linear)"/><path d="M18.232 54.336a.468.468 0 00.332-.8l-.654-.654a.469.469 0 00-.663.663l.654.654a.468.468 0 00.331.137z" fill="url(#paint10_linear)"/><path d="M6.104 11.632a5.528 5.528 0 100-11.056 5.528 5.528 0 000 11.056z" fill="#DEEEEE"/><path d="M8.977 1.388c.512.838.812 1.82.812 2.873A5.528 5.528 0 014.26 9.789a5.49 5.49 0 01-2.873-.812 5.519 5.519 0 004.716 2.655 5.528 5.528 0 005.528-5.528c0-2-1.065-3.745-2.655-4.716z" fill="#F0F4F4"/><path fill-rule="evenodd" clip-rule="evenodd" d="M6.104 11.286a5.182 5.182 0 100-10.365 5.182 5.182 0 000 10.365zm0 .921A6.104 6.104 0 106.104 0a6.104 6.104 0 000 12.207z" fill="url(#paint11_linear)"/><path d="M20.614 35.585a5.528 5.528 0 100-11.055 5.528 5.528 0 000 11.055z" fill="#DEEEEE"/><path d="M23.487 25.342c.512.838.812 1.82.812 2.873a5.528 5.528 0 01-5.527 5.528c-1.054 0-2.036-.3-2.874-.812a5.519 5.519 0 004.716 2.654 5.528 5.528 0 005.528-5.527c0-2-1.065-3.745-2.655-4.716z" fill="#F0F4F4"/><path fill-rule="evenodd" clip-rule="evenodd" d="M20.614 35.24a5.182 5.182 0 100-10.365 5.182 5.182 0 000 10.365zm0 .921a6.104 6.104 0 100-12.207 6.104 6.104 0 000 12.207z" fill="url(#paint12_linear)"/><path d="M33.973 11.632a5.528 5.528 0 100-11.056 5.528 5.528 0 000 11.056z" fill="#DEEEEE"/><path d="M36.846 1.388c.512.838.812 1.82.812 2.873a5.528 5.528 0 01-5.527 5.528c-1.054 0-2.036-.3-2.874-.812a5.519 5.519 0 004.716 2.655 5.528 5.528 0 005.528-5.528c0-2-1.065-3.745-2.655-4.716z" fill="#F0F4F4"/><path fill-rule="evenodd" clip-rule="evenodd" d="M33.973 11.286a5.182 5.182 0 100-10.365 5.182 5.182 0 000 10.365zm0 .921a6.104 6.104 0 100-12.207 6.104 6.104 0 000 12.207z" fill="url(#paint13_linear)"/><path d="M27.063 59.424a5.528 5.528 0 100-11.055 5.528 5.528 0 000 11.055z" fill="#DEEEEE"/><path d="M29.937 49.18c.511.839.812 1.82.812 2.874a5.528 5.528 0 01-5.528 5.528 5.49 5.49 0 01-2.873-.812 5.519 5.519 0 004.715 2.654 5.528 5.528 0 005.528-5.528 5.518 5.518 0 00-2.654-4.715z" fill="#F0F4F4"/><path fill-rule="evenodd" clip-rule="evenodd" d="M27.063 59.079a5.182 5.182 0 100-10.365 5.182 5.182 0 000 10.365zm0 .921a6.104 6.104 0 100-12.207 6.104 6.104 0 000 12.207z" fill="url(#paint14_linear)"/><path d="M45.072 54.35a.468.468 0 01-.331-.138l-.668-.667a.468.468 0 11.662-.663l.669.668a.469.469 0 01-.332.8z" fill="url(#paint15_linear)"/><path d="M44.404 55.008a.467.467 0 01-.331-.8l.653-.654a.469.469 0 11.663.663l-.654.654a.467.467 0 01-.331.137z" fill="url(#paint16_linear)"/><path d="M45.072 54.36H33.175a.468.468 0 110-.938h11.897a.469.469 0 110 .938z" fill="url(#paint17_linear)"/><path d="M53.896 59.424a5.528 5.528 0 100-11.055 5.528 5.528 0 000 11.055z" fill="#F0F4F4"/><path d="M56.77 49.18c.511.839.812 1.82.812 2.874a5.528 5.528 0 01-5.528 5.528 5.49 5.49 0 01-2.873-.812 5.519 5.519 0 004.715 2.654 5.528 5.528 0 005.528-5.528 5.518 5.518 0 00-2.654-4.715z" fill="#fff"/><path fill-rule="evenodd" clip-rule="evenodd" d="M53.896 59.079a5.182 5.182 0 100-10.365 5.182 5.182 0 000 10.365zm0 .921a6.104 6.104 0 100-12.207 6.104 6.104 0 000 12.207z" fill="url(#paint18_linear)"/><defs><linearGradient id="paint0_linear" x1="5" y1="5" x2="64.962" y2="24.742" gradientUnits="userSpaceOnUse"><stop stop-color="#ECF6F5"/><stop offset="1" stop-color="#FBF6F9"/></linearGradient><linearGradient id="paint1_linear" x1="5" y1="5" x2="64.962" y2="24.742" gradientUnits="userSpaceOnUse"><stop stop-color="#F6F6FB"/><stop offset="1" stop-color="#FEF3F9"/></linearGradient><linearGradient id="paint2_linear" x1="23.736" y1="5.318" x2="27.506" y2="4.198" gradientUnits="userSpaceOnUse"><stop stop-color="#46A29F"/><stop offset="1" stop-color="#4660A2"/></linearGradient><linearGradient id="paint3_linear" x1="23.739" y1="5.987" x2="27.475" y2="4.878" gradientUnits="userSpaceOnUse"><stop stop-color="#46A29F"/><stop offset="1" stop-color="#4660A2"/></linearGradient><linearGradient id="paint4_linear" x1="9.228" y1="5.843" x2="10.962" y2="-1.834" gradientUnits="userSpaceOnUse"><stop stop-color="#46A29F"/><stop offset="1" stop-color="#4660A2"/></linearGradient><linearGradient id="paint5_linear" x1="24.507" y1="11.571" x2="92.627" y2="-13.411" gradientUnits="userSpaceOnUse"><stop stop-color="#46A29F"/><stop offset="1" stop-color="#4660A2"/></linearGradient><linearGradient id="paint6_linear" x1="28.745" y1="29.931" x2="32.514" y2="28.812" gradientUnits="userSpaceOnUse"><stop stop-color="#46A29F"/><stop offset="1" stop-color="#4660A2"/></linearGradient><linearGradient id="paint7_linear" x1="28.761" y1="29.269" x2="32.498" y2="28.16" gradientUnits="userSpaceOnUse"><stop stop-color="#46A29F"/><stop offset="1" stop-color="#4660A2"/></linearGradient><linearGradient id="paint8_linear" x1="24.216" y1="35.232" x2="-25.324" y2="22.99" gradientUnits="userSpaceOnUse"><stop stop-color="#46A29F"/><stop offset="1" stop-color="#4660A2"/></linearGradient><linearGradient id="paint9_linear" x1="18.991" y1="53.769" x2="15.222" y2="52.65" gradientUnits="userSpaceOnUse"><stop stop-color="#46A29F"/><stop offset="1" stop-color="#4660A2"/></linearGradient><linearGradient id="paint10_linear" x1="18.975" y1="53.108" x2="15.238" y2="51.999" gradientUnits="userSpaceOnUse"><stop stop-color="#46A29F"/><stop offset="1" stop-color="#4660A2"/></linearGradient><linearGradient id="paint11_linear" x1="-2.098" y1="2.787" x2="26.566" y2="-5.724" gradientUnits="userSpaceOnUse"><stop stop-color="#46A29F"/><stop offset="1" stop-color="#4660A2"/></linearGradient><linearGradient id="paint12_linear" x1="12.413" y1="26.741" x2="41.076" y2="18.23" gradientUnits="userSpaceOnUse"><stop stop-color="#46A29F"/><stop offset="1" stop-color="#4660A2"/></linearGradient><linearGradient id="paint13_linear" x1="25.772" y1="2.787" x2="54.435" y2="-5.724" gradientUnits="userSpaceOnUse"><stop stop-color="#46A29F"/><stop offset="1" stop-color="#4660A2"/></linearGradient><linearGradient id="paint14_linear" x1="18.862" y1="50.579" x2="47.526" y2="42.069" gradientUnits="userSpaceOnUse"><stop stop-color="#46A29F"/><stop offset="1" stop-color="#4660A2"/></linearGradient><linearGradient id="paint15_linear" x1="43.659" y1="53.111" x2="47.429" y2="51.991" gradientUnits="userSpaceOnUse"><stop stop-color="#46A29F"/><stop offset="1" stop-color="#4660A2"/></linearGradient><linearGradient id="paint16_linear" x1="43.662" y1="53.78" x2="47.398" y2="52.671" gradientUnits="userSpaceOnUse"><stop stop-color="#46A29F"/><stop offset="1" stop-color="#4660A2"/></linearGradient><linearGradient id="paint17_linear" x1="30.501" y1="53.636" x2="32.373" y2="46.028" gradientUnits="userSpaceOnUse"><stop stop-color="#46A29F"/><stop offset="1" stop-color="#4660A2"/></linearGradient><linearGradient id="paint18_linear" x1="45.695" y1="50.579" x2="74.359" y2="42.069" gradientUnits="userSpaceOnUse"><stop stop-color="#46A29F"/><stop offset="1" stop-color="#4660A2"/></linearGradient></defs></svg>