<svg width="60" height="60" fill="none" xmlns="http://www.w3.org/2000/svg"><g clip-path="url(#clip0_13858_4338)"><mask id="a" fill="#fff"><path d="M6.561 23.438c.188 0 .37 0 .553-.029l.385 2.082a.954.954 0 101.875-.357l-.431-2.165a6.563 6.563 0 003.88-8.072L25.41 8.869c.29.41.634.78 1.022 1.101L16.119 24.778a.938.938 0 001.538 1.069l10.415-14.944c.32.12.652.207.99.263v8.053a.938.938 0 001.874 0v-8.053c.338-.056.669-.144.99-.263l10.43 14.944a.937.937 0 101.537-1.069L33.58 9.97a5.65 5.65 0 001.022-1.101l12.586 6.042a6.562 6.562 0 003.867 8.058l-.431 2.165a.938.938 0 101.837.357l.404-2.082c.182 0 .365.029.553.029a6.562 6.562 0 10-5.447-10.22l-12.572-6.04a5.47 5.47 0 00.225-1.552 5.625 5.625 0 10-11.25 0c0 .525.076 1.048.225 1.552l-12.59 6.042A6.561 6.561 0 00.931 20.253a6.562 6.562 0 005.63 3.184zm46.875-11.25a4.688 4.688 0 110 9.375 4.688 4.688 0 010-9.375zM30 1.874a3.75 3.75 0 110 7.5 3.75 3.75 0 010-7.5zM6.56 12.188a4.687 4.687 0 110 9.374 4.687 4.687 0 010-9.375z"/></mask><path d="M6.561 23.438c.188 0 .37 0 .553-.029l.385 2.082a.954.954 0 101.875-.357l-.431-2.165a6.563 6.563 0 003.88-8.072L25.41 8.869c.29.41.634.78 1.022 1.101L16.119 24.778a.938.938 0 001.538 1.069l10.415-14.944c.32.12.652.207.99.263v8.053a.938.938 0 001.874 0v-8.053c.338-.056.669-.144.99-.263l10.43 14.944a.937.937 0 101.537-1.069L33.58 9.97a5.65 5.65 0 001.022-1.101l12.586 6.042a6.562 6.562 0 003.867 8.058l-.431 2.165a.938.938 0 101.837.357l.404-2.082c.182 0 .365.029.553.029a6.562 6.562 0 10-5.447-10.22l-12.572-6.04a5.47 5.47 0 00.225-1.552 5.625 5.625 0 10-11.25 0c0 .525.076 1.048.225 1.552l-12.59 6.042A6.561 6.561 0 00.931 20.253a6.562 6.562 0 005.63 3.184zm46.875-11.25a4.688 4.688 0 110 9.375 4.688 4.688 0 010-9.375zM30 1.874a3.75 3.75 0 110 7.5 3.75 3.75 0 010-7.5zM6.56 12.188a4.687 4.687 0 110 9.374 4.687 4.687 0 010-9.375z" fill="url(#paint0_linear_13858_4338)" stroke="#fff" mask="url(#a)"/><path d="M51.366 44.345l.385-.275a5.688 5.688 0 002.375-4.692v-.003h0v-7.974h0a2.96 2.96 0 00-3.026-3.026h-.006v0h-6.099 0A2.963 2.963 0 0041.97 31.4v.005h0v7.972h0a5.68 5.68 0 002.353 4.674l.391.282-.456.157c-.598.206-1.178.46-1.733.761a.688.688 0 00-.273.933l-.22.12.22-.12a.687.687 0 00.933.274s0 0 0 0l.12.22a9.797 9.797 0 014.748-1.21l3.314-1.124zm0 0l.444.163a12.11 12.11 0 017.94 11.274l-8.384-11.437zM52.501 34h.25v-2.587a1.582 1.582 0 00-1.663-1.663h-6.08a1.581 1.581 0 00-1.664 1.663V34h9.157zm-8.907 1.375h-.25v4c0 2.556 2.048 4.469 4.708 4.469 2.662 0 4.699-1.914 4.699-4.469v-4h-9.157zM7.802 44.358A12.188 12.188 0 000 55.782a.938.938 0 001.875 0A10.21 10.21 0 0111.958 45.47a9.699 9.699 0 014.383 1.06l-8.539-2.17zm0 0l.133.1.146-.203-.084-.236-.152.056a5.93 5.93 0 01-2.22-4.7v-7.969a3.21 3.21 0 013.281-3.281H15a3.211 3.211 0 013.281 3.281L7.802 44.36zm8.652 1.947a9.949 9.949 0 00-4.495-1.086h-.004a10.46 10.46 0 00-10.33 10.563.688.688 0 01-1.375 0v-.002a11.938 11.938 0 017.916-11.29l.447-.16-.385-.278a5.679 5.679 0 01-2.353-4.674h0v-7.972h0v-.005a2.96 2.96 0 013.026-3.026H15v0h.006A2.963 2.963 0 0118.03 31.4h0v7.977a5.678 5.678 0 01-2.366 4.683l-.386.277.447.161a22.14 22.14 0 011.348.577l.002.002a.688.688 0 11-.622 1.227zM16.406 34h.25v-2.587a1.58 1.58 0 00-.1-.646l-.235.088.234-.088a1.583 1.583 0 00-1.562-1.017h-6.08a1.581 1.581 0 00-1.663 1.663V34h9.156zM7.5 35.375h-.25v4c0 2.556 2.047 4.469 4.708 4.469s4.698-1.914 4.698-4.469v-4H7.5z" stroke="#4690a0" stroke-width=".5"/><path d="M33.835 44.045l.492-.291a7.865 7.865 0 003.862-6.723V26.25a3.969 3.969 0 00-3.97-3.969h-8.437a3.969 3.969 0 00-3.968 3.969v10.779a7.93 7.93 0 003.912 6.687l.505.296-.563.16a15.285 15.285 0 00-11.12 14.888v.002a.687.687 0 001.375.002 13.95 13.95 0 0114.08-14.117s0 0 0 0l-.002.25A13.86 13.86 0 0143.83 59.062l-9.994-15.017zm0 0l.548.163a15.514 15.514 0 0111.071 14.855.687.687 0 11-1.375 0L33.835 44.045zm2.729-14.264h.25V26.25a2.594 2.594 0 00-2.594-2.594h-8.438a2.594 2.594 0 00-2.593 2.594v3.531h13.375zm-13.125 1.375h-.25v5.875c0 3.56 3.214 6.54 6.868 6.54 3.66 0 6.757-2.986 6.757-6.54v-5.875H23.439z" stroke="#4690a0" stroke-width=".5"/><circle cx="6.5" cy="17.5" r="4.5" fill="#DEEEEE"/><circle cx="30" cy="59" r="13" fill="#DEEEEE"/><path d="M58 56a10.4 10.4 0 00-1.41-5.243 9.702 9.702 0 00-3.812-3.686 9.094 9.094 0 00-5.082-1.035 9.222 9.222 0 00-4.844 1.923L48.5 56H58zm-40.625-8.835a10.396 10.396 0 00-5.218-1.5 9.703 9.703 0 00-5.125 1.36 9.095 9.095 0 00-3.512 3.817 9.221 9.221 0 00-.854 5.14H13l4.375-8.817z" fill="#DEEEEE"/><circle cx="30.5" cy="5.5" r="3.5" fill="#DEEEEE"/><circle cx="52.5" cy="17.5" r="3.5" fill="#DEEEEE"/></g><defs><linearGradient id="paint0_linear_13858_4338" x1="-10.312" y1="6.005" x2="94.777" y2="-65.152" gradientUnits="userSpaceOnUse"><stop stop-color="#46A29F"/><stop offset="1" stop-color="#4660A2"/></linearGradient><linearGradient id="paint1_linear_13858_4338" x1="38.577" y1="34.652" x2="83.664" y2="26.093" gradientUnits="userSpaceOnUse"><stop stop-color="#46A29F"/><stop offset="1" stop-color="#4660A2"/></linearGradient><linearGradient id="paint2_linear_13858_4338" x1="-3.142" y1="34.652" x2="41.946" y2="26.093" gradientUnits="userSpaceOnUse"><stop stop-color="#46A29F"/><stop offset="1" stop-color="#4660A2"/></linearGradient><linearGradient id="paint3_linear_13858_4338" x1="8.9" y1="30.699" x2="84.582" y2="12.111" gradientUnits="userSpaceOnUse"><stop stop-color="#46A29F"/><stop offset="1" stop-color="#4660A2"/></linearGradient><clipPath id="clip0_13858_4338"><path fill="#fff" d="M0 0h60v60H0z"/></clipPath></defs></svg>