<svg width="80" height="80" fill="none" xmlns="http://www.w3.org/2000/svg"><path d="M73.333 40.427c0 7.823-13.868 12.368-16.07 20.654-2.201 8.287-6.412 12.252-16.73 12.252-8.408 0-4.843-5.962-21.882-8.392-17.039-2.43-12.455-12.42-7.166-21.58C17.5 31.967 20.29 26.3 24.63 18.783 28.97 11.267 30.677 7.52 40.533 7.52c8.26 0 19.152-4.743 21.573 8.119 2.422 12.862 11.227 14.9 11.227 24.787z" fill="url(#paint0_linear_14181_2209)"/><path d="M73.333 40.427c0 7.823-13.868 12.368-16.07 20.654-2.201 8.287-6.412 12.252-16.73 12.252-8.408 0-4.843-5.962-21.882-8.392-17.039-2.43-12.455-12.42-7.166-21.58C17.5 31.967 20.29 26.3 24.63 18.783 28.97 11.267 30.677 7.52 40.533 7.52c8.26 0 19.152-4.743 21.573 8.119 2.422 12.862 11.227 14.9 11.227 24.787z" fill="url(#paint1_linear_14181_2209)"/><g clip-path="url(#clip0_14181_2209)"><path d="M73.333 43.094c0 7.822-13.868 12.367-16.07 20.654C55.062 72.035 50.851 76 40.533 76c-8.408 0-4.843-5.963-21.882-8.392-17.039-2.43-12.455-12.42-7.166-21.581C17.5 34.634 20.29 28.967 24.63 21.45c4.34-7.516 6.047-11.263 15.903-11.263 8.26 0 19.152-4.743 21.573 8.118 2.422 12.862 11.227 14.9 11.227 24.788z" fill="url(#paint2_linear_14181_2209)"/><path d="M73.333 43.094c0 7.822-13.868 12.367-16.07 20.654C55.062 72.035 50.851 76 40.533 76c-8.408 0-4.843-5.963-21.882-8.392-17.039-2.43-12.455-12.42-7.166-21.581C17.5 34.634 20.29 28.967 24.63 21.45c4.34-7.516 6.047-11.263 15.903-11.263 8.26 0 19.152-4.743 21.573 8.118 2.422 12.862 11.227 14.9 11.227 24.788z" fill="url(#paint3_linear_14181_2209)"/><g clip-path="url(#clip1_14181_2209)"><path d="M43.626 9.792c.998 1 .998 2.625 0 3.625L40 17.042l-3.625-3.625A2.564 2.564 0 0140 9.792c1-1 2.625-1 3.626 0z" fill="#DEEEEE"/><path d="M64.375 10.791v12.5H15.626v-12.5c0-4.15 3.362-7.5 7.5-7.5h33.75c4.15 0 7.5 3.35 7.5 7.5zm-20.75 2.626a2.564 2.564 0 00-3.624-3.625 2.564 2.564 0 00-3.625 3.625L40 17.042l3.625-3.625z" fill="#fff"/><path d="M61.737 30.804c-4.726-1.212-9.213-2.987-13.338-5.012l-5.138-2.5h21.113v8.124a61.969 61.969 0 01-2.637-.612zm-43.474 0c-.875.225-1.75.425-2.638.613V23.29h21.126l-5.138 2.5c-4.137 2.026-8.625 3.8-13.35 5.013z" fill="#DEEEEE"/><path d="M18.125 24.542h-2.5v6.875a64.8 64.8 0 002.5-.58v-6.295z" fill="#F0F4F4"/><path d="M61.886 24.542h2.5v6.875c-.84-.178-1.67-.37-2.5-.58v-6.295zM29.375 53.33v6.624l-1.25-4.163-5 5 .6.962-.025.026-1.825.925c-2.062.924-4.313 1.625-6.25 2.238V31.417a62.293 62.293 0 002.637-.613v2.488c.863 7.987 5.7 15.4 11.113 20.037z" fill="#DEEEEE"/><path d="M64.376 64.942c.925.3 1.787.575 2.5.85 5 1.863 7.5 3.75 7.5 8.75v7.5H47.401l.637-1.25 3.839-7.5-1.25-2.5 5.624-9.013 1.875.926c2.063.924 4.312 1.624 6.25 2.237z" fill="#fff"/><path d="M64.375 31.417v33.525c-1.938-.613-4.187-1.313-6.25-2.237l-1.875-.926.625-.987-5-5-1.25 4.163V53.33c5.425-4.638 10.263-12.05 11.113-20.038v-2.488c.874.225 1.75.425 2.637.613z" fill="#DEEEEE"/><path d="M36.873 33.33v-1.288c0-.688-.562-1.25-1.25-1.25h-8.75c-.687 0-1.25.562-1.25 1.25v2.5c0 .688.563 1.25 1.25 1.25h8.75c.688 0 1.25-.563 1.25-1.25V33.33zm6.25 0v1.212c0 .688.562 1.25 1.25 1.25h8.75c.688 0 1.25-.563 1.25-1.25v-2.5c0-.688-.563-1.25-1.25-1.25h-8.75c-.688 0-1.25.562-1.25 1.25v1.288zm18.614-2.526v2.488c-.851 7.987-5.689 15.4-11.114 20.038-3.613 3.087-7.487 4.962-10.625 4.962-3.137 0-7.012-1.876-10.625-4.962-5.412-4.638-10.25-12.05-11.113-20.038v-2.488c4.726-1.212 9.213-2.987 13.35-5.012l5.138-2.5h6.512l5.138 2.5c4.125 2.025 8.612 3.8 13.338 5.012z" fill="#F0F4F4"/><path d="M20.76 33.292v-3.21c-.828.251-1.655.506-2.5.723v2.487c.863 7.987 5.7 15.4 11.113 20.038 3.613 3.087 7.488 4.962 10.625 4.962a8.87 8.87 0 001.25-.095c-2.884-.412-6.228-2.178-9.375-4.867-5.412-4.638-10.25-12.05-11.112-20.038z" fill="#fff"/><path d="M59.238 33.292v-3.21c.828.251 1.655.506 2.5.723v2.487c-.863 7.987-5.7 15.4-11.113 20.038-3.614 3.087-7.488 4.962-10.625 4.962-.405 0-.823-.035-1.25-.096 2.883-.411 6.228-2.177 9.375-4.866 5.412-4.638 10.25-12.05 11.113-20.038z" fill="#DEEEEE"/><path d="M56.873 60.791l-.625.988-5.625 9.012 1.25 2.5-3.838 7.5-.637 1.25H44.01l4.914-16.412 1.074-3.588.625-2.087 1.25-4.162 5 5z" fill="#fff"/><path d="M50.625 59.954L50 62.041s-3.125 2.5-10 2.5-9.975-2.5-9.975-2.5l-.025.013-.625-2.1V53.33c3.613 3.087 7.487 4.962 10.625 4.962 3.137 0 7.012-1.875 10.625-4.962v6.625z" fill="#F0F4F4"/><path d="M50 62.041l-1.074 3.588c-1.788.737-5.226 1.413-8.926 1.413s-7.138-.675-8.912-1.413h-.013L30 62.054l.025-.013s3.1 2.5 9.975 2.5 10-2.5 10-2.5z" fill="#DEEEEE"/><path d="M48.924 65.63l-4.913 16.412h-8.013l-4.925-16.413h.013c1.775.737 5.212 1.413 8.912 1.413 3.7 0 7.138-.675 8.926-1.413z" fill="#DEEEEE"/><path d="M31.075 65.63L36 82.041h-3.388l-.637-1.25-3.85-7.5 1.25-2.5-5.65-9.038-.6-.962 5-5 1.25 4.162.625 2.1 1.075 3.575z" fill="#fff"/><path d="M31.975 80.792l.637 1.25H5.625v-7.5c0-5 2.5-6.888 7.5-8.75a45.1 45.1 0 012.5-.838v-.012c1.937-.613 4.188-1.313 6.25-2.237l1.825-.926.025-.025 5.65 9.038-1.25 2.5 3.85 7.5z" fill="#fff"/><path d="M36.886 34.542c0 .687-.563 1.25-1.25 1.25h-8.75c-.688 0-1.25-.563-1.25-1.25v-2.5c0-.688.562-1.25 1.25-1.25h8.75c.687 0 1.25.562 1.25 1.25v2.5z" fill="#DEEEEE"/><path d="M28.63 35.792h2.589l1.34-5H29.97l-1.34 5zm3.26 0h.67l1.34-5h-.67l-1.34 5z" fill="#F0F4F4"/><path d="M54.386 34.542c0 .687-.562 1.25-1.25 1.25h-8.75c-.687 0-1.25-.563-1.25-1.25v-2.5c0-.688.563-1.25 1.25-1.25h8.75c.688 0 1.25.562 1.25 1.25v2.5z" fill="#DEEEEE"/><path d="M46.13 35.792h2.588l1.34-5H47.47l-1.34 5zm3.255 0h.67l1.34-5h-.67l-1.34 5z" fill="#F0F4F4"/><path d="M30.025 62.041s.603.485 1.863 1.028v-7.826a28.697 28.697 0 01-2.513-1.913v6.624l.625 2.1.025-.013z" fill="#fff"/><path d="M48.13 63.067c1.264-.542 1.87-1.025 1.87-1.025l.624-2.088V53.33a28.596 28.596 0 01-2.494 1.9v7.837zm16.246-39.776H15.625v1.25h48.75v-1.25z" fill="#DEEEEE"/><path d="M45.833 24.542l-2.57-1.25h-6.512l-2.569 1.25h11.65z" fill="#DEEEEE"/><path d="M35.625 36.417h-8.75A1.877 1.877 0 0125 34.54v-2.5c0-1.033.841-1.874 1.875-1.874h8.75c1.034 0 1.875.84 1.875 1.875v2.5a1.877 1.877 0 01-1.875 1.875zm-8.75-5a.625.625 0 00-.625.625v2.5c0 .345.28.625.625.625h8.75c.345 0 .625-.28.625-.625v-2.5a.625.625 0 00-.625-.625h-8.75z" fill="url(#paint4_linear_14181_2209)"/><path d="M53.125 36.417h-8.75A1.877 1.877 0 0142.5 34.54v-2.5c0-1.033.841-1.874 1.875-1.874h8.75c1.034 0 1.875.84 1.875 1.875v2.5a1.877 1.877 0 01-1.875 1.875zm-8.75-5a.626.626 0 00-.625.625v2.5c0 .345.28.625.625.625h8.75c.344 0 .625-.28.625-.625v-2.5a.626.626 0 00-.625-.625h-8.75z" fill="url(#paint5_linear_14181_2209)"/><path d="M43.126 33.954h-6.25a.625.625 0 110-1.25h6.25a.625.625 0 110 1.25z" fill="url(#paint6_linear_14181_2209)"/><path d="M31.968 81.417a.626.626 0 01-.556-.34l-3.843-7.5a.625.625 0 01-.003-.565l1.093-2.186-6.064-9.702a.626.626 0 01.088-.774l5-5a.625.625 0 11.884.884l-4.649 4.648 5.987 9.578a.628.628 0 01.029.611l-1.108 2.217 3.698 7.218a.627.627 0 01-.556.91z" fill="url(#paint7_linear_14181_2209)"/><path d="M35.625 81.417a.625.625 0 01-.599-.446l-7.5-25a.625.625 0 111.198-.359l7.5 25a.624.624 0 01-.599.805z" fill="url(#paint8_linear_14181_2209)"/><path d="M48.031 81.417a.628.628 0 01-.557-.91l3.7-7.22-1.11-2.216a.628.628 0 01.03-.611l5.987-9.578-4.649-4.648a.625.625 0 11.884-.884l5 5a.628.628 0 01.088.774l-6.065 9.702 1.094 2.186a.627.627 0 01-.002.565l-3.843 7.5a.626.626 0 01-.557.34z" fill="url(#paint9_linear_14181_2209)"/><path d="M44.375 81.417a.623.623 0 01-.598-.805l7.5-25a.622.622 0 01.777-.419c.331.1.52.447.42.778l-7.5 25a.625.625 0 01-.599.446z" fill="url(#paint10_linear_14181_2209)"/><path d="M40 65.167c-7.014 0-10.256-2.53-10.391-2.637a.625.625 0 01.78-.978c.03.023 3.077 2.365 9.61 2.365 6.534 0 9.582-2.341 9.612-2.365a.626.626 0 01.779.978c-.134.108-3.376 2.637-10.39 2.637z" fill="url(#paint11_linear_14181_2209)"/><path d="M40.001 67.667c-3.88 0-7.392-.73-9.15-1.453a.626.626 0 01.476-1.157c1.644.676 4.964 1.36 8.674 1.36 3.721 0 7.044-.683 8.687-1.358a.625.625 0 11.476 1.155c-1.757.723-5.271 1.453-9.163 1.453z" fill="url(#paint12_linear_14181_2209)"/><path d="M40 58.918c-8.563 0-20.944-12.394-22.36-25.56a.625.625 0 111.242-.133c.636 5.911 3.662 12.156 8.304 17.134C31.389 54.866 36.3 57.668 40 57.668a.625.625 0 110 1.25z" fill="url(#paint13_linear_14181_2209)"/><path d="M74.375 82.667H5.625A.625.625 0 015 82.042v-7.5c0-5.364 2.779-7.42 7.906-9.336.804-.3 1.772-.608 2.826-.943 1.858-.59 3.965-1.26 5.89-2.121a.625.625 0 11.51 1.14c-1.99.891-4.132 1.572-6.021 2.173-1.032.327-1.98.627-2.767.923-4.806 1.797-7.094 3.476-7.094 8.164v6.875h67.5v-6.875c0-4.688-2.288-6.367-7.095-8.164-.786-.296-1.733-.596-2.764-.923-1.89-.6-4.032-1.282-6.021-2.173a.625.625 0 11.51-1.14c1.925.862 4.031 1.53 5.89 2.121 1.052.335 2.02.642 2.824.943C72.222 67.122 75 69.178 75 74.542v7.5c0 .345-.28.625-.625.625z" fill="url(#paint14_linear_14181_2209)"/><path d="M15.625 62.667a.625.625 0 01-.625-.625v-36.25a.625.625 0 111.25 0v36.25c0 .345-.28.625-.625.625z" fill="url(#paint15_linear_14181_2209)"/><path d="M15.624 32.042a.625.625 0 01-.125-1.237c5.124-1.058 10.45-2.933 15.829-5.574a.626.626 0 01.55 1.122c-5.473 2.688-10.9 4.598-16.127 5.676a.662.662 0 01-.127.013z" fill="url(#paint16_linear_14181_2209)"/><path d="M40 58.918a.625.625 0 110-1.25c3.701 0 8.611-2.802 12.815-7.309 4.641-4.978 7.666-11.223 8.303-17.135a.615.615 0 01.689-.554c.343.037.59.345.554.689C60.944 46.524 48.562 58.918 40 58.918z" fill="url(#paint17_linear_14181_2209)"/><path d="M64.375 62.667a.625.625 0 01-.625-.625v-36.25a.625.625 0 111.25 0v36.25c0 .345-.28.625-.625.625z" fill="url(#paint18_linear_14181_2209)"/><path d="M64.373 32.042a.654.654 0 01-.127-.013c-5.228-1.08-10.654-2.988-16.125-5.676a.624.624 0 11.55-1.122c5.378 2.64 10.702 4.516 15.83 5.573a.627.627 0 01-.127 1.237z" fill="url(#paint19_linear_14181_2209)"/><path d="M15.625 23.917A.625.625 0 0115 23.29v-12.5a.625.625 0 111.25 0v12.5c0 .346-.28.626-.625.626z" fill="url(#paint20_linear_14181_2209)"/><path d="M56.876 3.917H22.865a.625.625 0 110-1.25h34.01a.625.625 0 110 1.25z" fill="url(#paint21_linear_14181_2209)"/><path d="M64.375 23.917a.625.625 0 01-.625-.626v-12.5a.625.625 0 111.25 0v12.5c0 .346-.28.626-.625.626z" fill="url(#paint22_linear_14181_2209)"/><path d="M64.375 23.917h-48.75a.625.625 0 110-1.25h48.75a.625.625 0 110 1.25z" fill="url(#paint23_linear_14181_2209)"/><path d="M15.625 11.417a.625.625 0 01-.625-.625c0-4.48 3.645-8.125 8.125-8.125a.625.625 0 110 1.25 6.883 6.883 0 00-6.875 6.875c0 .345-.28.625-.625.625z" fill="url(#paint24_linear_14181_2209)"/><path d="M64.375 11.417a.625.625 0 01-.625-.625 6.883 6.883 0 00-6.875-6.875.625.625 0 110-1.25c4.48 0 8.125 3.645 8.125 8.125 0 .345-.28.625-.625.625z" fill="url(#paint25_linear_14181_2209)"/><path d="M39.999 17.667a.626.626 0 01-.442-.183l-3.625-3.625a3.193 3.193 0 010-4.509c1.067-1.067 2.852-1.213 4.067-.37 1.212-.842 3-.697 4.066.37.6.603.933 1.403.933 2.255a3.17 3.17 0 01-.934 2.255l-3.623 3.624a.625.625 0 01-.442.183zm-1.813-8c-.518 0-1.004.2-1.37.567a1.941 1.941 0 000 2.741L40 16.158l3.181-3.183a1.92 1.92 0 00.568-1.37c0-.518-.201-1.005-.568-1.371-.73-.733-2.007-.733-2.74 0a.643.643 0 01-.883 0 1.924 1.924 0 00-1.37-.568z" fill="url(#paint26_linear_14181_2209)"/></g></g><defs><linearGradient id="paint0_linear_14181_2209" x1="6.667" y1="6.667" x2="86.616" y2="32.99" gradientUnits="userSpaceOnUse"><stop stop-color="#ECF6F5"/><stop offset="1" stop-color="#FBF6F9"/></linearGradient><linearGradient id="paint1_linear_14181_2209" x1="6.667" y1="6.667" x2="86.616" y2="32.99" gradientUnits="userSpaceOnUse"><stop stop-color="#F6F6FB"/><stop offset="1" stop-color="#FEF3F9"/></linearGradient><linearGradient id="paint2_linear_14181_2209" x1="6.667" y1="9.333" x2="86.616" y2="35.657" gradientUnits="userSpaceOnUse"><stop stop-color="#ECF6F5"/><stop offset="1" stop-color="#FBF6F9"/></linearGradient><linearGradient id="paint3_linear_14181_2209" x1="6.667" y1="9.333" x2="86.616" y2="35.657" gradientUnits="userSpaceOnUse"><stop stop-color="#F6F6FB"/><stop offset="1" stop-color="#FEF3F9"/></linearGradient><linearGradient id="paint4_linear_14181_2209" x1="22.852" y1="31.593" x2="46.464" y2="17.572" gradientUnits="userSpaceOnUse"><stop stop-color="#46A29F"/><stop offset="1" stop-color="#4660A2"/></linearGradient><linearGradient id="paint5_linear_14181_2209" x1="40.352" y1="31.593" x2="63.964" y2="17.572" gradientUnits="userSpaceOnUse"><stop stop-color="#46A29F"/><stop offset="1" stop-color="#4660A2"/></linearGradient><linearGradient id="paint6_linear_14181_2209" x1="34.961" y1="32.99" x2="39.552" y2="24.81" gradientUnits="userSpaceOnUse"><stop stop-color="#46A29F"/><stop offset="1" stop-color="#4660A2"/></linearGradient><linearGradient id="paint7_linear_14181_2209" x1="20.766" y1="61.159" x2="46.221" y2="58.253" gradientUnits="userSpaceOnUse"><stop stop-color="#46A29F"/><stop offset="1" stop-color="#4660A2"/></linearGradient><linearGradient id="paint8_linear_14181_2209" x1="25.996" y1="61.159" x2="48.137" y2="58.968" gradientUnits="userSpaceOnUse"><stop stop-color="#46A29F"/><stop offset="1" stop-color="#4660A2"/></linearGradient><linearGradient id="paint9_linear_14181_2209" x1="45.672" y1="61.159" x2="71.127" y2="58.253" gradientUnits="userSpaceOnUse"><stop stop-color="#46A29F"/><stop offset="1" stop-color="#4660A2"/></linearGradient><linearGradient id="paint10_linear_14181_2209" x1="42.246" y1="61.159" x2="64.387" y2="58.968" gradientUnits="userSpaceOnUse"><stop stop-color="#46A29F"/><stop offset="1" stop-color="#4660A2"/></linearGradient><linearGradient id="paint11_linear_14181_2209" x1="25.724" y1="62.274" x2="39.89" y2="38.432" gradientUnits="userSpaceOnUse"><stop stop-color="#46A29F"/><stop offset="1" stop-color="#4660A2"/></linearGradient><linearGradient id="paint12_linear_14181_2209" x1="27.184" y1="65.617" x2="35.967" y2="46.876" gradientUnits="userSpaceOnUse"><stop stop-color="#46A29F"/><stop offset="1" stop-color="#4660A2"/></linearGradient><linearGradient id="paint13_linear_14181_2209" x1="13.685" y1="38.66" x2="68.705" y2="24.353" gradientUnits="userSpaceOnUse"><stop stop-color="#46A29F"/><stop offset="1" stop-color="#4660A2"/></linearGradient><linearGradient id="paint14_linear_14181_2209" x1="-7.029" y1="66.785" x2="81.515" y2="-22.638" gradientUnits="userSpaceOnUse"><stop stop-color="#46A29F"/><stop offset="1" stop-color="#4660A2"/></linearGradient><linearGradient id="paint15_linear_14181_2209" x1="14.785" y1="33.727" x2="17.979" y2="33.695" gradientUnits="userSpaceOnUse"><stop stop-color="#46A29F"/><stop offset="1" stop-color="#4660A2"/></linearGradient><linearGradient id="paint16_linear_14181_2209" x1="12.04" y1="26.737" x2="40.371" y2="5.655" gradientUnits="userSpaceOnUse"><stop stop-color="#46A29F"/><stop offset="1" stop-color="#4660A2"/></linearGradient><linearGradient id="paint17_linear_14181_2209" x1="35.425" y1="38.659" x2="90.444" y2="24.353" gradientUnits="userSpaceOnUse"><stop stop-color="#46A29F"/><stop offset="1" stop-color="#4660A2"/></linearGradient><linearGradient id="paint18_linear_14181_2209" x1="63.535" y1="33.727" x2="66.729" y2="33.695" gradientUnits="userSpaceOnUse"><stop stop-color="#46A29F"/><stop offset="1" stop-color="#4660A2"/></linearGradient><linearGradient id="paint19_linear_14181_2209" x1="44.81" y1="26.736" x2="73.146" y2="5.655" gradientUnits="userSpaceOnUse"><stop stop-color="#46A29F"/><stop offset="1" stop-color="#4660A2"/></linearGradient><linearGradient id="paint20_linear_14181_2209" x1="14.785" y1="13.305" x2="17.977" y2="13.219" gradientUnits="userSpaceOnUse"><stop stop-color="#46A29F"/><stop offset="1" stop-color="#4660A2"/></linearGradient><linearGradient id="paint21_linear_14181_2209" x1="16.18" y1="2.952" x2="17.446" y2="-7.653" gradientUnits="userSpaceOnUse"><stop stop-color="#46A29F"/><stop offset="1" stop-color="#4660A2"/></linearGradient><linearGradient id="paint22_linear_14181_2209" x1="63.535" y1="13.305" x2="66.727" y2="13.219" gradientUnits="userSpaceOnUse"><stop stop-color="#46A29F"/><stop offset="1" stop-color="#4660A2"/></linearGradient><linearGradient id="paint23_linear_14181_2209" x1="6.408" y1="22.952" x2="7.308" y2="12.27" gradientUnits="userSpaceOnUse"><stop stop-color="#46A29F"/><stop offset="1" stop-color="#4660A2"/></linearGradient><linearGradient id="paint24_linear_14181_2209" x1="13.496" y1="4.664" x2="34.042" y2="-1.436" gradientUnits="userSpaceOnUse"><stop stop-color="#46A29F"/><stop offset="1" stop-color="#4660A2"/></linearGradient><linearGradient id="paint25_linear_14181_2209" x1="54.746" y1="4.664" x2="75.292" y2="-1.436" gradientUnits="userSpaceOnUse"><stop stop-color="#46A29F"/><stop offset="1" stop-color="#4660A2"/></linearGradient><linearGradient id="paint26_linear_14181_2209" x1="33.282" y1="10.543" x2="56.433" y2="3.098" gradientUnits="userSpaceOnUse"><stop stop-color="#46A29F"/><stop offset="1" stop-color="#4660A2"/></linearGradient><clipPath id="clip0_14181_2209"><path fill="#fff" d="M0 0h80v80H0z"/></clipPath><clipPath id="clip1_14181_2209"><path fill="#fff" transform="translate(0 2.667)" d="M0 0h80v80H0z"/></clipPath></defs></svg>