<svg width="60" height="60" fill="none" xmlns="http://www.w3.org/2000/svg"><path d="M55 30.32c0 5.867-10.402 9.276-12.053 15.491C41.297 52.026 38.138 55 30.4 55c-6.306 0-3.633-4.472-16.412-6.294C1.21 46.884 4.647 39.39 8.614 32.52c4.511-8.544 6.604-12.795 9.859-18.432 3.254-5.637 4.535-8.447 11.927-8.447 6.195 0 14.364-3.557 16.18 6.089C48.396 21.376 55 22.905 55 30.32z" fill="url(#paint0_linear)"/><path d="M55 30.32c0 5.867-10.402 9.276-12.053 15.491C41.297 52.026 38.138 55 30.4 55c-6.306 0-3.633-4.472-16.412-6.294C1.21 46.884 4.647 39.39 8.614 32.52c4.511-8.544 6.604-12.795 9.859-18.432 3.254-5.637 4.535-8.447 11.927-8.447 6.195 0 14.364-3.557 16.18 6.089C48.396 21.376 55 22.905 55 30.32z" fill="url(#paint1_linear)"/><g clip-path="url(#clip0)"><path d="M34.218 14.69h-7.5v12.458h7.5V14.691z" fill="#DEEEEE"/><path d="M37.969 27.656l3.102 5.625c.457 1.846-1.227 1.875-1.227 1.875l-7.94-8.056 2.315-4.131 3.75 4.687zm-.938 14.784l-14.062 7.21v5.996H37.03V42.44z" fill="#DEEEEE"/><path d="M24.844 49.65h-1.875v5.995h1.875V49.65z" fill="#F0F4F4"/><path d="M25.235 20.625l-2.344 2.812-3.672-14.53 1.012-.938 5.004 12.656z" fill="#DEEEEE"/><path d="M20.17 8.025l-.951.881 3.672 14.531.9-1.08-3.62-14.332z" fill="#F0F4F4"/><path d="M22.031 55.781H37.97l.937 1.875H21.094l.937-1.875z" fill="#DEEEEE"/><path d="M22.031 55.781l-.937 1.875h1.875l.937-1.875h-1.875zM19.687.469c.779 0 1.407 1.565 1.407 2.343 0 .779-.628 1.407-1.407 1.407a1.404 1.404 0 01-1.406-1.407c0-.778.628-2.343 1.406-2.343z" fill="#F0F4F4"/><path d="M19.219 2.812c0-.613.391-1.702.937-2.143-.147-.119-.303-.2-.469-.2-.778 0-1.406 1.565-1.406 2.343 0 .779.628 1.407 1.406 1.407.166 0 .322-.034.47-.086a1.4 1.4 0 01-.938-1.32z" fill="#fff"/><path d="M20.156 2.812c0-.613-.392-1.702-.937-2.143.147-.119.303-.2.468-.2.779 0 1.407 1.565 1.407 2.343 0 .779-.628 1.407-1.407 1.407-.165 0-.321-.034-.468-.086a1.4 1.4 0 00.937-1.32zm-2.812 2.344h4.687l-.937 1.875H18.28l-.937-1.875z" fill="#DEEEEE"/><path d="M17.344 5.156l.937 1.875h.938l-.938-1.875h-.937z" fill="#F0F4F4"/><path d="M22.031 5.156l-.937 1.875h-.938l.938-1.875h.937z" fill="#5C9EFF"/><path d="M34.078 13.594a3.42 3.42 0 00-.357-.938c-.646-1.172-1.864-1.875-3.252-1.875-1.388 0-2.607.703-3.253 1.875-.16.281-.281.6-.367.938-.084.347-.13.712-.13 1.097 0 2.362 2.325 4.528 3.75 4.528 1.424 0 3.75-2.166 3.75-4.529 0-.384-.047-.759-.142-1.096z" fill="#DEEEEE"/><path d="M28.594 14.69c0-.384.046-.75.13-1.096.086-.338.207-.657.367-.938a3.59 3.59 0 012.315-1.76 3.929 3.929 0 00-.938-.115c-1.387 0-2.606.703-3.252 1.875-.16.281-.281.6-.367.938a4.64 4.64 0 00-.13 1.096c0 2.363 2.325 4.529 3.75 4.529.284 0 .606-.09.937-.248-1.325-.63-2.812-2.39-2.812-4.28z" fill="#F0F4F4"/><path d="M23.409 27.553l-2.315-3.647 3.75-5.625c9.965 5.39 11.09 10.65 11.09 10.65s.881 6.769 2.09 13.725c0 0-2.306 1.125-4.743 2.381-2.728 1.397-5.625 2.944-5.625 3.235v.01c.141.486.938.937.938.937L22.03 52.03l.938-15.937.44-8.54z" fill="#DEEEEE"/><path d="M22.031 52.031l1.924-.824.889-15.113.44-8.54-3.216-5.109-.974 1.461 2.315 3.647-.44 8.54-.938 15.938z" fill="#F0F4F4"/><path d="M37.023 36.513l-.625-4.215 3.446-4.642 2.812.938-5.633 7.919zm2.82 21.144H20.156v1.875h19.687v-1.875z" fill="#DEEEEE"/><path d="M22.031 57.657h-1.875v1.875h1.875v-1.875z" fill="#F0F4F4"/><path d="M30.469 19.687c-1.628 0-4.22-2.287-4.22-4.997 0-.406.05-.813.145-1.207.1-.393.239-.748.415-1.058.727-1.321 2.097-2.113 3.66-2.113 1.563 0 2.932.792 3.663 2.118.181.32.318.679.404 1.062.098.351.151.763.151 1.198 0 2.71-2.59 4.997-4.218 4.997zm0-8.437c-1.216 0-2.279.61-2.843 1.633a3.339 3.339 0 00-.322.826 4.173 4.173 0 00-.117.981c0 2.18 2.201 4.06 3.282 4.06 1.08 0 3.281-1.88 3.281-4.06 0-.345-.043-.68-.124-.97a3.07 3.07 0 00-.312-.833c-.567-1.027-1.63-1.637-2.845-1.637zM19.688 4.687a1.877 1.877 0 01-1.875-1.875c0-.965.73-2.812 1.875-2.812 1.144 0 1.874 1.847 1.874 2.812a1.877 1.877 0 01-1.875 1.875zm0-3.75c-.351 0-.938 1.175-.938 1.875a.938.938 0 001.875 0c0-.7-.587-1.875-.938-1.875zm2.343 4.688h-4.687a.469.469 0 110-.938h4.687a.469.469 0 110 .938z" fill="#46A29F"/><path d="M18.281 7.5a.47.47 0 01-.42-.26l-.937-1.874a.47.47 0 01.839-.42l.938 1.875a.47.47 0 01-.42.679z" fill="#46A29F"/><path d="M21.094 7.5H18.28a.469.469 0 110-.938h2.813a.469.469 0 110 .938z" fill="#46A29F"/><path d="M21.094 7.5a.47.47 0 01-.42-.678l.938-1.876a.47.47 0 01.839.42l-.938 1.875a.469.469 0 01-.42.259zm.937 13.125a.469.469 0 01-.455-.355L18.764 9.02a.47.47 0 01.136-.458l1.013-.937a.469.469 0 01.755.172l3.675 9.375a.47.47 0 01-.874.343l-3.424-8.736-.305.283 2.746 10.98a.469.469 0 01-.455.583zm5.625 28.115a.469.469 0 01-.469-.468c0-.386 0-.642 5.88-3.652 1.9-.979 3.722-1.88 4.435-2.23-1.166-6.766-2.024-13.332-2.033-13.399-.005-.01-1.241-5.1-10.849-10.297a.469.469 0 01.447-.825c10.04 5.431 11.277 10.74 11.326 10.964.014.105.9 6.877 2.093 13.743a.47.47 0 01-.256.501c-.002.001-2.303 1.125-4.734 2.377-4.292 2.197-5.221 2.834-5.415 3.015a.468.468 0 01-.425.272z" fill="#46A29F"/><path d="M22.031 52.5a.47.47 0 01-.468-.496l.938-15.938.432-8.388-2.235-3.52a.47.47 0 01.006-.512l3.75-5.625a.47.47 0 01.78.52l-3.58 5.372 2.15 3.389a.465.465 0 01.073.275l-.44 8.54-.893 15.184 5.12-2.194c-.2-.194-.382-.432-.458-.696a.469.469 0 11.9-.26c.057.196.461.514.718.66a.47.47 0 01-.046.838l-6.562 2.812a.465.465 0 01-.185.039zm8.438-41.25a.469.469 0 01-.47-.469v-3.75a.468.468 0 11.938 0v3.75c0 .26-.21.469-.468.469zm1.875.478a.47.47 0 01-.302-.828l2.813-2.353a.468.468 0 11.602.719l-2.812 2.352a.468.468 0 01-.301.11zm-5.494 2.334a.468.468 0 01-.222-.881c.075-.04 1.87-.993 3.84-.993 1.972 0 3.75.954 3.825.994a.469.469 0 01-.448.824c-.016-.009-1.649-.881-3.376-.881-1.737 0-3.381.873-3.398.882a.466.466 0 01-.221.055z" fill="#46A29F"/><path d="M36.094 13.125H33.72a.469.469 0 110-.938h2.373a.468.468 0 110 .938zm-7.5-1.397a.467.467 0 01-.302-.11L25.48 9.266a.47.47 0 01.602-.72l2.813 2.354a.47.47 0 01-.301.828zm-1.378 1.397h-2.372a.469.469 0 110-.938h2.372a.469.469 0 110 .938zm7.003 8.437a.468.468 0 01-.469-.468V14.69a.468.468 0 11.938 0v6.404c0 .259-.21.468-.47.468zm3.515 9.375a.47.47 0 01-.375-.75l2.11-2.812a.47.47 0 01.75.562l-2.11 2.813a.469.469 0 01-.375.187z" fill="#46A29F"/><path d="M42.656 29.062a.466.466 0 01-.148-.024l-2.813-.937a.469.469 0 11.297-.89l2.812.938a.469.469 0 01-.148.913z" fill="#46A29F"/><path d="M37.969 35.625a.468.468 0 01-.382-.742l4.687-6.562a.47.47 0 01.764.545l-4.688 6.563a.469.469 0 01-.381.196zm1.875 0a.468.468 0 110-.938c.002 0 .543-.012.725-.371.232-.465.082-.826.076-.84a.474.474 0 01.235-.618.463.463 0 01.614.222c.038.078.35.784-.088 1.658-.355.7-1.15.887-1.562.887zm-1.876-7.5a.468.468 0 01-.366-.176l-3.75-4.687a.47.47 0 01.733-.586l3.75 4.687a.47.47 0 01-.367.762zm-14.559-.103a.468.468 0 01-.182-.9c.033-.016.967-.468 2.149-2.513a.47.47 0 01.81.469c-1.363 2.36-2.48 2.86-2.602 2.91a.472.472 0 01-.175.034zm14.56 28.228H22.03a.468.468 0 110-.938h15.94a.469.469 0 110 .938z" fill="#46A29F"/><path d="M21.094 58.125a.469.469 0 01-.42-.678l.938-1.876a.469.469 0 01.839.42l-.938 1.875a.47.47 0 01-.42.259z" fill="#46A29F"/><path d="M39.844 58.125H20.156a.468.468 0 110-.938h19.688a.469.469 0 110 .938z" fill="#46A29F"/><path d="M38.906 58.125a.47.47 0 01-.42-.26l-.937-1.874a.469.469 0 01.839-.42l.937 1.876a.469.469 0 01-.419.678zM24.844 40.312a.469.469 0 01-.233-.875c6.24-3.566 6.326-10.771 6.326-10.844a.47.47 0 01.938 0c0 .318-.077 7.817-6.799 11.657a.465.465 0 01-.232.062zm12.187 15a.468.468 0 01-.469-.468V44.098a.468.468 0 11.938 0v10.746c0 .259-.21.468-.469.468zm-2.812 0a.468.468 0 01-.469-.468v-9.35a.469.469 0 01.938 0v9.35c0 .259-.21.468-.47.468zm-2.813 0a.469.469 0 01-.469-.468v-7.897a.469.469 0 11.938 0v7.897c0 .259-.21.468-.469.468zm-2.812 0a.469.469 0 01-.47-.468v-4.688a.468.468 0 11.938 0v4.688c0 .259-.21.468-.468.468zm-2.813 0a.468.468 0 01-.469-.468v-3.43a.469.469 0 11.938 0v3.43c0 .259-.21.468-.469.468zm-2.812 0a.469.469 0 01-.47-.468V52.61a.47.47 0 01.939 0v2.234c0 .259-.21.468-.47.468zm4.687-6.567a.465.465 0 01-.469-.464v-2.813a.468.468 0 11.938 0v2.804c0 .259-.21.473-.469.473zm4.687-27.183a.468.468 0 01-.468-.468v-.938a.469.469 0 11.937 0v.938c0 .259-.21.468-.468.468zm.938 23.944a.468.468 0 01-.469-.469v-5.193a.469.469 0 11.938 0v5.193c0 .26-.21.47-.469.47zM20.156 60a.469.469 0 01-.469-.469v-1.875a.469.469 0 11.938 0v1.875c0 .26-.21.469-.469.469z" fill="#46A29F"/><path d="M39.844 60a.468.468 0 01-.47-.469v-1.875a.468.468 0 11.938 0v1.875c0 .26-.21.469-.468.469z" fill="#46A29F"/></g><defs><linearGradient id="paint0_linear" x1="5" y1="5" x2="64.962" y2="24.742" gradientUnits="userSpaceOnUse"><stop stop-color="#ECF6F5"/><stop offset="1" stop-color="#FBF6F9"/></linearGradient><linearGradient id="paint1_linear" x1="5" y1="5" x2="64.962" y2="24.742" gradientUnits="userSpaceOnUse"><stop stop-color="#F6F6FB"/><stop offset="1" stop-color="#FEF3F9"/></linearGradient><clipPath id="clip0"><path fill="#fff" d="M0 0h60v60H0z"/></clipPath></defs></svg>