<svg width="80" height="80" fill="none" xmlns="http://www.w3.org/2000/svg"><g clip-path="url(#clip0_14181_2098)"><path opacity=".4" d="M82.667 34.672c0 7.57-13.869 11.968-16.07 19.988-2.202 8.019-6.413 11.856-16.73 11.856-8.409 0-4.844-5.77-21.882-8.121-17.04-2.351-12.456-12.02-7.167-20.885C26.834 26.485 29.624 21 33.964 13.727c4.34-7.274 6.047-10.9 15.902-10.9 8.26 0 19.152-4.59 21.574 7.857 2.421 12.447 11.227 14.42 11.227 23.988z" fill="url(#paint0_linear_14181_2098)"/><path opacity=".76" d="M7 64V18a2 2 0 012-2h61a2 2 0 012 2v46a2 2 0 01-2 2H9a2 2 0 01-2-2z" fill="#DEEEEE"/><path d="M4 24.5h71" stroke="url(#paint1_linear_14181_2098)" stroke-width="2"/><path d="M75 49V15a4 4 0 00-4-4H8a4 4 0 00-4 4v50a4 4 0 004 4h38" stroke="url(#paint2_linear_14181_2098)" stroke-width="2" stroke-linecap="round"/><rect x="18" y="5" width="7" height="15" rx="3.5" stroke="url(#paint3_linear_14181_2098)" stroke-width="2"/><rect x="37" y="5" width="7" height="15" rx="3.5" stroke="url(#paint4_linear_14181_2098)" stroke-width="2"/><rect x="56" y="5" width="7" height="15" rx="3.5" stroke="url(#paint5_linear_14181_2098)" stroke-width="2"/><circle cx="61" cy="60" r="11" fill="#E1ECED"/><circle cx="61" cy="60" r="14" stroke="url(#paint6_linear_14181_2098)" stroke-width="2"/><rect x="13" y="34" width="8" height="7" rx="1" stroke="url(#paint7_linear_14181_2098)" stroke-width="2"/><rect x="13" y="45" width="8" height="7" rx="1" stroke="url(#paint8_linear_14181_2098)" stroke-width="2"/><rect x="13" y="56" width="8" height="7" rx="1" stroke="url(#paint9_linear_14181_2098)" stroke-width="2"/><rect x="28" y="34" width="8" height="7" rx="1" stroke="url(#paint10_linear_14181_2098)" stroke-width="2"/><rect x="28" y="45" width="8" height="7" rx="1" stroke="url(#paint11_linear_14181_2098)" stroke-width="2"/><path d="M50 46h-6v5h3v2h-3a2 2 0 01-2-2v-5a2 2 0 012-2h6a2 2 0 012 2v1h-2v-1z" fill="url(#paint12_linear_14181_2098)"/><rect x="28" y="56" width="8" height="7" rx="1" stroke="url(#paint13_linear_14181_2098)" stroke-width="2"/><rect x="43" y="34" width="8" height="7" rx="1" stroke="url(#paint14_linear_14181_2098)" stroke-width="2"/><rect x="58" y="34" width="8" height="7" rx="1" stroke="url(#paint15_linear_14181_2098)" stroke-width="2"/><path d="M67.392 54.332l-9.203 9.204-4.184-4.184a1.183 1.183 0 00-1.673 1.673l5.02 5.021a1.183 1.183 0 001.673 0l10.04-10.04a1.184 1.184 0 00-1.672-1.674z" fill="url(#paint16_linear_14181_2098)"/></g><defs><linearGradient id="paint0_linear_14181_2098" x1="16" y1="2" x2="95.423" y2="29.022" gradientUnits="userSpaceOnUse"><stop stop-color="#F6F6FB"/><stop offset="1" stop-color="#FEF3F9"/></linearGradient><linearGradient id="paint1_linear_14181_2098" x1="-8.201" y1="24.728" x2="-7.793" y2="16.142" gradientUnits="userSpaceOnUse"><stop stop-color="#46A29F"/><stop offset="1" stop-color="#4660A2"/></linearGradient><linearGradient id="paint2_linear_14181_2098" x1="-8.201" y1="24.24" x2="152.04" y2="-34.002" gradientUnits="userSpaceOnUse"><stop stop-color="#46A29F"/><stop offset="1" stop-color="#4660A2"/></linearGradient><linearGradient id="paint3_linear_14181_2098" x1="15.453" y1="7.881" x2="37.895" y2="4.353" gradientUnits="userSpaceOnUse"><stop stop-color="#46A29F"/><stop offset="1" stop-color="#4660A2"/></linearGradient><linearGradient id="paint4_linear_14181_2098" x1="34.453" y1="7.881" x2="56.895" y2="4.353" gradientUnits="userSpaceOnUse"><stop stop-color="#46A29F"/><stop offset="1" stop-color="#4660A2"/></linearGradient><linearGradient id="paint5_linear_14181_2098" x1="53.453" y1="7.881" x2="75.894" y2="4.353" gradientUnits="userSpaceOnUse"><stop stop-color="#46A29F"/><stop offset="1" stop-color="#4660A2"/></linearGradient><linearGradient id="paint6_linear_14181_2098" x1="40.845" y1="51.848" x2="111.287" y2="30.933" gradientUnits="userSpaceOnUse"><stop stop-color="#46A29F"/><stop offset="1" stop-color="#4660A2"/></linearGradient><linearGradient id="paint7_linear_14181_2098" x1="10.282" y1="35.054" x2="33.324" y2="27.453" gradientUnits="userSpaceOnUse"><stop stop-color="#46A29F"/><stop offset="1" stop-color="#4660A2"/></linearGradient><linearGradient id="paint8_linear_14181_2098" x1="10.282" y1="46.054" x2="33.324" y2="38.453" gradientUnits="userSpaceOnUse"><stop stop-color="#46A29F"/><stop offset="1" stop-color="#4660A2"/></linearGradient><linearGradient id="paint9_linear_14181_2098" x1="10.282" y1="57.054" x2="33.324" y2="49.453" gradientUnits="userSpaceOnUse"><stop stop-color="#46A29F"/><stop offset="1" stop-color="#4660A2"/></linearGradient><linearGradient id="paint10_linear_14181_2098" x1="25.282" y1="35.054" x2="48.324" y2="27.453" gradientUnits="userSpaceOnUse"><stop stop-color="#46A29F"/><stop offset="1" stop-color="#4660A2"/></linearGradient><linearGradient id="paint11_linear_14181_2098" x1="25.282" y1="46.054" x2="48.324" y2="38.453" gradientUnits="userSpaceOnUse"><stop stop-color="#46A29F"/><stop offset="1" stop-color="#4660A2"/></linearGradient><linearGradient id="paint12_linear_14181_2098" x1="40.282" y1="46.054" x2="63.324" y2="38.453" gradientUnits="userSpaceOnUse"><stop stop-color="#46A29F"/><stop offset="1" stop-color="#4660A2"/></linearGradient><linearGradient id="paint13_linear_14181_2098" x1="25.282" y1="57.054" x2="48.324" y2="49.453" gradientUnits="userSpaceOnUse"><stop stop-color="#46A29F"/><stop offset="1" stop-color="#4660A2"/></linearGradient><linearGradient id="paint14_linear_14181_2098" x1="40.282" y1="35.054" x2="63.324" y2="27.453" gradientUnits="userSpaceOnUse"><stop stop-color="#46A29F"/><stop offset="1" stop-color="#4660A2"/></linearGradient><linearGradient id="paint15_linear_14181_2098" x1="55.282" y1="35.054" x2="78.324" y2="27.453" gradientUnits="userSpaceOnUse"><stop stop-color="#46A29F"/><stop offset="1" stop-color="#4660A2"/></linearGradient><linearGradient id="paint16_linear_14181_2098" x1="49.01" y1="56.829" x2="86.882" y2="41.042" gradientUnits="userSpaceOnUse"><stop stop-color="#46A29F"/><stop offset="1" stop-color="#4660A2"/></linearGradient><clipPath id="clip0_14181_2098"><path fill="#fff" d="M0 0h80v80H0z"/></clipPath></defs></svg>