<svg width="80" height="80" fill="none" xmlns="http://www.w3.org/2000/svg"><g clip-path="url(#clip0_14181_2155)"><path fill="#E5F0F2" d="M47 41h5v15h-5z"/><path fill="#DEEEEE" d="M53 39h12v19H53z"/><path opacity=".4" d="M79 33.93c0 7.86-14.354 12.429-16.633 20.757C60.09 63.015 55.731 67 45.052 67c-8.703 0-5.013-5.993-22.648-8.434-17.635-2.442-12.891-12.483-7.417-21.689 6.226-11.45 9.114-17.145 13.606-24.699C33.084 4.625 34.85.858 45.052.858c8.549 0 19.822-4.766 22.328 8.16C69.887 21.944 79 23.993 79 33.93z" fill="url(#paint0_linear_14181_2155)"/><path d="M62.333 44h-4c-.737 0-1.333.263-1.333 1s.596 1 1.333 1h4c.738 0 1.667-.263 1.667-1s-.93-1-1.667-1z" fill="url(#paint1_linear_14181_2155)"/><path fill-rule="evenodd" clip-rule="evenodd" d="M21.222 26.43c-.605.454-.937 1.046-.937 1.66 0 .614.332 1.206.937 1.66.606.455 1.464.75 2.433.75a.469.469 0 110 .938c-1.151 0-2.213-.35-2.995-.938-.784-.587-1.312-1.434-1.312-2.41 0-.974.528-1.823 1.312-2.41.784-.587 1.844-.937 2.995-.937 1.797 0 3.418.862 4.043 2.188a.469.469 0 01-.848.4c-.428-.91-1.65-1.65-3.195-1.65-.969 0-1.827.295-2.433.75z" fill="url(#paint2_linear_14181_2155)"/><path fill-rule="evenodd" clip-rule="evenodd" d="M25.778 35.506c.605-.453.936-1.046.936-1.659 0-.614-.33-1.206-.937-1.66-.606-.455-1.464-.75-2.431-.75a.469.469 0 110-.938c1.15 0 2.212.35 2.994.938.783.587 1.311 1.434 1.311 2.41 0 .974-.528 1.822-1.312 2.41-.782.587-1.842.937-2.993.937-1.798 0-3.419-.862-4.044-2.188a.469.469 0 11.848-.4c.429.91 1.65 1.65 3.196 1.65.967 0 1.825-.295 2.432-.75zM23.006 22.4a.469.469 0 01.469.469v1.874a.469.469 0 01-.937 0V22.87a.469.469 0 01.468-.469z" fill="url(#paint3_linear_14181_2155)"/><path fill-rule="evenodd" clip-rule="evenodd" d="M23.006 36.46a.469.469 0 01.468.468v1.875a.469.469 0 01-.937 0v-1.875a.469.469 0 01.469-.468z" fill="url(#paint4_linear_14181_2155)"/><circle cx="23.5" cy="30.5" r="12.886" stroke="url(#paint5_linear_14181_2155)" stroke-width="1.227"/><path d="M10.55 43.378l15.979 5.054c.332-.459.998-1.562.998-2.297 0-.735 6.99-3.063 10.486-4.135L47 44.297l-.5 12.865L37.015 59 19.04 55.324c-3.495-2.297-10.585-7.167-10.985-8.27-.399-1.103 1.498-2.91 2.497-3.676z" fill="#F6FBFA"/><path d="M65.993 38h-11.07c-1.31 0-2.416.844-2.833 2.013h-5.037c-.545 0-.982.433-1 .974l-8.396-1.905a3.064 3.064 0 00-1.813.14l-7.88 3.126c-1.017.404-1.74 1.728-2.047 2.718l-15.52-4.802c-.939-.273-1.488-.204-2.265.377C7.378 41.208 7 42.352 7 43.284v1.887c0 .998.284 1.338 1.132 1.887l11.025 7.715a.99.99 0 00.323.135l16.643 3.801a3.045 3.045 0 001.375 0l8.76-2.01c.182.25.463.421.796.421h5.037a3.015 3.015 0 002.834 2.013h11.069c.556 0 1.006-.45 1.006-1.006v-19.12A1.007 1.007 0 0065.993 38zM45.868 55.358l-8.68 1.887a2.636 2.636 0 01-.754 0L19.83 53.472 8.887 45.925c-.273-.178-.755-.442-.755-.755v-2.642c0-.398.236-.649.377-.754.266-.199 1.186-.098 1.51 0l15.898 4.898c.469 1.387 1.81 2.397 3.387 2.397h7.507c.555 0 1.132.053 1.132-.503s-.199-.755-.754-.755h-8.262c-.855 0-1.927-1.078-1.927-1.886 0-.598.552-2.034 1.132-2.265l8.302-3.396c.2-.08.923-.047 1.132 0l8.486 1.887-.184 13.207zm6.038.378h-4.529v-14.34l4.528-.07v14.41zm13.207 1.887H54.547c-.555 0-1.132-.954-1.132-1.51V41.02c0-.556.577-1.51 1.132-1.51h10.566v18.114z" fill="url(#paint6_linear_14181_2155)"/><path d="M53.818 7.443a.815.815 0 00-.405-1.103 38.62 38.62 0 00-24.424-2.13C20.55 6.24 13.073 11.05 7.802 17.84 2.53 24.628-.218 32.987.014 41.526c.224 8.267 3.23 16.22 8.531 22.618a.822.822 0 001.163.1c.358-.3.4-.835.103-1.196-5.042-6.107-7.9-13.687-8.113-21.566-.222-8.16 2.405-16.15 7.443-22.638C14.179 12.356 21.325 7.76 29.389 5.82a36.908 36.908 0 0123.328 2.028.846.846 0 001.101-.405z" fill="url(#paint7_linear_14181_2155)"/><path d="M50.308.839l3.51 6.903" stroke="url(#paint8_linear_14181_2155)" stroke-width="1.5" stroke-linecap="round"/><path d="M45.56 9.475l7.71-1.447" stroke="url(#paint9_linear_14181_2155)" stroke-width="1.5" stroke-linecap="round"/><path d="M24.996 71.895a.748.748 0 00.397 1 38.625 38.625 0 0024.54 1.53c8.38-2.246 15.728-7.245 20.818-14.167 5.09-6.922 7.616-15.35 7.158-23.88-.445-8.281-3.676-16.175-9.175-22.445a.753.753 0 00-1.064-.063.777.777 0 00-.065 1.094c5.254 6.009 8.34 13.566 8.766 21.494.44 8.185-1.984 16.27-6.868 22.913-4.884 6.641-11.933 11.438-19.975 13.593A37.062 37.062 0 0125.992 71.5a.771.771 0 00-.996.395z" fill="url(#paint10_linear_14181_2155)"/><path d="M28.71 78.34l-3.692-6.81" stroke="url(#paint11_linear_14181_2155)" stroke-width="1.5" stroke-linecap="round"/><path d="M33.227 69.586l-7.669 1.644" stroke="url(#paint12_linear_14181_2155)" stroke-width="1.5" stroke-linecap="round"/></g><defs><linearGradient id="paint0_linear_14181_2155" x1="10" y1="0" x2="92.26" y2="27.893" gradientUnits="userSpaceOnUse"><stop stop-color="#FEF8FC"/><stop offset="1" stop-color="#EBF0F6"/></linearGradient><linearGradient id="paint1_linear_14181_2155" x1="55.797" y1="44.457" x2="64.396" y2="35.52" gradientUnits="userSpaceOnUse"><stop stop-color="#46A29F"/><stop offset="1" stop-color="#4660A2"/></linearGradient><linearGradient id="paint2_linear_14181_2155" x1="17.905" y1="26.271" x2="36.743" y2="19.257" gradientUnits="userSpaceOnUse"><stop stop-color="#46A29F"/><stop offset="1" stop-color="#4660A2"/></linearGradient><linearGradient id="paint3_linear_14181_2155" x1="17.815" y1="25.777" x2="38.671" y2="22.263" gradientUnits="userSpaceOnUse"><stop stop-color="#46A29F"/><stop offset="1" stop-color="#4660A2"/></linearGradient><linearGradient id="paint4_linear_14181_2155" x1="22.376" y1="37.102" x2="24.748" y2="36.867" gradientUnits="userSpaceOnUse"><stop stop-color="#46A29F"/><stop offset="1" stop-color="#4660A2"/></linearGradient><linearGradient id="paint5_linear_14181_2155" x1="5.36" y1="23.163" x2="68.758" y2="4.34" gradientUnits="userSpaceOnUse"><stop stop-color="#46A29F"/><stop offset="1" stop-color="#4660A2"/></linearGradient><linearGradient id="paint6_linear_14181_2155" x1="-3.31" y1="42.824" x2="86.304" y2="-32.724" gradientUnits="userSpaceOnUse"><stop stop-color="#46A29F"/><stop offset="1" stop-color="#4660A2"/></linearGradient><linearGradient id="paint7_linear_14181_2155" x1="-13.068" y1="20.21" x2="164.999" y2="-33.557" gradientUnits="userSpaceOnUse"><stop stop-color="#46A29F"/><stop offset="1" stop-color="#4660A2"/></linearGradient><linearGradient id="paint8_linear_14181_2155" x1="49.5" y1="-.246" x2="57.416" y2="-.706" gradientUnits="userSpaceOnUse"><stop stop-color="#46A29F"/><stop offset="1" stop-color="#4660A2"/></linearGradient><linearGradient id="paint9_linear_14181_2155" x1="44.279" y1="9.947" x2="45.994" y2="2.247" gradientUnits="userSpaceOnUse"><stop stop-color="#46A29F"/><stop offset="1" stop-color="#4660A2"/></linearGradient><linearGradient id="paint10_linear_14181_2155" x1="91.551" y1="57.353" x2="-84.99" y2="115.79" gradientUnits="userSpaceOnUse"><stop stop-color="#46A29F"/><stop offset="1" stop-color="#4660A2"/></linearGradient><linearGradient id="paint11_linear_14181_2155" x1="29.546" y1="79.405" x2="21.645" y2="80.074" gradientUnits="userSpaceOnUse"><stop stop-color="#46A29F"/><stop offset="1" stop-color="#4660A2"/></linearGradient><linearGradient id="paint12_linear_14181_2155" x1="34.495" y1="69.081" x2="32.978" y2="76.822" gradientUnits="userSpaceOnUse"><stop stop-color="#46A29F"/><stop offset="1" stop-color="#4660A2"/></linearGradient><clipPath id="clip0_14181_2155"><path fill="#fff" d="M0 0h80v80H0z"/></clipPath></defs></svg>