<svg width="60" height="60" fill="none" xmlns="http://www.w3.org/2000/svg"><path d="M56.666 43.488c.38-.754.7-1.451.974-2.132a.622.622 0 00-1.154-.466 26.819 26.819 0 01-.93 2.038.623.623 0 101.11.56z" fill="url(#paint0_linear_13858_2286)"/><path d="M29.995.118C13.525.118.125 13.523.125 30c0 16.477 13.4 29.883 29.87 29.883A29.797 29.797 0 0053.012 49.05a.622.622 0 10-.958-.794 28.556 28.556 0 01-22.059 10.38C14.211 58.638 1.37 45.792 1.37 30c0-15.79 12.841-28.638 28.625-28.638 3.114 0 6.11.507 8.919 1.43-1.326 1.2-2.107 2.714-2.165 4.291-.067 1.728.703 3.266 1.446 4.754.57 1.267 1.809 3.386 1.056 5.247-.762 1.901-3.226 2.48-3.74 2.723-1.19.382-3.978 1.274-5.788 3.751a.622.622 0 101.005.734c1.57-2.149 3.997-2.926 5.163-3.3.342-.166 3.492-.892 4.515-3.443.947-2.341-.401-4.703-1.097-6.269-.674-1.347-1.37-2.74-1.316-4.15.052-1.43.885-2.815 2.285-3.85C51.002 7.42 58.632 17.833 58.632 30c0 2.864-.424 5.703-1.26 8.439a.622.622 0 101.19.364A30.06 30.06 0 0059.877 30C59.877 13.523 46.472.118 29.995.118z" fill="url(#paint1_linear_13858_2286)"/><path d="M42.34 34.874c.408.287 2.208.415 3.127-.507.765-.767.916-2.044.45-3.795-.893-3.361-3.656-5.488-5.678-5.355-1.088.07-1.875.726-2.253 1.821-2.259-.771-4.638-.979-6.807-.542a.623.623 0 00.246 1.22c3.229-.652 6.846.354 9.49 2.169a.623.623 0 00.704-1.027 14.995 14.995 0 00-2.477-1.374c.207-.64.599-.988 1.176-1.025 1.515-.086 3.692 1.782 4.397 4.433.338 1.271.294 2.168-.128 2.593-.425.43-1.251.375-1.636.298-2.088-1.402-3.889-.677-4.876.17-1.571-1.665-3.001-2.57-3.038-2.594a.623.623 0 00-.655 1.059c.146.09 1.624 1.028 3.142 2.71.167.322 4.997 4.773 2.903 11.72-.877 2.911-3.533 3.746-5.606 3.934-6.86.623-18.428-4.992-22.48-12.899-.697-1.358-1.263-1.279-.296-5.866a.622.622 0 00-.063-.428c-2.875-5.236-3.139-9.232-.873-12.933 2.61-3.864 6.28-4.323 8.229-4.26 2.897.099 5.578 1.434 6.686 3.344 1.349 2.106 1.266 4.738.975 7.269a4.091 4.091 0 001.254 3.414c1.643 1.558 3.345 3.978 2.124 6.666-1.872 4.115-10.701 2.081-10.79 2.06a.622.622 0 10-.287 1.211c.322.076 6.449 1.485 10.074-.516-.04 1.32.367 3.204 2.377 5.066a.622.622 0 10.846-.913c-2.674-2.477-1.925-4.897-1.755-5.342.26-.31.488-.656.668-1.05 1.605-3.533-.815-6.582-2.4-8.085a2.84 2.84 0 01-.875-2.37c.318-2.759.396-5.648-1.148-8.057-1.3-2.244-4.397-3.828-7.706-3.942-3.761-.127-7.152 1.623-9.318 4.832-3.2 5.225-1.337 10.207.717 14.003-.981 4.751-.325 4.944.453 6.465 4.242 8.278 16.102 14.263 23.7 13.57 3.522-.319 5.833-1.983 6.686-4.813 1.62-5.374-.475-9.59-2.72-12.32.568-.487 1.796-1.17 3.44-.014z" fill="url(#paint2_linear_13858_2286)"/><path d="M13.786 33.12a.623.623 0 00.758.447c5.813-1.503 10.689-.282 12.479.947a.623.623 0 00.713-1.02c-.076-.053-.834-.565-2.223-1.045.416-.959.964-1.798 1.647-2.49a.623.623 0 00-.886-.875c-.825.837-1.474 1.853-1.958 3.01-2.28-.575-5.666-.873-10.083.268a.622.622 0 00-.447.758z" fill="url(#paint3_linear_13858_2286)"/><path d="M17.834 24.369l.002-.014c.062-.405-.283-.769-.688-.708a2.645 2.645 0 00-1.61.903c-1.04 1.21-.797 2.904.317 3.916 1.138 1.032 3.022 1.068 4.2.073a.622.622 0 00-.804-.95c-.704.594-1.877.574-2.56-.045-.617-.561-.801-1.494-.209-2.182a1.4 1.4 0 01.803-.473c.276-.052.506-.242.549-.52z" fill="url(#paint4_linear_13858_2286)"/><defs><linearGradient id="paint0_linear_13858_2286" x1="55.111" y1="41.261" x2="60.517" y2="40.201" gradientUnits="userSpaceOnUse"><stop stop-color="#46A29F"/><stop offset="1" stop-color="#4660A2"/></linearGradient><linearGradient id="paint1_linear_13858_2286" x1="-10.143" y1="13.761" x2="130.164" y2="-27.89" gradientUnits="userSpaceOnUse"><stop stop-color="#46A29F"/><stop offset="1" stop-color="#4660A2"/></linearGradient><linearGradient id="paint2_linear_13858_2286" x1="1.837" y1="22.032" x2="91.091" y2="-3.727" gradientUnits="userSpaceOnUse"><stop stop-color="#46A29F"/><stop offset="1" stop-color="#4660A2"/></linearGradient><linearGradient id="paint3_linear_13858_2286" x1="11.319" y1="30.206" x2="34.868" y2="12.828" gradientUnits="userSpaceOnUse"><stop stop-color="#46A29F"/><stop offset="1" stop-color="#4660A2"/></linearGradient><linearGradient id="paint4_linear_13858_2286" x1="13.947" y1="24.924" x2="26.707" y2="21.285" gradientUnits="userSpaceOnUse"><stop stop-color="#46A29F"/><stop offset="1" stop-color="#4660A2"/></linearGradient></defs></svg>