<svg width="58" height="60" fill="none" xmlns="http://www.w3.org/2000/svg"><path d="M5.699 47.672h0l2.072 3.207.04.062v8.177a.631.631 0 101.263 0v-8.363a.632.632 0 00-.101-.343L6.76 46.987s0 0 0 0a.632.632 0 00-.873-.188l-.188.873zm0 0a.631.631 0 01.187-.873l-.187.873z" fill="url(#paint0_linear_13858_2231)" stroke="#fff" stroke-width=".5"/><mask id="a" fill="#fff"><path d="M53.935 16.83a3.3 3.3 0 00-.327.017A27.267 27.267 0 0021.733 2.272a.882.882 0 00.47 1.7A25.502 25.502 0 0151.96 17.487a3.318 3.318 0 00-1.182 1.668 23.757 23.757 0 00-7.16-9.285.881.881 0 10-1.09 1.387c4.31 3.384 7.184 8.195 8.101 13.552V32a.395.395 0 01-.1.265l-1.346 1.498v-5.238c0-11.129-9.054-20.183-20.183-20.183-11.13 0-20.183 9.054-20.183 20.183v5.238l-1.345-1.498a.394.394 0 01-.101-.264V24.81a21.988 21.988 0 017.39-12.971A21.933 21.933 0 0129 6.579c3.67 0 7.305.929 10.511 2.687a.882.882 0 00.848-1.546A23.695 23.695 0 0029 4.816a23.697 23.697 0 00-15.384 5.683 23.835 23.835 0 00-6.392 8.663 3.317 3.317 0 00-1.183-1.674 25.742 25.742 0 016.09-8.047.881.881 0 10-1.168-1.32 27.513 27.513 0 00-6.568 8.726A3.309 3.309 0 00.76 20.136v18.18c0 1.424.41 2.81 1.182 4.006l1.502 2.325a.881.881 0 101.481-.957l-1.502-2.324a5.608 5.608 0 01-.9-3.05v-18.18c0-.85.692-1.542 1.543-1.542.85 0 1.542.692 1.542 1.542V32c0 .533.196 1.045.552 1.442l2.24 2.496a3.47 3.47 0 00.672 2.526l4.595 6.062a.882.882 0 001.405-1.065L10.478 37.4a1.712 1.712 0 01.154-2.235 1.69 1.69 0 011.229-.5c.464.007.896.196 1.215.534l6.48 6.849a14.636 14.636 0 014.019 10.097v6.973a.881.881 0 101.763 0v-6.973c0-4.065-1.481-7.937-4.18-10.957v-12.84c0-4.324 3.518-7.842 7.843-7.842a7.824 7.824 0 017.797 7.007.881.881 0 101.754-.186 9.59 9.59 0 00-3.11-6.099A9.58 9.58 0 0029 18.743c-5.297 0-9.606 4.309-9.606 9.606v10.964l-1.763-1.863v-8.925c0-6.268 5.1-11.368 11.369-11.368s11.369 5.1 11.369 11.368v8.925l-1.764 1.863v-1.971a.881.881 0 10-1.763 0v3.846a16.388 16.388 0 00-4.179 10.957v6.973a.881.881 0 101.763 0v-6.973c0-3.771 1.428-7.358 4.02-10.098l6.479-6.848c.32-.338.75-.527 1.215-.534.46-.007.9.171 1.23.5.598.599.664 1.56.152 2.235l-4.594 6.062a.882.882 0 001.405 1.065l4.594-6.062a3.462 3.462 0 00.672-2.526l2.241-2.496c.356-.397.552-.91.552-1.442V20.136c0-.85.692-1.542 1.542-1.542.85 0 1.542.692 1.542 1.542v5.697a.881.881 0 101.763 0v-5.697a3.309 3.309 0 00-3.305-3.305zm-10.29 17.157l-1.513 1.599v-7.06c0-7.242-5.89-13.132-13.131-13.132-7.24 0-13.132 5.89-13.132 13.131v7.061l-1.513-1.6a3.504 3.504 0 00-.25-.239v-5.222c0-8.213 6.682-14.894 14.895-14.894s14.894 6.681 14.894 14.894v5.222c-.086.075-.17.155-.25.24zm2.471-1.084a3.542 3.542 0 00-.458.037v-4.415c0-9.185-7.472-16.657-16.657-16.657-9.185 0-16.658 7.472-16.658 16.657v4.415a3.52 3.52 0 00-1.763.199v-4.614c0-10.157 8.264-18.42 18.42-18.42 10.158 0 18.421 8.263 18.421 18.42v4.613a3.518 3.518 0 00-1.305-.235z"/></mask><path d="M53.935 16.83a3.3 3.3 0 00-.327.017A27.267 27.267 0 0021.733 2.272a.882.882 0 00.47 1.7A25.502 25.502 0 0151.96 17.487a3.318 3.318 0 00-1.182 1.668 23.757 23.757 0 00-7.16-9.285.881.881 0 10-1.09 1.387c4.31 3.384 7.184 8.195 8.101 13.552V32a.395.395 0 01-.1.265l-1.346 1.498v-5.238c0-11.129-9.054-20.183-20.183-20.183-11.13 0-20.183 9.054-20.183 20.183v5.238l-1.345-1.498a.394.394 0 01-.101-.264V24.81a21.988 21.988 0 017.39-12.971A21.933 21.933 0 0129 6.579c3.67 0 7.305.929 10.511 2.687a.882.882 0 00.848-1.546A23.695 23.695 0 0029 4.816a23.697 23.697 0 00-15.384 5.683 23.835 23.835 0 00-6.392 8.663 3.317 3.317 0 00-1.183-1.674 25.742 25.742 0 016.09-8.047.881.881 0 10-1.168-1.32 27.513 27.513 0 00-6.568 8.726A3.309 3.309 0 00.76 20.136v18.18c0 1.424.41 2.81 1.182 4.006l1.502 2.325a.881.881 0 101.481-.957l-1.502-2.324a5.608 5.608 0 01-.9-3.05v-18.18c0-.85.692-1.542 1.543-1.542.85 0 1.542.692 1.542 1.542V32c0 .533.196 1.045.552 1.442l2.24 2.496a3.47 3.47 0 00.672 2.526l4.595 6.062a.882.882 0 001.405-1.065L10.478 37.4a1.712 1.712 0 01.154-2.235 1.69 1.69 0 011.229-.5c.464.007.896.196 1.215.534l6.48 6.849a14.636 14.636 0 014.019 10.097v6.973a.881.881 0 101.763 0v-6.973c0-4.065-1.481-7.937-4.18-10.957v-12.84c0-4.324 3.518-7.842 7.843-7.842a7.824 7.824 0 017.797 7.007.881.881 0 101.754-.186 9.59 9.59 0 00-3.11-6.099A9.58 9.58 0 0029 18.743c-5.297 0-9.606 4.309-9.606 9.606v10.964l-1.763-1.863v-8.925c0-6.268 5.1-11.368 11.369-11.368s11.369 5.1 11.369 11.368v8.925l-1.764 1.863v-1.971a.881.881 0 10-1.763 0v3.846a16.388 16.388 0 00-4.179 10.957v6.973a.881.881 0 101.763 0v-6.973c0-3.771 1.428-7.358 4.02-10.098l6.479-6.848c.32-.338.75-.527 1.215-.534.46-.007.9.171 1.23.5.598.599.664 1.56.152 2.235l-4.594 6.062a.882.882 0 001.405 1.065l4.594-6.062a3.462 3.462 0 00.672-2.526l2.241-2.496c.356-.397.552-.91.552-1.442V20.136c0-.85.692-1.542 1.542-1.542.85 0 1.542.692 1.542 1.542v5.697a.881.881 0 101.763 0v-5.697a3.309 3.309 0 00-3.305-3.305zm-10.29 17.157l-1.513 1.599v-7.06c0-7.242-5.89-13.132-13.131-13.132-7.24 0-13.132 5.89-13.132 13.131v7.061l-1.513-1.6a3.504 3.504 0 00-.25-.239v-5.222c0-8.213 6.682-14.894 14.895-14.894s14.894 6.681 14.894 14.894v5.222c-.086.075-.17.155-.25.24zm2.471-1.084a3.542 3.542 0 00-.458.037v-4.415c0-9.185-7.472-16.657-16.657-16.657-9.185 0-16.658 7.472-16.658 16.657v4.415a3.52 3.52 0 00-1.763.199v-4.614c0-10.157 8.264-18.42 18.42-18.42 10.158 0 18.421 8.263 18.421 18.42v4.613a3.518 3.518 0 00-1.305-.235z" fill="url(#paint1_linear_13858_2231)" stroke="#fff" mask="url(#a)"/><path d="M50.193 50.94l.04-.061 5.616-8.693a7.119 7.119 0 001.141-3.87v-8.727s0 0 0 0a.632.632 0 00-1.263 0v8.727a5.857 5.857 0 01-.94 3.185l-4.594 9.44zm0 0v8.179a.631.631 0 11-1.263 0v-8.363c0-.122.035-.24.1-.343 0 0 0 0 0 0l5.758-8.911-4.595 9.44z" fill="url(#paint2_linear_13858_2231)" stroke="#fff" stroke-width=".5"/><path d="M17.486 1.563c.685.75.685 1.969 0 2.718L15 7l-2.486-2.719c-.685-.75-.685-1.968 0-2.718.686-.75 1.8-.75 2.486 0 .686-.75 1.8-.75 2.486 0zm20 30c.685.75.685 1.969 0 2.719L35 37l-2.486-2.719c-.686-.75-.686-1.968 0-2.718s1.8-.75 2.486 0c.686-.75 1.8-.75 2.486 0z" fill="#DEEEEE"/><path d="M15.623 7.406h0l2.693-2.693s0 0 0 0a2.619 2.619 0 000-3.7h0a2.633 2.633 0 00-3.243-.368l-.132.083-.132-.083a2.626 2.626 0 00-3.236.369h0a2.619 2.619 0 000 3.699l4.05 2.693zm0 0a.95.95 0 01-.678.28.952.952 0 01-.678-.28s0 0 0 0l-2.694-2.693 4.05 2.693zm-1.175-5.431h0c.27.268.712.269.983.003h0l.082-.08h0a1.361 1.361 0 011.91.009 1.35 1.35 0 01.001 1.912h0l-2.302 2.302-.177.177-.177-.177-2.301-2.302a1.353 1.353 0 010-1.912s0 0 0 0m1.98.068l-1.98-.068m1.98.068l-.075-.075s0 0 0 0a1.349 1.349 0 00-.95-.388c-.345 0-.692.131-.956.395m1.982.068l-1.982-.068" fill="url(#paint3_linear_13858_2231)" stroke="#fff" stroke-width=".5"/><path d="M34.24 31.127h0c.269.265.71.267.982 0 0 0 0 0 0 0l.08-.079h0a1.361 1.361 0 011.912.01 1.353 1.353 0 010 1.912l-2.302 2.302-.177.177-.176-.177-2.302-2.302s0 0 0 0a1.346 1.346 0 01-.396-.956c0-.361.14-.702.396-.957l1.983.07zm0 0l-.077-.076s0 0 0 0a1.35 1.35 0 00-.95-.388c-.346 0-.693.13-.956.394l1.983.07zm.36-1.331l.131.082.133-.082a2.633 2.633 0 013.243.368 2.619 2.619 0 010 3.7s0 0 0 0l-2.693 2.692a.951.951 0 01-.679.281.952.952 0 01-.678-.28s0 0 0 0l-2.693-2.694h0a2.596 2.596 0 01-.766-1.85c0-.698.271-1.354.766-1.849h0a2.625 2.625 0 013.235-.368z" fill="url(#paint4_linear_13858_2231)" stroke="#fff" stroke-width=".5"/><defs><linearGradient id="paint0_linear_13858_2231" x1="4.664" y1="49.541" x2="14.748" y2="48.663" gradientUnits="userSpaceOnUse"><stop stop-color="#46A29F"/><stop offset="1" stop-color="#4660A2"/></linearGradient><linearGradient id="paint1_linear_13858_2231" x1="-8.944" y1="14.692" x2="124.478" y2="-23.417" gradientUnits="userSpaceOnUse"><stop stop-color="#46A29F"/><stop offset="1" stop-color="#4660A2"/></linearGradient><linearGradient id="paint2_linear_13858_2231" x1="47.209" y1="35.851" x2="68.938" y2="34.086" gradientUnits="userSpaceOnUse"><stop stop-color="#46A29F"/><stop offset="1" stop-color="#4660A2"/></linearGradient><linearGradient id="paint3_linear_13858_2231" x1="9.051" y1="1.812" x2="29.286" y2="-4.829" gradientUnits="userSpaceOnUse"><stop stop-color="#46A29F"/><stop offset="1" stop-color="#4660A2"/></linearGradient><linearGradient id="paint4_linear_13858_2231" x1="28.84" y1="30.962" x2="49.078" y2="24.32" gradientUnits="userSpaceOnUse"><stop stop-color="#46A29F"/><stop offset="1" stop-color="#4660A2"/></linearGradient></defs></svg>