<svg width="60" height="60" fill="none" xmlns="http://www.w3.org/2000/svg"><path d="M55 30.32c0 5.867-10.402 9.276-12.053 15.491C41.297 52.026 38.138 55 30.4 55c-6.306 0-3.633-4.472-16.412-6.294C1.21 46.884 4.647 39.39 8.614 32.52c4.511-8.544 6.604-12.795 9.859-18.432 3.254-5.637 4.535-8.447 11.927-8.447 6.195 0 14.364-3.557 16.18 6.089C48.396 21.376 55 22.905 55 30.32z" fill="url(#paint0_linear)"/><path d="M55 30.32c0 5.867-10.402 9.276-12.053 15.491C41.297 52.026 38.138 55 30.4 55c-6.306 0-3.633-4.472-16.412-6.294C1.21 46.884 4.647 39.39 8.614 32.52c4.511-8.544 6.604-12.795 9.859-18.432 3.254-5.637 4.535-8.447 11.927-8.447 6.195 0 14.364-3.557 16.18 6.089C48.396 21.376 55 22.905 55 30.32z" fill="url(#paint1_linear)"/><g clip-path="url(#clip0)"><path d="M13.595 37.968H11.72a2.809 2.809 0 00-2.813 2.813 2.809 2.809 0 002.813 2.813h29.39v-5.626H13.596z" fill="#fff"/><path d="M40.782.469H11.72A2.809 2.809 0 008.907 3.28v37.5a2.809 2.809 0 012.813-2.813h29.999V1.407a.94.94 0 00-.937-.937z" fill="#DEEEEE"/><path d="M10.782 3.281A2.809 2.809 0 0113.595.47H11.72a2.809 2.809 0 00-2.813 2.81v37.5c0-1.226.784-2.254 1.875-2.64V3.28zm8.438 40.313v4.687l-2.813-.937-2.812.937V41.72h5.625v1.875zM49.687 18.75c-.778 0-1.407.63-1.407 1.406v9.375h-1.875V16.875a1.406 1.406 0 10-2.812 0V29.53h-1.875V15a1.406 1.406 0 10-2.813 0v14.53H37.03V16.875a1.406 1.406 0 10-2.812 0V33.92l-2.264-2.985a1.788 1.788 0 10-3.096 1.787l6.766 10.837v-.005a8.484 8.484 0 003.282 2.883v3.718h8.437V45.91a8.43 8.43 0 003.75-7.015V20.156c0-.776-.63-1.406-1.407-1.406z" fill="#F0F4F4"/><path d="M35.155 35.157V16.875c0-.612.393-1.126.938-1.32a1.417 1.417 0 00-.469-.086c-.777 0-1.406.63-1.406 1.406V33.92l.937 1.236zm1.405 8.398l.002.005-6.766-10.837a1.789 1.789 0 01.654-2.443c.14-.08.287-.132.436-.172a1.785 1.785 0 00-2.027 2.615l6.765 10.837v-.005a8.481 8.481 0 003.282 2.883v2.78h.937v-2.78a8.484 8.484 0 01-3.282-2.883zm11.721 6.601H37.968v3.75h10.313v-3.75z" fill="#fff"/><path d="M49.218 53.906H37.031v5.625h12.187v-5.625z" fill="#DEEEEE"/><path d="M47.343 49.22h-8.438v.937h8.438v-.938z" fill="#94C1FF"/><path d="M38.906 53.906H37.03v5.625h1.875v-5.625z" fill="#F0F4F4"/><path d="M41.718 30a.469.469 0 01-.469-.469V15a.469.469 0 11.938 0v14.53c0 .26-.21.469-.47.469zm-2.812 0a.469.469 0 01-.47-.469V15a.469.469 0 11.938 0v14.53c0 .26-.21.469-.468.469z" fill="#46A29F"/><path d="M41.718 15.469a.469.469 0 01-.469-.47.938.938 0 00-1.875 0 .468.468 0 11-.937 0c0-1.033.841-1.874 1.875-1.874 1.033 0 1.875.84 1.875 1.875 0 .26-.21.469-.47.469zM38.934 52.5a.473.473 0 01-.475-.469c0-.26.205-.469.466-.469h.009a.469.469 0 010 .938zm-3.216-8.624a.467.467 0 01-.394-.216l-6.86-10.685a2.252 2.252 0 01-.237-1.73 2.243 2.243 0 011.05-1.371 2.26 2.26 0 013.083.826l2.232 2.936a.469.469 0 01-.748.568l-2.264-2.987c-.395-.678-1.204-.892-1.834-.531a1.315 1.315 0 00-.482 1.8l6.85 10.668a.468.468 0 01-.396.722zM37.03 30a.469.469 0 01-.468-.469V16.875a.469.469 0 11.937 0V29.53c0 .26-.21.469-.469.469zm-2.812 1.875a.469.469 0 01-.469-.469V16.875a.469.469 0 11.938 0v14.531c0 .26-.21.469-.47.469zm13.126 14.592a.47.47 0 01-.265-.856 8.128 8.128 0 003.545-6.717.469.469 0 11.938 0c0 2.999-1.479 5.8-3.954 7.49a.464.464 0 01-.264.083z" fill="#46A29F"/><path d="M38.908 47.072a.47.47 0 01-.22-.054 8.118 8.118 0 01-3.384-3.392.469.469 0 01.83-.437 7.167 7.167 0 002.994 3 .47.47 0 01-.22.883zM37.03 17.344a.469.469 0 01-.468-.47.938.938 0 00-1.875 0 .469.469 0 11-.938 0c0-1.033.842-1.874 1.875-1.874 1.034 0 1.875.84 1.875 1.875 0 .259-.21.469-.469.469zM46.405 30a.468.468 0 01-.468-.469V16.875a.468.468 0 11.937 0V29.53c0 .26-.21.469-.469.469zm-2.812 0a.469.469 0 01-.469-.469V16.875a.469.469 0 11.938 0V29.53c0 .26-.21.469-.47.469z" fill="#46A29F"/><path d="M46.405 17.344a.468.468 0 01-.468-.47.938.938 0 00-1.875 0 .469.469 0 11-.938 0c0-1.033.842-1.874 1.875-1.874 1.034 0 1.875.84 1.875 1.875 0 .259-.21.469-.469.469zm4.688 22.019a.469.469 0 01-.469-.469V20.156a.469.469 0 11.938 0v18.738c0 .26-.21.469-.47.469zM48.28 30a.469.469 0 01-.468-.469v-9.375a.469.469 0 11.937 0v9.375c0 .26-.21.469-.469.469z" fill="#46A29F"/><path d="M51.093 20.625a.468.468 0 01-.469-.469.939.939 0 00-1.875 0 .468.468 0 11-.938 0c0-1.034.842-1.875 1.876-1.875 1.033 0 1.875.841 1.875 1.875 0 .26-.21.469-.47.469zM38.906 49.687a.469.469 0 01-.47-.468V46.6a.469.469 0 11.938 0v2.617c0 .26-.21.47-.468.47zm8.437 0a.469.469 0 01-.469-.468v-3.221a.468.468 0 11.938 0v3.22c0 .26-.21.47-.47.47zm1.875 4.688H37.03a.469.469 0 110-.938h12.188a.468.468 0 110 .938z" fill="#46A29F"/><path d="M49.218 60a.469.469 0 01-.469-.469v-5.625a.468.468 0 11.938 0v5.625c0 .26-.21.469-.47.469zM37.03 60a.469.469 0 01-.468-.469v-5.625a.468.468 0 11.937 0v5.625c0 .26-.21.469-.469.469zm.938-6.563a.468.468 0 01-.469-.468v-2.813a.468.468 0 11.938 0v2.813c0 .259-.21.468-.469.468z" fill="#46A29F"/><path d="M48.28 50.625H37.968a.469.469 0 110-.938H48.28a.468.468 0 110 .938z" fill="#46A29F"/><path d="M48.28 53.632a.468.468 0 01-.468-.468v-3.008a.468.468 0 11.937 0v3.008c0 .259-.21.468-.469.468zM30 38.437H11.72a.468.468 0 110-.937H30a.469.469 0 110 .937zM40.782.937H11.72a.468.468 0 110-.937h29.062a.469.469 0 110 .937z" fill="#46A29F"/><path d="M11.72 44.062a3.285 3.285 0 01-3.282-3.28A3.285 3.285 0 0111.72 37.5a.469.469 0 110 .937 2.346 2.346 0 00-2.344 2.344 2.346 2.346 0 002.344 2.344.469.469 0 110 .937z" fill="#46A29F"/><path d="M11.72 42.187c-.776 0-1.407-.63-1.407-1.406 0-.775.631-1.406 1.407-1.406a.469.469 0 110 .937.47.47 0 000 .938.468.468 0 110 .937zM8.907 3.75a.469.469 0 01-.469-.469A3.285 3.285 0 0111.72 0a.469.469 0 110 .937 2.347 2.347 0 00-2.344 2.344c0 .26-.21.469-.469.469z" fill="#46A29F"/><path d="M8.907 41.25a.469.469 0 01-.469-.469v-37.5a.468.468 0 11.938 0v37.5c0 .26-.21.469-.469.469zM41.72 1.875a.469.469 0 01-.47-.469.469.469 0 00-.468-.469.468.468 0 110-.937c.776 0 1.406.63 1.406 1.406 0 .26-.21.469-.469.469zm-8.11 42.187H21.094a.468.468 0 110-.937h12.514a.468.468 0 110 .937z" fill="#46A29F"/><path d="M41.72 12.51a.469.469 0 01-.47-.47V1.407a.469.469 0 11.938 0v10.635c0 .259-.21.469-.469.469zM13.595 36.562a.468.468 0 01-.47-.468V2.344a.469.469 0 11.938 0v33.75c0 .259-.21.468-.468.468zm18.811 5.626H21.095a.469.469 0 110-.938h11.31a.469.469 0 010 .938zm-1.204-1.876H11.72a.468.468 0 110-.937h19.482a.469.469 0 110 .937zM13.595 48.75a.469.469 0 01-.47-.469V41.72a.468.468 0 11.938 0v6.562c0 .26-.21.469-.468.469zm5.625 0a.469.469 0 01-.469-.469V41.72a.468.468 0 11.938 0v6.562c0 .26-.21.469-.47.469z" fill="#46A29F"/><path d="M13.595 48.75a.47.47 0 01-.149-.914l2.813-.937a.469.469 0 01.296.89l-2.812.937a.467.467 0 01-.148.024z" fill="#46A29F"/><path d="M19.22 48.75a.465.465 0 01-.148-.024l-2.813-.938a.47.47 0 01.297-.89l2.812.938a.47.47 0 01-.148.914zm-2.813-2.813a.468.468 0 01-.468-.468v-3.633a.468.468 0 11.937 0v3.633c0 .259-.21.468-.469.468z" fill="#46A29F"/></g><defs><linearGradient id="paint0_linear" x1="5" y1="5" x2="64.962" y2="24.742" gradientUnits="userSpaceOnUse"><stop stop-color="#ECF6F5"/><stop offset="1" stop-color="#FBF6F9"/></linearGradient><linearGradient id="paint1_linear" x1="5" y1="5" x2="64.962" y2="24.742" gradientUnits="userSpaceOnUse"><stop stop-color="#F6F6FB"/><stop offset="1" stop-color="#FEF3F9"/></linearGradient><clipPath id="clip0"><path fill="#fff" d="M0 0h60v60H0z"/></clipPath></defs></svg>