<svg width="60" height="60" fill="none" xmlns="http://www.w3.org/2000/svg"><path d="M55 30.32c0 5.867-10.402 9.276-12.053 15.491C41.297 52.026 38.138 55 30.4 55c-6.306 0-3.633-4.472-16.412-6.294C1.21 46.884 4.647 39.39 8.614 32.52c4.511-8.544 6.604-12.795 9.859-18.432 3.254-5.637 4.535-8.447 11.927-8.447 6.195 0 14.364-3.557 16.18 6.089C48.396 21.376 55 22.905 55 30.32z" fill="url(#paint0_linear)"/><path d="M55 30.32c0 5.867-10.402 9.276-12.053 15.491C41.297 52.026 38.138 55 30.4 55c-6.306 0-3.633-4.472-16.412-6.294C1.21 46.884 4.647 39.39 8.614 32.52c4.511-8.544 6.604-12.795 9.859-18.432 3.254-5.637 4.535-8.447 11.927-8.447 6.195 0 14.364-3.557 16.18 6.089C48.396 21.376 55 22.905 55 30.32z" fill="url(#paint1_linear)"/><g clip-path="url(#clip0)"><path d="M16.406 40.781H.47v-.937a.94.94 0 01.937-.938H15.47a.94.94 0 01.937.938v.937z" fill="#F0F4F4"/><path d="M14.531 42.656H2.344v4.687h12.187v-4.687zm-9.374 6.563H2.344v4.687h2.813V49.22zm4.687 0H7.032v4.687h2.812V49.22zm4.687 0H11.72v4.687h2.813V49.22z" fill="#DEEEEE"/><path d="M5.156 53.906v-4.688H2.344v4.688h2.812zm4.688 0v-4.688H7.03v4.688h2.813zm4.687-6.562v-4.688H2.344v4.688H14.53zm0 6.562v-4.688H11.72v4.688h2.812zm1.875-13.125v18.75H.47v-18.75h15.937z" fill="#fff"/><path d="M29.062 53.906h-5.156v3.75h5.156v-3.75z" fill="#DEEEEE"/><path d="M36.094 52.031v-3.75h-5.157v3.75h5.157zm-12.188-5.625h5.157v-3.75h-5.157v3.75zm0 11.25h5.157v-3.75h-5.157v3.75zm-1.875-16.875H37.97v18.75H22.03v-18.75z" fill="#fff"/><path d="M36.094 48.28h-5.156v3.75h5.156v-3.75zm-7.032-5.624h-5.156v3.75h5.156v-3.75zm28.594 1.875H45.469v5.625h12.187v-5.625z" fill="#DEEEEE"/><path d="M57.656 50.156v-5.625H45.47v5.625h12.187zm-14.062 9.375v-18.75H59.53v18.75H43.594z" fill="#fff"/><path d="M43.594 39.843a.94.94 0 01.937-.937h14.063a.94.94 0 01.937.938v.937H43.594v-.938zm-20.625-.937H37.03a.94.94 0 01.938.938v.937H22.03v-.938a.94.94 0 01.938-.937zM15.938.469h28.124a.94.94 0 01.938.937v.938H15v-.938a.94.94 0 01.938-.937z" fill="#F0F4F4"/><path d="M19.688 13.594a.94.94 0 01.937.937.94.94 0 01-.937.938.94.94 0 01-.938-.938.94.94 0 01.938-.937z" fill="#fff"/><path d="M21.563 17.343l1.387 2.072-.45.741h-2.813l1.875-2.813z" fill="#F0F4F4"/><path d="M22.95 19.415l2.363-3.946 2.812 4.687H22.5l.45-.74z" fill="#F0F4F4"/><path d="M19.688 15.469a.94.94 0 00.937-.938.94.94 0 00-.938-.937.94.94 0 00-.937.937.94.94 0 00.938.938zm1.875 1.874l-1.875 2.813h-2.813v-8.437h12.188v8.437h-.938l-2.813-4.687-2.361 3.947-1.389-2.073z" fill="#DEEEEE"/><path d="M16.875 9.844h26.25V4.219h-26.25v5.625zm12.187 10.312V11.72H16.875v8.437h12.187zM45 22.031H15V2.344h30V22.03z" fill="#fff"/><path d="M43.125 4.218h-26.25v5.625h26.25V4.218z" fill="#DEEEEE"/><path d="M24.845 53.906h-.94v3.75h.94v-3.75zm0-11.25h-.94v3.75h.94v-3.75zm7.032 5.624h-.94v3.75h.94v-3.75zm-28.594.939h-.939v4.687h.939V49.22zm4.687 0h-.938v4.687h.938V49.22zm4.688 0h-.939v4.687h.939V49.22zm33.75-4.688h-.939v5.625h.939v-5.625z" fill="#F0F4F4"/><path d="M3.283 42.656h-.939v4.693h.939v-4.693z" fill="#D7E9FF"/><path d="M17.813 4.218h-.938v5.625h.938V4.218zm0 7.501h-.938v8.437h.938V11.72z" fill="#F0F4F4"/><path d="M16.875.469h-.938a.94.94 0 00-.937.937v.938h.938v-.938a.94.94 0 01.937-.937zM2.344 38.906h-.938a.94.94 0 00-.937.938v.937h.937v-.938a.94.94 0 01.938-.937zm21.562 0h-.937a.94.94 0 00-.938.938v.937h.938v-.938a.94.94 0 01.937-.937zm21.563 0h-.938a.94.94 0 00-.937.938v.937h.937v-.938a.94.94 0 01.938-.937z" fill="#fff"/><path d="M16.904 1.875a.472.472 0 01-.474-.469c0-.259.205-.469.463-.469h.01a.47.47 0 010 .938z" fill="url(#paint2_linear)"/><path d="M18.778 1.875a.472.472 0 01-.473-.469c0-.259.205-.469.463-.469h.01a.47.47 0 010 .938z" fill="url(#paint3_linear)"/><path d="M20.653 1.875a.472.472 0 01-.473-.469c0-.259.205-.469.463-.469h.01a.47.47 0 010 .938z" fill="url(#paint4_linear)"/><path d="M24.403 40.312a.472.472 0 01-.473-.468c0-.26.205-.47.463-.47h.01a.469.469 0 010 .938z" fill="url(#paint5_linear)"/><path d="M26.278 40.312a.472.472 0 01-.473-.468c0-.26.205-.47.463-.47h.01a.469.469 0 010 .938z" fill="url(#paint6_linear)"/><path d="M28.153 40.312a.472.472 0 01-.473-.468c0-.26.205-.47.463-.47h.01a.469.469 0 010 .938z" fill="url(#paint7_linear)"/><path d="M2.84 40.312a.472.472 0 01-.472-.468c0-.26.205-.47.463-.47h.01a.47.47 0 010 .938z" fill="url(#paint8_linear)"/><path d="M4.716 40.312a.472.472 0 01-.473-.468c0-.26.205-.47.463-.47h.01a.47.47 0 010 .938z" fill="url(#paint9_linear)"/><path d="M6.59 40.312a.472.472 0 01-.472-.468c0-.26.205-.47.463-.47h.01a.47.47 0 010 .938z" fill="url(#paint10_linear)"/><path d="M45.497 58.125a.472.472 0 01-.473-.469c0-.26.205-.469.463-.469h.01a.47.47 0 010 .938z" fill="url(#paint11_linear)"/><path d="M47.372 58.125a.472.472 0 01-.473-.469c0-.26.205-.469.463-.469h.01a.469.469 0 010 .938z" fill="url(#paint12_linear)"/><path d="M49.247 58.125a.472.472 0 01-.473-.469c0-.26.205-.469.463-.469h.01a.469.469 0 010 .938z" fill="url(#paint13_linear)"/><path d="M45.966 40.312a.472.472 0 01-.474-.468c0-.26.206-.47.464-.47h.01a.469.469 0 010 .938z" fill="url(#paint14_linear)"/><path d="M47.84 40.312a.472.472 0 01-.473-.468c0-.26.206-.47.464-.47h.01a.469.469 0 010 .938z" fill="url(#paint15_linear)"/><path d="M49.716 40.312a.473.473 0 01-.474-.468c0-.26.205-.47.464-.47h.01a.469.469 0 010 .938z" fill="url(#paint16_linear)"/><path d="M45 2.812a.468.468 0 01-.469-.468v-.938a.47.47 0 00-.468-.469H15.938a.47.47 0 00-.47.47v.937a.468.468 0 11-.937 0v-.938c0-.775.631-1.406 1.407-1.406h28.124c.776 0 1.407.63 1.407 1.406v.938c0 .259-.21.468-.469.468z" fill="url(#paint17_linear)"/><path d="M45 22.5H15a.468.468 0 01-.469-.469V2.344c0-.26.21-.47.47-.47H45c.26 0 .469.21.469.47V22.03c0 .26-.21.469-.469.469zm-29.531-.938H44.53V2.812H15.47v18.75z" fill="url(#paint18_linear)"/><path d="M43.125 10.312h-26.25a.468.468 0 01-.469-.468V4.219c0-.26.21-.47.469-.47h26.25c.26 0 .469.21.469.47v5.625c0 .259-.21.468-.47.468zm-25.781-.937h25.312V4.687H17.344v4.688z" fill="url(#paint19_linear)"/><path d="M40.313 7.5H19.688a.468.468 0 110-.938h20.625a.468.468 0 110 .938z" fill="url(#paint20_linear)"/><path d="M43.125 13.125H30.937a.469.469 0 110-.938h12.188a.468.468 0 110 .938z" fill="url(#paint21_linear)"/><path d="M43.125 15H30.937a.468.468 0 110-.938h12.188a.468.468 0 110 .938z" fill="url(#paint22_linear)"/><path d="M43.125 16.875H30.937a.468.468 0 110-.938h12.188a.468.468 0 110 .938z" fill="url(#paint23_linear)"/><path d="M37.031 18.75h-6.094a.469.469 0 110-.938h6.094a.469.469 0 110 .938z" fill="url(#paint24_linear)"/><path d="M29.062 20.625H16.875a.468.468 0 01-.469-.469V11.72c0-.26.21-.47.469-.47h12.187c.26 0 .47.21.47.47v8.437c0 .26-.21.469-.47.469zm-11.718-.938h11.25v-7.5h-11.25v7.5z" fill="url(#paint25_linear)"/><path d="M28.125 20.625a.47.47 0 01-.402-.228l-2.41-4.016L22.9 20.4a.466.466 0 01-.643.156.467.467 0 01-.157-.643l2.81-4.685a.469.469 0 01.805 0l2.812 4.687a.467.467 0 01-.402.71z" fill="url(#paint26_linear)"/><path d="M19.688 20.625a.468.468 0 01-.39-.729l1.874-2.812a.468.468 0 01.78-.001l1.387 2.072-.352.316-.392.258-1.031-1.542-1.486 2.23a.468.468 0 01-.39.208z" fill="url(#paint27_linear)"/><path d="M19.688 15.937c-.776 0-1.407-.63-1.407-1.406a1.408 1.408 0 012.813 0c0 .775-.631 1.406-1.406 1.406zm0-1.875a.47.47 0 000 .938.47.47 0 000-.938z" fill="url(#paint28_linear)"/><path d="M30 36.506a.469.469 0 01-.469-.468v-11.25a.469.469 0 11.938 0v11.25c0 .259-.21.468-.47.468z" fill="url(#paint29_linear)"/><path d="M30 36.507a.468.468 0 01-.331-.8l.937-.938a.469.469 0 01.663.663l-.938.937a.467.467 0 01-.331.138z" fill="url(#paint30_linear)"/><path d="M30 36.507a.468.468 0 01-.332-.138l-.937-.937a.469.469 0 11.663-.663l.937.937a.469.469 0 01-.331.8z" fill="url(#paint31_linear)"/><path d="M8.437 36.507a.469.469 0 01-.468-.47v-6.506a.469.469 0 11.937 0v6.507c0 .259-.21.469-.469.469z" fill="url(#paint32_linear)"/><path d="M8.437 36.507a.467.467 0 01-.331-.8l.937-.938a.469.469 0 11.663.663l-.937.937a.467.467 0 01-.332.138z" fill="url(#paint33_linear)"/><path d="M8.438 36.507a.467.467 0 01-.332-.138l-.937-.937a.468.468 0 11.662-.663l.938.937a.468.468 0 01-.331.8z" fill="url(#paint34_linear)"/><path d="M37.969 41.25a.469.469 0 01-.47-.469v-.937a.47.47 0 00-.468-.47H22.97a.47.47 0 00-.469.47v.937a.469.469 0 11-.938 0v-.937c0-.776.631-1.407 1.407-1.407h14.06c.776 0 1.406.631 1.406 1.407v.937c0 .26-.21.469-.468.469z" fill="url(#paint35_linear)"/><path d="M37.969 60H22.03a.468.468 0 01-.468-.469v-18.75c0-.259.21-.469.468-.469h15.94c.259 0 .468.21.468.47v18.75c0 .258-.21.468-.468.468zM22.5 59.062h15V41.25h-15v17.812z" fill="url(#paint36_linear)"/><path d="M29.062 46.875h-5.156a.468.468 0 01-.469-.469v-3.75a.47.47 0 01.47-.469h5.155c.26 0 .47.21.47.47v3.75c0 .258-.21.468-.47.468zm-4.687-.938h4.219v-2.812h-4.22v2.812z" fill="url(#paint37_linear)"/><path d="M36.093 43.125h-5.156a.469.469 0 110-.938h5.156a.469.469 0 110 .938z" fill="url(#paint38_linear)"/><path d="M36.093 45h-5.156a.469.469 0 110-.938h5.156a.469.469 0 110 .938z" fill="url(#paint39_linear)"/><path d="M36.093 46.875h-5.156a.469.469 0 110-.938h5.156a.469.469 0 110 .938z" fill="url(#paint40_linear)"/><path d="M36.093 52.5h-5.156a.469.469 0 01-.469-.469v-3.75c0-.26.21-.469.47-.469h5.155c.26 0 .47.21.47.47v3.749c0 .26-.21.469-.47.469zm-4.687-.938h4.219V48.75h-4.219v2.812z" fill="url(#paint41_linear)"/><path d="M29.062 48.75h-5.156a.468.468 0 110-.938h5.156a.468.468 0 110 .938z" fill="url(#paint42_linear)"/><path d="M29.062 50.625h-5.156a.468.468 0 110-.938h5.156a.468.468 0 110 .938z" fill="url(#paint43_linear)"/><path d="M29.062 52.5h-5.156a.468.468 0 110-.938h5.156a.468.468 0 110 .938z" fill="url(#paint44_linear)"/><path d="M29.062 58.125h-5.156a.468.468 0 01-.469-.469v-3.75c0-.26.21-.469.47-.469h5.155c.26 0 .47.21.47.47v3.75c0 .258-.21.468-.47.468zm-4.687-.938h4.219v-2.812h-4.22v2.812z" fill="url(#paint45_linear)"/><path d="M36.093 54.375h-5.156a.469.469 0 110-.938h5.156a.468.468 0 110 .938z" fill="url(#paint46_linear)"/><path d="M36.093 56.25h-5.156a.469.469 0 110-.938h5.156a.468.468 0 110 .938z" fill="url(#paint47_linear)"/><path d="M36.093 58.125h-5.156a.469.469 0 110-.938h5.156a.468.468 0 110 .938z" fill="url(#paint48_linear)"/><path d="M16.406 41.25a.468.468 0 01-.468-.469v-.937a.47.47 0 00-.47-.47H1.407a.47.47 0 00-.469.47v.937a.469.469 0 11-.937 0v-.937c0-.776.63-1.407 1.406-1.407H15.47c.775 0 1.406.631 1.406 1.407v.937c0 .26-.21.469-.469.469z" fill="url(#paint49_linear)"/><path d="M16.406 60H.47a.469.469 0 01-.47-.47V40.78c0-.259.21-.469.469-.469h15.937c.26 0 .469.21.469.47v18.75c0 .258-.21.468-.469.468zM.937 59.062h15V41.25h-15v17.812z" fill="url(#paint50_linear)"/><path d="M14.531 47.812H2.344a.469.469 0 01-.469-.468v-4.688c0-.259.21-.469.469-.469H14.53c.26 0 .469.21.469.47v4.687c0 .259-.21.468-.469.468zm-11.719-.937h11.25v-3.75H2.813v3.75z" fill="url(#paint51_linear)"/><path d="M5.156 54.375H2.344a.469.469 0 01-.469-.469V49.22c0-.26.21-.47.469-.47h2.812c.26 0 .469.21.469.47v4.687c0 .26-.21.469-.469.469zm-2.344-.938h1.875v-3.75H2.812v3.75z" fill="url(#paint52_linear)"/><path d="M9.844 54.375H7.03a.469.469 0 01-.468-.469V49.22c0-.26.21-.47.468-.47h2.813a.47.47 0 01.469.47v4.687c0 .26-.21.469-.47.469zM7.5 53.437h1.875v-3.75H7.5v3.75z" fill="url(#paint53_linear)"/><path d="M14.531 54.375H11.72a.469.469 0 01-.469-.469V49.22c0-.26.21-.47.469-.47h2.812c.26 0 .469.21.469.47v4.687c0 .26-.21.469-.469.469zm-2.344-.938h1.876v-3.75h-1.876v3.75z" fill="url(#paint54_linear)"/><path d="M14.531 56.25H2.344a.469.469 0 110-.938H14.53a.468.468 0 110 .938z" fill="url(#paint55_linear)"/><path d="M12.656 58.125H4.22a.469.469 0 110-.938h8.437a.468.468 0 110 .938z" fill="url(#paint56_linear)"/><path d="M59.531 41.25a.469.469 0 01-.468-.469v-.937a.47.47 0 00-.47-.47H44.532a.47.47 0 00-.468.47v.937a.469.469 0 11-.938 0v-.937c0-.776.63-1.407 1.406-1.407h14.063c.775 0 1.406.631 1.406 1.407v.937c0 .26-.21.469-.469.469z" fill="url(#paint57_linear)"/><path d="M59.531 60H43.594a.468.468 0 01-.469-.469v-18.75c0-.259.21-.469.469-.469H59.53c.26 0 .47.21.47.47v18.75c0 .258-.21.468-.47.468zm-15.468-.938h15V41.25h-15v17.812z" fill="url(#paint58_linear)"/><path d="M57.656 50.625H45.469a.468.468 0 01-.469-.469v-5.625c0-.259.21-.469.469-.469h12.187c.26 0 .469.21.469.47v5.624c0 .26-.21.469-.469.469zm-11.718-.938h11.25V45h-11.25v4.687z" fill="url(#paint59_linear)"/><path d="M55.781 43.125h-8.437a.469.469 0 110-.938h8.437a.469.469 0 110 .938z" fill="url(#paint60_linear)"/><path d="M57.656 52.5H45.469a.468.468 0 110-.938h12.187a.469.469 0 110 .938z" fill="url(#paint61_linear)"/><path d="M57.656 54.375H45.469a.468.468 0 110-.938h12.187a.469.469 0 110 .938z" fill="url(#paint62_linear)"/><path d="M52.031 56.25H45.47a.468.468 0 110-.938h6.562a.468.468 0 110 .938z" fill="url(#paint63_linear)"/><path d="M27.656 30H8.437a.469.469 0 110-.938h19.219a.469.469 0 110 .938z" fill="url(#paint64_linear)"/><path d="M51.562 36.507a.469.469 0 01-.468-.47v-6.506a.469.469 0 11.937 0v6.507c0 .259-.21.469-.469.469z" fill="url(#paint65_linear)"/><path d="M51.563 36.507a.467.467 0 01-.332-.138l-.938-.937a.468.468 0 11.663-.663l.938.937a.468.468 0 01-.331.8z" fill="url(#paint66_linear)"/><path d="M51.562 36.507a.468.468 0 01-.331-.8l.937-.938a.468.468 0 11.663.663l-.937.937a.466.466 0 01-.332.138z" fill="url(#paint67_linear)"/><path d="M51.562 30H32.344a.468.468 0 110-.938h19.218a.468.468 0 110 .938z" fill="url(#paint68_linear)"/></g><defs><linearGradient id="paint0_linear" x1="5" y1="5" x2="64.962" y2="24.742" gradientUnits="userSpaceOnUse"><stop stop-color="#ECF6F5"/><stop offset="1" stop-color="#FBF6F9"/></linearGradient><linearGradient id="paint1_linear" x1="5" y1="5" x2="64.962" y2="24.742" gradientUnits="userSpaceOnUse"><stop stop-color="#F6F6FB"/><stop offset="1" stop-color="#FEF3F9"/></linearGradient><linearGradient id="paint2_linear" x1="16.268" y1="1.151" x2="18.479" y2=".492" gradientUnits="userSpaceOnUse"><stop stop-color="#46A29F"/><stop offset="1" stop-color="#4660A2"/></linearGradient><linearGradient id="paint3_linear" x1="18.143" y1="1.151" x2="20.353" y2=".492" gradientUnits="userSpaceOnUse"><stop stop-color="#46A29F"/><stop offset="1" stop-color="#4660A2"/></linearGradient><linearGradient id="paint4_linear" x1="20.018" y1="1.151" x2="22.228" y2=".492" gradientUnits="userSpaceOnUse"><stop stop-color="#46A29F"/><stop offset="1" stop-color="#4660A2"/></linearGradient><linearGradient id="paint5_linear" x1="23.768" y1="39.589" x2="25.978" y2="38.93" gradientUnits="userSpaceOnUse"><stop stop-color="#46A29F"/><stop offset="1" stop-color="#4660A2"/></linearGradient><linearGradient id="paint6_linear" x1="25.643" y1="39.589" x2="27.853" y2="38.929" gradientUnits="userSpaceOnUse"><stop stop-color="#46A29F"/><stop offset="1" stop-color="#4660A2"/></linearGradient><linearGradient id="paint7_linear" x1="27.518" y1="39.589" x2="29.728" y2="38.929" gradientUnits="userSpaceOnUse"><stop stop-color="#46A29F"/><stop offset="1" stop-color="#4660A2"/></linearGradient><linearGradient id="paint8_linear" x1="2.206" y1="39.589" x2="4.416" y2="38.929" gradientUnits="userSpaceOnUse"><stop stop-color="#46A29F"/><stop offset="1" stop-color="#4660A2"/></linearGradient><linearGradient id="paint9_linear" x1="4.081" y1="39.589" x2="6.291" y2="38.929" gradientUnits="userSpaceOnUse"><stop stop-color="#46A29F"/><stop offset="1" stop-color="#4660A2"/></linearGradient><linearGradient id="paint10_linear" x1="5.956" y1="39.589" x2="8.166" y2="38.929" gradientUnits="userSpaceOnUse"><stop stop-color="#46A29F"/><stop offset="1" stop-color="#4660A2"/></linearGradient><linearGradient id="paint11_linear" x1="44.862" y1="57.401" x2="47.072" y2="56.742" gradientUnits="userSpaceOnUse"><stop stop-color="#46A29F"/><stop offset="1" stop-color="#4660A2"/></linearGradient><linearGradient id="paint12_linear" x1="46.737" y1="57.401" x2="48.947" y2="56.742" gradientUnits="userSpaceOnUse"><stop stop-color="#46A29F"/><stop offset="1" stop-color="#4660A2"/></linearGradient><linearGradient id="paint13_linear" x1="48.612" y1="57.401" x2="50.822" y2="56.742" gradientUnits="userSpaceOnUse"><stop stop-color="#46A29F"/><stop offset="1" stop-color="#4660A2"/></linearGradient><linearGradient id="paint14_linear" x1="45.331" y1="39.589" x2="47.541" y2="38.929" gradientUnits="userSpaceOnUse"><stop stop-color="#46A29F"/><stop offset="1" stop-color="#4660A2"/></linearGradient><linearGradient id="paint15_linear" x1="47.206" y1="39.589" x2="49.416" y2="38.929" gradientUnits="userSpaceOnUse"><stop stop-color="#46A29F"/><stop offset="1" stop-color="#4660A2"/></linearGradient><linearGradient id="paint16_linear" x1="49.08" y1="39.589" x2="51.291" y2="38.929" gradientUnits="userSpaceOnUse"><stop stop-color="#46A29F"/><stop offset="1" stop-color="#4660A2"/></linearGradient><linearGradient id="paint17_linear" x1="9.215" y1=".642" x2="15.99" y2="-21.486" gradientUnits="userSpaceOnUse"><stop stop-color="#46A29F"/><stop offset="1" stop-color="#4660A2"/></linearGradient><linearGradient id="paint18_linear" x1="9.215" y1="6.583" x2="75.178" y2="-22.795" gradientUnits="userSpaceOnUse"><stop stop-color="#46A29F"/><stop offset="1" stop-color="#4660A2"/></linearGradient><linearGradient id="paint19_linear" x1="11.734" y1="5.248" x2="39.376" y2="-28.753" gradientUnits="userSpaceOnUse"><stop stop-color="#46A29F"/><stop offset="1" stop-color="#4660A2"/></linearGradient><linearGradient id="paint20_linear" x1="15.514" y1="6.776" x2="16.67" y2="-1.122" gradientUnits="userSpaceOnUse"><stop stop-color="#46A29F"/><stop offset="1" stop-color="#4660A2"/></linearGradient><linearGradient id="paint21_linear" x1="28.213" y1="12.401" x2="30.048" y2="4.775" gradientUnits="userSpaceOnUse"><stop stop-color="#46A29F"/><stop offset="1" stop-color="#4660A2"/></linearGradient><linearGradient id="paint22_linear" x1="28.213" y1="14.276" x2="30.048" y2="6.65" gradientUnits="userSpaceOnUse"><stop stop-color="#46A29F"/><stop offset="1" stop-color="#4660A2"/></linearGradient><linearGradient id="paint23_linear" x1="28.213" y1="16.151" x2="30.048" y2="8.525" gradientUnits="userSpaceOnUse"><stop stop-color="#46A29F"/><stop offset="1" stop-color="#4660A2"/></linearGradient><linearGradient id="paint24_linear" x1="29.26" y1="18.026" x2="32.275" y2="11.313" gradientUnits="userSpaceOnUse"><stop stop-color="#46A29F"/><stop offset="1" stop-color="#4660A2"/></linearGradient><linearGradient id="paint25_linear" x1="14.151" y1="13.39" x2="42.745" y2="1.504" gradientUnits="userSpaceOnUse"><stop stop-color="#46A29F"/><stop offset="1" stop-color="#4660A2"/></linearGradient><linearGradient id="paint26_linear" x1="20.904" y1="16.284" x2="35.876" y2="11.098" gradientUnits="userSpaceOnUse"><stop stop-color="#46A29F"/><stop offset="1" stop-color="#4660A2"/></linearGradient><linearGradient id="paint27_linear" x1="18.511" y1="17.731" x2="28.026" y2="14.626" gradientUnits="userSpaceOnUse"><stop stop-color="#46A29F"/><stop offset="1" stop-color="#4660A2"/></linearGradient><linearGradient id="paint28_linear" x1="17.798" y1="13.767" x2="24.402" y2="11.806" gradientUnits="userSpaceOnUse"><stop stop-color="#46A29F"/><stop offset="1" stop-color="#4660A2"/></linearGradient><linearGradient id="paint29_linear" x1="29.37" y1="27.101" x2="31.764" y2="27.046" gradientUnits="userSpaceOnUse"><stop stop-color="#46A29F"/><stop offset="1" stop-color="#4660A2"/></linearGradient><linearGradient id="paint30_linear" x1="29.209" y1="35.06" x2="33.612" y2="33.752" gradientUnits="userSpaceOnUse"><stop stop-color="#46A29F"/><stop offset="1" stop-color="#4660A2"/></linearGradient><linearGradient id="paint31_linear" x1="28.271" y1="35.06" x2="32.674" y2="33.752" gradientUnits="userSpaceOnUse"><stop stop-color="#46A29F"/><stop offset="1" stop-color="#4660A2"/></linearGradient><linearGradient id="paint32_linear" x1="7.808" y1="30.762" x2="10.2" y2="30.672" gradientUnits="userSpaceOnUse"><stop stop-color="#46A29F"/><stop offset="1" stop-color="#4660A2"/></linearGradient><linearGradient id="paint33_linear" x1="7.646" y1="35.06" x2="12.049" y2="33.752" gradientUnits="userSpaceOnUse"><stop stop-color="#46A29F"/><stop offset="1" stop-color="#4660A2"/></linearGradient><linearGradient id="paint34_linear" x1="6.709" y1="35.06" x2="11.111" y2="33.752" gradientUnits="userSpaceOnUse"><stop stop-color="#46A29F"/><stop offset="1" stop-color="#4660A2"/></linearGradient><linearGradient id="paint35_linear" x1="18.663" y1="39.079" x2="28.993" y2="20.676" gradientUnits="userSpaceOnUse"><stop stop-color="#46A29F"/><stop offset="1" stop-color="#4660A2"/></linearGradient><linearGradient id="paint36_linear" x1="18.663" y1="44.807" x2="59.157" y2="34.501" gradientUnits="userSpaceOnUse"><stop stop-color="#46A29F"/><stop offset="1" stop-color="#4660A2"/></linearGradient><linearGradient id="paint37_linear" x1="22.39" y1="43.257" x2="35.941" y2="38.027" gradientUnits="userSpaceOnUse"><stop stop-color="#46A29F"/><stop offset="1" stop-color="#4660A2"/></linearGradient><linearGradient id="paint38_linear" x1="29.421" y1="42.401" x2="32.717" y2="36.041" gradientUnits="userSpaceOnUse"><stop stop-color="#46A29F"/><stop offset="1" stop-color="#4660A2"/></linearGradient><linearGradient id="paint39_linear" x1="29.421" y1="44.276" x2="32.717" y2="37.916" gradientUnits="userSpaceOnUse"><stop stop-color="#46A29F"/><stop offset="1" stop-color="#4660A2"/></linearGradient><linearGradient id="paint40_linear" x1="29.421" y1="46.151" x2="32.717" y2="39.791" gradientUnits="userSpaceOnUse"><stop stop-color="#46A29F"/><stop offset="1" stop-color="#4660A2"/></linearGradient><linearGradient id="paint41_linear" x1="29.421" y1="48.882" x2="42.972" y2="43.652" gradientUnits="userSpaceOnUse"><stop stop-color="#46A29F"/><stop offset="1" stop-color="#4660A2"/></linearGradient><linearGradient id="paint42_linear" x1="22.39" y1="48.026" x2="25.686" y2="41.666" gradientUnits="userSpaceOnUse"><stop stop-color="#46A29F"/><stop offset="1" stop-color="#4660A2"/></linearGradient><linearGradient id="paint43_linear" x1="22.39" y1="49.901" x2="25.686" y2="43.541" gradientUnits="userSpaceOnUse"><stop stop-color="#46A29F"/><stop offset="1" stop-color="#4660A2"/></linearGradient><linearGradient id="paint44_linear" x1="22.39" y1="51.776" x2="25.686" y2="45.416" gradientUnits="userSpaceOnUse"><stop stop-color="#46A29F"/><stop offset="1" stop-color="#4660A2"/></linearGradient><linearGradient id="paint45_linear" x1="22.39" y1="54.507" x2="35.941" y2="49.277" gradientUnits="userSpaceOnUse"><stop stop-color="#46A29F"/><stop offset="1" stop-color="#4660A2"/></linearGradient><linearGradient id="paint46_linear" x1="29.421" y1="53.651" x2="32.717" y2="47.291" gradientUnits="userSpaceOnUse"><stop stop-color="#46A29F"/><stop offset="1" stop-color="#4660A2"/></linearGradient><linearGradient id="paint47_linear" x1="29.421" y1="55.526" x2="32.717" y2="49.166" gradientUnits="userSpaceOnUse"><stop stop-color="#46A29F"/><stop offset="1" stop-color="#4660A2"/></linearGradient><linearGradient id="paint48_linear" x1="29.421" y1="57.401" x2="32.717" y2="51.041" gradientUnits="userSpaceOnUse"><stop stop-color="#46A29F"/><stop offset="1" stop-color="#4660A2"/></linearGradient><linearGradient id="paint49_linear" x1="-2.9" y1="39.079" x2="7.431" y2="20.676" gradientUnits="userSpaceOnUse"><stop stop-color="#46A29F"/><stop offset="1" stop-color="#4660A2"/></linearGradient><linearGradient id="paint50_linear" x1="-2.9" y1="44.807" x2="37.594" y2="34.501" gradientUnits="userSpaceOnUse"><stop stop-color="#46A29F"/><stop offset="1" stop-color="#4660A2"/></linearGradient><linearGradient id="paint51_linear" x1="-.38" y1="43.471" x2="22.279" y2="27.773" gradientUnits="userSpaceOnUse"><stop stop-color="#46A29F"/><stop offset="1" stop-color="#4660A2"/></linearGradient><linearGradient id="paint52_linear" x1="1.231" y1="50.034" x2="10.451" y2="48.209" gradientUnits="userSpaceOnUse"><stop stop-color="#46A29F"/><stop offset="1" stop-color="#4660A2"/></linearGradient><linearGradient id="paint53_linear" x1="5.918" y1="50.034" x2="15.138" y2="48.209" gradientUnits="userSpaceOnUse"><stop stop-color="#46A29F"/><stop offset="1" stop-color="#4660A2"/></linearGradient><linearGradient id="paint54_linear" x1="10.606" y1="50.034" x2="19.826" y2="48.209" gradientUnits="userSpaceOnUse"><stop stop-color="#46A29F"/><stop offset="1" stop-color="#4660A2"/></linearGradient><linearGradient id="paint55_linear" x1="-.38" y1="55.526" x2="1.454" y2="47.9" gradientUnits="userSpaceOnUse"><stop stop-color="#46A29F"/><stop offset="1" stop-color="#4660A2"/></linearGradient><linearGradient id="paint56_linear" x1="2.139" y1="57.401" x2="4.579" y2="50.156" gradientUnits="userSpaceOnUse"><stop stop-color="#46A29F"/><stop offset="1" stop-color="#4660A2"/></linearGradient><linearGradient id="paint57_linear" x1="40.225" y1="39.079" x2="50.556" y2="20.676" gradientUnits="userSpaceOnUse"><stop stop-color="#46A29F"/><stop offset="1" stop-color="#4660A2"/></linearGradient><linearGradient id="paint58_linear" x1="40.225" y1="44.807" x2="80.719" y2="34.501" gradientUnits="userSpaceOnUse"><stop stop-color="#46A29F"/><stop offset="1" stop-color="#4660A2"/></linearGradient><linearGradient id="paint59_linear" x1="42.745" y1="45.56" x2="67.537" y2="30.838" gradientUnits="userSpaceOnUse"><stop stop-color="#46A29F"/><stop offset="1" stop-color="#4660A2"/></linearGradient><linearGradient id="paint60_linear" x1="45.264" y1="42.401" x2="47.704" y2="35.156" gradientUnits="userSpaceOnUse"><stop stop-color="#46A29F"/><stop offset="1" stop-color="#4660A2"/></linearGradient><linearGradient id="paint61_linear" x1="42.745" y1="51.776" x2="44.579" y2="44.15" gradientUnits="userSpaceOnUse"><stop stop-color="#46A29F"/><stop offset="1" stop-color="#4660A2"/></linearGradient><linearGradient id="paint62_linear" x1="42.745" y1="53.651" x2="44.579" y2="46.025" gradientUnits="userSpaceOnUse"><stop stop-color="#46A29F"/><stop offset="1" stop-color="#4660A2"/></linearGradient><linearGradient id="paint63_linear" x1="43.711" y1="55.526" x2="46.596" y2="48.673" gradientUnits="userSpaceOnUse"><stop stop-color="#46A29F"/><stop offset="1" stop-color="#4660A2"/></linearGradient><linearGradient id="paint64_linear" x1="4.505" y1="29.276" x2="5.739" y2="21.402" gradientUnits="userSpaceOnUse"><stop stop-color="#46A29F"/><stop offset="1" stop-color="#4660A2"/></linearGradient><linearGradient id="paint65_linear" x1="50.932" y1="30.762" x2="53.324" y2="30.672" gradientUnits="userSpaceOnUse"><stop stop-color="#46A29F"/><stop offset="1" stop-color="#4660A2"/></linearGradient><linearGradient id="paint66_linear" x1="49.834" y1="35.06" x2="54.236" y2="33.752" gradientUnits="userSpaceOnUse"><stop stop-color="#46A29F"/><stop offset="1" stop-color="#4660A2"/></linearGradient><linearGradient id="paint67_linear" x1="50.771" y1="35.06" x2="55.174" y2="33.752" gradientUnits="userSpaceOnUse"><stop stop-color="#46A29F"/><stop offset="1" stop-color="#4660A2"/></linearGradient><linearGradient id="paint68_linear" x1="28.411" y1="29.276" x2="29.645" y2="21.402" gradientUnits="userSpaceOnUse"><stop stop-color="#46A29F"/><stop offset="1" stop-color="#4660A2"/></linearGradient><clipPath id="clip0"><path fill="#fff" d="M0 0h60v60H0z"/></clipPath></defs></svg>