<svg width="80" height="80" fill="none" xmlns="http://www.w3.org/2000/svg"><g clip-path="url(#clip0_14181_2275)"><path d="M79.667 34.672c0 7.57-13.869 11.968-16.07 19.988-2.202 8.019-6.413 11.856-16.73 11.856-8.409 0-4.844-5.77-21.882-8.121-17.04-2.351-12.456-12.02-7.167-20.885C23.834 26.485 26.624 21 30.964 13.727c4.34-7.274 6.047-10.9 15.902-10.9 8.26 0 19.152-4.59 21.574 7.857 2.421 12.447 11.227 14.42 11.227 23.988z" fill="url(#paint0_linear_14181_2275)"/><path d="M71.686 20.49c-4.142 7.175-5.282 14.271-12.696 9.99C51.577 26.2 50.608 15 54.75 7.826 58.892.651 66.577.22 73.99 4.5c7.414 4.28 1.839 8.816-2.303 15.99z" fill="#F7FBFB"/><path fill-rule="evenodd" clip-rule="evenodd" d="M9.5 40h8c1.627.343 5.451.631 8.764.881 3.133.237 5.808.438 5.736.619-.531 1.328.913 1.01 2.684.62 1.563-.345 3.379-.745 4.316-.12 2.117-.193 2.79 3.006 3.365 5.742.421 2.003.79 3.758 1.635 3.758.448 0 1.214-.288 2.192-.74 1.155-.19 2.541-.858 3.847-1.919C54.632 46.525 60.418 43.848 63 46c3 2.5-12.5 16.5-14 17.5-.188.125-.5.36-.914.67-2.898 2.174-10.773 8.08-15.586 6.33-4.4-1.6-17.5-5.333-23.5-7L9.5 40z" fill="#fff"/><path d="M58.099 44.27L37.36 56.276 27 53l3.203-2.34 8.547-.16c2.75-.5 4.75-1.742 4.75-4.5s-1.992-4.898-4.75-4.898h-8.547l-3.558-1.184a1.257 1.257 0 00-.395-.066H10v-.963c0-.692-.559-1.537-1.25-1.537H0l-.1 1.537h8.6V66H0v1.353h8.75c.691 0 1.25-.273 1.25-.964v-1.014l25.225 4.386a6.307 6.307 0 004.714-1.079L63.042 51.86c.99-.72 1.778-1.649 1.958-2.86.183-1.21-.265-2.523-1-3.5-1.5-1.5-3.913-2.383-5.901-1.23zM63 48.5c-.081.544-1.056 1.676-1.5 2L38.713 67.3c-.81.58-2.227.871-3.213.7L10 63.72V41.5h16l4 1c.129.042.5 0 1 0h8c1.379 0 3 2.224 3 3.602 0 1.38-1.871 3.054-3.25 3.054H30c-.285 0-.777.166-1 .344l-2.5 2H20V53h2.5L37 58c.339.114.689.18 1 0l21.5-12.5c.893-.514 2.381.174 3 1 .33.439.583 1.458.5 2z" fill="url(#paint1_linear_14181_2275)"/><path d="M44.642 32.29c-2.062-.24-3.985-.452-6.142-.115-1.931.304-3.855 1.126-4.5 3.5h1.5c.117-.787 1.95-1.836 3-2 1.821-.287 4.017-.23 6 0 2.021.235 3.885.808 6 .5 1.574-.23 2.439-.506 3-1.5l-1.5-.5c-.157.279-1.254.392-2 .5-1.795.259-3.413-.158-5.358-.385z" fill="url(#paint2_linear_14181_2275)"/><path d="M31.788 27.063c1.997.06 3.65.846 5.712 1.437.934.267 2.059.597 3 .818 4.161.981 7.541.372 10-1.318l-1-1c-1.855 1.276-5.113 1.297-8.5.5-.903-.212-2.031-.426-2.925-.682-2.117-.606-3.978-1.577-6.288-1.647-4.2-.104-8.38 1.639-10.86 4.829l1.648.818c1.999-2.572 5.785-3.872 9.213-3.755z" fill="url(#paint3_linear_14181_2275)"/><path d="M48.89 16.628a7.441 7.441 0 01-1.601-2.438 7.566 7.566 0 01-.552-2.881c0-1.999.777-3.916 2.162-5.329a7.306 7.306 0 015.22-2.207c2.744 0 5.14 1.525 6.408 3.794h1.946a7.446 7.446 0 012.703-2.78 7.25 7.25 0 013.706-1.014 7.31 7.31 0 015.22 2.207 7.616 7.616 0 012.161 5.329 7.732 7.732 0 01-2.154 5.319L61.5 29.482 48.89 16.628zm26.435 1.259A9.402 9.402 0 0078 11.308c0-2.468-.96-4.836-2.67-6.582A9.025 9.025 0 0068.881 2c-3.04 0-5.732 1.507-7.382 3.848a9.118 9.118 0 00-3.235-2.836A8.913 8.913 0 0054.118 2c-2.418 0-4.737.98-6.447 2.726A9.408 9.408 0 0045 11.31a9.402 9.402 0 002.675 6.578L61.5 32l13.825-14.113z" fill="url(#paint4_linear_14181_2275)"/></g><defs><linearGradient id="paint0_linear_14181_2275" x1="13" y1="2" x2="92.423" y2="29.022" gradientUnits="userSpaceOnUse"><stop stop-color="#FDF4FA"/><stop offset="1" stop-color="#fff"/></linearGradient><linearGradient id="paint1_linear_14181_2275" x1="-11.294" y1="44.771" x2="111.613" y2="-28.375" gradientUnits="userSpaceOnUse"><stop stop-color="#46A29F"/><stop offset="1" stop-color="#4660A2"/></linearGradient><linearGradient id="paint2_linear_14181_2275" x1="30.649" y1="32.839" x2="44.959" y2="10.296" gradientUnits="userSpaceOnUse"><stop stop-color="#46A29F"/><stop offset="1" stop-color="#4660A2"/></linearGradient><linearGradient id="paint3_linear_14181_2275" x1="15.846" y1="26.457" x2="37.979" y2="-7.931" gradientUnits="userSpaceOnUse"><stop stop-color="#46A29F"/><stop offset="1" stop-color="#4660A2"/></linearGradient><linearGradient id="paint4_linear_14181_2275" x1="39.329" y1="8.848" x2="115.519" y2="-16.036" gradientUnits="userSpaceOnUse"><stop stop-color="#46A29F"/><stop offset="1" stop-color="#4660A2"/></linearGradient><clipPath id="clip0_14181_2275"><path fill="#fff" d="M0 0h80v80H0z"/></clipPath></defs></svg>