<svg width="80" height="80" fill="none" xmlns="http://www.w3.org/2000/svg"><path d="M73.333 48.156c0 7.57-13.868 11.968-16.07 19.987C55.062 76.163 50.851 80 40.533 80c-8.408 0-4.843-5.77-21.882-8.121-17.039-2.351-12.455-12.02-7.166-20.885C17.5 39.969 20.29 34.484 24.63 27.21c4.34-7.274 6.047-10.9 15.903-10.9 8.26 0 19.152-4.59 21.573 7.857 2.422 12.447 11.227 14.42 11.227 23.988z" fill="url(#paint0_linear_14181_2289)"/><g clip-path="url(#clip0_14181_2289)"><g clip-path="url(#clip1_14181_2289)"><mask id="a" fill="#fff"><path d="M8.748 30.242c.25 0 .494 0 .738-.036l.512 2.685c.063.321.255.604.534.788.28.184.622.253.954.192.331-.061.624-.247.814-.517a1.2 1.2 0 00.198-.922l-.575-2.795c2.066-.779 3.749-2.287 4.71-4.22a8.218 8.218 0 00.465-6.195l16.782-7.779c.387.53.845 1.008 1.362 1.422l-13.75 19.107c-.169.263-.227.58-.162.883.065.303.248.571.51.748a1.283 1.283 0 001.702-.252l13.887-19.282a7.25 7.25 0 001.32.338v10.391c0 .321.131.629.365.856.235.227.553.354.884.354.332 0 .65-.127.884-.354a1.19 1.19 0 00.366-.856v-10.39a7.28 7.28 0 001.319-.34l13.906 19.283c.09.14.208.26.347.354a1.273 1.273 0 00.966.193 1.27 1.27 0 00.463-.192 1.23 1.23 0 00.347-.353 1.185 1.185 0 00.15-.944 1.195 1.195 0 00-.223-.437l-13.75-19.107a7.449 7.449 0 001.363-1.421l16.781 7.796a8.218 8.218 0 00.466 6.18c.957 1.928 2.633 3.435 4.69 4.217l-.575 2.794a1.171 1.171 0 00.155.948c.091.139.21.259.351.352a1.272 1.272 0 00.973.182 1.27 1.27 0 00.462-.2 1.186 1.186 0 00.51-.822l.537-2.685c.243 0 .487.036.737.036a8.978 8.978 0 004.312-1.098 8.626 8.626 0 003.194-3.01 8.268 8.268 0 001.245-4.144 8.247 8.247 0 00-1.026-4.199 8.583 8.583 0 00-3.03-3.165 8.954 8.954 0 00-4.248-1.309 8.996 8.996 0 00-4.364.887 8.666 8.666 0 00-3.345 2.852L47.198 9.26c.2-.65.3-1.324.3-2.002 0-1.925-.79-3.771-2.196-5.132A7.629 7.629 0 0039.998 0a7.63 7.63 0 00-5.303 2.126 7.141 7.141 0 00-2.197 5.132c0 .678.102 1.352.3 2.002l-16.787 7.796a8.667 8.667 0 00-3.346-2.852 8.996 8.996 0 00-4.363-.887 8.954 8.954 0 00-4.248 1.31 8.583 8.583 0 00-3.03 3.164 8.247 8.247 0 00-1.027 4.2 8.267 8.267 0 001.246 4.142 8.626 8.626 0 003.193 3.011 8.978 8.978 0 004.312 1.098zm62.5-14.516a6.4 6.4 0 013.473 1.02 6.096 6.096 0 012.301 2.714 5.867 5.867 0 01.356 3.494 5.991 5.991 0 01-1.71 3.097 6.318 6.318 0 01-3.2 1.655 6.444 6.444 0 01-3.612-.344 6.21 6.21 0 01-2.804-2.227 5.91 5.91 0 01-1.054-3.36c0-1.605.659-3.143 1.83-4.278a6.357 6.357 0 014.42-1.771zM39.998 2.419a5.12 5.12 0 012.778.816 4.877 4.877 0 011.842 2.171c.378.885.477 1.857.284 2.796a4.8 4.8 0 01-1.368 2.478 5.053 5.053 0 01-2.56 1.324 5.16 5.16 0 01-2.89-.276 4.968 4.968 0 01-2.243-1.782 4.728 4.728 0 01-.843-2.688c0-1.283.527-2.514 1.465-3.421a5.086 5.086 0 013.535-1.418zM8.748 15.726a6.4 6.4 0 013.473 1.02 6.096 6.096 0 012.302 2.714 5.867 5.867 0 01.355 3.494 5.991 5.991 0 01-1.71 3.097 6.318 6.318 0 01-3.2 1.655 6.444 6.444 0 01-3.612-.344 6.21 6.21 0 01-2.804-2.227 5.91 5.91 0 01-1.054-3.36c0-1.605.659-3.143 1.83-4.278a6.357 6.357 0 014.42-1.771z"/></mask><path d="M8.748 30.242c.25 0 .494 0 .738-.036l.512 2.685c.063.321.255.604.534.788.28.184.622.253.954.192.331-.061.624-.247.814-.517a1.2 1.2 0 00.198-.922l-.575-2.795c2.066-.779 3.749-2.287 4.71-4.22a8.218 8.218 0 00.465-6.195l16.782-7.779c.387.53.845 1.008 1.362 1.422l-13.75 19.107c-.169.263-.227.58-.162.883.065.303.248.571.51.748a1.283 1.283 0 001.702-.252l13.887-19.282a7.25 7.25 0 001.32.338v10.391c0 .321.131.629.365.856.235.227.553.354.884.354.332 0 .65-.127.884-.354a1.19 1.19 0 00.366-.856v-10.39a7.28 7.28 0 001.319-.34l13.906 19.283c.09.14.208.26.347.354a1.273 1.273 0 00.966.193 1.27 1.27 0 00.463-.192 1.23 1.23 0 00.347-.353 1.185 1.185 0 00.15-.944 1.195 1.195 0 00-.223-.437l-13.75-19.107a7.449 7.449 0 001.363-1.421l16.781 7.796a8.218 8.218 0 00.466 6.18c.957 1.928 2.633 3.435 4.69 4.217l-.575 2.794a1.171 1.171 0 00.155.948c.091.139.21.259.351.352a1.272 1.272 0 00.973.182 1.27 1.27 0 00.462-.2 1.186 1.186 0 00.51-.822l.537-2.685c.243 0 .487.036.737.036a8.978 8.978 0 004.312-1.098 8.626 8.626 0 003.194-3.01 8.268 8.268 0 001.245-4.144 8.247 8.247 0 00-1.026-4.199 8.583 8.583 0 00-3.03-3.165 8.954 8.954 0 00-4.248-1.309 8.996 8.996 0 00-4.364.887 8.666 8.666 0 00-3.345 2.852L47.198 9.26c.2-.65.3-1.324.3-2.002 0-1.925-.79-3.771-2.196-5.132A7.629 7.629 0 0039.998 0a7.63 7.63 0 00-5.303 2.126 7.141 7.141 0 00-2.197 5.132c0 .678.102 1.352.3 2.002l-16.787 7.796a8.667 8.667 0 00-3.346-2.852 8.996 8.996 0 00-4.363-.887 8.954 8.954 0 00-4.248 1.31 8.583 8.583 0 00-3.03 3.164 8.247 8.247 0 00-1.027 4.2 8.267 8.267 0 001.246 4.142 8.626 8.626 0 003.193 3.011 8.978 8.978 0 004.312 1.098zm62.5-14.516a6.4 6.4 0 013.473 1.02 6.096 6.096 0 012.301 2.714 5.867 5.867 0 01.356 3.494 5.991 5.991 0 01-1.71 3.097 6.318 6.318 0 01-3.2 1.655 6.444 6.444 0 01-3.612-.344 6.21 6.21 0 01-2.804-2.227 5.91 5.91 0 01-1.054-3.36c0-1.605.659-3.143 1.83-4.278a6.357 6.357 0 014.42-1.771zM39.998 2.419a5.12 5.12 0 012.778.816 4.877 4.877 0 011.842 2.171c.378.885.477 1.857.284 2.796a4.8 4.8 0 01-1.368 2.478 5.053 5.053 0 01-2.56 1.324 5.16 5.16 0 01-2.89-.276 4.968 4.968 0 01-2.243-1.782 4.728 4.728 0 01-.843-2.688c0-1.283.527-2.514 1.465-3.421a5.086 5.086 0 013.535-1.418zM8.748 15.726a6.4 6.4 0 013.473 1.02 6.096 6.096 0 012.302 2.714 5.867 5.867 0 01.355 3.494 5.991 5.991 0 01-1.71 3.097 6.318 6.318 0 01-3.2 1.655 6.444 6.444 0 01-3.612-.344 6.21 6.21 0 01-2.804-2.227 5.91 5.91 0 01-1.054-3.36c0-1.605.659-3.143 1.83-4.278a6.357 6.357 0 014.42-1.771z" fill="url(#paint1_linear_14181_2289)" stroke="#fff" mask="url(#a)"/><path d="M64.07 58.42a13.657 13.657 0 00-6.448 1.589c-.234.124-.51.153-.767.08a.993.993 0 01-.596-.463.925.925 0 01-.081-.725.968.968 0 01.477-.573 15.581 15.581 0 012.325-.988l.472-.157-.408-.285a7.474 7.474 0 01-2.353-2.672 7.2 7.2 0 01-.815-3.416h0V40.524h0v-.005a3.776 3.776 0 01.288-1.534 3.89 3.89 0 01.889-1.303 4.046 4.046 0 011.35-.862 4.157 4.157 0 011.593-.28h8.13v0h.005a4.157 4.157 0 011.594.28c.506.197.965.49 1.35.862.384.373.686.816.888 1.303.202.487.3 1.009.288 1.534h0V50.81a7.211 7.211 0 01-.825 3.433 7.49 7.49 0 01-2.374 2.679l-.4.278.46.163c3.1 1.1 5.78 3.09 7.681 5.702a15.35 15.35 0 012.958 8.912.94.94 0 01-.29.674 1.022 1.022 0 01-.71.285c-.268 0-.523-.104-.71-.285a.94.94 0 01-.29-.675c0-7.35-6.264-13.556-13.681-13.557zm0 0s0 0 0 0v.25-.25s0 0 0 0zm-5.169-1.317l-.143.205a8.16 8.16 0 01-.147-.106l.29-.1zm0 0l-.079-.237-.168.057c.08.061.163.121.247.18zm10.294.024c.083-.058.165-.117.245-.177l-.162-.059-.083.236zm0 0l.142.206.143-.102-.285-.104zM70 43.798h.25v-3.267a1.916 1.916 0 00-.13-.809 1.964 1.964 0 00-.463-.692 2.034 2.034 0 00-.711-.446 2.079 2.079 0 00-.828-.124h-8.111a2.079 2.079 0 00-.828.124c-.266.099-.508.25-.71.446a1.956 1.956 0 00-.463.692 1.918 1.918 0 00-.131.81v3.266H70zm-11.875 1.92h-.25v5.088c0 3.262 2.696 5.694 6.194 5.694 3.499 0 6.181-2.433 6.181-5.694v-5.088H58.126z" fill="url(#paint2_linear_14181_2289)" stroke="#fff" stroke-width=".5"/><path d="M22.806 58.1l.003.002a.973.973 0 01.496.558c.081.24.06.502-.058.728a.99.99 0 01-.58.48 1.04 1.04 0 01-.769-.056 13.534 13.534 0 00-5.954-1.393h-.003c-3.669.044-7.17 1.495-9.738 4.036-2.567 2.54-3.99 5.965-3.953 9.522a.94.94 0 01-.29.674 1.022 1.022 0 01-.71.285c-.268 0-.523-.104-.71-.285a.94.94 0 01-.29-.675v-.001a15.13 15.13 0 012.897-8.947c1.899-2.621 4.592-4.61 7.71-5.689l.463-.16-.402-.281a7.474 7.474 0 01-2.352-2.672 7.199 7.199 0 01-.816-3.416h0V40.524h0v-.005a3.775 3.775 0 01.288-1.534 3.89 3.89 0 01.889-1.303 4.046 4.046 0 011.35-.862 4.157 4.157 0 011.593-.28H20v0h.006a4.157 4.157 0 011.593.28c.506.197.965.49 1.35.862.384.373.686.816.888 1.303.202.487.3 1.009.288 1.534h0V50.81a7.2 7.2 0 01-.82 3.425 7.475 7.475 0 01-2.366 2.675l-.403.28.463.161c.306.106 1.52.604 1.807.75zm-.93-14.302h.25v-3.267a1.916 1.916 0 00-.131-.809 1.964 1.964 0 00-.463-.692 2.034 2.034 0 00-.711-.446 2.079 2.079 0 00-.828-.124h-8.111a2.079 2.079 0 00-.828.124c-.266.099-.508.25-.71.446l.173.18-.174-.18c-.202.196-.36.432-.462.692a1.917 1.917 0 00-.13.81v3.266h12.124zM10 45.718h-.25v5.088c0 3.262 2.696 5.694 6.194 5.694 3.499 0 6.181-2.433 6.181-5.694v-5.088H10z" fill="url(#paint3_linear_14181_2289)" stroke="#fff" stroke-width=".5"/><path d="M45.303 56.81l.512-.293a10.394 10.394 0 003.785-3.709 9.962 9.962 0 001.4-5.027v-13.91a5.106 5.106 0 00-1.57-3.67 5.472 5.472 0 00-3.804-1.524h-11.25c-1.429 0-2.797.55-3.804 1.524A5.106 5.106 0 0029 33.871V47.78c.035 1.76.535 3.483 1.455 5.004a10.486 10.486 0 003.8 3.684l.526.299-.583.16c-4.328 1.185-8.13 3.718-10.82 7.203-2.69 3.485-4.118 7.73-4.065 12.077v.003a.94.94 0 00.29.675c.187.181.442.284.71.284.268 0 .523-.103.71-.284a.94.94 0 00.29-.674 17.428 17.428 0 011.362-6.967 17.896 17.896 0 014.046-5.91 18.573 18.573 0 016.093-3.93 19.053 19.053 0 017.188-1.336s0 0 0 0l-.002.25c4.896.012 9.586 1.902 13.043 5.256 3.456 3.354 5.397 7.898 5.395 12.636l-13.136-19.4zm0 0l.567.164c4.282 1.239 8.036 3.78 10.705 7.246 2.669 3.465 4.111 7.67 4.114 11.99a.94.94 0 01-.29.675 1.02 1.02 0 01-.71.284 1.02 1.02 0 01-.71-.284.94.94 0 01-.29-.675l-13.386-19.4zm3.449-18.455h.25V33.87c0-.871-.358-1.705-.992-2.318a3.429 3.429 0 00-2.383-.956h-11.25a3.43 3.43 0 00-2.384.956 3.226 3.226 0 00-.991 2.318v4.484h17.75zm-17.5 1.92h-.25v7.507c0 4.556 4.252 8.367 9.075 8.367 4.828 0 8.925-3.816 8.925-8.367v-7.508h-17.75z" fill="url(#paint4_linear_14181_2289)" stroke="#fff" stroke-width=".5"/><ellipse cx="8.666" cy="22.581" rx="6" ry="5.806" fill="#DEEEEE"/><ellipse cx="40" cy="76.129" rx="17.333" ry="16.774" fill="#DEEEEE"/><path d="M77.333 72.258c0-2.389-.65-4.73-1.88-6.765a12.758 12.758 0 00-5.083-4.756 12.468 12.468 0 00-13.234 1.146l7.53 10.375h12.667zm-54.167-11.4a14.206 14.206 0 00-6.956-1.936c-2.435-.032-4.801.576-6.834 1.756-2.033 1.18-3.654 2.884-4.682 4.925a11.561 11.561 0 00-1.14 6.633h13.78l5.832-11.378z" fill="#DEEEEE"/><ellipse cx="40.667" cy="7.097" rx="4.667" ry="4.516" fill="#DEEEEE"/><ellipse cx="70" cy="22.581" rx="4.667" ry="4.516" fill="#DEEEEE"/></g></g><defs><linearGradient id="paint0_linear_14181_2289" x1="6.667" y1="15.484" x2="86.09" y2="42.506" gradientUnits="userSpaceOnUse"><stop stop-color="#ECF6F5"/><stop offset="1" stop-color="#fff"/></linearGradient><linearGradient id="paint1_linear_14181_2289" x1="-13.749" y1="7.748" x2="123.447" y2="-88.245" gradientUnits="userSpaceOnUse"><stop stop-color="#46A29F"/><stop offset="1" stop-color="#4660A2"/></linearGradient><linearGradient id="paint2_linear_14181_2289" x1="51.436" y1="44.712" x2="111.411" y2="32.947" gradientUnits="userSpaceOnUse"><stop stop-color="#46A29F"/><stop offset="1" stop-color="#4660A2"/></linearGradient><linearGradient id="paint3_linear_14181_2289" x1="-4.189" y1="44.712" x2="55.786" y2="32.947" gradientUnits="userSpaceOnUse"><stop stop-color="#46A29F"/><stop offset="1" stop-color="#4660A2"/></linearGradient><linearGradient id="paint4_linear_14181_2289" x1="11.867" y1="39.611" x2="112.389" y2="14.099" gradientUnits="userSpaceOnUse"><stop stop-color="#46A29F"/><stop offset="1" stop-color="#4660A2"/></linearGradient><clipPath id="clip0_14181_2289"><path fill="#fff" d="M0 0h80v77.419H0z"/></clipPath><clipPath id="clip1_14181_2289"><path fill="#fff" d="M0 0h80v77.419H0z"/></clipPath></defs></svg>