<svg width="80" height="80" fill="none" xmlns="http://www.w3.org/2000/svg"><path opacity=".4" d="M80 45.372c0 6.805-12.482 10.76-14.463 17.969C63.556 70.55 59.766 74 50.48 74c-7.567 0-4.359-5.188-19.694-7.301-15.335-2.114-11.21-10.806-6.45-18.776 5.415-9.911 7.926-14.842 11.831-21.38 3.906-6.54 5.443-9.8 14.313-9.8 7.434 0 17.236-4.126 19.416 7.064C72.076 34.997 80 36.77 80 45.372z" fill="url(#paint0_linear_14181_2135)"/><path d="M28.375 61.377a.872.872 0 01-.502-.8l.045-6.88c.03-4.842 2.992-9.23 7.43-11.107l.03-4.734c-4.416-1.944-7.317-6.36-7.286-11.202l.044-6.88a.879.879 0 01.883-.873l22.548.146a.882.882 0 01.873.884l-.044 6.879c-.031 4.842-2.991 9.23-7.428 11.107l-.032 4.733c4.434 1.956 7.318 6.36 7.285 11.202l-.043 6.88a.878.878 0 01-.884.872l-22.549-.143a.865.865 0 01-.37-.084zm8.26-24.902a.878.878 0 01.501.798l-.037 5.923a.877.877 0 01-.578.819c-4.068 1.481-6.82 5.377-6.847 9.694l-.038 6.002 20.792.133.038-6c.027-4.319-2.677-8.26-6.722-9.782a.873.873 0 01-.568-.826l.039-5.923a.878.878 0 01.577-.82c4.068-1.48 6.82-5.376 6.846-9.693l.039-6-20.792-.134-.04 6c-.027 4.318 2.681 8.242 6.723 9.782a.502.502 0 01.067.027z" fill="url(#paint1_linear_14181_2135)"/><path d="M40.585 48.554L40.69 35.3a5.18 5.18 0 004.346-5.068l-10.365-.084a5.18 5.18 0 004.263 5.137l-.107 13.255a8.789 8.789 0 00-7.98 8.68l17.576.141a8.788 8.788 0 00-7.84-8.807z" fill="#DEEEEE"/><path d="M53.42 10.317a.921.921 0 00-.457-1.24 34.962 34.962 0 1020.463 37.92.921.921 0 00-.786-1.063.962.962 0 00-1.077.796 33.08 33.08 0 11-19.4-35.95.962.962 0 001.257-.463z" fill="url(#paint2_linear_14181_2135)"/><circle cx="57.25" cy="12.068" r="1.614" fill="url(#paint3_linear_14181_2135)"/><circle cx="61.553" cy="15.295" r="1.614" fill="url(#paint4_linear_14181_2135)"/><circle cx="64.78" cy="18.523" r="1.614" fill="url(#paint5_linear_14181_2135)"/><circle cx="68.008" cy="21.75" r="1.614" fill="url(#paint6_linear_14181_2135)"/><circle cx="70.159" cy="26.053" r="1.614" fill="url(#paint7_linear_14181_2135)"/><circle cx="72.31" cy="31.432" r="1.614" fill="url(#paint8_linear_14181_2135)"/><circle cx="73.387" cy="36.811" r="1.614" fill="url(#paint9_linear_14181_2135)"/><circle cx="73.387" cy="42.189" r="1.614" fill="url(#paint10_linear_14181_2135)"/><path d="M50.258 4l3.227 6.454" stroke="url(#paint11_linear_14181_2135)" stroke-width="1.5" stroke-linecap="round"/><path d="M45.893 12.075l7.088-1.352" stroke="url(#paint12_linear_14181_2135)" stroke-width="1.5" stroke-linecap="round"/><defs><linearGradient id="paint0_linear_14181_2135" x1="20" y1="16" x2="91.464" y2="40.341" gradientUnits="userSpaceOnUse"><stop stop-color="#ECF6F5"/><stop offset="1" stop-color="#EBF0F6"/></linearGradient><linearGradient id="paint1_linear_14181_2135" x1="21.836" y1="17.052" x2="117.711" y2="36.965" gradientUnits="userSpaceOnUse"><stop stop-color="#46A29F"/><stop offset="1" stop-color="#4660A2"/></linearGradient><linearGradient id="paint2_linear_14181_2135" x1="-8.016" y1="22.114" x2="156.171" y2="-26.636" gradientUnits="userSpaceOnUse"><stop stop-color="#46A29F"/><stop offset="1" stop-color="#4660A2"/></linearGradient><linearGradient id="paint3_linear_14181_2135" x1="55.082" y1="11.191" x2="62.66" y2="8.941" gradientUnits="userSpaceOnUse"><stop stop-color="#46A29F"/><stop offset="1" stop-color="#4660A2"/></linearGradient><linearGradient id="paint4_linear_14181_2135" x1="59.385" y1="14.418" x2="66.963" y2="12.168" gradientUnits="userSpaceOnUse"><stop stop-color="#46A29F"/><stop offset="1" stop-color="#4660A2"/></linearGradient><linearGradient id="paint5_linear_14181_2135" x1="62.612" y1="17.646" x2="70.19" y2="15.396" gradientUnits="userSpaceOnUse"><stop stop-color="#46A29F"/><stop offset="1" stop-color="#4660A2"/></linearGradient><linearGradient id="paint6_linear_14181_2135" x1="65.84" y1="20.873" x2="73.417" y2="18.623" gradientUnits="userSpaceOnUse"><stop stop-color="#46A29F"/><stop offset="1" stop-color="#4660A2"/></linearGradient><linearGradient id="paint7_linear_14181_2135" x1="67.991" y1="25.176" x2="75.569" y2="22.926" gradientUnits="userSpaceOnUse"><stop stop-color="#46A29F"/><stop offset="1" stop-color="#4660A2"/></linearGradient><linearGradient id="paint8_linear_14181_2135" x1="70.142" y1="30.555" x2="77.72" y2="28.305" gradientUnits="userSpaceOnUse"><stop stop-color="#46A29F"/><stop offset="1" stop-color="#4660A2"/></linearGradient><linearGradient id="paint9_linear_14181_2135" x1="71.218" y1="35.934" x2="78.796" y2="33.684" gradientUnits="userSpaceOnUse"><stop stop-color="#46A29F"/><stop offset="1" stop-color="#4660A2"/></linearGradient><linearGradient id="paint10_linear_14181_2135" x1="71.218" y1="41.313" x2="78.796" y2="39.063" gradientUnits="userSpaceOnUse"><stop stop-color="#46A29F"/><stop offset="1" stop-color="#4660A2"/></linearGradient><linearGradient id="paint11_linear_14181_2135" x1="49.499" y1="2.993" x2="57.294" y2="2.783" gradientUnits="userSpaceOnUse"><stop stop-color="#46A29F"/><stop offset="1" stop-color="#4660A2"/></linearGradient><linearGradient id="paint12_linear_14181_2135" x1="44.717" y1="12.532" x2="46.632" y2="4.973" gradientUnits="userSpaceOnUse"><stop stop-color="#46A29F"/><stop offset="1" stop-color="#4660A2"/></linearGradient></defs></svg>