<svg width="80" height="80" fill="none" xmlns="http://www.w3.org/2000/svg"><g clip-path="url(#clip0)"><path d="M70.874.625H9.625v78.75h61.25V.625z" fill="#fff"/><path d="M60.875 75.625h-47.5V4.375h53.75v65l-6.25 6.25z" fill="#fff"/><path d="M52.308.625H28.14l3.359 5H49l3.307-5z" fill="#F0F4F4"/><path d="M28.14.625l3.36 5h1.25l-3.36-5h-1.25zm24.833 0l-3.36 5h-1.25l3.36-5h1.25z" fill="#fff"/><path d="M10.875.625h-1.25v78.75h1.25V.625z" fill="#F0F4F4"/><path d="M70.875.625h-1.25v78.75h1.25V.625zM60.25 76.25h7.5v-7.5l-7.5 7.5zM49.001 5.625H31.5l-2.52-3.75h-.84l3.36 5H49l3.307-5h-.828L49 5.625z" fill="#fff"/><path d="M28.125 40a4 4 0 11-8 0 4 4 0 118 0z" fill="#F0F4F4"/><path d="M19.308 40.442a.624.624 0 01.442-1.067h8.75a.625.625 0 110 1.25h-8.75a.622.622 0 01-.442-.183z" fill="url(#paint0_linear)"/><path d="M23.683 35.183a.624.624 0 011.067.442v8.75a.625.625 0 11-1.25 0v-8.75c0-.173.07-.329.183-.442z" fill="url(#paint1_linear)"/><path d="M28.125 23a4 4 0 11-8 0 4 4 0 118 0zm-.375 34.75a3.75 3.75 0 11-7.5 0 3.75 3.75 0 117.5 0z" fill="#F0F4F4"/><path d="M19.308 58.067A.624.624 0 0119.75 57h8.75a.625.625 0 110 1.25h-8.75a.622.622 0 01-.442-.183z" fill="url(#paint2_linear)"/><path d="M49.627 6.25H30.875a.627.627 0 01-.52-.278l-2.5-3.75a.625.625 0 011.04-.694L31.21 5h18.084l2.312-3.472a.626.626 0 011.04.694l-2.498 3.75a.626.626 0 01-.52.278z" fill="url(#paint3_linear)"/><path d="M27.125 5h-13.75a.625.625 0 110-1.25h13.75a.625.625 0 110 1.25z" fill="url(#paint4_linear)"/><path d="M67.125 5h-13.75a.625.625 0 110-1.25h13.75a.625.625 0 110 1.25z" fill="url(#paint5_linear)"/><path d="M44.625 3.75h-10a.625.625 0 110-1.25h10a.625.625 0 110 1.25z" fill="url(#paint6_linear)"/><path d="M64.625 68.75h-5a.625.625 0 110-1.25h5a.625.625 0 110 1.25z" fill="url(#paint7_linear)"/><path d="M59.625 73.75a.625.625 0 01-.625-.625v-5a.625.625 0 111.25 0v5c0 .345-.28.625-.625.625z" fill="url(#paint8_linear)"/><path d="M13.375 76.25a.625.625 0 01-.625-.625V4.375a.625.625 0 111.25 0v71.25c0 .346-.28.625-.625.625z" fill="url(#paint9_linear)"/><path d="M67.125 70a.625.625 0 01-.625-.625v-65a.625.625 0 111.25 0v65c0 .346-.28.625-.625.625z" fill="url(#paint10_linear)"/><path d="M60.875 76.25a.624.624 0 01-.442-1.067l6.25-6.25a.624.624 0 11.884.884l-6.25 6.25a.623.623 0 01-.442.183z" fill="url(#paint11_linear)"/><path d="M60.875 76.25h-47.5a.625.625 0 110-1.25h47.5a.625.625 0 110 1.25z" fill="url(#paint12_linear)"/><path d="M70.875 80a.625.625 0 01-.625-.625V.625a.625.625 0 111.25 0v78.75c0 .345-.28.625-.625.625z" fill="url(#paint13_linear)"/><path d="M70.875 80H9.625a.625.625 0 110-1.25h61.25a.625.625 0 110 1.25z" fill="url(#paint14_linear)"/><path d="M9.625 80A.625.625 0 019 79.375V.625a.625.625 0 111.25 0v78.75c0 .345-.28.625-.625.625z" fill="url(#paint15_linear)"/><path d="M70.875 1.25H9.625a.625.625 0 110-1.25h61.25a.625.625 0 110 1.25z" fill="url(#paint16_linear)"/><path d="M19.308 23.067A.624.624 0 0119.75 22h8.75a.625.625 0 110 1.25h-8.75a.622.622 0 01-.442-.183z" fill="url(#paint17_linear)"/><path d="M59.625 18.75h-25a.625.625 0 110-1.25h25a.625.625 0 110 1.25z" fill="url(#paint18_linear)"/><path d="M59.625 22.5h-25a.625.625 0 110-1.25h25a.625.625 0 110 1.25z" fill="url(#paint19_linear)"/><path d="M47.125 26.25h-12.5a.625.625 0 110-1.25h12.5a.625.625 0 110 1.25z" fill="url(#paint20_linear)"/><path d="M59.625 36.25h-25a.625.625 0 110-1.25h25a.625.625 0 110 1.25z" fill="url(#paint21_linear)"/><path d="M59.625 40h-25a.625.625 0 110-1.25h25a.625.625 0 110 1.25z" fill="url(#paint22_linear)"/><path d="M47.125 43.75h-12.5a.625.625 0 110-1.25h12.5a.625.625 0 110 1.25z" fill="url(#paint23_linear)"/><path d="M59.625 53.75h-25a.625.625 0 110-1.25h25a.625.625 0 110 1.25z" fill="url(#paint24_linear)"/><path d="M59.625 57.5h-25a.625.625 0 110-1.25h25a.625.625 0 110 1.25z" fill="url(#paint25_linear)"/><path d="M47.125 61.25h-12.5a.625.625 0 110-1.25h12.5a.625.625 0 110 1.25z" fill="url(#paint26_linear)"/></g><defs><linearGradient id="paint0_linear" x1="17.407" y1="39.66" x2="21.253" y2="30.524" gradientUnits="userSpaceOnUse"><stop stop-color="#46A29F"/><stop offset="1" stop-color="#4660A2"/></linearGradient><linearGradient id="paint1_linear" x1="24.465" y1="33.282" x2="33.601" y2="37.128" gradientUnits="userSpaceOnUse"><stop stop-color="#46A29F"/><stop offset="1" stop-color="#4660A2"/></linearGradient><linearGradient id="paint2_linear" x1="17.407" y1="57.285" x2="21.253" y2="48.149" gradientUnits="userSpaceOnUse"><stop stop-color="#46A29F"/><stop offset="1" stop-color="#4660A2"/></linearGradient><linearGradient id="paint3_linear" x1="23.454" y1="2.392" x2="43.39" y2="-27.206" gradientUnits="userSpaceOnUse"><stop stop-color="#46A29F"/><stop offset="1" stop-color="#4660A2"/></linearGradient><linearGradient id="paint4_linear" x1="10.172" y1="4.036" x2="12.971" y2="-5.936" gradientUnits="userSpaceOnUse"><stop stop-color="#46A29F"/><stop offset="1" stop-color="#4660A2"/></linearGradient><linearGradient id="paint5_linear" x1="50.172" y1="4.036" x2="52.971" y2="-5.936" gradientUnits="userSpaceOnUse"><stop stop-color="#46A29F"/><stop offset="1" stop-color="#4660A2"/></linearGradient><linearGradient id="paint6_linear" x1="32.067" y1="2.786" x2="35.598" y2="-6.65" gradientUnits="userSpaceOnUse"><stop stop-color="#46A29F"/><stop offset="1" stop-color="#4660A2"/></linearGradient><linearGradient id="paint7_linear" x1="57.926" y1="67.785" x2="62.91" y2="60.386" gradientUnits="userSpaceOnUse"><stop stop-color="#46A29F"/><stop offset="1" stop-color="#4660A2"/></linearGradient><linearGradient id="paint8_linear" x1="58.785" y1="68.927" x2="61.968" y2="68.738" gradientUnits="userSpaceOnUse"><stop stop-color="#46A29F"/><stop offset="1" stop-color="#4660A2"/></linearGradient><linearGradient id="paint9_linear" x1="12.535" y1="20.3" x2="15.729" y2="20.284" gradientUnits="userSpaceOnUse"><stop stop-color="#46A29F"/><stop offset="1" stop-color="#4660A2"/></linearGradient><linearGradient id="paint10_linear" x1="66.285" y1="18.874" x2="69.479" y2="18.856" gradientUnits="userSpaceOnUse"><stop stop-color="#46A29F"/><stop offset="1" stop-color="#4660A2"/></linearGradient><linearGradient id="paint11_linear" x1="58.961" y1="70.462" x2="76.572" y2="65.233" gradientUnits="userSpaceOnUse"><stop stop-color="#46A29F"/><stop offset="1" stop-color="#4660A2"/></linearGradient><linearGradient id="paint12_linear" x1="4.373" y1="75.285" x2="5.295" y2="64.609" gradientUnits="userSpaceOnUse"><stop stop-color="#46A29F"/><stop offset="1" stop-color="#4660A2"/></linearGradient><linearGradient id="paint13_linear" x1="70.035" y1="18.262" x2="73.229" y2="18.247" gradientUnits="userSpaceOnUse"><stop stop-color="#46A29F"/><stop offset="1" stop-color="#4660A2"/></linearGradient><linearGradient id="paint14_linear" x1="-1.74" y1="79.035" x2="-1.019" y2="68.327" gradientUnits="userSpaceOnUse"><stop stop-color="#46A29F"/><stop offset="1" stop-color="#4660A2"/></linearGradient><linearGradient id="paint15_linear" x1="8.785" y1="18.262" x2="11.979" y2="18.247" gradientUnits="userSpaceOnUse"><stop stop-color="#46A29F"/><stop offset="1" stop-color="#4660A2"/></linearGradient><linearGradient id="paint16_linear" x1="-1.74" y1=".285" x2="-1.019" y2="-10.423" gradientUnits="userSpaceOnUse"><stop stop-color="#46A29F"/><stop offset="1" stop-color="#4660A2"/></linearGradient><linearGradient id="paint17_linear" x1="17.407" y1="22.285" x2="21.253" y2="13.149" gradientUnits="userSpaceOnUse"><stop stop-color="#46A29F"/><stop offset="1" stop-color="#4660A2"/></linearGradient><linearGradient id="paint18_linear" x1="29.489" y1="17.785" x2="31.171" y2="7.298" gradientUnits="userSpaceOnUse"><stop stop-color="#46A29F"/><stop offset="1" stop-color="#4660A2"/></linearGradient><linearGradient id="paint19_linear" x1="29.489" y1="21.535" x2="31.171" y2="11.048" gradientUnits="userSpaceOnUse"><stop stop-color="#46A29F"/><stop offset="1" stop-color="#4660A2"/></linearGradient><linearGradient id="paint20_linear" x1="31.637" y1="25.286" x2="34.648" y2="15.451" gradientUnits="userSpaceOnUse"><stop stop-color="#46A29F"/><stop offset="1" stop-color="#4660A2"/></linearGradient><linearGradient id="paint21_linear" x1="29.489" y1="35.285" x2="31.171" y2="24.798" gradientUnits="userSpaceOnUse"><stop stop-color="#46A29F"/><stop offset="1" stop-color="#4660A2"/></linearGradient><linearGradient id="paint22_linear" x1="29.489" y1="39.035" x2="31.171" y2="28.548" gradientUnits="userSpaceOnUse"><stop stop-color="#46A29F"/><stop offset="1" stop-color="#4660A2"/></linearGradient><linearGradient id="paint23_linear" x1="31.637" y1="42.786" x2="34.648" y2="32.951" gradientUnits="userSpaceOnUse"><stop stop-color="#46A29F"/><stop offset="1" stop-color="#4660A2"/></linearGradient><linearGradient id="paint24_linear" x1="29.489" y1="52.785" x2="31.171" y2="42.299" gradientUnits="userSpaceOnUse"><stop stop-color="#46A29F"/><stop offset="1" stop-color="#4660A2"/></linearGradient><linearGradient id="paint25_linear" x1="29.489" y1="56.535" x2="31.171" y2="46.048" gradientUnits="userSpaceOnUse"><stop stop-color="#46A29F"/><stop offset="1" stop-color="#4660A2"/></linearGradient><linearGradient id="paint26_linear" x1="31.637" y1="60.285" x2="34.649" y2="50.45" gradientUnits="userSpaceOnUse"><stop stop-color="#46A29F"/><stop offset="1" stop-color="#4660A2"/></linearGradient><clipPath id="clip0"><path fill="#fff" d="M0 0h80v80H0z"/></clipPath></defs></svg>