<svg width="88" height="80" fill="none" xmlns="http://www.w3.org/2000/svg"><g clip-path="url(#clip0)" filter="url(#filter0_d)"><path d="M75.875 14.375h-63.75c-.687 0-1.25.563-1.25 1.25v46.25h66.25v-46.25c0-.687-.563-1.25-1.25-1.25z" fill="#656D78"/><path d="M75.875 14.375h-63.75c-.687 0-1.25.563-1.25 1.25v46.25h66.25v-46.25c0-.687-.563-1.25-1.25-1.25z" fill="#DEEEEE"/><path d="M13.375 14.375h-1.25c-.687 0-1.25.563-1.25 1.25v46.25h1.25v-46.25c0-.687.563-1.25 1.25-1.25z" fill="#D7E9FF"/><path d="M44.037 16.25a.63.63 0 01-.63-.625.62.62 0 01.618-.625h.012a.625.625 0 110 1.25z" fill="#116FFF"/><path d="M37.125 61.875h13.75v-1.25h32.5v2.5a2.49 2.49 0 01-2.5 2.5H7.125a2.491 2.491 0 01-2.5-2.5v-2.5h32.5v1.25z" fill="#DEEEEE"/><path d="M7.125 63.125v-2.5h-2.5v2.5c0 1.388 1.113 2.5 2.5 2.5h2.5a2.491 2.491 0 01-2.5-2.5z" fill="#D7E9FF"/><path d="M74.624 16.876H13.375v38.75h61.249v-38.75z" fill="#F0F4F4"/><path d="M33.105 55.625h7.765l10.384-38.75h-7.765l-10.383 38.75zm12.941 0l10.383-38.75H53.84l-10.383 38.75h2.59z" fill="#fff"/><path d="M77.127 58.75a.625.625 0 01-.625-.625v-42.5a.626.626 0 00-.625-.625h-63.75a.626.626 0 00-.625.625v42.5a.625.625 0 11-1.25 0v-42.5c0-1.034.841-1.875 1.875-1.875h63.75c1.034 0 1.875.841 1.875 1.875v42.5c0 .346-.28.625-.625.625z" fill="url(#paint0_linear)"/><path d="M80.877 66.25H7.127a.625.625 0 110-1.25h73.75a.625.625 0 110 1.25z" fill="url(#paint1_linear)"/><path d="M83.375 63.75a.625.625 0 01-.625-.625V61.25H51.5v.625c0 .346-.28.625-.625.625h-13.75a.625.625 0 01-.625-.625v-.625H5.25v1.875a.625.625 0 11-1.25 0v-2.5c0-.345.28-.625.625-.625h32.5c.345 0 .625.28.625.625v.625h12.5v-.625c0-.345.28-.625.625-.625h32.5c.345 0 .625.28.625.625v2.5c0 .346-.28.625-.625.625z" fill="url(#paint2_linear)"/><path d="M74.625 56.25h-61.25a.625.625 0 01-.625-.625v-38.75c0-.345.28-.625.625-.625h61.25c.345 0 .625.28.625.625v38.75c0 .346-.28.625-.625.625zM14 55h60V17.5H14V55z" fill="url(#paint3_linear)"/><path d="M7.125 66.25A3.128 3.128 0 014 63.125a.625.625 0 111.25 0C5.25 64.16 6.091 65 7.125 65a.625.625 0 110 1.25z" fill="url(#paint4_linear)"/><path d="M80.877 66.25a.625.625 0 110-1.25 1.856 1.856 0 001.875-1.875.625.625 0 111.25 0 3.128 3.128 0 01-3.125 3.125z" fill="url(#paint5_linear)"/><path d="M9.627 60.625h-2.5a.625.625 0 110-1.25h2.5a.625.625 0 110 1.25z" fill="url(#paint6_linear)"/><path d="M14.627 60.625h-2.5a.625.625 0 110-1.25h2.5a.625.625 0 110 1.25z" fill="url(#paint7_linear)"/><path d="M19.625 60.625h-2.5a.625.625 0 110-1.25h2.5a.625.625 0 110 1.25z" fill="url(#paint8_linear)"/><path d="M24.625 60.625h-2.5a.625.625 0 110-1.25h2.5a.625.625 0 110 1.25z" fill="url(#paint9_linear)"/><path d="M29.627 60.625h-2.5a.625.625 0 110-1.25h2.5a.625.625 0 110 1.25z" fill="url(#paint10_linear)"/><path d="M34.627 60.625h-2.5a.625.625 0 110-1.25h2.5a.625.625 0 110 1.25z" fill="url(#paint11_linear)"/><path d="M55.875 60.625h-2.5a.625.625 0 110-1.25h2.5a.625.625 0 110 1.25z" fill="url(#paint12_linear)"/><path d="M60.875 60.625h-2.5a.625.625 0 110-1.25h2.5a.625.625 0 110 1.25z" fill="url(#paint13_linear)"/><path d="M65.877 60.625h-2.5a.625.625 0 110-1.25h2.5a.625.625 0 110 1.25z" fill="url(#paint14_linear)"/><path d="M70.877 60.625h-2.5a.625.625 0 110-1.25h2.5a.625.625 0 110 1.25z" fill="url(#paint15_linear)"/><path d="M75.877 60.625h-2.5a.625.625 0 110-1.25h2.5a.625.625 0 110 1.25z" fill="url(#paint16_linear)"/><path d="M80.877 60.625h-2.5a.625.625 0 110-1.25h2.5a.625.625 0 110 1.25z" fill="url(#paint17_linear)"/></g><defs><linearGradient id="paint0_linear" x1="-1.347" y1="24.023" x2="142.572" y2="-40.075" gradientUnits="userSpaceOnUse"><stop stop-color="#46A29F"/><stop offset="1" stop-color="#4660A2"/></linearGradient><linearGradient id="paint1_linear" x1="-6.386" y1="65.285" x2="-5.784" y2="54.564" gradientUnits="userSpaceOnUse"><stop stop-color="#46A29F"/><stop offset="1" stop-color="#4660A2"/></linearGradient><linearGradient id="paint2_linear" x1="-9.747" y1="60.856" x2="-4.777" y2="29.371" gradientUnits="userSpaceOnUse"><stop stop-color="#46A29F"/><stop offset="1" stop-color="#4660A2"/></linearGradient><linearGradient id="paint3_linear" x1="2.01" y1="25.381" x2="133.418" y2="-35.583" gradientUnits="userSpaceOnUse"><stop stop-color="#46A29F"/><stop offset="1" stop-color="#4660A2"/></linearGradient><linearGradient id="paint4_linear" x1="3.356" y1="63.356" x2="12.161" y2="60.742" gradientUnits="userSpaceOnUse"><stop stop-color="#46A29F"/><stop offset="1" stop-color="#4660A2"/></linearGradient><linearGradient id="paint5_linear" x1="79.608" y1="63.356" x2="88.413" y2="60.742" gradientUnits="userSpaceOnUse"><stop stop-color="#46A29F"/><stop offset="1" stop-color="#4660A2"/></linearGradient><linearGradient id="paint6_linear" x1="5.858" y1="59.661" x2="11.2" y2="54.902" gradientUnits="userSpaceOnUse"><stop stop-color="#46A29F"/><stop offset="1" stop-color="#4660A2"/></linearGradient><linearGradient id="paint7_linear" x1="10.857" y1="59.661" x2="16.2" y2="54.902" gradientUnits="userSpaceOnUse"><stop stop-color="#46A29F"/><stop offset="1" stop-color="#4660A2"/></linearGradient><linearGradient id="paint8_linear" x1="15.856" y1="59.661" x2="21.198" y2="54.902" gradientUnits="userSpaceOnUse"><stop stop-color="#46A29F"/><stop offset="1" stop-color="#4660A2"/></linearGradient><linearGradient id="paint9_linear" x1="20.856" y1="59.661" x2="26.198" y2="54.902" gradientUnits="userSpaceOnUse"><stop stop-color="#46A29F"/><stop offset="1" stop-color="#4660A2"/></linearGradient><linearGradient id="paint10_linear" x1="25.858" y1="59.661" x2="31.2" y2="54.902" gradientUnits="userSpaceOnUse"><stop stop-color="#46A29F"/><stop offset="1" stop-color="#4660A2"/></linearGradient><linearGradient id="paint11_linear" x1="30.858" y1="59.661" x2="36.2" y2="54.902" gradientUnits="userSpaceOnUse"><stop stop-color="#46A29F"/><stop offset="1" stop-color="#4660A2"/></linearGradient><linearGradient id="paint12_linear" x1="52.106" y1="59.661" x2="57.448" y2="54.902" gradientUnits="userSpaceOnUse"><stop stop-color="#46A29F"/><stop offset="1" stop-color="#4660A2"/></linearGradient><linearGradient id="paint13_linear" x1="57.106" y1="59.661" x2="62.448" y2="54.902" gradientUnits="userSpaceOnUse"><stop stop-color="#46A29F"/><stop offset="1" stop-color="#4660A2"/></linearGradient><linearGradient id="paint14_linear" x1="62.108" y1="59.661" x2="67.45" y2="54.902" gradientUnits="userSpaceOnUse"><stop stop-color="#46A29F"/><stop offset="1" stop-color="#4660A2"/></linearGradient><linearGradient id="paint15_linear" x1="67.108" y1="59.661" x2="72.45" y2="54.902" gradientUnits="userSpaceOnUse"><stop stop-color="#46A29F"/><stop offset="1" stop-color="#4660A2"/></linearGradient><linearGradient id="paint16_linear" x1="72.108" y1="59.661" x2="77.45" y2="54.902" gradientUnits="userSpaceOnUse"><stop stop-color="#46A29F"/><stop offset="1" stop-color="#4660A2"/></linearGradient><linearGradient id="paint17_linear" x1="77.108" y1="59.661" x2="82.45" y2="54.902" gradientUnits="userSpaceOnUse"><stop stop-color="#46A29F"/><stop offset="1" stop-color="#4660A2"/></linearGradient><clipPath id="clip0"><path fill="#fff" transform="translate(4)" d="M0 0h80v80H0z"/></clipPath><filter id="filter0_d" x="0" y="0" width="88" height="88" filterUnits="userSpaceOnUse" color-interpolation-filters="sRGB"><feFlood flood-opacity="0" result="BackgroundImageFix"/><feColorMatrix in="SourceAlpha" values="0 0 0 0 0 0 0 0 0 0 0 0 0 0 0 0 0 0 127 0" result="hardAlpha"/><feOffset dy="4"/><feGaussianBlur stdDeviation="2"/><feComposite in2="hardAlpha" operator="out"/><feColorMatrix values="0 0 0 0 0 0 0 0 0 0 0 0 0 0 0 0 0 0 0.25 0"/><feBlend in2="BackgroundImageFix" result="effect1_dropShadow"/><feBlend in="SourceGraphic" in2="effect1_dropShadow" result="shape"/></filter></defs></svg>