<svg width="80" height="80" fill="none" xmlns="http://www.w3.org/2000/svg"><path d="M67.875 60L64.5 63l-46.875-3a.625.625 0 01-.625-.625L12 20.5l4-3.875c0-.345.28-.625.625-.625h51.25c.346 0 .625.28.625.625v42.75c0 .345-.28.625-.625.625z" fill="#fff"/><path d="M68 17l-5 4.5.5 41.5 4.5-4V17z" fill="#DEEEEE"/><path d="M63.5 21.254H11v42.99h52.5v-42.99z" fill="#F0F4F4"/><path d="M13.117 20.824h-2.5v43.245h2.5V20.824z" fill="#F0F4F4"/><path d="M13 21h-2v43h2V21z" fill="#fff"/><path d="M63.375 64h-52.75a.625.625 0 01-.625-.625v-42.75c0-.345.28-.625.625-.625h52.75c.346 0 .625.28.625.625v42.75c0 .345-.28.625-.625.625zM11.25 62.75h51.5v-41.5h-51.5v41.5z" fill="url(#paint0_linear)"/><path d="M38.517 50.392h.403c.36-.046.717-.156 1.063-.32v.01l.25-.145.006-.003.135-.077 2.843-1.642v-.003a3.538 3.538 0 001.308-1.294h.003c.307-.532.472-1.14.472-1.785s-.165-1.252-.472-1.785h-.003a3.533 3.533 0 00-1.31-1.296l-3.938-2.271v-.003l-3.94-2.274h-.005a3.525 3.525 0 00-1.774-.489c-.605 0-1.21.162-1.775.49h-.003a3.519 3.519 0 00-1.308 1.293A3.544 3.544 0 0030 40.583v9.098c0 .643.165 1.25.475 1.79.305.528.747.97 1.308 1.294a3.544 3.544 0 001.78.49c.605 0 1.209-.163 1.775-.49l1.19-.686m1.989-1.687h-.009m.008 0h-.038.03m0 0h-.044a3.544 3.544 0 01-1.78-.488l-.003-.003-.002-.003-.003-.003-.003-.002-.003-.003-.002-.003-.003-.003h-.003l-.003-.002-.002-.003-.003-.003-.003-.003-.003-.002-.002-.003-.003-.003h-.003l-.003-.003-.002-.002-.003-.003-.011.033-.003-.003-.003-.003-.002-.002h-.003l-.003-.003-.003-.003-.002-.003h-.009l-.002-.002-.003-.003-.003-.003-.003-.003-.002-.002-.003-.003-.003-.003-.01-.005-.004-.003-.01-.005-.003-.003-.003-.003-.005-.003-.003-.002-.003-.003-.003-.003-.002-.003-.003-.002-.003-.003-.003-.003-.002-.003h-.003l-.003-.003-.003-.002-.003-.003-.002-.003-.003-.002-.003-.003-.002-.003-.003-.003-.003-.002a3.5 3.5 0 01-1.571-2.95v-4.97" stroke="url(#paint1_linear)" stroke-width="1.2"/><path d="M39.073 44.499a1.313 1.313 0 110 2.626 1.313 1.313 0 010-2.626z" fill="url(#paint2_linear)"/><path d="M33.452 30.854a1.998 1.998 0 11.002 3.997 1.998 1.998 0 01-.002-3.997z" stroke="url(#paint3_linear)" stroke-width="1.2"/><path fill-rule="evenodd" clip-rule="evenodd" d="M10.215 20.589L14 16.583l.714-.494.57.822-4.5 4.5-.57-.822z" fill="url(#paint4_linear)"/><path fill-rule="evenodd" clip-rule="evenodd" d="M62.715 63.089l5.5-4.5.569.822-.535.37-4.965 4.13-.57-.822z" fill="url(#paint5_linear)"/><path fill-rule="evenodd" clip-rule="evenodd" d="M62.715 21.089l4.545-3.84.955-.66.569.822-1.034.716-4.466 3.784-.57-.822z" fill="url(#paint6_linear)"/><path d="M14.624 16a.625.625 0 00-.623.583l.714-.494.57.822-.49.339H67.26l.955-.661.569.822-1.034.716v40.784l.465-.322.569.822-.535.37.126.219c.345 0 .624-.28.624-.625v-42.75a.625.625 0 00-.624-.625h-53.75z" fill="url(#paint7_linear)"/><defs><linearGradient id="paint0_linear" x1=".721" y1="30.044" x2="122.521" y2="-14.339" gradientUnits="userSpaceOnUse"><stop stop-color="#46A29F"/><stop offset="1" stop-color="#4660A2"/></linearGradient><linearGradient id="paint1_linear" x1="27.422" y1="40.722" x2="63.067" y2="30.946" gradientUnits="userSpaceOnUse"><stop stop-color="#46A29F"/><stop offset="1" stop-color="#4660A2"/></linearGradient><linearGradient id="paint2_linear" x1="37.308" y1="45.098" x2="43.475" y2="43.267" gradientUnits="userSpaceOnUse"><stop stop-color="#46A29F"/><stop offset="1" stop-color="#4660A2"/></linearGradient><linearGradient id="paint3_linear" x1="29.96" y1="31.44" x2="42.164" y2="27.815" gradientUnits="userSpaceOnUse"><stop stop-color="#46A29F"/><stop offset="1" stop-color="#4660A2"/></linearGradient><linearGradient id="paint4_linear" x1=".113" y1="26.937" x2="132.714" y2="-21.369" gradientUnits="userSpaceOnUse"><stop stop-color="#46A29F"/><stop offset="1" stop-color="#4660A2"/></linearGradient><linearGradient id="paint5_linear" x1=".113" y1="26.937" x2="132.714" y2="-21.369" gradientUnits="userSpaceOnUse"><stop stop-color="#46A29F"/><stop offset="1" stop-color="#4660A2"/></linearGradient><linearGradient id="paint6_linear" x1=".113" y1="26.937" x2="132.714" y2="-21.369" gradientUnits="userSpaceOnUse"><stop stop-color="#46A29F"/><stop offset="1" stop-color="#4660A2"/></linearGradient><linearGradient id="paint7_linear" x1=".113" y1="26.937" x2="132.714" y2="-21.369" gradientUnits="userSpaceOnUse"><stop stop-color="#46A29F"/><stop offset="1" stop-color="#4660A2"/></linearGradient></defs></svg>