<svg width="80" height="80" fill="none" xmlns="http://www.w3.org/2000/svg"><path d="M75.625 15.635H4.375a3.76 3.76 0 00-3.75 3.75v41.25a3.76 3.76 0 003.75 3.75h71.25a3.76 3.76 0 003.75-3.75v-41.25a3.76 3.76 0 00-3.75-3.75z" fill="#DEEEEE"/><path d="M3.125 60.635v-41.25a3.76 3.76 0 013.75-3.75h-2.5a3.76 3.76 0 00-3.75 3.75v41.25a3.76 3.76 0 003.75 3.75h2.5a3.76 3.76 0 01-3.75-3.75z" fill="#fff"/><path d="M75.625 65.01H4.375A4.38 4.38 0 010 60.637v-41.25a4.38 4.38 0 014.375-4.375.625.625 0 110 1.25 3.128 3.128 0 00-3.125 3.125v41.25a3.128 3.128 0 003.125 3.125h71.25a3.128 3.128 0 003.125-3.125v-41.25a3.128 3.128 0 00-3.125-3.125.625.625 0 110-1.25A4.38 4.38 0 0180 19.386v41.25a4.38 4.38 0 01-4.375 4.375z" fill="url(#paint0_linear)"/><path d="M48.784 16.26H4.374a.625.625 0 11.001-1.25h44.409a.625.625 0 110 1.25z" fill="url(#paint1_linear)"/><path d="M75.625 16.26h-28.75a.625.625 0 110-1.25h28.75a.625.625 0 110 1.25z" fill="url(#paint2_linear)"/><path d="M28.761 25.046h-20v19.999h20v-20z" fill="#fff"/><path d="M24.07 35.677H13.45a.625.625 0 110-1.25h10.62a.625.625 0 110 1.25z" fill="url(#paint3_linear)"/><path d="M19.387 29.743V40.36a.625.625 0 11-1.25 0V29.743a.625.625 0 111.25 0z" fill="url(#paint4_linear)"/><path d="M8.793 55.641a.63.63 0 01-.63-.625.62.62 0 01.617-.624h.013a.625.625 0 010 1.25z" fill="url(#paint5_linear)"/><path d="M11.293 55.641a.63.63 0 01-.63-.625.62.62 0 01.617-.624h.013a.625.625 0 010 1.25z" fill="url(#paint6_linear)"/><path d="M13.793 55.641a.63.63 0 01-.63-.625.62.62 0 01.617-.624h.013a.625.625 0 010 1.25z" fill="url(#paint7_linear)"/><path d="M16.293 55.641a.63.63 0 01-.63-.625.62.62 0 01.617-.624h.013a.625.625 0 010 1.25z" fill="url(#paint8_linear)"/><path d="M18.793 55.641a.63.63 0 01-.63-.625.62.62 0 01.617-.624h.013a.625.625 0 010 1.25z" fill="url(#paint9_linear)"/><path d="M21.293 55.641a.63.63 0 01-.63-.625.62.62 0 01.617-.624h.013a.625.625 0 010 1.25z" fill="url(#paint10_linear)"/><path d="M23.793 55.641a.63.63 0 01-.63-.625.62.62 0 01.617-.624h.013a.625.625 0 010 1.25z" fill="url(#paint11_linear)"/><path d="M26.293 55.641a.63.63 0 01-.63-.625.62.62 0 01.617-.624h.013a.625.625 0 010 1.25z" fill="url(#paint12_linear)"/><path d="M28.793 55.641a.63.63 0 01-.63-.625.62.62 0 01.617-.624h.013a.625.625 0 010 1.25z" fill="url(#paint13_linear)"/><path d="M28.755 45.641H8.756a.625.625 0 01-.625-.625v-20c0-.345.28-.624.625-.624h19.999c.345 0 .625.279.625.624v20c0 .346-.28.625-.625.625zM9.38 44.391h18.75v-18.75H9.38v18.75z" fill="url(#paint14_linear)"/><path d="M71.256 28.142h-36.25a.625.625 0 110-1.25h36.25a.624.624 0 110 1.25z" fill="url(#paint15_linear)"/><path d="M71.256 33.142h-36.25a.625.625 0 110-1.25h36.25a.624.624 0 110 1.25z" fill="url(#paint16_linear)"/><path d="M71.256 38.141h-36.25a.625.625 0 110-1.25h36.25a.624.624 0 110 1.25z" fill="url(#paint17_linear)"/><path d="M55.006 43.141h-20a.625.625 0 110-1.25h20a.625.625 0 110 1.25z" fill="url(#paint18_linear)"/><path d="M55.006 55.641h-20a.625.625 0 110-1.25h20a.625.625 0 110 1.25z" fill="url(#paint19_linear)"/><path d="M28.756 50.641h-20a.625.625 0 110-1.25h20a.625.625 0 110 1.25z" fill="url(#paint20_linear)"/><defs><linearGradient id="paint0_linear" x1="-13.747" y1="26.425" x2="153.021" y2="-52.8" gradientUnits="userSpaceOnUse"><stop stop-color="#46A29F"/><stop offset="1" stop-color="#4660A2"/></linearGradient><linearGradient id="paint1_linear" x1="-4.096" y1="15.296" x2="-3.112" y2="4.629" gradientUnits="userSpaceOnUse"><stop stop-color="#46A29F"/><stop offset="1" stop-color="#4660A2"/></linearGradient><linearGradient id="paint2_linear" x1="41.095" y1="15.296" x2="42.575" y2="4.746" gradientUnits="userSpaceOnUse"><stop stop-color="#46A29F"/><stop offset="1" stop-color="#4660A2"/></linearGradient><linearGradient id="paint3_linear" x1="10.787" y1="34.712" x2="14.176" y2="25.157" gradientUnits="userSpaceOnUse"><stop stop-color="#46A29F"/><stop offset="1" stop-color="#4660A2"/></linearGradient><linearGradient id="paint4_linear" x1="18.422" y1="43.026" x2="8.867" y2="39.637" gradientUnits="userSpaceOnUse"><stop stop-color="#46A29F"/><stop offset="1" stop-color="#4660A2"/></linearGradient><linearGradient id="paint5_linear" x1="7.946" y1="54.677" x2="10.893" y2="53.797" gradientUnits="userSpaceOnUse"><stop stop-color="#46A29F"/><stop offset="1" stop-color="#4660A2"/></linearGradient><linearGradient id="paint6_linear" x1="10.446" y1="54.677" x2="13.393" y2="53.798" gradientUnits="userSpaceOnUse"><stop stop-color="#46A29F"/><stop offset="1" stop-color="#4660A2"/></linearGradient><linearGradient id="paint7_linear" x1="12.946" y1="54.677" x2="15.893" y2="53.798" gradientUnits="userSpaceOnUse"><stop stop-color="#46A29F"/><stop offset="1" stop-color="#4660A2"/></linearGradient><linearGradient id="paint8_linear" x1="15.446" y1="54.677" x2="18.393" y2="53.798" gradientUnits="userSpaceOnUse"><stop stop-color="#46A29F"/><stop offset="1" stop-color="#4660A2"/></linearGradient><linearGradient id="paint9_linear" x1="17.946" y1="54.677" x2="20.893" y2="53.797" gradientUnits="userSpaceOnUse"><stop stop-color="#46A29F"/><stop offset="1" stop-color="#4660A2"/></linearGradient><linearGradient id="paint10_linear" x1="20.446" y1="54.677" x2="23.394" y2="53.797" gradientUnits="userSpaceOnUse"><stop stop-color="#46A29F"/><stop offset="1" stop-color="#4660A2"/></linearGradient><linearGradient id="paint11_linear" x1="22.946" y1="54.677" x2="25.893" y2="53.797" gradientUnits="userSpaceOnUse"><stop stop-color="#46A29F"/><stop offset="1" stop-color="#4660A2"/></linearGradient><linearGradient id="paint12_linear" x1="25.446" y1="54.677" x2="28.393" y2="53.797" gradientUnits="userSpaceOnUse"><stop stop-color="#46A29F"/><stop offset="1" stop-color="#4660A2"/></linearGradient><linearGradient id="paint13_linear" x1="27.946" y1="54.677" x2="30.893" y2="53.798" gradientUnits="userSpaceOnUse"><stop stop-color="#46A29F"/><stop offset="1" stop-color="#4660A2"/></linearGradient><linearGradient id="paint14_linear" x1="4.479" y1="29.242" x2="54.374" y2="14.428" gradientUnits="userSpaceOnUse"><stop stop-color="#46A29F"/><stop offset="1" stop-color="#4660A2"/></linearGradient><linearGradient id="paint15_linear" x1="27.937" y1="27.177" x2="29.129" y2="16.555" gradientUnits="userSpaceOnUse"><stop stop-color="#46A29F"/><stop offset="1" stop-color="#4660A2"/></linearGradient><linearGradient id="paint16_linear" x1="27.937" y1="32.177" x2="29.13" y2="21.553" gradientUnits="userSpaceOnUse"><stop stop-color="#46A29F"/><stop offset="1" stop-color="#4660A2"/></linearGradient><linearGradient id="paint17_linear" x1="27.937" y1="37.177" x2="29.129" y2="26.555" gradientUnits="userSpaceOnUse"><stop stop-color="#46A29F"/><stop offset="1" stop-color="#4660A2"/></linearGradient><linearGradient id="paint18_linear" x1="30.729" y1="42.177" x2="32.78" y2="31.826" gradientUnits="userSpaceOnUse"><stop stop-color="#46A29F"/><stop offset="1" stop-color="#4660A2"/></linearGradient><linearGradient id="paint19_linear" x1="30.729" y1="54.677" x2="32.779" y2="44.327" gradientUnits="userSpaceOnUse"><stop stop-color="#46A29F"/><stop offset="1" stop-color="#4660A2"/></linearGradient><linearGradient id="paint20_linear" x1="4.479" y1="49.677" x2="6.53" y2="39.326" gradientUnits="userSpaceOnUse"><stop stop-color="#46A29F"/><stop offset="1" stop-color="#4660A2"/></linearGradient></defs></svg>