<svg width="80" height="80" fill="none" xmlns="http://www.w3.org/2000/svg"><g clip-path="url(#clip0)"><path d="M19.375 20.762l-5 7.363v2.5h5v-9.863zm41.25 0l5 7.363v2.5h-5v-9.863z" fill="#DEEEEE"/><path d="M21.875 30.625h-2.5V1.875l2.5-1.25v30z" fill="#F0F4F4"/><path d="M60.625 6.875v23.75h-38.75v-30h32.5l6.25 6.25z" fill="#fff"/><path d="M36.551 8.15h-2.7v-2.7h-2.7v2.7h-2.7v2.7h2.7v2.7h2.7v-2.7h2.7v-2.7z" fill="#DEEEEE"/><path d="M29.351 8.15h-.9v2.7h.9v-2.7zm2.699-2.7h-.9V8.6h.9V5.45zm0 4.95h-.9v3.15h.9V10.4z" fill="#fff"/><path d="M31.151 8.6a.45.45 0 01-.45-.45v-2.7a.45.45 0 11.9 0v2.7a.45.45 0 01-.45.45z" fill="url(#paint0_linear)"/><path d="M33.851 5.9h-2.7a.45.45 0 110-.9h2.7a.45.45 0 110 .9z" fill="url(#paint1_linear)"/><path d="M33.85 8.6a.45.45 0 01-.45-.45v-2.7a.45.45 0 11.9 0v2.7a.45.45 0 01-.45.45z" fill="url(#paint2_linear)"/><path d="M33.85 14a.45.45 0 01-.45-.45v-2.7a.45.45 0 11.9 0v2.7a.45.45 0 01-.45.45z" fill="url(#paint3_linear)"/><path d="M33.851 14h-2.7a.45.45 0 110-.9h2.7a.45.45 0 110 .9z" fill="url(#paint4_linear)"/><path d="M31.151 14a.45.45 0 01-.45-.45v-2.7a.45.45 0 11.9 0v2.7a.45.45 0 01-.45.45z" fill="url(#paint5_linear)"/><path d="M36.55 8.6h-2.7a.45.45 0 110-.9h2.7a.45.45 0 110 .9z" fill="url(#paint6_linear)"/><path d="M36.55 11.3a.45.45 0 01-.45-.45v-2.7a.45.45 0 11.9 0v2.7a.45.45 0 01-.45.45z" fill="url(#paint7_linear)"/><path d="M36.55 11.3h-2.7a.45.45 0 110-.9h2.7a.45.45 0 110 .9z" fill="url(#paint8_linear)"/><path d="M31.15 11.3h-2.7a.45.45 0 110-.9h2.7a.45.45 0 110 .9z" fill="url(#paint9_linear)"/><path d="M28.45 11.3a.45.45 0 01-.45-.45v-2.7a.45.45 0 11.9 0v2.7a.45.45 0 01-.45.45z" fill="url(#paint10_linear)"/><path d="M31.15 8.6h-2.7a.45.45 0 110-.9h2.7a.45.45 0 110 .9z" fill="url(#paint11_linear)"/><path d="M40 38.125c1.038 0 1.875.838 1.875 1.875A1.872 1.872 0 0140 41.875 1.872 1.872 0 0138.125 40c0-1.037.837-1.875 1.875-1.875z" fill="#fff"/><path d="M39.625 41.875A1.872 1.872 0 0041.5 40a1.872 1.872 0 00-1.875-1.875A1.872 1.872 0 0037.75 40c0 1.038.837 1.875 1.875 1.875zm25.625-11.25v45a3.76 3.76 0 01-3.75 3.75H17.75a3.76 3.76 0 01-3.75-3.75v-45h51.25z" fill="#DEEEEE"/><path d="M16.875 75.625v-45h-2.5v45a3.76 3.76 0 003.75 3.75h2.5a3.76 3.76 0 01-3.75-3.75z" fill="#F0F4F4"/><path d="M60.625 29.376h-38.75v1.25h38.75v-1.25zm-38.75 0h-2.5v1.25h2.5v-1.25z" fill="#DEEEEE"/><path d="M23.125.625h-1.25v28.75h1.25V.624z" fill="#fff"/><path d="M40 42.5a2.503 2.503 0 01-2.5-2.5c0-1.379 1.121-2.5 2.5-2.5 1.38 0 2.5 1.121 2.5 2.5 0 1.378-1.12 2.5-2.5 2.5zm0-3.75a1.25 1.25 0 100 2.5 1.25 1.25 0 000-2.5z" fill="url(#paint12_linear)"/><path d="M61.875 80h-43.75a4.38 4.38 0 01-4.375-4.375v-45c0-.345.28-.625.625-.625h51.25c.345 0 .625.28.625.625v45A4.38 4.38 0 0161.875 80zM15 31.25v44.375a3.128 3.128 0 003.125 3.125h43.75A3.128 3.128 0 0065 75.625V31.25H15z" fill="url(#paint13_linear)"/><path d="M60.625 28.75a.625.625 0 01-.625-.625V6.875a.625.625 0 111.25 0v21.25c0 .346-.28.625-.625.625z" fill="url(#paint14_linear)"/><path d="M21.875 28.75a.625.625 0 01-.625-.625V.625a.625.625 0 111.25 0v27.5c0 .346-.28.625-.625.625z" fill="url(#paint15_linear)"/><path d="M54.375 1.25h-32.5a.625.625 0 110-1.25h32.5a.625.625 0 110 1.25z" fill="url(#paint16_linear)"/><path d="M60.625 7.5a.623.623 0 01-.442-.183l-6.25-6.25a.625.625 0 11.884-.884l6.25 6.25a.625.625 0 01-.442 1.067z" fill="url(#paint17_linear)"/><path d="M53.125 8.75a.625.625 0 01-.625-.625v-5a.625.625 0 111.25 0v5c0 .346-.28.625-.625.625z" fill="url(#paint18_linear)"/><path d="M58.125 8.75h-5a.625.625 0 110-1.25h5a.625.625 0 110 1.25z" fill="url(#paint19_linear)"/><path d="M53.75 19.375h-25a.625.625 0 110-1.25h25a.625.625 0 110 1.25z" fill="url(#paint20_linear)"/><path d="M53.75 24.375h-25a.625.625 0 110-1.25h25a.625.625 0 110 1.25z" fill="url(#paint21_linear)"/><path d="M19.375 28.75a.625.625 0 01-.625-.625V1.875a.625.625 0 111.25 0v26.25c0 .346-.28.625-.625.625z" fill="url(#paint22_linear)"/><path d="M65.625 28.75a.623.623 0 01-.52-.278l-2.5-3.75a.624.624 0 111.04-.694l2.5 3.75a.624.624 0 01-.52.972z" fill="url(#paint23_linear)"/><path d="M14.374 28.75a.625.625 0 01-.519-.971l2.5-3.75a.625.625 0 111.04.694l-2.5 3.749a.624.624 0 01-.52.278z" fill="url(#paint24_linear)"/><path d="M40.627 56.25a.626.626 0 01-.56-.345c-.059-.119-1.433-2.922.118-4.472.327-.327.152-.95-.151-1.86-.333-.999-.748-2.241.15-3.14.892-.89-.1-2.846-.11-2.865a.626.626 0 011.104-.586c.06.113 1.45 2.776-.11 4.335-.327.327-.152.95.151 1.86.333.999.748 2.242-.15 3.14-.761.76-.156 2.484.116 3.029a.626.626 0 01-.558.904z" fill="url(#paint25_linear)"/><path d="M43.75 65.333a1.625 1.625 0 100-3.25 1.625 1.625 0 000 3.25z" stroke="url(#paint26_linear)" stroke-linecap="round" stroke-linejoin="round"/><path d="M37.25 69.125a1.625 1.625 0 100-3.25 1.625 1.625 0 000 3.25z" stroke="url(#paint27_linear)" stroke-linecap="round" stroke-linejoin="round"/><path d="M43.75 72.917a1.625 1.625 0 100-3.25 1.625 1.625 0 000 3.25z" stroke="url(#paint28_linear)" stroke-linecap="round" stroke-linejoin="round"/><path d="M38.652 68.318l3.7 2.156" stroke="url(#paint29_linear)" stroke-linecap="round" stroke-linejoin="round"/><path d="M42.346 64.526l-3.694 2.156" stroke="url(#paint30_linear)" stroke-linecap="round" stroke-linejoin="round"/></g><defs><linearGradient id="paint0_linear" x1="30.547" y1="5.822" x2="32.834" y2="5.652" gradientUnits="userSpaceOnUse"><stop stop-color="#46A29F"/><stop offset="1" stop-color="#4660A2"/></linearGradient><linearGradient id="paint1_linear" x1="30.082" y1="5.205" x2="33.898" y2=".673" gradientUnits="userSpaceOnUse"><stop stop-color="#46A29F"/><stop offset="1" stop-color="#4660A2"/></linearGradient><linearGradient id="paint2_linear" x1="33.246" y1="5.822" x2="35.533" y2="5.652" gradientUnits="userSpaceOnUse"><stop stop-color="#46A29F"/><stop offset="1" stop-color="#4660A2"/></linearGradient><linearGradient id="paint3_linear" x1="33.246" y1="11.222" x2="35.533" y2="11.052" gradientUnits="userSpaceOnUse"><stop stop-color="#46A29F"/><stop offset="1" stop-color="#4660A2"/></linearGradient><linearGradient id="paint4_linear" x1="30.082" y1="13.305" x2="33.898" y2="8.773" gradientUnits="userSpaceOnUse"><stop stop-color="#46A29F"/><stop offset="1" stop-color="#4660A2"/></linearGradient><linearGradient id="paint5_linear" x1="30.547" y1="11.222" x2="32.834" y2="11.052" gradientUnits="userSpaceOnUse"><stop stop-color="#46A29F"/><stop offset="1" stop-color="#4660A2"/></linearGradient><linearGradient id="paint6_linear" x1="32.782" y1="7.906" x2="36.598" y2="3.374" gradientUnits="userSpaceOnUse"><stop stop-color="#46A29F"/><stop offset="1" stop-color="#4660A2"/></linearGradient><linearGradient id="paint7_linear" x1="35.945" y1="8.522" x2="38.232" y2="8.352" gradientUnits="userSpaceOnUse"><stop stop-color="#46A29F"/><stop offset="1" stop-color="#4660A2"/></linearGradient><linearGradient id="paint8_linear" x1="32.782" y1="10.605" x2="36.598" y2="6.073" gradientUnits="userSpaceOnUse"><stop stop-color="#46A29F"/><stop offset="1" stop-color="#4660A2"/></linearGradient><linearGradient id="paint9_linear" x1="27.381" y1="10.605" x2="31.198" y2="6.073" gradientUnits="userSpaceOnUse"><stop stop-color="#46A29F"/><stop offset="1" stop-color="#4660A2"/></linearGradient><linearGradient id="paint10_linear" x1="27.845" y1="8.522" x2="30.132" y2="8.352" gradientUnits="userSpaceOnUse"><stop stop-color="#46A29F"/><stop offset="1" stop-color="#4660A2"/></linearGradient><linearGradient id="paint11_linear" x1="27.381" y1="7.906" x2="31.197" y2="3.374" gradientUnits="userSpaceOnUse"><stop stop-color="#46A29F"/><stop offset="1" stop-color="#4660A2"/></linearGradient><linearGradient id="paint12_linear" x1="36.641" y1="38.642" x2="48.381" y2="35.156" gradientUnits="userSpaceOnUse"><stop stop-color="#46A29F"/><stop offset="1" stop-color="#4660A2"/></linearGradient><linearGradient id="paint13_linear" x1="4.728" y1="41.414" x2="126.986" y2="3.299" gradientUnits="userSpaceOnUse"><stop stop-color="#46A29F"/><stop offset="1" stop-color="#4660A2"/></linearGradient><linearGradient id="paint14_linear" x1="59.785" y1="11.386" x2="62.978" y2="11.334" gradientUnits="userSpaceOnUse"><stop stop-color="#46A29F"/><stop offset="1" stop-color="#4660A2"/></linearGradient><linearGradient id="paint15_linear" x1="21.035" y1="6.563" x2="24.228" y2="6.522" gradientUnits="userSpaceOnUse"><stop stop-color="#46A29F"/><stop offset="1" stop-color="#4660A2"/></linearGradient><linearGradient id="paint16_linear" x1="15.45" y1=".285" x2="16.772" y2="-10.307" gradientUnits="userSpaceOnUse"><stop stop-color="#46A29F"/><stop offset="1" stop-color="#4660A2"/></linearGradient><linearGradient id="paint17_linear" x1="52.461" y1="1.712" x2="70.072" y2="-3.517" gradientUnits="userSpaceOnUse"><stop stop-color="#46A29F"/><stop offset="1" stop-color="#4660A2"/></linearGradient><linearGradient id="paint18_linear" x1="52.285" y1="3.927" x2="55.468" y2="3.738" gradientUnits="userSpaceOnUse"><stop stop-color="#46A29F"/><stop offset="1" stop-color="#4660A2"/></linearGradient><linearGradient id="paint19_linear" x1="51.426" y1="7.786" x2="56.41" y2=".386" gradientUnits="userSpaceOnUse"><stop stop-color="#46A29F"/><stop offset="1" stop-color="#4660A2"/></linearGradient><linearGradient id="paint20_linear" x1="23.614" y1="18.41" x2="25.297" y2="7.921" gradientUnits="userSpaceOnUse"><stop stop-color="#46A29F"/><stop offset="1" stop-color="#4660A2"/></linearGradient><linearGradient id="paint21_linear" x1="23.614" y1="23.41" x2="25.296" y2="12.923" gradientUnits="userSpaceOnUse"><stop stop-color="#46A29F"/><stop offset="1" stop-color="#4660A2"/></linearGradient><linearGradient id="paint22_linear" x1="18.535" y1="7.528" x2="21.729" y2="7.485" gradientUnits="userSpaceOnUse"><stop stop-color="#46A29F"/><stop offset="1" stop-color="#4660A2"/></linearGradient><linearGradient id="paint23_linear" x1="61.855" y1="24.891" x2="70.986" y2="22.858" gradientUnits="userSpaceOnUse"><stop stop-color="#46A29F"/><stop offset="1" stop-color="#4660A2"/></linearGradient><linearGradient id="paint24_linear" x1="13.105" y1="24.891" x2="22.235" y2="22.858" gradientUnits="userSpaceOnUse"><stop stop-color="#46A29F"/><stop offset="1" stop-color="#4660A2"/></linearGradient><linearGradient id="paint25_linear" x1="39.044" y1="45.754" x2="45.05" y2="45.445" gradientUnits="userSpaceOnUse"><stop stop-color="#46A29F"/><stop offset="1" stop-color="#4660A2"/></linearGradient><linearGradient id="paint26_linear" x1="41.566" y1="62.825" x2="49.198" y2="60.559" gradientUnits="userSpaceOnUse"><stop stop-color="#46A29F"/><stop offset="1" stop-color="#4660A2"/></linearGradient><linearGradient id="paint27_linear" x1="35.066" y1="66.617" x2="42.698" y2="64.351" gradientUnits="userSpaceOnUse"><stop stop-color="#46A29F"/><stop offset="1" stop-color="#4660A2"/></linearGradient><linearGradient id="paint28_linear" x1="41.566" y1="70.409" x2="49.198" y2="68.143" gradientUnits="userSpaceOnUse"><stop stop-color="#46A29F"/><stop offset="1" stop-color="#4660A2"/></linearGradient><linearGradient id="paint29_linear" x1="38.017" y1="68.81" x2="45.521" y2="64.986" gradientUnits="userSpaceOnUse"><stop stop-color="#46A29F"/><stop offset="1" stop-color="#4660A2"/></linearGradient><linearGradient id="paint30_linear" x1="38.017" y1="65.018" x2="45.516" y2="61.204" gradientUnits="userSpaceOnUse"><stop stop-color="#46A29F"/><stop offset="1" stop-color="#4660A2"/></linearGradient><clipPath id="clip0"><path fill="#fff" d="M0 0h80v80H0z"/></clipPath></defs></svg>