<svg width="16" height="16" fill="none" xmlns="http://www.w3.org/2000/svg"><path d="M8 1.333A6.674 6.674 0 001.335 8a6.674 6.674 0 006.667 6.667A6.674 6.674 0 0014.667 8a6.674 6.674 0 00-6.666-6.667zm0 12A5.34 5.34 0 012.668 8a5.34 5.34 0 015.334-5.333A5.34 5.34 0 0113.334 8a5.34 5.34 0 01-5.333 5.333z" fill="url(#paint0_linear)"/><path d="M7.334 7.333h1.333v4H7.334v-4zm0-2.666h1.333V6H7.334V4.667z" fill="url(#paint1_linear)"/><defs><linearGradient id="paint0_linear" x1="1.334" y1="1.402" x2="15.462" y2="13.832" gradientUnits="userSpaceOnUse"><stop stop-color="#F99073"/><stop offset="1" stop-color="#D2957E"/></linearGradient><linearGradient id="paint1_linear" x1="7.334" y1="4.701" x2="9.765" y2="5.129" gradientUnits="userSpaceOnUse"><stop stop-color="#F99073"/><stop offset="1" stop-color="#D2957E"/></linearGradient></defs></svg>