<svg width="80" height="80" fill="none" xmlns="http://www.w3.org/2000/svg"><path d="M47.852 64.356H32.148l-1.797 8.77h19.257l-1.758-8.77z" fill="#F0F4F4"/><path d="M40 55.6c1.038 0 1.875.838 1.875 1.876A1.872 1.872 0 0140 59.35a1.872 1.872 0 01-1.875-1.875c0-1.038.837-1.875 1.875-1.875z" fill="#DEEEEE"/><path d="M79.375 58.125v2.476c0 2.111-1.638 3.75-3.75 3.75H4.375c-2.112 0-3.75-1.639-3.75-3.75v-2.476a3.76 3.76 0 003.75 3.75h71.25a3.76 3.76 0 003.75-3.75z" fill="#F0F4F4"/><path d="M4.602 61.875h-.227a3.76 3.76 0 01-3.75-3.75v2.476c0 2.111 1.638 3.75 3.75 3.75h3.75c-1.66 0-3.013-1.018-3.523-2.476z" fill="#fff"/><path d="M75.398 61.875h.227a3.76 3.76 0 003.75-3.75v2.476c0 2.111-1.638 3.75-3.75 3.75h-3.75c1.66 0 3.013-1.018 3.523-2.476z" fill="#DEEEEE"/><path d="M79.375 53.1v5.025a3.76 3.76 0 01-3.75 3.75H40v-2.524a1.873 1.873 0 001.875-1.875A1.872 1.872 0 0040 55.6v-2.5h39.375zM40 59.35v2.525H4.375a3.76 3.76 0 01-3.75-3.75v-5.024H40v2.5a1.872 1.872 0 00-1.875 1.875c0 1.037.837 1.875 1.875 1.875z" fill="#fff"/><path d="M79.375 8.125v44.976H.625V8.125a3.76 3.76 0 013.75-3.75h71.25a3.76 3.76 0 013.75 3.75zm-3.75 41.226V8.1H4.375v41.25h71.25z" fill="#DEEEEE"/><path d="M5.625 4.375h-1.25a3.76 3.76 0 00-3.75 3.75v44.976h1.25V8.125a3.761 3.761 0 013.75-3.75z" fill="#F0F4F4"/><path d="M75.625 4.375h-1.25a3.76 3.76 0 013.75 3.75v44.976h1.25V8.125a3.76 3.76 0 00-3.75-3.75z" fill="#DEEEEE"/><path d="M75.625 8H4.375v41.25h71.25V8z" fill="#F0F4F4"/><path d="M37.389 14c-4.387 0-7.944 3.72-7.944 8.31v12.466h15.888V22.31c0-4.59-3.557-8.31-7.944-8.31z" fill="#DEEEEE"/><path d="M46.683 33.667c-.356-.13-1.737-1.16-2.276-1.336H31.59c-.54.176-1.92 1.206-2.277 1.336-1.546.55-2.314 1.1-2.314 2.575v2.2h21.998v-2.2c0-1.475-.768-2.025-2.315-2.575z" fill="#DEEEEE"/><path d="M30.944 33.667c.339-.13 1.653-1.16 2.167-1.336h-1.742c-.513.176-1.827 1.206-2.166 1.336-1.472.55-2.203 1.1-2.203 2.575v2.2h1.741v-2.2c0-1.475.731-2.025 2.203-2.575z" fill="#EBF0F6"/><path d="M46.351 33.667c-.407-.13-1.984-1.16-2.6-1.336h-2.089c.616.176 2.193 1.206 2.6 1.336 1.766.55 2.644 1.1 2.644 2.575v2.2h2.089v-2.2c0-1.475-.878-2.025-2.644-2.575z" fill="#DEEEEE"/><path d="M41.667 29.887h-7.333v3.666h7.333v-3.666z" fill="#EBF0F6"/><path d="M43.937 31.844l-2.76-1.91-2.712 8.316 3.642-3.66-.915-.915 2.745-1.83zm-12.812 0l2.76-1.91 2.713 8.316-3.643-3.66.915-.915-2.745-1.83z" fill="#fff"/><path d="M37.533 33.674v4.575h.933l1.812-5.481-2.745.906zm-.937 4.576h.933v-4.576l-2.746-.906 1.813 5.481z" fill="#DEEEEE"/><path d="M41.725 19.026c-.06-.027-2.644-.095-4.337-.138-1.694.043-4.277.11-4.337.138-.09.04-2.385 4.026-2.385 4.026v1.02c0 4.298 4.162 8.25 6.722 8.26 2.559-.01 6.721-3.962 6.721-8.26v-1.02s-2.294-3.986-2.384-4.026z" fill="#EBF0F6"/><path d="M41.836 19.026c-.057-.027-2.523-.095-4.139-.138l-.918.025c1.495.04 3.174.09 3.222.113.086.04 2.275 4.026 2.275 4.026v1.02c0 3.793-3.091 7.31-5.497 8.094.321.104.63.164.918.166 2.442-.01 6.415-3.962 6.415-8.26v-1.02s-2.19-3.986-2.276-4.026z" fill="#DEEEEE"/><path d="M32.502 24.072v-1.02s2.19-3.986 2.275-4.026c.048-.022 1.727-.072 3.222-.113l-.918-.025c-1.616.043-4.082.11-4.14.138-.085.04-2.275 4.026-2.275 4.026v1.02c0 4.298 3.972 8.25 6.415 8.26.288-.002.597-.062.918-.166-2.406-.784-5.497-4.301-5.497-8.094z" fill="#fff"/><path d="M29.566 23.777c2.544-.713 8.38-2.917 10.153-3.936 2.71-1.54 4.349-2.992 4.392-3.03A8.37 8.37 0 0037.85 14c-4.642 0-8.406 3.766-8.406 8.411 0 .467.048.92.12 1.366z" fill="#DEEEEE"/><path d="M30.348 22.411c0-4.481 3.387-8.134 7.652-8.386-.145-.008-.287-.025-.434-.025-4.485 0-8.12 3.766-8.12 8.411 0 .467.045.92.115 1.366.256-.074.552-.168.869-.271a8.282 8.282 0 01-.082-1.095z" fill="#EBF0F6"/><path d="M45.333 22.774c0-2.458-.834-4.685-2.185-6.33l-3.925 3.54s1.95 2.513 6.062 3.793c.03-.33.048-.664.048-1.003z" fill="#DEEEEE"/><path d="M43.26 16.95c.002 0 .006-.005.006-.005-.023-.028-.05-.053-.073-.08-.038-.045-.072-.094-.11-.138-.004-.005-.014-.001-.019-.004-1.472-1.67-3.53-2.723-5.826-2.723-.155 0-.306.016-.459.025 2.117.126 4.009 1.136 5.385 2.698.006.003.015 0 .019.004.038.044.073.093.11.138.024.027.05.052.073.08l-.005.005c1.284 1.557 2.073 3.606 2.073 5.863 0 .229-.018.453-.035.677.285.1.578.197.885.287a9.6 9.6 0 00.05-.964c0-2.257-.79-4.306-2.073-5.863z" fill="#DEEEEE"/><path d="M37.394 35.998a.614.614 0 01-.615-.611c0-.338.266-.611.601-.611h.014a.61.61 0 01.607.61.61.61 0 01-.607.612z" fill="url(#paint0_linear)"/><path d="M37.76 32.331c-1.395 0-3.226-1.217-4.56-3.03a.464.464 0 01.075-.626.409.409 0 01.595.079c1.162 1.58 2.762 2.685 3.89 2.685 2.07 0 5.504-3.495 5.504-7.216 0-.246.189-.446.423-.446.234 0 .423.2.423.446 0 4.319-3.958 8.108-6.35 8.108z" fill="url(#paint1_linear)"/><path d="M48.534 38.442H29.91c-.258 0-.466-.196-.466-.437 0-.242.209-.437.465-.437H48.07v-1.766c0-1.14-.441-1.606-2.052-2.17a22.324 22.324 0 00-.896-.291l-.505-.159a.432.432 0 01-.29-.554.475.475 0 01.59-.274l.498.157c.358.112.678.212.933.304C48.025 33.403 49 34.08 49 35.802v2.203c0 .241-.208.437-.465.437z" fill="url(#paint2_linear)"/><path d="M45.941 31.11c-.338 0-.61-.185-.61-.414v-7.728c0-.229.272-.413.61-.413.338 0 .611.184.611.413v7.728c0 .229-.273.413-.61.413z" fill="url(#paint3_linear)"/><path d="M29.918 18.888a.532.532 0 01-.21-.042c-.234-.1-.329-.345-.214-.546 1.527-2.652 4.605-4.3 8.034-4.3.26 0 .472.182.472.407 0 .226-.211.408-.472.408-3.068 0-5.822 1.474-7.187 3.847a.486.486 0 01-.424.226z" fill="url(#paint4_linear)"/><path d="M46.067 22.555c-.27 0-.489-.192-.489-.428 0-1.8-.75-3.52-2.113-4.847-1.58-1.541-3.839-2.425-6.197-2.425-.27 0-.489-.19-.489-.427s.219-.428.49-.428c2.635 0 5.159.987 6.923 2.708 1.525 1.484 2.364 3.409 2.364 5.419 0 .236-.218.428-.489.428z" fill="url(#paint5_linear)"/><path d="M33.544 23.777c-.19 0-.363-.147-.417-.371-.064-.27.07-.55.3-.626 2.007-.658 4.011-1.656 5.96-2.968 2.47-1.646 3.987-3.223 4.002-3.239.179-.187.452-.169.611.041a.57.57 0 01-.034.717c-.065.067-1.596 1.66-4.15 3.363-2.01 1.353-4.08 2.384-6.155 3.064a.375.375 0 01-.117.019z" fill="url(#paint6_linear)"/><path d="M46.097 23.777a.531.531 0 01-.117-.013c-4.435-.985-6.551-2.926-6.64-3.008-.169-.158-.154-.402.033-.546a.523.523 0 01.647.026c.02.019 2.041 1.857 6.193 2.78.245.054.391.266.327.473-.054.173-.24.288-.443.288z" fill="url(#paint7_linear)"/><path d="M43.502 24.999a.602.602 0 01-.611-.593v-1.258c0-.328.273-.593.61-.593.338 0 .612.265.612.593v1.258a.602.602 0 01-.611.593z" fill="url(#paint8_linear)"/><path d="M39.631 37.22a.397.397 0 01-.288-.127.458.458 0 01-.002-.618l2.15-2.31-.53-.565a.454.454 0 01.062-.672l1.955-1.391-1.145-.856a.455.455 0 01-.1-.608.392.392 0 01.57-.107l1.634 1.222c.11.083.176.218.174.363a.444.444 0 01-.182.358l-2.037 1.45.464.497c.16.17.16.445.001.616l-2.436 2.619a.392.392 0 01-.29.129z" fill="url(#paint9_linear)"/><path d="M35.248 37.22c-.079 0-.157-.042-.217-.128l-1.83-2.59a.563.563 0 010-.61l.348-.49-.3-.278c-.141-.132-.18-.4-.087-.599.093-.2.284-.253.426-.122l.614.57a.482.482 0 01.136.317.542.542 0 01-.088.349l-.398.559 1.614 2.285c.12.17.119.443-.001.611-.06.084-.139.126-.217.126z" fill="url(#paint10_linear)"/><path d="M37.39 33.553c-1.905 0-2.887-.672-2.928-.7-.17-.12-.17-.313 0-.432a.579.579 0 01.615-.002c.031.021.79.523 2.313.523 1.525 0 2.283-.496 2.314-.518a.581.581 0 01.616.007c.167.12.166.311-.004.43-.041.028-1.022.693-2.926.693z" fill="url(#paint11_linear)"/><path d="M23.512 35.498l-2 .99-3-3 .89-1.216 4.11 3.226zm.041 0l2 .99 3-3-.89-1.216-4.11 3.226z" fill="#fff"/><path d="M27.459 18.518s4.05-.569 3.031 5.97l-2-3s-2.37 1-4.971 1c-2.59 0-5.03-1-5.03-1l-1.99 2.99-.01.01c-1.03-11 12.01-8.81 12.01-8.81-1.94.79-1.04 2.84-1.04 2.84z" fill="#DEEEEE"/><path d="M26.463 15.508c-3.625-.098-10.745.742-9.973 8.98l.01-.01.944-1.418c.133-6.27 5.488-7.458 9.019-7.552z" fill="#EBF0F6"/><path d="M30.518 25.498c0 4.75-4.33 9.131-7 9.131-2.66 0-7-4.38-7-9.13v-1.01l-.02-.01 1.99-2.99s2.44 1 5.03 1c2.6 0 4.97-1 4.97-1l2 3h.03v1.01z" fill="#EBF0F6"/><path d="M30.489 24.488l-2-3s-.657.274-1.645.534l1.645 2.466h.029v1.01c0 4.193-3.371 8.092-5.998 8.951.348.115.685.18.998.18 2.67 0 7-4.38 7-9.13v-1.01h-.03z" fill="#DEEEEE"/><path d="M18.518 25.498v-1.01l-.02-.01 1.64-2.462c-.991-.258-1.65-.528-1.65-.528l-1.99 2.99.02.01v1.01c0 4.75 4.34 9.131 7 9.131.313 0 .65-.065 1.002-.18-2.622-.859-6.002-4.758-6.002-8.95z" fill="#fff"/><path d="M35.49 42.488h-24v-3.33c0-1.67.84-2.299 2.5-2.92.82-.31 2.29-.859 3.5-1.44l1.17-1.16 2.85 2.85 2-.99 2 .99 2.84-2.84 1.14 1.141c1.22.59 2.68 1.14 3.5 1.45 1.67.62 2.5 1.25 2.5 2.92v3.33z" fill="#DEEEEE"/><path d="M13.49 39.158c0-1.67.84-2.299 2.5-2.92.82-.31 2.29-.859 3.5-1.44l.166-.163-.996-.996-1.17 1.16c-1.21.58-2.68 1.13-3.5 1.44-1.66.62-2.5 1.25-2.5 2.919v3.33h2v-3.33z" fill="#DEEEEE"/><path d="M24.55 42.488h-2l.5-5.5h1l.5 5.5zm-.144-6.859h-1.781v1.359h1.781v-1.36z" fill="#EBF0F6"/><path d="M11.5 42.989a.5.5 0 01-.5-.5v-3.333c0-1.949 1.036-2.717 2.825-3.386.534-.199 2.158-.802 3.46-1.423a.5.5 0 11.43.902c-1.341.64-2.997 1.256-3.54 1.458-1.707.638-2.175 1.164-2.175 2.45v3.332a.5.5 0 01-.5.5z" fill="url(#paint12_linear)"/><path d="M35.5 42.988a.5.5 0 01-.5-.5v-3.332c0-1.285-.468-1.811-2.175-2.45-1.474-.547-2.634-1.025-3.543-1.461a.5.5 0 01.432-.902c.882.422 2.014.89 3.46 1.427 1.79.668 2.826 1.437 2.826 3.386v3.332a.5.5 0 01-.5.5z" fill="url(#paint13_linear)"/><path d="M23.53 35.126c-2.826 0-7.5-4.497-7.5-9.622a.5.5 0 111 0c0 4.446 4.054 8.622 6.5 8.622 2.444 0 6.5-4.176 6.5-8.622a.5.5 0 111 0c0 5.125-4.675 9.622-7.5 9.622z" fill="url(#paint14_linear)"/><path d="M16.5 24.99a.5.5 0 01-.498-.453c-.265-2.826.347-5.078 1.82-6.694C19.961 15.493 23.43 15 25.963 15c1.512 0 2.581.176 2.625.184a.502.502 0 01.109.956c-.427.174-.7.424-.837.761-.157.39-.102.825-.032 1.109.51.02 1.538.184 2.319 1.098.953 1.112 1.236 2.948.845 5.459a.5.5 0 01-.91.2L28.305 22.1c-.796.288-2.703.89-4.776.89-2.079 0-4.028-.606-4.834-.893l-1.78 2.67a.5.5 0 01-.416.222zm12-4a.5.5 0 01.415.222l1.235 1.85c.076-1.498-.182-2.626-.761-3.304-.56-.652-1.293-.75-1.68-.75-.098 0-.16.007-.175.008a.498.498 0 01-.524-.294c-.02-.047-.496-1.155-.076-2.195a2.18 2.18 0 01.27-.485 18.298 18.298 0 00-1.24-.042c-2.331 0-5.51.437-7.404 2.516-1.006 1.105-1.545 2.58-1.611 4.398l1.134-1.702a.496.496 0 01.606-.185c.024.01 2.379.962 4.84.962 2.46 0 4.753-.95 4.777-.96a.494.494 0 01.193-.04z" fill="url(#paint15_linear)"/><path d="M30.53 26.004a.5.5 0 01-.5-.5V24.49a.5.5 0 111 0v1.015a.5.5 0 01-.5.5z" fill="url(#paint16_linear)"/><path d="M16.53 26.004a.5.5 0 01-.5-.5V24.49a.5.5 0 111 0v1.015a.5.5 0 01-.5.5z" fill="url(#paint17_linear)"/><path d="M21.516 36.988a.502.502 0 01-.354-.146l-3-3a.5.5 0 11.707-.706l2.746 2.745 1.693-.84a.501.501 0 01.445.896l-2.015 1a.495.495 0 01-.222.051z" fill="url(#paint18_linear)"/><path d="M25.515 36.989a.495.495 0 01-.222-.052l-2.015-1a.5.5 0 11.444-.896l1.693.84 2.746-2.745a.5.5 0 11.707.707l-3 3a.502.502 0 01-.353.145z" fill="url(#paint19_linear)"/><path d="M23.549 37.989a.498.498 0 01-.354-.147l-1-1a.5.5 0 11.707-.707l1 1a.5.5 0 01-.353.854z" fill="url(#paint20_linear)"/><path d="M23.557 37.989a.498.498 0 01-.354-.854l1-1a.5.5 0 11.707.707l-1 1a.498.498 0 01-.353.147z" fill="url(#paint21_linear)"/><path d="M22.55 41.989a.5.5 0 01-.498-.556l.5-4.5a.507.507 0 01.552-.441.5.5 0 01.442.552l-.5 4.5a.5.5 0 01-.497.445z" fill="url(#paint22_linear)"/><path d="M24.552 41.989a.5.5 0 01-.496-.445l-.5-4.5a.5.5 0 01.994-.111l.5 4.5a.5.5 0 01-.498.556z" fill="url(#paint23_linear)"/><path d="M35.5 42.988h-24a.5.5 0 110-1h24a.5.5 0 110 1z" fill="url(#paint24_linear)"/><path d="M6 8H4v41h2V8zm22.113 65.125h23.762c1.388 0 2.5 1.113 2.5 2.5H25.613a2.5 2.5 0 012.5-2.5z" fill="#fff"/><path d="M48.102 65.606l-.25-1.25H32.149l-.256 1.25h16.21z" fill="#DEEEEE"/><path d="M31.892 65.605l-1.54 7.52h2.5l1.54-7.52h-2.5z" fill="#fff"/><path d="M48.07 65.605l1.54 7.52h-2.5l-1.54-7.52h2.5z" fill="#DEEEEE"/><path d="M79.375 53.726H.625a.626.626 0 010-1.25h78.75a.624.624 0 110 1.25z" fill="url(#paint25_linear)"/><path d="M40 59.975a2.503 2.503 0 01-2.5-2.5c0-1.379 1.122-2.5 2.5-2.5s2.5 1.121 2.5 2.5-1.122 2.5-2.5 2.5zm0-3.75a1.25 1.25 0 000 2.5 1.251 1.251 0 000-2.5z" fill="url(#paint26_linear)"/><path d="M30.638 72.476a.625.625 0 01-.614-.748l1.25-6.25a.63.63 0 01.735-.49.62.62 0 01.49.735l-1.25 6.25a.625.625 0 01-.61.503z" fill="url(#paint27_linear)"/><path d="M49.36 72.475a.624.624 0 01-.611-.502l-1.25-6.25a.623.623 0 01.49-.735.63.63 0 01.735.49l1.25 6.25a.625.625 0 01-.614.748z" fill="url(#paint28_linear)"/><path d="M54.375 76.25H25.613a.625.625 0 110-1.25h28.763a.625.625 0 110 1.25z" fill="url(#paint29_linear)"/><path d="M75.625 62.5H4.375A4.38 4.38 0 010 58.125v-50A4.38 4.38 0 014.375 3.75h71.25A4.38 4.38 0 0180 8.125v50a4.38 4.38 0 01-4.375 4.375zM1.25 58.113v.012a3.128 3.128 0 003.125 3.125h71.25a3.128 3.128 0 003.125-3.125v-50A3.128 3.128 0 0075.625 5H4.375A3.128 3.128 0 001.25 8.125v49.988z" fill="url(#paint30_linear)"/><path d="M75.625 64.976H4.375C1.921 64.976 0 63.053 0 60.6v-2.476c0-.345.28-.637.625-.637.346 0 .625.266.625.613v2.5c0 1.78 1.344 3.125 3.125 3.125h71.25c1.781 0 3.125-1.344 3.125-3.125v-2.476a.625.625 0 111.25 0V60.6c0 2.452-1.921 4.375-4.375 4.375z" fill="url(#paint31_linear)"/><path d="M25.613 76.25a.625.625 0 01-.625-.625 3.128 3.128 0 013.125-3.125.625.625 0 110 1.25 1.877 1.877 0 00-1.875 1.875c0 .346-.28.625-.625.625z" fill="url(#paint32_linear)"/><path d="M54.375 76.25a.625.625 0 01-.625-.625 1.877 1.877 0 00-1.875-1.875.625.625 0 110-1.25A3.128 3.128 0 0155 75.625c0 .346-.28.625-.625.625z" fill="url(#paint33_linear)"/><path d="M51.875 73.75H28.113a.625.625 0 110-1.25h23.763a.625.625 0 110 1.25z" fill="url(#paint34_linear)"/><path d="M75.625 50H4.375a.625.625 0 01-.625-.625V8.125c0-.345.28-.625.625-.625h71.25c.345 0 .625.28.625.625v41.25c0 .346-.28.625-.625.625zM5 48.75h70v-40H5v40z" fill="url(#paint35_linear)"/><path d="M68.375 36a4.374 4.374 0 11-8.75 0 4.375 4.375 0 018.75 0z" fill="#EBF0F6"/><path d="M60.875 36c0-2.202 1.632-4.006 3.75-4.311-.206-.03-.41-.064-.625-.064a4.375 4.375 0 000 8.75c.214 0 .42-.033.625-.063-2.118-.305-3.75-2.108-3.75-4.312z" fill="#fff"/><path d="M67.164 36c0 2.202-1.632 4.007-3.75 4.312.206.03.41.063.625.063a4.375 4.375 0 000-8.75c-.214 0-.42.033-.625.064 2.118.305 3.75 2.108 3.75 4.311z" fill="#DEEEEE"/><path d="M64 41c-2.757 0-5-2.242-5-5s2.243-5 5-5 5 2.242 5 5-2.243 5-5 5zm0-8.75A3.754 3.754 0 0060.25 36 3.754 3.754 0 0064 39.75 3.754 3.754 0 0067.75 36 3.754 3.754 0 0064 32.25z" fill="url(#paint36_linear)"/><path d="M65.875 37.25a.624.624 0 01-.589-.416A1.352 1.352 0 0064 36c-.98 0-1.283.825-1.286.834a.626.626 0 01-1.178-.417c.024-.067.61-1.666 2.464-1.666s2.44 1.599 2.464 1.666a.626.626 0 01-.589.833z" fill="url(#paint37_linear)"/><path d="M62.75 37.25h-.625a.625.625 0 110-1.25h.625a.625.625 0 110 1.25z" fill="url(#paint38_linear)"/><path d="M65.875 37.25h-.625a.625.625 0 110-1.25h.625a.625.625 0 110 1.25z" fill="url(#paint39_linear)"/><path d="M68.627 20.952a4.375 4.375 0 11-8.75 0 4.375 4.375 0 018.75 0z" fill="#EBF0F6"/><path d="M67.56 20.952c0 2.202-1.632 4.007-3.75 4.312.207.03.412.063.626.063a4.375 4.375 0 000-8.75c-.214 0-.42.033-.626.064 2.118.305 3.75 2.108 3.75 4.311z" fill="#DEEEEE"/><path d="M61.15 20.952c0-2.202 1.631-4.006 3.75-4.311-.206-.03-.411-.063-.625-.063a4.375 4.375 0 100 8.75c.214 0 .42-.034.625-.064-2.119-.305-3.75-2.108-3.75-4.312z" fill="#fff"/><path d="M64.252 25.952a4.961 4.961 0 01-3.535-1.465 4.965 4.965 0 01-1.465-3.535c0-1.335.52-2.591 1.465-3.535 1.887-1.89 5.18-1.89 7.07 0a4.963 4.963 0 011.465 3.535 4.96 4.96 0 01-1.465 3.535 4.962 4.962 0 01-3.535 1.465zm-.001-8.75a3.724 3.724 0 00-2.65 1.099 3.72 3.72 0 00-1.099 2.651c0 1.001.39 1.944 1.099 2.652 1.416 1.416 3.886 1.416 5.302 0a3.72 3.72 0 001.099-2.652 3.72 3.72 0 00-1.099-2.651 3.73 3.73 0 00-2.652-1.098z" fill="url(#paint40_linear)"/><path d="M65.203 22.622c-.544 0-1.217-.166-1.837-.786-1.31-1.31-.594-2.855-.564-2.92a.625.625 0 011.128.54 1.35 1.35 0 00.32 1.496c.691.693 1.49.323 1.5.32a.626.626 0 01.536 1.128c-.034.017-.48.223-1.083.223z" fill="url(#paint41_linear)"/><path d="M66.02 22.461a.623.623 0 01-.442-.183l-.442-.442a.625.625 0 11.884-.884l.442.442a.625.625 0 01-.442 1.067z" fill="url(#paint42_linear)"/><path d="M63.81 20.252a.627.627 0 01-.443-.183l-.442-.442a.624.624 0 11.884-.884l.442.442a.624.624 0 01-.442 1.067z" fill="url(#paint43_linear)"/><defs><linearGradient id="paint0_linear" x1="36.569" y1="35.055" x2="39.439" y2="34.203" gradientUnits="userSpaceOnUse"><stop stop-color="#46A29F"/><stop offset="1" stop-color="#4660A2"/></linearGradient><linearGradient id="paint1_linear" x1="31.221" y1="25.73" x2="55.75" y2="16.366" gradientUnits="userSpaceOnUse"><stop stop-color="#46A29F"/><stop offset="1" stop-color="#4660A2"/></linearGradient><linearGradient id="paint2_linear" x1="26.085" y1="33.726" x2="52.342" y2="8.779" gradientUnits="userSpaceOnUse"><stop stop-color="#46A29F"/><stop offset="1" stop-color="#4660A2"/></linearGradient><linearGradient id="paint3_linear" x1="45.12" y1="24.508" x2="48.237" y2="24.375" gradientUnits="userSpaceOnUse"><stop stop-color="#46A29F"/><stop offset="1" stop-color="#4660A2"/></linearGradient><linearGradient id="paint4_linear" x1="27.975" y1="15.116" x2="45.186" y2="6.173" gradientUnits="userSpaceOnUse"><stop stop-color="#46A29F"/><stop offset="1" stop-color="#4660A2"/></linearGradient><linearGradient id="paint5_linear" x1="35.099" y1="15.953" x2="57.5" y2="8.352" gradientUnits="userSpaceOnUse"><stop stop-color="#46A29F"/><stop offset="1" stop-color="#4660A2"/></linearGradient><linearGradient id="paint6_linear" x1="31.221" y1="18.118" x2="54.672" y2="7.673" gradientUnits="userSpaceOnUse"><stop stop-color="#46A29F"/><stop offset="1" stop-color="#4660A2"/></linearGradient><linearGradient id="paint7_linear" x1="37.963" y1="20.947" x2="51.814" y2="12.722" gradientUnits="userSpaceOnUse"><stop stop-color="#46A29F"/><stop offset="1" stop-color="#4660A2"/></linearGradient><linearGradient id="paint8_linear" x1="42.681" y1="23.113" x2="45.736" y2="22.659" gradientUnits="userSpaceOnUse"><stop stop-color="#46A29F"/><stop offset="1" stop-color="#4660A2"/></linearGradient><linearGradient id="paint9_linear" x1="38.383" y1="31.561" x2="50.402" y2="29.182" gradientUnits="userSpaceOnUse"><stop stop-color="#46A29F"/><stop offset="1" stop-color="#4660A2"/></linearGradient><linearGradient id="paint10_linear" x1="32.691" y1="33.447" x2="38.802" y2="32.54" gradientUnits="userSpaceOnUse"><stop stop-color="#46A29F"/><stop offset="1" stop-color="#4660A2"/></linearGradient><linearGradient id="paint11_linear" x1="33.284" y1="32.61" x2="38.157" y2="25.376" gradientUnits="userSpaceOnUse"><stop stop-color="#46A29F"/><stop offset="1" stop-color="#4660A2"/></linearGradient><linearGradient id="paint12_linear" x1="9.797" y1="36.281" x2="26.715" y2="32.235" gradientUnits="userSpaceOnUse"><stop stop-color="#46A29F"/><stop offset="1" stop-color="#4660A2"/></linearGradient><linearGradient id="paint13_linear" x1="27.795" y1="36.279" x2="44.718" y2="32.232" gradientUnits="userSpaceOnUse"><stop stop-color="#46A29F"/><stop offset="1" stop-color="#4660A2"/></linearGradient><linearGradient id="paint14_linear" x1="13.452" y1="27.315" x2="45.561" y2="13.187" gradientUnits="userSpaceOnUse"><stop stop-color="#46A29F"/><stop offset="1" stop-color="#4660A2"/></linearGradient><linearGradient id="paint15_linear" x1="13.326" y1="17.28" x2="45.61" y2="2.674" gradientUnits="userSpaceOnUse"><stop stop-color="#46A29F"/><stop offset="1" stop-color="#4660A2"/></linearGradient><linearGradient id="paint16_linear" x1="29.858" y1="24.449" x2="32.358" y2="24.081" gradientUnits="userSpaceOnUse"><stop stop-color="#46A29F"/><stop offset="1" stop-color="#4660A2"/></linearGradient><linearGradient id="paint17_linear" x1="15.857" y1="24.449" x2="18.358" y2="24.081" gradientUnits="userSpaceOnUse"><stop stop-color="#46A29F"/><stop offset="1" stop-color="#4660A2"/></linearGradient><linearGradient id="paint18_linear" x1="16.982" y1="33.902" x2="29.795" y2="28.18" gradientUnits="userSpaceOnUse"><stop stop-color="#46A29F"/><stop offset="1" stop-color="#4660A2"/></linearGradient><linearGradient id="paint19_linear" x1="21.966" y1="33.902" x2="34.779" y2="28.181" gradientUnits="userSpaceOnUse"><stop stop-color="#46A29F"/><stop offset="1" stop-color="#4660A2"/></linearGradient><linearGradient id="paint20_linear" x1="21.705" y1="36.445" x2="26.401" y2="35.051" gradientUnits="userSpaceOnUse"><stop stop-color="#46A29F"/><stop offset="1" stop-color="#4660A2"/></linearGradient><linearGradient id="paint21_linear" x1="22.713" y1="36.445" x2="27.409" y2="35.051" gradientUnits="userSpaceOnUse"><stop stop-color="#46A29F"/><stop offset="1" stop-color="#4660A2"/></linearGradient><linearGradient id="paint22_linear" x1="21.791" y1="37.744" x2="25.6" y2="37.436" gradientUnits="userSpaceOnUse"><stop stop-color="#46A29F"/><stop offset="1" stop-color="#4660A2"/></linearGradient><linearGradient id="paint23_linear" x1="23.295" y1="37.744" x2="27.103" y2="37.436" gradientUnits="userSpaceOnUse"><stop stop-color="#46A29F"/><stop offset="1" stop-color="#4660A2"/></linearGradient><linearGradient id="paint24_linear" x1="6.704" y1="42.217" x2="7.842" y2="33.765" gradientUnits="userSpaceOnUse"><stop stop-color="#46A29F"/><stop offset="1" stop-color="#4660A2"/></linearGradient><linearGradient id="paint25_linear" x1="-13.747" y1="52.761" x2="-13.183" y2="42.034" gradientUnits="userSpaceOnUse"><stop stop-color="#46A29F"/><stop offset="1" stop-color="#4660A2"/></linearGradient><linearGradient id="paint26_linear" x1="36.641" y1="56.117" x2="48.381" y2="52.631" gradientUnits="userSpaceOnUse"><stop stop-color="#46A29F"/><stop offset="1" stop-color="#4660A2"/></linearGradient><linearGradient id="paint27_linear" x1="29.582" y1="66.688" x2="35.909" y2="66.061" gradientUnits="userSpaceOnUse"><stop stop-color="#46A29F"/><stop offset="1" stop-color="#4660A2"/></linearGradient><linearGradient id="paint28_linear" x1="47.057" y1="66.687" x2="53.384" y2="66.061" gradientUnits="userSpaceOnUse"><stop stop-color="#46A29F"/><stop offset="1" stop-color="#4660A2"/></linearGradient><linearGradient id="paint29_linear" x1="19.831" y1="75.285" x2="21.311" y2="64.736" gradientUnits="userSpaceOnUse"><stop stop-color="#46A29F"/><stop offset="1" stop-color="#4660A2"/></linearGradient><linearGradient id="paint30_linear" x1="-13.747" y1="17.161" x2="161.939" y2="-53.87" gradientUnits="userSpaceOnUse"><stop stop-color="#46A29F"/><stop offset="1" stop-color="#4660A2"/></linearGradient><linearGradient id="paint31_linear" x1="-13.747" y1="59.197" x2="4.729" y2=".586" gradientUnits="userSpaceOnUse"><stop stop-color="#46A29F"/><stop offset="1" stop-color="#4660A2"/></linearGradient><linearGradient id="paint32_linear" x1="24.344" y1="73.356" x2="33.149" y2="70.742" gradientUnits="userSpaceOnUse"><stop stop-color="#46A29F"/><stop offset="1" stop-color="#4660A2"/></linearGradient><linearGradient id="paint33_linear" x1="50.606" y1="73.356" x2="59.411" y2="70.742" gradientUnits="userSpaceOnUse"><stop stop-color="#46A29F"/><stop offset="1" stop-color="#4660A2"/></linearGradient><linearGradient id="paint34_linear" x1="23.19" y1="72.785" x2="24.951" y2="62.325" gradientUnits="userSpaceOnUse"><stop stop-color="#46A29F"/><stop offset="1" stop-color="#4660A2"/></linearGradient><linearGradient id="paint35_linear" x1="-8.708" y1="17.202" x2="138.714" y2="-57.467" gradientUnits="userSpaceOnUse"><stop stop-color="#46A29F"/><stop offset="1" stop-color="#4660A2"/></linearGradient><linearGradient id="paint36_linear" x1="57.282" y1="33.283" x2="80.762" y2="26.311" gradientUnits="userSpaceOnUse"><stop stop-color="#46A29F"/><stop offset="1" stop-color="#4660A2"/></linearGradient><linearGradient id="paint37_linear" x1="60.641" y1="35.322" x2="70.088" y2="29.714" gradientUnits="userSpaceOnUse"><stop stop-color="#46A29F"/><stop offset="1" stop-color="#4660A2"/></linearGradient><linearGradient id="paint38_linear" x1="61.178" y1="36.286" x2="65.175" y2="34.505" gradientUnits="userSpaceOnUse"><stop stop-color="#46A29F"/><stop offset="1" stop-color="#4660A2"/></linearGradient><linearGradient id="paint39_linear" x1="64.303" y1="36.286" x2="68.3" y2="34.505" gradientUnits="userSpaceOnUse"><stop stop-color="#46A29F"/><stop offset="1" stop-color="#4660A2"/></linearGradient><linearGradient id="paint40_linear" x1="57.533" y1="18.272" x2="80.996" y2="11.272" gradientUnits="userSpaceOnUse"><stop stop-color="#46A29F"/><stop offset="1" stop-color="#4660A2"/></linearGradient><linearGradient id="paint41_linear" x1="61.882" y1="19.487" x2="71.422" y2="16.654" gradientUnits="userSpaceOnUse"><stop stop-color="#46A29F"/><stop offset="1" stop-color="#4660A2"/></linearGradient><linearGradient id="paint42_linear" x1="64.662" y1="21.155" x2="68.635" y2="19.976" gradientUnits="userSpaceOnUse"><stop stop-color="#46A29F"/><stop offset="1" stop-color="#4660A2"/></linearGradient><linearGradient id="paint43_linear" x1="62.451" y1="18.946" x2="66.424" y2="17.767" gradientUnits="userSpaceOnUse"><stop stop-color="#46A29F"/><stop offset="1" stop-color="#4660A2"/></linearGradient></defs></svg>