<svg width="80" height="80" fill="none" xmlns="http://www.w3.org/2000/svg"><path d="M61.875 74.375c0 2.75-2.248 5-5 5h-33.75c-2.75 0-5-2.25-5-5V8.125c0-2.75 2.25-5 5-5h33.75c2.752 0 5 2.25 5 5v66.25z" fill="#656D78"/><path d="M61.875 74.375c0 2.75-2.248 5-5 5h-33.75c-2.75 0-5-2.25-5-5V8.125c0-2.75 2.25-5 5-5h33.75c2.752 0 5 2.25 5 5v66.25z" fill="#DEEEEE"/><path d="M61.875 71.875c0 2.75-2.248 5-5 5h-33.75c-2.75 0-5-2.25-5-5V5.625c0-2.75 2.25-5 5-5h33.75c2.752 0 5 2.25 5 5v66.25z" fill="#DEEEEE"/><path d="M20.625 71.875V5.625c0-2.75 2.25-5 5-5h-2.5c-2.75 0-5 2.25-5 5v66.25c0 2.75 2.25 5 5 5h2.5c-2.75 0-5-2.25-5-5z" fill="#F0F4F4"/><path d="M61.876 5.625H18.125v60h43.75v-60z" fill="#DEEEEE"/><path d="M43.125 71.25a3.124 3.124 0 11-6.25 0 3.126 3.126 0 016.25 0zm-22.5-65.625h-2.5v60h2.5v-60z" fill="#F0F4F4"/><path d="M40.084 25.99a8.05 8.05 0 00-11.392 0 8.057 8.057 0 000 11.39l11.392 11.39 11.388-11.39a8.046 8.046 0 000-11.392 8.046 8.046 0 00-11.388 0z" fill="#EBF0F6"/><path d="M31.192 37.38c-2.977-3.877-3.144-8.246 0-11.39a7.997 7.997 0 014.446-2.255 8.032 8.032 0 00-6.946 2.254 8.057 8.057 0 000 11.392l11.392 11.388-8.892-11.388z" fill="#F0F4F4"/><path d="M40.084 49.39a.623.623 0 01-.442-.183L28.251 37.82c-3.385-3.384-3.385-8.891 0-12.275A8.62 8.62 0 0134.388 23c2.117 0 4.117.752 5.696 2.13A8.606 8.606 0 0145.78 23c2.32 0 4.498.903 6.135 2.544a8.615 8.615 0 012.546 6.137c0 2.32-.904 4.5-2.546 6.138L40.526 49.207a.624.624 0 01-.442.183zm-5.696-25.14c-1.985 0-3.85.773-5.254 2.178-2.896 2.896-2.896 7.61 0 10.508l10.95 10.946L51.03 36.936a7.373 7.373 0 002.18-5.254c0-1.985-.774-3.85-2.18-5.254a7.368 7.368 0 00-5.252-2.178 7.37 7.37 0 00-5.252 2.178.643.643 0 01-.884 0 7.374 7.374 0 00-5.254-2.178z" fill="url(#paint0_linear_13214_4759)"/><path d="M56.913 3.75a.63.63 0 01-.63-.625.62.62 0 01.617-.625h.013a.625.625 0 010 1.25z" fill="url(#paint1_linear_13214_4759)"/><path d="M54.413 3.75a.63.63 0 01-.632-.625.62.62 0 01.618-.625h.014a.626.626 0 010 1.25z" fill="url(#paint2_linear_13214_4759)"/><path d="M56.875 77.5h-33.75a5.631 5.631 0 01-5.625-5.625V5.625A5.631 5.631 0 0123.125 0h33.75A5.631 5.631 0 0162.5 5.625v66.25a5.631 5.631 0 01-5.625 5.625zM23.125 1.25a4.38 4.38 0 00-4.375 4.375v66.25a4.38 4.38 0 004.375 4.375h33.75a4.38 4.38 0 004.375-4.375V5.625a4.38 4.38 0 00-4.375-4.375h-33.75z" fill="url(#paint3_linear_13214_4759)"/><path d="M56.875 80h-33.75a5.631 5.631 0 01-5.625-5.625.625.625 0 111.25 0 4.38 4.38 0 004.375 4.375h33.75a4.38 4.38 0 004.375-4.375.624.624 0 111.25 0A5.632 5.632 0 0156.875 80z" fill="url(#paint4_linear_13214_4759)"/><path d="M61.875 75a.624.624 0 01-.625-.625v-2.5a.624.624 0 111.25 0v2.5c0 .345-.28.625-.625.625z" fill="url(#paint5_linear_13214_4759)"/><path d="M18.125 75a.625.625 0 01-.625-.625v-2.5a.625.625 0 111.25 0v2.5c0 .345-.28.625-.625.625z" fill="url(#paint6_linear_13214_4759)"/><path d="M60.625 6.25h-41.25a.625.625 0 110-1.25h41.25a.625.625 0 110 1.25z" fill="url(#paint7_linear_13214_4759)"/><path d="M60.625 66.25h-41.25a.625.625 0 110-1.25h41.25a.625.625 0 110 1.25z" fill="url(#paint8_linear_13214_4759)"/><path d="M40 75a3.754 3.754 0 01-3.75-3.75A3.754 3.754 0 0140 67.5a3.754 3.754 0 013.75 3.75A3.754 3.754 0 0140 75zm0-6.25a2.503 2.503 0 00-2.5 2.5c0 1.378 1.122 2.5 2.5 2.5s2.5-1.122 2.5-2.5-1.122-2.5-2.5-2.5z" fill="url(#paint9_linear_13214_4759)"/><path d="M44.375 3.75h-8.75a.625.625 0 110-1.25h8.75a.625.625 0 110 1.25z" fill="url(#paint10_linear_13214_4759)"/><path d="M62.5 15a.625.625 0 01-.625-.625v-2.5a.625.625 0 111.25 0v2.5c0 .345-.28.625-.625.625z" fill="url(#paint11_linear_13214_4759)"/><path d="M17.5 16.25a.625.625 0 01-.625-.625v-2.5a.625.625 0 111.25 0v2.5c0 .345-.28.625-.625.625z" fill="url(#paint12_linear_13214_4759)"/><path d="M62.5 26.25a.625.625 0 01-.625-.625v-7.5a.625.625 0 111.25 0v7.5c0 .345-.28.625-.625.625z" fill="url(#paint13_linear_13214_4759)"/><defs><linearGradient id="paint0_linear_13214_4759" x1="20.772" y1="29.024" x2="87.269" y2="7.516" gradientUnits="userSpaceOnUse"><stop stop-color="#46A29F"/><stop offset="1" stop-color="#4660A2"/></linearGradient><linearGradient id="paint1_linear_13214_4759" x1="56.066" y1="2.785" x2="59.013" y2="1.906" gradientUnits="userSpaceOnUse"><stop stop-color="#46A29F"/><stop offset="1" stop-color="#4660A2"/></linearGradient><linearGradient id="paint2_linear_13214_4759" x1="53.565" y1="2.785" x2="56.513" y2="1.906" gradientUnits="userSpaceOnUse"><stop stop-color="#46A29F"/><stop offset="1" stop-color="#4660A2"/></linearGradient><linearGradient id="paint3_linear_13214_4759" x1="9.767" y1="17.692" x2="121.426" y2="-1.559" gradientUnits="userSpaceOnUse"><stop stop-color="#46A29F"/><stop offset="1" stop-color="#4660A2"/></linearGradient><linearGradient id="paint4_linear_13214_4759" x1="9.767" y1="75.177" x2="30.409" y2="31.049" gradientUnits="userSpaceOnUse"><stop stop-color="#46A29F"/><stop offset="1" stop-color="#4660A2"/></linearGradient><linearGradient id="paint5_linear_13214_4759" x1="61.035" y1="72.106" x2="64.198" y2="71.793" gradientUnits="userSpaceOnUse"><stop stop-color="#46A29F"/><stop offset="1" stop-color="#4660A2"/></linearGradient><linearGradient id="paint6_linear_13214_4759" x1="17.285" y1="72.106" x2="20.448" y2="71.793" gradientUnits="userSpaceOnUse"><stop stop-color="#46A29F"/><stop offset="1" stop-color="#4660A2"/></linearGradient><linearGradient id="paint7_linear_13214_4759" x1="11.447" y1="5.285" x2="12.502" y2="-5.366" gradientUnits="userSpaceOnUse"><stop stop-color="#46A29F"/><stop offset="1" stop-color="#4660A2"/></linearGradient><linearGradient id="paint8_linear_13214_4759" x1="11.447" y1="65.285" x2="12.502" y2="54.633" gradientUnits="userSpaceOnUse"><stop stop-color="#46A29F"/><stop offset="1" stop-color="#4660A2"/></linearGradient><linearGradient id="paint9_linear_13214_4759" x1="34.961" y1="69.212" x2="52.572" y2="63.983" gradientUnits="userSpaceOnUse"><stop stop-color="#46A29F"/><stop offset="1" stop-color="#4660A2"/></linearGradient><linearGradient id="paint10_linear_13214_4759" x1="33.282" y1="2.785" x2="37.129" y2="-6.353" gradientUnits="userSpaceOnUse"><stop stop-color="#46A29F"/><stop offset="1" stop-color="#4660A2"/></linearGradient><linearGradient id="paint11_linear_13214_4759" x1="61.66" y1="12.106" x2="64.823" y2="11.793" gradientUnits="userSpaceOnUse"><stop stop-color="#46A29F"/><stop offset="1" stop-color="#4660A2"/></linearGradient><linearGradient id="paint12_linear_13214_4759" x1="16.66" y1="13.356" x2="19.823" y2="13.043" gradientUnits="userSpaceOnUse"><stop stop-color="#46A29F"/><stop offset="1" stop-color="#4660A2"/></linearGradient><linearGradient id="paint13_linear_13214_4759" x1="61.66" y1="19.497" x2="64.848" y2="19.362" gradientUnits="userSpaceOnUse"><stop stop-color="#46A29F"/><stop offset="1" stop-color="#4660A2"/></linearGradient></defs></svg>