<svg width="80" height="80" fill="none" xmlns="http://www.w3.org/2000/svg"><path d="M51.86 26.888c-.158.127-1.809 1.237-11.235 1.237-9.608 0-12.285-1.151-12.481-1.241-5.3 3.734-8.773 9.889-8.773 16.864 0 7.5 4.015 14.044 10 17.656v4.221h21.25v-4.218c5.988-3.61 10.006-10.157 10.006-17.66 0-6.972-3.47-13.126-8.767-16.859z" fill="#DEEEEE"/><path d="M21.871 43.748c0-6.676 3.186-12.596 8.107-16.365-1.238-.244-1.753-.462-1.834-.5-5.3 3.735-8.772 9.89-8.772 16.865 0 7.5 4.014 14.044 10 17.656 0 0-7.5-6.717-7.5-17.657z" fill="#F0F4F4"/><path d="M51.853 26.893c-.192.148-1.913 1.232-11.228 1.232-9.433 0-12.19-1.11-12.473-1.238-3.812 2.69-6.681 6.63-7.985 11.238h39.665c-1.303-4.603-4.17-8.541-7.979-11.232z" fill="#F0F4F4"/><path d="M30.004 27.387c-1.205-.235-1.737-.448-1.852-.5-3.812 2.69-6.681 6.631-7.985 11.238h2.5c1.228-4.337 3.854-8.07 7.337-10.738zm3.121 5.738c0 .688-.563 1.25-1.25 1.25-.7 0-1.25-.562-1.25-1.25 0-.687.55-1.25 1.25-1.25.687 0 1.25.563 1.25 1.25z" fill="#fff"/><path d="M34.375 76.875h11.25s-1.25 2.5-5.625 2.5-5.625-2.5-5.625-2.5z" fill="#5C9EFF"/><path d="M36.875 76.875h-2.5s1.25 2.5 5.625 2.5c.452 0 .863-.032 1.25-.08-3.362-.416-4.375-2.42-4.375-2.42z" fill="#94C1FF"/><path d="M29.375 65.625v8.75l2.5 2.5h16.25l2.5-2.5v-8.75h-21.25z" fill="#DEEEEE"/><path d="M31.875 73.063v-7.438h-2.5v8.75l2.5 2.5h2.5l-2.5-2.5v-1.312z" fill="#F0F4F4"/><path d="M53.125 13.125c.687 0 1.25.563 1.25 1.25 0 .689-.563 1.25-1.25 1.25-.7 0-1.25-.561-1.25-1.25 0-.687.55-1.25 1.25-1.25zm-11.25-3.75c1.375 0 2.5 1.126 2.5 2.5a2.499 2.499 0 11-5 0 2.5 2.5 0 012.5-2.5zm-15 2.5a3.754 3.754 0 013.75 3.75 3.753 3.753 0 01-3.75 3.75 3.745 3.745 0 01-3.75-3.75 3.746 3.746 0 013.75-3.75z" fill="#fff"/><path d="M40.625 28.125c-10 0-12.5-1.25-12.5-1.25s1.25-1.25 11.25-1.25 12.5 1.25 12.5 1.25-1.25 1.25-11.25 1.25z" fill="#117CFF"/><path d="M40.625 26.875c-5.302 0-8.482-.352-10.313-.681-1.82.33-2.187.681-2.187.681s2.5 1.25 12.5 1.25 11.25-1.25 11.25-1.25-.566-.276-2.187-.569c-1.614.293-4.366.569-9.063.569z" fill="#DEEEEE"/><path d="M45.625 30a1.875 1.875 0 11-3.75-.001 1.875 1.875 0 013.75 0z" fill="#fff"/><path d="M33.75 50.626a3.125 3.125 0 100-6.25 3.125 3.125 0 000 6.25zm12.5 0a3.125 3.125 0 100-6.25 3.125 3.125 0 000 6.25zm-3.125 7.499L40 55.625l-3.125 2.5v6.225h6.25v-6.225z" fill="#F0F4F4"/><path d="M46.91 22.5a.63.63 0 01-.632-.625.62.62 0 01.618-.625h.013a.626.626 0 010 1.25z" fill="url(#paint0_linear)"/><path d="M34.409 5a.63.63 0 01-.631-.625.62.62 0 01.619-.625h.012a.625.625 0 110 1.25z" fill="url(#paint1_linear)"/><path d="M48.125 77.5h-16.25a.625.625 0 01-.442-.183l-2.5-2.5a.624.624 0 01-.183-.442v-8.75a.625.625 0 111.25 0v8.491l2.134 2.134h15.732L50 74.116v-8.491a.625.625 0 111.25 0v8.75a.624.624 0 01-.183.442l-2.5 2.5a.625.625 0 01-.442.183z" fill="url(#paint2_linear)"/><path d="M28.124 70a.626.626 0 01-.03-1.249l1.25-.062 22.5-1.188c.38-.046.637.248.655.592a.624.624 0 01-.592.656l-23.75 1.25-.033.001z" fill="url(#paint3_linear)"/><path d="M28.124 73.75a.626.626 0 01-.03-1.249l1.25-.062 22.5-1.188c.38-.05.637.248.655.592a.624.624 0 01-.592.656l-23.75 1.25-.033.001z" fill="url(#paint4_linear)"/><path d="M50.625 66.25h-21.25a.625.625 0 01-.625-.625v-3.876c-6.269-3.92-10-10.621-10-17.999a.625.625 0 111.25 0c0 7.053 3.625 13.452 9.698 17.115A.624.624 0 0130 61.4V65h20v-3.6c0-.218.115-.422.303-.535C56.375 57.203 60 50.803 60 43.75a.625.625 0 111.25 0c0 7.378-3.73 14.08-10 18v3.875c0 .345-.28.625-.625.625z" fill="url(#paint5_linear)"/><path d="M40 80c-4.707 0-6.126-2.73-6.184-2.845a.625.625 0 011.116-.564c.05.094 1.183 2.16 5.068 2.16 3.89 0 5.022-2.072 5.069-2.16a.628.628 0 01.84-.269.621.621 0 01.275.833C46.126 77.27 44.707 80 40 80z" fill="url(#paint6_linear)"/><path d="M19.375 44.375a.625.625 0 01-.625-.625c0-2.193.334-4.36.992-6.438a21.298 21.298 0 018.023-10.948.624.624 0 11.72 1.022 20.046 20.046 0 00-7.552 10.302A20.093 20.093 0 0020 43.75c0 .345-.28.625-.625.625z" fill="url(#paint7_linear)"/><path d="M60.625 44.375A.625.625 0 0160 43.75a19.91 19.91 0 00-1.333-7.2 19.865 19.865 0 00-7.15-9.164.624.624 0 11.718-1.023 21.113 21.113 0 017.599 9.738 21.154 21.154 0 011.416 7.649c0 .345-.28.625-.625.625z" fill="url(#paint8_linear)"/><path d="M40.625 28.75c-10.032 0-12.672-1.262-12.78-1.316a.625.625 0 01.554-1.12c.056.025 2.68 1.186 12.226 1.186 9.214 0 10.787-1.06 10.85-1.105.246-.244.619-.225.863.02.244.244.223.658-.021.902-.24.24-1.928 1.433-11.692 1.433z" fill="url(#paint9_linear)"/><path d="M28.11 27.528a.637.637 0 01-.448-.193c-.244-.244-.223-.658.021-.902.24-.24 1.927-1.433 11.692-1.433 10.032 0 12.672 1.262 12.78 1.316a.626.626 0 01-.553 1.12c-.057-.025-2.681-1.186-12.227-1.186-9.213 0-10.787 1.06-10.85 1.105a.58.58 0 01-.414.173z" fill="url(#paint10_linear)"/><path d="M54.998 39.002c-.55 0-1.096-.107-1.524-.317-.512-.26-1.435-.257-1.94-.003-.864.427-2.204.425-3.06.003-.513-.26-1.436-.257-1.94-.003-.864.427-2.204.425-3.06.003-.514-.26-1.436-.257-1.94-.003-.864.426-2.204.425-3.06.003-.512-.26-1.434-.258-1.94-.003-.865.426-2.205.425-3.06.003-.512-.26-1.433-.258-1.94-.003-.864.426-2.204.425-3.06.003-.512-.26-1.434-.258-1.94-.003-.865.426-2.205.425-3.06.003a95.063 95.063 0 00-1.249-.623.625.625 0 01.55-1.123s.567.278 1.259.63c.503.245 1.431.246 1.94-.004.853-.432 2.2-.435 3.06.003.502.246 1.432.247 1.94-.003.853-.432 2.2-.435 3.06.003.502.246 1.431.247 1.94-.003.853-.432 2.2-.435 3.06.003.502.246 1.43.247 1.94-.003.851-.434 2.2-.435 3.06.003.5.245 1.428.247 1.94-.003.851-.434 2.2-.435 3.06.003.5.245 1.428.247 1.94-.003.851-.434 2.199-.435 3.06.003.5.245 1.428.247 1.94-.003.685-.348 1.252-.627 1.252-.627a.626.626 0 01.55 1.123c-.002 0-.561.275-1.242.62-.433.214-.986.32-1.536.32z" fill="url(#paint11_linear)"/><path d="M36.875 63.75a.625.625 0 01-.625-.625v-5a.625.625 0 111.25 0v5c0 .346-.28.625-.625.625z" fill="url(#paint12_linear)"/><path d="M43.125 63.75a.625.625 0 01-.625-.625v-5a.625.625 0 111.25 0v5c0 .346-.28.625-.625.625z" fill="url(#paint13_linear)"/><path d="M36.876 58.75a.626.626 0 01-.392-1.113l3.126-2.5a.626.626 0 01.781.977l-3.125 2.5a.628.628 0 01-.39.136z" fill="url(#paint14_linear)"/><path d="M43.125 58.75a.626.626 0 01-.39-.137l-3.126-2.5a.626.626 0 01.782-.976l3.125 2.5a.626.626 0 01-.39 1.113z" fill="url(#paint15_linear)"/><path d="M43.125 56.25a.625.625 0 01-.625-.625V47.5a.625.625 0 111.25 0v8.125c0 .345-.28.625-.625.625z" fill="url(#paint16_linear)"/><path d="M36.875 56.25a.625.625 0 01-.625-.625V47.5a.625.625 0 111.25 0v8.125c0 .345-.28.625-.625.625z" fill="url(#paint17_linear)"/><path d="M36.875 48.125a.625.625 0 01-.625-.625c0-1.378-1.121-2.5-2.5-2.5a2.503 2.503 0 00-2.5 2.5.625.625 0 11-1.25 0 3.754 3.754 0 013.75-3.75 3.754 3.754 0 013.75 3.75c0 .345-.28.625-.625.625z" fill="url(#paint18_linear)"/><path d="M33.75 51.25A3.754 3.754 0 0130 47.5a.625.625 0 111.25 0c0 1.378 1.121 2.5 2.5 2.5a.625.625 0 110 1.25z" fill="url(#paint19_linear)"/><path d="M49.375 48.125a.625.625 0 01-.625-.625c0-1.378-1.122-2.5-2.5-2.5a2.504 2.504 0 00-2.5 2.5.625.625 0 11-1.25 0 3.754 3.754 0 013.75-3.75A3.754 3.754 0 0150 47.5c0 .345-.28.625-.625.625z" fill="url(#paint20_linear)"/><path d="M46.25 51.25a.624.624 0 110-1.25c1.378 0 2.5-1.122 2.5-2.5a.624.624 0 111.25 0 3.754 3.754 0 01-3.75 3.75z" fill="url(#paint21_linear)"/><path d="M40.625 51.25h-1.25a.625.625 0 110-1.25h1.25a.625.625 0 110 1.25z" fill="url(#paint22_linear)"/><path d="M26.875 20a4.38 4.38 0 01-4.375-4.375 4.38 4.38 0 014.375-4.375 4.38 4.38 0 014.375 4.375A4.38 4.38 0 0126.875 20zm0-7.5a3.128 3.128 0 00-3.125 3.125 3.128 3.128 0 003.125 3.125A3.128 3.128 0 0030 15.625a3.128 3.128 0 00-3.125-3.125z" fill="url(#paint23_linear)"/><path d="M31.875 35A1.877 1.877 0 0130 33.125c0-1.034.841-1.875 1.875-1.875s1.875.841 1.875 1.875A1.877 1.877 0 0131.875 35zm0-2.5a.619.619 0 00-.625.625.626.626 0 10.625-.625z" fill="url(#paint24_linear)"/><path d="M53.125 16.25a1.877 1.877 0 01-1.875-1.875c0-1.034.841-1.875 1.875-1.875S55 13.341 55 14.375s-.841 1.875-1.875 1.875zm0-2.5a.618.618 0 00-.625.625.626.626 0 001.25 0 .626.626 0 00-.625-.625z" fill="url(#paint25_linear)"/><path d="M43.75 32.5a2.503 2.503 0 01-2.5-2.5.625.625 0 111.25 0 1.25 1.25 0 002.5 0 .625.625 0 111.25 0c0 1.378-1.122 2.5-2.5 2.5z" fill="url(#paint26_linear)"/><path d="M41.875 15a3.128 3.128 0 01-3.125-3.125 3.128 3.128 0 013.125-3.125A3.128 3.128 0 0145 11.875 3.127 3.127 0 0141.875 15zm0-5A1.877 1.877 0 0040 11.875c0 1.034.84 1.875 1.875 1.875a1.877 1.877 0 001.875-1.875A1.877 1.877 0 0041.875 10z" fill="url(#paint27_linear)"/><path d="M50.625 6.25A.625.625 0 0150 5.625v-5a.625.625 0 111.25 0v5c0 .345-.28.625-.625.625z" fill="url(#paint28_linear)"/><path d="M51.875 3.75h-2.5a.625.625 0 110-1.25h2.5a.625.625 0 110 1.25z" fill="url(#paint29_linear)"/><path d="M36.875 22.5a.625.625 0 01-.625-.625v-2.5a.625.625 0 111.25 0v2.5c0 .345-.28.625-.625.625z" fill="url(#paint30_linear)"/><path d="M38.125 21.25h-2.5a.625.625 0 110-1.25h2.5a.625.625 0 110 1.25z" fill="url(#paint31_linear)"/><path d="M23.125 7.5a.625.625 0 01-.625-.625v-2.5a.625.625 0 111.25 0v2.5c0 .345-.28.625-.625.625z" fill="url(#paint32_linear)"/><path d="M24.375 6.25h-2.5a.625.625 0 110-1.25h2.5a.625.625 0 110 1.25z" fill="url(#paint33_linear)"/><defs><linearGradient id="paint0_linear" x1="46.062" y1="21.535" x2="49.01" y2="20.656" gradientUnits="userSpaceOnUse"><stop stop-color="#46A29F"/><stop offset="1" stop-color="#4660A2"/></linearGradient><linearGradient id="paint1_linear" x1="33.562" y1="4.035" x2="36.509" y2="3.156" gradientUnits="userSpaceOnUse"><stop stop-color="#46A29F"/><stop offset="1" stop-color="#4660A2"/></linearGradient><linearGradient id="paint2_linear" x1="24.884" y1="67.853" x2="69.6" y2="43.955" gradientUnits="userSpaceOnUse"><stop stop-color="#46A29F"/><stop offset="1" stop-color="#4660A2"/></linearGradient><linearGradient id="paint3_linear" x1="23.204" y1="68.068" x2="29.729" y2="48.724" gradientUnits="userSpaceOnUse"><stop stop-color="#46A29F"/><stop offset="1" stop-color="#4660A2"/></linearGradient><linearGradient id="paint4_linear" x1="23.204" y1="71.817" x2="29.732" y2="52.469" gradientUnits="userSpaceOnUse"><stop stop-color="#46A29F"/><stop offset="1" stop-color="#4660A2"/></linearGradient><linearGradient id="paint5_linear" x1="11.447" y1="48.404" x2="95.121" y2="2.744" gradientUnits="userSpaceOnUse"><stop stop-color="#46A29F"/><stop offset="1" stop-color="#4660A2"/></linearGradient><linearGradient id="paint6_linear" x1="31.602" y1="77.106" x2="47.739" y2="61.136" gradientUnits="userSpaceOnUse"><stop stop-color="#46A29F"/><stop offset="1" stop-color="#4660A2"/></linearGradient><linearGradient id="paint7_linear" x1="17.032" y1="30.387" x2="41.914" y2="26.311" gradientUnits="userSpaceOnUse"><stop stop-color="#46A29F"/><stop offset="1" stop-color="#4660A2"/></linearGradient><linearGradient id="paint8_linear" x1="49.531" y1="30.387" x2="74.415" y2="26.311" gradientUnits="userSpaceOnUse"><stop stop-color="#46A29F"/><stop offset="1" stop-color="#4660A2"/></linearGradient><linearGradient id="paint9_linear" x1="23.202" y1="26.799" x2="29.841" y2="7.301" gradientUnits="userSpaceOnUse"><stop stop-color="#46A29F"/><stop offset="1" stop-color="#4660A2"/></linearGradient><linearGradient id="paint10_linear" x1="23.191" y1="25.577" x2="29.828" y2="6.082" gradientUnits="userSpaceOnUse"><stop stop-color="#46A29F"/><stop offset="1" stop-color="#4660A2"/></linearGradient><linearGradient id="paint11_linear" x1="15.646" y1="37.361" x2="19.126" y2="19.749" gradientUnits="userSpaceOnUse"><stop stop-color="#46A29F"/><stop offset="1" stop-color="#4660A2"/></linearGradient><linearGradient id="paint12_linear" x1="36.035" y1="58.927" x2="39.218" y2="58.738" gradientUnits="userSpaceOnUse"><stop stop-color="#46A29F"/><stop offset="1" stop-color="#4660A2"/></linearGradient><linearGradient id="paint13_linear" x1="42.285" y1="58.927" x2="45.468" y2="58.738" gradientUnits="userSpaceOnUse"><stop stop-color="#46A29F"/><stop offset="1" stop-color="#4660A2"/></linearGradient><linearGradient id="paint14_linear" x1="35.498" y1="55.857" x2="45.479" y2="52.398" gradientUnits="userSpaceOnUse"><stop stop-color="#46A29F"/><stop offset="1" stop-color="#4660A2"/></linearGradient><linearGradient id="paint15_linear" x1="38.623" y1="55.857" x2="48.603" y2="52.399" gradientUnits="userSpaceOnUse"><stop stop-color="#46A29F"/><stop offset="1" stop-color="#4660A2"/></linearGradient><linearGradient id="paint16_linear" x1="42.285" y1="49.015" x2="45.474" y2="48.889" gradientUnits="userSpaceOnUse"><stop stop-color="#46A29F"/><stop offset="1" stop-color="#4660A2"/></linearGradient><linearGradient id="paint17_linear" x1="36.035" y1="49.015" x2="39.224" y2="48.889" gradientUnits="userSpaceOnUse"><stop stop-color="#46A29F"/><stop offset="1" stop-color="#4660A2"/></linearGradient><linearGradient id="paint18_linear" x1="28.711" y1="44.749" x2="43.931" y2="37.002" gradientUnits="userSpaceOnUse"><stop stop-color="#46A29F"/><stop offset="1" stop-color="#4660A2"/></linearGradient><linearGradient id="paint19_linear" x1="29.248" y1="47.874" x2="39.521" y2="44.824" gradientUnits="userSpaceOnUse"><stop stop-color="#46A29F"/><stop offset="1" stop-color="#4660A2"/></linearGradient><linearGradient id="paint20_linear" x1="41.211" y1="44.749" x2="56.431" y2="37.002" gradientUnits="userSpaceOnUse"><stop stop-color="#46A29F"/><stop offset="1" stop-color="#4660A2"/></linearGradient><linearGradient id="paint21_linear" x1="44.873" y1="47.874" x2="55.146" y2="44.824" gradientUnits="userSpaceOnUse"><stop stop-color="#46A29F"/><stop offset="1" stop-color="#4660A2"/></linearGradient><linearGradient id="paint22_linear" x1="38.321" y1="50.285" x2="43.043" y2="47.481" gradientUnits="userSpaceOnUse"><stop stop-color="#46A29F"/><stop offset="1" stop-color="#4660A2"/></linearGradient><linearGradient id="paint23_linear" x1="20.996" y1="13.247" x2="41.542" y2="7.147" gradientUnits="userSpaceOnUse"><stop stop-color="#46A29F"/><stop offset="1" stop-color="#4660A2"/></linearGradient><linearGradient id="paint24_linear" x1="29.356" y1="32.106" x2="38.161" y2="29.491" gradientUnits="userSpaceOnUse"><stop stop-color="#46A29F"/><stop offset="1" stop-color="#4660A2"/></linearGradient><linearGradient id="paint25_linear" x1="50.606" y1="13.356" x2="59.411" y2="10.742" gradientUnits="userSpaceOnUse"><stop stop-color="#46A29F"/><stop offset="1" stop-color="#4660A2"/></linearGradient><linearGradient id="paint26_linear" x1="40.391" y1="30.088" x2="50.814" y2="25.137" gradientUnits="userSpaceOnUse"><stop stop-color="#46A29F"/><stop offset="1" stop-color="#4660A2"/></linearGradient><linearGradient id="paint27_linear" x1="37.676" y1="10.177" x2="52.351" y2="5.82" gradientUnits="userSpaceOnUse"><stop stop-color="#46A29F"/><stop offset="1" stop-color="#4660A2"/></linearGradient><linearGradient id="paint28_linear" x1="49.785" y1="1.427" x2="52.968" y2="1.238" gradientUnits="userSpaceOnUse"><stop stop-color="#46A29F"/><stop offset="1" stop-color="#4660A2"/></linearGradient><linearGradient id="paint29_linear" x1="48.106" y1="2.785" x2="53.449" y2="-1.973" gradientUnits="userSpaceOnUse"><stop stop-color="#46A29F"/><stop offset="1" stop-color="#4660A2"/></linearGradient><linearGradient id="paint30_linear" x1="36.035" y1="19.606" x2="39.198" y2="19.293" gradientUnits="userSpaceOnUse"><stop stop-color="#46A29F"/><stop offset="1" stop-color="#4660A2"/></linearGradient><linearGradient id="paint31_linear" x1="34.356" y1="20.285" x2="39.698" y2="15.526" gradientUnits="userSpaceOnUse"><stop stop-color="#46A29F"/><stop offset="1" stop-color="#4660A2"/></linearGradient><linearGradient id="paint32_linear" x1="22.285" y1="4.606" x2="25.448" y2="4.293" gradientUnits="userSpaceOnUse"><stop stop-color="#46A29F"/><stop offset="1" stop-color="#4660A2"/></linearGradient><linearGradient id="paint33_linear" x1="20.605" y1="5.285" x2="25.948" y2=".526" gradientUnits="userSpaceOnUse"><stop stop-color="#46A29F"/><stop offset="1" stop-color="#4660A2"/></linearGradient></defs></svg>