<svg width="80" height="80" fill="none" xmlns="http://www.w3.org/2000/svg"><g clip-path="url(#clip0_13219_4732)"><path d="M2 59.399v3.078c.205 1.745.924 5.665 2.155 7.389 1.231 1.724 4.515 5.54 6.003 7.234" stroke="url(#paint0_linear_13219_4732)" stroke-width="1.25" stroke-linecap="round" stroke-linejoin="round"/><path d="M11.851 58.63V47.238a4.926 4.926 0 00-4.925-4.926v0A4.926 4.926 0 002 47.24V59.4" stroke="url(#paint1_linear_13219_4732)" stroke-width="1.25" stroke-linecap="round"/><path d="M16.426 66.908l-2.046-2.95-1.784-2.509a4.1 4.1 0 011.005-5.744v0a4.1 4.1 0 015.678.994l1.838 2.586 1.362 1.963c.455.657.865 1.348 1.129 2.102.35 1.004.71 2.361.71 3.558V77.1" stroke="url(#paint2_linear_13219_4732)" stroke-width="1.25" stroke-linecap="round"/><path d="M78 59.399v3.078c-.205 1.745-.924 5.665-2.155 7.389-1.231 1.724-4.515 5.54-6.003 7.234" stroke="url(#paint3_linear_13219_4732)" stroke-width="1.25" stroke-linecap="round" stroke-linejoin="round"/><path d="M68.149 58.63V47.238a4.926 4.926 0 014.925-4.926v0A4.926 4.926 0 0178 47.24V59.4" stroke="url(#paint4_linear_13219_4732)" stroke-width="1.25" stroke-linecap="round"/><path d="M63.574 66.908l2.046-2.95 1.784-2.509a4.1 4.1 0 00-1.005-5.744v0a4.1 4.1 0 00-5.678.994l-1.838 2.586-1.362 1.963c-.455.657-.865 1.348-1.129 2.102-.35 1.004-.71 2.361-.71 3.558V77.1" stroke="url(#paint5_linear_13219_4732)" stroke-width="1.25" stroke-linecap="round"/><circle cx="40" cy="27.876" r="25.375" fill="#F0F4F4" stroke="url(#paint6_linear_13219_4732)" stroke-width="1.25"/><path d="M27.44 30.476c-.65-.217-1.82-1.43-1.3-4.55.65-3.9 2.6-6.5 5.2-7.15 2.6-.65 5.2 1.3 8.45-.65 2.6-1.56 3.683-2.817 3.9-3.25" stroke="url(#paint7_linear_13219_4732)" stroke-width="1.25" stroke-linecap="round" stroke-linejoin="round"/><circle cx="50.4" cy="36.976" r="3.4" fill="#DEEEEE" stroke="url(#paint8_linear_13219_4732)"/><path d="M34.095 32.3c.99 1.134 1.54 2.434 1.651 3.602.111 1.17-.218 2.164-.931 2.786-.713.623-1.744.815-2.887.547-1.143-.267-2.356-.99-3.346-2.123-.99-1.134-1.541-2.434-1.652-3.602-.11-1.17.22-2.164.932-2.787.713-.622 1.744-.814 2.887-.546 1.143.267 2.356.99 3.346 2.123z" fill="#DEEEEE" stroke="url(#paint9_linear_13219_4732)"/><circle cx="51.05" cy="27.226" r="1.95" fill="url(#paint10_linear_13219_4732)"/></g><defs><linearGradient id="paint0_linear_13219_4732" x1=".598" y1="63.44" x2="21.059" y2="60.64" gradientUnits="userSpaceOnUse"><stop stop-color="#46A29F"/><stop offset="1" stop-color="#4660A2"/></linearGradient><linearGradient id="paint1_linear_13219_4732" x1=".307" y1="46.214" x2="24.761" y2="42.027" gradientUnits="userSpaceOnUse"><stop stop-color="#46A29F"/><stop offset="1" stop-color="#4660A2"/></linearGradient><linearGradient id="paint2_linear_13219_4732" x1="12.106" y1="63.324" x2="28.071" y2="49.604" gradientUnits="userSpaceOnUse"><stop stop-color="#46A29F"/><stop offset="1" stop-color="#4660A2"/></linearGradient><linearGradient id="paint3_linear_13219_4732" x1="79.402" y1="63.44" x2="58.941" y2="60.64" gradientUnits="userSpaceOnUse"><stop stop-color="#46A29F"/><stop offset="1" stop-color="#4660A2"/></linearGradient><linearGradient id="paint4_linear_13219_4732" x1="79.693" y1="46.214" x2="55.239" y2="42.027" gradientUnits="userSpaceOnUse"><stop stop-color="#46A29F"/><stop offset="1" stop-color="#4660A2"/></linearGradient><linearGradient id="paint5_linear_13219_4732" x1="67.894" y1="63.324" x2="51.929" y2="49.604" gradientUnits="userSpaceOnUse"><stop stop-color="#46A29F"/><stop offset="1" stop-color="#4660A2"/></linearGradient><linearGradient id="paint6_linear_13219_4732" x1="5.064" y1="13.746" x2="127.164" y2="-22.507" gradientUnits="userSpaceOnUse"><stop stop-color="#46A29F"/><stop offset="1" stop-color="#4660A2"/></linearGradient><linearGradient id="paint7_linear_13219_4732" x1="22.972" y1="18.437" x2="63.55" y2="4.783" gradientUnits="userSpaceOnUse"><stop stop-color="#46A29F"/><stop offset="1" stop-color="#4660A2"/></linearGradient><linearGradient id="paint8_linear_13219_4732" x1="45.16" y1="34.856" x2="63.475" y2="29.418" gradientUnits="userSpaceOnUse"><stop stop-color="#46A29F"/><stop offset="1" stop-color="#4660A2"/></linearGradient><linearGradient id="paint9_linear_13219_4732" x1="25.061" y1="36.011" x2="37.521" y2="19.378" gradientUnits="userSpaceOnUse"><stop stop-color="#46A29F"/><stop offset="1" stop-color="#4660A2"/></linearGradient><linearGradient id="paint10_linear_13219_4732" x1="48.429" y1="26.166" x2="57.587" y2="23.447" gradientUnits="userSpaceOnUse"><stop stop-color="#46A29F"/><stop offset="1" stop-color="#4660A2"/></linearGradient><clipPath id="clip0_13219_4732"><path fill="#fff" d="M0 0h80v80H0z"/></clipPath></defs></svg>