<svg width="80" height="80" fill="none" xmlns="http://www.w3.org/2000/svg"><g clip-path="url(#clip0_13265_4591)"><path d="M62.414 50.947v3.75h-45V7.185h37.5v7.5h7.5v36.262zm-32.5-5v-5h-5v5h5zm0-20.012V20.31h-5v5.625h5z" fill="#F0F4F4"/><path d="M25 20.935h5v5h-5v-5zm0 20h5v5h-5v-5z" fill="#fff"/><mask id="a" fill="#fff"><rect x="23.75" y="39.685" width="7.5" height="7.5" rx="1"/></mask><rect x="23.75" y="39.685" width="7.5" height="7.5" rx="1" stroke="url(#paint0_linear_13265_4591)" stroke-width="2.5" mask="url(#a)"/><path d="M62.5 15.31H55v-7.5l7.5 7.5z" fill="#fff"/><path d="M13.766 51.573h3.736v3.75h-3.736v-3.75zm48.734 0h3.764v3.75H62.5v-3.75z" fill="#DEEEEE"/><path d="M73.5 33.75l-.283 38.75H6V33.75c0-1.388 1.114-2.5 2.5-2.5h8.75v20.012h-3.736v3.75h52.498v-3.75H62.25V31.25H71c1.376 0 2.5 1.112 2.5 2.5zM41.639 64.737l1.875-1.812h-2.522l-1-3.236-1 3.625-2.978-.39L38.5 64.69l-1.05 2.635 2.542-1.51 2.096 1.51-.449-2.588z" fill="#fff"/><path d="M55 24.373H35.004c-.691 0-1.25-.349-1.25-.78 0-.433.559-.782 1.25-.782H55c.691 0 1.25.349 1.25.781 0 .432-.559.781-1.25.781z" fill="url(#paint1_linear_13265_4591)"/><path d="M55 44.384H35.004c-.691 0-1.25-.349-1.25-.78 0-.433.559-.782 1.25-.782H55c.691 0 1.25.349 1.25.781 0 .432-.559.781-1.25.781z" fill="url(#paint2_linear_13265_4591)"/><path d="M55 34.373H35.004c-.691 0-1.25-.349-1.25-.78 0-.433.559-.782 1.25-.782H55c.691 0 1.25.349 1.25.781 0 .432-.559.781-1.25.781z" fill="url(#paint3_linear_13265_4591)"/><path d="M25.002 34.685l1.25 1.25 3.75-3.75" stroke="url(#paint4_linear_13265_4591)" stroke-width="1.25" stroke-linecap="round" stroke-linejoin="round"/><path d="M5.625 70.272c-.346 0-.625-.541-.625-1.212V32.807c0-.67.28-1.212.625-1.212.346 0 .625.542.625 1.212V69.06c0 .67-.28 1.212-.625 1.212z" fill="url(#paint5_linear_13265_4591)"/><path d="M73.283 70.935c-.432 0-.781-.558-.781-1.25V34.061c0-.692.349-1.25.781-1.25.432 0 .781.558.781 1.25v35.624c0 .692-.349 1.25-.78 1.25z" fill="url(#paint6_linear_13265_4591)"/><path d="M65.625 56.248h-52.46s-.078 0-.039-.938c.013-.31.04-.625.04-.625h52.46c.692 0 1.25.35 1.25.782 0 .432-.56.78-1.251.78z" fill="url(#paint7_linear_13265_4591)"/><path d="M62.033 56.246c-.432 0-.781-.558-.781-1.25V14.984c0-.692.349-1.25.781-1.25.432 0 .782.558.782 1.25v40.012c0 .692-.35 1.25-.782 1.25z" fill="url(#paint8_linear_13265_4591)"/><path d="M17.033 56.226c-.432 0-.781-.559-.781-1.25V7.81c0-.692.349-1.25.781-1.25.432 0 .781.558.781 1.25v47.165c0 .691-.349 1.25-.78 1.25z" fill="url(#paint9_linear_13265_4591)"/><path d="M54.377 8.123H17.502c-.692 0-1.25-.349-1.25-.78 0-.433.558-.782 1.25-.782h36.875c.625 0 .625.624.625.624 0 .625 0 .625-.625.938z" fill="url(#paint10_linear_13265_4591)"/><path d="M61.877 15.623h-6.875c-.692 0-1.25-.349-1.25-.78 0-.433.558-.782 1.25-.782h6.875c.691 0 .625.42.625.624 0 .625.068.938-.625.938z" fill="url(#paint11_linear_13265_4591)"/><path d="M54.533 15.407c-.787 0-.781-.559-.781-1.25V7.81c0-.691.349-1.25.781-1.25.432 0 .782.559.782 1.25v6.347c0 .691 0 1.25-.782 1.25z" fill="url(#paint12_linear_13265_4591)"/><path d="M54.531 15.407c-.787 0-.781-.56-.781-1.25V7.81c0-.691.349-1.25.781-1.25.432 0 .782.559.782 1.25v6.347c0 .69 0 1.25-.782 1.25z" fill="url(#paint13_linear_13265_4591)"/><path d="M54.192 6.832c.525-.586 1.052-.107 1.708.48l5.935 5.729c.656.588.953 1.322.664 1.644-.288.322-1.05.107-1.707-.48l-5.935-5.729c-.656-.587-1.186-1.062-.665-1.644z" fill="url(#paint14_linear_13265_4591)"/><path d="M16.476 31.873H8.752c-.692 0-1.25-.349-1.25-.78 0-.433.558-.782 1.25-.782h7.724c.692 0 1.25.349 1.25.781 0 .432-.558.781-1.25.781z" fill="url(#paint15_linear_13265_4591)"/><path d="M70.627 31.873h-8.125c-.692 0-1.25-.349-1.25-.78 0-.433.558-.782 1.25-.782h8.125c.692 0 1.25.349 1.25.781 0 .432-.558.781-1.25.781z" fill="url(#paint16_linear_13265_4591)"/><path d="M13.303 56.267c-.433 0-.782-.558-.782-1.25v-3.446c0-.692.174-.636.606-.636s.957-.056.957.636v3.446c0 .69-.35 1.25-.781 1.25z" fill="url(#paint17_linear_13265_4591)"/><path d="M65.803 56.266c-.432 0-.781-.25-.781-.942v-3.753c0-.692.605-.636.605-.636.432 0 .957-.056.957.636v3.753c0 .69-.35.942-.781.942z" fill="url(#paint18_linear_13265_4591)"/><path d="M16.413 51.883H13.75c-.691 0-1.25-.35-1.25-.781 0-.432.559-.781 1.25-.781h2.663c.692 0 1.25.349 1.25.78 0 .433-.558.782-1.25.782z" fill="url(#paint19_linear_13265_4591)"/><path d="M65.339 51.883h-2.837c-.692 0-1.25-.35-1.25-.781 0-.432.558-.781 1.25-.781h2.837c.69 0 1.25.048 1.25.78 0 .85-.56.782-1.25.782z" fill="url(#paint20_linear_13265_4591)"/><path d="M30.019 64.383H13.772c-.692 0-1.25-.35-1.25-.781 0-.432.558-.781 1.25-.781h16.247c.691 0 1.25.349 1.25.78 0 .433-.56.782-1.25.782z" fill="url(#paint21_linear_13265_4591)"/><path d="M66.271 64.383H50.023c-.691 0-1.25-.35-1.25-.781 0-.432.559-.781 1.25-.781h16.248c.69 0 1.25.349 1.25.78 0 .433-.56.782-1.25.782z" fill="url(#paint22_linear_13265_4591)"/><mask id="b" fill="#fff"><rect x="23.75" y="19.685" width="7.5" height="7.5" rx="1"/></mask><rect x="23.75" y="19.685" width="7.5" height="7.5" rx="1" stroke="url(#paint23_linear_13265_4591)" stroke-width="2.5" mask="url(#b)"/><path fill-rule="evenodd" clip-rule="evenodd" d="M17.82 29.991H8a3 3 0 00-3 3v37.126a3 3 0 003 3h63.118a3 3 0 003-3V32.99a3 3 0 00-3-3h-9.866v2h9.866a1 1 0 011 1v37.126a1 1 0 01-1 1H8a1 1 0 01-1-1V32.99a1 1 0 011-1h9.82v-2z" fill="url(#paint24_linear_13265_4591)"/><path d="M39.42 62.402l.58-1.784.58 1.784a.8.8 0 00.76.553h1.876L41.7 64.058a.8.8 0 00-.29.894l.579 1.784-1.518-1.103a.8.8 0 00-.94 0l-1.518 1.103.58-1.784a.8.8 0 00-.29-.894l-1.518-1.103h1.876a.8.8 0 00.76-.553z" fill="url(#paint25_linear_13265_4591)" stroke="url(#paint26_linear_13265_4591)"/></g><defs><linearGradient id="paint0_linear_13265_4591" x1="22.461" y1="41.397" x2="40.072" y2="36.169" gradientUnits="userSpaceOnUse"><stop stop-color="#46A29F"/><stop offset="1" stop-color="#4660A2"/></linearGradient><linearGradient id="paint1_linear_13265_4591" x1="29.888" y1="23.168" x2="32.87" y2="10.419" gradientUnits="userSpaceOnUse"><stop stop-color="#46A29F"/><stop offset="1" stop-color="#4660A2"/></linearGradient><linearGradient id="paint2_linear_13265_4591" x1="29.888" y1="43.179" x2="32.87" y2="30.43" gradientUnits="userSpaceOnUse"><stop stop-color="#46A29F"/><stop offset="1" stop-color="#4660A2"/></linearGradient><linearGradient id="paint3_linear_13265_4591" x1="29.888" y1="33.168" x2="32.87" y2="20.419" gradientUnits="userSpaceOnUse"><stop stop-color="#46A29F"/><stop offset="1" stop-color="#4660A2"/></linearGradient><linearGradient id="paint4_linear_13265_4591" x1="24.143" y1="33.041" x2="35.187" y2="28.669" gradientUnits="userSpaceOnUse"><stop stop-color="#46A29F"/><stop offset="1" stop-color="#4660A2"/></linearGradient><linearGradient id="paint5_linear_13265_4591" x1="4.785" y1="40.424" x2="7.979" y2="40.394" gradientUnits="userSpaceOnUse"><stop stop-color="#46A29F"/><stop offset="1" stop-color="#4660A2"/></linearGradient><linearGradient id="paint6_linear_13265_4591" x1="72.234" y1="41.514" x2="76.225" y2="41.465" gradientUnits="userSpaceOnUse"><stop stop-color="#46A29F"/><stop offset="1" stop-color="#4660A2"/></linearGradient><linearGradient id="paint7_linear_13265_4591" x1="3.877" y1="55.042" x2="5.181" y2="41.724" gradientUnits="userSpaceOnUse"><stop stop-color="#46A29F"/><stop offset="1" stop-color="#4660A2"/></linearGradient><linearGradient id="paint8_linear_13265_4591" x1="60.983" y1="23.439" x2="64.975" y2="23.395" gradientUnits="userSpaceOnUse"><stop stop-color="#46A29F"/><stop offset="1" stop-color="#4660A2"/></linearGradient><linearGradient id="paint9_linear_13265_4591" x1="15.983" y1="17.898" x2="19.975" y2="17.861" gradientUnits="userSpaceOnUse"><stop stop-color="#46A29F"/><stop offset="1" stop-color="#4660A2"/></linearGradient><linearGradient id="paint10_linear_13265_4591" x1="9.593" y1="6.918" x2="11.386" y2="-6.285" gradientUnits="userSpaceOnUse"><stop stop-color="#46A29F"/><stop offset="1" stop-color="#4660A2"/></linearGradient><linearGradient id="paint11_linear_13265_4591" x1="52.248" y1="14.418" x2="58.186" y2="4.542" gradientUnits="userSpaceOnUse"><stop stop-color="#46A29F"/><stop offset="1" stop-color="#4660A2"/></linearGradient><linearGradient id="paint12_linear_13265_4591" x1="53.483" y1="8.58" x2="57.465" y2="8.371" gradientUnits="userSpaceOnUse"><stop stop-color="#46A29F"/><stop offset="1" stop-color="#4660A2"/></linearGradient><linearGradient id="paint13_linear_13265_4591" x1="53.481" y1="8.58" x2="57.463" y2="8.371" gradientUnits="userSpaceOnUse"><stop stop-color="#46A29F"/><stop offset="1" stop-color="#4660A2"/></linearGradient><linearGradient id="paint14_linear_13265_4591" x1="61.496" y1="11.896" x2="58.491" y2="15.596" gradientUnits="userSpaceOnUse"><stop stop-color="#46A29F"/><stop offset="1" stop-color="#4660A2"/></linearGradient><linearGradient id="paint15_linear_13265_4591" x1="5.745" y1="30.668" x2="11.216" y2="20.038" gradientUnits="userSpaceOnUse"><stop stop-color="#46A29F"/><stop offset="1" stop-color="#4660A2"/></linearGradient><linearGradient id="paint16_linear_13265_4591" x1="59.426" y1="30.668" x2="64.774" y2="19.87" gradientUnits="userSpaceOnUse"><stop stop-color="#46A29F"/><stop offset="1" stop-color="#4660A2"/></linearGradient><linearGradient id="paint17_linear_13265_4591" x1="12.253" y1="52.152" x2="16.215" y2="51.807" gradientUnits="userSpaceOnUse"><stop stop-color="#46A29F"/><stop offset="1" stop-color="#4660A2"/></linearGradient><linearGradient id="paint18_linear_13265_4591" x1="64.753" y1="52.151" x2="68.715" y2="51.807" gradientUnits="userSpaceOnUse"><stop stop-color="#46A29F"/><stop offset="1" stop-color="#4660A2"/></linearGradient><linearGradient id="paint19_linear_13265_4591" x1="11.613" y1="50.677" x2="18.334" y2="44.083" gradientUnits="userSpaceOnUse"><stop stop-color="#46A29F"/><stop offset="1" stop-color="#4660A2"/></linearGradient><linearGradient id="paint20_linear_13265_4591" x1="60.335" y1="50.678" x2="67.063" y2="43.86" gradientUnits="userSpaceOnUse"><stop stop-color="#46A29F"/><stop offset="1" stop-color="#4660A2"/></linearGradient><linearGradient id="paint21_linear_13265_4591" x1="9.3" y1="63.177" x2="12.799" y2="50.714" gradientUnits="userSpaceOnUse"><stop stop-color="#46A29F"/><stop offset="1" stop-color="#4660A2"/></linearGradient><linearGradient id="paint22_linear_13265_4591" x1="45.552" y1="63.177" x2="49.05" y2="50.714" gradientUnits="userSpaceOnUse"><stop stop-color="#46A29F"/><stop offset="1" stop-color="#4660A2"/></linearGradient><linearGradient id="paint23_linear_13265_4591" x1="22.461" y1="21.397" x2="40.072" y2="16.169" gradientUnits="userSpaceOnUse"><stop stop-color="#46A29F"/><stop offset="1" stop-color="#4660A2"/></linearGradient><linearGradient id="paint24_linear_13265_4591" x1="-6.877" y1="39.836" x2="137.116" y2="-28.687" gradientUnits="userSpaceOnUse"><stop stop-color="#46A29F"/><stop offset="1" stop-color="#4660A2"/></linearGradient><linearGradient id="paint25_linear_13265_4591" x1="35" y1="59" x2="46.992" y2="62.949" gradientUnits="userSpaceOnUse"><stop stop-color="#ECF6F5"/><stop offset="1" stop-color="#EBF0F6"/></linearGradient><linearGradient id="paint26_linear_13265_4591" x1="33.282" y1="61.283" x2="56.762" y2="54.311" gradientUnits="userSpaceOnUse"><stop stop-color="#46A29F"/><stop offset="1" stop-color="#4660A2"/></linearGradient><clipPath id="clip0_13265_4591"><path fill="#fff" d="M0 0h80v80H0z"/></clipPath></defs></svg>