<svg width="80" height="80" fill="none" xmlns="http://www.w3.org/2000/svg"><g clip-path="url(#clip0)"><path d="M41.873 2.531a4.375 4.375 0 00-6.212 0 4.39 4.39 0 000 6.224l6.212 6.226 6.214-6.226a4.415 4.415 0 000-6.224 4.377 4.377 0 00-6.214 0z" fill="#DEEEEE"/><path d="M36.911 8.755c-1.48-2.019-1.725-4.511 0-6.224a4.331 4.331 0 012.477-1.233 4.343 4.343 0 00-3.726 1.233 4.39 4.39 0 000 6.224l6.211 6.226-4.962-6.226zM50.62 49.369c2.364 1.95 4.876 3.113 6.851 3.113h.025c1.987 0 4.5-1.176 6.875-3.138v1.888c0 2.662 3.225 3.9 6.25 4.762v.013s-2.388 5.912-13.125 5.912c-10.738 0-13.125-5.912-13.125-5.912 1.7-.488 3.463-1.101 4.687-2.013.276-.2.513-.425.725-.65.525-.588.838-1.275.838-2.112v-1.863z" fill="#F0F4F4"/><path d="M53.12 51.869V51.1a17.565 17.565 0 01-2.5-1.732v1.863c0 .837-.312 1.524-.837 2.112-.212.225-.449.45-.725.65-1.224.912-2.987 1.525-4.687 2.013-.187.05-.374.113-.562.15a21.14 21.14 0 01-.863.237 19.5 19.5 0 00-1.075.288 1.442 1.442 0 00-.225.062c-.462.137-.887.263-1.25.4-3.187 1.187-4.775 2.387-4.775 5.575v4.763h2.5v-2.263c0-3.188 1.588-5.069 4.775-6.256.362-.137.789-.263 1.25-.4.075-.025.15-.05.225-.062.338-.1.7-.2 1.075-.288.287-.074.575-.15.863-.238.188-.037.375-.099.562-.149 1.7-.488 3.463-1.1 4.687-2.013.276-.2.513-.425.725-.65.525-.587.838-1.275.838-2.112v-1.182z" fill="#fff"/><path d="M57.496 61.919c10.737 0 13.125-5.912 13.125-5.912v-.013c.876.25 1.738.474 2.5.688.55.149 1.063.299 1.475.461 3.188 1.188 4.775 2.388 4.775 5.575v4.764H35.62v-4.764c0-3.187 1.588-4.387 4.776-5.575.362-.136.787-.262 1.249-.399.076-.025.15-.05.225-.062.338-.1.7-.2 1.075-.288.287-.075.575-.15.863-.238.188-.036.375-.099.562-.149 0 0 2.387 5.912 13.125 5.912z" fill="#DEEEEE"/><path opacity=".3" d="M42.896 58.962c.362-.136.789-.262 1.25-.399.075-.026.15-.05.225-.062.338-.1.7-.2 1.075-.288.153-.04.306-.086.46-.127-1.14-1.133-1.535-2.079-1.535-2.079-.187.05-.374.112-.562.149-.288.088-.576.163-.863.238a19.5 19.5 0 00-1.075.288 1.42 1.42 0 00-.225.062c-.462.137-.887.263-1.25.4-3.187 1.187-4.775 2.387-4.775 5.574v4.764h2.5v-2.263c0-3.188 1.588-5.069 4.775-6.257z" fill="#fff"/><path d="M50.62 49.368v1.863c0 .838-.312 1.525-.837 2.112a6.03 6.03 0 01-.725.65c-1.224.913-2.987 1.513-4.687 2-.187.05-.374.114-.562.163-.288.075-.588.15-.863.238a18.65 18.65 0 00-1.075.288V34.98h1.225c0 5.7 3.55 11.112 7.5 14.363l.025.024z" fill="#FFCE54"/><path d="M50.62 49.368v1.863c0 .838-.312 1.525-.837 2.112a6.03 6.03 0 01-.725.65c-1.224.913-2.987 1.513-4.687 2-.187.05-.374.114-.562.163-.288.075-.588.15-.863.238a18.65 18.65 0 00-1.075.288V34.98h1.225c0 5.7 3.55 11.112 7.5 14.363l.025.024z" fill="#DEEEEE"/><path d="M68 24.5c-3.35 2.375-19.662-.225-24.5 1.5-1.403.547.57 8.49-.404 8.714.003 5.698 3.552 11.38 7.5 14.63l.025.025c2.363 1.95 4.875 3.113 6.85 3.113h.025c1.987 0 4.5-1.176 6.875-3.138 3.95-3.25 7.5-8.663 7.5-14.363v-1.7C71 27 68 24.5 68 24.5z" fill="#F0F4F4"/><path d="M53.12 49.369l-.024-.025c-3.949-3.25-7.58-9.593-7.582-15.29l-2.418.66c.003 5.698 3.552 11.38 7.5 14.63l.025.025c2.363 1.95 4.875 3.113 6.85 3.113h.025c.393 0 .809-.059 1.237-.147-1.733-.357-3.718-1.402-5.612-2.966z" fill="#fff"/><path d="M54.713 67.506c-.876-.65-2.001-1.162-3.376-1.675-2.187-.825-7.912-3.037-10.713-4.6l-1.474-.887-3.526 5.887-4-1.999-.8-.4 1-2.013c-1.075.438-2.112.663-3.075.663a7.84 7.84 0 01-1.812-.238l-.063 1.487-5 2.5-3.525-5.887-1.475.887c-2.8 1.563-8.525 3.775-10.725 4.6-3.687 1.376-5.525 2.763-5.525 6.45v6.45h56.25v-6.45c0-2.3-.725-3.712-2.161-4.775z" fill="#DEEEEE"/><path d="M29.592 62.425l-7.718 3.807-3.75-6.25v-4.73l11.468 7.173z" fill="#fff"/><path d="M27.907 62.425l7.717 3.807 3.75-6.25v-4.73l-11.467 7.173z" fill="#fff"/><path d="M3.124 74.782c0-3.688 1.513-5.551 5.2-6.927 2.201-.825 7.926-3.037 10.726-4.6l.737-.444-1.437-2.467-1.476.888c-2.8 1.562-8.524 3.774-10.725 4.6-3.687 1.375-5.525 2.762-5.525 6.45v6.45h2.5v-3.95zm31.914-53.873c-7.913-.246-23.676 1.562-21.914 20.322l2.4-4c.636-13.436 11.91-16.078 19.514-16.322z" fill="#F0F4F4"/><path d="M44.374 41.23v1.252c0 .725-.05 1.462-.138 2.175-.961 8.025-7.086 15.037-12.412 17.162-1.075.438-2.112.663-3.075.663a7.84 7.84 0 01-1.812-.238c-6.025-1.537-13.813-10.187-13.813-19.762V41.23l3.75-6.25s6.063 2.5 11.875 2.5c5.8 0 11.875-2.5 11.875-2.5l3.75 6.25zm1.25 32.502l-3.75-2.5-3.75 2.5v1.25h7.5v-1.25z" fill="#F0F4F4"/><path d="M29.437 62.244c-6.025-1.537-13.813-10.187-13.813-19.762v-5.39l-2.5 4.139v1.25c0 9.576 7.788 18.226 13.813 19.763a7.84 7.84 0 001.812.238c.408 0 .832-.05 1.264-.13-.191-.033-.381-.062-.576-.108z" fill="#fff"/><path d="M41.876 15.606a.624.624 0 01-.442-.183l-6.214-6.23a5.042 5.042 0 010-7.113c1.755-1.757 4.738-1.917 6.656-.394C43.792.163 46.774.32 48.53 2.08a5.045 5.045 0 010 7.114l-6.213 6.229a.625.625 0 01-.442.183zM38.769 1.857a3.738 3.738 0 00-2.664 1.107 3.788 3.788 0 000 5.346l5.77 5.786 5.772-5.786a3.792 3.792 0 000-5.346c-1.425-1.428-3.906-1.425-5.33-.001a.64.64 0 01-.883.001 3.74 3.74 0 00-2.665-1.107z" fill="url(#paint0_linear)"/><path d="M57.5 53.107c-3.361 0-8.016-3.199-11.318-7.778a.626.626 0 011.016-.73c3.031 4.206 7.363 7.258 10.303 7.258 2.47 0 5.888-2.013 8.71-5.129 3.204-3.536 5.04-7.818 5.04-11.747a.625.625 0 111.25 0c0 9.346-9.359 18.126-15 18.126z" fill="url(#paint1_linear)"/><path d="M41.648 57.367a.626.626 0 01-.17-1.227c.383-.108.79-.217 1.218-.33C45.778 54.983 50 53.854 50 51.231a.625.625 0 111.25 0c0 3.582-4.759 4.855-8.233 5.784-.42.113-.823.22-1.197.328a.652.652 0 01-.172.023z" fill="url(#paint2_linear)"/><path d="M79.376 68.106H58.11a.625.625 0 110-1.25h20.64V62.71c0-2.869-1.346-3.855-4.365-4.982-.627-.234-1.49-.465-2.404-.71-3.474-.93-8.23-2.204-8.23-5.785a.625.625 0 111.25 0c0 2.621 4.22 3.752 7.304 4.577.942.253 1.834.491 2.517.746C78.18 57.809 80 59.16 80 62.709v4.772a.625.625 0 01-.624.626z" fill="url(#paint3_linear)"/><path d="M50.625 51.857a.625.625 0 01-.624-.625v-2.005a.625.625 0 111.25 0v2.005c0 .345-.28.625-.626.625z" fill="url(#paint4_linear)"/><path d="M64.376 51.856a.625.625 0 01-.625-.625v-1.883a.625.625 0 111.25 0v1.883c0 .346-.28.625-.625.625z" fill="url(#paint5_linear)"/><path d="M57.5 62.54c-11.032 0-13.6-6.05-13.704-6.308a.627.627 0 01.345-.815.627.627 0 01.813.343c.096.23 2.416 5.529 12.547 5.529 10.134 0 12.453-5.303 12.547-5.529a.632.632 0 01.815-.34c.318.13.472.492.344.812-.105.257-2.671 6.307-13.706 6.307z" fill="url(#paint6_linear)"/><path d="M56.876 79.356H.626A.625.625 0 010 78.733v-6.454c0-4.053 2.087-5.6 5.939-7.043.76-.283 7.505-2.815 10.633-4.55a.626.626 0 01.607 1.093c-3.208 1.78-10.035 4.342-10.803 4.63-3.473 1.298-5.125 2.508-5.125 5.87v5.828h55v-5.828c0-3.362-1.653-4.573-5.127-5.87-.767-.288-7.6-2.856-10.801-4.63a.625.625 0 01.605-1.093c3.123 1.73 9.875 4.267 10.634 4.55 3.851 1.44 5.939 2.99 5.939 7.043v6.454c0 .345-.28.624-.625.624z" fill="url(#paint7_linear)"/><path d="M28.75 63.106c-6.268 0-16.25-9.438-16.25-20.625a.625.625 0 111.25 0c0 10.32 9.35 19.375 15 19.375 5.652 0 15-9.055 15-19.375a.624.624 0 111.25 0c0 11.187-9.98 20.625-16.25 20.625z" fill="url(#paint8_linear)"/><path d="M28.788 66.857a.63.63 0 01-.631-.625.62.62 0 01.618-.625h.013a.625.625 0 110 1.25z" fill="url(#paint9_linear)"/><path d="M28.788 71.857a.63.63 0 01-.631-.626.62.62 0 01.618-.624h.013a.625.625 0 110 1.25z" fill="url(#paint10_linear)"/><path d="M28.788 76.796a.63.63 0 01-.631-.625.62.62 0 01.618-.625h.013a.625.625 0 110 1.25z" fill="url(#paint11_linear)"/><path d="M35.625 66.857a.624.624 0 01-.535-.946l3.75-6.25a.624.624 0 111.072.642l-3.75 6.25a.624.624 0 01-.537.304z" fill="url(#paint12_linear)"/><path d="M35.625 66.857a.618.618 0 01-.28-.066l-5-2.5a.625.625 0 11.56-1.118l5 2.5a.625.625 0 01-.28 1.184z" fill="url(#paint13_linear)"/><path d="M21.876 66.857a.625.625 0 01-.536-.304l-3.75-6.25a.624.624 0 111.071-.642l3.75 6.25a.624.624 0 01-.535.946z" fill="url(#paint14_linear)"/><path d="M21.876 66.857a.626.626 0 01-.28-1.184l5-2.5a.626.626 0 01.559 1.118l-5 2.5a.616.616 0 01-.279.066z" fill="url(#paint15_linear)"/><path d="M44.449 34.081c.35 1.837.388 4.175-.075 7.15l-3.75-6.25s-6.074 2.5-11.875 2.5c-5.812 0-11.875-2.5-11.875-2.5l-3.75 6.25c-2.3-24.475 25.25-20.1 26.25-19.95-4.337 1.787-2.5 6.2-2.5 6.2s1.213-.112 2.688.387c1.85.638 4.113 2.225 4.887 6.213z" fill="#DEEEEE"/><path d="M13.126 41.856a.625.625 0 01-.623-.566c-.596-6.364.746-11.396 3.99-14.957 4.575-5.024 11.93-6.079 17.295-6.079 2.925 0 5.092.313 5.687.408a.626.626 0 01.139 1.195c-3.026 1.245-2.585 3.966-2.293 4.99 1.164.023 3.765.352 5.723 2.638 2.13 2.488 2.785 6.472 1.95 11.843a.625.625 0 01-.499.516.615.615 0 01-.655-.291l-3.479-5.798c-1.59.602-6.649 2.35-11.61 2.35-4.961 0-10.02-1.748-11.611-2.35l-3.478 5.798a.625.625 0 01-.536.303zm27.5-7.5c.213 0 .42.11.535.304l2.823 4.702c.395-4.09-.238-7.135-1.89-9.064-1.75-2.043-4.201-2.202-4.911-2.202-.35 0-.276.01-.306.01a.628.628 0 01-.579-.386c-.038-.092-.915-2.255-.056-4.319A4.529 4.529 0 0137.5 21.68a39.994 39.994 0 00-3.712-.175c-5.113 0-12.104.984-16.372 5.67-2.657 2.918-3.928 6.95-3.79 12.008l2.713-4.522a.619.619 0 01.774-.257c.059.025 6.028 2.453 11.637 2.453 5.618 0 11.577-2.428 11.637-2.453a.605.605 0 01.238-.047z" fill="url(#paint16_linear)"/><path d="M72.083 25.826c.35 1.838-.12 2.699-.583 5.674l-3.241-4.774s-6.075 2.5-11.875 2.5c-5.813 0-11.875-2.5-11.875-2.5l-3.75 6.25C38.459 8.501 64.5 13.35 65.5 13.5c-3 2-.991 5.726-.991 5.726s1.213-.112 2.687.387c1.85.639 4.114 2.225 4.887 6.213z" fill="#DEEEEE"/><path fill-rule="evenodd" clip-rule="evenodd" d="M44.645 18.55c4.434-4.87 11.638-5.85 16.778-5.85 1.489 0 2.788.085 3.764.177a.55.55 0 01.306.965 3.98 3.98 0 00-1.109 1.515c-.378.91-.38 1.858-.271 2.61.108.75.32 1.268.328 1.289a.077.077 0 00.047.041 4.383 4.383 0 01.33-.006c.76 0 3.42.165 5.329 2.395 1.794 2.096 2.42 5.324 2.019 9.474a.55.55 0 01-1.019.23l-2.823-4.702a.075.075 0 00-.087-.033l-.007.003c-.062.026-6.11 2.493-11.845 2.493-4.764 0-9.755-1.707-11.336-2.297a.53.53 0 01-.3-.706l.202-.49a.02.02 0 01.025-.01l.053.021.202.078c.176.068.432.163.755.277.646.227 1.56.53 2.646.83 2.179.604 5.02 1.197 7.753 1.197 5.456 0 11.275-2.349 11.427-2.41a1.174 1.174 0 011.456.481m0 0c.732 1.878 4.105 10.29 1.577-.505-.309-1.319-.826-2.388-1.534-3.216-1.59-1.857-3.834-2.01-4.494-2.01l-.18.002h-.03c-.046.008-.083.008-.095.008-.47 0-.904-.282-1.087-.725a6.917 6.917 0 01-.401-1.552c-.125-.868-.136-2.033.344-3.188.2-.484-.093-1.095-.617-1.113a38.607 38.607 0 00-1.328-.023c-5.086 0-11.864.987-15.965 5.49-1.015 1.115-1.49 1.718-1.963 2.631-.388.748-.772 1.698-1.414 3.284l-.364.898a.55.55 0 11-1.019-.415l.35-.863c.646-1.599 1.056-2.612 1.47-3.41.54-1.04 1.09-1.727 2.127-2.866m19.698.78c-.015.006-.01.004.005 0h-.005z" fill="url(#paint17_linear)"/><path d="M30.626 79.356a.625.625 0 01-.626-.624v-12.5a.625.625 0 111.25 0v12.5a.624.624 0 01-.624.624z" fill="url(#paint18_linear)"/><path d="M26.875 79.356a.624.624 0 01-.624-.624v-12.5a.625.625 0 111.25 0v12.5c0 .345-.28.624-.626.624z" fill="url(#paint19_linear)"/><path d="M46.876 75.607h-10a.625.625 0 110-1.25h10a.625.625 0 110 1.25z" fill="url(#paint20_linear)"/><path d="M36.876 76.857a.625.625 0 01-.625-.625v-1.25a.625.625 0 111.25 0v1.25c0 .345-.28.625-.625.625z" fill="url(#paint21_linear)"/><path d="M46.876 76.857a.625.625 0 01-.625-.625v-1.25a.625.625 0 111.25 0v1.25c0 .345-.28.625-.625.625z" fill="url(#paint22_linear)"/><path d="M18.125 60.606a.625.625 0 01-.624-.625v-1.25a.625.625 0 111.25 0v1.25c0 .346-.28.625-.626.625z" fill="url(#paint23_linear)"/><path d="M39.376 60.606a.625.625 0 01-.625-.625v-1.25a.625.625 0 111.25 0v1.25c0 .346-.28.625-.625.625z" fill="url(#paint24_linear)"/><path d="M38.126 74.357a.624.624 0 01-.347-1.145l3.75-2.5a.625.625 0 01.693 1.04l-3.75 2.5a.625.625 0 01-.346.105z" fill="url(#paint25_linear)"/><path d="M45.625 74.357a.627.627 0 01-.346-.105l-3.75-2.5a.625.625 0 11.693-1.04l3.75 2.5a.624.624 0 01-.347 1.145z" fill="url(#paint26_linear)"/></g><defs><linearGradient id="paint0_linear" x1="30.96" y1="4.059" x2="68.562" y2="-8.064" gradientUnits="userSpaceOnUse"><stop stop-color="#46A29F"/><stop offset="1" stop-color="#4660A2"/></linearGradient><linearGradient id="paint1_linear" x1="41.522" y1="38.636" x2="98.996" y2="14.577" gradientUnits="userSpaceOnUse"><stop stop-color="#46A29F"/><stop offset="1" stop-color="#4660A2"/></linearGradient><linearGradient id="paint2_linear" x1="39.267" y1="52.15" x2="61.01" y2="42.384" gradientUnits="userSpaceOnUse"><stop stop-color="#46A29F"/><stop offset="1" stop-color="#4660A2"/></linearGradient><linearGradient id="paint3_linear" x1="53.616" y1="54.601" x2="103.819" y2="35.423" gradientUnits="userSpaceOnUse"><stop stop-color="#46A29F"/><stop offset="1" stop-color="#4660A2"/></linearGradient><linearGradient id="paint4_linear" x1="49.786" y1="49.345" x2="52.938" y2="48.986" gradientUnits="userSpaceOnUse"><stop stop-color="#46A29F"/><stop offset="1" stop-color="#4660A2"/></linearGradient><linearGradient id="paint5_linear" x1="63.536" y1="49.438" x2="66.685" y2="49.065" gradientUnits="userSpaceOnUse"><stop stop-color="#46A29F"/><stop offset="1" stop-color="#4660A2"/></linearGradient><linearGradient id="paint6_linear" x1="39.025" y1="57.008" x2="69.602" y2="22.172" gradientUnits="userSpaceOnUse"><stop stop-color="#46A29F"/><stop offset="1" stop-color="#4660A2"/></linearGradient><linearGradient id="paint7_linear" x1="-9.88" y1="64.887" x2="70.44" y2="-8.25" gradientUnits="userSpaceOnUse"><stop stop-color="#46A29F"/><stop offset="1" stop-color="#4660A2"/></linearGradient><linearGradient id="paint8_linear" x1="6.916" y1="46.707" x2="75.76" y2="15.445" gradientUnits="userSpaceOnUse"><stop stop-color="#46A29F"/><stop offset="1" stop-color="#4660A2"/></linearGradient><linearGradient id="paint9_linear" x1="27.941" y1="65.892" x2="30.888" y2="65.013" gradientUnits="userSpaceOnUse"><stop stop-color="#46A29F"/><stop offset="1" stop-color="#4660A2"/></linearGradient><linearGradient id="paint10_linear" x1="27.941" y1="70.892" x2="30.888" y2="70.013" gradientUnits="userSpaceOnUse"><stop stop-color="#46A29F"/><stop offset="1" stop-color="#4660A2"/></linearGradient><linearGradient id="paint11_linear" x1="27.941" y1="75.831" x2="30.888" y2="74.952" gradientUnits="userSpaceOnUse"><stop stop-color="#46A29F"/><stop offset="1" stop-color="#4660A2"/></linearGradient><linearGradient id="paint12_linear" x1="34.141" y1="61.068" x2="46.435" y2="58.635" gradientUnits="userSpaceOnUse"><stop stop-color="#46A29F"/><stop offset="1" stop-color="#4660A2"/></linearGradient><linearGradient id="paint13_linear" x1="28.926" y1="63.962" x2="41.755" y2="57.614" gradientUnits="userSpaceOnUse"><stop stop-color="#46A29F"/><stop offset="1" stop-color="#4660A2"/></linearGradient><linearGradient id="paint14_linear" x1="16.641" y1="61.068" x2="28.936" y2="58.635" gradientUnits="userSpaceOnUse"><stop stop-color="#46A29F"/><stop offset="1" stop-color="#4660A2"/></linearGradient><linearGradient id="paint15_linear" x1="20.176" y1="63.962" x2="33.005" y2="57.614" gradientUnits="userSpaceOnUse"><stop stop-color="#46A29F"/><stop offset="1" stop-color="#4660A2"/></linearGradient><linearGradient id="paint16_linear" x1="6.698" y1="25.186" x2="76.602" y2="-6.499" gradientUnits="userSpaceOnUse"><stop stop-color="#46A29F"/><stop offset="1" stop-color="#4660A2"/></linearGradient><linearGradient id="paint17_linear" x1="35.223" y1="17.027" x2="100.11" y2="-15.11" gradientUnits="userSpaceOnUse"><stop stop-color="#46A29F"/><stop offset="1" stop-color="#4660A2"/></linearGradient><linearGradient id="paint18_linear" x1="29.786" y1="68.746" x2="32.978" y2="68.659" gradientUnits="userSpaceOnUse"><stop stop-color="#46A29F"/><stop offset="1" stop-color="#4660A2"/></linearGradient><linearGradient id="paint19_linear" x1="26.036" y1="68.746" x2="29.227" y2="68.659" gradientUnits="userSpaceOnUse"><stop stop-color="#46A29F"/><stop offset="1" stop-color="#4660A2"/></linearGradient><linearGradient id="paint20_linear" x1="34.317" y1="74.642" x2="37.848" y2="65.207" gradientUnits="userSpaceOnUse"><stop stop-color="#46A29F"/><stop offset="1" stop-color="#4660A2"/></linearGradient><linearGradient id="paint21_linear" x1="36.036" y1="74.927" x2="39.161" y2="74.463" gradientUnits="userSpaceOnUse"><stop stop-color="#46A29F"/><stop offset="1" stop-color="#4660A2"/></linearGradient><linearGradient id="paint22_linear" x1="46.036" y1="74.927" x2="49.16" y2="74.463" gradientUnits="userSpaceOnUse"><stop stop-color="#46A29F"/><stop offset="1" stop-color="#4660A2"/></linearGradient><linearGradient id="paint23_linear" x1="17.286" y1="58.677" x2="20.411" y2="58.213" gradientUnits="userSpaceOnUse"><stop stop-color="#46A29F"/><stop offset="1" stop-color="#4660A2"/></linearGradient><linearGradient id="paint24_linear" x1="38.536" y1="58.677" x2="41.661" y2="58.213" gradientUnits="userSpaceOnUse"><stop stop-color="#46A29F"/><stop offset="1" stop-color="#4660A2"/></linearGradient><linearGradient id="paint25_linear" x1="36.641" y1="71.463" x2="47.686" y2="67.09" gradientUnits="userSpaceOnUse"><stop stop-color="#46A29F"/><stop offset="1" stop-color="#4660A2"/></linearGradient><linearGradient id="paint26_linear" x1="40.391" y1="71.463" x2="51.437" y2="67.09" gradientUnits="userSpaceOnUse"><stop stop-color="#46A29F"/><stop offset="1" stop-color="#4660A2"/></linearGradient><clipPath id="clip0"><path fill="#fff" d="M0 0h80v80H0z"/></clipPath></defs></svg>