<svg width="80" height="80" fill="none" xmlns="http://www.w3.org/2000/svg"><path d="M64.346 13.098c-6.213 0-11.249 5.035-11.249 11.247v16.873h22.497V24.345c0-6.212-5.036-11.247-11.248-11.247z" fill="#DEEEEE"/><path d="M76.205 38.756c-.487-.187-2.373-1.661-3.11-1.913H55.582c-.737.252-2.624 1.726-3.11 1.913-2.113.787-3.163 1.574-3.163 3.687v3.15h30.058v-3.15c0-2.113-1.05-2.9-3.163-3.687z" fill="#DEEEEE"/><path d="M54.972 38.756c.487-.187 2.374-1.661 3.111-1.913h-2.5c-.737.252-2.624 1.726-3.11 1.913-2.113.787-3.163 1.574-3.163 3.687v3.15h2.5v-3.15c0-2.113 1.05-2.9 3.162-3.687z" fill="#DEEEEE"/><path d="M69.357 34.234H59.36v4.485h9.998v-4.485z" fill="#F0F4F4"/><path d="M73.094 36.844l-3.769-2.61-3.705 11.358 4.975-4.999-1.25-1.25 3.75-2.5zm-17.504 0l3.769-2.61 3.705 11.358-4.975-4.999 1.25-1.25-3.75-2.5z" fill="#fff"/><path d="M64.346 39.343v6.249h1.274l2.475-7.487-3.75 1.238zm-1.282 6.249h1.274v-6.25l-3.75-1.237 2.476 7.487z" fill="#DEEEEE"/><path d="M69.982 19.57c-.078-.035-3.436-.124-5.636-.179-2.2.055-5.559.144-5.637.178-.117.052-3.099 5.227-3.099 5.227v1.324c0 5.58 5.41 10.709 8.736 10.722 3.325-.013 8.735-5.142 8.735-10.722v-1.325s-2.982-5.174-3.1-5.226z" fill="#F0F4F4"/><path d="M58.11 26.12v-1.324s2.982-5.174 3.099-5.226c.065-.03 2.352-.094 4.386-.147-.435-.01-.861-.022-1.25-.032-2.2.055-5.558.144-5.636.179-.117.052-3.099 5.226-3.099 5.226v1.324c0 5.58 5.41 10.709 8.736 10.722a4.36 4.36 0 001.25-.215C62.32 35.61 58.11 31.044 58.11 26.12z" fill="#fff"/><path d="M53.258 26.171c3.404-.953 11.214-3.9 13.587-5.263 3.625-2.06 5.819-4 5.876-4.052-2.059-2.302-5.043-3.759-8.375-3.759-6.213 0-11.249 5.036-11.249 11.248 0 .624.064 1.23.161 1.826z" fill="#DEEEEE"/><path d="M54.347 24.345c0-5.992 4.692-10.877 10.6-11.214-.201-.011-.398-.033-.601-.033-6.213 0-11.249 5.035-11.249 11.247 0 .624.064 1.23.161 1.826.354-.099.764-.224 1.203-.362a10.72 10.72 0 01-.114-1.464z" fill="#F0F4F4"/><path d="M75.594 24.345a11.19 11.19 0 00-3.128-7.767l-5.62 4.343s2.79 3.085 8.678 4.654c.044-.404.07-.813.07-1.23z" fill="#DEEEEE"/><path d="M30.648 45.598H.653v-4.162c0-2.087 1.05-2.875 3.124-3.65 1.023-.387 2.861-1.075 4.375-1.8l1.462-1.45 3.561 3.563 2.5-1.238 2.5 1.238 3.549-3.55 1.425 1.425c1.524.738 3.35 1.425 4.375 1.812 2.087.775 3.124 1.563 3.124 3.65v4.162z" fill="#F0F4F4"/><path d="M3.153 41.436c0-2.087 1.05-2.875 3.124-3.65 1.023-.387 2.86-1.075 4.374-1.8l.208-.205-1.245-1.245-1.463 1.45c-1.513.725-3.351 1.413-4.374 1.8-2.075.775-3.124 1.562-3.124 3.65v4.162h2.5v-4.162z" fill="#fff"/><path d="M28.173 41.436c0-2.087-1.05-2.875-3.124-3.65-1.023-.387-2.861-1.075-4.375-1.8l-.207-.205 1.245-1.245 1.462 1.45c1.513.725 3.352 1.413 4.374 1.8 2.075.775 3.125 1.562 3.125 3.65v4.162h-2.5v-4.162zm-11.221 4.162h-2.5l.625-6.786h1.25l.625 6.786z" fill="#DEEEEE"/><path d="M16.772 37.112h-2.226v1.7h2.226v-1.7z" fill="#DEEEEE"/><path d="M13.202 38.192l-3.75-3.75 1.25-1.25 5.02 2.671v1.08l-2.52 1.25z" fill="#fff"/><path d="M18.201 38.192l3.75-3.75-1.25-1.25-5.019 2.671v1.08l2.52 1.25z" fill="#fff"/><path d="M8.164 13.196s17.497-6.25 16.286 9.998l-2.638-3.75c-5.45-.324-11.549 2.113-14.886 3.7-1.562.75-2.511 1.3-2.511 1.3 0-7.811 5.099-9.998 5.099-9.998l-1.35-1.25z" fill="#DEEEEE"/><path d="M10.859 14.739l-1.445-1.543s2.9-1.035 6.256-1.167c-3.852-.133-7.506 1.167-7.506 1.167l1.35 1.25s-5.1 2.187-5.1 9.998c0 0 .47-.27 1.279-.686.294-7.24 5.166-9.02 5.166-9.02zm13.591 8.455v1.262c0 5.937-5.412 11.412-8.75 11.412-3.324 0-8.748-5.475-8.748-11.412v-1.262l-.026-.05c3.337-1.587 9.436-4.024 14.886-3.7l2.637 3.75z" fill="#F0F4F4"/><path d="M9.452 24.456v-1.262l-.026-.05c2.839-1.35 7.678-3.3 12.415-3.656l-.03-.043c-5.449-.325-11.548 2.112-14.885 3.7l.026.05v1.261c0 5.937 5.424 11.412 8.749 11.412a4.08 4.08 0 001.25-.225c-3.276-1.074-7.5-5.948-7.5-11.187zm20.806 19.337c-1.675-2.838-2.774-6.112-2.774-9.474v-1.225l3.813-5.448c-1.205-.444-1.939-.801-1.939-.801l-4.374 6.249v1.225c0 3.362 1.1 6.636 2.774 9.474 3.187 5.424 8.487 9.298 12.224 9.298.399 0 .818-.054 1.247-.14-3.598-.716-8.125-4.315-10.971-9.158z" fill="#fff"/><path d="M64.376 42.475a.63.63 0 01-.63-.625c0-.345.272-.625.617-.625h.013a.625.625 0 010 1.25z" fill="url(#paint0_linear)"/><path d="M64.34 37.468c-2.058 0-4.762-1.704-6.73-4.24a.626.626 0 01.988-.767c1.715 2.212 4.077 3.758 5.742 3.758 3.056 0 8.123-4.892 8.123-10.098a.624.624 0 111.25 0c0 6.043-5.842 11.347-9.373 11.347z" fill="url(#paint1_linear)"/><path d="M79.375 46.217h-25.02a.625.625 0 110-1.25H78.75v-2.524c0-1.629-.592-2.296-2.756-3.101-.332-.128-.745-.265-1.205-.418l-.677-.226a.626.626 0 01.403-1.184l.669.224c.48.16.911.303 1.253.435 2.255.84 3.563 1.81 3.563 4.27v3.15c0 .344-.28.624-.625.624z" fill="url(#paint2_linear)"/><path d="M15.623 46.217H.625A.625.625 0 010 45.592V41.43c0-2.427 1.294-3.39 3.528-4.234.974-.356 2.823-1.058 4.326-1.778a.625.625 0 11.54 1.127c-1.55.742-3.44 1.46-4.43 1.823-2.13.804-2.714 1.463-2.714 3.062v3.537h14.373a.624.624 0 110 1.25z" fill="url(#paint3_linear)"/><path d="M25.609 46.217h-9.986a.625.625 0 110-1.25h9.986a.625.625 0 110 1.25z" fill="url(#paint4_linear)"/><path d="M15.66 36.394c-3.532 0-9.374-5.62-9.374-12.024a.625.625 0 111.25 0c0 5.556 5.067 10.774 8.123 10.774 1.647 0 3.989-1.627 5.696-3.956a.625.625 0 111.008.739c-1.958 2.671-4.652 4.467-6.704 4.467z" fill="url(#paint5_linear)"/><path d="M13.147 38.718a.622.622 0 01-.441-.183l-3.75-3.75a.624.624 0 11.884-.883l3.433 3.433 2.075-1.028a.629.629 0 01.736.09c.25.238.266.628.028.877a.707.707 0 01-.188.142l-2.5 1.238a.623.623 0 01-.277.064z" fill="url(#paint6_linear)"/><path d="M18.147 38.718a.627.627 0 01-.277-.064l-2.5-1.238.543-1.126 2.11 1.044 3.431-3.432a.624.624 0 11.884.884l-3.75 3.75a.623.623 0 01-.441.182z" fill="url(#paint7_linear)"/><path d="M4.374 24.97a.625.625 0 01-.625-.625c0-6.29 3.146-9.118 4.672-10.12l-.722-.67a.626.626 0 01.215-1.046c.339-.122 8.377-2.93 13.383.397 2.31 1.537 3.58 4.112 3.772 7.656a.624.624 0 01-.59.658c-.377.055-.637-.245-.657-.59-.17-3.129-1.252-5.377-3.217-6.683-3.52-2.339-9.008-1.19-11.26-.57l.553.512a.626.626 0 01-.178 1.032c-.18.08-4.27 1.949-4.687 8.352 2.64-1.386 10.12-4.945 16.775-4.55a.623.623 0 01.515.33l1.334 2.492a.625.625 0 11-1.096.601l-1.174-2.192c-7.607-.277-16.608 4.879-16.7 4.932a.624.624 0 01-.313.084z" fill="url(#paint8_linear)"/><path d="M15.623 39.968a.624.624 0 01-.442-.183l-1.25-1.25a.625.625 0 11.884-.884l1.25 1.25a.624.624 0 01-.442 1.067z" fill="url(#paint9_linear)"/><path d="M15.623 39.968a.624.624 0 01-.442-1.067l1.25-1.25a.624.624 0 11.883.884l-1.25 1.25a.624.624 0 01-.441.183z" fill="url(#paint10_linear)"/><path d="M14.374 44.967a.625.625 0 01-.623-.694l.625-5.624a.615.615 0 01.691-.552c.343.038.59.347.552.69l-.625 5.625a.625.625 0 01-.62.555z" fill="url(#paint11_linear)"/><path d="M16.871 44.967a.625.625 0 01-.62-.555l-.625-5.625a.625.625 0 011.243-.138l.625 5.624a.625.625 0 01-.623.694z" fill="url(#paint12_linear)"/><path d="M75.602 36.669a.625.625 0 01-.626-.625V24.345a.625.625 0 111.25 0v11.699c0 .345-.28.625-.624.625z" fill="url(#paint13_linear)"/><path d="M54.279 19.971a.626.626 0 01-.56-.902 11.807 11.807 0 0110.634-6.597.624.624 0 110 1.25c-4.06 0-7.706 2.262-9.514 5.902a.626.626 0 01-.56.347z" fill="url(#paint14_linear)"/><path d="M75.601 24.97a.625.625 0 01-.625-.625c0-2.628-.959-5.142-2.702-7.08a10.655 10.655 0 00-7.92-3.543.625.625 0 110-1.25c3.369 0 6.595 1.442 8.85 3.957a11.813 11.813 0 013.022 7.916c0 .346-.28.625-.625.625z" fill="url(#paint15_linear)"/><path d="M58.104 25.245a.625.625 0 01-.169-1.226c2.898-.81 5.793-2.038 8.606-3.652 3.568-2.027 5.76-3.968 5.782-3.987a.624.624 0 11.832.933c-.093.082-2.304 2.043-5.994 4.139-2.9 1.664-5.892 2.934-8.889 3.77a.626.626 0 01-.168.023z" fill="url(#paint16_linear)"/><path d="M75.601 26.22a.618.618 0 01-.158-.02c-6.048-1.592-8.934-4.727-9.054-4.86a.626.626 0 01.926-.839c.027.03 2.783 3 8.445 4.49a.625.625 0 01-.159 1.229z" fill="url(#paint17_linear)"/><path d="M73.088 26.745a.624.624 0 01-.625-.624v-1.325a.624.624 0 111.25 0v1.325c0 .345-.28.625-.625.625z" fill="url(#paint18_linear)"/><path d="M66.877 44.967a.626.626 0 01-.443-1.066l3.286-3.307-.81-.81a.624.624 0 01.096-.961l2.988-1.993-1.75-1.224a.624.624 0 11.717-1.024l2.5 1.75a.626.626 0 01-.013 1.031l-3.115 2.077.71.71a.624.624 0 01.002.883l-3.725 3.75a.62.62 0 01-.443.184z" fill="url(#paint19_linear)"/><path d="M61.828 44.967a.62.62 0 01-.443-.184l-3.724-3.75a.624.624 0 01.001-.882l.708-.708-.61-.403a.625.625 0 01.688-1.043l1.25.824a.625.625 0 01.098.964l-.81.809 3.285 3.307a.624.624 0 01-.443 1.066z" fill="url(#paint20_linear)"/><path d="M64.353 39.968c-2.727 0-4.133-1.374-4.191-1.433a.625.625 0 01.88-.887c.045.044 1.13 1.07 3.311 1.07 2.184 0 3.268-1.016 3.313-1.06a.629.629 0 01.882.014.623.623 0 01-.006.879c-.059.057-1.463 1.417-4.189 1.417z" fill="url(#paint21_linear)"/><path d="M58.695 36.688c0-10.603-8.593-19.196-19.195-19.196s-19.196 8.593-19.196 19.195c0 0 .985 15.258-4.921 19.196 0 0 4.921 3.937 12.796 3.937H50.82c7.875 0 12.797-3.937 12.797-3.937-5.906-3.938-4.922-19.196-4.922-19.196z" fill="#DEEEEE"/><path d="M66.57 73.602v5.906h-8.86V65.736c1.113.355 2.137.67 2.954.975 3.937 1.477 5.906 2.953 5.906 6.89z" fill="#F0F4F4"/><path d="M39.5 17.492c5.916 0 11.211 2.678 14.736 6.89 0 0-2.373 3.613-8.338 7.285-5.335 3.288-13.555 6.625-25.535 7.442 0-1.477-.059-2.422-.059-2.422 0-10.601 8.594-19.195 19.196-19.195z" fill="#656D78"/><path d="M39.5 17.492c5.916 0 11.211 2.678 14.736 6.89 0 0-2.373 3.613-8.338 7.285-5.335 3.288-13.555 6.625-25.535 7.442 0-1.477-.059-2.422-.059-2.422 0-10.601 8.594-19.195 19.196-19.195z" fill="#DEEEEE"/><path d="M22.273 36.688c0-10.341 8.182-18.748 18.422-19.157a19.682 19.682 0 00-1.195-.039c-10.602 0-19.195 8.594-19.195 19.195 0 0 .059.945.059 2.422a77.466 77.466 0 001.967-.162c-.003-1.38-.058-2.26-.058-2.26z" fill="#F0F4F4"/><path d="M58.665 37.209c-6.673-.522-12.767-5.542-12.767-5.542 5.965-3.672 8.337-7.284 8.337-7.284a19.118 19.118 0 014.46 12.304l-.03.522z" fill="#DEEEEE"/><path d="M45.898 31.667s4.959 4.086 10.828 5.268v2.214c0 6.526-3.582 12.768-7.875 16.852-3.11 2.963-6.595 4.804-9.351 4.804-2.756 0-6.241-1.83-9.352-4.804-3.858-3.671-7.146-9.086-7.767-14.884v-2.172c10.962-1.022 18.468-4.166 23.517-7.278z" fill="#F0F4F4"/><path d="M32.117 56c-3.859-3.67-7.146-9.085-7.767-14.883v-2.389l-1.969.217v2.172c.62 5.798 3.909 11.213 7.767 14.884 3.11 2.973 6.596 4.804 9.352 4.804.317 0 .647-.031.982-.08-2.573-.366-5.614-2.095-8.365-4.724z" fill="#fff"/><path d="M48.851 58.836a4 4 0 00.207 1.3c.513 1.584 1.969 2.755 3.73 3.67v.011c-.048.345-1.269 7.816-13.24 7.816-12.245 0-13.337-7.826-13.337-7.826 1.614-.837 2.962-1.89 3.583-3.277a4.174 4.174 0 00.354-1.694V56c3.11 2.973 6.596 4.804 9.352 4.804 2.756 0 6.24-1.841 9.351-4.804v2.835z" fill="#F0F4F4"/><path opacity=".2" d="M48.851 56.001c-3.11 2.963-6.595 4.804-9.351 4.804-2.756 0-6.24-1.83-9.352-4.804v.984c3.111 2.974 6.596 4.804 9.352 4.804 2.756 0 6.24-1.84 9.351-4.804v-.984z" fill="#000"/><path d="M30.148 56.986v1.85c0 .61-.127 1.181-.354 1.694-.62 1.387-1.969 2.44-3.583 3.277l.685 1.93c1.614-.837 4.246-2.836 4.867-4.223a4.174 4.174 0 00.354-1.694v-1.157a24.1 24.1 0 01-1.969-1.677z" fill="#fff"/><path d="M21.309 65.736l-.02 13.772h-8.86v-5.906c0-3.938 1.97-5.415 5.907-6.891.817-.306 1.85-.62 2.973-.975z" fill="#F0F4F4"/><path d="M14.398 75.118c0-3.937 1.97-5.414 5.907-6.89a27.15 27.15 0 011-.346l.004-2.146c-1.123.355-2.156.67-2.973.975-3.938 1.477-5.906 2.953-5.906 6.89v5.907h1.968v-4.39z" fill="#fff"/><path d="M57.71 65.736v13.772H21.29l.02-13.772c1.594-.521 3.366-1.122 4.902-1.93 0 0 1.092 7.827 13.338 7.827 11.97 0 13.191-7.472 13.24-7.816 1.546.797 3.317 1.408 4.922 1.919z" fill="#DEEEEE"/><path d="M39.549 71.633c11.97 0 13.19-7.472 13.24-7.816v-.01c-.074-.039-.143-.08-.216-.12-.674 2.038-3.307 6.961-13.024 6.961-9.729 0-12.415-4.935-13.11-6.966-.076.041-.15.084-.228.125 0 0 1.092 7.826 13.338 7.826z" fill="#DEEEEE"/><path opacity=".5" d="M21.308 67.865c1.52-.497 4.181-1.387 5.666-2.138-.637-1.182-.763-1.92-.763-1.92-1.536.807-3.308 1.408-4.902 1.93v2.128z" fill="#fff"/><path d="M39.5 61.297c-2.832 0-6.455-1.847-9.692-4.94-4.385-4.173-7.345-9.85-7.916-15.187a.492.492 0 01.979-.105c.547 5.112 3.394 10.561 7.617 14.58 3.058 2.923 6.427 4.668 9.012 4.668 2.574 0 5.943-1.745 9.012-4.669 4.835-4.601 7.722-10.768 7.722-16.495a.492.492 0 11.984 0c0 5.991-3 12.424-8.027 17.209-3.248 3.092-6.87 4.939-9.691 4.939z" fill="url(#paint22_linear)"/><path d="M66.57 80H12.43a.492.492 0 01-.493-.492v-5.906c0-4.218 2.188-5.838 6.226-7.353.691-.257 1.538-.522 2.434-.805l.563-.177c1.626-.532 3.341-1.117 4.822-1.896 1.755-.91 2.853-1.903 3.363-3.043.206-.466.311-.97.311-1.492a.492.492 0 11.985 0c0 .661-.133 1.298-.397 1.892-.604 1.353-1.85 2.502-3.807 3.516-1.546.813-3.305 1.413-4.975 1.96l-.57.18c-.883.277-1.718.54-2.384.788-3.785 1.42-5.586 2.744-5.586 6.43v5.414h53.156V73.6c0-3.685-1.802-5.01-5.587-6.429a50.916 50.916 0 00-2.354-.784l-.576-.183c-1.574-.501-3.4-1.126-4.998-1.951a.491.491 0 11.452-.875c1.534.792 3.31 1.399 4.845 1.888l.575.183c.898.284 1.72.546 2.401.8 4.038 1.515 6.227 3.134 6.227 7.352v5.906c0 .272-.22.492-.493.492z" fill="url(#paint23_linear)"/><path d="M52.789 64.299a.502.502 0 01-.227-.055c-2.178-1.132-3.477-2.426-3.972-3.958a4.507 4.507 0 01-.23-1.45.492.492 0 11.984 0c0 .406.06.79.18 1.14.414 1.28 1.555 2.388 3.492 3.393a.492.492 0 01-.227.93z" fill="url(#paint24_linear)"/><path d="M30.148 59.328a.492.492 0 01-.492-.492v-2.835a.492.492 0 11.985 0v2.835c0 .272-.22.492-.493.492z" fill="url(#paint25_linear)"/><path d="M48.851 59.328a.492.492 0 01-.492-.492v-2.835a.492.492 0 11.985 0v2.835c0 .272-.22.492-.493.492z" fill="url(#paint26_linear)"/><path d="M58.695 37.18a.492.492 0 01-.492-.492 18.74 18.74 0 00-4.345-11.99A18.677 18.677 0 0039.5 17.984c-10.313 0-18.703 8.39-18.703 18.703a.492.492 0 11-.985 0C19.812 25.832 28.644 17 39.5 17a19.659 19.659 0 0115.113 7.067 19.73 19.73 0 014.574 12.62c0 .273-.22.493-.492.493z" fill="url(#paint27_linear)"/><path d="M63.617 56.375a.492.492 0 01-.273-.083c-4.524-3.016-5.2-12.048-5.2-17.163 0-.716.015-1.316.024-1.74l.036-.727a.475.475 0 01.516-.466c.272.014.48.245.466.517l-.033.699a68.98 68.98 0 00-.024 1.717c0 3.96.464 13.48 4.76 16.344a.492.492 0 01-.272.902z" fill="url(#paint28_linear)"/><path d="M50.82 60.312a.492.492 0 110-.984c7.595 0 12.442-3.792 12.49-3.83a.49.49 0 01.691.077.494.494 0 01-.077.692c-.206.166-5.148 4.045-13.104 4.045z" fill="url(#paint29_linear)"/><path d="M15.383 56.375a.492.492 0 01-.273-.902c3.748-2.499 4.573-10.127 4.732-14.452.02-.69.03-1.345.03-1.912a41.82 41.82 0 00-.059-2.39.492.492 0 01.983-.062c.002.04.06.977.06 2.452 0 .575-.01 1.24-.03 1.943-.202 5.517-1.263 12.635-5.17 15.24a.492.492 0 01-.273.083z" fill="url(#paint30_linear)"/><path d="M28.18 60.313c-7.957 0-12.898-3.88-13.105-4.046a.493.493 0 01.615-.769c.048.039 4.895 3.83 12.49 3.83a.492.492 0 110 .984z" fill="url(#paint31_linear)"/><path d="M20.363 39.601a.492.492 0 01-.033-.983c9.962-.68 18.478-3.16 25.31-7.37 5.786-3.561 8.161-7.1 8.184-7.136a.492.492 0 01.823.54c-.099.152-2.501 3.747-8.491 7.434-6.97 4.295-15.636 6.823-25.759 7.514a.672.672 0 01-.034.001z" fill="url(#paint32_linear)"/><path d="M58.666 37.701l-.04-.001c-6.75-.528-12.787-5.444-13.041-5.653a.492.492 0 01.626-.76c.06.05 6.057 4.928 12.493 5.431a.492.492 0 01-.038.983z" fill="url(#paint33_linear)"/><path d="M39.549 72.125c-6.504 0-9.91-2.215-11.623-4.072-1.887-2.046-2.19-4.091-2.203-4.178a.492.492 0 01.975-.139c.044.303 1.215 7.405 12.85 7.405 11.57 0 12.71-7.091 12.753-7.393 0-.273.219-.463.49-.463.272 0 .49.25.49.522-.053.416-1.32 8.318-13.732 8.318z" fill="url(#paint34_linear)"/><path d="M57.71 80a.492.492 0 01-.492-.492V65.736a.492.492 0 11.985 0v13.772c0 .272-.22.492-.492.492z" fill="url(#paint35_linear)"/><path d="M21.289 80a.492.492 0 01-.492-.492l.02-13.772c0-.272.22-.497.492-.497s.492.217.492.488l-.02 13.78c0 .273-.22.493-.492.493z" fill="url(#paint36_linear)"/><defs><linearGradient id="paint0_linear" x1="63.529" y1="41.51" x2="66.476" y2="40.631" gradientUnits="userSpaceOnUse"><stop stop-color="#46A29F"/><stop offset="1" stop-color="#4660A2"/></linearGradient><linearGradient id="paint1_linear" x1="54.689" y1="28.229" x2="90.383" y2="13.858" gradientUnits="userSpaceOnUse"><stop stop-color="#46A29F"/><stop offset="1" stop-color="#4660A2"/></linearGradient><linearGradient id="paint2_linear" x1="49.215" y1="39.476" x2="86.561" y2="6.128" gradientUnits="userSpaceOnUse"><stop stop-color="#46A29F"/><stop offset="1" stop-color="#4660A2"/></linearGradient><linearGradient id="paint3_linear" x1="-2.792" y1="37.836" x2="31.88" y2="22.435" gradientUnits="userSpaceOnUse"><stop stop-color="#46A29F"/><stop offset="1" stop-color="#4660A2"/></linearGradient><linearGradient id="paint4_linear" x1="13.067" y1="45.253" x2="16.6" y2="35.822" gradientUnits="userSpaceOnUse"><stop stop-color="#46A29F"/><stop offset="1" stop-color="#4660A2"/></linearGradient><linearGradient id="paint5_linear" x1="3.502" y1="26.633" x2="39.662" y2="12.882" gradientUnits="userSpaceOnUse"><stop stop-color="#46A29F"/><stop offset="1" stop-color="#4660A2"/></linearGradient><linearGradient id="paint6_linear" x1="7.483" y1="34.86" x2="23.485" y2="27.724" gradientUnits="userSpaceOnUse"><stop stop-color="#46A29F"/><stop offset="1" stop-color="#4660A2"/></linearGradient><linearGradient id="paint7_linear" x1="14.141" y1="34.86" x2="29.62" y2="28.286" gradientUnits="userSpaceOnUse"><stop stop-color="#46A29F"/><stop offset="1" stop-color="#4660A2"/></linearGradient><linearGradient id="paint8_linear" x1=".086" y1="14.41" x2="44.958" y2="-6.349" gradientUnits="userSpaceOnUse"><stop stop-color="#46A29F"/><stop offset="1" stop-color="#4660A2"/></linearGradient><linearGradient id="paint9_linear" x1="13.318" y1="38.039" x2="19.188" y2="36.296" gradientUnits="userSpaceOnUse"><stop stop-color="#46A29F"/><stop offset="1" stop-color="#4660A2"/></linearGradient><linearGradient id="paint10_linear" x1="14.568" y1="38.039" x2="20.438" y2="36.296" gradientUnits="userSpaceOnUse"><stop stop-color="#46A29F"/><stop offset="1" stop-color="#4660A2"/></linearGradient><linearGradient id="paint11_linear" x1="13.425" y1="39.662" x2="18.185" y2="39.276" gradientUnits="userSpaceOnUse"><stop stop-color="#46A29F"/><stop offset="1" stop-color="#4660A2"/></linearGradient><linearGradient id="paint12_linear" x1="15.3" y1="39.662" x2="20.06" y2="39.276" gradientUnits="userSpaceOnUse"><stop stop-color="#46A29F"/><stop offset="1" stop-color="#4660A2"/></linearGradient><linearGradient id="paint13_linear" x1="74.762" y1="26.676" x2="77.952" y2="26.585" gradientUnits="userSpaceOnUse"><stop stop-color="#46A29F"/><stop offset="1" stop-color="#4660A2"/></linearGradient><linearGradient id="paint14_linear" x1="51.708" y1="14.184" x2="75.798" y2="3.383" gradientUnits="userSpaceOnUse"><stop stop-color="#46A29F"/><stop offset="1" stop-color="#4660A2"/></linearGradient><linearGradient id="paint15_linear" x1="61.581" y1="15.325" x2="90.927" y2="6.612" gradientUnits="userSpaceOnUse"><stop stop-color="#46A29F"/><stop offset="1" stop-color="#4660A2"/></linearGradient><linearGradient id="paint16_linear" x1="54.749" y1="18.281" x2="86.628" y2="1.62" gradientUnits="userSpaceOnUse"><stop stop-color="#46A29F"/><stop offset="1" stop-color="#4660A2"/></linearGradient><linearGradient id="paint17_linear" x1="64.51" y1="21.649" x2="84.926" y2="11.415" gradientUnits="userSpaceOnUse"><stop stop-color="#46A29F"/><stop offset="1" stop-color="#4660A2"/></linearGradient><linearGradient id="paint18_linear" x1="72.249" y1="24.759" x2="75.377" y2="24.308" gradientUnits="userSpaceOnUse"><stop stop-color="#46A29F"/><stop offset="1" stop-color="#4660A2"/></linearGradient><linearGradient id="paint19_linear" x1="64.968" y1="36.865" x2="83.248" y2="33.001" gradientUnits="userSpaceOnUse"><stop stop-color="#46A29F"/><stop offset="1" stop-color="#4660A2"/></linearGradient><linearGradient id="paint20_linear" x1="56.624" y1="39.508" x2="68.802" y2="36.966" gradientUnits="userSpaceOnUse"><stop stop-color="#46A29F"/><stop offset="1" stop-color="#4660A2"/></linearGradient><linearGradient id="paint21_linear" x1="58.475" y1="38.039" x2="69.22" y2="26.873" gradientUnits="userSpaceOnUse"><stop stop-color="#46A29F"/><stop offset="1" stop-color="#4660A2"/></linearGradient><linearGradient id="paint22_linear" x1="15.818" y1="43.825" x2="90.134" y2="9.393" gradientUnits="userSpaceOnUse"><stop stop-color="#46A29F"/><stop offset="1" stop-color="#4660A2"/></linearGradient><linearGradient id="paint23_linear" x1="2.465" y1="63.287" x2="92.108" y2="-4.464" gradientUnits="userSpaceOnUse"><stop stop-color="#46A29F"/><stop offset="1" stop-color="#4660A2"/></linearGradient><linearGradient id="paint24_linear" x1="47.513" y1="59.703" x2="59.375" y2="56.792" gradientUnits="userSpaceOnUse"><stop stop-color="#46A29F"/><stop offset="1" stop-color="#4660A2"/></linearGradient><linearGradient id="paint25_linear" x1="29.487" y1="56.381" x2="31.988" y2="56.19" gradientUnits="userSpaceOnUse"><stop stop-color="#46A29F"/><stop offset="1" stop-color="#4660A2"/></linearGradient><linearGradient id="paint26_linear" x1="48.19" y1="56.381" x2="50.691" y2="56.19" gradientUnits="userSpaceOnUse"><stop stop-color="#46A29F"/><stop offset="1" stop-color="#4660A2"/></linearGradient><linearGradient id="paint27_linear" x1="13.046" y1="21.607" x2="88.37" y2="-22.032" gradientUnits="userSpaceOnUse"><stop stop-color="#46A29F"/><stop offset="1" stop-color="#4660A2"/></linearGradient><linearGradient id="paint28_linear" x1="57.119" y1="40.801" x2="72.243" y2="39.474" gradientUnits="userSpaceOnUse"><stop stop-color="#46A29F"/><stop offset="1" stop-color="#4660A2"/></linearGradient><linearGradient id="paint29_linear" x1="47.96" y1="56.514" x2="68.783" y2="39.205" gradientUnits="userSpaceOnUse"><stop stop-color="#46A29F"/><stop offset="1" stop-color="#4660A2"/></linearGradient><linearGradient id="paint30_linear" x1="13.865" y1="40.802" x2="28.991" y2="39.474" gradientUnits="userSpaceOnUse"><stop stop-color="#46A29F"/><stop offset="1" stop-color="#4660A2"/></linearGradient><linearGradient id="paint31_linear" x1="12.522" y1="56.514" x2="33.343" y2="39.204" gradientUnits="userSpaceOnUse"><stop stop-color="#46A29F"/><stop offset="1" stop-color="#4660A2"/></linearGradient><linearGradient id="paint32_linear" x1="13.882" y1="27.477" x2="75.99" y2="-13.437" gradientUnits="userSpaceOnUse"><stop stop-color="#46A29F"/><stop offset="1" stop-color="#4660A2"/></linearGradient><linearGradient id="paint33_linear" x1="43.043" y1="32.665" x2="68.294" y2="16.867" gradientUnits="userSpaceOnUse"><stop stop-color="#46A29F"/><stop offset="1" stop-color="#4660A2"/></linearGradient><linearGradient id="paint34_linear" x1="20.982" y1="65.303" x2="58.906" y2="30.195" gradientUnits="userSpaceOnUse"><stop stop-color="#46A29F"/><stop offset="1" stop-color="#4660A2"/></linearGradient><linearGradient id="paint35_linear" x1="57.049" y1="68.612" x2="59.563" y2="68.563" gradientUnits="userSpaceOnUse"><stop stop-color="#46A29F"/><stop offset="1" stop-color="#4660A2"/></linearGradient><linearGradient id="paint36_linear" x1="20.624" y1="68.609" x2="23.189" y2="68.557" gradientUnits="userSpaceOnUse"><stop stop-color="#46A29F"/><stop offset="1" stop-color="#4660A2"/></linearGradient></defs></svg>