<svg width="80" height="80" fill="none" xmlns="http://www.w3.org/2000/svg"><path d="M16.875 38.125H3.125l-2.5 2.5h16.25v-2.5z" fill="#DEEEEE"/><path d="M3.125 38.125l-2.5 2.5h1.25l2.5-2.5h-1.25zm25-17.5h-10l-2.5 2.5h12.5v-2.5zm23.75 0h10l2.5 2.5h-12.5v-2.5zm-22.5-10h21.25l2.5 2.5h-26.25l2.5-2.5zm33.75 27.5h13.75l2.5 2.5h-16.25v-2.5zm-11.25-24.999h-23.75v53.75h23.75v-53.75z" fill="#DEEEEE"/><path d="M63.125 23.126h-11.25v43.75h11.25v-43.75zm-35 0h-11.25v43.75h11.25v-43.75z" fill="#F0F4F4"/><path d="M16.876 40.625h-15v26.25h15v-26.25zm61.25 0h-15v26.25h15v-26.25z" fill="#DEEEEE"/><path d="M45.625 23.125h-3.75v-3.75h-3.75v3.75h-3.75v3.75h3.75v3.75h3.75v-3.75h3.75v-3.75z" fill="#F0F4F4"/><path d="M24.375 28.125h-3.75v3.75h3.75v-3.75zm0 8.75h-3.75v3.75h3.75v-3.75zm0 8.749h-3.75v3.75h3.75v-3.75zm0 8.752h-3.75v3.75h3.75v-3.75zm35.001-26.251h-3.75v3.75h3.75v-3.75zm11.25 17.499h-3.75v3.75h3.75v-3.75z" fill="#DEEEEE"/><path d="M74.374 45.624h-3.75v3.75h3.75v-3.75zm-3.748 8.752h-3.75v3.75h3.75v-3.75z" fill="#DEEEEE"/><path d="M74.374 54.376h-3.75v3.75h3.75v-3.75zm-64.999 0h-3.75v3.75h3.75v-3.75zm3.75 0h-3.75v3.75h3.75v-3.75zM40 45.624h-4.376v3.75H40v-3.75zm4.375 0H40v3.75h4.375v-3.75zM40 36.875h-4.376v3.75H40v-3.75zm4.375 0H40v3.75h4.375v-3.75zm-35 8.749h-3.75v3.75h3.75v-3.75zm3.75 0h-3.75v3.75h3.75v-3.75zm46.251-8.749h-3.75v3.75h3.75v-3.75zm0 8.749h-3.75v3.75h3.75v-3.75zm0 8.752h-3.75v3.75h3.75v-3.75zM48.125 69.375h-16.25l2.5-2.5h11.25l2.5 2.5z" fill="#DEEEEE"/><path d="M44.374 55.626h-8.75v11.25h8.75v-11.25zM3.126 40.625h-1.25v26.25h1.25v-26.25z" fill="#F0F4F4"/><path d="M18.125 23.126h-1.25v43.75h1.25v-43.75z" fill="#fff"/><path d="M29.375 13.126h-1.25v53.75h1.25v-53.75z" fill="#F0F4F4"/><path d="M35.624 23.126h-1.25v3.75h1.25v-3.75zm3.751-3.751h-1.25v4.375h1.25v-4.375zm0 6.875h-1.25v4.375h1.25V26.25z" fill="#fff"/><path d="M18.125 20.625l-2.5 2.5h1.25l2.5-2.5h-1.25zm11.25-10l-2.5 2.5h1.25l2.5-2.5h-1.25z" fill="#DEEEEE"/><path d="M61.875 20.625l2.5 2.5h-1.25l-2.5-2.5h1.25z" fill="#2287FF"/><path d="M36.874 55.626h-1.25v11.25h1.25v-11.25z" fill="#fff"/><path d="M64.375 38.125h-1.25v2.5h1.25v-2.5z" fill="#2287FF"/><path d="M63.125 66.25a.625.625 0 01-.625-.625v-42.5a.625.625 0 111.25 0v42.5c0 .345-.28.625-.625.625z" fill="url(#paint0_linear)"/><path d="M16.875 66.25a.625.625 0 01-.625-.625v-42.5a.625.625 0 111.25 0v42.5c0 .345-.28.625-.625.625z" fill="url(#paint1_linear)"/><path d="M28.125 66.25a.625.625 0 01-.625-.625v-52.5a.625.625 0 111.25 0v52.5c0 .346-.28.625-.625.625z" fill="url(#paint2_linear)"/><path d="M53.125 13.75h-26.25a.625.625 0 110-1.25h26.25a.625.625 0 110 1.25z" fill="url(#paint3_linear)"/><path d="M51.875 66.25a.625.625 0 01-.625-.625v-52.5a.625.625 0 111.25 0v52.5c0 .346-.28.625-.625.625z" fill="url(#paint4_linear)"/><path d="M26.875 23.75h-11.25a.625.625 0 110-1.25h11.25a.625.625 0 110 1.25z" fill="url(#paint5_linear)"/><path d="M38.125 23.75a.625.625 0 01-.625-.625v-3.75a.625.625 0 111.25 0v3.75c0 .346-.28.625-.625.625z" fill="url(#paint6_linear)"/><path d="M41.875 20h-3.75a.625.625 0 110-1.25h3.75a.625.625 0 110 1.25z" fill="url(#paint7_linear)"/><path d="M41.875 23.75a.625.625 0 01-.625-.625v-3.75a.625.625 0 111.25 0v3.75c0 .346-.28.625-.625.625z" fill="url(#paint8_linear)"/><path d="M41.875 31.25a.625.625 0 01-.625-.625v-3.75a.625.625 0 111.25 0v3.75c0 .346-.28.625-.625.625z" fill="url(#paint9_linear)"/><path d="M41.875 31.25h-3.75a.624.624 0 110-1.25h3.75a.625.625 0 110 1.25z" fill="url(#paint10_linear)"/><path d="M38.125 31.25a.625.625 0 01-.625-.625v-3.75a.625.625 0 111.25 0v3.75c0 .346-.28.625-.625.625z" fill="url(#paint11_linear)"/><path d="M45.625 23.75h-3.75a.625.625 0 110-1.25h3.75a.625.625 0 110 1.25z" fill="url(#paint12_linear)"/><path d="M45.625 27.5a.625.625 0 01-.625-.625v-3.75a.625.625 0 111.25 0v3.75c0 .346-.28.625-.625.625z" fill="url(#paint13_linear)"/><path d="M45.625 27.5h-3.75a.625.625 0 110-1.25h3.75a.625.625 0 110 1.25z" fill="url(#paint14_linear)"/><path d="M38.125 27.5h-3.75a.625.625 0 110-1.25h3.75a.625.625 0 110 1.25z" fill="url(#paint15_linear)"/><path d="M34.375 27.5a.625.625 0 01-.625-.625v-3.75a.625.625 0 111.25 0v3.75c0 .346-.28.625-.625.625z" fill="url(#paint16_linear)"/><path d="M38.125 23.75h-3.75a.625.625 0 110-1.25h3.75a.625.625 0 110 1.25z" fill="url(#paint17_linear)"/><path d="M44.375 66.25a.625.625 0 01-.625-.625V56.25h-7.5v9.375a.625.625 0 11-1.25 0v-10c0-.346.28-.625.625-.625h8.75c.345 0 .625.28.625.625v10c0 .345-.28.625-.625.625z" fill="url(#paint18_linear)"/><path d="M24.375 32.5h-3.75a.625.625 0 01-.625-.625v-3.75c0-.345.28-.625.625-.625h3.75c.345 0 .625.28.625.625v3.75c0 .345-.28.625-.625.625zm-3.125-1.25h2.5v-2.5h-2.5v2.5z" fill="url(#paint19_linear)"/><path d="M9.375 50h-3.75A.625.625 0 015 49.375v-3.75c0-.345.28-.625.625-.625h3.75c.345 0 .625.28.625.625v3.75c0 .346-.28.625-.625.625zM6.25 48.75h2.5v-2.5h-2.5v2.5z" fill="url(#paint20_linear)"/><path d="M13.125 50h-3.75a.625.625 0 01-.625-.625v-3.75c0-.345.28-.625.625-.625h3.75c.345 0 .625.28.625.625v3.75c0 .346-.28.625-.625.625zM10 48.75h2.5v-2.5H10v2.5z" fill="url(#paint21_linear)"/><path d="M9.375 58.75h-3.75A.625.625 0 015 58.125v-3.75c0-.346.28-.625.625-.625h3.75c.345 0 .625.28.625.625v3.75c0 .345-.28.625-.625.625zM6.25 57.5h2.5V55h-2.5v2.5z" fill="url(#paint22_linear)"/><path d="M13.125 58.75h-3.75a.625.625 0 01-.625-.625v-3.75c0-.346.28-.625.625-.625h3.75c.345 0 .625.28.625.625v3.75c0 .345-.28.625-.625.625zM10 57.5h2.5V55H10v2.5z" fill="url(#paint23_linear)"/><path d="M24.375 41.25h-3.75a.625.625 0 01-.625-.625v-3.75c0-.345.28-.625.625-.625h3.75c.345 0 .625.28.625.625v3.75c0 .346-.28.625-.625.625zM21.25 40h2.5v-2.5h-2.5V40z" fill="url(#paint24_linear)"/><path d="M24.375 50h-3.75a.625.625 0 01-.625-.625v-3.75c0-.345.28-.625.625-.625h3.75c.345 0 .625.28.625.625v3.75c0 .346-.28.625-.625.625zm-3.125-1.25h2.5v-2.5h-2.5v2.5z" fill="url(#paint25_linear)"/><path d="M24.375 58.75h-3.75a.625.625 0 01-.625-.625v-3.75c0-.346.28-.625.625-.625h3.75c.345 0 .625.28.625.625v3.75c0 .345-.28.625-.625.625zM21.25 57.5h2.5V55h-2.5v2.5z" fill="url(#paint26_linear)"/><path d="M59.375 32.5h-3.75a.625.625 0 01-.625-.625v-3.75c0-.345.28-.625.625-.625h3.75c.345 0 .625.28.625.625v3.75c0 .345-.28.625-.625.625zm-3.125-1.25h2.5v-2.5h-2.5v2.5z" fill="url(#paint27_linear)"/><path d="M59.375 41.25h-3.75a.625.625 0 01-.625-.625v-3.75c0-.345.28-.625.625-.625h3.75c.345 0 .625.28.625.625v3.75c0 .346-.28.625-.625.625zM56.25 40h2.5v-2.5h-2.5V40z" fill="url(#paint28_linear)"/><path d="M59.375 50h-3.75a.625.625 0 01-.625-.625v-3.75c0-.345.28-.625.625-.625h3.75c.345 0 .625.28.625.625v3.75c0 .346-.28.625-.625.625zm-3.125-1.25h2.5v-2.5h-2.5v2.5z" fill="url(#paint29_linear)"/><path d="M59.375 58.75h-3.75a.625.625 0 01-.625-.625v-3.75c0-.346.28-.625.625-.625h3.75c.345 0 .625.28.625.625v3.75c0 .345-.28.625-.625.625zM56.25 57.5h2.5V55h-2.5v2.5z" fill="url(#paint30_linear)"/><path d="M40 66.25a.625.625 0 01-.625-.625v-10a.625.625 0 111.25 0v10c0 .345-.28.625-.625.625z" fill="url(#paint31_linear)"/><path d="M45.625 67.5h-11.25a.625.625 0 110-1.25h11.25a.625.625 0 110 1.25z" fill="url(#paint32_linear)"/><path d="M48.125 70h-16.25a.624.624 0 110-1.25h16.25a.625.625 0 110 1.25z" fill="url(#paint33_linear)"/><path d="M1.875 65a.625.625 0 01-.625-.625v-23.75a.625.625 0 111.25 0v23.75c0 .345-.28.625-.625.625z" fill="url(#paint34_linear)"/><path d="M1.875 67.5a.625.625 0 01-.625-.625v-2.5a.625.625 0 111.25 0v2.5c0 .346-.28.625-.625.625z" fill="url(#paint35_linear)"/><path d="M29.375 67.5H.625a.625.625 0 110-1.25h28.75a.624.624 0 110 1.25z" fill="url(#paint36_linear)"/><path d="M74.375 50h-3.75a.625.625 0 01-.625-.625v-3.75c0-.345.28-.625.625-.625h3.75c.345 0 .625.28.625.625v3.75c0 .346-.28.625-.625.625zm-3.125-1.25h2.5v-2.5h-2.5v2.5z" fill="url(#paint37_linear)"/><path d="M70.625 50h-3.75a.625.625 0 01-.625-.625v-3.75c0-.345.28-.625.625-.625h3.75c.345 0 .625.28.625.625v3.75c0 .346-.28.625-.625.625zM67.5 48.75H70v-2.5h-2.5v2.5z" fill="url(#paint38_linear)"/><path d="M44.375 41.25H40a.625.625 0 01-.625-.625v-3.75c0-.345.28-.625.625-.625h4.375c.345 0 .625.28.625.625v3.75c0 .346-.28.625-.625.625zM40.625 40h3.125v-2.5h-3.125V40z" fill="url(#paint39_linear)"/><path d="M40 41.25h-4.375a.625.625 0 01-.625-.625v-3.75c0-.345.28-.625.625-.625H40c.345 0 .625.28.625.625v3.75c0 .346-.28.625-.625.625zM36.25 40h3.125v-2.5H36.25V40z" fill="url(#paint40_linear)"/><path d="M44.375 50H40a.625.625 0 01-.625-.625v-3.75c0-.345.28-.625.625-.625h4.375c.345 0 .625.28.625.625v3.75c0 .346-.28.625-.625.625zm-3.75-1.25h3.125v-2.5h-3.125v2.5z" fill="url(#paint41_linear)"/><path d="M40 50h-4.375a.625.625 0 01-.625-.625v-3.75c0-.345.28-.625.625-.625H40c.345 0 .625.28.625.625v3.75c0 .346-.28.625-.625.625zm-3.75-1.25h3.125v-2.5H36.25v2.5z" fill="url(#paint42_linear)"/><path d="M74.375 58.75h-3.75a.625.625 0 01-.625-.625v-3.75c0-.346.28-.625.625-.625h3.75c.345 0 .625.28.625.625v3.75c0 .345-.28.625-.625.625zM71.25 57.5h2.5V55h-2.5v2.5z" fill="url(#paint43_linear)"/><path d="M70.625 58.75h-3.75a.625.625 0 01-.625-.625v-3.75c0-.346.28-.625.625-.625h3.75c.345 0 .625.28.625.625v3.75c0 .345-.28.625-.625.625zM67.5 57.5H70V55h-2.5v2.5z" fill="url(#paint44_linear)"/><path d="M78.125 65a.625.625 0 01-.625-.625v-23.75a.625.625 0 111.25 0v23.75c0 .345-.28.625-.625.625z" fill="url(#paint45_linear)"/><path d="M78.125 67.5a.625.625 0 01-.625-.625v-2.5a.625.625 0 111.25 0v2.5c0 .346-.28.625-.625.625z" fill="url(#paint46_linear)"/><path d="M79.375 67.5h-30a.625.625 0 110-1.25h30a.624.624 0 110 1.25z" fill="url(#paint47_linear)"/><path d="M26.875 13.75a.623.623 0 01-.442-1.067l2.5-2.5a.625.625 0 11.884.884l-2.5 2.5a.623.623 0 01-.442.183z" fill="url(#paint48_linear)"/><path d="M15.625 23.75a.624.624 0 01-.442-1.067l2.5-2.5a.625.625 0 11.884.884l-2.5 2.5a.622.622 0 01-.442.183z" fill="url(#paint49_linear)"/><path d="M50.625 11.25h-21.25a.625.625 0 110-1.25h21.25a.625.625 0 110 1.25z" fill="url(#paint50_linear)"/><path d="M53.125 13.75a.623.623 0 01-.442-.183l-2.5-2.5a.625.625 0 01.884-.884l2.5 2.5a.625.625 0 01-.442 1.067z" fill="url(#paint51_linear)"/><path d="M26.875 21.25h-8.75a.625.625 0 110-1.25h8.75a.625.625 0 110 1.25z" fill="url(#paint52_linear)"/><path d="M64.375 23.75h-11.25a.625.625 0 110-1.25h11.25a.625.625 0 110 1.25z" fill="url(#paint53_linear)"/><path d="M64.375 23.75a.623.623 0 01-.442-.183l-2.5-2.5a.625.625 0 11.884-.884l2.5 2.5a.625.625 0 01-.442 1.067z" fill="url(#paint54_linear)"/><path d="M61.875 21.25h-8.75a.625.625 0 110-1.25h8.75a.625.625 0 110 1.25z" fill="url(#paint55_linear)"/><path d="M79.375 41.25h-15a.625.625 0 110-1.25h15a.625.625 0 110 1.25z" fill="url(#paint56_linear)"/><path d="M79.375 41.25a.623.623 0 01-.442-.183l-2.5-2.5a.625.625 0 11.884-.884l2.5 2.5a.625.625 0 01-.442 1.067z" fill="url(#paint57_linear)"/><path d="M76.875 38.75h-12.5a.624.624 0 110-1.25h12.5a.625.625 0 110 1.25z" fill="url(#paint58_linear)"/><path d="M15.625 41.25h-15a.625.625 0 110-1.25h15a.625.625 0 110 1.25z" fill="url(#paint59_linear)"/><path d="M.625 41.25a.623.623 0 01-.442-1.067l2.5-2.5a.625.625 0 11.884.884l-2.5 2.5a.623.623 0 01-.442.183z" fill="url(#paint60_linear)"/><path d="M15.625 38.75h-12.5a.625.625 0 110-1.25h12.5a.625.625 0 110 1.25z" fill="url(#paint61_linear)"/><defs><linearGradient id="paint0_linear" x1="62.285" y1="32.487" x2="65.479" y2="32.46" gradientUnits="userSpaceOnUse"><stop stop-color="#46A29F"/><stop offset="1" stop-color="#4660A2"/></linearGradient><linearGradient id="paint1_linear" x1="16.035" y1="32.487" x2="19.229" y2="32.46" gradientUnits="userSpaceOnUse"><stop stop-color="#46A29F"/><stop offset="1" stop-color="#4660A2"/></linearGradient><linearGradient id="paint2_linear" x1="27.285" y1="24.77" x2="30.479" y2="24.748" gradientUnits="userSpaceOnUse"><stop stop-color="#46A29F"/><stop offset="1" stop-color="#4660A2"/></linearGradient><linearGradient id="paint3_linear" x1="21.524" y1="12.785" x2="23.133" y2="2.275" gradientUnits="userSpaceOnUse"><stop stop-color="#46A29F"/><stop offset="1" stop-color="#4660A2"/></linearGradient><linearGradient id="paint4_linear" x1="51.035" y1="24.77" x2="54.229" y2="24.748" gradientUnits="userSpaceOnUse"><stop stop-color="#46A29F"/><stop offset="1" stop-color="#4660A2"/></linearGradient><linearGradient id="paint5_linear" x1="12.852" y1="22.785" x2="16.106" y2="13.124" gradientUnits="userSpaceOnUse"><stop stop-color="#46A29F"/><stop offset="1" stop-color="#4660A2"/></linearGradient><linearGradient id="paint6_linear" x1="37.285" y1="19.891" x2="40.462" y2="19.656" gradientUnits="userSpaceOnUse"><stop stop-color="#46A29F"/><stop offset="1" stop-color="#4660A2"/></linearGradient><linearGradient id="paint7_linear" x1="36.641" y1="19.035" x2="41.941" y2="12.741" gradientUnits="userSpaceOnUse"><stop stop-color="#46A29F"/><stop offset="1" stop-color="#4660A2"/></linearGradient><linearGradient id="paint8_linear" x1="41.035" y1="19.891" x2="44.212" y2="19.656" gradientUnits="userSpaceOnUse"><stop stop-color="#46A29F"/><stop offset="1" stop-color="#4660A2"/></linearGradient><linearGradient id="paint9_linear" x1="41.035" y1="27.391" x2="44.212" y2="27.156" gradientUnits="userSpaceOnUse"><stop stop-color="#46A29F"/><stop offset="1" stop-color="#4660A2"/></linearGradient><linearGradient id="paint10_linear" x1="36.641" y1="30.285" x2="41.941" y2="23.991" gradientUnits="userSpaceOnUse"><stop stop-color="#46A29F"/><stop offset="1" stop-color="#4660A2"/></linearGradient><linearGradient id="paint11_linear" x1="37.285" y1="27.391" x2="40.462" y2="27.156" gradientUnits="userSpaceOnUse"><stop stop-color="#46A29F"/><stop offset="1" stop-color="#4660A2"/></linearGradient><linearGradient id="paint12_linear" x1="40.391" y1="22.785" x2="45.691" y2="16.491" gradientUnits="userSpaceOnUse"><stop stop-color="#46A29F"/><stop offset="1" stop-color="#4660A2"/></linearGradient><linearGradient id="paint13_linear" x1="44.785" y1="23.641" x2="47.962" y2="23.406" gradientUnits="userSpaceOnUse"><stop stop-color="#46A29F"/><stop offset="1" stop-color="#4660A2"/></linearGradient><linearGradient id="paint14_linear" x1="40.391" y1="26.535" x2="45.691" y2="20.241" gradientUnits="userSpaceOnUse"><stop stop-color="#46A29F"/><stop offset="1" stop-color="#4660A2"/></linearGradient><linearGradient id="paint15_linear" x1="32.891" y1="26.535" x2="38.191" y2="20.241" gradientUnits="userSpaceOnUse"><stop stop-color="#46A29F"/><stop offset="1" stop-color="#4660A2"/></linearGradient><linearGradient id="paint16_linear" x1="33.535" y1="23.641" x2="36.711" y2="23.406" gradientUnits="userSpaceOnUse"><stop stop-color="#46A29F"/><stop offset="1" stop-color="#4660A2"/></linearGradient><linearGradient id="paint17_linear" x1="32.891" y1="22.785" x2="38.191" y2="16.491" gradientUnits="userSpaceOnUse"><stop stop-color="#46A29F"/><stop offset="1" stop-color="#4660A2"/></linearGradient><linearGradient id="paint18_linear" x1="33.281" y1="57.568" x2="57.169" y2="51.264" gradientUnits="userSpaceOnUse"><stop stop-color="#46A29F"/><stop offset="1" stop-color="#4660A2"/></linearGradient><linearGradient id="paint19_linear" x1="19.14" y1="28.641" x2="30.881" y2="25.155" gradientUnits="userSpaceOnUse"><stop stop-color="#46A29F"/><stop offset="1" stop-color="#4660A2"/></linearGradient><linearGradient id="paint20_linear" x1="4.141" y1="46.141" x2="15.881" y2="42.655" gradientUnits="userSpaceOnUse"><stop stop-color="#46A29F"/><stop offset="1" stop-color="#4660A2"/></linearGradient><linearGradient id="paint21_linear" x1="7.891" y1="46.141" x2="19.631" y2="42.655" gradientUnits="userSpaceOnUse"><stop stop-color="#46A29F"/><stop offset="1" stop-color="#4660A2"/></linearGradient><linearGradient id="paint22_linear" x1="4.141" y1="54.891" x2="15.881" y2="51.405" gradientUnits="userSpaceOnUse"><stop stop-color="#46A29F"/><stop offset="1" stop-color="#4660A2"/></linearGradient><linearGradient id="paint23_linear" x1="7.891" y1="54.891" x2="19.631" y2="51.405" gradientUnits="userSpaceOnUse"><stop stop-color="#46A29F"/><stop offset="1" stop-color="#4660A2"/></linearGradient><linearGradient id="paint24_linear" x1="19.14" y1="37.391" x2="30.881" y2="33.905" gradientUnits="userSpaceOnUse"><stop stop-color="#46A29F"/><stop offset="1" stop-color="#4660A2"/></linearGradient><linearGradient id="paint25_linear" x1="19.14" y1="46.141" x2="30.881" y2="42.655" gradientUnits="userSpaceOnUse"><stop stop-color="#46A29F"/><stop offset="1" stop-color="#4660A2"/></linearGradient><linearGradient id="paint26_linear" x1="19.14" y1="54.891" x2="30.881" y2="51.405" gradientUnits="userSpaceOnUse"><stop stop-color="#46A29F"/><stop offset="1" stop-color="#4660A2"/></linearGradient><linearGradient id="paint27_linear" x1="54.141" y1="28.641" x2="65.881" y2="25.155" gradientUnits="userSpaceOnUse"><stop stop-color="#46A29F"/><stop offset="1" stop-color="#4660A2"/></linearGradient><linearGradient id="paint28_linear" x1="54.141" y1="37.391" x2="65.881" y2="33.906" gradientUnits="userSpaceOnUse"><stop stop-color="#46A29F"/><stop offset="1" stop-color="#4660A2"/></linearGradient><linearGradient id="paint29_linear" x1="54.141" y1="46.141" x2="65.881" y2="42.656" gradientUnits="userSpaceOnUse"><stop stop-color="#46A29F"/><stop offset="1" stop-color="#4660A2"/></linearGradient><linearGradient id="paint30_linear" x1="54.141" y1="54.891" x2="65.881" y2="51.406" gradientUnits="userSpaceOnUse"><stop stop-color="#46A29F"/><stop offset="1" stop-color="#4660A2"/></linearGradient><linearGradient id="paint31_linear" x1="39.16" y1="57.568" x2="42.351" y2="57.463" gradientUnits="userSpaceOnUse"><stop stop-color="#46A29F"/><stop offset="1" stop-color="#4660A2"/></linearGradient><linearGradient id="paint32_linear" x1="31.602" y1="66.535" x2="34.855" y2="56.874" gradientUnits="userSpaceOnUse"><stop stop-color="#46A29F"/><stop offset="1" stop-color="#4660A2"/></linearGradient><linearGradient id="paint33_linear" x1="28.242" y1="69.035" x2="30.689" y2="58.867" gradientUnits="userSpaceOnUse"><stop stop-color="#46A29F"/><stop offset="1" stop-color="#4660A2"/></linearGradient><linearGradient id="paint34_linear" x1="1.035" y1="45.707" x2="4.228" y2="45.66" gradientUnits="userSpaceOnUse"><stop stop-color="#46A29F"/><stop offset="1" stop-color="#4660A2"/></linearGradient><linearGradient id="paint35_linear" x1="1.035" y1="64.606" x2="4.198" y2="64.293" gradientUnits="userSpaceOnUse"><stop stop-color="#46A29F"/><stop offset="1" stop-color="#4660A2"/></linearGradient><linearGradient id="paint36_linear" x1="-5.155" y1="66.535" x2="-3.675" y2="55.986" gradientUnits="userSpaceOnUse"><stop stop-color="#46A29F"/><stop offset="1" stop-color="#4660A2"/></linearGradient><linearGradient id="paint37_linear" x1="69.141" y1="46.141" x2="80.881" y2="42.656" gradientUnits="userSpaceOnUse"><stop stop-color="#46A29F"/><stop offset="1" stop-color="#4660A2"/></linearGradient><linearGradient id="paint38_linear" x1="65.391" y1="46.141" x2="77.131" y2="42.655" gradientUnits="userSpaceOnUse"><stop stop-color="#46A29F"/><stop offset="1" stop-color="#4660A2"/></linearGradient><linearGradient id="paint39_linear" x1="38.408" y1="37.391" x2="51.338" y2="33.072" gradientUnits="userSpaceOnUse"><stop stop-color="#46A29F"/><stop offset="1" stop-color="#4660A2"/></linearGradient><linearGradient id="paint40_linear" x1="34.033" y1="37.391" x2="46.963" y2="33.072" gradientUnits="userSpaceOnUse"><stop stop-color="#46A29F"/><stop offset="1" stop-color="#4660A2"/></linearGradient><linearGradient id="paint41_linear" x1="38.408" y1="46.141" x2="51.338" y2="41.822" gradientUnits="userSpaceOnUse"><stop stop-color="#46A29F"/><stop offset="1" stop-color="#4660A2"/></linearGradient><linearGradient id="paint42_linear" x1="34.033" y1="46.141" x2="46.963" y2="41.822" gradientUnits="userSpaceOnUse"><stop stop-color="#46A29F"/><stop offset="1" stop-color="#4660A2"/></linearGradient><linearGradient id="paint43_linear" x1="69.141" y1="54.891" x2="80.881" y2="51.406" gradientUnits="userSpaceOnUse"><stop stop-color="#46A29F"/><stop offset="1" stop-color="#4660A2"/></linearGradient><linearGradient id="paint44_linear" x1="65.391" y1="54.891" x2="77.131" y2="51.405" gradientUnits="userSpaceOnUse"><stop stop-color="#46A29F"/><stop offset="1" stop-color="#4660A2"/></linearGradient><linearGradient id="paint45_linear" x1="77.285" y1="45.707" x2="80.478" y2="45.66" gradientUnits="userSpaceOnUse"><stop stop-color="#46A29F"/><stop offset="1" stop-color="#4660A2"/></linearGradient><linearGradient id="paint46_linear" x1="77.285" y1="64.606" x2="80.448" y2="64.293" gradientUnits="userSpaceOnUse"><stop stop-color="#46A29F"/><stop offset="1" stop-color="#4660A2"/></linearGradient><linearGradient id="paint47_linear" x1="43.38" y1="66.535" x2="44.803" y2="55.97" gradientUnits="userSpaceOnUse"><stop stop-color="#46A29F"/><stop offset="1" stop-color="#4660A2"/></linearGradient><linearGradient id="paint48_linear" x1="25.605" y1="10.856" x2="34.41" y2="8.242" gradientUnits="userSpaceOnUse"><stop stop-color="#46A29F"/><stop offset="1" stop-color="#4660A2"/></linearGradient><linearGradient id="paint49_linear" x1="14.356" y1="20.856" x2="23.161" y2="18.242" gradientUnits="userSpaceOnUse"><stop stop-color="#46A29F"/><stop offset="1" stop-color="#4660A2"/></linearGradient><linearGradient id="paint50_linear" x1="24.883" y1="10.285" x2="26.828" y2="-.108" gradientUnits="userSpaceOnUse"><stop stop-color="#46A29F"/><stop offset="1" stop-color="#4660A2"/></linearGradient><linearGradient id="paint51_linear" x1="49.356" y1="10.856" x2="58.16" y2="8.242" gradientUnits="userSpaceOnUse"><stop stop-color="#46A29F"/><stop offset="1" stop-color="#4660A2"/></linearGradient><linearGradient id="paint52_linear" x1="15.781" y1="20.285" x2="19.629" y2="11.147" gradientUnits="userSpaceOnUse"><stop stop-color="#46A29F"/><stop offset="1" stop-color="#4660A2"/></linearGradient><linearGradient id="paint53_linear" x1="50.352" y1="22.785" x2="53.606" y2="13.124" gradientUnits="userSpaceOnUse"><stop stop-color="#46A29F"/><stop offset="1" stop-color="#4660A2"/></linearGradient><linearGradient id="paint54_linear" x1="60.606" y1="20.856" x2="69.411" y2="18.242" gradientUnits="userSpaceOnUse"><stop stop-color="#46A29F"/><stop offset="1" stop-color="#4660A2"/></linearGradient><linearGradient id="paint55_linear" x1="50.782" y1="20.285" x2="54.629" y2="11.147" gradientUnits="userSpaceOnUse"><stop stop-color="#46A29F"/><stop offset="1" stop-color="#4660A2"/></linearGradient><linearGradient id="paint56_linear" x1="60.958" y1="40.285" x2="63.569" y2="30.205" gradientUnits="userSpaceOnUse"><stop stop-color="#46A29F"/><stop offset="1" stop-color="#4660A2"/></linearGradient><linearGradient id="paint57_linear" x1="75.605" y1="38.356" x2="84.411" y2="35.742" gradientUnits="userSpaceOnUse"><stop stop-color="#46A29F"/><stop offset="1" stop-color="#4660A2"/></linearGradient><linearGradient id="paint58_linear" x1="61.387" y1="37.785" x2="64.398" y2="27.95" gradientUnits="userSpaceOnUse"><stop stop-color="#46A29F"/><stop offset="1" stop-color="#4660A2"/></linearGradient><linearGradient id="paint59_linear" x1="-2.792" y1="40.285" x2="-.181" y2="30.205" gradientUnits="userSpaceOnUse"><stop stop-color="#46A29F"/><stop offset="1" stop-color="#4660A2"/></linearGradient><linearGradient id="paint60_linear" x1="-.644" y1="38.356" x2="8.161" y2="35.742" gradientUnits="userSpaceOnUse"><stop stop-color="#46A29F"/><stop offset="1" stop-color="#4660A2"/></linearGradient><linearGradient id="paint61_linear" x1=".137" y1="37.785" x2="3.148" y2="27.95" gradientUnits="userSpaceOnUse"><stop stop-color="#46A29F"/><stop offset="1" stop-color="#4660A2"/></linearGradient></defs></svg>