<svg width="80" height="80" fill="none" xmlns="http://www.w3.org/2000/svg"><g clip-path="url(#clip0)"><path d="M43.625 7.125c.999 1 .999 2.626 0 3.625L40 14.375l-3.625-3.625A2.564 2.564 0 0140 7.125c1-1 2.624-1 3.625 0z" fill="#DEEEEE"/><path d="M64.375 8.125v12.5h-48.75v-12.5c0-4.15 3.363-7.5 7.5-7.5h33.75c4.15 0 7.5 3.35 7.5 7.5zm-20.75 2.625c1-1 1-2.625 0-3.625s-2.625-1-3.625 0a2.564 2.564 0 00-3.625 3.625L40 14.375l3.626-3.625z" fill="#fff"/><path d="M61.738 28.138c-4.726-1.213-9.213-2.988-13.338-5.013l-5.138-2.5h21.113v8.125a62.004 62.004 0 01-2.637-.612zm-43.476 0c-.874.225-1.75.425-2.637.612v-8.125H36.75l-5.137 2.5c-4.138 2.025-8.625 3.8-13.35 5.013z" fill="#DEEEEE"/><path d="M18.125 21.875h-2.5v6.875a63.31 63.31 0 002.5-.58v-6.295z" fill="#F0F4F4"/><path d="M61.887 21.875h2.5v6.875c-.84-.178-1.67-.37-2.5-.58v-6.295zM29.375 50.663v6.625l-1.25-4.163-5 5 .6.962-.025.026-1.825.925c-2.062.924-4.313 1.625-6.25 2.237V28.75a62.293 62.293 0 002.637-.612v2.487c.863 7.988 5.7 15.4 11.113 20.038z" fill="#DEEEEE"/><path d="M64.375 62.276c.925.3 1.787.574 2.5.85 5 1.862 7.5 3.75 7.5 8.75v7.5H47.4l.637-1.25 3.838-7.5-1.25-2.5 5.625-9.013 1.875.925c2.063.924 4.311 1.625 6.25 2.238z" fill="#fff"/><path d="M64.375 28.75v33.525c-1.938-.612-4.187-1.313-6.25-2.237l-1.875-.925.625-.988-5-5-1.25 4.163v-6.625c5.425-4.638 10.263-12.05 11.113-20.038v-2.487c.874.224 1.75.425 2.637.612z" fill="#DEEEEE"/><path d="M36.875 30.663v-1.288c0-.687-.563-1.25-1.25-1.25h-8.75c-.688 0-1.25.563-1.25 1.25v2.5c0 .688.562 1.25 1.25 1.25h8.75c.687 0 1.25-.562 1.25-1.25v-1.212zm6.25 0v1.212c0 .688.561 1.25 1.25 1.25h8.75c.687 0 1.25-.562 1.25-1.25v-2.5c0-.687-.563-1.25-1.25-1.25h-8.75c-.689 0-1.25.563-1.25 1.25v1.288zm18.613-2.525v2.487c-.85 7.988-5.689 15.4-11.113 20.038C47.01 53.75 43.137 55.625 40 55.625c-3.138 0-7.013-1.875-10.625-4.962-5.413-4.638-10.25-12.05-11.113-20.038v-2.487c4.725-1.213 9.213-2.988 13.35-5.013l5.137-2.5h6.512l5.138 2.5c4.125 2.025 8.612 3.8 13.339 5.013z" fill="#F0F4F4"/><path d="M20.762 30.625v-3.209c-.828.25-1.656.505-2.5.722v2.487c.862 7.988 5.7 15.4 11.113 20.038 3.612 3.087 7.487 4.962 10.625 4.962.404 0 .822-.034 1.25-.095-2.884-.411-6.229-2.178-9.375-4.867-5.413-4.637-10.25-12.05-11.113-20.038z" fill="#fff"/><path d="M59.238 30.625v-3.209c.828.25 1.655.505 2.5.722v2.487c-.863 7.988-5.7 15.4-11.113 20.038-3.613 3.087-7.488 4.962-10.625 4.962-.405 0-.823-.034-1.25-.095 2.883-.412 6.228-2.178 9.375-4.867 5.412-4.637 10.25-12.05 11.113-20.038z" fill="#DEEEEE"/><path d="M56.875 58.125l-.625.988-5.625 9.012 1.25 2.5-3.838 7.5-.637 1.25h-3.387l4.913-16.412L50 59.375l.625-2.087 1.25-4.163 5 5z" fill="#fff"/><path d="M50.625 57.288L50 59.375s-3.125 2.5-10 2.5-9.975-2.5-9.975-2.5l-.025.012-.625-2.1v-6.624c3.613 3.087 7.487 4.962 10.625 4.962 3.137 0 7.012-1.875 10.625-4.962v6.625z" fill="#F0F4F4"/><path d="M50 59.375l-1.074 3.588C47.138 63.7 43.7 64.375 40 64.375s-7.138-.675-8.912-1.412h-.013L30 59.387l.025-.012s3.1 2.5 9.975 2.5 10-2.5 10-2.5z" fill="#DEEEEE"/><path d="M48.926 62.963l-4.913 16.412H36l-4.925-16.412h.013c1.775.737 5.212 1.412 8.912 1.412 3.7 0 7.138-.675 8.926-1.412z" fill="#DEEEEE"/><path d="M31.075 62.963L36 79.375h-3.388l-.637-1.25-3.85-7.5 1.25-2.5-5.65-9.038-.6-.962 5-5 1.25 4.163.625 2.1 1.075 3.575z" fill="#fff"/><path d="M31.975 78.125l.637 1.25H5.625v-7.5c0-5 2.5-6.887 7.5-8.75a44.33 44.33 0 012.5-.837v-.012c1.937-.613 4.188-1.314 6.25-2.238l1.825-.925.025-.026 5.65 9.038-1.25 2.5 3.85 7.5z" fill="#fff"/><path d="M36.888 31.875c0 .687-.563 1.25-1.25 1.25h-8.75c-.687 0-1.25-.563-1.25-1.25v-2.5c0-.687.563-1.25 1.25-1.25h8.75c.687 0 1.25.563 1.25 1.25v2.5z" fill="#DEEEEE"/><path d="M28.63 33.125h2.588l1.34-5H29.97l-1.34 5zm3.258 0h.668l1.34-5h-.669l-1.34 5z" fill="#F0F4F4"/><path d="M54.387 31.875c0 .687-.561 1.25-1.25 1.25h-8.75c-.686 0-1.25-.563-1.25-1.25v-2.5c0-.687.564-1.25 1.25-1.25h8.75c.689 0 1.25.563 1.25 1.25v2.5z" fill="#DEEEEE"/><path d="M46.13 33.125h2.588l1.34-5h-2.587l-1.34 5zm3.257 0h.67l1.34-5h-.67l-1.34 5z" fill="#F0F4F4"/><path d="M30.025 59.375s.603.485 1.863 1.028v-7.826a28.684 28.684 0 01-2.513-1.914v6.625l.625 2.1.025-.013z" fill="#fff"/><path d="M48.131 60.4c1.264-.542 1.87-1.025 1.87-1.025l.624-2.087v-6.625a28.612 28.612 0 01-2.494 1.9V60.4zm16.245-39.775h-48.75v1.25h48.75v-1.25z" fill="#DEEEEE"/><path d="M45.831 21.875l-2.57-1.25H36.75l-2.569 1.25h11.65z" fill="#DEEEEE"/><path d="M35.625 33.75h-8.75A1.877 1.877 0 0125 31.875v-2.5c0-1.034.841-1.875 1.875-1.875h8.75c1.034 0 1.875.841 1.875 1.875v2.5a1.877 1.877 0 01-1.875 1.875zm-8.75-5a.625.625 0 00-.625.625v2.5c0 .345.28.625.625.625h8.75c.345 0 .625-.28.625-.625v-2.5a.625.625 0 00-.625-.625h-8.75z" fill="url(#paint0_linear)"/><path d="M53.125 33.75h-8.75a1.877 1.877 0 01-1.875-1.875v-2.5c0-1.034.841-1.875 1.875-1.875h8.75c1.034 0 1.875.841 1.875 1.875v2.5a1.877 1.877 0 01-1.875 1.875zm-8.75-5a.626.626 0 00-.625.625v2.5c0 .345.28.625.625.625h8.75c.344 0 .625-.28.625-.625v-2.5a.626.626 0 00-.625-.625h-8.75z" fill="url(#paint1_linear)"/><path d="M43.125 31.288h-6.252a.625.625 0 110-1.25h6.252a.625.625 0 110 1.25z" fill="url(#paint2_linear)"/><path d="M31.968 78.75a.626.626 0 01-.556-.34l-3.843-7.5a.625.625 0 01-.003-.564l1.093-2.187-6.064-9.702a.626.626 0 01.088-.774l5-5a.625.625 0 11.884.884l-4.649 4.648 5.986 9.578a.628.628 0 01.03.612l-1.108 2.216 3.697 7.219a.627.627 0 01-.555.91z" fill="url(#paint3_linear)"/><path d="M35.625 78.75a.625.625 0 01-.599-.445l-7.5-25a.625.625 0 111.198-.36l7.5 25a.625.625 0 01-.599.805z" fill="url(#paint4_linear)"/><path d="M48.032 78.75a.628.628 0 01-.557-.91l3.699-7.219-1.108-2.216a.628.628 0 01.029-.612l5.986-9.578-4.648-4.648a.625.625 0 11.884-.884l5 5a.628.628 0 01.088.774l-6.065 9.702 1.094 2.186a.627.627 0 01-.003.566l-3.843 7.5a.626.626 0 01-.556.34z" fill="url(#paint5_linear)"/><path d="M44.375 78.75a.623.623 0 01-.598-.805l7.5-25a.622.622 0 01.777-.418c.331.099.52.447.42.778l-7.5 25a.625.625 0 01-.6.445z" fill="url(#paint6_linear)"/><path d="M40 62.5c-7.014 0-10.256-2.53-10.39-2.637a.625.625 0 01.779-.977c.03.023 3.078 2.364 9.61 2.364 6.534 0 9.582-2.341 9.613-2.364a.626.626 0 01.778.977c-.134.108-3.376 2.637-10.39 2.637z" fill="url(#paint7_linear)"/><path d="M40 65c-3.88 0-7.392-.73-9.15-1.453a.626.626 0 01.476-1.157c1.644.676 4.965 1.36 8.674 1.36 3.721 0 7.044-.682 8.687-1.358a.625.625 0 11.476 1.155C47.406 64.27 43.892 65 40 65z" fill="url(#paint8_linear)"/><path d="M40 56.251c-8.563 0-20.944-12.394-22.361-25.559a.625.625 0 111.243-.134c.636 5.912 3.662 12.157 8.304 17.135C31.389 52.2 36.299 55 40 55a.625.625 0 110 1.25z" fill="url(#paint9_linear)"/><path d="M74.375 80H5.625A.625.625 0 015 79.375v-7.5c0-5.364 2.779-7.42 7.906-9.336.804-.3 1.772-.608 2.826-.942 1.858-.59 3.965-1.26 5.89-2.122a.625.625 0 11.51 1.14c-1.99.892-4.132 1.573-6.021 2.173-1.032.327-1.98.628-2.768.923-4.806 1.797-7.093 3.477-7.093 8.164v6.875h67.5v-6.875c0-4.687-2.288-6.367-7.095-8.164-.786-.295-1.733-.596-2.765-.923-1.89-.6-4.032-1.281-6.02-2.172a.625.625 0 01-.316-.826c.141-.315.51-.456.826-.315 1.925.862 4.031 1.531 5.89 2.122 1.052.335 2.02.642 2.823.942C72.222 64.456 75 66.511 75 71.875v7.5c0 .346-.28.625-.625.625z" fill="url(#paint10_linear)"/><path d="M15.625 60a.625.625 0 01-.625-.625v-36.25a.625.625 0 111.25 0v36.25c0 .346-.28.625-.625.625z" fill="url(#paint11_linear)"/><path d="M15.624 29.375a.625.625 0 01-.126-1.237c5.125-1.057 10.45-2.933 15.83-5.574a.626.626 0 01.55 1.122c-5.473 2.688-10.9 4.598-16.127 5.677a.664.664 0 01-.127.012z" fill="url(#paint12_linear)"/><path d="M40 56.251a.625.625 0 110-1.25c3.701 0 8.61-2.801 12.815-7.308 4.641-4.978 7.666-11.223 8.303-17.135a.615.615 0 01.688-.554.625.625 0 01.555.688c-1.418 13.166-13.8 25.56-22.361 25.56z" fill="url(#paint13_linear)"/><path d="M64.375 60a.625.625 0 01-.625-.625v-36.25a.625.625 0 111.25 0v36.25c0 .346-.28.625-.625.625z" fill="url(#paint14_linear)"/><path d="M64.375 29.375a.654.654 0 01-.127-.013c-5.228-1.079-10.654-2.988-16.125-5.676a.624.624 0 11.55-1.122c5.378 2.641 10.702 4.517 15.83 5.574.336.07.553.4.485.738a.627.627 0 01-.613.5z" fill="url(#paint15_linear)"/><path d="M15.625 21.25a.625.625 0 01-.625-.625v-12.5a.625.625 0 111.25 0v12.5c0 .346-.28.625-.625.625z" fill="url(#paint16_linear)"/><path d="M56.875 1.25H22.864a.625.625 0 110-1.25h34.011a.625.625 0 110 1.25z" fill="url(#paint17_linear)"/><path d="M64.375 21.25a.625.625 0 01-.625-.625v-12.5a.625.625 0 111.25 0v12.5c0 .346-.28.625-.625.625z" fill="url(#paint18_linear)"/><path d="M64.375 21.25h-48.75a.625.625 0 110-1.25h48.75a.625.625 0 110 1.25z" fill="url(#paint19_linear)"/><path d="M15.625 8.75A.625.625 0 0115 8.125C15 3.645 18.645 0 23.125 0a.625.625 0 110 1.25 6.883 6.883 0 00-6.875 6.875c0 .345-.28.625-.625.625z" fill="url(#paint20_linear)"/><path d="M64.376 8.75a.625.625 0 01-.625-.625 6.883 6.883 0 00-6.875-6.875.625.625 0 110-1.25c4.48 0 8.125 3.645 8.125 8.125 0 .345-.28.625-.625.625z" fill="url(#paint21_linear)"/><path d="M40 15a.626.626 0 01-.442-.183l-3.624-3.624a3.193 3.193 0 010-4.51C37 5.617 38.786 5.47 40 6.313c1.213-.842 3-.697 4.067.37.6.603.933 1.403.933 2.255a3.17 3.17 0 01-.934 2.255l-3.624 3.624A.625.625 0 0140 15zm-1.812-8c-.518 0-1.005.2-1.37.567a1.941 1.941 0 000 2.742L40 13.49l3.182-3.182c.366-.366.568-.853.568-1.371s-.202-1.005-.568-1.37c-.731-.733-2.008-.733-2.74 0a.643.643 0 01-.884 0 1.924 1.924 0 00-1.37-.569z" fill="url(#paint22_linear)"/></g><defs><linearGradient id="paint0_linear" x1="22.852" y1="28.927" x2="46.464" y2="14.905" gradientUnits="userSpaceOnUse"><stop stop-color="#46A29F"/><stop offset="1" stop-color="#4660A2"/></linearGradient><linearGradient id="paint1_linear" x1="40.352" y1="28.927" x2="63.964" y2="14.905" gradientUnits="userSpaceOnUse"><stop stop-color="#46A29F"/><stop offset="1" stop-color="#4660A2"/></linearGradient><linearGradient id="paint2_linear" x1="34.959" y1="30.323" x2="39.55" y2="22.143" gradientUnits="userSpaceOnUse"><stop stop-color="#46A29F"/><stop offset="1" stop-color="#4660A2"/></linearGradient><linearGradient id="paint3_linear" x1="20.765" y1="58.492" x2="46.221" y2="55.587" gradientUnits="userSpaceOnUse"><stop stop-color="#46A29F"/><stop offset="1" stop-color="#4660A2"/></linearGradient><linearGradient id="paint4_linear" x1="25.996" y1="58.492" x2="48.137" y2="56.301" gradientUnits="userSpaceOnUse"><stop stop-color="#46A29F"/><stop offset="1" stop-color="#4660A2"/></linearGradient><linearGradient id="paint5_linear" x1="45.673" y1="58.492" x2="71.127" y2="55.587" gradientUnits="userSpaceOnUse"><stop stop-color="#46A29F"/><stop offset="1" stop-color="#4660A2"/></linearGradient><linearGradient id="paint6_linear" x1="42.246" y1="58.492" x2="64.386" y2="56.301" gradientUnits="userSpaceOnUse"><stop stop-color="#46A29F"/><stop offset="1" stop-color="#4660A2"/></linearGradient><linearGradient id="paint7_linear" x1="25.724" y1="59.607" x2="39.89" y2="35.765" gradientUnits="userSpaceOnUse"><stop stop-color="#46A29F"/><stop offset="1" stop-color="#4660A2"/></linearGradient><linearGradient id="paint8_linear" x1="27.183" y1="62.95" x2="35.966" y2="44.209" gradientUnits="userSpaceOnUse"><stop stop-color="#46A29F"/><stop offset="1" stop-color="#4660A2"/></linearGradient><linearGradient id="paint9_linear" x1="13.685" y1="35.993" x2="68.705" y2="21.686" gradientUnits="userSpaceOnUse"><stop stop-color="#46A29F"/><stop offset="1" stop-color="#4660A2"/></linearGradient><linearGradient id="paint10_linear" x1="-7.029" y1="64.118" x2="81.515" y2="-25.305" gradientUnits="userSpaceOnUse"><stop stop-color="#46A29F"/><stop offset="1" stop-color="#4660A2"/></linearGradient><linearGradient id="paint11_linear" x1="14.785" y1="31.06" x2="17.979" y2="31.029" gradientUnits="userSpaceOnUse"><stop stop-color="#46A29F"/><stop offset="1" stop-color="#4660A2"/></linearGradient><linearGradient id="paint12_linear" x1="12.039" y1="24.07" x2="40.371" y2="2.989" gradientUnits="userSpaceOnUse"><stop stop-color="#46A29F"/><stop offset="1" stop-color="#4660A2"/></linearGradient><linearGradient id="paint13_linear" x1="35.424" y1="35.993" x2="90.444" y2="21.686" gradientUnits="userSpaceOnUse"><stop stop-color="#46A29F"/><stop offset="1" stop-color="#4660A2"/></linearGradient><linearGradient id="paint14_linear" x1="63.535" y1="31.06" x2="66.729" y2="31.029" gradientUnits="userSpaceOnUse"><stop stop-color="#46A29F"/><stop offset="1" stop-color="#4660A2"/></linearGradient><linearGradient id="paint15_linear" x1="44.812" y1="24.069" x2="73.148" y2="2.989" gradientUnits="userSpaceOnUse"><stop stop-color="#46A29F"/><stop offset="1" stop-color="#4660A2"/></linearGradient><linearGradient id="paint16_linear" x1="14.785" y1="10.639" x2="17.977" y2="10.553" gradientUnits="userSpaceOnUse"><stop stop-color="#46A29F"/><stop offset="1" stop-color="#4660A2"/></linearGradient><linearGradient id="paint17_linear" x1="16.179" y1=".285" x2="17.446" y2="-10.32" gradientUnits="userSpaceOnUse"><stop stop-color="#46A29F"/><stop offset="1" stop-color="#4660A2"/></linearGradient><linearGradient id="paint18_linear" x1="63.535" y1="10.639" x2="66.727" y2="10.553" gradientUnits="userSpaceOnUse"><stop stop-color="#46A29F"/><stop offset="1" stop-color="#4660A2"/></linearGradient><linearGradient id="paint19_linear" x1="6.408" y1="20.285" x2="7.307" y2="9.603" gradientUnits="userSpaceOnUse"><stop stop-color="#46A29F"/><stop offset="1" stop-color="#4660A2"/></linearGradient><linearGradient id="paint20_linear" x1="13.496" y1="1.997" x2="34.042" y2="-4.103" gradientUnits="userSpaceOnUse"><stop stop-color="#46A29F"/><stop offset="1" stop-color="#4660A2"/></linearGradient><linearGradient id="paint21_linear" x1="54.747" y1="1.997" x2="75.293" y2="-4.103" gradientUnits="userSpaceOnUse"><stop stop-color="#46A29F"/><stop offset="1" stop-color="#4660A2"/></linearGradient><linearGradient id="paint22_linear" x1="33.284" y1="7.876" x2="56.435" y2=".431" gradientUnits="userSpaceOnUse"><stop stop-color="#46A29F"/><stop offset="1" stop-color="#4660A2"/></linearGradient><clipPath id="clip0"><path fill="#fff" d="M0 0h80v80H0z"/></clipPath></defs></svg>