<svg width="10" height="11" fill="none" xmlns="http://www.w3.org/2000/svg"><path d="M3.663.801l2.335 1.4v.002L8.33 3.602c.332.2.596.471.776.798h.002c.182.328.28.702.28 1.1 0 .397-.098.77-.28 1.098h-.002a2.14 2.14 0 01-.775.797v.002L6.647 8.408l-.08.047-.003.002-.148.09V8.54a2.058 2.058 0 01-.63.198h-.262.023-.031c-.36 0-.72-.1-1.055-.301l-.002-.002-.001-.002-.002-.001-.002-.002-.001-.002-.002-.001-.001-.002h-.002l-.002-.002-.001-.001-.002-.002-.002-.002-.001-.002-.002-.001-.001-.002h-.002l-.002-.002-.001-.001-.002-.002-.007.02-.001-.001-.002-.002-.001-.002h-.002l-.002-.001-.001-.002-.002-.002h-.005l-.001-.002-.002-.001-.002-.002-.001-.002-.002-.001-.002-.002-.001-.002-.007-.003-.001-.002-.007-.003-.001-.002-.002-.002-.003-.001-.002-.002-.002-.002-.001-.001-.002-.002-.002-.002-.001-.001-.002-.002-.001-.002H4.36l-.002-.001-.001-.002-.002-.002-.002-.002-.001-.001-.002-.002-.001-.002-.002-.001-.002-.002a2.124 2.124 0 01-.65-.717 2.249 2.249 0 01-.28-1.1v-3.06l.217.13h.002l.965.58v2.36c0 .182.041.346.118.483.078.14.193.26.345.35a.898.898 0 00.46.132.9.9 0 00.402-.098l1.82-1.093h.002a.928.928 0 00.342-.346v-.002a.983.983 0 00.117-.482.982.982 0 00-.117-.482v-.002a.928.928 0 00-.342-.347l-2.334-1.4H5.41l-.81-.487-.377-.225-1.147-.688v-.002a.895.895 0 00-.463-.132.895.895 0 00-.462.132v.002a.946.946 0 00-.345.35.982.982 0 00-.118.482v5.601c0 .181.041.345.118.482.078.14.193.26.345.35a.898.898 0 00.46.132.905.905 0 00.464-.132l.16-.096a3.423 3.423 0 001.133.737l-.705.423a2.034 2.034 0 01-1.051.301c-.36 0-.72-.1-1.055-.301a2.14 2.14 0 01-.775-.797A2.265 2.265 0 01.5 8.3V2.697c0-.398.098-.771.28-1.1.18-.324.443-.598.775-.796h.002A2.033 2.033 0 012.608.5c.358 0 .718.1 1.052.301h.003z" fill="#46A29F"/></svg>