<svg width="12" height="16" fill="none" xmlns="http://www.w3.org/2000/svg"><path d="M2.926 0C3.933 0 4.75.808 4.75 1.807c0 .998-.816 1.808-1.825 1.808A1.816 1.816 0 011.1 1.807 1.817 1.817 0 012.926 0zm3.948 9.91c.51 0 .923.408.923.913a.918.918 0 01-.923.913.918.918 0 01-.922-.913.917.917 0 01.922-.914zM4.25 5.043l2.767 1.581v.002l2.766 1.58c.393.226.706.533.92.902h.002c.216.37.332.793.332 1.242 0 .449-.116.871-.332 1.242h-.002a2.475 2.475 0 01-.919.9v.001l-1.997 1.143-.094.053-.004.002-.176.101v-.007a2.503 2.503 0 01-.747.223h-.311.027-.035c-.427 0-.853-.112-1.25-.34l-.003-.002-.002-.002-.001-.001-.002-.002-.002-.002-.002-.002-.002-.002H5.18l-.002-.002-.002-.002-.002-.002-.002-.002-.002-.002-.002-.002-.002-.002h-.002l-.002-.001-.001-.002-.002-.002-.008.023-.002-.002-.002-.002-.002-.002h-.002l-.002-.002-.002-.002-.002-.002h-.005l-.002-.002-.002-.002-.002-.002-.002-.001-.002-.002-.002-.002-.002-.002-.008-.004-.002-.002-.007-.004-.002-.002-.002-.002-.004-.001-.002-.002-.002-.002-.002-.002-.002-.002-.002-.002-.002-.002-.001-.002-.002-.002h-.002l-.002-.002-.002-.002-.002-.001-.002-.002-.002-.002-.002-.002-.002-.002-.002-.002-.002-.002a2.445 2.445 0 01-.772-.81 2.448 2.448 0 01-.332-1.242V8.077l.259.147h.002l1.144.656v2.667c0 .204.049.39.14.544.092.159.229.294.408.396.176.099.361.149.547.149a1.1 1.1 0 00.476-.111l2.158-1.234h.002c.177-.101.314-.235.405-.392v-.002c.09-.155.139-.34.139-.544 0-.205-.048-.39-.139-.545v-.002a1.074 1.074 0 00-.405-.391L6.322 7.833H6.32l-.96-.55-.446-.254-1.361-.778v-.002a1.1 1.1 0 00-.548-.149 1.1 1.1 0 00-.548.15v.001a1.095 1.095 0 00-.41.395c-.09.155-.138.34-.138.545v6.327c0 .205.048.39.139.545.092.158.23.294.409.395.175.1.36.15.546.15.187 0 .374-.05.55-.15l.19-.109a4.043 4.043 0 001.342.833l-.835.478a2.5 2.5 0 01-1.247.34 2.51 2.51 0 01-1.25-.34 2.474 2.474 0 01-.92-.9A2.464 2.464 0 01.5 13.515v-6.33c0-.449.116-.871.332-1.242a2.46 2.46 0 01.919-.9h.001A2.5 2.5 0 013 4.704c.425 0 .851.113 1.247.34h.004z" fill="url(#paint0_linear_15696_1755)"/><defs><linearGradient id="paint0_linear_15696_1755" x1="-1.311" y1="3.652" x2="24.62" y2="-1.418" gradientUnits="userSpaceOnUse"><stop stop-color="#46A29F"/><stop offset="1" stop-color="#4660A2"/></linearGradient></defs></svg>