<svg width="49" height="57" fill="none" xmlns="http://www.w3.org/2000/svg"><path d="M41.634 51.86c0 2.312-1.867 4.268-4.268 4.268H5.268C2.956 56.128 1 54.26 1 51.86V5.624C1 3.045 3.134 1 5.624 1H33.01" stroke="url(#paint0_linear_13858_2244)" stroke-width="1.4" stroke-miterlimit="10" stroke-linecap="round" stroke-linejoin="round"/><path d="M41.633 26.252V9.536" stroke="url(#paint1_linear_13858_2244)" stroke-width="1.4" stroke-miterlimit="10" stroke-linecap="round" stroke-linejoin="round"/><path d="M41.636 9.536L33.012 1v6.224c0 1.245 1.067 2.312 2.312 2.312h6.313z" stroke="url(#paint2_linear_13858_2244)" stroke-width="1.4" stroke-miterlimit="10" stroke-linecap="round" stroke-linejoin="round"/><path d="M45.191 35.677c-.267.267-.444.445-.711.622.356 1.156.089 2.401-.8 3.29-.623.623-1.423.978-2.223.978-.356 0-.623-.089-.89-.178-.533 1.067-1.6 1.779-2.756 1.779-1.156 0-2.223-.712-2.756-1.779-1.067.356-2.312.09-3.112-.8-.89-.889-1.067-2.134-.8-3.29a3.255 3.255 0 01-1.69-2.845c0-1.245.711-2.312 1.69-2.845-.356-1.156-.09-2.4.8-3.29.889-.89 2.045-1.156 3.112-.8.533-1.067 1.6-1.779 2.756-1.779.89 0 1.6.356 2.223.979.267.266.445.533.534.8 1.067-.356 2.311-.09 3.112.8.622.622.889 1.512.889 2.312 0 .355-.09.622-.178.978.978.533 1.69 1.6 1.69 2.845.088.8-.267 1.69-.89 2.223z" stroke="url(#paint3_linear_13858_2244)" stroke-width="1.4" stroke-miterlimit="10" stroke-linecap="round" stroke-linejoin="round"/><path d="M31.767 48.392l-4.357.8 5.068-9.158" stroke="url(#paint4_linear_13858_2244)" stroke-width="1.4" stroke-miterlimit="10" stroke-linecap="round" stroke-linejoin="round"/><path d="M37.812 42.079l-4.535 11.648-1.511-5.335" stroke="url(#paint5_linear_13858_2244)" stroke-width="1.4" stroke-miterlimit="10" stroke-linecap="round" stroke-linejoin="round"/><path d="M43.145 40.034l5.157 9.158-4.446-.8" stroke="url(#paint6_linear_13858_2244)" stroke-width="1.4" stroke-miterlimit="10" stroke-linecap="round" stroke-linejoin="round"/><path d="M37.809 42.079l4.534 11.648 1.512-5.335" stroke="url(#paint7_linear_13858_2244)" stroke-width="1.4" stroke-miterlimit="10" stroke-linecap="round" stroke-linejoin="round"/><path d="M10.07 45.369l1.867 2.49 2.223-2.49 2.935 1.867 3.734-1.423" stroke="url(#paint8_linear_13858_2244)" stroke-width="1.4" stroke-miterlimit="10" stroke-linecap="round" stroke-linejoin="round"/><path d="M6.957 14.693h28.72" stroke="url(#paint9_linear_13858_2244)" stroke-width="1.4" stroke-miterlimit="10" stroke-linecap="round" stroke-linejoin="round"/><path d="M28.386 22.34H6.957" stroke="url(#paint10_linear_13858_2244)" stroke-width="1.4" stroke-miterlimit="10" stroke-linecap="round" stroke-linejoin="round"/><path d="M25.807 29.986H6.957" stroke="url(#paint11_linear_13858_2244)" stroke-width="1.4" stroke-miterlimit="10" stroke-linecap="round" stroke-linejoin="round"/><path d="M25.807 37.633H6.957" stroke="url(#paint12_linear_13858_2244)" stroke-width="1.4" stroke-miterlimit="10" stroke-linecap="round" stroke-linejoin="round"/><defs><linearGradient id="paint0_linear_13858_2244" x1="-5.983" y1="13.584" x2="93.095" y2="-8.099" gradientUnits="userSpaceOnUse"><stop stop-color="#46A29F"/><stop offset="1" stop-color="#4660A2"/></linearGradient><linearGradient id="paint1_linear_13858_2244" x1="41.461" y1="13.352" x2="44.015" y2="13.306" gradientUnits="userSpaceOnUse"><stop stop-color="#46A29F"/><stop offset="1" stop-color="#4660A2"/></linearGradient><linearGradient id="paint2_linear_13858_2244" x1="31.53" y1="2.949" x2="51.747" y2="-3.117" gradientUnits="userSpaceOnUse"><stop stop-color="#46A29F"/><stop offset="1" stop-color="#4660A2"/></linearGradient><linearGradient id="paint3_linear_13858_2244" x1="26.594" y1="28.719" x2="65.948" y2="17.561" gradientUnits="userSpaceOnUse"><stop stop-color="#46A29F"/><stop offset="1" stop-color="#4660A2"/></linearGradient><linearGradient id="paint4_linear_13858_2244" x1="26.539" y1="42.124" x2="39.148" y2="40.053" gradientUnits="userSpaceOnUse"><stop stop-color="#46A29F"/><stop offset="1" stop-color="#4660A2"/></linearGradient><linearGradient id="paint5_linear_13858_2244" x1="30.727" y1="44.738" x2="45.817" y2="42.412" gradientUnits="userSpaceOnUse"><stop stop-color="#46A29F"/><stop offset="1" stop-color="#4660A2"/></linearGradient><linearGradient id="paint6_linear_13858_2244" x1="42.258" y1="42.124" x2="55.077" y2="39.981" gradientUnits="userSpaceOnUse"><stop stop-color="#46A29F"/><stop offset="1" stop-color="#4660A2"/></linearGradient><linearGradient id="paint7_linear_13858_2244" x1="36.77" y1="44.738" x2="51.86" y2="42.412" gradientUnits="userSpaceOnUse"><stop stop-color="#46A29F"/><stop offset="1" stop-color="#4660A2"/></linearGradient><linearGradient id="paint8_linear_13858_2244" x1="8.222" y1="45.937" x2="18.609" y2="32.609" gradientUnits="userSpaceOnUse"><stop stop-color="#46A29F"/><stop offset="1" stop-color="#4660A2"/></linearGradient><linearGradient id="paint9_linear_13858_2244" x1="2.022" y1="14.921" x2="3.017" y2="6.433" gradientUnits="userSpaceOnUse"><stop stop-color="#46A29F"/><stop offset="1" stop-color="#4660A2"/></linearGradient><linearGradient id="paint10_linear_13858_2244" x1="3.275" y1="22.568" x2="4.595" y2="14.17" gradientUnits="userSpaceOnUse"><stop stop-color="#46A29F"/><stop offset="1" stop-color="#4660A2"/></linearGradient><linearGradient id="paint11_linear_13858_2244" x1="3.718" y1="30.215" x2="5.208" y2="21.875" gradientUnits="userSpaceOnUse"><stop stop-color="#46A29F"/><stop offset="1" stop-color="#4660A2"/></linearGradient><linearGradient id="paint12_linear_13858_2244" x1="3.718" y1="37.861" x2="5.208" y2="29.522" gradientUnits="userSpaceOnUse"><stop stop-color="#46A29F"/><stop offset="1" stop-color="#4660A2"/></linearGradient></defs></svg>