<svg width="563" height="157" fill="none" xmlns="http://www.w3.org/2000/svg"><path d="M24.679 0c9.87 0 17.887 7.905 17.887 17.68 0 9.756-7.998 17.68-17.887 17.68-9.87 0-17.887-7.906-17.887-17.68C6.811 7.905 14.809 0 24.679 0zm38.686 96.94c4.991 0 9.038 4 9.038 8.934 0 4.934-4.047 8.933-9.038 8.933-4.992 0-9.038-3.999-9.038-8.933-.02-4.934 4.046-8.934 9.038-8.934zM37.65 49.34l27.114 15.474v.019l27.095 15.455c3.857 2.206 6.92 5.215 9.019 8.822h.019c2.118 3.625 3.252 7.756 3.252 12.148 0 4.391-1.134 8.522-3.252 12.147h-.019c-2.099 3.589-5.143 6.598-9 8.803v.019l-19.57 11.176-.927.523-.037.019-1.72.99v-.074c-2.383 1.121-4.841 1.868-7.318 2.186h-3.044.264-.359c-4.179 0-8.357-1.103-12.252-3.327l-.02-.018-.018-.019-.02-.019-.018-.018-.019-.019-.019-.019-.019-.018h-.019l-.018-.019-.02-.019-.018-.018-.02-.019-.018-.019-.02-.018-.018-.019h-.019l-.019-.019-.019-.019-.019-.018-.075.224-.02-.019-.018-.018-.019-.019h-.019l-.019-.019-.019-.018-.019-.019h-.056l-.02-.019-.018-.018-.019-.019-.019-.019-.019-.019-.019-.018-.019-.019-.075-.037-.02-.019-.075-.037-.019-.019-.019-.019-.038-.018-.018-.019-.02-.019-.018-.019-.02-.018-.018-.019-.019-.019-.019-.018-.019-.019h-.019l-.019-.019-.018-.018-.02-.019-.018-.019-.02-.018-.018-.019-.019-.019-.019-.018-.019-.019c-3.176-2.093-5.729-4.785-7.563-7.924-2.118-3.626-3.252-7.756-3.252-12.148V79.017l2.534 1.44h.018l11.213 6.41v26.09c0 2 .473 3.812 1.361 5.326.908 1.551 2.25 2.878 4.009 3.869 1.72.972 3.535 1.458 5.35 1.458 1.589 0 3.177-.374 4.67-1.084l21.14-12.073h.019c1.74-.991 3.082-2.299 3.97-3.832v-.018c.89-1.514 1.362-3.327 1.362-5.327s-.473-3.812-1.362-5.326v-.019c-.888-1.532-2.25-2.86-3.97-3.831L57.957 76.625h-.019l-9.416-5.382-4.368-2.486-13.33-7.606v-.019c-1.702-.972-3.536-1.458-5.37-1.458s-3.668.486-5.37 1.458v.019c-1.74.99-3.1 2.317-4.008 3.868-.889 1.514-1.362 3.327-1.362 5.327v61.898c0 2 .473 3.813 1.362 5.326.907 1.552 2.25 2.879 4.008 3.869 1.72.972 3.536 1.458 5.351 1.458 1.834 0 3.668-.486 5.389-1.458l1.853-1.065a39.612 39.612 0 007.355 5.42 40.863 40.863 0 005.805 2.728l-8.187 4.673c-3.895 2.224-8.055 3.326-12.215 3.326-4.178 0-8.357-1.102-12.252-3.326-3.857-2.206-6.902-5.215-9-8.803a24.078 24.078 0 01-3.271-12.185V70.29c0-4.392 1.134-8.523 3.252-12.148 2.099-3.589 5.143-6.616 9-8.803h.019c3.895-2.224 8.055-3.326 12.214-3.326 4.16 0 8.339 1.102 12.215 3.326h.038z" fill="#46A29F"/><path d="M168.489 63.318l-4.129-9.99h-21.647l-4.129 9.99h-11.057l20.781-46.623h10.657l20.847 46.623h-11.323zm-22.312-18.183h14.786l-7.393-17.85-7.393 17.85zm64.522-17.65h9.858v29.839c0 13.32-7.193 19.448-20.115 19.448-6.793 0-13.387-1.665-17.583-4.928l4.129-7.46c3.064 2.464 8.059 4.063 12.655 4.063 7.327 0 10.524-3.33 10.524-9.791v-1.532c-2.731 2.997-6.661 4.463-11.323 4.463-9.924 0-17.917-6.86-17.917-17.318 0-10.456 7.993-17.317 17.917-17.317 4.995 0 9.125 1.665 11.855 5.129v-4.596zm-9.79 25.576c5.461 0 9.391-3.53 9.391-8.792 0-5.261-3.93-8.791-9.391-8.791-5.462 0-9.458 3.53-9.458 8.791 0 5.262 3.996 8.792 9.458 8.792zm64.419-7.526c0 .8-.133 1.931-.199 2.797H238.02c.999 4.463 4.796 7.194 10.258 7.194 3.796 0 6.527-1.133 8.991-3.464l5.528 5.995c-3.33 3.796-8.325 5.794-14.786 5.794-12.388 0-20.448-7.793-20.448-18.45 0-10.723 8.193-18.449 19.116-18.449 10.524 0 18.649 7.06 18.649 18.583zm-18.582-10.723c-4.729 0-8.126 2.864-8.859 7.46h17.65c-.732-4.53-4.129-7.46-8.791-7.46zm47.28-7.86c8.458 0 14.852 4.929 14.852 15.852v20.514h-10.39V44.403c0-5.795-2.664-8.46-7.26-8.46-4.995 0-8.592 3.065-8.592 9.659v17.716h-10.39V27.485h9.924v4.196c2.797-3.064 6.993-4.729 11.856-4.729zm41.978 36.9c-11.656 0-19.981-7.66-19.981-18.45s8.325-18.45 19.981-18.45c7.527 0 13.454 3.264 16.052 9.125l-8.059 4.33c-1.932-3.397-4.796-4.93-8.059-4.93-5.262 0-9.392 3.664-9.392 9.925 0 6.26 4.13 9.924 9.392 9.924 3.263 0 6.127-1.465 8.059-4.929l8.059 4.396c-2.598 5.728-8.525 9.058-16.052 9.058zm47.09-36.367h9.991L376.9 65.516c-3.463 8.659-8.392 11.256-14.853 11.256-3.663 0-7.659-1.198-9.99-3.263l3.796-7.393c1.599 1.398 3.796 2.264 5.861 2.264 2.864 0 4.463-1.265 5.861-4.462l.134-.333-15.519-36.1h10.723l10.057 24.31 10.124-24.31zm-189.295 66.21h10.324l-15.253 46.623h-11.589l-10.257-31.57-10.59 31.57h-11.523l-15.319-46.623h11.19l10.523 32.77 10.99-32.77h9.991l10.656 33.036 10.857-33.036zm29.999 47.156c-11.39 0-19.715-7.659-19.715-18.449 0-10.79 8.325-18.45 19.715-18.45 11.389 0 19.648 7.66 19.648 18.45s-8.259 18.449-19.648 18.449zm0-8.525c5.195 0 9.125-3.73 9.125-9.924 0-6.195-3.93-9.924-9.125-9.924-5.196 0-9.192 3.729-9.192 9.924 0 6.194 3.996 9.924 9.192 9.924zm36.517-23.112c2.531-3.464 6.794-5.262 12.322-5.262v9.591c-.866-.066-1.532-.133-2.331-.133-5.728 0-9.524 3.13-9.524 9.991v16.917h-10.391v-35.833h9.924v4.729zm45.209 31.104l-11.323-14.053-4.995 4.929v9.124h-10.391v-49.42h10.391v27.974l15.185-14.387h12.389l-14.92 15.186 16.252 20.647h-12.588zm38.441-36.366c10.057 0 17.85 7.193 17.85 18.45 0 11.256-7.793 18.449-17.85 18.449-4.795 0-8.659-1.532-11.256-4.662v4.129h-9.924v-49.42h10.39v17.383c2.664-2.93 6.328-4.329 10.79-4.329zm-1.798 28.374c5.195 0 9.125-3.73 9.125-9.924 0-6.195-3.93-9.924-9.125-9.924s-9.125 3.729-9.125 9.924c0 6.194 3.93 9.924 9.125 9.924zm61.704-9.791c0 .799-.133 1.931-.199 2.797h-27.109c1 4.463 4.796 7.194 10.258 7.194 3.796 0 6.527-1.133 8.991-3.464l5.528 5.995c-3.33 3.796-8.325 5.794-14.786 5.794-12.388 0-20.448-7.793-20.448-18.449 0-10.724 8.193-18.45 19.116-18.45 10.524 0 18.649 7.06 18.649 18.583zm-18.582-10.723c-4.729 0-8.126 2.864-8.859 7.459h17.65c-.732-4.529-4.129-7.459-8.791-7.459zm47.28-7.86c8.458 0 14.853 4.929 14.853 15.852v20.514h-10.391v-18.915c0-5.795-2.664-8.459-7.26-8.459-4.995 0-8.592 3.064-8.592 9.657v17.717h-10.39v-35.833h9.924v4.196c2.797-3.064 6.994-4.729 11.856-4.729zm41.978 36.899c-11.655 0-19.981-7.659-19.981-18.449 0-10.79 8.326-18.45 19.981-18.45 7.527 0 13.455 3.264 16.052 9.125l-8.059 4.329c-1.932-3.397-4.796-4.928-8.059-4.928-5.262 0-9.392 3.663-9.392 9.924 0 6.261 4.13 9.924 9.392 9.924 3.263 0 6.127-1.466 8.059-4.929l8.059 4.396c-2.597 5.728-8.525 9.058-16.052 9.058zm43.554-36.899c8.459 0 14.853 4.929 14.853 15.852v20.514h-10.39v-18.915c0-5.795-2.665-8.459-7.26-8.459-4.996 0-8.592 3.064-8.592 9.657v17.717h-10.391v-49.42h10.391v17.317c2.797-2.798 6.793-4.263 11.389-4.263zm14.216-14.377v-1.149h9.142v1.15h-3.872v9.216h-1.373v-9.217h-3.897zm22.554 9.217h-1.299l-.025-7.993-4.271 6.719h-.624l-4.271-6.569v7.843h-1.324V88.426h1.124l4.796 7.493 4.77-7.493h1.099l.025 10.366z" fill="#949096"/></svg>