<svg width="80" height="80" fill="none" xmlns="http://www.w3.org/2000/svg"><g clip-path="url(#clip0_13265_5042)"><path d="M43.626 7.125c.998 1 .998 2.626 0 3.625L40 14.375l-3.625-3.625A2.564 2.564 0 0140 7.125c1-1 2.625-1 3.626 0z" fill="#DEEEEE"/><path d="M64.375 8.125v12.5h-48.75v-12.5c0-4.15 3.363-7.5 7.5-7.5h33.75c4.15 0 7.5 3.35 7.5 7.5zm-20.75 2.625c.999-1 .999-2.625 0-3.625-1-1-2.625-1-3.625 0a2.564 2.564 0 00-3.625 3.625L40 14.375l3.625-3.625z" fill="#fff"/><path d="M61.738 28.138c-4.726-1.213-9.214-2.988-13.338-5.013l-5.138-2.5h21.113v8.125a61.851 61.851 0 01-2.637-.612zm-43.476 0c-.874.224-1.75.424-2.637.612v-8.125H36.75l-5.137 2.5c-4.138 2.025-8.625 3.8-13.35 5.013z" fill="#DEEEEE"/><path d="M18.125 21.875h-2.5v6.875a64.8 64.8 0 002.5-.58v-6.295z" fill="#F0F4F4"/><path d="M61.887 21.875h2.5v6.875c-.84-.178-1.67-.37-2.5-.58v-6.295zM29.375 50.663v6.625l-1.25-4.163-5 5 .6.962-.025.026-1.825.925c-2.062.924-4.313 1.625-6.25 2.237V28.75a62.293 62.293 0 002.637-.612v2.487c.863 7.988 5.7 15.4 11.113 20.038z" fill="#DEEEEE"/><path d="M64.375 62.275c.926.3 1.788.575 2.5.85 5 1.862 7.5 3.75 7.5 8.75v7.5H47.4l.638-1.25 3.838-7.5-1.25-2.5 5.625-9.013 1.875.926c2.063.924 4.311 1.624 6.25 2.237z" fill="#fff"/><path d="M64.375 28.75v33.525c-1.938-.612-4.187-1.313-6.25-2.237l-1.875-.925.625-.988-5-5-1.25 4.163v-6.625c5.425-4.637 10.263-12.05 11.113-20.038v-2.487c.874.224 1.75.425 2.637.612z" fill="#DEEEEE"/><path d="M36.874 30.663v-1.288c0-.687-.562-1.25-1.25-1.25h-8.75c-.687 0-1.25.563-1.25 1.25v2.5c0 .688.563 1.25 1.25 1.25h8.75c.688 0 1.25-.562 1.25-1.25v-1.212zm6.25 0v1.212c0 .688.562 1.25 1.25 1.25h8.75c.688 0 1.25-.562 1.25-1.25v-2.5c0-.687-.562-1.25-1.25-1.25h-8.75c-.688 0-1.25.563-1.25 1.25v1.288zm18.614-2.525v2.487c-.851 7.988-5.689 15.4-11.114 20.038-3.613 3.087-7.487 4.962-10.624 4.962-3.138 0-7.013-1.875-10.625-4.962-5.413-4.638-10.25-12.05-11.113-20.038v-2.487c4.725-1.213 9.212-2.988 13.35-5.013l5.137-2.5h6.512l5.138 2.5c4.125 2.025 8.612 3.8 13.339 5.013z" fill="#F0F4F4"/><path d="M20.762 30.625v-3.209c-.828.25-1.656.505-2.5.722v2.487c.862 7.988 5.7 15.4 11.113 20.038 3.612 3.087 7.487 4.962 10.625 4.962.404 0 .822-.034 1.25-.095-2.884-.411-6.23-2.178-9.375-4.867-5.413-4.637-10.25-12.05-11.113-20.038z" fill="#fff"/><path d="M59.238 30.625v-3.209c.828.25 1.656.505 2.5.722v2.487c-.863 7.988-5.7 15.4-11.113 20.038-3.613 3.087-7.488 4.962-10.625 4.962-.405 0-.823-.034-1.25-.095 2.883-.412 6.228-2.178 9.375-4.867 5.413-4.637 10.25-12.05 11.113-20.038z" fill="#DEEEEE"/><path d="M56.874 58.125l-.625.988-5.625 9.012 1.25 2.5-3.838 7.5-.637 1.25h-3.387l4.913-16.412L50 59.375l.625-2.087 1.25-4.163 5 5z" fill="#fff"/><path d="M50.625 57.288L50 59.375s-3.125 2.5-10 2.5-9.975-2.5-9.975-2.5l-.025.013-.625-2.1v-6.625c3.613 3.087 7.487 4.962 10.625 4.962 3.137 0 7.012-1.875 10.625-4.962v6.625z" fill="#F0F4F4"/><path d="M50 59.375l-1.074 3.588C47.138 63.7 43.7 64.375 40 64.375s-7.138-.675-8.912-1.412h-.013L30 59.387l.025-.012s3.1 2.5 9.975 2.5 10-2.5 10-2.5z" fill="#DEEEEE"/><path d="M48.925 62.963l-4.913 16.412h-8.013l-4.925-16.412h.013c1.775.737 5.213 1.412 8.912 1.412 3.7 0 7.138-.675 8.926-1.412z" fill="#DEEEEE"/><path d="M31.075 62.963L36 79.375h-3.388l-.637-1.25-3.85-7.5 1.25-2.5-5.65-9.038-.6-.962 5-5 1.25 4.163.625 2.1 1.075 3.575z" fill="#fff"/><path d="M31.975 78.125l.637 1.25H5.625v-7.5c0-5 2.5-6.887 7.5-8.75a45.1 45.1 0 012.5-.838v-.012c1.937-.612 4.188-1.313 6.25-2.237l1.825-.925.025-.026 5.65 9.038-1.25 2.5 3.85 7.5z" fill="#fff"/><path d="M36.889 31.875c0 .687-.563 1.25-1.25 1.25h-8.75c-.688 0-1.25-.563-1.25-1.25v-2.5c0-.687.563-1.25 1.25-1.25h8.75c.687 0 1.25.563 1.25 1.25v2.5z" fill="#DEEEEE"/><path d="M28.629 33.125h2.588l1.34-5H29.97l-1.34 5zm3.258 0h.669l1.34-5h-.67l-1.34 5z" fill="#F0F4F4"/><path d="M54.387 31.875c0 .687-.562 1.25-1.25 1.25h-8.75c-.687 0-1.25-.563-1.25-1.25v-2.5c0-.687.563-1.25 1.25-1.25h8.75c.688 0 1.25.563 1.25 1.25v2.5z" fill="#DEEEEE"/><path d="M46.129 33.125h2.588l1.34-5H47.47l-1.34 5zm3.258 0h.669l1.34-5h-.669l-1.34 5z" fill="#F0F4F4"/><path d="M30.025 59.375s.603.485 1.863 1.028v-7.826a28.697 28.697 0 01-2.513-1.914v6.625l.625 2.1.025-.013z" fill="#fff"/><path d="M48.13 60.4c1.264-.541 1.87-1.025 1.87-1.025l.625-2.087v-6.625a28.61 28.61 0 01-2.494 1.9v7.838zm16.246-39.776H15.625v1.25h48.75v-1.25z" fill="#DEEEEE"/><path d="M45.83 21.875l-2.57-1.25h-6.51l-2.57 1.25h11.65z" fill="#DEEEEE"/><path d="M35.625 33.75h-8.75A1.877 1.877 0 0125 31.875v-2.5c0-1.034.841-1.875 1.875-1.875h8.75c1.034 0 1.875.84 1.875 1.875v2.5a1.877 1.877 0 01-1.875 1.875zm-8.75-5a.625.625 0 00-.625.625v2.5c0 .345.28.625.625.625h8.75c.345 0 .625-.28.625-.625v-2.5a.625.625 0 00-.625-.625h-8.75z" fill="url(#paint0_linear_13265_5042)"/><path d="M53.125 33.75h-8.75a1.877 1.877 0 01-1.875-1.875v-2.5c0-1.034.841-1.875 1.875-1.875h8.75c1.034 0 1.875.84 1.875 1.875v2.5a1.877 1.877 0 01-1.875 1.875zm-8.75-5a.626.626 0 00-.625.625v2.5c0 .345.28.625.625.625h8.75c.344 0 .625-.28.625-.625v-2.5a.626.626 0 00-.625-.625h-8.75z" fill="url(#paint1_linear_13265_5042)"/><path d="M43.124 31.288h-6.25a.625.625 0 110-1.25h6.25a.625.625 0 110 1.25z" fill="url(#paint2_linear_13265_5042)"/><path d="M31.968 78.75a.626.626 0 01-.556-.34l-3.843-7.5a.625.625 0 01-.003-.564l1.093-2.187-6.064-9.702a.626.626 0 01.088-.774l5-5a.625.625 0 11.884.884l-4.649 4.648 5.987 9.578a.628.628 0 01.029.612l-1.108 2.216 3.698 7.219a.627.627 0 01-.556.91z" fill="url(#paint3_linear_13265_5042)"/><path d="M35.625 78.75a.625.625 0 01-.599-.445l-7.5-25a.624.624 0 111.198-.36l7.5 25a.624.624 0 01-.599.805z" fill="url(#paint4_linear_13265_5042)"/><path d="M48.031 78.75a.628.628 0 01-.557-.91l3.7-7.219-1.11-2.216a.628.628 0 01.03-.612l5.987-9.578-4.649-4.648a.625.625 0 11.884-.884l5 5a.628.628 0 01.088.774l-6.065 9.702 1.094 2.186a.627.627 0 01-.002.566l-3.843 7.5a.626.626 0 01-.557.34z" fill="url(#paint5_linear_13265_5042)"/><path d="M44.375 78.75a.623.623 0 01-.598-.805l7.5-25a.622.622 0 01.777-.418c.331.099.52.447.42.778l-7.5 25a.625.625 0 01-.599.445z" fill="url(#paint6_linear_13265_5042)"/><path d="M40 62.5c-7.014 0-10.256-2.53-10.391-2.637a.625.625 0 01.78-.978c.03.023 3.077 2.365 9.61 2.365 6.534 0 9.582-2.341 9.612-2.365a.626.626 0 01.779.978c-.134.108-3.376 2.637-10.39 2.637z" fill="url(#paint7_linear_13265_5042)"/><path d="M40 65c-3.88 0-7.392-.73-9.15-1.453a.626.626 0 01.476-1.157c1.644.676 4.965 1.36 8.675 1.36 3.72 0 7.043-.682 8.686-1.358a.625.625 0 11.476 1.155C47.406 64.27 43.892 65 40 65z" fill="url(#paint8_linear_13265_5042)"/><path d="M40.001 56.251c-8.562 0-20.943-12.394-22.36-25.559a.624.624 0 111.242-.134c.637 5.912 3.663 12.157 8.304 17.135C31.39 52.2 36.3 55 40 55a.625.625 0 110 1.25z" fill="url(#paint9_linear_13265_5042)"/><path d="M74.375 80H5.625A.625.625 0 015 79.375v-7.5c0-5.364 2.779-7.42 7.906-9.336.804-.3 1.772-.608 2.826-.943 1.858-.59 3.965-1.26 5.89-2.121a.625.625 0 11.51 1.14c-1.99.891-4.132 1.572-6.021 2.173-1.032.327-1.98.627-2.767.923-4.806 1.797-7.094 3.476-7.094 8.164v6.875h67.5v-6.875c0-4.688-2.288-6.367-7.095-8.164-.786-.296-1.733-.596-2.764-.923-1.89-.6-4.032-1.282-6.021-2.173a.625.625 0 11.51-1.14c1.925.862 4.031 1.53 5.89 2.121 1.052.335 2.02.643 2.824.943C72.222 64.455 75 66.51 75 71.875v7.5c0 .345-.28.625-.625.625z" fill="url(#paint10_linear_13265_5042)"/><path d="M15.625 60a.625.625 0 01-.625-.625v-36.25a.625.625 0 111.25 0v36.25c0 .346-.28.625-.625.625z" fill="url(#paint11_linear_13265_5042)"/><path d="M15.624 29.375a.625.625 0 01-.125-1.237c5.124-1.057 10.45-2.933 15.829-5.574a.626.626 0 01.55 1.122c-5.473 2.688-10.9 4.598-16.127 5.677a.662.662 0 01-.127.012z" fill="url(#paint12_linear_13265_5042)"/><path d="M40 56.251a.625.625 0 110-1.25c3.701 0 8.611-2.801 12.815-7.308 4.641-4.978 7.666-11.223 8.303-17.135a.615.615 0 01.689-.554c.343.036.59.345.554.688-1.417 13.166-13.799 25.56-22.36 25.56z" fill="url(#paint13_linear_13265_5042)"/><path d="M64.375 60a.625.625 0 01-.625-.625v-36.25a.625.625 0 111.25 0v36.25c0 .346-.28.625-.625.625z" fill="url(#paint14_linear_13265_5042)"/><path d="M64.376 29.375a.654.654 0 01-.127-.013c-5.228-1.08-10.654-2.988-16.125-5.676a.624.624 0 11.549-1.122c5.378 2.64 10.703 4.516 15.83 5.573a.627.627 0 01-.127 1.237z" fill="url(#paint15_linear_13265_5042)"/><path d="M15.625 21.25a.625.625 0 01-.625-.625v-12.5a.625.625 0 111.25 0v12.5c0 .346-.28.625-.625.625z" fill="url(#paint16_linear_13265_5042)"/><path d="M56.875 1.25H22.863a.625.625 0 110-1.25h34.012a.625.625 0 110 1.25z" fill="url(#paint17_linear_13265_5042)"/><path d="M64.375 21.25a.625.625 0 01-.625-.625v-12.5a.625.625 0 111.25 0v12.5c0 .346-.28.625-.625.625z" fill="url(#paint18_linear_13265_5042)"/><path d="M64.375 21.25h-48.75a.625.625 0 110-1.25h48.75a.625.625 0 110 1.25z" fill="url(#paint19_linear_13265_5042)"/><path d="M15.625 8.75A.625.625 0 0115 8.125C15 3.645 18.645 0 23.125 0a.625.625 0 110 1.25 6.883 6.883 0 00-6.875 6.875c0 .345-.28.625-.625.625z" fill="url(#paint20_linear_13265_5042)"/><path d="M64.377 8.75a.625.625 0 01-.625-.625 6.883 6.883 0 00-6.875-6.875.625.625 0 110-1.25c4.48 0 8.125 3.645 8.125 8.125 0 .345-.28.625-.625.625z" fill="url(#paint21_linear_13265_5042)"/><path d="M40 15a.626.626 0 01-.441-.183l-3.625-3.624a3.193 3.193 0 010-4.51C37 5.618 38.786 5.472 40 6.315c1.212-.842 3-.698 4.066.37.6.602.933 1.403.933 2.255a3.17 3.17 0 01-.934 2.254l-3.623 3.625A.625.625 0 0140 15zm-1.812-8c-.518 0-1.004.201-1.37.567a1.942 1.942 0 000 2.742l3.183 3.183 3.181-3.183c.366-.366.568-.852.568-1.37 0-.519-.202-1.005-.568-1.371-.731-.733-2.007-.733-2.74 0a.643.643 0 01-.883 0A1.924 1.924 0 0038.189 7z" fill="url(#paint22_linear_13265_5042)"/></g><defs><linearGradient id="paint0_linear_13265_5042" x1="22.852" y1="28.927" x2="46.464" y2="14.905" gradientUnits="userSpaceOnUse"><stop stop-color="#46A29F"/><stop offset="1" stop-color="#4660A2"/></linearGradient><linearGradient id="paint1_linear_13265_5042" x1="40.352" y1="28.927" x2="63.964" y2="14.905" gradientUnits="userSpaceOnUse"><stop stop-color="#46A29F"/><stop offset="1" stop-color="#4660A2"/></linearGradient><linearGradient id="paint2_linear_13265_5042" x1="34.959" y1="30.323" x2="39.55" y2="22.143" gradientUnits="userSpaceOnUse"><stop stop-color="#46A29F"/><stop offset="1" stop-color="#4660A2"/></linearGradient><linearGradient id="paint3_linear_13265_5042" x1="20.766" y1="58.492" x2="46.221" y2="55.587" gradientUnits="userSpaceOnUse"><stop stop-color="#46A29F"/><stop offset="1" stop-color="#4660A2"/></linearGradient><linearGradient id="paint4_linear_13265_5042" x1="25.996" y1="58.492" x2="48.137" y2="56.301" gradientUnits="userSpaceOnUse"><stop stop-color="#46A29F"/><stop offset="1" stop-color="#4660A2"/></linearGradient><linearGradient id="paint5_linear_13265_5042" x1="45.672" y1="58.492" x2="71.127" y2="55.587" gradientUnits="userSpaceOnUse"><stop stop-color="#46A29F"/><stop offset="1" stop-color="#4660A2"/></linearGradient><linearGradient id="paint6_linear_13265_5042" x1="42.246" y1="58.492" x2="64.387" y2="56.301" gradientUnits="userSpaceOnUse"><stop stop-color="#46A29F"/><stop offset="1" stop-color="#4660A2"/></linearGradient><linearGradient id="paint7_linear_13265_5042" x1="25.724" y1="59.607" x2="39.89" y2="35.765" gradientUnits="userSpaceOnUse"><stop stop-color="#46A29F"/><stop offset="1" stop-color="#4660A2"/></linearGradient><linearGradient id="paint8_linear_13265_5042" x1="27.183" y1="62.95" x2="35.966" y2="44.209" gradientUnits="userSpaceOnUse"><stop stop-color="#46A29F"/><stop offset="1" stop-color="#4660A2"/></linearGradient><linearGradient id="paint9_linear_13265_5042" x1="13.686" y1="35.993" x2="68.706" y2="21.686" gradientUnits="userSpaceOnUse"><stop stop-color="#46A29F"/><stop offset="1" stop-color="#4660A2"/></linearGradient><linearGradient id="paint10_linear_13265_5042" x1="-7.029" y1="64.118" x2="81.515" y2="-25.305" gradientUnits="userSpaceOnUse"><stop stop-color="#46A29F"/><stop offset="1" stop-color="#4660A2"/></linearGradient><linearGradient id="paint11_linear_13265_5042" x1="14.785" y1="31.06" x2="17.979" y2="31.029" gradientUnits="userSpaceOnUse"><stop stop-color="#46A29F"/><stop offset="1" stop-color="#4660A2"/></linearGradient><linearGradient id="paint12_linear_13265_5042" x1="12.04" y1="24.07" x2="40.371" y2="2.989" gradientUnits="userSpaceOnUse"><stop stop-color="#46A29F"/><stop offset="1" stop-color="#4660A2"/></linearGradient><linearGradient id="paint13_linear_13265_5042" x1="35.425" y1="35.992" x2="90.444" y2="21.686" gradientUnits="userSpaceOnUse"><stop stop-color="#46A29F"/><stop offset="1" stop-color="#4660A2"/></linearGradient><linearGradient id="paint14_linear_13265_5042" x1="63.535" y1="31.06" x2="66.729" y2="31.029" gradientUnits="userSpaceOnUse"><stop stop-color="#46A29F"/><stop offset="1" stop-color="#4660A2"/></linearGradient><linearGradient id="paint15_linear_13265_5042" x1="44.813" y1="24.069" x2="73.148" y2="2.988" gradientUnits="userSpaceOnUse"><stop stop-color="#46A29F"/><stop offset="1" stop-color="#4660A2"/></linearGradient><linearGradient id="paint16_linear_13265_5042" x1="14.785" y1="10.639" x2="17.977" y2="10.553" gradientUnits="userSpaceOnUse"><stop stop-color="#46A29F"/><stop offset="1" stop-color="#4660A2"/></linearGradient><linearGradient id="paint17_linear_13265_5042" x1="16.179" y1=".285" x2="17.445" y2="-10.32" gradientUnits="userSpaceOnUse"><stop stop-color="#46A29F"/><stop offset="1" stop-color="#4660A2"/></linearGradient><linearGradient id="paint18_linear_13265_5042" x1="63.535" y1="10.639" x2="66.727" y2="10.553" gradientUnits="userSpaceOnUse"><stop stop-color="#46A29F"/><stop offset="1" stop-color="#4660A2"/></linearGradient><linearGradient id="paint19_linear_13265_5042" x1="6.408" y1="20.285" x2="7.308" y2="9.603" gradientUnits="userSpaceOnUse"><stop stop-color="#46A29F"/><stop offset="1" stop-color="#4660A2"/></linearGradient><linearGradient id="paint20_linear_13265_5042" x1="13.496" y1="1.997" x2="34.042" y2="-4.103" gradientUnits="userSpaceOnUse"><stop stop-color="#46A29F"/><stop offset="1" stop-color="#4660A2"/></linearGradient><linearGradient id="paint21_linear_13265_5042" x1="54.748" y1="1.997" x2="75.294" y2="-4.103" gradientUnits="userSpaceOnUse"><stop stop-color="#46A29F"/><stop offset="1" stop-color="#4660A2"/></linearGradient><linearGradient id="paint22_linear_13265_5042" x1="33.284" y1="7.877" x2="56.435" y2=".432" gradientUnits="userSpaceOnUse"><stop stop-color="#46A29F"/><stop offset="1" stop-color="#4660A2"/></linearGradient><clipPath id="clip0_13265_5042"><path fill="#fff" d="M0 0h80v80H0z"/></clipPath></defs></svg>