<svg width="80" height="80" fill="none" xmlns="http://www.w3.org/2000/svg"><path d="M61.18 8.583c-8.902-3.815-16.367.401-19.86 3.778a1.13 1.13 0 01-1.559.003c-3.575-3.417-11.607-7.899-20.515-4.081-12.039 5.16-21.21 20.637-9.172 33.249 9.27 9.711 23.433 23.665 29.764 29.98a.991.991 0 001.407 0c6.286-6.296 19.838-19.97 29.106-29.68 12.039-12.612 2.867-28.09-9.172-33.25z" fill="#F0F4F4" stroke="url(#paint0_linear_13265_4638)" stroke-width="1.25" stroke-linecap="round" stroke-linejoin="round"/><path d="M25.688 31.585c0-.155.095-.294.24-.35l13.905-5.348a.375.375 0 01.269 0l13.905 5.348c.145.056.24.195.24.35v22.39a.375.375 0 01-.375.375h-27.81a.375.375 0 01-.375-.375v-22.39z" fill="#fff" stroke="url(#paint1_linear_13265_4638)" stroke-width="1.25"/><rect x="22.77" y="53.829" width="35.542" height="1.147" rx=".573" fill="url(#paint2_linear_13265_4638)"/><mask id="a" fill="#fff"><rect x="34.236" y="43.51" width="11.465" height="11.465" rx="1"/></mask><rect x="34.236" y="43.51" width="11.465" height="11.465" rx="1" stroke="url(#paint3_linear_13265_4638)" stroke-width="2.5" mask="url(#a)"/><path d="M39.968 25.739l-16.41 6.352a1 1 0 01-1.36-.932v-1.295a1 1 0 01.638-.933L39.968 22.3" stroke="url(#paint4_linear_13265_4638)" stroke-width="1.25" stroke-linecap="round" stroke-linejoin="round"/><path d="M39.97 25.739l16.41 6.352a1 1 0 001.36-.932v-1.295a1 1 0 00-.639-.933L39.97 22.3" stroke="url(#paint5_linear_13265_4638)" stroke-width="1.25" stroke-linecap="round" stroke-linejoin="round"/><defs><linearGradient id="paint0_linear_13265_4638" x1="-7.873" y1="21.749" x2="157.534" y2="-32.004" gradientUnits="userSpaceOnUse"><stop stop-color="#46A29F"/><stop offset="1" stop-color="#4660A2"/></linearGradient><linearGradient id="paint1_linear_13265_4638" x1="19.94" y1="31.971" x2="89.935" y2="11.188" gradientUnits="userSpaceOnUse"><stop stop-color="#46A29F"/><stop offset="1" stop-color="#4660A2"/></linearGradient><linearGradient id="paint2_linear_13265_4638" x1="16.662" y1="54.091" x2="17.721" y2="44.339" gradientUnits="userSpaceOnUse"><stop stop-color="#46A29F"/><stop offset="1" stop-color="#4660A2"/></linearGradient><linearGradient id="paint3_linear_13265_4638" x1="32.266" y1="46.127" x2="59.187" y2="38.134" gradientUnits="userSpaceOnUse"><stop stop-color="#46A29F"/><stop offset="1" stop-color="#4660A2"/></linearGradient><linearGradient id="paint4_linear_13265_4638" x1="19.143" y1="24.655" x2="55.138" y2="6.249" gradientUnits="userSpaceOnUse"><stop stop-color="#46A29F"/><stop offset="1" stop-color="#4660A2"/></linearGradient><linearGradient id="paint5_linear_13265_4638" x1="60.794" y1="24.655" x2="24.799" y2="6.249" gradientUnits="userSpaceOnUse"><stop stop-color="#46A29F"/><stop offset="1" stop-color="#4660A2"/></linearGradient></defs></svg>