<svg width="80" height="80" fill="none" xmlns="http://www.w3.org/2000/svg"><path d="M46.904 41.793c1.536 1.268 3.168 2.023 4.452 2.023h.017c1.292 0 2.925-.764 4.469-2.039v1.227c0 1.73 2.096 2.535 4.062 3.095v.01s-1.552 3.842-8.53 3.842c-6.98 0-8.532-3.843-8.532-3.843 1.104-.317 2.25-.716 3.047-1.308.178-.13.333-.276.471-.423.341-.382.544-.829.544-1.373v-1.21z" fill="#F0F4F4"/><path d="M48.53 43.418v-.499a11.408 11.408 0 01-1.626-1.126v1.211c0 .544-.203.991-.544 1.373a3.393 3.393 0 01-.471.423c-.797.592-1.943.99-3.047 1.308-.122.033-.245.073-.366.097-.186.057-.374.106-.561.154-.243.058-.48.123-.698.188a.871.871 0 00-.146.04c-.302.09-.578.17-.813.26-2.072.772-3.104 1.552-3.104 3.623v3.097h1.625v-1.471c0-2.072 1.032-3.295 3.104-4.067.235-.089.511-.17.813-.26a.859.859 0 01.146-.04c.219-.065.455-.13.698-.187.187-.049.375-.098.561-.155.121-.023.244-.064.366-.096 1.104-.318 2.25-.716 3.047-1.309a3.41 3.41 0 00.471-.423c.341-.381.544-.828.544-1.372v-.769z" fill="#fff"/><path d="M51.373 49.95c6.98 0 8.531-3.842 8.531-3.842V46.1c.568.163 1.13.309 1.625.448.357.097.69.194.959.3 2.072.772 3.104 1.552 3.104 3.623v3.097H37.154V50.47c0-2.071 1.032-2.851 3.104-3.623.235-.09.511-.171.813-.26a.869.869 0 01.146-.04c.219-.065.455-.13.698-.188.187-.048.375-.097.561-.154.121-.024.243-.064.366-.097 0 0 1.552 3.843 8.531 3.843z" fill="#DEEEEE"/><path d="M54.22 43.418v-.499a11.413 11.413 0 001.626-1.126v1.211c0 .544.203.991.544 1.373.138.146.293.292.471.423.797.592 1.943.99 3.047 1.308.123.033.245.073.366.097a13 13 0 00.561.154c.244.058.48.123.698.188a.9.9 0 01.146.04c.302.09.578.17.813.26 2.072.772 3.104 1.552 3.104 3.623v3.097H63.97v-1.471c0-2.072-1.032-3.295-3.104-4.067-.235-.089-.511-.17-.813-.26a.861.861 0 00-.146-.04 12.53 12.53 0 00-.698-.187 13.16 13.16 0 01-.56-.155c-.122-.023-.244-.064-.367-.096-1.104-.318-2.25-.716-3.047-1.309a3.403 3.403 0 01-.47-.423c-.342-.381-.545-.828-.545-1.372v-.769z" fill="#DEEEEE"/><path d="M62.488 46.847c-.099-.04-.213-.076-.325-.112a24.266 24.266 0 00-.324-.1c-.103-.03-.202-.059-.31-.088a32.29 32.29 0 00-.189-.052c-.165-.047-.33-.094-.506-.136a13.238 13.238 0 01-.56-.154c-.122-.024-.244-.064-.367-.097 0 0-.002 0-.003-.002v.002s-.256.614-.998 1.35c.102.028.203.058.303.084.244.057.48.122.698.187a.87.87 0 01.147.04c.301.09.577.171.812.26 2.073.772 3.104 1.995 3.104 4.066v1.471h1.622V50.47c0-2.071-1.033-2.851-3.104-3.623z" fill="#DEEEEE"/><path d="M41.883 48.03c.235-.09.511-.172.813-.26a.868.868 0 01.146-.04c.219-.066.455-.13.698-.188.1-.026.2-.056.3-.083-.743-.736-.998-1.35-.998-1.35-.122.032-.245.072-.366.096a13.13 13.13 0 01-.561.155c-.243.057-.48.122-.698.187a.87.87 0 00-.146.04c-.302.09-.578.17-.813.26-2.072.772-3.104 1.552-3.104 3.623v3.097h1.625v-1.471c0-2.072 1.032-3.295 3.104-4.067z" fill="#fff" opacity=".3"/><path d="M46.904 41.793v1.211c0 .544-.203.991-.544 1.373a3.991 3.991 0 01-.471.423c-.797.593-1.943.983-3.047 1.3-.123.032-.245.073-.366.105-.187.05-.382.098-.561.155-.244.057-.48.122-.698.187V32.441h.796c0 3.705 2.308 7.223 4.875 9.337l.016.015z" fill="url(#paint0_linear_13265_5707)" fill-opacity=".1"/><path d="M61.53 32.441v14.106c-.497-.139-1.058-.285-1.626-.447-1.966-.56-4.062-1.365-4.062-3.096v-1.226c2.567-2.114 4.875-5.632 4.875-9.337v-1.105c.268.106.536.212.812.309v.796z" fill="url(#paint1_linear_13265_5707)" fill-opacity=".1"/><path d="M46.904 41.793v1.211c0 .544-.203.991-.544 1.373a3.991 3.991 0 01-.471.423c-.797.593-1.943.983-3.047 1.3-.123.032-.245.073-.366.105-.187.05-.382.098-.561.155-.244.057-.48.122-.698.187V32.441h.796c0 3.705 2.308 7.223 4.875 9.337l.016.015zm14.626-9.352v14.106c-.497-.139-1.058-.285-1.626-.447-1.966-.56-4.062-1.365-4.062-3.096v-1.226c2.567-2.114 4.875-5.632 4.875-9.337v-1.105c.268.106.536.212.812.309v.796z" fill="#DEEEEE"/><path d="M52.585 27.2c-2.178 1.544-4.965 3.202-8.11 4.323-.91.356-1.828.599-2.461.744 0 3.704 2.308 7.398 4.875 9.51l.016.016c1.536 1.268 3.169 2.024 4.452 2.024h.017c1.292 0 2.925-.764 4.469-2.04 2.567-2.113 4.875-5.631 4.875-9.336v-1.105c-4.502-1.755-8.133-4.136-8.133-4.136z" fill="#F0F4F4"/><path d="M59.092 30.65v1.791c0 3.705-2.308 7.223-4.875 9.337-1.24 1.023-2.535 1.71-3.666 1.943.28.058.55.096.805.096h.017c1.292 0 2.924-.764 4.469-2.04 2.567-2.113 4.875-5.631 4.875-9.336v-1.105l-1.625-.686z" fill="#DEEEEE"/><path d="M48.53 41.793l-.016-.016c-2.567-2.112-4.928-6.235-4.928-9.939l-1.572.43c0 3.703 2.308 7.397 4.875 9.51a.432.432 0 01.016.015c1.536 1.268 3.169 2.024 4.452 2.024h.017c.254 0 .525-.038.803-.096-1.125-.232-2.416-.911-3.646-1.928z" fill="#fff"/><path d="M61.53 31.222v.422c-.277-.096-.545-.203-.813-.308-4.502-1.755-8.133-4.136-8.133-4.136 3.03-2.152 4.883-4.103 4.883-4.103a10.154 10.154 0 014.062 8.125z" fill="url(#paint2_linear_13265_5707)" fill-opacity=".1"/><path d="M61.53 31.222v.422c-.277-.096-.545-.203-.813-.308-4.502-1.755-8.133-4.136-8.133-4.136 3.03-2.152 4.883-4.103 4.883-4.103a10.154 10.154 0 014.062 8.125z" fill="#DEEEEE"/><path d="M57.467 23.097s-1.853 1.95-4.883 4.103c-2.178 1.544-4.966 3.202-8.11 4.323-1.519.593-3.07.878-3.257.91v-1.21c0-1.398.284-2.739.796-3.95 0-.008 0-.015.008-.015.17-.399.365-.788.584-1.163.399-.682.878-1.307 1.414-1.876a8.03 8.03 0 01.529-.512c.17-.155.34-.3.52-.439a.22.22 0 01.073-.057c.122-.105.252-.194.382-.276.09-.073.17-.138.26-.186.121-.082.252-.163.382-.236a1.85 1.85 0 01.3-.17c.122-.082.244-.148.366-.196.097-.057.195-.105.292-.138.123-.065.245-.122.374-.17.138-.066.285-.123.43-.163.098-.05.204-.081.31-.114.3-.097.6-.18.917-.252.18-.04.358-.073.545-.106h.016a2.12 2.12 0 01.325-.048c.025-.009.05-.009.073-.009.155-.023.317-.04.48-.048a10.115 10.115 0 016.874 1.999z" fill="#DEEEEE"/><path d="M42.842 31.645v-.422c0-1.398.284-2.739.796-3.95 0-.008 0-.015.008-.015.17-.399.365-.788.584-1.163.399-.682.878-1.307 1.414-1.876.172-.179.341-.35.529-.512.17-.155.34-.3.52-.439a.22.22 0 01.073-.057c.122-.105.252-.194.382-.276.09-.073.17-.138.26-.186.122-.082.252-.163.382-.236a1.85 1.85 0 01.3-.17c.122-.082.244-.148.366-.196.097-.057.195-.105.292-.138.122-.065.245-.122.374-.17.138-.066.285-.123.43-.163.098-.05.204-.081.31-.114a10.467 10.467 0 011.462-.358h.016a2.08 2.08 0 01.325-.048c.025-.009.05-.009.073-.009a4.57 4.57 0 01.463-.047 10.23 10.23 0 00-.828-.034c-.26 0-.52.008-.78.033a4.682 4.682 0 00-.48.048c-.024 0-.048 0-.073.009a2.052 2.052 0 00-.325.048h-.016c-.187.033-.365.066-.544.106-.318.073-.618.155-.919.252-.105.033-.211.064-.308.114a2.73 2.73 0 00-.43.162c-.13.049-.252.106-.375.171-.097.032-.195.08-.292.138a1.966 1.966 0 00-.366.195 1.9 1.9 0 00-.3.17c-.13.074-.26.155-.383.236-.088.049-.17.114-.259.187-.13.082-.26.17-.382.276a.222.222 0 00-.073.057 8.32 8.32 0 00-.52.439 8.03 8.03 0 00-.529.512 10.354 10.354 0 00-1.414 1.876 10.39 10.39 0 00-.584 1.163c-.008 0-.008.008-.008.015a10.145 10.145 0 00-.796 3.95v1.21c.117-.02.774-.141 1.625-.374v-.414z" fill="#F0F4F4"/><path d="M61.25 28.862c-.01-.042-.023-.083-.033-.125a9.98 9.98 0 00-.305-.996l-.04-.11a10.312 10.312 0 00-.345-.781 10.395 10.395 0 00-.81-1.4 10.336 10.336 0 00-.718-.917c-.2-.228-.404-.452-.623-.661-.016-.015-.032-.032-.05-.047a10.17 10.17 0 00-.794-.673 3.347 3.347 0 00-.302-.217c-.009-.007-.017-.011-.025-.019-.105-.073-.208-.148-.316-.218-.078-.05-.158-.1-.24-.147a6.453 6.453 0 00-.22-.129c-.048-.028-.096-.061-.142-.08a1.954 1.954 0 00-.354-.19c-.03-.014-.059-.027-.088-.042-.072-.038-.143-.078-.215-.101a2.966 2.966 0 00-.336-.153 8.735 8.735 0 00-.41-.158c-.02-.006-.039-.017-.059-.023-.074-.038-.156-.061-.237-.087-.108-.036-.22-.064-.329-.097a10.048 10.048 0 00-1.21-.287h-.011c-.02-.005-.04-.005-.06-.009-.2-.031-.4-.054-.602-.075-.073-.006-.143-.017-.216-.021-.025-.003-.052-.001-.078-.003a9.916 9.916 0 00-.706-.03c-.205 0-.406.013-.608.026-.058.004-.117.001-.176.007-.01 0-.018.002-.027.003.153.008.305.023.45.045.025 0 .048 0 .073.009.114.008.22.024.325.048h.016c.187.033.366.065.544.106.317.073.618.154.919.252.105.032.21.064.308.113.147.04.293.098.431.163.13.049.252.106.374.17.097.033.194.082.293.139.121.048.243.113.365.195.098.04.203.106.301.17.13.074.26.155.381.236.09.049.172.114.26.187.13.081.26.17.383.276a.238.238 0 01.073.057c.178.138.349.284.52.439.186.162.357.333.527.511a10.345 10.345 0 011.414 1.877c.22.375.414.764.586 1.162.008 0 .008.008.008.016.485 1.148.757 2.416.785 3.734.268.111.54.222.816.329.268.105.536.212.812.308v-.422c0-.415-.025-.825-.074-1.226v-.001a10.24 10.24 0 00-.205-1.133z" fill="#DEEEEE"/><path d="M42.84 51.16v.007s-1.763 4.73-10.375 4.802c-3.56-.048-5.94-.893-7.5-1.86v-1.39l-2.186.82c.107-.925.204-1.843.293-2.721.675-.325 1.292-.724 1.755-1.219.284-.252.487-.553.625-.877a.892.892 0 00.09-.203 3.36 3.36 0 00.236-1.487v-1.934l.04-.04c2.121 2.201 4.558 3.599 6.46 3.599 1.917 0 4.37-1.406 6.5-3.624v1.999c0 2.039 1.983 3.274 4.062 4.127z" fill="#F0F4F4"/><path d="M18.329 52.451c.91-.341 2.156-.627 3.396-1.135 2.08-.853 4.062-1.46 4.062-4.284v-1.999a16.447 16.447 0 001.625 1.485v1.89c0 2.039-1.983 3.274-4.062 4.127-1.235.52-2.503.894-3.413 1.235-2.6.967-3.9 2.2-3.9 4.8v2.274h-1.625v-3.9c0-2.6 1.316-3.526 3.917-4.493z" fill="#fff"/><path d="M32.467 55.97c8.611-.074 10.374-4.803 10.374-4.803v-.008c1.235.52 2.503.894 3.414 1.235 2.6.967 3.899 1.95 3.899 4.55v3.9h-35.75v-3.9c0-.203.008-.398.025-.576.008-.115.024-.22.04-.326.016-.121.04-.243.065-.357.008-.032.016-.074.033-.106.024-.106.048-.203.089-.3.041-.114.082-.228.139-.333a3.21 3.21 0 01.373-.602 2.23 2.23 0 01.227-.26c.082-.08.17-.163.26-.243.26-.22.553-.422.894-.602.105-.065.22-.121.341-.178a2.36 2.36 0 01.366-.171 20.73 20.73 0 011.073-.439c.772-.293 1.828-.552 2.9-.902.073.658.147 1.308.22 1.95l-2.17-.78v3.25l2.438-.926a.786.786 0 00.812 0v.008l2.438.918v-1.86c1.56.967 3.94 1.812 7.5 1.86z" fill="#DEEEEE"/><path d="M19.28 54.041v-1.322l1.804.65.337-.115c-.064-.563-.128-1.13-.191-1.705-.77.25-1.526.455-2.18.658a14.426 14.426 0 00-1.405.516c-.127.053-.249.106-.37.158-.179.08-.35.162-.511.245-.072.036-.145.07-.211.11a6.3 6.3 0 00-.553.343c-.044.031-.084.065-.127.096a3.622 3.622 0 00-.8.824 3.357 3.357 0 00-.178.285c-.315.57-.483 1.26-.483 2.16v3.9h1.625V58.57c0-2.366 1.089-3.596 3.242-4.528z" fill="#F0F4F4"/><path d="M45.279 34.844s.163 4.55-2.438 6.5c-.877.764-1.982 1.097-1.982 1.097 1.618-2.413 2.738-5.29 2.787-8.223v-.008c.43.114.87.22 1.308.309h.325v.325z" fill="#DEEEEE"/><path d="M45.278 32.406v2.113h-.326a22.783 22.783 0 01-1.307-.31c-5.33-1.348-10.205-4.127-13.805-6.62-3.786-2.625-6.158-4.933-6.158-4.933a12.938 12.938 0 018.596-3.25c7.182 0 13 5.818 13 13z" fill="#DEEEEE"/><path d="M32.278 19.406c-.285 0-.566.022-.846.04 6.817.404 12.22 6.04 12.22 12.96v1.806c.43.113.864.218 1.3.306h.326v-2.112c0-7.182-5.817-13-13-13z" fill="#DEEEEE"/><path d="M23.919 42.742c-1.764-2.511-3.007-5.59-3.007-8.71v-1.447c5.258-2.185 8.93-4.997 8.93-4.997 3.599 2.494 8.474 5.273 13.804 6.622v.008c-.05 2.934-1.17 5.81-2.787 8.223a18.29 18.29 0 01-2.08 2.592c-2.129 2.218-4.582 3.624-6.5 3.624-1.901 0-4.338-1.397-6.46-3.6a16.753 16.753 0 01-1.9-2.316z" fill="#F0F4F4"/><path d="M42.02 34.21v.008c-.049 2.934-1.169 5.81-2.786 8.223a18.266 18.266 0 01-2.08 2.592c-1.839 1.915-3.917 3.22-5.685 3.541.277.051.55.083.81.083 1.918 0 4.371-1.406 6.5-3.624a18.283 18.283 0 002.08-2.592c1.617-2.413 2.737-5.29 2.786-8.223v-.008l-1.63-.46.006.46z" fill="#DEEEEE"/><path d="M27.445 45.058a16.719 16.719 0 01-1.901-2.316c-1.764-2.511-3.007-5.59-3.007-8.71v-2.135l-1.625.688v1.446c0 3.12 1.244 6.2 3.007 8.71a16.746 16.746 0 001.9 2.316c2.122 2.202 4.559 3.6 6.46 3.6.262 0 .535-.031.815-.083-1.754-.32-3.819-1.616-5.65-3.516z" fill="#fff"/><path d="M20.912 32.585c-.527.22-1.072.43-1.633.634v-.813c0-3.884 1.706-7.377 4.404-9.75 0 0 2.372 2.308 6.159 4.932 0 0-3.672 2.812-8.93 4.997z" fill="#DEEEEE"/><path d="M20.904 32.406c0-3.884 1.706-7.377 4.404-9.75a12.932 12.932 0 017.75-3.21c-.26-.016-.516-.04-.779-.04a12.938 12.938 0 00-8.596 3.25 12.957 12.957 0 00-4.404 9.75v.813a38.53 38.53 0 001.625-.631v-.182zm4.063 21.702v1.861l-2.438-.918v-.008a.8.8 0 00.407-.699.8.8 0 00-.407-.699v-.008l.252-.098 2.186-.82v1.39z" fill="#F0F4F4"/><path d="M23.074 50.818c-.09.878-.187 1.796-.293 2.722l-.252.097v.008a.742.742 0 00-.406-.113.724.724 0 00-.39.105l-.016-.04-.268-.098-.22-1.95c-.982-8.88-1.95-18.33-1.95-18.33a36.807 36.807 0 001.633-.634v1.446c0 3.12 1.244 6.2 3.007 8.71-.04.35-.39 3.795-.845 8.077z" fill="#DEEEEE"/><path d="M22.53 53.645a.8.8 0 01.406.7.8.8 0 01-.407.698.787.787 0 01-.813 0 .8.8 0 01-.405-.699c0-.308.17-.577.422-.707a.725.725 0 01.39-.105.74.74 0 01.406.113z" fill="#F0F4F4"/><path d="M21.449 53.5l.268.097.016.04a.792.792 0 00-.422.707.8.8 0 00.406.7l-2.438.925v-3.25l2.17.78z" fill="#F0F4F4"/><path d="M21.56 55.197l.562 4.105.568-4.145-1.13.04zm24.685-2.803c-.91-.341-2.179-.715-3.413-1.235-2.08-.853-4.063-2.088-4.063-4.127v-1.999a16.447 16.447 0 01-1.624 1.485v1.89c0 2.039 1.982 3.274 4.062 4.127 1.234.52 2.502.894 3.413 1.235 2.6.967 3.9 2.2 3.9 4.8v2.274h1.624v-3.9c0-2.6-1.3-3.583-3.899-4.55z" fill="#DEEEEE"/><path d="M42.834 51.16c-2.08-.854-4.063-2.09-4.063-4.128V45.04a16.614 16.614 0 01-1.624 1.484v1.883c0 2.039 1.982 3.274 4.062 4.127.18.076.36.143.54.213.822-.872 1.093-1.58 1.093-1.58v-.006c-.003 0-.006-.002-.008-.003z" fill="#DEEEEE"/><path d="M51.374 44.188c-1.695 0-4-1.317-6.014-3.437a.406.406 0 11.589-.56c1.838 1.935 3.968 3.185 5.425 3.185 1.605 0 3.829-1.309 5.663-3.334 2.082-2.298 3.275-5.081 3.275-7.636a.406.406 0 11.813 0c0 6.075-6.083 11.782-9.75 11.782z" fill="url(#paint3_linear_13265_5707)"/><path d="M40.407 47.163a.407.407 0 01-.133-.79c.417-.144.933-.282 1.48-.428 2.002-.537 4.746-1.272 4.746-2.976a.406.406 0 11.813 0c0 2.328-3.092 3.156-5.35 3.76a21.94 21.94 0 00-1.424.412.41.41 0 01-.133.022z" fill="url(#paint4_linear_13265_5707)"/><path d="M65.594 53.938h-14.76a.406.406 0 110-.813h14.354V50.43c0-1.864-.876-2.505-2.838-3.238-.408-.152-.969-.302-1.562-.462-2.258-.604-5.35-1.432-5.35-3.76a.406.406 0 11.812 0c0 1.704 2.744 2.44 4.747 2.976.614.164 1.194.319 1.637.484 2.183.815 3.366 1.694 3.366 4v3.103a.406.406 0 01-.406.406z" fill="url(#paint5_linear_13265_5707)"/><path d="M46.906 43.375a.406.406 0 01-.406-.406v-1.317a.406.406 0 11.813 0v1.317a.406.406 0 01-.407.406z" fill="url(#paint6_linear_13265_5707)"/><path d="M55.844 43.375a.406.406 0 01-.407-.406v-1.224a.406.406 0 11.813 0v1.224a.406.406 0 01-.406.406z" fill="url(#paint7_linear_13265_5707)"/><path d="M61.532 31.593a.406.406 0 01-.406-.406c0-5.376-4.374-9.75-9.75-9.75a9.686 9.686 0 00-6.865 2.827.408.408 0 01-.573-.578 10.497 10.497 0 017.437-3.061c5.824 0 10.563 4.738 10.563 10.562a.406.406 0 01-.406.406z" fill="url(#paint8_linear_13265_5707)"/><path d="M61.531 45.813a.406.406 0 01-.406-.406v-14.22a.406.406 0 11.813 0v14.22a.406.406 0 01-.407.406z" fill="url(#paint9_linear_13265_5707)"/><path d="M46.787 30.952a.408.408 0 01-.169-.776c6.162-2.821 10.513-7.35 10.555-7.394a.407.407 0 01.59.56c-.045.046-4.497 4.684-10.807 7.573a.41.41 0 01-.169.037z" fill="url(#paint10_linear_13265_5707)"/><path d="M61.53 32.01a.408.408 0 01-.138-.025c-4.85-1.766-8.985-4.457-9.026-4.484a.405.405 0 11.444-.679c.04.026 4.1 2.666 8.86 4.4a.406.406 0 01-.14.788z" fill="url(#paint11_linear_13265_5707)"/><path d="M51.375 50.32c-7.172 0-8.84-3.933-8.908-4.1a.407.407 0 01.753-.307c.062.15 1.57 3.594 8.155 3.594 6.588 0 8.095-3.447 8.156-3.594a.412.412 0 01.53-.221c.206.084.306.32.223.527-.067.168-1.736 4.1-8.909 4.1z" fill="url(#paint12_linear_13265_5707)"/><path d="M32.282 49.063c-4.43 0-11.774-7.28-11.774-15.032a.406.406 0 11.812 0c0 3.27 1.445 6.858 3.965 9.843 2.244 2.659 4.99 4.377 6.997 4.377a.406.406 0 110 .812z" fill="url(#paint13_linear_13265_5707)"/><path d="M32.285 49.063a.406.406 0 110-.813c3.924 0 10.01-6.252 10.857-12.647a.407.407 0 01.806.106c-.911 6.878-7.343 13.354-11.663 13.354z" fill="url(#paint14_linear_13265_5707)"/><path d="M50.156 61.25h-35.75a.406.406 0 01-.406-.406v-3.899c0-2.635 1.283-3.682 3.5-4.601a.405.405 0 11.312.75c-1.99.825-3 1.647-3 3.851v3.493H49.75v-3.493c0-2.39-1.173-3.25-3.636-4.17a42.33 42.33 0 00-1.11-.387c-2.64-.9-6.629-2.256-6.629-5.356a.406.406 0 11.813 0c0 2.517 3.657 3.762 6.078 4.586.414.14.797.271 1.132.396 2.7 1.009 4.165 2.094 4.165 4.931v3.9a.406.406 0 01-.407.406z" fill="url(#paint15_linear_13265_5707)"/><path d="M24.614 50.2a.406.406 0 01-.245-.73c.686-.517 1.006-1.292 1.006-2.438a.406.406 0 11.813 0c0 1.403-.436 2.413-1.33 3.086a.402.402 0 01-.244.082z" fill="url(#paint16_linear_13265_5707)"/><path d="M38.781 47.438a.406.406 0 01-.406-.406v-1.997a.406.406 0 11.813 0v1.997a.406.406 0 01-.407.406z" fill="url(#paint17_linear_13265_5707)"/><path d="M25.781 47.438a.406.406 0 01-.406-.406v-1.93a.406.406 0 11.813 0v1.93a.406.406 0 01-.407.406z" fill="url(#paint18_linear_13265_5707)"/><path d="M45.281 32.813a.406.406 0 01-.406-.407c0-6.944-5.65-12.593-12.594-12.593-6.944 0-12.593 5.649-12.593 12.593a.406.406 0 11-.813 0C18.875 25.014 24.889 19 32.281 19s13.407 6.014 13.407 13.406a.406.406 0 01-.407.407z" fill="url(#paint19_linear_13265_5707)"/><path d="M42.843 41.751a.407.407 0 01-.243-.731c2.402-1.802 2.276-6.119 2.275-6.162a.407.407 0 01.392-.42c.22.006.412.167.42.391.007.195.14 4.787-2.6 6.841a.404.404 0 01-.244.081z" fill="url(#paint20_linear_13265_5707)"/><path d="M44.958 34.926a.357.357 0 01-.083-.009C33.375 32.544 23.5 23.044 23.4 22.947a.406.406 0 01.567-.582c.097.094 9.807 9.432 21.072 11.758a.405.405 0 01-.081.803z" fill="url(#paint21_linear_13265_5707)"/><path d="M19.281 33.625a.406.406 0 01-.139-.788c5.98-2.178 10.411-5.537 10.455-5.572a.406.406 0 01.494.646c-.045.034-4.57 3.468-10.67 5.69a.402.402 0 01-.14.024z" fill="url(#paint22_linear_13265_5707)"/><path d="M32.285 56.376a.406.406 0 110-.813c8.35 0 10.109-4.356 10.18-4.541a.405.405 0 01.76.284c-.077.207-1.986 5.07-10.94 5.07z" fill="url(#paint23_linear_13265_5707)"/><path d="M32.279 56.376c-2.195 0-4.153-.299-5.82-.887a.407.407 0 01.27-.766c1.58.558 3.448.84 5.55.84a.406.406 0 110 .813z" fill="url(#paint24_linear_13265_5707)"/><path d="M21.719 54.005a.42.42 0 01-.138-.023l-2.438-.88a.407.407 0 01.276-.765l2.438.88a.407.407 0 01-.138.788z" fill="url(#paint25_linear_13265_5707)"/><path d="M19.281 56.376a.406.406 0 01-.406-.407v-3.25a.406.406 0 11.813 0v3.25a.406.406 0 01-.407.407z" fill="url(#paint26_linear_13265_5707)"/><path d="M19.281 56.376a.406.406 0 01-.144-.787l2.438-.925a.407.407 0 01.288.76l-2.438.925a.417.417 0 01-.144.027z" fill="url(#paint27_linear_13265_5707)"/><path d="M24.969 56.376a.416.416 0 01-.144-.027l-2.437-.92a.406.406 0 11.287-.76l2.438.92a.406.406 0 01-.144.787z" fill="url(#paint28_linear_13265_5707)"/><path d="M24.969 56.376a.406.406 0 01-.407-.407v-3.25a.406.406 0 11.813 0v3.25a.406.406 0 01-.406.407z" fill="url(#paint29_linear_13265_5707)"/><path d="M22.532 54.046a.406.406 0 01-.144-.786l2.437-.92a.406.406 0 11.287.76l-2.437.92a.412.412 0 01-.143.026z" fill="url(#paint30_linear_13265_5707)"/><path d="M22.128 55.563a1.22 1.22 0 010-2.438 1.22 1.22 0 110 2.438zm0-1.626a.406.406 0 10.002.813.406.406 0 00-.002-.813z" fill="url(#paint31_linear_13265_5707)"/><path d="M21.26 52.166a.406.406 0 01-.404-.36 2442.062 2442.062 0 01-1.979-18.546.406.406 0 01.809-.082c.01.099 1.03 10.057 1.978 18.537a.407.407 0 01-.404.451z" fill="url(#paint32_linear_13265_5707)"/><path d="M22.125 59.626a.406.406 0 01-.403-.456c.088-.71.184-1.523.285-2.398a.412.412 0 01.45-.357.407.407 0 01.357.45c-.1.877-.198 1.694-.286 2.404a.406.406 0 01-.403.357z" fill="url(#paint33_linear_13265_5707)"/><path d="M22.129 59.626a.406.406 0 01-.403-.357c-.088-.71-.185-1.527-.286-2.403a.407.407 0 01.357-.45.408.408 0 01.45.356c.101.874.198 1.689.285 2.397a.406.406 0 01-.403.457z" fill="url(#paint34_linear_13265_5707)"/><path d="M22.977 52.123l-.044-.003a.406.406 0 01-.36-.447c.405-3.758.75-7.12.75-7.12a.406.406 0 11.809.082c-.001 0-.346 3.364-.752 7.125a.407.407 0 01-.403.363z" fill="url(#paint35_linear_13265_5707)"/><path d="M19.281 33.625a.406.406 0 01-.406-.406v-.813a.406.406 0 11.813 0v.813a.406.406 0 01-.407.406z" fill="url(#paint36_linear_13265_5707)"/><path d="M45.281 35.25a.406.406 0 01-.406-.406v-2.438a.406.406 0 11.813 0v2.438a.406.406 0 01-.407.406z" fill="url(#paint37_linear_13265_5707)"/><path d="M21.719 49.875a.406.406 0 01-.288-.693l.813-.813a.406.406 0 11.575.575l-.813.812a.405.405 0 01-.287.12z" fill="url(#paint38_linear_13265_5707)"/><path d="M22.531 49.875a.406.406 0 01-.287-.119l-.813-.812a.406.406 0 11.575-.575l.813.813a.406.406 0 01-.288.693z" fill="url(#paint39_linear_13265_5707)"/><path d="M21.719 47.438a.405.405 0 01-.288-.694l.813-.812a.406.406 0 11.575.574l-.813.813a.405.405 0 01-.287.119z" fill="url(#paint40_linear_13265_5707)"/><path d="M22.531 47.438a.405.405 0 01-.287-.12l-.813-.812a.406.406 0 11.575-.574l.813.812a.406.406 0 01-.288.694z" fill="url(#paint41_linear_13265_5707)"/><path d="M21.719 45a.405.405 0 01-.288-.693l.813-.813a.406.406 0 11.575.575l-.813.812a.405.405 0 01-.287.12z" fill="url(#paint42_linear_13265_5707)"/><path d="M22.531 45a.405.405 0 01-.287-.119l-.813-.812a.406.406 0 11.575-.575l.813.813a.406.406 0 01-.288.693z" fill="url(#paint43_linear_13265_5707)"/><defs><linearGradient id="paint0_linear_13265_5707" x1="41.217" y1="32.514" x2="50.713" y2="35.883" gradientUnits="userSpaceOnUse"><stop stop-color="#F99073"/><stop offset="1" stop-color="#D2957E"/></linearGradient><linearGradient id="paint1_linear_13265_5707" x1="55.842" y1="31.415" x2="65.489" y2="34.588" gradientUnits="userSpaceOnUse"><stop stop-color="#F99073"/><stop offset="1" stop-color="#D2957E"/></linearGradient><linearGradient id="paint2_linear_13265_5707" x1="52.584" y1="23.142" x2="61.684" y2="31.521" gradientUnits="userSpaceOnUse"><stop stop-color="#F99073"/><stop offset="1" stop-color="#D2957E"/></linearGradient><linearGradient id="paint3_linear_13265_5707" x1="42.52" y1="34.782" x2="77.806" y2="21.134" gradientUnits="userSpaceOnUse"><stop stop-color="#46A29F"/><stop offset="1" stop-color="#4660A2"/></linearGradient><linearGradient id="paint4_linear_13265_5707" x1="38.743" y1="43.613" x2="54.024" y2="36.401" gradientUnits="userSpaceOnUse"><stop stop-color="#46A29F"/><stop offset="1" stop-color="#4660A2"/></linearGradient><linearGradient id="paint5_linear_13265_5707" x1="47.752" y1="45.16" x2="81.898" y2="31.28" gradientUnits="userSpaceOnUse"><stop stop-color="#46A29F"/><stop offset="1" stop-color="#4660A2"/></linearGradient><linearGradient id="paint6_linear_13265_5707" x1="46.36" y1="41.732" x2="48.41" y2="41.5" gradientUnits="userSpaceOnUse"><stop stop-color="#46A29F"/><stop offset="1" stop-color="#4660A2"/></linearGradient><linearGradient id="paint7_linear_13265_5707" x1="55.298" y1="41.804" x2="57.345" y2="41.561" gradientUnits="userSpaceOnUse"><stop stop-color="#46A29F"/><stop offset="1" stop-color="#4660A2"/></linearGradient><linearGradient id="paint8_linear_13265_5707" x1="40.705" y1="23.129" x2="78.023" y2="4.824" gradientUnits="userSpaceOnUse"><stop stop-color="#46A29F"/><stop offset="1" stop-color="#4660A2"/></linearGradient><linearGradient id="paint9_linear_13265_5707" x1="60.985" y1="34.212" x2="63.061" y2="34.179" gradientUnits="userSpaceOnUse"><stop stop-color="#46A29F"/><stop offset="1" stop-color="#4660A2"/></linearGradient><linearGradient id="paint10_linear_13265_5707" x1="44.406" y1="24.549" x2="69.523" y2="14.218" gradientUnits="userSpaceOnUse"><stop stop-color="#46A29F"/><stop offset="1" stop-color="#4660A2"/></linearGradient><linearGradient id="paint11_linear_13265_5707" x1="50.505" y1="27.955" x2="69.622" y2="17.416" gradientUnits="userSpaceOnUse"><stop stop-color="#46A29F"/><stop offset="1" stop-color="#4660A2"/></linearGradient><linearGradient id="paint12_linear_13265_5707" x1="39.366" y1="46.724" x2="59.241" y2="24.08" gradientUnits="userSpaceOnUse"><stop stop-color="#46A29F"/><stop offset="1" stop-color="#4660A2"/></linearGradient><linearGradient id="paint13_linear_13265_5707" x1="18.415" y1="37.149" x2="47.917" y2="30.238" gradientUnits="userSpaceOnUse"><stop stop-color="#46A29F"/><stop offset="1" stop-color="#4660A2"/></linearGradient><linearGradient id="paint14_linear_13265_5707" x1="29.804" y1="38.403" x2="58.705" y2="30.903" gradientUnits="userSpaceOnUse"><stop stop-color="#46A29F"/><stop offset="1" stop-color="#4660A2"/></linearGradient><linearGradient id="paint15_linear_13265_5707" x1="7.717" y1="49.964" x2="67.949" y2="5.254" gradientUnits="userSpaceOnUse"><stop stop-color="#46A29F"/><stop offset="1" stop-color="#4660A2"/></linearGradient><linearGradient id="paint16_linear_13265_5707" x1="23.867" y1="47.441" x2="28.794" y2="46.631" gradientUnits="userSpaceOnUse"><stop stop-color="#46A29F"/><stop offset="1" stop-color="#4660A2"/></linearGradient><linearGradient id="paint17_linear_13265_5707" x1="38.235" y1="45.27" x2="40.296" y2="45.093" gradientUnits="userSpaceOnUse"><stop stop-color="#46A29F"/><stop offset="1" stop-color="#4660A2"/></linearGradient><linearGradient id="paint18_linear_13265_5707" x1="25.235" y1="45.322" x2="27.296" y2="45.141" gradientUnits="userSpaceOnUse"><stop stop-color="#46A29F"/><stop offset="1" stop-color="#4660A2"/></linearGradient><linearGradient id="paint19_linear_13265_5707" x1="14.268" y1="22.153" x2="65.692" y2="-7.486" gradientUnits="userSpaceOnUse"><stop stop-color="#46A29F"/><stop offset="1" stop-color="#4660A2"/></linearGradient><linearGradient id="paint20_linear_13265_5707" x1="41.879" y1="36.107" x2="50.047" y2="35.028" gradientUnits="userSpaceOnUse"><stop stop-color="#46A29F"/><stop offset="1" stop-color="#4660A2"/></linearGradient><linearGradient id="paint21_linear_13265_5707" x1="19.482" y1="25.144" x2="63.999" y2="2.115" gradientUnits="userSpaceOnUse"><stop stop-color="#46A29F"/><stop offset="1" stop-color="#4660A2"/></linearGradient><linearGradient id="paint22_linear_13265_5707" x1="16.92" y1="28.653" x2="39.72" y2="16.702" gradientUnits="userSpaceOnUse"><stop stop-color="#46A29F"/><stop offset="1" stop-color="#4660A2"/></linearGradient><linearGradient id="paint23_linear_13265_5707" x1="29.925" y1="52.042" x2="51.265" y2="39.21" gradientUnits="userSpaceOnUse"><stop stop-color="#46A29F"/><stop offset="1" stop-color="#4660A2"/></linearGradient><linearGradient id="paint24_linear_13265_5707" x1="25.071" y1="55.082" x2="32.212" y2="46.862" gradientUnits="userSpaceOnUse"><stop stop-color="#46A29F"/><stop offset="1" stop-color="#4660A2"/></linearGradient><linearGradient id="paint25_linear_13265_5707" x1="18.317" y1="52.7" x2="24.582" y2="49.126" gradientUnits="userSpaceOnUse"><stop stop-color="#46A29F"/><stop offset="1" stop-color="#4660A2"/></linearGradient><linearGradient id="paint26_linear_13265_5707" x1="18.735" y1="53.24" x2="20.804" y2="53.117" gradientUnits="userSpaceOnUse"><stop stop-color="#46A29F"/><stop offset="1" stop-color="#4660A2"/></linearGradient><linearGradient id="paint27_linear_13265_5707" x1="18.317" y1="55.035" x2="24.662" y2="51.51" gradientUnits="userSpaceOnUse"><stop stop-color="#46A29F"/><stop offset="1" stop-color="#4660A2"/></linearGradient><linearGradient id="paint28_linear_13265_5707" x1="21.567" y1="55.038" x2="27.905" y2="51.508" gradientUnits="userSpaceOnUse"><stop stop-color="#46A29F"/><stop offset="1" stop-color="#4660A2"/></linearGradient><linearGradient id="paint29_linear_13265_5707" x1="24.423" y1="53.24" x2="26.492" y2="53.117" gradientUnits="userSpaceOnUse"><stop stop-color="#46A29F"/><stop offset="1" stop-color="#4660A2"/></linearGradient><linearGradient id="paint30_linear_13265_5707" x1="21.567" y1="52.709" x2="27.904" y2="49.178" gradientUnits="userSpaceOnUse"><stop stop-color="#46A29F"/><stop offset="1" stop-color="#4660A2"/></linearGradient><linearGradient id="paint31_linear_13265_5707" x1="20.491" y1="53.681" x2="26.215" y2="51.982" gradientUnits="userSpaceOnUse"><stop stop-color="#46A29F"/><stop offset="1" stop-color="#4660A2"/></linearGradient><linearGradient id="paint32_linear_13265_5707" x1="18.395" y1="37.23" x2="25.515" y2="36.925" gradientUnits="userSpaceOnUse"><stop stop-color="#46A29F"/><stop offset="1" stop-color="#4660A2"/></linearGradient><linearGradient id="paint33_linear_13265_5707" x1="21.53" y1="57.147" x2="24.307" y2="56.865" gradientUnits="userSpaceOnUse"><stop stop-color="#46A29F"/><stop offset="1" stop-color="#4660A2"/></linearGradient><linearGradient id="paint34_linear_13265_5707" x1="21.249" y1="57.147" x2="24.026" y2="56.865" gradientUnits="userSpaceOnUse"><stop stop-color="#46A29F"/><stop offset="1" stop-color="#4660A2"/></linearGradient><linearGradient id="paint35_linear_13265_5707" x1="22.302" y1="45.999" x2="26.28" y2="45.767" gradientUnits="userSpaceOnUse"><stop stop-color="#46A29F"/><stop offset="1" stop-color="#4660A2"/></linearGradient><linearGradient id="paint36_linear_13265_5707" x1="18.735" y1="32.371" x2="20.767" y2="32.069" gradientUnits="userSpaceOnUse"><stop stop-color="#46A29F"/><stop offset="1" stop-color="#4660A2"/></linearGradient><linearGradient id="paint37_linear_13265_5707" x1="44.735" y1="32.742" x2="46.8" y2="32.589" gradientUnits="userSpaceOnUse"><stop stop-color="#46A29F"/><stop offset="1" stop-color="#4660A2"/></linearGradient><linearGradient id="paint38_linear_13265_5707" x1="21.033" y1="48.621" x2="24.849" y2="47.488" gradientUnits="userSpaceOnUse"><stop stop-color="#46A29F"/><stop offset="1" stop-color="#4660A2"/></linearGradient><linearGradient id="paint39_linear_13265_5707" x1="21.033" y1="48.621" x2="24.849" y2="47.488" gradientUnits="userSpaceOnUse"><stop stop-color="#46A29F"/><stop offset="1" stop-color="#4660A2"/></linearGradient><linearGradient id="paint40_linear_13265_5707" x1="21.033" y1="46.184" x2="24.849" y2="45.051" gradientUnits="userSpaceOnUse"><stop stop-color="#46A29F"/><stop offset="1" stop-color="#4660A2"/></linearGradient><linearGradient id="paint41_linear_13265_5707" x1="21.033" y1="46.184" x2="24.849" y2="45.051" gradientUnits="userSpaceOnUse"><stop stop-color="#46A29F"/><stop offset="1" stop-color="#4660A2"/></linearGradient><linearGradient id="paint42_linear_13265_5707" x1="21.033" y1="43.746" x2="24.849" y2="42.614" gradientUnits="userSpaceOnUse"><stop stop-color="#46A29F"/><stop offset="1" stop-color="#4660A2"/></linearGradient><linearGradient id="paint43_linear_13265_5707" x1="21.033" y1="43.746" x2="24.849" y2="42.614" gradientUnits="userSpaceOnUse"><stop stop-color="#46A29F"/><stop offset="1" stop-color="#4660A2"/></linearGradient></defs></svg>