<svg width="80" height="80" fill="none" xmlns="http://www.w3.org/2000/svg"><path d="M54.625 27.813c2.852 2.835 6.086 6.101 8.938 8.937h-8.938v-8.938z" fill="#fff"/><path d="M55.25 62.25a3.25 3.25 0 100-6.5 3.25 3.25 0 000 6.5z" fill="#F0F4F4"/><path d="M63.563 36.75v28.438h-26V27.812h17.062v8.938h8.938zm-4.876 21.938a3.25 3.25 0 10-6.5 0 3.25 3.25 0 006.5 0z" fill="#fff"/><path d="M51.375 14.813l-5.688 8.124H22.125l-5.688-8.125h34.938z" fill="#DEEEEE"/><path d="M37.563 27.813v37.374H16.436V14.813l5.688 8.124h23.563l5.687-8.125v13H37.562z" fill="#F0F4F4"/><path d="M58.687 49.94H42.441c-.215 0-.422-.054-.574-.147-.152-.094-.238-.221-.238-.354 0-.133.086-.26.238-.353.152-.094.359-.147.574-.147h16.246c.216 0 .423.053.575.147.152.093.238.22.238.353 0 .133-.086.26-.238.354a1.118 1.118 0 01-.575.146z" fill="url(#paint0_linear_13265_5802)"/><path d="M58.687 45.874H42.441c-.215 0-.422-.053-.574-.146-.152-.094-.238-.221-.238-.354 0-.133.086-.26.238-.353.152-.094.359-.147.574-.147h16.246c.216 0 .423.053.575.147.152.093.238.22.238.353 0 .133-.086.26-.238.354a1.118 1.118 0 01-.575.146z" fill="url(#paint1_linear_13265_5802)"/><path d="M58.687 41.809H42.441c-.215 0-.422-.053-.574-.147-.152-.094-.238-.22-.238-.353 0-.133.086-.26.238-.354.152-.094.359-.146.574-.146h16.246c.216 0 .423.052.575.146.152.094.238.22.238.354 0 .132-.086.26-.238.353a1.118 1.118 0 01-.575.147z" fill="url(#paint2_linear_13265_5802)"/><path d="M49.76 54h-7.309c-.215 0-.422-.053-.574-.146-.153-.094-.238-.221-.238-.354 0-.133.085-.26.238-.354.152-.093.359-.146.574-.146h7.31c.215 0 .422.053.574.146.152.094.238.221.238.354 0 .133-.086.26-.238.354a1.119 1.119 0 01-.575.146z" fill="url(#paint3_linear_13265_5802)"/><path d="M55.453 59.625A.813.813 0 0155.445 58h.008a.812.812 0 110 1.625z" fill="url(#paint4_linear_13265_5802)"/><path d="M58.832 58.986a3.5 3.5 0 11-7 0 3.5 3.5 0 017 0z" stroke="url(#paint5_linear_13265_5802)"/><rect x="55" y="28" width="1" height="10" rx=".5" fill="url(#paint6_linear_13265_5802)"/><path d="M63 37a.5.5 0 010 1h-7.5a.5.5 0 110-1H63z" fill="url(#paint7_linear_13265_5802)"/><path fill-rule="evenodd" clip-rule="evenodd" d="M17 65V15h34v13h1V15a1 1 0 00-1-1H17a1 1 0 00-1 1v50a1 1 0 001 1h33v-1H17z" fill="url(#paint8_linear_13265_5802)"/><path d="M17 15l4.706 7.53a1 1 0 00.848.47h22.892a1 1 0 00.848-.47L51 15" stroke="url(#paint9_linear_13265_5802)" stroke-linecap="round" stroke-linejoin="round"/><path d="M59.605 32.807l.006.007.005.006 2.492 2.99 1.292 1.723a.5.5 0 01.1.3V65a.5.5 0 01-.5.5H38a.5.5 0 01-.5-.5V29a.5.5 0 01.5-.5h18.011a.5.5 0 01.395.193l3.2 4.114z" stroke="url(#paint10_linear_13265_5802)"/><defs><linearGradient id="paint0_linear_13265_5802" x1="38.558" y1="49.167" x2="40.124" y2="40.857" gradientUnits="userSpaceOnUse"><stop stop-color="#46A29F"/><stop offset="1" stop-color="#4660A2"/></linearGradient><linearGradient id="paint1_linear_13265_5802" x1="38.558" y1="45.102" x2="40.124" y2="36.792" gradientUnits="userSpaceOnUse"><stop stop-color="#46A29F"/><stop offset="1" stop-color="#4660A2"/></linearGradient><linearGradient id="paint2_linear_13265_5802" x1="38.558" y1="41.037" x2="40.124" y2="32.727" gradientUnits="userSpaceOnUse"><stop stop-color="#46A29F"/><stop offset="1" stop-color="#4660A2"/></linearGradient><linearGradient id="paint3_linear_13265_5802" x1="40.103" y1="53.228" x2="42.944" y2="45.694" gradientUnits="userSpaceOnUse"><stop stop-color="#46A29F"/><stop offset="1" stop-color="#4660A2"/></linearGradient><linearGradient id="paint4_linear_13265_5802" x1="54.357" y1="58.371" x2="58.18" y2="57.233" gradientUnits="userSpaceOnUse"><stop stop-color="#46A29F"/><stop offset="1" stop-color="#4660A2"/></linearGradient><linearGradient id="paint5_linear_13265_5802" x1="49.957" y1="56.813" x2="68.742" y2="51.235" gradientUnits="userSpaceOnUse"><stop stop-color="#46A29F"/><stop offset="1" stop-color="#4660A2"/></linearGradient><linearGradient id="paint6_linear_13265_5802" x1="54.828" y1="30.283" x2="57.381" y2="30.207" gradientUnits="userSpaceOnUse"><stop stop-color="#46A29F"/><stop offset="1" stop-color="#4660A2"/></linearGradient><linearGradient id="paint7_linear_13265_5802" x1="61.56" y1="36.828" x2="61.649" y2="39.38" gradientUnits="userSpaceOnUse"><stop stop-color="#46A29F"/><stop offset="1" stop-color="#4660A2"/></linearGradient><linearGradient id="paint8_linear_13265_5802" x1="9.814" y1="25.87" x2="98.067" y2="7.729" gradientUnits="userSpaceOnUse"><stop stop-color="#46A29F"/><stop offset="1" stop-color="#4660A2"/></linearGradient><linearGradient id="paint9_linear_13265_5802" x1="11.157" y1="16.826" x2="44.668" y2="-25.461" gradientUnits="userSpaceOnUse"><stop stop-color="#46A29F"/><stop offset="1" stop-color="#4660A2"/></linearGradient><linearGradient id="paint10_linear_13265_5802" x1="32.36" y1="36.675" x2="98.408" y2="22.741" gradientUnits="userSpaceOnUse"><stop stop-color="#46A29F"/><stop offset="1" stop-color="#4660A2"/></linearGradient></defs></svg>