<svg width="80" height="80" fill="none" xmlns="http://www.w3.org/2000/svg"><path d="M67.125 20.26v3.5h-54.25v-3.5h54.25z" fill="#DEEEEE"/><path d="M27.75 35.135a1.75 1.75 0 110 3.5 1.71 1.71 0 01-1.234-.516A1.71 1.71 0 0126 36.885c0-.971.788-1.75 1.75-1.75z" fill="url(#paint0_linear_13265_5824)"/><path d="M27.75 29.01v6.125a1.75 1.75 0 00-1.75 1.75c0 .481.192.919.516 1.234l-4.331 4.331a7.835 7.835 0 01-2.31-5.565 7.876 7.876 0 017.875-7.875z" fill="#DEEEEE"/><path d="M27.75 29.01a7.876 7.876 0 010 15.75 7.835 7.835 0 01-5.564-2.31l4.33-4.331c.316.324.753.516 1.235.516a1.75 1.75 0 100-3.5V29.01z" fill="#fff"/><path d="M66.25 23.76v35h-52.5v-35h52.5zM35.625 36.885a7.876 7.876 0 00-15.75 0c0 2.17.884 4.148 2.31 5.565a7.835 7.835 0 005.565 2.31 7.876 7.876 0 007.875-7.875z" fill="url(#paint1_linear_13265_5824)"/><path d="M59.125 45.885h-15.75c-.481 0-.875-.225-.875-.5s.394-.5.875-.5h15.75c.481 0 .875.225.875.5s-.385.5-.875.5z" fill="url(#paint2_linear_13265_5824)"/><path d="M44 45.635c-.275 0-.5-.394-.5-.875V29.01c0-.481.225-.875.5-.875s.5.394.5.875v15.75c0 .481-.22.875-.5.875z" fill="url(#paint3_linear_13265_5824)"/><path d="M47.5 45.635c-.275 0-.5-.394-.5-.875v-6.125c0-.481.225-.875.5-.875s.5.394.5.875v6.125c0 .481-.225.875-.5.875z" fill="url(#paint4_linear_13265_5824)"/><path d="M51 45.635c-.275 0-.5-.394-.5-.875V33.385c0-.481.225-.875.5-.875s.5.394.5.875V44.76c0 .481-.22.875-.5.875z" fill="url(#paint5_linear_13265_5824)"/><path d="M58 45.635c-.275 0-.5-.394-.5-.875v-8.75c0-.481.225-.875.5-.875s.5.394.5.875v8.75c0 .481-.225.875-.5.875z" fill="url(#paint6_linear_13265_5824)"/><path d="M54.5 45.635c-.275 0-.5-.394-.5-.875v-4.375c0-.481.225-.875.5-.875s.5.394.5.875v4.375c0 .481-.225.875-.5.875z" fill="url(#paint7_linear_13265_5824)"/><path d="M61.875 50.26h-19.25c-.481 0-.875-.225-.875-.5s.394-.5.875-.5h19.25c.481 0 .875.225.875.5s-.394.5-.875.5z" fill="url(#paint8_linear_13265_5824)"/><path d="M58.375 52.885h-12.25c-.481 0-.875-.225-.875-.5s.394-.5.875-.5h12.25c.481 0 .875.225.875.5s-.394.5-.875.5z" fill="url(#paint9_linear_13265_5824)"/><path d="M37.375 50.26h-19.25c-.481 0-.875-.225-.875-.5s.394-.5.875-.5h19.25c.481 0 .875.225.875.5s-.394.5-.875.5z" fill="url(#paint10_linear_13265_5824)"/><path d="M33.875 52.885h-12.25c-.481 0-.875-.225-.875-.5s.394-.5.875-.5h12.25c.481 0 .875.225.875.5s-.394.5-.875.5z" fill="url(#paint11_linear_13265_5824)"/><path d="M28 29.5v6" stroke="url(#paint12_linear_13265_5824)" stroke-linecap="round" stroke-linejoin="round"/><path d="M22.5 41.5l4-3.5" stroke="url(#paint13_linear_13265_5824)" stroke-linecap="round" stroke-linejoin="round"/><circle cx="28" cy="37" r="7.5" stroke="url(#paint14_linear_13265_5824)"/><circle cx="28" cy="37" r="1.5" stroke="url(#paint15_linear_13265_5824)"/><path d="M13.5 21a.5.5 0 01.5-.5h52a.5.5 0 01.5.5v38a.5.5 0 01-.5.5H14a.5.5 0 01-.5-.5V21z" stroke="url(#paint16_linear_13265_5824)"/><path d="M10.5 21a.5.5 0 01.5-.5h58.269a.23.23 0 01.231.23V23a.5.5 0 01-.5.5H11a.5.5 0 01-.5-.5v-2z" fill="#fff" stroke="url(#paint17_linear_13265_5824)"/><defs><linearGradient id="paint0_linear_13265_5824" x1="26" y1="35.135" x2="30.197" y2="36.517" gradientUnits="userSpaceOnUse"><stop stop-color="#ECF6F5"/><stop offset="1" stop-color="#EBF0F6"/></linearGradient><linearGradient id="paint1_linear_13265_5824" x1="13.75" y1="23.76" x2="69.852" y2="51.467" gradientUnits="userSpaceOnUse"><stop stop-color="#ECF6F5"/><stop offset="1" stop-color="#EBF0F6"/></linearGradient><linearGradient id="paint2_linear_13265_5824" x1="39.493" y1="45.113" x2="41.09" y2="36.815" gradientUnits="userSpaceOnUse"><stop stop-color="#46A29F"/><stop offset="1" stop-color="#4660A2"/></linearGradient><linearGradient id="paint3_linear_13265_5824" x1="43.328" y1="32.13" x2="45.883" y2="32.087" gradientUnits="userSpaceOnUse"><stop stop-color="#46A29F"/><stop offset="1" stop-color="#4660A2"/></linearGradient><linearGradient id="paint4_linear_13265_5824" x1="46.828" y1="39.558" x2="49.38" y2="39.462" gradientUnits="userSpaceOnUse"><stop stop-color="#46A29F"/><stop offset="1" stop-color="#4660A2"/></linearGradient><linearGradient id="paint5_linear_13265_5824" x1="50.328" y1="35.506" x2="52.882" y2="35.448" gradientUnits="userSpaceOnUse"><stop stop-color="#46A29F"/><stop offset="1" stop-color="#4660A2"/></linearGradient><linearGradient id="paint6_linear_13265_5824" x1="57.328" y1="37.532" x2="59.881" y2="37.46" gradientUnits="userSpaceOnUse"><stop stop-color="#46A29F"/><stop offset="1" stop-color="#4660A2"/></linearGradient><linearGradient id="paint7_linear_13265_5824" x1="53.828" y1="40.908" x2="56.377" y2="40.785" gradientUnits="userSpaceOnUse"><stop stop-color="#46A29F"/><stop offset="1" stop-color="#4660A2"/></linearGradient><linearGradient id="paint8_linear_13265_5824" x1="38.141" y1="49.488" x2="39.487" y2="41.099" gradientUnits="userSpaceOnUse"><stop stop-color="#46A29F"/><stop offset="1" stop-color="#4660A2"/></linearGradient><linearGradient id="paint9_linear_13265_5824" x1="42.844" y1="52.113" x2="44.801" y2="43.979" gradientUnits="userSpaceOnUse"><stop stop-color="#46A29F"/><stop offset="1" stop-color="#4660A2"/></linearGradient><linearGradient id="paint10_linear_13265_5824" x1="13.641" y1="49.488" x2="14.987" y2="41.099" gradientUnits="userSpaceOnUse"><stop stop-color="#46A29F"/><stop offset="1" stop-color="#4660A2"/></linearGradient><linearGradient id="paint11_linear_13265_5824" x1="18.344" y1="52.113" x2="20.301" y2="43.979" gradientUnits="userSpaceOnUse"><stop stop-color="#46A29F"/><stop offset="1" stop-color="#4660A2"/></linearGradient><linearGradient id="paint12_linear_13265_5824" x1="27.828" y1="30.87" x2="30.377" y2="30.744" gradientUnits="userSpaceOnUse"><stop stop-color="#46A29F"/><stop offset="1" stop-color="#4660A2"/></linearGradient><linearGradient id="paint13_linear_13265_5824" x1="21.813" y1="38.799" x2="30.978" y2="35.689" gradientUnits="userSpaceOnUse"><stop stop-color="#46A29F"/><stop offset="1" stop-color="#4660A2"/></linearGradient><linearGradient id="paint14_linear_13265_5824" x1="17.251" y1="32.652" x2="54.82" y2="21.498" gradientUnits="userSpaceOnUse"><stop stop-color="#46A29F"/><stop offset="1" stop-color="#4660A2"/></linearGradient><linearGradient id="paint15_linear_13265_5824" x1="25.313" y1="35.913" x2="34.705" y2="33.124" gradientUnits="userSpaceOnUse"><stop stop-color="#46A29F"/><stop offset="1" stop-color="#4660A2"/></linearGradient><linearGradient id="paint16_linear_13265_5824" x1="3.721" y1="29.131" x2="122.595" y2="-18.518" gradientUnits="userSpaceOnUse"><stop stop-color="#46A29F"/><stop offset="1" stop-color="#4660A2"/></linearGradient><linearGradient id="paint17_linear_13265_5824" x1="-.31" y1="20.913" x2="7.047" y2="-11.856" gradientUnits="userSpaceOnUse"><stop stop-color="#46A29F"/><stop offset="1" stop-color="#4660A2"/></linearGradient></defs></svg>