<svg width="153" height="40" viewBox="0 0 153 40" fill="none" xmlns="http://www.w3.org/2000/svg">
<g clip-path="url(#clip0_12663_5478)">
<path fill-rule="evenodd" clip-rule="evenodd" d="M19.8078 40.0078C30.7474 40.0078 39.6157 31.052 39.6157 20.0044C39.6157 8.95681 30.7474 0.000976562 19.8078 0.000976562C8.86827 0.000976562 0 8.95681 0 20.0044C0 31.052 8.86827 40.0078 19.8078 40.0078ZM16.7698 16.0965L16.763 16.0418C16.6548 14.7028 15.9986 13.5141 15.038 12.6874C15.3221 12.5576 15.5453 12.4346 15.6536 12.3732C16.6345 11.8198 19.0225 10.0572 18.2987 8.60203C18.1701 8.34242 17.886 7.994 17.2569 7.8437C16.3165 7.61142 14.6321 7.87103 13.3467 8.80698C13.1438 8.95728 12.9408 9.12807 12.7582 9.31253V8.64302C12.7582 8.15796 12.3658 7.76172 11.8855 7.76172C11.4052 7.76172 11.0128 8.15796 11.0128 8.64302V11.5943C8.87507 11.9974 7.19735 13.8283 7.00793 16.0623L7.00117 16.1033C6.93352 16.9846 6.67645 17.8249 6.2232 18.6174C5.64817 19.6148 5.34375 20.7626 5.34375 21.9308C5.34375 25.2579 7.8062 28.0384 10.9857 28.4961V28.5644H11.9125H12.7852V28.4961C15.9648 28.0384 18.4272 25.2579 18.4272 21.9308C18.4272 20.7626 18.1228 19.6148 17.541 18.6037C17.0945 17.8181 16.8307 16.9709 16.7698 16.0965ZM14.3818 10.228C15.0515 9.74293 15.8836 9.54481 16.4248 9.51748C16.1001 9.90006 15.5115 10.4261 14.8079 10.8292C14.2803 11.1298 13.7188 11.3347 13.3264 11.4372C13.5226 11.0683 13.8947 10.5832 14.3818 10.228ZM11.9058 26.8019H11.8855H11.8652C9.23361 26.7745 7.08911 24.5952 7.08911 21.9308C7.08911 21.07 7.31236 20.2297 7.73855 19.4919C8.3271 18.4671 8.66535 17.3672 8.75329 16.2194V16.1853C8.88183 14.6345 10.1401 13.3774 11.6825 13.2681C11.7434 13.2613 11.8246 13.2613 11.8855 13.2613H11.899C11.9599 13.2613 12.0275 13.2613 12.0884 13.2681C13.6308 13.3774 14.8891 14.6345 15.0177 16.1716L15.0244 16.2194C15.1056 17.3672 15.4506 18.4671 16.0392 19.4919C16.4654 20.2297 16.6886 21.07 16.6886 21.9308C16.6818 24.5884 14.5441 26.7745 11.9058 26.8019ZM22.842 23.9601L22.8352 23.9055C22.7744 23.031 22.5105 22.1839 22.0708 21.3845C21.489 20.3734 21.1846 19.2257 21.1846 18.0575C21.1846 14.7304 23.647 11.9499 26.8266 11.4921V11.4238H27.6993H28.6261V11.4921C31.8056 11.9499 34.268 14.7304 34.268 18.0575C34.268 19.2257 33.9636 20.3803 33.3818 21.3845C32.9286 22.177 32.6715 23.0173 32.6039 23.8986L32.5971 23.9396C32.4077 26.1736 30.73 28.0045 28.5922 28.4076V31.3589C28.5922 31.844 28.1999 32.2402 27.7195 32.2402C27.2392 32.2402 26.8469 31.844 26.8469 31.3589V30.6894C26.6642 30.8739 26.4613 31.0447 26.2583 31.195C24.973 32.1309 23.2885 32.3905 22.3482 32.1582C21.719 32.0079 21.4349 31.6595 21.3064 31.3999C20.5825 29.9447 22.9705 28.1821 23.9515 27.6288C24.0597 27.5673 24.2829 27.4443 24.5671 27.3145C23.6064 26.4879 22.9502 25.2991 22.842 23.9601ZM23.187 30.4845C23.7282 30.4571 24.5603 30.259 25.23 29.774C25.7104 29.4187 26.0824 28.9336 26.2854 28.5647C25.893 28.6672 25.3315 28.8722 24.8038 29.1728C24.1003 29.5758 23.5117 30.1019 23.187 30.4845ZM27.7195 13.2069H27.6993C25.0677 13.2274 22.9232 15.4136 22.9164 18.078C22.9164 18.9388 23.1397 19.7791 23.5659 20.5169C24.1544 21.5417 24.4994 22.6416 24.5806 23.7893L24.5874 23.8371C24.7159 25.3743 25.9742 26.6313 27.5166 26.7406C27.5775 26.7475 27.6451 26.7475 27.706 26.7475H27.7195C27.7804 26.7475 27.8616 26.7475 27.9225 26.7406C29.4649 26.6313 30.7232 25.3743 30.8517 23.8235V23.7893C30.9397 22.6416 31.2779 21.5417 31.8665 20.5169C32.2927 19.7791 32.5159 18.9388 32.5159 18.078C32.5159 15.4136 30.3714 13.2342 27.7398 13.2069H27.7195Z" fill="#EBC2A4"/>
<path d="M60.1241 24.5406H53.6229L58.9402 18.4466C59.2649 18.0709 59.5897 17.6473 59.9009 17.1828C60.2188 16.7114 60.4826 16.2195 60.6924 15.7071C60.9021 15.1947 61.0035 14.6823 61.0035 14.1836C61.0035 13.0427 60.7938 12.0589 60.3676 11.2323C59.9414 10.4057 59.3394 9.76347 58.5681 9.31257C57.7969 8.86167 56.8837 8.62939 55.8283 8.62939C54.7933 8.62939 53.8597 8.86851 53.0344 9.35356C52.2091 9.83862 51.5529 10.5013 51.0726 11.3348C50.5922 12.1683 50.3555 13.1179 50.3555 14.1836C50.3555 14.4979 50.4705 14.7712 50.7072 15.0034C50.9373 15.2357 51.2146 15.3519 51.5393 15.3519C51.8776 15.3519 52.1617 15.2357 52.385 15.0034C52.6082 14.7712 52.7232 14.4979 52.7232 14.1836C52.7232 13.5756 52.8585 13.0154 53.1291 12.5098C53.3997 12.0043 53.7718 11.5944 54.2453 11.2938C54.7189 10.9864 55.2465 10.8361 55.8351 10.8361C56.4372 10.8361 56.9581 10.9727 57.391 11.246C57.824 11.5192 58.1555 11.9086 58.3855 12.4074C58.6155 12.9061 58.7373 13.5004 58.7373 14.1905C58.7373 14.6277 58.6087 15.0923 58.3517 15.5705C58.0946 16.0487 57.7361 16.5679 57.2693 17.1145L50.6802 24.8958C50.4637 25.1145 50.3555 25.3946 50.3555 25.7361C50.3555 26.0641 50.4705 26.3442 50.6937 26.5833C50.917 26.8224 51.2011 26.9317 51.5393 26.9317H60.1309C60.4691 26.9317 60.76 26.8156 60.99 26.5833C61.22 26.351 61.3418 26.0709 61.3418 25.7361C61.3418 25.4219 61.2268 25.1486 60.99 24.9027C60.7532 24.6636 60.4623 24.5406 60.1241 24.5406Z" fill="#ADCED8"/>
<path d="M74.9898 19.5739C74.753 18.9453 74.3742 18.3988 73.8668 17.9206C73.3594 17.4424 72.6897 17.0666 71.8711 16.7865C72.3379 16.5679 72.7776 16.2878 73.197 15.953C73.6165 15.6183 73.9615 15.2152 74.2321 14.7438C74.5027 14.2724 74.638 13.7327 74.638 13.1247C74.638 12.2639 74.4283 11.4987 74.0021 10.8155C73.5759 10.1324 72.9941 9.59948 72.2635 9.19641C71.5261 8.80017 70.7075 8.59521 69.7943 8.59521C68.8066 8.59521 67.9068 8.80017 67.1018 9.21691C66.2968 9.63364 65.6609 10.2007 65.2008 10.918C64.7408 11.6354 64.5041 12.4483 64.5041 13.357C64.5041 13.6985 64.6055 13.9855 64.8152 14.2109C65.025 14.4364 65.2753 14.5525 65.5729 14.5525C65.8841 14.5525 66.1344 14.4295 66.3374 14.1904C66.5403 13.9513 66.6418 13.6507 66.6418 13.2886C66.6418 12.8036 66.7839 12.3664 67.068 11.9769C67.3521 11.5875 67.7377 11.2733 68.2248 11.041C68.7119 10.8087 69.2531 10.6926 69.8349 10.6926C70.6061 10.6926 71.242 10.9248 71.7358 11.3962C72.2297 11.8676 72.48 12.4415 72.48 13.1315C72.48 13.6166 72.3514 14.047 72.0876 14.4295C71.8238 14.8121 71.4923 15.1196 71.0864 15.345C70.6872 15.5704 70.2678 15.6866 69.8349 15.6866C69.4966 15.6866 69.2125 15.8027 68.9892 16.0282C68.766 16.2536 68.651 16.5406 68.651 16.8821C68.651 17.2237 68.766 17.5175 68.9892 17.7498C69.2125 17.9821 69.4966 18.0982 69.8349 18.0982C70.4369 18.0982 70.9781 18.2553 71.4584 18.5696C71.9388 18.8839 72.3176 19.3006 72.595 19.8266C72.8723 20.3527 73.0144 20.9402 73.0144 21.5961C73.0144 22.6277 72.7032 23.427 72.0741 24.0009C71.4449 24.5747 70.6264 24.8548 69.6048 24.8548C68.9081 24.8548 68.2789 24.6977 67.7242 24.3766C67.1695 24.0555 66.7297 23.6251 66.3982 23.0854C66.0668 22.5457 65.9112 21.9582 65.9112 21.316C65.9112 20.9539 65.8097 20.6601 65.6067 20.4347C65.4038 20.2092 65.1467 20.0931 64.8423 20.0931C64.5514 20.0931 64.3011 20.2092 64.0846 20.4347C63.8749 20.6601 63.7734 20.9539 63.7734 21.316C63.7734 22.3817 64.0305 23.3382 64.5379 24.1853C65.0453 25.0393 65.7488 25.7088 66.6486 26.2007C67.5483 26.6926 68.5766 26.9385 69.7334 26.9385C70.7549 26.9385 71.6885 26.7062 72.5408 26.2485C73.3932 25.7908 74.0697 25.1554 74.5839 24.3493C75.0912 23.5431 75.3483 22.6345 75.3483 21.6166C75.3483 20.8787 75.2333 20.2024 74.9898 19.5739Z" fill="#ADCED8"/>
<path d="M88.1419 14.874C87.1813 14.307 86.0921 14.02 84.8676 14.02C83.6635 14.02 82.5811 14.307 81.6205 14.874C80.6598 15.441 79.9022 16.2198 79.3474 17.2036C78.7927 18.1874 78.5018 19.2941 78.4883 20.5307V31.2224C78.4883 31.564 78.5965 31.8509 78.8265 32.0764C79.0498 32.3018 79.3339 32.418 79.6722 32.418C80.0307 32.418 80.3148 32.3018 80.5313 32.0764C80.7478 31.8509 80.856 31.564 80.856 31.2224V24.8962C81.3972 25.552 82.0534 26.0713 82.8179 26.4538C83.5823 26.8364 84.4212 27.0277 85.3344 27.0277C86.4642 27.0277 87.4789 26.7408 88.3719 26.1737C89.2716 25.6067 89.9752 24.8279 90.4961 23.8509C91.017 22.874 91.2741 21.7672 91.2741 20.5375C91.2741 19.301 90.9899 18.1942 90.4284 17.2105C89.8602 16.2198 89.1025 15.4479 88.1419 14.874ZM88.4531 22.7715C88.0878 23.4342 87.6007 23.9602 86.9783 24.3428C86.3559 24.7254 85.6524 24.9167 84.8676 24.9167C84.0964 24.9167 83.3929 24.7254 82.7637 24.3428C82.1346 23.9602 81.6475 23.4342 81.289 22.7715C80.9304 22.1088 80.7545 21.3642 80.7545 20.5307C80.7545 19.6904 80.9304 18.9321 81.289 18.2694C81.6475 17.6067 82.1346 17.0807 82.7637 16.6981C83.3929 16.3155 84.0897 16.1242 84.8676 16.1242C85.6591 16.1242 86.3627 16.3155 86.9783 16.6981C87.5939 17.0807 88.0878 17.6067 88.4531 18.2694C88.8184 18.9321 89.001 19.6904 89.001 20.5307C89.001 21.3642 88.8184 22.1088 88.4531 22.7715Z" fill="#EBC2A4"/>
<path d="M103.525 14.8262C102.659 14.2865 101.624 14.02 100.413 14.02C99.1883 14.02 98.1059 14.3001 97.1656 14.8535C96.2185 15.4069 95.4811 16.172 94.9467 17.149C94.4123 18.1259 94.1484 19.2532 94.1484 20.5375C94.1484 21.8014 94.4326 22.9218 94.9941 23.8988C95.5623 24.8757 96.3403 25.6409 97.3415 26.1942C98.336 26.7476 99.4792 27.0277 100.765 27.0277C101.475 27.0277 102.226 26.8979 103.004 26.6315C103.789 26.365 104.438 26.0234 104.966 25.5999C105.229 25.3949 105.351 25.1558 105.338 24.8757C105.324 24.5956 105.182 24.336 104.918 24.1037C104.715 23.9329 104.479 23.8509 104.208 23.8578C103.937 23.8646 103.687 23.9534 103.45 24.1242C103.139 24.3565 102.733 24.5683 102.233 24.7459C101.732 24.9235 101.238 25.0123 100.758 25.0123C99.8784 25.0123 99.0936 24.8142 98.4171 24.4248C97.7339 24.0354 97.2062 23.5025 96.8138 22.833C96.5568 22.3821 96.3944 21.8902 96.3065 21.3573H105.121C105.432 21.3573 105.683 21.2617 105.886 21.0636C106.089 20.8655 106.19 20.6195 106.19 20.3257C106.19 19.0892 105.96 18.0029 105.507 17.0533C105.054 16.1105 104.391 15.3659 103.525 14.8262ZM98.1533 16.6229C98.7824 16.2335 99.5334 16.0354 100.42 16.0354C101.191 16.0354 101.854 16.213 102.395 16.5751C102.936 16.9372 103.356 17.4222 103.646 18.0371C103.856 18.4743 103.991 18.9594 104.059 19.4786H96.3335C96.4147 19.0345 96.5365 18.611 96.7259 18.2284C97.0506 17.5452 97.5242 17.0123 98.1533 16.6229Z" fill="#EBC2A4"/>
<path d="M117.751 14.874C116.791 14.307 115.708 14.02 114.504 14.02C113.293 14.02 112.211 14.307 111.243 14.874C110.276 15.441 109.512 16.2198 108.943 17.2036C108.375 18.1874 108.098 19.2941 108.098 20.5307C108.098 21.7672 108.355 22.874 108.876 23.8441C109.397 24.821 110.1 25.593 111 26.1669C111.9 26.7339 112.914 27.0209 114.044 27.0209C115.174 27.0209 116.189 26.7339 117.082 26.1669C117.636 25.8117 118.11 25.3744 118.522 24.862V25.7502C118.522 26.0918 118.631 26.3787 118.861 26.6041C119.084 26.8296 119.368 26.9457 119.706 26.9457C120.045 26.9457 120.329 26.8296 120.552 26.6041C120.775 26.3787 120.89 26.0918 120.89 25.7502V20.5239C120.89 19.2873 120.606 18.1806 120.045 17.1968C119.476 16.2198 118.712 15.4479 117.751 14.874ZM118.076 22.7715C117.717 23.4342 117.23 23.9602 116.615 24.3428C115.999 24.7254 115.289 24.9167 114.504 24.9167C113.733 24.9167 113.029 24.7254 112.4 24.3428C111.771 23.9602 111.277 23.4342 110.912 22.7715C110.547 22.1088 110.364 21.3642 110.364 20.5307C110.364 19.6904 110.547 18.9321 110.912 18.2694C111.277 17.6067 111.771 17.0807 112.4 16.6981C113.029 16.3155 113.726 16.1242 114.504 16.1242C115.296 16.1242 115.999 16.3155 116.615 16.6981C117.237 17.0807 117.717 17.6067 118.076 18.2694C118.435 18.9321 118.61 19.6904 118.61 20.5307C118.61 21.3642 118.435 22.1088 118.076 22.7715Z" fill="#EBC2A4"/>
<path d="M132.71 14.4299C132.25 14.1225 131.56 13.9722 130.633 13.9722C129.706 13.9722 128.854 14.1908 128.076 14.628C127.555 14.9218 127.108 15.2975 126.729 15.7279V15.2839C126.729 14.8945 126.635 14.6007 126.439 14.4026C126.242 14.2044 125.958 14.1088 125.566 14.1088C125.194 14.1088 124.91 14.2113 124.707 14.4162C124.504 14.6212 124.402 14.9081 124.402 15.2839V25.757C124.402 26.1464 124.504 26.4401 124.707 26.6383C124.91 26.8364 125.194 26.932 125.566 26.932C125.952 26.932 126.242 26.8296 126.439 26.6246C126.635 26.4196 126.729 26.1327 126.729 25.757V18.9184C126.729 18.201 126.96 17.6067 127.413 17.1353C127.866 16.6639 128.495 16.3496 129.28 16.172C130.071 16.0012 130.958 16.0149 131.952 16.2198C132.155 16.2676 132.338 16.2745 132.507 16.2403C132.676 16.213 132.825 16.1378 132.96 16.0149C133.089 15.8987 133.183 15.7279 133.224 15.5093C133.346 15.0994 133.17 14.7373 132.71 14.4299Z" fill="#EBC2A4"/>
<path d="M143.412 20.2779C142.743 19.9158 141.823 19.6221 140.666 19.3898C139.827 19.219 139.198 19.0414 138.765 18.8637C138.332 18.6861 138.041 18.4812 137.892 18.2557C137.743 18.0303 137.669 17.7775 137.669 17.4906C137.669 17.0397 137.906 16.6912 138.372 16.459C138.846 16.2267 139.421 16.1105 140.104 16.1105C140.693 16.1105 141.207 16.1789 141.66 16.3223C142.107 16.4658 142.526 16.7186 142.912 17.0943C143.142 17.3129 143.433 17.4564 143.771 17.5179C144.109 17.5794 144.407 17.5247 144.65 17.3539C144.901 17.1626 145.029 16.9372 145.043 16.6639C145.056 16.3906 144.961 16.131 144.738 15.8783C144.271 15.2976 143.649 14.8467 142.858 14.5187C142.066 14.1908 141.166 14.0269 140.145 14.0269C139.353 14.0269 138.596 14.1567 137.872 14.4163C137.141 14.6759 136.546 15.0653 136.086 15.5845C135.619 16.1105 135.389 16.7664 135.389 17.5657C135.389 18.4743 135.741 19.2395 136.444 19.8612C137.148 20.4897 138.278 20.9543 139.847 21.2685C141.051 21.4871 141.883 21.7672 142.343 22.1157C142.797 22.4573 143.02 22.8672 143.006 23.3317C142.993 23.8031 142.749 24.1857 142.276 24.4795C141.802 24.7732 141.119 24.9235 140.219 24.9235C139.509 24.9235 138.859 24.7937 138.278 24.5341C137.696 24.2745 137.276 24.0012 137.013 23.7006C136.796 23.4684 136.539 23.3317 136.235 23.2907C135.93 23.2497 135.626 23.359 135.321 23.605C135.058 23.8099 134.909 24.0696 134.868 24.3906C134.828 24.7117 134.929 24.9987 135.159 25.2446C135.666 25.757 136.383 26.1874 137.304 26.5222C138.224 26.8569 139.225 27.0277 140.307 27.0277C141.403 27.0277 142.323 26.8569 143.061 26.5153C143.798 26.1737 144.353 25.7092 144.731 25.1353C145.11 24.5546 145.3 23.9124 145.3 23.1883C145.3 22.5666 145.151 22.0132 144.86 21.535C144.569 21.0567 144.089 20.64 143.412 20.2779Z" fill="#EBC2A4"/>
<path d="M146.95 7.58447H145.712H145.117H143.872C143.791 7.58447 143.723 7.6118 143.676 7.65962C143.622 7.71428 143.602 7.77576 143.602 7.85774C143.602 7.93972 143.629 8.00804 143.676 8.05586C143.73 8.11052 143.791 8.13101 143.872 8.13101H145.117V11.8065C145.117 11.8885 145.144 11.9636 145.205 12.0183C145.266 12.0729 145.333 12.1071 145.415 12.1071C145.496 12.1071 145.57 12.0798 145.624 12.0183C145.678 11.9568 145.712 11.8885 145.712 11.8065V8.13101H146.95C147.031 8.13101 147.099 8.10369 147.146 8.05586C147.2 8.00121 147.221 7.93972 147.221 7.85774C147.221 7.77576 147.194 7.70744 147.146 7.65962C147.099 7.6118 147.031 7.58447 146.95 7.58447Z" fill="#EBC2A4"/>
<path d="M152.299 7.66645C152.238 7.6118 152.17 7.58447 152.089 7.58447C151.974 7.58447 151.886 7.63913 151.825 7.74843L150.161 11.2053L148.456 7.74843C148.395 7.63913 148.307 7.58447 148.192 7.58447C148.111 7.58447 148.037 7.6118 147.982 7.66645C147.922 7.72111 147.895 7.79626 147.895 7.88507V11.8202C147.895 11.9021 147.922 11.9773 147.982 12.032C148.037 12.0866 148.111 12.1208 148.192 12.1208C148.273 12.1208 148.348 12.0934 148.402 12.032C148.463 11.9705 148.49 11.9021 148.49 11.8202V8.98498L149.863 11.7655C149.917 11.8885 150.012 11.9431 150.141 11.9431C150.249 11.9431 150.337 11.8953 150.398 11.7928L151.791 8.93033V11.8202C151.791 11.9021 151.818 11.9773 151.879 12.032C151.94 12.0866 152.008 12.1208 152.089 12.1208C152.17 12.1208 152.238 12.0934 152.299 12.032C152.359 11.9705 152.386 11.9021 152.386 11.8202V7.88507C152.38 7.79626 152.353 7.72794 152.299 7.66645Z" fill="#EBC2A4"/>
</g>
<defs>
<clipPath id="clip0_12663_5478">
<rect width="152.381" height="40" fill="white" transform="translate(0 0.000976562)"/>
</clipPath>
</defs>
</svg>
