<svg width="214" height="40" viewBox="0 0 214 40" fill="none" xmlns="http://www.w3.org/2000/svg">
<g clip-path="url(#clip0_12663_6365)">
<path fill-rule="evenodd" clip-rule="evenodd" d="M40.2422 20.0044C40.2422 31.052 31.2337 40.0078 20.1211 40.0078C9.00853 40.0078 0 31.052 0 20.0044C0 8.95681 9.00853 0.000976562 20.1211 0.000976562C31.2337 0.000976562 40.2422 8.95681 40.2422 20.0044ZM23.2682 13.9991C24.4227 14.1357 25.7902 14.6754 27.2127 16.0486C29.8515 18.5969 29.9821 22.6003 29.0131 25.2442C28.0992 27.6626 26.1338 29.5414 23.1582 30.8257C22.2167 31.2288 21.3578 31.4884 20.5194 31.6251H20.5056C20.4988 31.6251 20.4936 31.6268 20.4884 31.6285C20.4833 31.6302 20.4781 31.6319 20.4713 31.6319H20.4232C20.4182 31.6329 20.4133 31.6339 20.4085 31.6349C20.3806 31.6406 20.3563 31.6455 20.327 31.6455H20.2857H20.2651H20.1895H20.1758H20.1345H20.0933H20.0796H20.004H19.9834H19.9421C19.9249 31.6455 19.9095 31.6421 19.894 31.6387C19.8786 31.6353 19.8631 31.6319 19.8459 31.6319H19.7978C19.7909 31.6319 19.7858 31.6302 19.7806 31.6285C19.7755 31.6268 19.7703 31.6251 19.7635 31.6251H19.7497C18.9113 31.4884 18.0523 31.2288 17.1109 30.8257C14.1353 29.5414 12.1699 27.6626 11.256 25.2442C10.2664 22.6003 10.397 18.5969 13.0358 16.0486C15.1592 13.9991 17.1521 13.8078 18.499 14.0332C18.4166 12.9333 18.877 11.444 19.6741 10.3099C20.8355 8.64981 22.8146 7.59089 24.0859 7.42693C24.7113 7.35178 25.2129 7.46792 25.5771 7.77535C25.7902 7.95981 26.0513 8.29456 26.0925 8.8616C26.1887 10.2621 24.8556 12.2911 23.9416 13.3159C23.9336 13.3246 23.924 13.3349 23.913 13.3468C23.8112 13.4573 23.5845 13.7031 23.2682 13.9991ZM24.2509 9.22368C23.5843 9.33299 22.0656 10.0435 21.1516 11.3415C20.4713 12.3116 20.2582 13.4252 20.2995 13.9171C20.7736 13.7395 21.7357 13.0631 22.581 12.1204C23.543 11.0409 24.1272 9.80438 24.2509 9.22368ZM22.4092 29.1724C23.3506 28.7762 26.1887 27.5465 27.2883 24.6157C28.0785 22.5046 27.9961 19.3279 25.9276 17.3535C24.6219 16.0896 23.2819 15.5841 21.9487 15.8368C21.8182 15.8642 21.6945 15.8915 21.5708 15.9325C21.7907 16.3219 21.6945 16.8206 21.3234 17.0939C21.1653 17.2169 20.9729 17.2715 20.7874 17.2715C20.5125 17.2715 20.2376 17.1417 20.059 16.9026L19.894 16.6976C19.7978 16.5815 19.7016 16.479 19.5917 16.3765C19.5882 16.3765 19.5865 16.3748 19.5848 16.3731C19.5831 16.3714 19.5814 16.3697 19.5779 16.3697C19.5733 16.3674 19.5688 16.3659 19.5642 16.3644C19.555 16.3614 19.5458 16.3583 19.5367 16.3492C19.145 16.0896 18.712 15.912 18.2585 15.83C16.9253 15.5772 15.5853 16.0828 14.2796 17.3467C12.2249 19.3279 12.1424 22.5046 12.9396 24.6157C14.046 27.5397 16.8841 28.7694 17.8187 29.1724C18.609 29.514 19.3168 29.7326 19.9971 29.8488H20.1002H20.1139H20.1277H20.2308C20.9111 29.7326 21.6258 29.5072 22.4092 29.1724Z" fill="#F1C5A8"/>
<path d="M61.154 15.0649C60.1781 14.4979 59.0717 14.2109 57.8279 14.2109C56.6047 14.2109 55.4983 14.4979 54.5294 15.0649C53.5536 15.6319 52.7839 16.4108 52.2204 17.3945C51.6569 18.3783 51.3614 19.4851 51.3477 20.7216V31.4065C51.3477 31.7481 51.4645 32.035 51.6913 32.2605C51.918 32.4859 52.2067 32.6021 52.5503 32.6021C52.9145 32.6021 53.2031 32.4859 53.423 32.2605C53.6429 32.035 53.7528 31.7481 53.7528 31.4065V25.0803C54.3026 25.7361 54.9692 26.2553 55.7457 26.6379C56.5222 27.0205 57.3744 27.2118 58.3021 27.2118C59.4497 27.2118 60.4805 26.9249 61.3876 26.3578C62.3016 25.7908 63.0163 25.012 63.5454 24.035C64.0745 23.0581 64.3357 21.9513 64.3357 20.7216C64.3357 19.4851 64.0471 18.3783 63.4767 17.3945C62.8994 16.4108 62.1229 15.6319 61.154 15.0649ZM61.4701 22.9624C61.099 23.6251 60.6042 24.1512 59.972 24.5337C59.3398 24.9163 58.6251 25.1076 57.8279 25.1076C57.0445 25.1076 56.3298 24.9163 55.6907 24.5337C55.0516 24.1512 54.5569 23.6251 54.1927 22.9624C53.8284 22.2998 53.6498 21.5551 53.6498 20.7216C53.6498 19.8813 53.8284 19.123 54.1927 18.4603C54.5569 17.7976 55.0516 17.2716 55.6907 16.889C56.3298 16.5064 57.0376 16.3151 57.8279 16.3151C58.6319 16.3151 59.3466 16.5064 59.972 16.889C60.5973 17.2716 61.099 17.7976 61.4701 18.4603C61.8411 19.123 62.0267 19.8813 62.0267 20.7216C62.0267 21.5551 61.8411 22.2998 61.4701 22.9624Z" fill="#F1C5A8"/>
<path d="M76.7785 15.0171C75.8988 14.4774 74.8474 14.2109 73.6173 14.2109C72.3735 14.2109 71.274 14.491 70.3188 15.0444C69.3567 15.5978 68.6077 16.3629 68.0648 17.3399C67.5219 18.3168 67.2539 19.4441 67.2539 20.7284C67.2539 21.9923 67.5425 23.1127 68.1129 24.0897C68.6833 25.0666 69.4804 25.8318 70.4975 26.3851C71.5077 26.9385 72.669 27.2186 73.9747 27.2186C74.6963 27.2186 75.459 27.0888 76.2493 26.8224C77.0465 26.5559 77.7062 26.2144 78.2422 25.7908C78.5102 25.5858 78.6339 25.3467 78.6202 25.0666C78.6064 24.7865 78.4621 24.5269 78.1941 24.2946C77.9879 24.1238 77.7474 24.0419 77.4725 24.0487C77.1976 24.0555 76.9434 24.1443 76.7097 24.3151C76.3936 24.5474 75.9813 24.7592 75.4728 24.9368C74.9643 25.1144 74.4626 25.2033 73.9747 25.2033C73.0813 25.2033 72.2842 25.0051 71.597 24.6157C70.9029 24.2263 70.36 23.6934 69.9683 23.0239C69.7072 22.573 69.5423 22.0811 69.4529 21.5483H78.4071C78.7232 21.5483 78.9775 21.4526 79.1837 21.2545C79.3898 21.0564 79.4929 20.8104 79.4929 20.5167C79.4929 19.2801 79.2592 18.1939 78.7988 17.2442C78.3315 16.3015 77.6581 15.5568 76.7785 15.0171ZM71.3221 16.807C71.9612 16.4176 72.724 16.2195 73.6173 16.2195C74.4008 16.2195 75.0742 16.3971 75.624 16.7592C76.1737 17.1213 76.5998 17.6063 76.8953 18.2212C77.1083 18.6584 77.2458 19.1435 77.3145 19.6627H69.4736C69.556 19.2186 69.6797 18.7951 69.8721 18.4125C70.202 17.7361 70.683 17.2033 71.3221 16.807Z" fill="#F1C5A8"/>
<path d="M91.2321 15.0649C90.2563 14.4979 89.1568 14.2109 87.9335 14.2109C86.7103 14.2109 85.6039 14.4979 84.6212 15.0649C83.6386 15.6319 82.862 16.4108 82.2848 17.3945C81.7144 18.3783 81.4258 19.4851 81.4258 20.7216C81.4258 21.9582 81.6869 23.0649 82.2161 24.035C82.7452 25.012 83.4599 25.784 84.3739 26.3578C85.2878 26.9249 86.3186 27.2118 87.4662 27.2118C88.6139 27.2118 89.6447 26.9249 90.5518 26.3578C91.1153 26.0026 91.5963 25.5653 92.0155 25.0598V25.9479C92.0155 26.2895 92.1323 26.5764 92.3591 26.8019C92.5859 27.0273 92.8745 27.1435 93.2181 27.1435C93.5617 27.1435 93.8503 27.0273 94.0771 26.8019C94.3039 26.5764 94.4207 26.2895 94.4207 25.9479V20.7216C94.4207 19.4851 94.1321 18.3783 93.5617 17.3945C92.9844 16.4108 92.2079 15.6319 91.2321 15.0649ZM91.5619 22.9624C91.1977 23.6251 90.7029 24.1512 90.0776 24.5337C89.4522 24.9163 88.7307 25.1076 87.9335 25.1076C87.1501 25.1076 86.4355 24.9163 85.8032 24.5337C85.1641 24.1512 84.6625 23.6251 84.2914 22.9624C83.9203 22.2998 83.7348 21.5551 83.7348 20.7216C83.7348 19.8813 83.9203 19.123 84.2914 18.4603C84.6625 17.7976 85.1641 17.2716 85.8032 16.889C86.4423 16.5064 87.1501 16.3151 87.9335 16.3151C88.7376 16.3151 89.4522 16.5064 90.0776 16.889C90.7098 17.2716 91.1977 17.7976 91.5619 18.4603C91.9262 19.123 92.1048 19.8813 92.1048 20.7216C92.1048 21.5551 91.9262 22.2998 91.5619 22.9624Z" fill="#F1C5A8"/>
<path d="M106.277 14.737C105.508 14.3886 104.656 14.2109 103.728 14.2109C102.484 14.2109 101.384 14.491 100.429 15.0444C99.4672 15.5978 98.7182 16.3698 98.1684 17.3536C97.6186 18.3373 97.3438 19.4646 97.3438 20.7284C97.3438 21.965 97.6255 23.0717 98.1821 24.0419C98.7388 25.0188 99.5084 25.7908 100.491 26.3647C101.474 26.9317 102.594 27.2186 103.851 27.2186C105.549 27.2186 106.964 26.6926 108.098 25.6473C108.318 25.4287 108.414 25.1828 108.38 24.9095C108.346 24.6362 108.201 24.3903 107.933 24.1717C107.727 24.0009 107.494 23.9257 107.226 23.9462C106.958 23.9667 106.696 24.0828 106.449 24.2878C106.105 24.5679 105.721 24.7728 105.308 24.9095C104.889 25.0393 104.408 25.1076 103.858 25.1076C103.027 25.1076 102.292 24.9163 101.666 24.5337C101.034 24.1512 100.546 23.6319 100.196 22.9761C99.8451 22.3202 99.6665 21.5688 99.6665 20.7284C99.6665 19.8403 99.8383 19.0615 100.182 18.4056C100.525 17.7498 101.007 17.2374 101.618 16.8685C102.23 16.4996 102.938 16.3151 103.742 16.3151C104.889 16.3151 105.844 16.7182 106.614 17.5312C106.834 17.7498 107.074 17.8864 107.342 17.9411C107.61 17.9957 107.851 17.9479 108.071 17.7908C108.353 17.5858 108.524 17.3536 108.586 17.0871C108.648 16.8207 108.573 16.5611 108.353 16.3151C107.741 15.6114 107.047 15.0854 106.277 14.737Z" fill="#F1C5A8"/>
<path d="M121.489 14.8737C120.63 14.416 119.661 14.1837 118.576 14.1837C117.538 14.1837 116.603 14.4092 115.772 14.8669C115.318 15.1129 114.92 15.4135 114.569 15.755V15.4954V10.0095C114.569 9.64744 114.459 9.36051 114.239 9.14189C114.019 8.92327 113.731 8.81396 113.367 8.81396C113.023 8.81396 112.734 8.92327 112.508 9.14189C112.281 9.36051 112.164 9.64744 112.164 10.0095V15.4954V21.2614V25.948C112.164 26.2896 112.281 26.5766 112.508 26.802C112.734 27.0275 113.023 27.1436 113.367 27.1436C113.731 27.1436 114.019 27.0275 114.239 26.802C114.459 26.5766 114.569 26.2896 114.569 25.948V21.2614V19.3417C114.569 18.761 114.727 18.2486 115.043 17.8046C115.36 17.3605 115.779 17.0053 116.315 16.7388C116.851 16.4724 117.449 16.3426 118.108 16.3426C118.83 16.3426 119.469 16.4792 120.032 16.7525C120.589 17.0257 121.036 17.4425 121.366 18.0027C121.695 18.5629 121.86 19.2939 121.86 20.182V25.948C121.86 26.2896 121.977 26.5766 122.204 26.802C122.431 27.0275 122.719 27.1436 123.063 27.1436C123.407 27.1436 123.695 27.0275 123.922 26.802C124.149 26.5766 124.266 26.2896 124.266 25.948V20.182C124.266 18.884 124.018 17.7909 123.523 16.9028C123.029 16.0146 122.348 15.3383 121.489 14.8737Z" fill="#F1C5A8"/>
<path d="M137.138 15.0171C136.258 14.4774 135.207 14.2109 133.977 14.2109C132.733 14.2109 131.633 14.491 130.678 15.0444C129.716 15.5978 128.967 16.3629 128.424 17.3399C127.881 18.3168 127.613 19.4441 127.613 20.7284C127.613 21.9923 127.902 23.1127 128.472 24.0897C129.043 25.0666 129.84 25.8318 130.857 26.3851C131.867 26.9385 133.028 27.2186 134.334 27.2186C135.056 27.2186 135.818 27.0888 136.609 26.8224C137.406 26.5559 138.066 26.2144 138.602 25.7908C138.87 25.5858 138.993 25.3467 138.98 25.0666C138.966 24.7865 138.821 24.5269 138.553 24.2946C138.347 24.1238 138.107 24.0419 137.832 24.0487C137.557 24.0555 137.303 24.1443 137.069 24.3151C136.753 24.5474 136.341 24.7592 135.832 24.9368C135.324 25.1144 134.822 25.2033 134.334 25.2033C133.441 25.2033 132.644 25.0051 131.956 24.6157C131.262 24.2263 130.719 23.6934 130.328 23.0239C130.067 22.573 129.902 22.0811 129.812 21.5483H138.766C139.083 21.5483 139.337 21.4526 139.543 21.2545C139.749 21.0564 139.852 20.8104 139.852 20.5167C139.852 19.2801 139.619 18.1939 139.158 17.2442C138.691 16.3015 138.017 15.5568 137.138 15.0171ZM131.681 16.807C132.321 16.4176 133.083 16.2195 133.977 16.2195C134.76 16.2195 135.434 16.3971 135.983 16.7592C136.533 17.1213 136.959 17.6063 137.255 18.2212C137.468 18.6584 137.605 19.1435 137.674 19.6627H129.833C129.915 19.2186 130.039 18.7951 130.231 18.4125C130.561 17.7361 131.042 17.2033 131.681 16.807Z" fill="#F1C5A8"/>
<path d="M152.223 21.7191C151.927 21.2408 151.432 20.8241 150.752 20.4688C150.072 20.1136 149.137 19.813 147.955 19.5807C147.103 19.4099 146.464 19.2323 146.024 19.0547C145.584 18.877 145.289 18.6721 145.138 18.4466C144.986 18.2212 144.911 17.9684 144.911 17.6815C144.911 17.2306 145.151 16.8822 145.632 16.6499C146.113 16.4176 146.698 16.3015 147.392 16.3015C147.989 16.3015 148.512 16.3698 148.972 16.5132C149.433 16.6567 149.852 16.9095 150.243 17.2852C150.477 17.5039 150.773 17.6473 151.116 17.7088C151.46 17.7703 151.762 17.7156 152.01 17.5448C152.264 17.3536 152.394 17.1281 152.408 16.8548C152.422 16.5816 152.319 16.322 152.099 16.0692C151.625 15.4885 150.993 15.0376 150.188 14.7097C149.384 14.3817 148.47 14.2178 147.433 14.2178C146.629 14.2178 145.859 14.3476 145.124 14.6072C144.382 14.8668 143.777 15.2562 143.31 15.7754C142.835 16.3015 142.602 16.9573 142.602 17.7566C142.602 18.6653 142.959 19.4304 143.674 20.0521C144.389 20.6806 145.536 21.1452 147.13 21.4594C148.354 21.6781 149.199 21.9582 149.666 22.3066C150.127 22.6482 150.353 23.0581 150.34 23.5226C150.326 23.994 150.079 24.3766 149.598 24.6704C149.116 24.9641 148.422 25.1144 147.508 25.1144C146.787 25.1144 146.127 24.9846 145.543 24.725C144.952 24.4654 144.526 24.1922 144.258 23.8916C144.038 23.6593 143.777 23.5226 143.468 23.4817C143.158 23.4407 142.849 23.55 142.54 23.7959C142.272 24.0009 142.121 24.2605 142.08 24.5816C142.038 24.9027 142.135 25.1896 142.375 25.4355C142.89 25.9479 143.619 26.3783 144.553 26.7131C145.488 27.0478 146.505 27.2186 147.605 27.2186C148.718 27.2186 149.652 27.0478 150.402 26.7062C151.151 26.3647 151.714 25.9001 152.099 25.3262C152.484 24.7455 152.676 24.1033 152.676 23.3792C152.676 22.7507 152.525 22.1973 152.223 21.7191Z" fill="#F1C5A8"/>
<path d="M167.142 22.7373L169.086 20.7015C169.32 20.435 169.437 20.1754 169.43 19.9295C169.423 19.6835 169.293 19.4376 169.038 19.2053C168.784 18.973 168.557 18.8842 168.351 18.9457C168.145 19.0072 167.925 19.1643 167.691 19.4171L165.795 21.4052L161.555 17.1968C162.256 16.6366 162.826 16.1242 163.259 15.6528C163.699 15.1746 164.022 14.6895 164.235 14.1908C164.448 13.6921 164.551 13.1387 164.551 12.5238C164.551 11.745 164.365 11.0414 163.987 10.4128C163.609 9.78431 163.094 9.29925 162.441 8.93717C161.788 8.57509 161.039 8.39746 160.187 8.39746C159.369 8.39746 158.634 8.56826 157.968 8.90984C157.308 9.25143 156.792 9.72966 156.415 10.3309C156.037 10.932 155.851 11.6084 155.851 12.3599C155.851 13.0294 155.995 13.6716 156.277 14.2728C156.559 14.874 156.971 15.4478 157.5 15.9944L158.717 17.2036L158.586 17.3061C157.404 18.242 156.456 19.1438 155.734 20.0046C155.013 20.8654 154.648 21.8287 154.648 22.8876C154.648 23.8441 154.855 24.6571 155.274 25.3334C155.693 26.0166 156.277 26.5358 157.033 26.9047C157.789 27.2736 158.662 27.4581 159.651 27.4581C160.909 27.4581 162.015 27.1643 162.977 26.5768C163.932 25.9893 164.826 25.2378 165.644 24.3155L165.767 24.1857L168.358 26.7544C168.86 27.2531 169.361 27.2531 169.87 26.7544C170.124 26.5016 170.234 26.2694 170.2 26.0508C170.165 25.8321 170.028 25.5999 169.774 25.3471L167.142 22.7373ZM159.04 14.7032C158.634 14.3001 158.339 13.897 158.153 13.5076C157.974 13.1182 157.885 12.722 157.885 12.3121C157.885 11.7655 158.098 11.2873 158.524 10.8842C158.95 10.4812 159.507 10.2762 160.201 10.2762C160.957 10.2762 161.534 10.4948 161.933 10.932C162.331 11.3693 162.537 11.8817 162.537 12.476C162.524 13.0089 162.393 13.5213 162.159 14.02C161.926 14.5187 161.39 15.0994 160.558 15.7553L160.311 15.9534L159.04 14.7032ZM164.249 23.0243C163.527 23.7758 162.812 24.3633 162.118 24.7937C161.417 25.2241 160.6 25.4359 159.658 25.4359C158.778 25.4359 158.091 25.2104 157.603 24.7664C157.115 24.3223 156.875 23.6596 156.875 22.7852C156.875 22.2728 156.999 21.7809 157.239 21.3232C157.48 20.8654 157.816 20.4145 158.242 19.9773C158.669 19.5401 159.143 19.1097 159.679 18.6861L159.981 18.447L164.42 22.8467L164.249 23.0243Z" fill="#ADCED8"/>
<path d="M188.882 14.7711C188.188 14.3817 187.398 14.1836 186.505 14.1836C185.481 14.1836 184.574 14.4022 183.783 14.8394C183.22 15.1469 182.753 15.5431 182.375 16.0213C182.024 15.4953 181.577 15.0717 181.041 14.7711C180.347 14.3817 179.557 14.1836 178.657 14.1836C177.729 14.1836 176.905 14.4022 176.183 14.8394C175.874 15.0239 175.606 15.2493 175.358 15.4953C175.351 15.1469 175.241 14.8668 175.028 14.655C174.809 14.4364 174.52 14.3271 174.156 14.3271C173.812 14.3271 173.523 14.4364 173.297 14.655C173.07 14.8736 172.953 15.1605 172.953 15.5226V25.9547C172.953 26.2963 173.07 26.5833 173.297 26.8087C173.523 27.0341 173.812 27.1503 174.156 27.1503C174.52 27.1503 174.809 27.0341 175.028 26.8087C175.248 26.5833 175.358 26.2963 175.358 25.9547V19.3484C175.358 18.4739 175.626 17.7566 176.162 17.1896C176.698 16.6294 177.372 16.3424 178.19 16.3424C178.973 16.3424 179.612 16.5815 180.1 17.0598C180.588 17.538 180.828 18.269 180.828 19.2528V25.9547C180.828 26.2963 180.945 26.5833 181.172 26.8087C181.399 27.0341 181.687 27.1503 182.031 27.1503C182.395 27.1503 182.684 27.0341 182.904 26.8087C183.124 26.5833 183.234 26.2963 183.234 25.9547V19.3484C183.234 18.4739 183.495 17.7566 184.024 17.1896C184.553 16.6294 185.22 16.3424 186.037 16.3424C186.821 16.3424 187.46 16.5815 187.948 17.0598C188.436 17.538 188.676 18.269 188.676 19.2528V25.9547C188.676 26.2963 188.793 26.5833 189.02 26.8087C189.247 27.0341 189.535 27.1503 189.879 27.1503C190.243 27.1503 190.532 27.0341 190.751 26.8087C190.971 26.5833 191.081 26.2963 191.081 25.9547V19.2528C191.081 18.1733 190.889 17.2579 190.504 16.4996C190.112 15.7344 189.576 15.1605 188.882 14.7711Z" fill="#ADCED8"/>
<path d="M203.931 15.0171C203.051 14.4774 202 14.2109 200.77 14.2109C199.526 14.2109 198.426 14.491 197.471 15.0444C196.509 15.5978 195.76 16.3629 195.217 17.3399C194.674 18.3168 194.406 19.4441 194.406 20.7284C194.406 21.9923 194.695 23.1127 195.265 24.0897C195.836 25.0666 196.633 25.8318 197.65 26.3851C198.66 26.9385 199.821 27.2186 201.127 27.2186C201.849 27.2186 202.611 27.0888 203.402 26.8224C204.199 26.5559 204.858 26.2144 205.395 25.7908C205.663 25.5858 205.786 25.3467 205.772 25.0666C205.759 24.7865 205.614 24.5269 205.346 24.2946C205.14 24.1238 204.9 24.0419 204.625 24.0487C204.35 24.0555 204.096 24.1443 203.862 24.3151C203.546 24.5474 203.134 24.7592 202.625 24.9368C202.117 25.1144 201.615 25.2033 201.127 25.2033C200.234 25.2033 199.437 25.0051 198.749 24.6157C198.055 24.2263 197.512 23.6934 197.121 23.0239C196.86 22.573 196.695 22.0811 196.605 21.5483H205.559C205.876 21.5483 206.13 21.4526 206.336 21.2545C206.542 21.0564 206.645 20.8104 206.645 20.5167C206.645 19.2801 206.412 18.1939 205.951 17.2442C205.484 16.3015 204.81 15.5568 203.931 15.0171ZM198.474 16.807C199.114 16.4176 199.876 16.2195 200.77 16.2195C201.553 16.2195 202.227 16.3971 202.776 16.7592C203.326 17.1213 203.752 17.6063 204.048 18.2212C204.261 18.6584 204.398 19.1435 204.467 19.6627H196.626C196.708 19.2186 196.832 18.7951 197.024 18.4125C197.354 17.7361 197.835 17.2033 198.474 16.807Z" fill="#ADCED8"/>
<path d="M207.812 7.39307H206.554H205.949H204.685C204.603 7.39307 204.534 7.42039 204.486 7.46822C204.431 7.52287 204.41 7.58436 204.41 7.66634C204.41 7.74832 204.438 7.81664 204.486 7.86446C204.541 7.91911 204.603 7.93961 204.685 7.93961H205.949V11.6151C205.949 11.6971 205.977 11.7722 206.039 11.8269C206.101 11.8815 206.169 11.9157 206.252 11.9157C206.334 11.9157 206.41 11.8884 206.465 11.8269C206.52 11.7654 206.554 11.6971 206.554 11.6151V7.93961H207.812C207.894 7.93961 207.963 7.91228 208.011 7.86446C208.066 7.8098 208.087 7.74832 208.087 7.66634C208.087 7.58436 208.059 7.51604 208.011 7.46822C207.963 7.42039 207.894 7.39307 207.812 7.39307Z" fill="#95CEE0"/>
<path d="M213.247 7.48188C213.185 7.42723 213.117 7.3999 213.034 7.3999C212.917 7.3999 212.828 7.45456 212.766 7.56386L211.076 11.0207L209.344 7.56386C209.282 7.45456 209.193 7.3999 209.076 7.3999C208.993 7.3999 208.918 7.42723 208.863 7.48188C208.801 7.53654 208.773 7.61169 208.773 7.7005V11.6356C208.773 11.7176 208.801 11.7927 208.863 11.8474C208.918 11.902 208.993 11.9362 209.076 11.9362C209.158 11.9362 209.234 11.9089 209.289 11.8474C209.351 11.7859 209.378 11.7176 209.378 11.6356V8.80042L210.773 11.5809C210.828 11.7039 210.924 11.7586 211.055 11.7586C211.165 11.7586 211.254 11.7107 211.316 11.6083L212.732 8.74576V11.6356C212.732 11.7176 212.759 11.7927 212.821 11.8474C212.883 11.902 212.952 11.9362 213.034 11.9362C213.117 11.9362 213.185 11.9089 213.247 11.8474C213.309 11.7859 213.336 11.7176 213.336 11.6356V7.7005C213.336 7.61169 213.302 7.53654 213.247 7.48188Z" fill="#95CEE0"/>
</g>
<defs>
<clipPath id="clip0_12663_6365">
<rect width="213.333" height="40" fill="white" transform="translate(0 0.000976562)"/>
</clipPath>
</defs>
</svg>
