<svg width="8" height="10" xmlns="http://www.w3.org/2000/svg"><g clip-path="url(#clip0)"><path d="M3.402 1.508l.396-.41a.417.417 0 01.606 0l3.471 3.588a.452.452 0 010 .626l-3.471 3.59a.417.417 0 01-.606 0l-.396-.41a.454.454 0 01.007-.634l2.152-2.12H.429A.435.435 0 010 5.296v-.59c0-.246.191-.444.429-.444H5.56l-2.152-2.12a.451.451 0 01-.007-.633z"/></g><defs><linearGradient id="paint0_linear" x1="0" y1="1.01" x2="8.536" y2="8.461" gradientUnits="userSpaceOnUse"><stop stop-color="#F99073"/><stop offset="1" stop-color="#D2957E"/></linearGradient><clipPath id="clip0"><path fill="#fff" transform="translate(0 .273)" d="M0 0h8v9.455H0z"/></clipPath></defs></svg>