<svg width="16" height="17" fill="none" xmlns="http://www.w3.org/2000/svg"><path d="M8 1.833A6.674 6.674 0 001.333 8.5 6.674 6.674 0 008 15.167 6.674 6.674 0 0014.667 8.5 6.674 6.674 0 008 1.833zm0 12A5.34 5.34 0 012.667 8.5 5.34 5.34 0 018 3.167 5.34 5.34 0 0113.333 8.5 5.34 5.34 0 018 13.833z" fill="url(#paint0_linear)"/><path d="M7.333 7.833h1.334v4H7.333v-4zm0-2.666h1.334V6.5H7.333V5.167z" fill="url(#paint1_linear)"/><defs><linearGradient id="paint0_linear" x1="1.333" y1="1.902" x2="15.461" y2="14.332" gradientUnits="userSpaceOnUse"><stop stop-color="#F99073"/><stop offset="1" stop-color="#D2957E"/></linearGradient><linearGradient id="paint1_linear" x1="7.333" y1="5.201" x2="9.764" y2="5.629" gradientUnits="userSpaceOnUse"><stop stop-color="#F99073"/><stop offset="1" stop-color="#D2957E"/></linearGradient></defs></svg>